<?xml version="1.0" encoding="utf-8" standalone="no"?>
<!DOCTYPE svg PUBLIC "-//W3C//DTD SVG 1.1//EN"
  "http://www.w3.org/Graphics/SVG/1.1/DTD/svg11.dtd">
<svg xmlns:xlink="http://www.w3.org/1999/xlink" width="855.67pt" height="423.320313pt" viewBox="0 0 855.67 423.320313" xmlns="http://www.w3.org/2000/svg" version="1.1">
 <metadata>
  <rdf:RDF xmlns:dc="http://purl.org/dc/elements/1.1/" xmlns:cc="http://creativecommons.org/ns#" xmlns:rdf="http://www.w3.org/1999/02/22-rdf-syntax-ns#">
   <cc:Work>
    <dc:type rdf:resource="http://purl.org/dc/dcmitype/StillImage"/>
    <dc:date>2024-09-29T22:52:38.969549</dc:date>
    <dc:format>image/svg+xml</dc:format>
    <dc:creator>
     <cc:Agent>
      <dc:title>Matplotlib v3.8.4, https://matplotlib.org/</dc:title>
     </cc:Agent>
    </dc:creator>
   </cc:Work>
  </rdf:RDF>
 </metadata>
 <defs>
  <style type="text/css">*{stroke-linejoin: round; stroke-linecap: butt}</style>
 </defs>
 <g id="figure_1">
  <g id="patch_1">
   <path d="M 0 423.320313 
L 855.67 423.320313 
L 855.67 0 
L 0 0 
z
" style="fill: #ffffff"/>
  </g>
  <g id="axes_1">
   <g id="patch_2">
    <path d="M 46.41 379.957188 
L 414.985 379.957188 
L 414.985 26.877188 
L 46.41 26.877188 
z
" style="fill: #ffffff"/>
   </g>
   <g id="matplotlib.axis_1">
    <g id="xtick_1">
     <g id="line2d_1">
      <defs>
       <path id="m9ad5c2438c" d="M 0 0 
L 0 3.5 
" style="stroke: #000000; stroke-width: 0.8"/>
      </defs>
      <g>
       <use xlink:href="#m9ad5c2438c" x="63.163409" y="379.957188" style="stroke: #000000; stroke-width: 0.8"/>
      </g>
     </g>
     <g id="text_1">
      <!-- 0 -->
      <g transform="translate(59.982159 394.555625) scale(0.1 -0.1)">
       <defs>
        <path id="DejaVuSans-30" d="M 2034 4250 
Q 1547 4250 1301 3770 
Q 1056 3291 1056 2328 
Q 1056 1369 1301 889 
Q 1547 409 2034 409 
Q 2525 409 2770 889 
Q 3016 1369 3016 2328 
Q 3016 3291 2770 3770 
Q 2525 4250 2034 4250 
z
M 2034 4750 
Q 2819 4750 3233 4129 
Q 3647 3509 3647 2328 
Q 3647 1150 3233 529 
Q 2819 -91 2034 -91 
Q 1250 -91 836 529 
Q 422 1150 422 2328 
Q 422 3509 836 4129 
Q 1250 4750 2034 4750 
z
" transform="scale(0.015625)"/>
       </defs>
       <use xlink:href="#DejaVuSans-30"/>
      </g>
     </g>
    </g>
    <g id="xtick_2">
     <g id="line2d_2">
      <g>
       <use xlink:href="#m9ad5c2438c" x="130.177045" y="379.957188" style="stroke: #000000; stroke-width: 0.8"/>
      </g>
     </g>
     <g id="text_2">
      <!-- 2 -->
      <g transform="translate(126.995795 394.555625) scale(0.1 -0.1)">
       <defs>
        <path id="DejaVuSans-32" d="M 1228 531 
L 3431 531 
L 3431 0 
L 469 0 
L 469 531 
Q 828 903 1448 1529 
Q 2069 2156 2228 2338 
Q 2531 2678 2651 2914 
Q 2772 3150 2772 3378 
Q 2772 3750 2511 3984 
Q 2250 4219 1831 4219 
Q 1534 4219 1204 4116 
Q 875 4013 500 3803 
L 500 4441 
Q 881 4594 1212 4672 
Q 1544 4750 1819 4750 
Q 2544 4750 2975 4387 
Q 3406 4025 3406 3419 
Q 3406 3131 3298 2873 
Q 3191 2616 2906 2266 
Q 2828 2175 2409 1742 
Q 1991 1309 1228 531 
z
" transform="scale(0.015625)"/>
       </defs>
       <use xlink:href="#DejaVuSans-32"/>
      </g>
     </g>
    </g>
    <g id="xtick_3">
     <g id="line2d_3">
      <g>
       <use xlink:href="#m9ad5c2438c" x="197.190682" y="379.957188" style="stroke: #000000; stroke-width: 0.8"/>
      </g>
     </g>
     <g id="text_3">
      <!-- 4 -->
      <g transform="translate(194.009432 394.555625) scale(0.1 -0.1)">
       <defs>
        <path id="DejaVuSans-34" d="M 2419 4116 
L 825 1625 
L 2419 1625 
L 2419 4116 
z
M 2253 4666 
L 3047 4666 
L 3047 1625 
L 3713 1625 
L 3713 1100 
L 3047 1100 
L 3047 0 
L 2419 0 
L 2419 1100 
L 313 1100 
L 313 1709 
L 2253 4666 
z
" transform="scale(0.015625)"/>
       </defs>
       <use xlink:href="#DejaVuSans-34"/>
      </g>
     </g>
    </g>
    <g id="xtick_4">
     <g id="line2d_4">
      <g>
       <use xlink:href="#m9ad5c2438c" x="264.204318" y="379.957188" style="stroke: #000000; stroke-width: 0.8"/>
      </g>
     </g>
     <g id="text_4">
      <!-- 6 -->
      <g transform="translate(261.023068 394.555625) scale(0.1 -0.1)">
       <defs>
        <path id="DejaVuSans-36" d="M 2113 2584 
Q 1688 2584 1439 2293 
Q 1191 2003 1191 1497 
Q 1191 994 1439 701 
Q 1688 409 2113 409 
Q 2538 409 2786 701 
Q 3034 994 3034 1497 
Q 3034 2003 2786 2293 
Q 2538 2584 2113 2584 
z
M 3366 4563 
L 3366 3988 
Q 3128 4100 2886 4159 
Q 2644 4219 2406 4219 
Q 1781 4219 1451 3797 
Q 1122 3375 1075 2522 
Q 1259 2794 1537 2939 
Q 1816 3084 2150 3084 
Q 2853 3084 3261 2657 
Q 3669 2231 3669 1497 
Q 3669 778 3244 343 
Q 2819 -91 2113 -91 
Q 1303 -91 875 529 
Q 447 1150 447 2328 
Q 447 3434 972 4092 
Q 1497 4750 2381 4750 
Q 2619 4750 2861 4703 
Q 3103 4656 3366 4563 
z
" transform="scale(0.015625)"/>
       </defs>
       <use xlink:href="#DejaVuSans-36"/>
      </g>
     </g>
    </g>
    <g id="xtick_5">
     <g id="line2d_5">
      <g>
       <use xlink:href="#m9ad5c2438c" x="331.217955" y="379.957188" style="stroke: #000000; stroke-width: 0.8"/>
      </g>
     </g>
     <g id="text_5">
      <!-- 8 -->
      <g transform="translate(328.036705 394.555625) scale(0.1 -0.1)">
       <defs>
        <path id="DejaVuSans-38" d="M 2034 2216 
Q 1584 2216 1326 1975 
Q 1069 1734 1069 1313 
Q 1069 891 1326 650 
Q 1584 409 2034 409 
Q 2484 409 2743 651 
Q 3003 894 3003 1313 
Q 3003 1734 2745 1975 
Q 2488 2216 2034 2216 
z
M 1403 2484 
Q 997 2584 770 2862 
Q 544 3141 544 3541 
Q 544 4100 942 4425 
Q 1341 4750 2034 4750 
Q 2731 4750 3128 4425 
Q 3525 4100 3525 3541 
Q 3525 3141 3298 2862 
Q 3072 2584 2669 2484 
Q 3125 2378 3379 2068 
Q 3634 1759 3634 1313 
Q 3634 634 3220 271 
Q 2806 -91 2034 -91 
Q 1263 -91 848 271 
Q 434 634 434 1313 
Q 434 1759 690 2068 
Q 947 2378 1403 2484 
z
M 1172 3481 
Q 1172 3119 1398 2916 
Q 1625 2713 2034 2713 
Q 2441 2713 2670 2916 
Q 2900 3119 2900 3481 
Q 2900 3844 2670 4047 
Q 2441 4250 2034 4250 
Q 1625 4250 1398 4047 
Q 1172 3844 1172 3481 
z
" transform="scale(0.015625)"/>
       </defs>
       <use xlink:href="#DejaVuSans-38"/>
      </g>
     </g>
    </g>
    <g id="xtick_6">
     <g id="line2d_6">
      <g>
       <use xlink:href="#m9ad5c2438c" x="398.231591" y="379.957188" style="stroke: #000000; stroke-width: 0.8"/>
      </g>
     </g>
     <g id="text_6">
      <!-- 10 -->
      <g transform="translate(391.869091 394.555625) scale(0.1 -0.1)">
       <defs>
        <path id="DejaVuSans-31" d="M 794 531 
L 1825 531 
L 1825 4091 
L 703 3866 
L 703 4441 
L 1819 4666 
L 2450 4666 
L 2450 531 
L 3481 531 
L 3481 0 
L 794 0 
L 794 531 
z
" transform="scale(0.015625)"/>
       </defs>
       <use xlink:href="#DejaVuSans-31"/>
       <use xlink:href="#DejaVuSans-30" x="63.623047"/>
      </g>
     </g>
    </g>
    <g id="text_7">
     <!-- t -->
     <g transform="translate(227.56125 412.792813) scale(0.16 -0.16)">
      <defs>
       <path id="DejaVuSans-74" d="M 1172 4494 
L 1172 3500 
L 2356 3500 
L 2356 3053 
L 1172 3053 
L 1172 1153 
Q 1172 725 1289 603 
Q 1406 481 1766 481 
L 2356 481 
L 2356 0 
L 1766 0 
Q 1100 0 847 248 
Q 594 497 594 1153 
L 594 3053 
L 172 3053 
L 172 3500 
L 594 3500 
L 594 4494 
L 1172 4494 
z
" transform="scale(0.015625)"/>
      </defs>
      <use xlink:href="#DejaVuSans-74"/>
     </g>
    </g>
   </g>
   <g id="matplotlib.axis_2">
    <g id="ytick_1">
     <g id="line2d_7">
      <defs>
       <path id="m973d93398b" d="M 0 0 
L -3.5 0 
" style="stroke: #000000; stroke-width: 0.8"/>
      </defs>
      <g>
       <use xlink:href="#m973d93398b" x="46.41" y="366.058206" style="stroke: #000000; stroke-width: 0.8"/>
      </g>
     </g>
     <g id="text_8">
      <!-- 0 -->
      <g transform="translate(33.0475 369.857425) scale(0.1 -0.1)">
       <use xlink:href="#DejaVuSans-30"/>
      </g>
     </g>
    </g>
    <g id="ytick_2">
     <g id="line2d_8">
      <g>
       <use xlink:href="#m973d93398b" x="46.41" y="301.431821" style="stroke: #000000; stroke-width: 0.8"/>
      </g>
     </g>
     <g id="text_9">
      <!-- 2 -->
      <g transform="translate(33.0475 305.231039) scale(0.1 -0.1)">
       <use xlink:href="#DejaVuSans-32"/>
      </g>
     </g>
    </g>
    <g id="ytick_3">
     <g id="line2d_9">
      <g>
       <use xlink:href="#m973d93398b" x="46.41" y="236.805435" style="stroke: #000000; stroke-width: 0.8"/>
      </g>
     </g>
     <g id="text_10">
      <!-- 4 -->
      <g transform="translate(33.0475 240.604654) scale(0.1 -0.1)">
       <use xlink:href="#DejaVuSans-34"/>
      </g>
     </g>
    </g>
    <g id="ytick_4">
     <g id="line2d_10">
      <g>
       <use xlink:href="#m973d93398b" x="46.41" y="172.17905" style="stroke: #000000; stroke-width: 0.8"/>
      </g>
     </g>
     <g id="text_11">
      <!-- 6 -->
      <g transform="translate(33.0475 175.978268) scale(0.1 -0.1)">
       <use xlink:href="#DejaVuSans-36"/>
      </g>
     </g>
    </g>
    <g id="ytick_5">
     <g id="line2d_11">
      <g>
       <use xlink:href="#m973d93398b" x="46.41" y="107.552664" style="stroke: #000000; stroke-width: 0.8"/>
      </g>
     </g>
     <g id="text_12">
      <!-- 8 -->
      <g transform="translate(33.0475 111.351883) scale(0.1 -0.1)">
       <use xlink:href="#DejaVuSans-38"/>
      </g>
     </g>
    </g>
    <g id="ytick_6">
     <g id="line2d_12">
      <g>
       <use xlink:href="#m973d93398b" x="46.41" y="42.926278" style="stroke: #000000; stroke-width: 0.8"/>
      </g>
     </g>
     <g id="text_13">
      <!-- 10 -->
      <g transform="translate(26.685 46.725497) scale(0.1 -0.1)">
       <use xlink:href="#DejaVuSans-31"/>
       <use xlink:href="#DejaVuSans-30" x="63.623047"/>
      </g>
     </g>
    </g>
    <g id="text_14">
     <!-- N(t) -->
     <g transform="translate(19.3575 218.780938) rotate(-90) scale(0.16 -0.16)">
      <defs>
       <path id="DejaVuSans-4e" d="M 628 4666 
L 1478 4666 
L 3547 763 
L 3547 4666 
L 4159 4666 
L 4159 0 
L 3309 0 
L 1241 3903 
L 1241 0 
L 628 0 
L 628 4666 
z
" transform="scale(0.015625)"/>
       <path id="DejaVuSans-28" d="M 1984 4856 
Q 1566 4138 1362 3434 
Q 1159 2731 1159 2009 
Q 1159 1288 1364 580 
Q 1569 -128 1984 -844 
L 1484 -844 
Q 1016 -109 783 600 
Q 550 1309 550 2009 
Q 550 2706 781 3412 
Q 1013 4119 1484 4856 
L 1984 4856 
z
" transform="scale(0.015625)"/>
       <path id="DejaVuSans-29" d="M 513 4856 
L 1013 4856 
Q 1481 4119 1714 3412 
Q 1947 2706 1947 2009 
Q 1947 1309 1714 600 
Q 1481 -109 1013 -844 
L 513 -844 
Q 928 -128 1133 580 
Q 1338 1288 1338 2009 
Q 1338 2731 1133 3434 
Q 928 4138 513 4856 
z
" transform="scale(0.015625)"/>
      </defs>
      <use xlink:href="#DejaVuSans-4e"/>
      <use xlink:href="#DejaVuSans-28" x="74.804688"/>
      <use xlink:href="#DejaVuSans-74" x="113.818359"/>
      <use xlink:href="#DejaVuSans-29" x="153.027344"/>
     </g>
    </g>
   </g>
   <g id="line2d_13">
    <path d="M 63.163409 42.926278 
L 67.184227 61.789813 
L 71.205045 79.552148 
L 75.225864 96.277568 
L 79.246682 112.026604 
L 83.2675 126.856256 
L 87.288318 140.820194 
L 91.309136 153.968957 
L 95.329955 166.350132 
L 99.350773 178.008529 
L 103.371591 188.986341 
L 107.392409 199.3233 
L 111.413227 209.056816 
L 115.434045 218.222116 
L 119.454864 226.852372 
L 123.475682 234.978818 
L 127.4965 242.630865 
L 131.517318 249.836207 
L 135.538136 256.620921 
L 139.894023 263.524805 
L 144.249909 269.993156 
L 148.605795 276.05345 
L 152.961682 281.731427 
L 157.317568 287.051208 
L 161.673455 292.035389 
L 166.364409 297.051906 
L 171.055364 301.728455 
L 175.746318 306.088075 
L 180.437273 310.152243 
L 185.463295 314.20157 
L 190.489318 317.957599 
L 195.515341 321.441576 
L 200.876432 324.88013 
L 206.237523 328.053678 
L 211.933682 331.158022 
L 217.629841 334.008792 
L 223.661068 336.773859 
L 229.692295 339.300369 
L 236.058591 341.731151 
L 242.759955 344.051697 
L 249.796386 346.250424 
L 257.167886 348.318614 
L 264.874455 350.250295 
L 273.251159 352.112147 
L 281.962932 353.816228 
L 291.344841 355.419279 
L 301.396886 356.904641 
L 312.119068 358.261182 
L 323.846455 359.515812 
L 336.579045 360.650492 
L 350.651909 361.677106 
L 366.400114 362.596678 
L 384.158727 363.404266 
L 398.231591 363.908097 
L 398.231591 363.908097 
" clip-path="url(#pb973e7f7f7)" style="fill: none; stroke: #1f77b4; stroke-width: 1.5; stroke-linecap: square"/>
   </g>
   <g id="line2d_14">
    <path d="M 63.163409 42.926278 
L 67.016693 61.004243 
L 71.037511 78.790785 
L 75.05833 95.54026 
L 79.079148 111.313138 
L 83.099966 126.166358 
L 87.120784 140.153544 
L 91.141602 153.325189 
L 95.16242 165.728846 
L 99.183239 177.409293 
L 103.204057 188.408696 
L 107.224875 198.766767 
L 111.245693 208.520897 
L 115.266511 217.706301 
L 119.28733 226.356139 
L 123.308148 234.501638 
L 127.4965 242.481918 
L 131.684852 249.978111 
L 135.873205 257.019582 
L 140.061557 263.633914 
L 144.249909 269.847017 
L 148.605795 275.909169 
L 152.961682 281.589351 
L 157.317568 286.911632 
L 161.840989 292.083962 
L 166.364409 296.918273 
L 170.88783 301.436656 
L 175.578784 305.810753 
L 180.269739 309.888776 
L 185.128227 313.821685 
L 190.15425 317.600665 
L 195.180273 321.106259 
L 200.37383 324.462496 
L 205.73492 327.664372 
L 211.263545 330.708377 
L 216.959705 333.592409 
L 222.823398 336.315689 
L 229.022159 338.946604 
L 235.388455 341.406581 
L 242.089818 343.755286 
L 249.12625 345.98098 
L 256.49775 348.074819 
L 264.204318 350.030732 
L 272.413489 351.880779 
L 281.125261 353.611099 
L 290.339636 355.211992 
L 300.224148 356.701144 
L 310.94633 358.086241 
L 322.506182 359.350781 
L 335.071239 360.498861 
L 348.976568 361.541782 
L 364.389705 362.470789 
L 381.81325 363.293023 
L 398.231591 363.894548 
L 398.231591 363.894548 
" clip-path="url(#pb973e7f7f7)" style="fill: none; stroke: #ff7f0e; stroke-width: 1.5; stroke-linecap: square"/>
   </g>
   <g id="line2d_15">
    <path d="M 63.163409 42.926278 
L 67.117214 61.444045 
L 71.071018 78.900612 
L 75.024823 95.356792 
L 78.978627 110.869916 
L 82.932432 125.494027 
L 86.886236 139.280072 
L 90.873548 152.38297 
L 94.860859 164.728802 
L 98.84817 176.36131 
L 102.868989 187.411078 
L 106.889807 197.817201 
L 110.944132 207.696392 
L 114.998457 216.995473 
L 119.086289 225.818662 
L 123.17412 234.119597 
L 127.295459 241.991254 
L 131.450305 249.451609 
L 135.638657 256.518158 
L 139.860516 263.207913 
L 144.115882 269.537401 
L 148.404755 275.522657 
L 152.760641 281.221668 
L 157.150034 286.601687 
L 161.606441 291.714924 
L 166.129861 296.568653 
L 170.720295 301.170427 
L 175.41125 305.558301 
L 180.169218 309.705851 
L 185.027707 313.647761 
L 190.020223 317.411346 
L 195.113259 320.972364 
L 200.340323 324.35622 
L 205.73492 327.582439 
L 211.263545 330.63001 
L 216.993211 333.533935 
L 222.923918 336.289298 
L 229.055666 338.892874 
L 235.455468 341.367727 
L 242.123325 343.70672 
L 249.092743 345.915005 
L 256.430736 348.004709 
L 264.137305 349.966392 
L 272.279461 351.807873 
L 280.92422 353.532938 
L 290.138595 355.14238 
L 299.9896 356.634986 
L 310.611261 358.016532 
L 322.1041 359.284189 
L 334.63565 360.439803 
L 348.440459 361.485999 
L 363.786582 362.422008 
L 381.0761 363.249078 
L 398.231591 363.883681 
L 398.231591 363.883681 
" clip-path="url(#pb973e7f7f7)" style="fill: none; stroke: #2ca02c; stroke-width: 1.5; stroke-linecap: square"/>
   </g>
   <g id="line2d_16">
    <path d="M 63.163409 42.926278 
L 67.184227 61.744017 
L 71.205045 79.465896 
L 75.225864 96.155733 
L 79.246682 111.873629 
L 83.2675 126.676186 
L 87.288318 140.61671 
L 91.309136 153.745401 
L 95.329955 166.109536 
L 99.350773 177.75364 
L 103.371591 188.719644 
L 107.392409 199.047038 
L 111.413227 208.773011 
L 115.434045 217.932588 
L 119.454864 226.558753 
L 123.475682 234.682568 
L 127.4965 242.33329 
L 131.517318 249.538468 
L 135.873205 256.871351 
L 140.229091 263.742757 
L 144.584977 270.181727 
L 148.940864 276.215477 
L 153.29675 281.869508 
L 157.652636 287.167717 
L 162.008523 292.132495 
L 166.699477 297.13033 
L 171.390432 301.790281 
L 176.081386 306.135189 
L 180.772341 310.186356 
L 185.798364 314.223461 
L 190.824386 317.968859 
L 195.850409 321.443627 
L 201.2115 324.873759 
L 206.572591 328.04017 
L 212.26875 331.138173 
L 217.964909 333.983727 
L 223.996136 336.744339 
L 230.027364 339.267349 
L 236.393659 341.695326 
L 243.095023 344.01376 
L 250.131455 346.211051 
L 257.502955 348.278447 
L 265.209523 350.209931 
L 273.586227 352.072152 
L 282.298 353.777116 
L 291.679909 355.38154 
L 301.731955 356.868714 
L 312.454136 358.227438 
L 324.181523 359.484612 
L 336.914114 360.622113 
L 350.986977 361.651795 
L 366.735182 362.574626 
L 384.493795 363.385582 
L 398.231591 363.88096 
L 398.231591 363.88096 
" clip-path="url(#pb973e7f7f7)" style="fill: none; stroke-dasharray: 5.55,2.4; stroke-dashoffset: 0; stroke: #000000; stroke-width: 1.5"/>
   </g>
   <g id="patch_3">
    <path d="M 46.41 379.957188 
L 46.41 26.877188 
" style="fill: none; stroke: #000000; stroke-width: 0.8; stroke-linejoin: miter; stroke-linecap: square"/>
   </g>
   <g id="patch_4">
    <path d="M 414.985 379.957188 
L 414.985 26.877188 
" style="fill: none; stroke: #000000; stroke-width: 0.8; stroke-linejoin: miter; stroke-linecap: square"/>
   </g>
   <g id="patch_5">
    <path d="M 46.41 379.957188 
L 414.985 379.957188 
" style="fill: none; stroke: #000000; stroke-width: 0.8; stroke-linejoin: miter; stroke-linecap: square"/>
   </g>
   <g id="patch_6">
    <path d="M 46.41 26.877188 
L 414.985 26.877188 
" style="fill: none; stroke: #000000; stroke-width: 0.8; stroke-linejoin: miter; stroke-linecap: square"/>
   </g>
   <g id="text_15">
    <!-- (a) -->
    <g transform="translate(218.159375 20.877188) scale(0.18 -0.18)">
     <defs>
      <path id="DejaVuSans-61" d="M 2194 1759 
Q 1497 1759 1228 1600 
Q 959 1441 959 1056 
Q 959 750 1161 570 
Q 1363 391 1709 391 
Q 2188 391 2477 730 
Q 2766 1069 2766 1631 
L 2766 1759 
L 2194 1759 
z
M 3341 1997 
L 3341 0 
L 2766 0 
L 2766 531 
Q 2569 213 2275 61 
Q 1981 -91 1556 -91 
Q 1019 -91 701 211 
Q 384 513 384 1019 
Q 384 1609 779 1909 
Q 1175 2209 1959 2209 
L 2766 2209 
L 2766 2266 
Q 2766 2663 2505 2880 
Q 2244 3097 1772 3097 
Q 1472 3097 1187 3025 
Q 903 2953 641 2809 
L 641 3341 
Q 956 3463 1253 3523 
Q 1550 3584 1831 3584 
Q 2591 3584 2966 3190 
Q 3341 2797 3341 1997 
z
" transform="scale(0.015625)"/>
     </defs>
     <use xlink:href="#DejaVuSans-28"/>
     <use xlink:href="#DejaVuSans-61" x="39.013672"/>
     <use xlink:href="#DejaVuSans-29" x="100.292969"/>
    </g>
   </g>
   <g id="legend_1">
    <g id="patch_7">
     <path d="M 261.265 109.598438 
L 406.585 109.598438 
Q 408.985 109.598438 408.985 107.198438 
L 408.985 35.277188 
Q 408.985 32.877188 406.585 32.877188 
L 261.265 32.877188 
Q 258.865 32.877188 258.865 35.277188 
L 258.865 107.198438 
Q 258.865 109.598438 261.265 109.598438 
z
" style="fill: #ffffff; opacity: 0.8; stroke: #cccccc; stroke-linejoin: miter"/>
    </g>
    <g id="line2d_17">
     <path d="M 263.665 42.595313 
L 275.665 42.595313 
L 287.665 42.595313 
" style="fill: none; stroke: #1f77b4; stroke-width: 1.5; stroke-linecap: square"/>
    </g>
    <g id="text_16">
     <!-- Δt = 0.01 s -->
     <g transform="translate(297.265 46.795313) scale(0.12 -0.12)">
      <defs>
       <path id="DejaVuSans-394" d="M 2188 4044 
L 906 525 
L 3472 525 
L 2188 4044 
z
M 50 0 
L 1831 4666 
L 2547 4666 
L 4325 0 
L 50 0 
z
" transform="scale(0.015625)"/>
       <path id="DejaVuSans-20" transform="scale(0.015625)"/>
       <path id="DejaVuSans-3d" d="M 678 2906 
L 4684 2906 
L 4684 2381 
L 678 2381 
L 678 2906 
z
M 678 1631 
L 4684 1631 
L 4684 1100 
L 678 1100 
L 678 1631 
z
" transform="scale(0.015625)"/>
       <path id="DejaVuSans-2e" d="M 684 794 
L 1344 794 
L 1344 0 
L 684 0 
L 684 794 
z
" transform="scale(0.015625)"/>
       <path id="DejaVuSans-73" d="M 2834 3397 
L 2834 2853 
Q 2591 2978 2328 3040 
Q 2066 3103 1784 3103 
Q 1356 3103 1142 2972 
Q 928 2841 928 2578 
Q 928 2378 1081 2264 
Q 1234 2150 1697 2047 
L 1894 2003 
Q 2506 1872 2764 1633 
Q 3022 1394 3022 966 
Q 3022 478 2636 193 
Q 2250 -91 1575 -91 
Q 1294 -91 989 -36 
Q 684 19 347 128 
L 347 722 
Q 666 556 975 473 
Q 1284 391 1588 391 
Q 1994 391 2212 530 
Q 2431 669 2431 922 
Q 2431 1156 2273 1281 
Q 2116 1406 1581 1522 
L 1381 1569 
Q 847 1681 609 1914 
Q 372 2147 372 2553 
Q 372 3047 722 3315 
Q 1072 3584 1716 3584 
Q 2034 3584 2315 3537 
Q 2597 3491 2834 3397 
z
" transform="scale(0.015625)"/>
      </defs>
      <use xlink:href="#DejaVuSans-394"/>
      <use xlink:href="#DejaVuSans-74" x="68.408203"/>
      <use xlink:href="#DejaVuSans-20" x="107.617188"/>
      <use xlink:href="#DejaVuSans-3d" x="139.404297"/>
      <use xlink:href="#DejaVuSans-20" x="223.193359"/>
      <use xlink:href="#DejaVuSans-30" x="254.980469"/>
      <use xlink:href="#DejaVuSans-2e" x="318.603516"/>
      <use xlink:href="#DejaVuSans-30" x="350.390625"/>
      <use xlink:href="#DejaVuSans-31" x="414.013672"/>
      <use xlink:href="#DejaVuSans-20" x="477.636719"/>
      <use xlink:href="#DejaVuSans-73" x="509.423828"/>
     </g>
    </g>
    <g id="line2d_18">
     <path d="M 263.665 60.209063 
L 275.665 60.209063 
L 287.665 60.209063 
" style="fill: none; stroke: #ff7f0e; stroke-width: 1.5; stroke-linecap: square"/>
    </g>
    <g id="text_17">
     <!-- Δt = 0.05 s -->
     <g transform="translate(297.265 64.409063) scale(0.12 -0.12)">
      <defs>
       <path id="DejaVuSans-35" d="M 691 4666 
L 3169 4666 
L 3169 4134 
L 1269 4134 
L 1269 2991 
Q 1406 3038 1543 3061 
Q 1681 3084 1819 3084 
Q 2600 3084 3056 2656 
Q 3513 2228 3513 1497 
Q 3513 744 3044 326 
Q 2575 -91 1722 -91 
Q 1428 -91 1123 -41 
Q 819 9 494 109 
L 494 744 
Q 775 591 1075 516 
Q 1375 441 1709 441 
Q 2250 441 2565 725 
Q 2881 1009 2881 1497 
Q 2881 1984 2565 2268 
Q 2250 2553 1709 2553 
Q 1456 2553 1204 2497 
Q 953 2441 691 2322 
L 691 4666 
z
" transform="scale(0.015625)"/>
      </defs>
      <use xlink:href="#DejaVuSans-394"/>
      <use xlink:href="#DejaVuSans-74" x="68.408203"/>
      <use xlink:href="#DejaVuSans-20" x="107.617188"/>
      <use xlink:href="#DejaVuSans-3d" x="139.404297"/>
      <use xlink:href="#DejaVuSans-20" x="223.193359"/>
      <use xlink:href="#DejaVuSans-30" x="254.980469"/>
      <use xlink:href="#DejaVuSans-2e" x="318.603516"/>
      <use xlink:href="#DejaVuSans-30" x="350.390625"/>
      <use xlink:href="#DejaVuSans-35" x="414.013672"/>
      <use xlink:href="#DejaVuSans-20" x="477.636719"/>
      <use xlink:href="#DejaVuSans-73" x="509.423828"/>
     </g>
    </g>
    <g id="line2d_19">
     <path d="M 263.665 77.822813 
L 275.665 77.822813 
L 287.665 77.822813 
" style="fill: none; stroke: #2ca02c; stroke-width: 1.5; stroke-linecap: square"/>
    </g>
    <g id="text_18">
     <!-- Δt = 0.001 s -->
     <g transform="translate(297.265 82.022813) scale(0.12 -0.12)">
      <use xlink:href="#DejaVuSans-394"/>
      <use xlink:href="#DejaVuSans-74" x="68.408203"/>
      <use xlink:href="#DejaVuSans-20" x="107.617188"/>
      <use xlink:href="#DejaVuSans-3d" x="139.404297"/>
      <use xlink:href="#DejaVuSans-20" x="223.193359"/>
      <use xlink:href="#DejaVuSans-30" x="254.980469"/>
      <use xlink:href="#DejaVuSans-2e" x="318.603516"/>
      <use xlink:href="#DejaVuSans-30" x="350.390625"/>
      <use xlink:href="#DejaVuSans-30" x="414.013672"/>
      <use xlink:href="#DejaVuSans-31" x="477.636719"/>
      <use xlink:href="#DejaVuSans-20" x="541.259766"/>
      <use xlink:href="#DejaVuSans-73" x="573.046875"/>
     </g>
    </g>
    <g id="line2d_20">
     <path d="M 263.665 97.478438 
L 275.665 97.478438 
L 287.665 97.478438 
" style="fill: none; stroke-dasharray: 5.55,2.4; stroke-dashoffset: 0; stroke: #000000; stroke-width: 1.5"/>
    </g>
    <g id="text_19">
     <!-- N(t) = $N_0   \exp\left(-\frac{t}{\tau}\right)$ -->
     <g transform="translate(297.265 101.678438) scale(0.12 -0.12)">
      <defs>
       <path id="DejaVuSans-Oblique-4e" d="M 1081 4666 
L 1931 4666 
L 3219 666 
L 4000 4666 
L 4616 4666 
L 3706 0 
L 2853 0 
L 1569 4025 
L 788 0 
L 172 0 
L 1081 4666 
z
" transform="scale(0.015625)"/>
       <path id="DejaVuSans-65" d="M 3597 1894 
L 3597 1613 
L 953 1613 
Q 991 1019 1311 708 
Q 1631 397 2203 397 
Q 2534 397 2845 478 
Q 3156 559 3463 722 
L 3463 178 
Q 3153 47 2828 -22 
Q 2503 -91 2169 -91 
Q 1331 -91 842 396 
Q 353 884 353 1716 
Q 353 2575 817 3079 
Q 1281 3584 2069 3584 
Q 2775 3584 3186 3129 
Q 3597 2675 3597 1894 
z
M 3022 2063 
Q 3016 2534 2758 2815 
Q 2500 3097 2075 3097 
Q 1594 3097 1305 2825 
Q 1016 2553 972 2059 
L 3022 2063 
z
" transform="scale(0.015625)"/>
       <path id="DejaVuSans-78" d="M 3513 3500 
L 2247 1797 
L 3578 0 
L 2900 0 
L 1881 1375 
L 863 0 
L 184 0 
L 1544 1831 
L 300 3500 
L 978 3500 
L 1906 2253 
L 2834 3500 
L 3513 3500 
z
" transform="scale(0.015625)"/>
       <path id="DejaVuSans-70" d="M 1159 525 
L 1159 -1331 
L 581 -1331 
L 581 3500 
L 1159 3500 
L 1159 2969 
Q 1341 3281 1617 3432 
Q 1894 3584 2278 3584 
Q 2916 3584 3314 3078 
Q 3713 2572 3713 1747 
Q 3713 922 3314 415 
Q 2916 -91 2278 -91 
Q 1894 -91 1617 61 
Q 1341 213 1159 525 
z
M 3116 1747 
Q 3116 2381 2855 2742 
Q 2594 3103 2138 3103 
Q 1681 3103 1420 2742 
Q 1159 2381 1159 1747 
Q 1159 1113 1420 752 
Q 1681 391 2138 391 
Q 2594 391 2855 752 
Q 3116 1113 3116 1747 
z
" transform="scale(0.015625)"/>
       <path id="STIXSizeOneSym-Regular-28" d="M 2445 -858 
L 2445 -1050 
Q 1728 -371 1309 630 
Q 890 1632 890 2886 
Q 890 4122 1309 5136 
Q 1728 6150 2445 6822 
L 2445 6630 
Q 1408 5363 1408 2886 
Q 1408 410 2445 -858 
z
" transform="scale(0.015625)"/>
       <path id="DejaVuSans-2212" d="M 678 2272 
L 4684 2272 
L 4684 1741 
L 678 1741 
L 678 2272 
z
" transform="scale(0.015625)"/>
       <path id="DejaVuSans-Oblique-74" d="M 2706 3500 
L 2619 3053 
L 1472 3053 
L 1100 1153 
Q 1081 1047 1072 975 
Q 1063 903 1063 863 
Q 1063 663 1183 572 
Q 1303 481 1569 481 
L 2150 481 
L 2053 0 
L 1503 0 
Q 991 0 739 200 
Q 488 400 488 806 
Q 488 878 497 964 
Q 506 1050 525 1153 
L 897 3053 
L 409 3053 
L 500 3500 
L 978 3500 
L 1172 4494 
L 1747 4494 
L 1556 3500 
L 2706 3500 
z
" transform="scale(0.015625)"/>
       <path id="DejaVuSans-Oblique-3c4" d="M 2103 638 
Q 2188 488 2525 488 
L 2800 488 
L 2706 0 
L 2363 0 
Q 1800 0 1600 300 
Q 1403 606 1534 1269 
L 1856 2925 
L 541 2925 
L 653 3500 
L 3881 3500 
L 3769 2925 
L 2444 2925 
L 2113 1234 
Q 2025 781 2103 638 
z
" transform="scale(0.015625)"/>
       <path id="STIXSizeOneSym-Regular-29" d="M 550 6630 
L 550 6822 
Q 1267 6144 1686 5142 
Q 2106 4141 2106 2886 
Q 2106 1651 1686 636 
Q 1267 -378 550 -1050 
L 550 -858 
Q 1587 410 1587 2886 
Q 1587 5363 550 6630 
z
" transform="scale(0.015625)"/>
      </defs>
      <use xlink:href="#DejaVuSans-4e" transform="translate(0 0.046875)"/>
      <use xlink:href="#DejaVuSans-28" transform="translate(74.804688 0.046875)"/>
      <use xlink:href="#DejaVuSans-74" transform="translate(113.818359 0.046875)"/>
      <use xlink:href="#DejaVuSans-29" transform="translate(153.027344 0.046875)"/>
      <use xlink:href="#DejaVuSans-20" transform="translate(192.041016 0.046875)"/>
      <use xlink:href="#DejaVuSans-3d" transform="translate(223.828125 0.046875)"/>
      <use xlink:href="#DejaVuSans-20" transform="translate(307.617188 0.046875)"/>
      <use xlink:href="#DejaVuSans-Oblique-4e" transform="translate(339.404297 0.046875)"/>
      <use xlink:href="#DejaVuSans-30" transform="translate(414.208984 -16.359375) scale(0.7)"/>
      <use xlink:href="#DejaVuSans-65" transform="translate(461.479492 0.046875)"/>
      <use xlink:href="#DejaVuSans-78" transform="translate(523.00293 0.046875)"/>
      <use xlink:href="#DejaVuSans-70" transform="translate(582.182617 0.046875)"/>
      <use xlink:href="#STIXSizeOneSym-Regular-28" transform="translate(661.894856 -9.859375) scale(0.964914)"/>
      <use xlink:href="#DejaVuSans-2212" transform="translate(707.049534 0.046875)"/>
      <use xlink:href="#DejaVuSans-Oblique-74" transform="translate(797.838597 43.84375) scale(0.7)"/>
      <use xlink:href="#DejaVuSans-Oblique-3c4" transform="translate(790.838597 -25.6875) scale(0.7)"/>
      <use xlink:href="#STIXSizeOneSym-Regular-29" transform="translate(845.482151 -9.859375) scale(0.964914)"/>
      <path d="M 790.838597 18.84375 
L 790.838597 25.09375 
L 832.982151 25.09375 
L 832.982151 18.84375 
L 790.838597 18.84375 
z
"/>
     </g>
    </g>
   </g>
  </g>
  <g id="axes_2">
   <g id="patch_8">
    <path d="M 479.895 379.957188 
L 848.47 379.957188 
L 848.47 26.877188 
L 479.895 26.877188 
z
" style="fill: #ffffff"/>
   </g>
   <g id="matplotlib.axis_3">
    <g id="xtick_7">
     <g id="line2d_21">
      <g>
       <use xlink:href="#m9ad5c2438c" x="496.648409" y="379.957188" style="stroke: #000000; stroke-width: 0.8"/>
      </g>
     </g>
     <g id="text_20">
      <!-- 0 -->
      <g transform="translate(493.467159 394.555625) scale(0.1 -0.1)">
       <use xlink:href="#DejaVuSans-30"/>
      </g>
     </g>
    </g>
    <g id="xtick_8">
     <g id="line2d_22">
      <g>
       <use xlink:href="#m9ad5c2438c" x="563.662045" y="379.957188" style="stroke: #000000; stroke-width: 0.8"/>
      </g>
     </g>
     <g id="text_21">
      <!-- 2 -->
      <g transform="translate(560.480795 394.555625) scale(0.1 -0.1)">
       <use xlink:href="#DejaVuSans-32"/>
      </g>
     </g>
    </g>
    <g id="xtick_9">
     <g id="line2d_23">
      <g>
       <use xlink:href="#m9ad5c2438c" x="630.675682" y="379.957188" style="stroke: #000000; stroke-width: 0.8"/>
      </g>
     </g>
     <g id="text_22">
      <!-- 4 -->
      <g transform="translate(627.494432 394.555625) scale(0.1 -0.1)">
       <use xlink:href="#DejaVuSans-34"/>
      </g>
     </g>
    </g>
    <g id="xtick_10">
     <g id="line2d_24">
      <g>
       <use xlink:href="#m9ad5c2438c" x="697.689318" y="379.957188" style="stroke: #000000; stroke-width: 0.8"/>
      </g>
     </g>
     <g id="text_23">
      <!-- 6 -->
      <g transform="translate(694.508068 394.555625) scale(0.1 -0.1)">
       <use xlink:href="#DejaVuSans-36"/>
      </g>
     </g>
    </g>
    <g id="xtick_11">
     <g id="line2d_25">
      <g>
       <use xlink:href="#m9ad5c2438c" x="764.702955" y="379.957188" style="stroke: #000000; stroke-width: 0.8"/>
      </g>
     </g>
     <g id="text_24">
      <!-- 8 -->
      <g transform="translate(761.521705 394.555625) scale(0.1 -0.1)">
       <use xlink:href="#DejaVuSans-38"/>
      </g>
     </g>
    </g>
    <g id="xtick_12">
     <g id="line2d_26">
      <g>
       <use xlink:href="#m9ad5c2438c" x="831.716591" y="379.957188" style="stroke: #000000; stroke-width: 0.8"/>
      </g>
     </g>
     <g id="text_25">
      <!-- 10 -->
      <g transform="translate(825.354091 394.555625) scale(0.1 -0.1)">
       <use xlink:href="#DejaVuSans-31"/>
       <use xlink:href="#DejaVuSans-30" x="63.623047"/>
      </g>
     </g>
    </g>
    <g id="text_26">
     <!-- t -->
     <g transform="translate(661.04625 412.792813) scale(0.16 -0.16)">
      <use xlink:href="#DejaVuSans-74"/>
     </g>
    </g>
   </g>
   <g id="matplotlib.axis_4">
    <g id="ytick_7">
     <g id="line2d_27">
      <g>
       <use xlink:href="#m973d93398b" x="479.895" y="363.908097" style="stroke: #000000; stroke-width: 0.8"/>
      </g>
     </g>
     <g id="text_27">
      <!-- 0.000 -->
      <g transform="translate(444.266875 367.707315) scale(0.1 -0.1)">
       <use xlink:href="#DejaVuSans-30"/>
       <use xlink:href="#DejaVuSans-2e" x="63.623047"/>
       <use xlink:href="#DejaVuSans-30" x="95.410156"/>
       <use xlink:href="#DejaVuSans-30" x="159.033203"/>
       <use xlink:href="#DejaVuSans-30" x="222.65625"/>
      </g>
     </g>
    </g>
    <g id="ytick_8">
     <g id="line2d_28">
      <g>
       <use xlink:href="#m973d93398b" x="479.895" y="294.252054" style="stroke: #000000; stroke-width: 0.8"/>
      </g>
     </g>
     <g id="text_28">
      <!-- 0.002 -->
      <g transform="translate(444.266875 298.051272) scale(0.1 -0.1)">
       <use xlink:href="#DejaVuSans-30"/>
       <use xlink:href="#DejaVuSans-2e" x="63.623047"/>
       <use xlink:href="#DejaVuSans-30" x="95.410156"/>
       <use xlink:href="#DejaVuSans-30" x="159.033203"/>
       <use xlink:href="#DejaVuSans-32" x="222.65625"/>
      </g>
     </g>
    </g>
    <g id="ytick_9">
     <g id="line2d_29">
      <g>
       <use xlink:href="#m973d93398b" x="479.895" y="224.596011" style="stroke: #000000; stroke-width: 0.8"/>
      </g>
     </g>
     <g id="text_29">
      <!-- 0.004 -->
      <g transform="translate(444.266875 228.395229) scale(0.1 -0.1)">
       <use xlink:href="#DejaVuSans-30"/>
       <use xlink:href="#DejaVuSans-2e" x="63.623047"/>
       <use xlink:href="#DejaVuSans-30" x="95.410156"/>
       <use xlink:href="#DejaVuSans-30" x="159.033203"/>
       <use xlink:href="#DejaVuSans-34" x="222.65625"/>
      </g>
     </g>
    </g>
    <g id="ytick_10">
     <g id="line2d_30">
      <g>
       <use xlink:href="#m973d93398b" x="479.895" y="154.939968" style="stroke: #000000; stroke-width: 0.8"/>
      </g>
     </g>
     <g id="text_30">
      <!-- 0.006 -->
      <g transform="translate(444.266875 158.739187) scale(0.1 -0.1)">
       <use xlink:href="#DejaVuSans-30"/>
       <use xlink:href="#DejaVuSans-2e" x="63.623047"/>
       <use xlink:href="#DejaVuSans-30" x="95.410156"/>
       <use xlink:href="#DejaVuSans-30" x="159.033203"/>
       <use xlink:href="#DejaVuSans-36" x="222.65625"/>
      </g>
     </g>
    </g>
    <g id="ytick_11">
     <g id="line2d_31">
      <g>
       <use xlink:href="#m973d93398b" x="479.895" y="85.283925" style="stroke: #000000; stroke-width: 0.8"/>
      </g>
     </g>
     <g id="text_31">
      <!-- 0.008 -->
      <g transform="translate(444.266875 89.083144) scale(0.1 -0.1)">
       <use xlink:href="#DejaVuSans-30"/>
       <use xlink:href="#DejaVuSans-2e" x="63.623047"/>
       <use xlink:href="#DejaVuSans-30" x="95.410156"/>
       <use xlink:href="#DejaVuSans-30" x="159.033203"/>
       <use xlink:href="#DejaVuSans-38" x="222.65625"/>
      </g>
     </g>
    </g>
    <g id="text_32">
     <!-- Difference between Exact and Calculated Values -->
     <g transform="translate(437.147344 385.785547) rotate(-90) scale(0.15 -0.15)">
      <defs>
       <path id="DejaVuSans-44" d="M 1259 4147 
L 1259 519 
L 2022 519 
Q 2988 519 3436 956 
Q 3884 1394 3884 2338 
Q 3884 3275 3436 3711 
Q 2988 4147 2022 4147 
L 1259 4147 
z
M 628 4666 
L 1925 4666 
Q 3281 4666 3915 4102 
Q 4550 3538 4550 2338 
Q 4550 1131 3912 565 
Q 3275 0 1925 0 
L 628 0 
L 628 4666 
z
" transform="scale(0.015625)"/>
       <path id="DejaVuSans-69" d="M 603 3500 
L 1178 3500 
L 1178 0 
L 603 0 
L 603 3500 
z
M 603 4863 
L 1178 4863 
L 1178 4134 
L 603 4134 
L 603 4863 
z
" transform="scale(0.015625)"/>
       <path id="DejaVuSans-66" d="M 2375 4863 
L 2375 4384 
L 1825 4384 
Q 1516 4384 1395 4259 
Q 1275 4134 1275 3809 
L 1275 3500 
L 2222 3500 
L 2222 3053 
L 1275 3053 
L 1275 0 
L 697 0 
L 697 3053 
L 147 3053 
L 147 3500 
L 697 3500 
L 697 3744 
Q 697 4328 969 4595 
Q 1241 4863 1831 4863 
L 2375 4863 
z
" transform="scale(0.015625)"/>
       <path id="DejaVuSans-72" d="M 2631 2963 
Q 2534 3019 2420 3045 
Q 2306 3072 2169 3072 
Q 1681 3072 1420 2755 
Q 1159 2438 1159 1844 
L 1159 0 
L 581 0 
L 581 3500 
L 1159 3500 
L 1159 2956 
Q 1341 3275 1631 3429 
Q 1922 3584 2338 3584 
Q 2397 3584 2469 3576 
Q 2541 3569 2628 3553 
L 2631 2963 
z
" transform="scale(0.015625)"/>
       <path id="DejaVuSans-6e" d="M 3513 2113 
L 3513 0 
L 2938 0 
L 2938 2094 
Q 2938 2591 2744 2837 
Q 2550 3084 2163 3084 
Q 1697 3084 1428 2787 
Q 1159 2491 1159 1978 
L 1159 0 
L 581 0 
L 581 3500 
L 1159 3500 
L 1159 2956 
Q 1366 3272 1645 3428 
Q 1925 3584 2291 3584 
Q 2894 3584 3203 3211 
Q 3513 2838 3513 2113 
z
" transform="scale(0.015625)"/>
       <path id="DejaVuSans-63" d="M 3122 3366 
L 3122 2828 
Q 2878 2963 2633 3030 
Q 2388 3097 2138 3097 
Q 1578 3097 1268 2742 
Q 959 2388 959 1747 
Q 959 1106 1268 751 
Q 1578 397 2138 397 
Q 2388 397 2633 464 
Q 2878 531 3122 666 
L 3122 134 
Q 2881 22 2623 -34 
Q 2366 -91 2075 -91 
Q 1284 -91 818 406 
Q 353 903 353 1747 
Q 353 2603 823 3093 
Q 1294 3584 2113 3584 
Q 2378 3584 2631 3529 
Q 2884 3475 3122 3366 
z
" transform="scale(0.015625)"/>
       <path id="DejaVuSans-62" d="M 3116 1747 
Q 3116 2381 2855 2742 
Q 2594 3103 2138 3103 
Q 1681 3103 1420 2742 
Q 1159 2381 1159 1747 
Q 1159 1113 1420 752 
Q 1681 391 2138 391 
Q 2594 391 2855 752 
Q 3116 1113 3116 1747 
z
M 1159 2969 
Q 1341 3281 1617 3432 
Q 1894 3584 2278 3584 
Q 2916 3584 3314 3078 
Q 3713 2572 3713 1747 
Q 3713 922 3314 415 
Q 2916 -91 2278 -91 
Q 1894 -91 1617 61 
Q 1341 213 1159 525 
L 1159 0 
L 581 0 
L 581 4863 
L 1159 4863 
L 1159 2969 
z
" transform="scale(0.015625)"/>
       <path id="DejaVuSans-77" d="M 269 3500 
L 844 3500 
L 1563 769 
L 2278 3500 
L 2956 3500 
L 3675 769 
L 4391 3500 
L 4966 3500 
L 4050 0 
L 3372 0 
L 2619 2869 
L 1863 0 
L 1184 0 
L 269 3500 
z
" transform="scale(0.015625)"/>
       <path id="DejaVuSans-45" d="M 628 4666 
L 3578 4666 
L 3578 4134 
L 1259 4134 
L 1259 2753 
L 3481 2753 
L 3481 2222 
L 1259 2222 
L 1259 531 
L 3634 531 
L 3634 0 
L 628 0 
L 628 4666 
z
" transform="scale(0.015625)"/>
       <path id="DejaVuSans-64" d="M 2906 2969 
L 2906 4863 
L 3481 4863 
L 3481 0 
L 2906 0 
L 2906 525 
Q 2725 213 2448 61 
Q 2172 -91 1784 -91 
Q 1150 -91 751 415 
Q 353 922 353 1747 
Q 353 2572 751 3078 
Q 1150 3584 1784 3584 
Q 2172 3584 2448 3432 
Q 2725 3281 2906 2969 
z
M 947 1747 
Q 947 1113 1208 752 
Q 1469 391 1925 391 
Q 2381 391 2643 752 
Q 2906 1113 2906 1747 
Q 2906 2381 2643 2742 
Q 2381 3103 1925 3103 
Q 1469 3103 1208 2742 
Q 947 2381 947 1747 
z
" transform="scale(0.015625)"/>
       <path id="DejaVuSans-43" d="M 4122 4306 
L 4122 3641 
Q 3803 3938 3442 4084 
Q 3081 4231 2675 4231 
Q 1875 4231 1450 3742 
Q 1025 3253 1025 2328 
Q 1025 1406 1450 917 
Q 1875 428 2675 428 
Q 3081 428 3442 575 
Q 3803 722 4122 1019 
L 4122 359 
Q 3791 134 3420 21 
Q 3050 -91 2638 -91 
Q 1578 -91 968 557 
Q 359 1206 359 2328 
Q 359 3453 968 4101 
Q 1578 4750 2638 4750 
Q 3056 4750 3426 4639 
Q 3797 4528 4122 4306 
z
" transform="scale(0.015625)"/>
       <path id="DejaVuSans-6c" d="M 603 4863 
L 1178 4863 
L 1178 0 
L 603 0 
L 603 4863 
z
" transform="scale(0.015625)"/>
       <path id="DejaVuSans-75" d="M 544 1381 
L 544 3500 
L 1119 3500 
L 1119 1403 
Q 1119 906 1312 657 
Q 1506 409 1894 409 
Q 2359 409 2629 706 
Q 2900 1003 2900 1516 
L 2900 3500 
L 3475 3500 
L 3475 0 
L 2900 0 
L 2900 538 
Q 2691 219 2414 64 
Q 2138 -91 1772 -91 
Q 1169 -91 856 284 
Q 544 659 544 1381 
z
M 1991 3584 
L 1991 3584 
z
" transform="scale(0.015625)"/>
       <path id="DejaVuSans-56" d="M 1831 0 
L 50 4666 
L 709 4666 
L 2188 738 
L 3669 4666 
L 4325 4666 
L 2547 0 
L 1831 0 
z
" transform="scale(0.015625)"/>
      </defs>
      <use xlink:href="#DejaVuSans-44"/>
      <use xlink:href="#DejaVuSans-69" x="77.001953"/>
      <use xlink:href="#DejaVuSans-66" x="104.785156"/>
      <use xlink:href="#DejaVuSans-66" x="139.990234"/>
      <use xlink:href="#DejaVuSans-65" x="175.195312"/>
      <use xlink:href="#DejaVuSans-72" x="236.71875"/>
      <use xlink:href="#DejaVuSans-65" x="275.582031"/>
      <use xlink:href="#DejaVuSans-6e" x="337.105469"/>
      <use xlink:href="#DejaVuSans-63" x="400.484375"/>
      <use xlink:href="#DejaVuSans-65" x="455.464844"/>
      <use xlink:href="#DejaVuSans-20" x="516.988281"/>
      <use xlink:href="#DejaVuSans-62" x="548.775391"/>
      <use xlink:href="#DejaVuSans-65" x="612.251953"/>
      <use xlink:href="#DejaVuSans-74" x="673.775391"/>
      <use xlink:href="#DejaVuSans-77" x="712.984375"/>
      <use xlink:href="#DejaVuSans-65" x="794.771484"/>
      <use xlink:href="#DejaVuSans-65" x="856.294922"/>
      <use xlink:href="#DejaVuSans-6e" x="917.818359"/>
      <use xlink:href="#DejaVuSans-20" x="981.197266"/>
      <use xlink:href="#DejaVuSans-45" x="1012.984375"/>
      <use xlink:href="#DejaVuSans-78" x="1076.167969"/>
      <use xlink:href="#DejaVuSans-61" x="1135.347656"/>
      <use xlink:href="#DejaVuSans-63" x="1196.626953"/>
      <use xlink:href="#DejaVuSans-74" x="1251.607422"/>
      <use xlink:href="#DejaVuSans-20" x="1290.816406"/>
      <use xlink:href="#DejaVuSans-61" x="1322.603516"/>
      <use xlink:href="#DejaVuSans-6e" x="1383.882812"/>
      <use xlink:href="#DejaVuSans-64" x="1447.261719"/>
      <use xlink:href="#DejaVuSans-20" x="1510.738281"/>
      <use xlink:href="#DejaVuSans-43" x="1542.525391"/>
      <use xlink:href="#DejaVuSans-61" x="1612.349609"/>
      <use xlink:href="#DejaVuSans-6c" x="1673.628906"/>
      <use xlink:href="#DejaVuSans-63" x="1701.412109"/>
      <use xlink:href="#DejaVuSans-75" x="1756.392578"/>
      <use xlink:href="#DejaVuSans-6c" x="1819.771484"/>
      <use xlink:href="#DejaVuSans-61" x="1847.554688"/>
      <use xlink:href="#DejaVuSans-74" x="1908.833984"/>
      <use xlink:href="#DejaVuSans-65" x="1948.042969"/>
      <use xlink:href="#DejaVuSans-64" x="2009.566406"/>
      <use xlink:href="#DejaVuSans-20" x="2073.042969"/>
      <use xlink:href="#DejaVuSans-56" x="2104.830078"/>
      <use xlink:href="#DejaVuSans-61" x="2165.488281"/>
      <use xlink:href="#DejaVuSans-6c" x="2226.767578"/>
      <use xlink:href="#DejaVuSans-75" x="2254.550781"/>
      <use xlink:href="#DejaVuSans-65" x="2317.929688"/>
      <use xlink:href="#DejaVuSans-73" x="2379.453125"/>
     </g>
    </g>
   </g>
   <g id="line2d_32">
    <path d="M 496.648409 363.908097 
L 499.328955 330.335424 
L 502.0095 299.398795 
L 504.690045 270.942977 
L 507.370591 244.820864 
L 510.051136 220.893076 
L 512.731682 199.027582 
L 515.412227 179.099334 
L 518.092773 160.989924 
L 520.43825 146.547935 
L 522.783727 133.341263 
L 525.129205 121.301955 
L 527.474682 110.365272 
L 529.820159 100.469548 
L 532.165636 91.556059 
L 534.511114 83.56889 
L 536.856591 76.454811 
L 538.867 71.013469 
L 540.877409 66.145858 
L 542.887818 61.822787 
L 544.898227 58.016292 
L 546.908636 54.699587 
L 548.919045 51.847016 
L 550.929455 49.434017 
L 552.604795 47.741972 
L 554.280136 46.325761 
L 555.955477 45.172783 
L 557.630818 44.270887 
L 559.306159 43.608365 
L 560.9815 43.173932 
L 562.656841 42.956717 
L 564.332182 42.946245 
L 566.007523 43.132427 
L 568.017932 43.601775 
L 570.028341 44.324225 
L 572.03875 45.284387 
L 574.384227 46.685442 
L 576.729705 48.367858 
L 579.075182 50.310595 
L 581.755727 52.824115 
L 584.771341 55.992327 
L 587.786955 59.485183 
L 591.137636 63.704701 
L 594.823386 68.706994 
L 598.844205 74.533858 
L 603.535159 81.737347 
L 608.89625 90.394442 
L 615.262545 101.10663 
L 623.974318 116.234859 
L 649.774568 161.32706 
L 658.151273 175.380558 
L 665.522773 187.334383 
L 672.559205 198.332333 
L 679.260568 208.401037 
L 685.626864 217.581575 
L 691.993159 226.376387 
L 698.359455 234.779889 
L 704.390682 242.378835 
L 710.421909 249.627003 
L 716.453136 256.528421 
L 722.484364 263.089026 
L 728.515591 269.316309 
L 734.546818 275.219 
L 740.578045 280.806798 
L 746.609273 286.090142 
L 752.6405 291.080011 
L 758.671727 295.787751 
L 764.702955 300.224933 
L 771.06925 304.627998 
L 777.435545 308.756334 
L 783.801841 312.623544 
L 790.503205 316.426914 
L 797.204568 319.97108 
L 803.905932 323.270909 
L 810.942364 326.488496 
L 817.978795 329.468591 
L 825.350295 332.352592 
L 831.716591 334.660074 
L 831.716591 334.660074 
" clip-path="url(#paab0a751c9)" style="fill: none; stroke: #1f77b4; stroke-width: 1.5; stroke-linecap: square"/>
   </g>
   <g id="line2d_33">
    <path d="M 496.648409 363.908097 
L 499.496489 346.146449 
L 502.177034 330.782354 
L 504.85758 316.65121 
L 507.538125 303.679918 
L 510.21867 291.799219 
L 512.899216 280.943502 
L 515.579761 271.050626 
L 518.092773 262.598138 
L 520.605784 254.894174 
L 523.118795 247.895064 
L 525.631807 241.559341 
L 528.144818 235.847634 
L 530.490295 231.046715 
L 532.835773 226.72793 
L 535.18125 222.863781 
L 537.526727 219.428089 
L 539.872205 216.395939 
L 542.217682 213.743626 
L 544.395625 211.60114 
L 546.573568 209.749503 
L 548.751511 208.172296 
L 550.929455 206.853854 
L 553.107398 205.77923 
L 555.452875 204.878282 
L 557.798352 204.226642 
L 560.14383 203.808217 
L 562.489307 203.607727 
L 565.002318 203.618292 
L 567.51533 203.845496 
L 570.195875 204.308655 
L 573.043955 205.030514 
L 576.059568 206.030452 
L 579.242716 207.324121 
L 582.593398 208.923175 
L 586.279148 210.931597 
L 590.299966 213.383051 
L 594.655852 216.301415 
L 599.514341 219.825188 
L 605.042966 224.111481 
L 611.74433 229.603002 
L 620.288568 236.913597 
L 637.54458 252.061253 
L 650.109636 262.926545 
L 659.65908 270.897224 
L 668.203318 277.746519 
L 676.244955 283.913524 
L 683.951523 289.549287 
L 691.490557 294.791612 
L 698.862057 299.653099 
L 706.233557 304.252022 
L 713.605057 308.590303 
L 720.976557 312.672314 
L 728.348057 316.504346 
L 735.887091 320.173006 
L 743.426125 323.59781 
L 751.132693 326.857449 
L 759.006795 329.948051 
L 767.048432 332.867354 
L 775.425136 335.668329 
L 783.969375 338.288945 
L 792.848682 340.776646 
L 802.063057 343.122886 
L 811.6125 345.321497 
L 821.497011 347.368634 
L 831.716591 349.262662 
L 831.716591 349.262662 
" clip-path="url(#paab0a751c9)" style="fill: none; stroke: #ff7f0e; stroke-width: 1.5; stroke-linecap: square"/>
   </g>
   <g id="line2d_34">
    <path d="M 496.648409 363.908097 
L 499.764543 360.04203 
L 502.880677 356.527319 
L 506.030318 353.307439 
L 509.213466 350.369474 
L 512.43012 347.700621 
L 515.713789 345.26476 
L 519.06447 343.057424 
L 522.482166 341.073332 
L 525.966875 339.306456 
L 529.552105 337.736522 
L 533.271361 336.351082 
L 537.124645 335.153725 
L 541.145464 334.138422 
L 545.367323 333.304219 
L 549.790223 332.658227 
L 554.481177 332.19918 
L 559.5072 331.934073 
L 564.901798 331.875628 
L 570.765491 332.038323 
L 577.1988 332.442872 
L 584.402766 333.123081 
L 592.67895 334.134041 
L 602.596968 335.578522 
L 615.597614 337.711621 
L 673.999998 347.570753 
L 689.647682 349.832021 
L 704.893284 351.810868 
L 720.239407 353.578104 
L 735.987611 355.166564 
L 752.372445 356.59423 
L 769.661964 357.875592 
L 788.157727 359.020609 
L 808.194805 360.034756 
L 830.208784 360.922344 
L 831.716591 360.975585 
L 831.716591 360.975585 
" clip-path="url(#paab0a751c9)" style="fill: none; stroke: #2ca02c; stroke-width: 1.5; stroke-linecap: square"/>
   </g>
   <g id="patch_9">
    <path d="M 479.895 379.957188 
L 479.895 26.877188 
" style="fill: none; stroke: #000000; stroke-width: 0.8; stroke-linejoin: miter; stroke-linecap: square"/>
   </g>
   <g id="patch_10">
    <path d="M 848.47 379.957188 
L 848.47 26.877188 
" style="fill: none; stroke: #000000; stroke-width: 0.8; stroke-linejoin: miter; stroke-linecap: square"/>
   </g>
   <g id="patch_11">
    <path d="M 479.895 379.957188 
L 848.47 379.957188 
" style="fill: none; stroke: #000000; stroke-width: 0.8; stroke-linejoin: miter; stroke-linecap: square"/>
   </g>
   <g id="patch_12">
    <path d="M 479.895 26.877188 
L 848.47 26.877188 
" style="fill: none; stroke: #000000; stroke-width: 0.8; stroke-linejoin: miter; stroke-linecap: square"/>
   </g>
   <g id="text_33">
    <!-- (b) -->
    <g transform="translate(651.446094 20.877188) scale(0.18 -0.18)">
     <use xlink:href="#DejaVuSans-28"/>
     <use xlink:href="#DejaVuSans-62" x="39.013672"/>
     <use xlink:href="#DejaVuSans-29" x="102.490234"/>
    </g>
   </g>
   <g id="legend_2">
    <g id="patch_13">
     <path d="M 726.655 89.318438 
L 840.07 89.318438 
Q 842.47 89.318438 842.47 86.918438 
L 842.47 35.277188 
Q 842.47 32.877188 840.07 32.877188 
L 726.655 32.877188 
Q 724.255 32.877188 724.255 35.277188 
L 724.255 86.918438 
Q 724.255 89.318438 726.655 89.318438 
z
" style="fill: #ffffff; opacity: 0.8; stroke: #cccccc; stroke-linejoin: miter"/>
    </g>
    <g id="line2d_35">
     <path d="M 729.055 42.595313 
L 741.055 42.595313 
L 753.055 42.595313 
" style="fill: none; stroke: #1f77b4; stroke-width: 1.5; stroke-linecap: square"/>
    </g>
    <g id="text_34">
     <!-- Δt = 0.01 s -->
     <g transform="translate(762.655 46.795313) scale(0.12 -0.12)">
      <use xlink:href="#DejaVuSans-394"/>
      <use xlink:href="#DejaVuSans-74" x="68.408203"/>
      <use xlink:href="#DejaVuSans-20" x="107.617188"/>
      <use xlink:href="#DejaVuSans-3d" x="139.404297"/>
      <use xlink:href="#DejaVuSans-20" x="223.193359"/>
      <use xlink:href="#DejaVuSans-30" x="254.980469"/>
      <use xlink:href="#DejaVuSans-2e" x="318.603516"/>
      <use xlink:href="#DejaVuSans-30" x="350.390625"/>
      <use xlink:href="#DejaVuSans-31" x="414.013672"/>
      <use xlink:href="#DejaVuSans-20" x="477.636719"/>
      <use xlink:href="#DejaVuSans-73" x="509.423828"/>
     </g>
    </g>
    <g id="line2d_36">
     <path d="M 729.055 60.209063 
L 741.055 60.209063 
L 753.055 60.209063 
" style="fill: none; stroke: #ff7f0e; stroke-width: 1.5; stroke-linecap: square"/>
    </g>
    <g id="text_35">
     <!-- Δt = 0.05 s -->
     <g transform="translate(762.655 64.409063) scale(0.12 -0.12)">
      <use xlink:href="#DejaVuSans-394"/>
      <use xlink:href="#DejaVuSans-74" x="68.408203"/>
      <use xlink:href="#DejaVuSans-20" x="107.617188"/>
      <use xlink:href="#DejaVuSans-3d" x="139.404297"/>
      <use xlink:href="#DejaVuSans-20" x="223.193359"/>
      <use xlink:href="#DejaVuSans-30" x="254.980469"/>
      <use xlink:href="#DejaVuSans-2e" x="318.603516"/>
      <use xlink:href="#DejaVuSans-30" x="350.390625"/>
      <use xlink:href="#DejaVuSans-35" x="414.013672"/>
      <use xlink:href="#DejaVuSans-20" x="477.636719"/>
      <use xlink:href="#DejaVuSans-73" x="509.423828"/>
     </g>
    </g>
    <g id="line2d_37">
     <path d="M 729.055 77.822813 
L 741.055 77.822813 
L 753.055 77.822813 
" style="fill: none; stroke: #2ca02c; stroke-width: 1.5; stroke-linecap: square"/>
    </g>
    <g id="text_36">
     <!-- Δt = 0.001 s -->
     <g transform="translate(762.655 82.022813) scale(0.12 -0.12)">
      <use xlink:href="#DejaVuSans-394"/>
      <use xlink:href="#DejaVuSans-74" x="68.408203"/>
      <use xlink:href="#DejaVuSans-20" x="107.617188"/>
      <use xlink:href="#DejaVuSans-3d" x="139.404297"/>
      <use xlink:href="#DejaVuSans-20" x="223.193359"/>
      <use xlink:href="#DejaVuSans-30" x="254.980469"/>
      <use xlink:href="#DejaVuSans-2e" x="318.603516"/>
      <use xlink:href="#DejaVuSans-30" x="350.390625"/>
      <use xlink:href="#DejaVuSans-30" x="414.013672"/>
      <use xlink:href="#DejaVuSans-31" x="477.636719"/>
      <use xlink:href="#DejaVuSans-20" x="541.259766"/>
      <use xlink:href="#DejaVuSans-73" x="573.046875"/>
     </g>
    </g>
   </g>
  </g>
 </g>
 <defs>
  <clipPath id="pb973e7f7f7">
   <rect x="46.41" y="26.877188" width="368.575" height="353.08"/>
  </clipPath>
  <clipPath id="paab0a751c9">
   <rect x="479.895" y="26.877188" width="368.575" height="353.08"/>
  </clipPath>
 </defs>
</svg>
