<?xml version="1.0" encoding="utf-8" standalone="no"?>
<!DOCTYPE svg PUBLIC "-//W3C//DTD SVG 1.1//EN"
  "http://www.w3.org/Graphics/SVG/1.1/DTD/svg11.dtd">
<svg xmlns:xlink="http://www.w3.org/1999/xlink" width="1433.039062pt" height="569.151563pt" viewBox="0 0 1433.039062 569.151563" xmlns="http://www.w3.org/2000/svg" version="1.1">
 <metadata>
  <rdf:RDF xmlns:dc="http://purl.org/dc/elements/1.1/" xmlns:cc="http://creativecommons.org/ns#" xmlns:rdf="http://www.w3.org/1999/02/22-rdf-syntax-ns#">
   <cc:Work>
    <dc:type rdf:resource="http://purl.org/dc/dcmitype/StillImage"/>
    <dc:date>2024-09-29T01:43:40.766978</dc:date>
    <dc:format>image/svg+xml</dc:format>
    <dc:creator>
     <cc:Agent>
      <dc:title>Matplotlib v3.8.4, https://matplotlib.org/</dc:title>
     </cc:Agent>
    </dc:creator>
   </cc:Work>
  </rdf:RDF>
 </metadata>
 <defs>
  <style type="text/css">*{stroke-linejoin: round; stroke-linecap: butt}</style>
 </defs>
 <g id="figure_1">
  <g id="patch_1">
   <path d="M 0 569.151563 
L 1433.039062 569.151563 
L 1433.039062 0 
L 0 0 
z
" style="fill: #ffffff"/>
  </g>
  <g id="axes_1">
   <g id="patch_2">
    <path d="M 71.089062 507.4 
L 476.219063 507.4 
L 476.219063 7.2 
L 71.089062 7.2 
z
" style="fill: #ffffff"/>
   </g>
   <g id="matplotlib.axis_1">
    <g id="xtick_1">
     <g id="line2d_1">
      <defs>
       <path id="m8c1f4b8867" d="M 0 0 
L 0 3.5 
" style="stroke: #000000; stroke-width: 0.8"/>
      </defs>
      <g>
       <use xlink:href="#m8c1f4b8867" x="89.504063" y="507.4" style="stroke: #000000; stroke-width: 0.8"/>
      </g>
     </g>
     <g id="text_1">
      <!-- 0 -->
      <g transform="translate(84.732188 525.797656) scale(0.15 -0.15)">
       <defs>
        <path id="DejaVuSans-30" d="M 2034 4250 
Q 1547 4250 1301 3770 
Q 1056 3291 1056 2328 
Q 1056 1369 1301 889 
Q 1547 409 2034 409 
Q 2525 409 2770 889 
Q 3016 1369 3016 2328 
Q 3016 3291 2770 3770 
Q 2525 4250 2034 4250 
z
M 2034 4750 
Q 2819 4750 3233 4129 
Q 3647 3509 3647 2328 
Q 3647 1150 3233 529 
Q 2819 -91 2034 -91 
Q 1250 -91 836 529 
Q 422 1150 422 2328 
Q 422 3509 836 4129 
Q 1250 4750 2034 4750 
z
" transform="scale(0.015625)"/>
       </defs>
       <use xlink:href="#DejaVuSans-30"/>
      </g>
     </g>
    </g>
    <g id="xtick_2">
     <g id="line2d_2">
      <g>
       <use xlink:href="#m8c1f4b8867" x="163.164062" y="507.4" style="stroke: #000000; stroke-width: 0.8"/>
      </g>
     </g>
     <g id="text_2">
      <!-- 2 -->
      <g transform="translate(158.392187 525.797656) scale(0.15 -0.15)">
       <defs>
        <path id="DejaVuSans-32" d="M 1228 531 
L 3431 531 
L 3431 0 
L 469 0 
L 469 531 
Q 828 903 1448 1529 
Q 2069 2156 2228 2338 
Q 2531 2678 2651 2914 
Q 2772 3150 2772 3378 
Q 2772 3750 2511 3984 
Q 2250 4219 1831 4219 
Q 1534 4219 1204 4116 
Q 875 4013 500 3803 
L 500 4441 
Q 881 4594 1212 4672 
Q 1544 4750 1819 4750 
Q 2544 4750 2975 4387 
Q 3406 4025 3406 3419 
Q 3406 3131 3298 2873 
Q 3191 2616 2906 2266 
Q 2828 2175 2409 1742 
Q 1991 1309 1228 531 
z
" transform="scale(0.015625)"/>
       </defs>
       <use xlink:href="#DejaVuSans-32"/>
      </g>
     </g>
    </g>
    <g id="xtick_3">
     <g id="line2d_3">
      <g>
       <use xlink:href="#m8c1f4b8867" x="236.824062" y="507.4" style="stroke: #000000; stroke-width: 0.8"/>
      </g>
     </g>
     <g id="text_3">
      <!-- 4 -->
      <g transform="translate(232.052187 525.797656) scale(0.15 -0.15)">
       <defs>
        <path id="DejaVuSans-34" d="M 2419 4116 
L 825 1625 
L 2419 1625 
L 2419 4116 
z
M 2253 4666 
L 3047 4666 
L 3047 1625 
L 3713 1625 
L 3713 1100 
L 3047 1100 
L 3047 0 
L 2419 0 
L 2419 1100 
L 313 1100 
L 313 1709 
L 2253 4666 
z
" transform="scale(0.015625)"/>
       </defs>
       <use xlink:href="#DejaVuSans-34"/>
      </g>
     </g>
    </g>
    <g id="xtick_4">
     <g id="line2d_4">
      <g>
       <use xlink:href="#m8c1f4b8867" x="310.484062" y="507.4" style="stroke: #000000; stroke-width: 0.8"/>
      </g>
     </g>
     <g id="text_4">
      <!-- 6 -->
      <g transform="translate(305.712187 525.797656) scale(0.15 -0.15)">
       <defs>
        <path id="DejaVuSans-36" d="M 2113 2584 
Q 1688 2584 1439 2293 
Q 1191 2003 1191 1497 
Q 1191 994 1439 701 
Q 1688 409 2113 409 
Q 2538 409 2786 701 
Q 3034 994 3034 1497 
Q 3034 2003 2786 2293 
Q 2538 2584 2113 2584 
z
M 3366 4563 
L 3366 3988 
Q 3128 4100 2886 4159 
Q 2644 4219 2406 4219 
Q 1781 4219 1451 3797 
Q 1122 3375 1075 2522 
Q 1259 2794 1537 2939 
Q 1816 3084 2150 3084 
Q 2853 3084 3261 2657 
Q 3669 2231 3669 1497 
Q 3669 778 3244 343 
Q 2819 -91 2113 -91 
Q 1303 -91 875 529 
Q 447 1150 447 2328 
Q 447 3434 972 4092 
Q 1497 4750 2381 4750 
Q 2619 4750 2861 4703 
Q 3103 4656 3366 4563 
z
" transform="scale(0.015625)"/>
       </defs>
       <use xlink:href="#DejaVuSans-36"/>
      </g>
     </g>
    </g>
    <g id="xtick_5">
     <g id="line2d_5">
      <g>
       <use xlink:href="#m8c1f4b8867" x="384.144062" y="507.4" style="stroke: #000000; stroke-width: 0.8"/>
      </g>
     </g>
     <g id="text_5">
      <!-- 8 -->
      <g transform="translate(379.372187 525.797656) scale(0.15 -0.15)">
       <defs>
        <path id="DejaVuSans-38" d="M 2034 2216 
Q 1584 2216 1326 1975 
Q 1069 1734 1069 1313 
Q 1069 891 1326 650 
Q 1584 409 2034 409 
Q 2484 409 2743 651 
Q 3003 894 3003 1313 
Q 3003 1734 2745 1975 
Q 2488 2216 2034 2216 
z
M 1403 2484 
Q 997 2584 770 2862 
Q 544 3141 544 3541 
Q 544 4100 942 4425 
Q 1341 4750 2034 4750 
Q 2731 4750 3128 4425 
Q 3525 4100 3525 3541 
Q 3525 3141 3298 2862 
Q 3072 2584 2669 2484 
Q 3125 2378 3379 2068 
Q 3634 1759 3634 1313 
Q 3634 634 3220 271 
Q 2806 -91 2034 -91 
Q 1263 -91 848 271 
Q 434 634 434 1313 
Q 434 1759 690 2068 
Q 947 2378 1403 2484 
z
M 1172 3481 
Q 1172 3119 1398 2916 
Q 1625 2713 2034 2713 
Q 2441 2713 2670 2916 
Q 2900 3119 2900 3481 
Q 2900 3844 2670 4047 
Q 2441 4250 2034 4250 
Q 1625 4250 1398 4047 
Q 1172 3844 1172 3481 
z
" transform="scale(0.015625)"/>
       </defs>
       <use xlink:href="#DejaVuSans-38"/>
      </g>
     </g>
    </g>
    <g id="xtick_6">
     <g id="line2d_6">
      <g>
       <use xlink:href="#m8c1f4b8867" x="457.804062" y="507.4" style="stroke: #000000; stroke-width: 0.8"/>
      </g>
     </g>
     <g id="text_6">
      <!-- 10 -->
      <g transform="translate(448.260312 525.797656) scale(0.15 -0.15)">
       <defs>
        <path id="DejaVuSans-31" d="M 794 531 
L 1825 531 
L 1825 4091 
L 703 3866 
L 703 4441 
L 1819 4666 
L 2450 4666 
L 2450 531 
L 3481 531 
L 3481 0 
L 794 0 
L 794 531 
z
" transform="scale(0.015625)"/>
       </defs>
       <use xlink:href="#DejaVuSans-31"/>
       <use xlink:href="#DejaVuSans-30" x="63.623047"/>
      </g>
     </g>
    </g>
    <g id="text_7">
     <!-- t -->
     <g transform="translate(267.773594 555.7125) scale(0.3 -0.3)">
      <defs>
       <path id="DejaVuSans-74" d="M 1172 4494 
L 1172 3500 
L 2356 3500 
L 2356 3053 
L 1172 3053 
L 1172 1153 
Q 1172 725 1289 603 
Q 1406 481 1766 481 
L 2356 481 
L 2356 0 
L 1766 0 
Q 1100 0 847 248 
Q 594 497 594 1153 
L 594 3053 
L 172 3053 
L 172 3500 
L 594 3500 
L 594 4494 
L 1172 4494 
z
" transform="scale(0.015625)"/>
      </defs>
      <use xlink:href="#DejaVuSans-74"/>
     </g>
    </g>
   </g>
   <g id="matplotlib.axis_2">
    <g id="ytick_1">
     <g id="line2d_7">
      <defs>
       <path id="me9ceb207af" d="M 0 0 
L -3.5 0 
" style="stroke: #000000; stroke-width: 0.8"/>
      </defs>
      <g>
       <use xlink:href="#me9ceb207af" x="71.089062" y="484.663636" style="stroke: #000000; stroke-width: 0.8"/>
      </g>
     </g>
     <g id="text_8">
      <!-- 0.0 -->
      <g transform="translate(40.234375 490.362464) scale(0.15 -0.15)">
       <defs>
        <path id="DejaVuSans-2e" d="M 684 794 
L 1344 794 
L 1344 0 
L 684 0 
L 684 794 
z
" transform="scale(0.015625)"/>
       </defs>
       <use xlink:href="#DejaVuSans-30"/>
       <use xlink:href="#DejaVuSans-2e" x="63.623047"/>
       <use xlink:href="#DejaVuSans-30" x="95.410156"/>
      </g>
     </g>
    </g>
    <g id="ytick_2">
     <g id="line2d_8">
      <g>
       <use xlink:href="#me9ceb207af" x="71.089062" y="412.764942" style="stroke: #000000; stroke-width: 0.8"/>
      </g>
     </g>
     <g id="text_9">
      <!-- 0.5 -->
      <g transform="translate(40.234375 418.46377) scale(0.15 -0.15)">
       <defs>
        <path id="DejaVuSans-35" d="M 691 4666 
L 3169 4666 
L 3169 4134 
L 1269 4134 
L 1269 2991 
Q 1406 3038 1543 3061 
Q 1681 3084 1819 3084 
Q 2600 3084 3056 2656 
Q 3513 2228 3513 1497 
Q 3513 744 3044 326 
Q 2575 -91 1722 -91 
Q 1428 -91 1123 -41 
Q 819 9 494 109 
L 494 744 
Q 775 591 1075 516 
Q 1375 441 1709 441 
Q 2250 441 2565 725 
Q 2881 1009 2881 1497 
Q 2881 1984 2565 2268 
Q 2250 2553 1709 2553 
Q 1456 2553 1204 2497 
Q 953 2441 691 2322 
L 691 4666 
z
" transform="scale(0.015625)"/>
       </defs>
       <use xlink:href="#DejaVuSans-30"/>
       <use xlink:href="#DejaVuSans-2e" x="63.623047"/>
       <use xlink:href="#DejaVuSans-35" x="95.410156"/>
      </g>
     </g>
    </g>
    <g id="ytick_3">
     <g id="line2d_9">
      <g>
       <use xlink:href="#me9ceb207af" x="71.089062" y="340.866247" style="stroke: #000000; stroke-width: 0.8"/>
      </g>
     </g>
     <g id="text_10">
      <!-- 1.0 -->
      <g transform="translate(40.234375 346.565075) scale(0.15 -0.15)">
       <use xlink:href="#DejaVuSans-31"/>
       <use xlink:href="#DejaVuSans-2e" x="63.623047"/>
       <use xlink:href="#DejaVuSans-30" x="95.410156"/>
      </g>
     </g>
    </g>
    <g id="ytick_4">
     <g id="line2d_10">
      <g>
       <use xlink:href="#me9ceb207af" x="71.089062" y="268.967552" style="stroke: #000000; stroke-width: 0.8"/>
      </g>
     </g>
     <g id="text_11">
      <!-- 1.5 -->
      <g transform="translate(40.234375 274.66638) scale(0.15 -0.15)">
       <use xlink:href="#DejaVuSans-31"/>
       <use xlink:href="#DejaVuSans-2e" x="63.623047"/>
       <use xlink:href="#DejaVuSans-35" x="95.410156"/>
      </g>
     </g>
    </g>
    <g id="ytick_5">
     <g id="line2d_11">
      <g>
       <use xlink:href="#me9ceb207af" x="71.089062" y="197.068857" style="stroke: #000000; stroke-width: 0.8"/>
      </g>
     </g>
     <g id="text_12">
      <!-- 2.0 -->
      <g transform="translate(40.234375 202.767685) scale(0.15 -0.15)">
       <use xlink:href="#DejaVuSans-32"/>
       <use xlink:href="#DejaVuSans-2e" x="63.623047"/>
       <use xlink:href="#DejaVuSans-30" x="95.410156"/>
      </g>
     </g>
    </g>
    <g id="ytick_6">
     <g id="line2d_12">
      <g>
       <use xlink:href="#me9ceb207af" x="71.089062" y="125.170162" style="stroke: #000000; stroke-width: 0.8"/>
      </g>
     </g>
     <g id="text_13">
      <!-- 2.5 -->
      <g transform="translate(40.234375 130.86899) scale(0.15 -0.15)">
       <use xlink:href="#DejaVuSans-32"/>
       <use xlink:href="#DejaVuSans-2e" x="63.623047"/>
       <use xlink:href="#DejaVuSans-35" x="95.410156"/>
      </g>
     </g>
    </g>
    <g id="ytick_7">
     <g id="line2d_13">
      <g>
       <use xlink:href="#me9ceb207af" x="71.089062" y="53.271468" style="stroke: #000000; stroke-width: 0.8"/>
      </g>
     </g>
     <g id="text_14">
      <!-- 3.0 -->
      <g transform="translate(40.234375 58.970296) scale(0.15 -0.15)">
       <defs>
        <path id="DejaVuSans-33" d="M 2597 2516 
Q 3050 2419 3304 2112 
Q 3559 1806 3559 1356 
Q 3559 666 3084 287 
Q 2609 -91 1734 -91 
Q 1441 -91 1130 -33 
Q 819 25 488 141 
L 488 750 
Q 750 597 1062 519 
Q 1375 441 1716 441 
Q 2309 441 2620 675 
Q 2931 909 2931 1356 
Q 2931 1769 2642 2001 
Q 2353 2234 1838 2234 
L 1294 2234 
L 1294 2753 
L 1863 2753 
Q 2328 2753 2575 2939 
Q 2822 3125 2822 3475 
Q 2822 3834 2567 4026 
Q 2313 4219 1838 4219 
Q 1578 4219 1281 4162 
Q 984 4106 628 3988 
L 628 4550 
Q 988 4650 1302 4700 
Q 1616 4750 1894 4750 
Q 2613 4750 3031 4423 
Q 3450 4097 3450 3541 
Q 3450 3153 3228 2886 
Q 3006 2619 2597 2516 
z
" transform="scale(0.015625)"/>
       </defs>
       <use xlink:href="#DejaVuSans-33"/>
       <use xlink:href="#DejaVuSans-2e" x="63.623047"/>
       <use xlink:href="#DejaVuSans-30" x="95.410156"/>
      </g>
     </g>
    </g>
    <g id="text_15">
     <!-- x(t) -->
     <g transform="translate(29.995313 283.763281) rotate(-90) scale(0.3 -0.3)">
      <defs>
       <path id="DejaVuSans-78" d="M 3513 3500 
L 2247 1797 
L 3578 0 
L 2900 0 
L 1881 1375 
L 863 0 
L 184 0 
L 1544 1831 
L 300 3500 
L 978 3500 
L 1906 2253 
L 2834 3500 
L 3513 3500 
z
" transform="scale(0.015625)"/>
       <path id="DejaVuSans-28" d="M 1984 4856 
Q 1566 4138 1362 3434 
Q 1159 2731 1159 2009 
Q 1159 1288 1364 580 
Q 1569 -128 1984 -844 
L 1484 -844 
Q 1016 -109 783 600 
Q 550 1309 550 2009 
Q 550 2706 781 3412 
Q 1013 4119 1484 4856 
L 1984 4856 
z
" transform="scale(0.015625)"/>
       <path id="DejaVuSans-29" d="M 513 4856 
L 1013 4856 
Q 1481 4119 1714 3412 
Q 1947 2706 1947 2009 
Q 1947 1309 1714 600 
Q 1481 -109 1013 -844 
L 513 -844 
Q 928 -128 1133 580 
Q 1338 1288 1338 2009 
Q 1338 2731 1133 3434 
Q 928 4138 513 4856 
z
" transform="scale(0.015625)"/>
      </defs>
      <use xlink:href="#DejaVuSans-78"/>
      <use xlink:href="#DejaVuSans-28" x="59.179688"/>
      <use xlink:href="#DejaVuSans-74" x="98.193359"/>
      <use xlink:href="#DejaVuSans-29" x="137.402344"/>
     </g>
    </g>
   </g>
   <g id="line2d_14">
    <path d="M 89.504063 340.866247 
L 91.345562 348.056116 
L 93.187062 354.18548 
L 95.028563 359.386124 
L 96.870063 363.764785 
L 98.711562 367.409147 
L 100.553062 370.392231 
L 102.394562 372.77567 
L 104.236062 374.612187 
L 106.077562 375.947484 
L 107.919062 376.821715 
L 109.760562 377.270623 
L 111.602062 377.326441 
L 113.443562 377.018598 
L 115.285062 376.374274 
L 117.126562 375.418833 
L 118.968062 374.176168 
L 120.809562 372.668953 
L 122.651062 370.918843 
L 124.492562 368.946609 
L 126.334062 366.772239 
L 130.017062 361.893449 
L 133.700063 356.428276 
L 137.383062 350.511293 
L 142.907562 341.053258 
L 152.115062 324.575625 
L 161.322563 308.204888 
L 166.847062 298.735215 
L 172.371562 289.626112 
L 177.896062 280.906007 
L 183.420562 272.574675 
L 188.945062 264.614006 
L 194.469562 256.996325 
L 199.994062 249.690241 
L 207.360062 240.379525 
L 214.726062 231.499079 
L 222.092062 222.990718 
L 229.458062 214.806484 
L 236.824062 206.907416 
L 246.031562 197.386976 
L 255.239062 188.213616 
L 264.446562 179.348106 
L 273.654062 170.758689 
L 284.703062 160.779206 
L 295.752062 151.122204 
L 306.801062 141.756609 
L 317.850062 132.656273 
L 330.740562 122.3449 
L 343.631062 112.334136 
L 356.521562 102.598245 
L 369.412062 93.115065 
L 384.144062 82.561988 
L 398.876062 72.288915 
L 413.608062 62.27416 
L 430.181562 51.2928 
L 446.755062 40.590786 
L 457.804062 33.600989 
L 457.804062 33.600989 
" clip-path="url(#p4b8090a94d)" style="fill: none; stroke: #1f77b4; stroke-width: 1.5; stroke-linecap: square"/>
   </g>
   <g id="line2d_15">
    <path d="M 89.504063 484.663636 
L 91.345562 452.509563 
L 93.187062 439.190909 
L 95.028563 428.971147 
L 96.870063 420.355489 
L 98.711562 412.764942 
L 100.553062 405.902562 
L 102.394562 399.591953 
L 106.077562 388.201415 
L 109.760562 378.020638 
L 113.443562 368.730475 
L 117.126562 360.131444 
L 120.809562 352.088994 
L 124.492562 344.507278 
L 128.175562 337.315159 
L 133.700063 327.141488 
L 139.224562 317.586168 
L 144.749062 308.548521 
L 150.273562 299.952545 
L 155.798063 291.739193 
L 161.322563 283.86151 
L 168.688562 273.815274 
L 176.054562 264.226412 
L 183.420562 255.03762 
L 190.786562 246.202643 
L 198.152562 237.683509 
L 205.518562 229.448588 
L 214.726062 219.514351 
L 223.933562 209.939109 
L 233.141062 200.686546 
L 242.348562 191.726083 
L 253.397562 181.322711 
L 264.446562 171.264492 
L 275.495562 161.519194 
L 286.544562 152.059311 
L 297.593562 142.861143 
L 310.484062 132.433405 
L 323.374562 122.305627 
L 336.265062 112.453322 
L 349.155562 102.855164 
L 363.887562 92.173146 
L 378.619562 81.774246 
L 393.351562 71.63708 
L 409.925062 60.522273 
L 426.498562 49.691388 
L 443.072062 39.12372 
L 457.804062 29.936364 
L 457.804062 29.936364 
" clip-path="url(#p4b8090a94d)" style="fill: none; stroke-dasharray: 5.55,2.4; stroke-dashoffset: 0; stroke: #000000; stroke-width: 1.5"/>
   </g>
   <g id="patch_3">
    <path d="M 71.089062 507.4 
L 71.089062 7.2 
" style="fill: none; stroke: #000000; stroke-width: 0.8; stroke-linejoin: miter; stroke-linecap: square"/>
   </g>
   <g id="patch_4">
    <path d="M 476.219063 507.4 
L 476.219063 7.2 
" style="fill: none; stroke: #000000; stroke-width: 0.8; stroke-linejoin: miter; stroke-linecap: square"/>
   </g>
   <g id="patch_5">
    <path d="M 71.089063 507.4 
L 476.219063 507.4 
" style="fill: none; stroke: #000000; stroke-width: 0.8; stroke-linejoin: miter; stroke-linecap: square"/>
   </g>
   <g id="patch_6">
    <path d="M 71.089063 7.2 
L 476.219063 7.2 
" style="fill: none; stroke: #000000; stroke-width: 0.8; stroke-linejoin: miter; stroke-linecap: square"/>
   </g>
   <g id="legend_1">
    <g id="patch_7">
     <path d="M 88.589062 100.590625 
L 298.507031 100.590625 
Q 303.507031 100.590625 303.507031 95.590625 
L 303.507031 24.7 
Q 303.507031 19.7 298.507031 19.7 
L 88.589062 19.7 
Q 83.589062 19.7 83.589062 24.7 
L 83.589062 95.590625 
Q 83.589062 100.590625 88.589062 100.590625 
z
" style="fill: #ffffff; opacity: 0.8; stroke: #cccccc; stroke-linejoin: miter"/>
    </g>
    <g id="line2d_16">
     <path d="M 93.589062 39.946094 
L 118.589062 39.946094 
L 143.589063 39.946094 
" style="fill: none; stroke: #1f77b4; stroke-width: 1.5; stroke-linecap: square"/>
    </g>
    <g id="text_16">
     <!-- $t_{max}$ = 10 -->
     <g transform="translate(163.589063 48.696094) scale(0.25 -0.25)">
      <defs>
       <path id="DejaVuSans-Oblique-74" d="M 2706 3500 
L 2619 3053 
L 1472 3053 
L 1100 1153 
Q 1081 1047 1072 975 
Q 1063 903 1063 863 
Q 1063 663 1183 572 
Q 1303 481 1569 481 
L 2150 481 
L 2053 0 
L 1503 0 
Q 991 0 739 200 
Q 488 400 488 806 
Q 488 878 497 964 
Q 506 1050 525 1153 
L 897 3053 
L 409 3053 
L 500 3500 
L 978 3500 
L 1172 4494 
L 1747 4494 
L 1556 3500 
L 2706 3500 
z
" transform="scale(0.015625)"/>
       <path id="DejaVuSans-Oblique-6d" d="M 5747 2113 
L 5338 0 
L 4763 0 
L 5166 2094 
Q 5191 2228 5203 2325 
Q 5216 2422 5216 2491 
Q 5216 2772 5059 2928 
Q 4903 3084 4622 3084 
Q 4203 3084 3875 2770 
Q 3547 2456 3450 1953 
L 3066 0 
L 2491 0 
L 2900 2094 
Q 2925 2209 2937 2307 
Q 2950 2406 2950 2484 
Q 2950 2769 2794 2926 
Q 2638 3084 2363 3084 
Q 1938 3084 1609 2770 
Q 1281 2456 1184 1953 
L 800 0 
L 225 0 
L 909 3500 
L 1484 3500 
L 1375 2956 
Q 1609 3263 1923 3423 
Q 2238 3584 2597 3584 
Q 2978 3584 3223 3384 
Q 3469 3184 3519 2828 
Q 3781 3197 4126 3390 
Q 4472 3584 4856 3584 
Q 5306 3584 5551 3325 
Q 5797 3066 5797 2591 
Q 5797 2488 5784 2364 
Q 5772 2241 5747 2113 
z
" transform="scale(0.015625)"/>
       <path id="DejaVuSans-Oblique-61" d="M 3438 1997 
L 3047 0 
L 2472 0 
L 2578 531 
Q 2325 219 2001 64 
Q 1678 -91 1281 -91 
Q 834 -91 548 182 
Q 263 456 263 884 
Q 263 1497 752 1853 
Q 1241 2209 2100 2209 
L 2900 2209 
L 2931 2363 
Q 2938 2388 2941 2417 
Q 2944 2447 2944 2509 
Q 2944 2788 2717 2942 
Q 2491 3097 2081 3097 
Q 1800 3097 1504 3025 
Q 1209 2953 897 2809 
L 997 3341 
Q 1322 3463 1633 3523 
Q 1944 3584 2234 3584 
Q 2853 3584 3176 3315 
Q 3500 3047 3500 2534 
Q 3500 2431 3484 2292 
Q 3469 2153 3438 1997 
z
M 2816 1759 
L 2241 1759 
Q 1534 1759 1195 1570 
Q 856 1381 856 984 
Q 856 709 1029 553 
Q 1203 397 1509 397 
Q 1978 397 2328 733 
Q 2678 1069 2791 1631 
L 2816 1759 
z
" transform="scale(0.015625)"/>
       <path id="DejaVuSans-Oblique-78" d="M 3841 3500 
L 2234 1784 
L 3219 0 
L 2559 0 
L 1819 1388 
L 531 0 
L -166 0 
L 1556 1844 
L 641 3500 
L 1300 3500 
L 1972 2234 
L 3144 3500 
L 3841 3500 
z
" transform="scale(0.015625)"/>
       <path id="DejaVuSans-20" transform="scale(0.015625)"/>
       <path id="DejaVuSans-3d" d="M 678 2906 
L 4684 2906 
L 4684 2381 
L 678 2381 
L 678 2906 
z
M 678 1631 
L 4684 1631 
L 4684 1100 
L 678 1100 
L 678 1631 
z
" transform="scale(0.015625)"/>
      </defs>
      <use xlink:href="#DejaVuSans-Oblique-74" transform="translate(0 0.78125)"/>
      <use xlink:href="#DejaVuSans-Oblique-6d" transform="translate(39.208984 -15.625) scale(0.7)"/>
      <use xlink:href="#DejaVuSans-Oblique-61" transform="translate(107.397461 -15.625) scale(0.7)"/>
      <use xlink:href="#DejaVuSans-Oblique-78" transform="translate(150.292969 -15.625) scale(0.7)"/>
      <use xlink:href="#DejaVuSans-20" transform="translate(194.453125 0.78125)"/>
      <use xlink:href="#DejaVuSans-3d" transform="translate(226.240234 0.78125)"/>
      <use xlink:href="#DejaVuSans-20" transform="translate(310.029297 0.78125)"/>
      <use xlink:href="#DejaVuSans-31" transform="translate(341.816406 0.78125)"/>
      <use xlink:href="#DejaVuSans-30" transform="translate(405.439453 0.78125)"/>
     </g>
    </g>
    <g id="line2d_17">
     <path d="M 93.589062 76.641406 
L 118.589062 76.641406 
L 143.589063 76.641406 
" style="fill: none; stroke-dasharray: 5.55,2.4; stroke-dashoffset: 0; stroke: #000000; stroke-width: 1.5"/>
    </g>
    <g id="text_17">
     <!-- x = sqrt(t) -->
     <g transform="translate(163.589063 85.391406) scale(0.25 -0.25)">
      <defs>
       <path id="DejaVuSans-73" d="M 2834 3397 
L 2834 2853 
Q 2591 2978 2328 3040 
Q 2066 3103 1784 3103 
Q 1356 3103 1142 2972 
Q 928 2841 928 2578 
Q 928 2378 1081 2264 
Q 1234 2150 1697 2047 
L 1894 2003 
Q 2506 1872 2764 1633 
Q 3022 1394 3022 966 
Q 3022 478 2636 193 
Q 2250 -91 1575 -91 
Q 1294 -91 989 -36 
Q 684 19 347 128 
L 347 722 
Q 666 556 975 473 
Q 1284 391 1588 391 
Q 1994 391 2212 530 
Q 2431 669 2431 922 
Q 2431 1156 2273 1281 
Q 2116 1406 1581 1522 
L 1381 1569 
Q 847 1681 609 1914 
Q 372 2147 372 2553 
Q 372 3047 722 3315 
Q 1072 3584 1716 3584 
Q 2034 3584 2315 3537 
Q 2597 3491 2834 3397 
z
" transform="scale(0.015625)"/>
       <path id="DejaVuSans-71" d="M 947 1747 
Q 947 1113 1208 752 
Q 1469 391 1925 391 
Q 2381 391 2643 752 
Q 2906 1113 2906 1747 
Q 2906 2381 2643 2742 
Q 2381 3103 1925 3103 
Q 1469 3103 1208 2742 
Q 947 2381 947 1747 
z
M 2906 525 
Q 2725 213 2448 61 
Q 2172 -91 1784 -91 
Q 1150 -91 751 415 
Q 353 922 353 1747 
Q 353 2572 751 3078 
Q 1150 3584 1784 3584 
Q 2172 3584 2448 3432 
Q 2725 3281 2906 2969 
L 2906 3500 
L 3481 3500 
L 3481 -1331 
L 2906 -1331 
L 2906 525 
z
" transform="scale(0.015625)"/>
       <path id="DejaVuSans-72" d="M 2631 2963 
Q 2534 3019 2420 3045 
Q 2306 3072 2169 3072 
Q 1681 3072 1420 2755 
Q 1159 2438 1159 1844 
L 1159 0 
L 581 0 
L 581 3500 
L 1159 3500 
L 1159 2956 
Q 1341 3275 1631 3429 
Q 1922 3584 2338 3584 
Q 2397 3584 2469 3576 
Q 2541 3569 2628 3553 
L 2631 2963 
z
" transform="scale(0.015625)"/>
      </defs>
      <use xlink:href="#DejaVuSans-78"/>
      <use xlink:href="#DejaVuSans-20" x="59.179688"/>
      <use xlink:href="#DejaVuSans-3d" x="90.966797"/>
      <use xlink:href="#DejaVuSans-20" x="174.755859"/>
      <use xlink:href="#DejaVuSans-73" x="206.542969"/>
      <use xlink:href="#DejaVuSans-71" x="258.642578"/>
      <use xlink:href="#DejaVuSans-72" x="322.119141"/>
      <use xlink:href="#DejaVuSans-74" x="363.232422"/>
      <use xlink:href="#DejaVuSans-28" x="402.441406"/>
      <use xlink:href="#DejaVuSans-74" x="441.455078"/>
      <use xlink:href="#DejaVuSans-29" x="480.664062"/>
     </g>
    </g>
   </g>
  </g>
  <g id="axes_2">
   <g id="patch_8">
    <path d="M 545.899063 507.4 
L 951.029063 507.4 
L 951.029063 7.2 
L 545.899063 7.2 
z
" style="fill: #ffffff"/>
   </g>
   <g id="matplotlib.axis_3">
    <g id="xtick_7">
     <g id="line2d_18">
      <g>
       <use xlink:href="#m8c1f4b8867" x="564.314062" y="507.4" style="stroke: #000000; stroke-width: 0.8"/>
      </g>
     </g>
     <g id="text_18">
      <!-- 0 -->
      <g transform="translate(559.542187 525.797656) scale(0.15 -0.15)">
       <use xlink:href="#DejaVuSans-30"/>
      </g>
     </g>
    </g>
    <g id="xtick_8">
     <g id="line2d_19">
      <g>
       <use xlink:href="#m8c1f4b8867" x="637.974063" y="507.4" style="stroke: #000000; stroke-width: 0.8"/>
      </g>
     </g>
     <g id="text_19">
      <!-- 10 -->
      <g transform="translate(628.430313 525.797656) scale(0.15 -0.15)">
       <use xlink:href="#DejaVuSans-31"/>
       <use xlink:href="#DejaVuSans-30" x="63.623047"/>
      </g>
     </g>
    </g>
    <g id="xtick_9">
     <g id="line2d_20">
      <g>
       <use xlink:href="#m8c1f4b8867" x="711.634063" y="507.4" style="stroke: #000000; stroke-width: 0.8"/>
      </g>
     </g>
     <g id="text_20">
      <!-- 20 -->
      <g transform="translate(702.090313 525.797656) scale(0.15 -0.15)">
       <use xlink:href="#DejaVuSans-32"/>
       <use xlink:href="#DejaVuSans-30" x="63.623047"/>
      </g>
     </g>
    </g>
    <g id="xtick_10">
     <g id="line2d_21">
      <g>
       <use xlink:href="#m8c1f4b8867" x="785.294063" y="507.4" style="stroke: #000000; stroke-width: 0.8"/>
      </g>
     </g>
     <g id="text_21">
      <!-- 30 -->
      <g transform="translate(775.750313 525.797656) scale(0.15 -0.15)">
       <use xlink:href="#DejaVuSans-33"/>
       <use xlink:href="#DejaVuSans-30" x="63.623047"/>
      </g>
     </g>
    </g>
    <g id="xtick_11">
     <g id="line2d_22">
      <g>
       <use xlink:href="#m8c1f4b8867" x="858.954063" y="507.4" style="stroke: #000000; stroke-width: 0.8"/>
      </g>
     </g>
     <g id="text_22">
      <!-- 40 -->
      <g transform="translate(849.410313 525.797656) scale(0.15 -0.15)">
       <use xlink:href="#DejaVuSans-34"/>
       <use xlink:href="#DejaVuSans-30" x="63.623047"/>
      </g>
     </g>
    </g>
    <g id="xtick_12">
     <g id="line2d_23">
      <g>
       <use xlink:href="#m8c1f4b8867" x="932.614063" y="507.4" style="stroke: #000000; stroke-width: 0.8"/>
      </g>
     </g>
     <g id="text_23">
      <!-- 50 -->
      <g transform="translate(923.070313 525.797656) scale(0.15 -0.15)">
       <use xlink:href="#DejaVuSans-35"/>
       <use xlink:href="#DejaVuSans-30" x="63.623047"/>
      </g>
     </g>
    </g>
    <g id="text_24">
     <!-- t -->
     <g transform="translate(742.583594 555.7125) scale(0.3 -0.3)">
      <use xlink:href="#DejaVuSans-74"/>
     </g>
    </g>
   </g>
   <g id="matplotlib.axis_4">
    <g id="ytick_8">
     <g id="line2d_24">
      <g>
       <use xlink:href="#me9ceb207af" x="545.899063" y="484.663636" style="stroke: #000000; stroke-width: 0.8"/>
      </g>
     </g>
     <g id="text_25">
      <!-- 0 -->
      <g transform="translate(529.355312 490.362464) scale(0.15 -0.15)">
       <use xlink:href="#DejaVuSans-30"/>
      </g>
     </g>
    </g>
    <g id="ytick_9">
     <g id="line2d_25">
      <g>
       <use xlink:href="#me9ceb207af" x="545.899063" y="420.355489" style="stroke: #000000; stroke-width: 0.8"/>
      </g>
     </g>
     <g id="text_26">
      <!-- 1 -->
      <g transform="translate(529.355312 426.054317) scale(0.15 -0.15)">
       <use xlink:href="#DejaVuSans-31"/>
      </g>
     </g>
    </g>
    <g id="ytick_10">
     <g id="line2d_26">
      <g>
       <use xlink:href="#me9ceb207af" x="545.899063" y="356.047341" style="stroke: #000000; stroke-width: 0.8"/>
      </g>
     </g>
     <g id="text_27">
      <!-- 2 -->
      <g transform="translate(529.355312 361.746169) scale(0.15 -0.15)">
       <use xlink:href="#DejaVuSans-32"/>
      </g>
     </g>
    </g>
    <g id="ytick_11">
     <g id="line2d_27">
      <g>
       <use xlink:href="#me9ceb207af" x="545.899063" y="291.739193" style="stroke: #000000; stroke-width: 0.8"/>
      </g>
     </g>
     <g id="text_28">
      <!-- 3 -->
      <g transform="translate(529.355312 297.438022) scale(0.15 -0.15)">
       <use xlink:href="#DejaVuSans-33"/>
      </g>
     </g>
    </g>
    <g id="ytick_12">
     <g id="line2d_28">
      <g>
       <use xlink:href="#me9ceb207af" x="545.899063" y="227.431046" style="stroke: #000000; stroke-width: 0.8"/>
      </g>
     </g>
     <g id="text_29">
      <!-- 4 -->
      <g transform="translate(529.355312 233.129874) scale(0.15 -0.15)">
       <use xlink:href="#DejaVuSans-34"/>
      </g>
     </g>
    </g>
    <g id="ytick_13">
     <g id="line2d_29">
      <g>
       <use xlink:href="#me9ceb207af" x="545.899063" y="163.122898" style="stroke: #000000; stroke-width: 0.8"/>
      </g>
     </g>
     <g id="text_30">
      <!-- 5 -->
      <g transform="translate(529.355312 168.821726) scale(0.15 -0.15)">
       <use xlink:href="#DejaVuSans-35"/>
      </g>
     </g>
    </g>
    <g id="ytick_14">
     <g id="line2d_30">
      <g>
       <use xlink:href="#me9ceb207af" x="545.899063" y="98.814751" style="stroke: #000000; stroke-width: 0.8"/>
      </g>
     </g>
     <g id="text_31">
      <!-- 6 -->
      <g transform="translate(529.355312 104.513579) scale(0.15 -0.15)">
       <use xlink:href="#DejaVuSans-36"/>
      </g>
     </g>
    </g>
    <g id="ytick_15">
     <g id="line2d_31">
      <g>
       <use xlink:href="#me9ceb207af" x="545.899063" y="34.506603" style="stroke: #000000; stroke-width: 0.8"/>
      </g>
     </g>
     <g id="text_32">
      <!-- 7 -->
      <g transform="translate(529.355312 40.205431) scale(0.15 -0.15)">
       <defs>
        <path id="DejaVuSans-37" d="M 525 4666 
L 3525 4666 
L 3525 4397 
L 1831 0 
L 1172 0 
L 2766 4134 
L 525 4134 
L 525 4666 
z
" transform="scale(0.015625)"/>
       </defs>
       <use xlink:href="#DejaVuSans-37"/>
      </g>
     </g>
    </g>
    <g id="text_33">
     <!-- x(t) -->
     <g transform="translate(519.11625 283.763281) rotate(-90) scale(0.3 -0.3)">
      <use xlink:href="#DejaVuSans-78"/>
      <use xlink:href="#DejaVuSans-28" x="59.179688"/>
      <use xlink:href="#DejaVuSans-74" x="98.193359"/>
      <use xlink:href="#DejaVuSans-29" x="137.402344"/>
     </g>
    </g>
   </g>
   <g id="line2d_32">
    <path d="M 564.314062 420.355489 
L 565.050663 426.312031 
L 565.787262 430.596027 
L 566.523863 433.55991 
L 567.260463 435.447132 
L 567.997063 436.435263 
L 568.365363 436.636021 
L 568.733663 436.660983 
L 569.101963 436.523312 
L 569.838563 435.807875 
L 570.575163 434.578092 
L 571.311763 432.913408 
L 572.416663 429.759139 
L 573.889863 424.668885 
L 576.099663 416.03663 
L 580.150963 400.137146 
L 582.729063 391.037594 
L 585.307163 382.84772 
L 587.885263 375.416461 
L 590.831663 367.63995 
L 594.146363 359.582343 
L 597.461063 352.087157 
L 601.144063 344.281076 
L 605.195363 336.209769 
L 609.614963 327.911661 
L 614.402863 319.418936 
L 619.559063 310.7585 
L 624.715263 302.526168 
L 630.239763 294.113812 
L 636.132563 285.543732 
L 642.393663 276.834955 
L 649.023063 268.003767 
L 656.020763 259.064148 
L 663.386763 250.028142 
L 671.121063 240.906159 
L 679.223663 231.707232 
L 687.694563 222.43922 
L 696.533763 213.108992 
L 705.741263 203.722566 
L 715.317063 194.285233 
L 725.261163 184.801664 
L 735.573563 175.275989 
L 746.254263 165.711875 
L 757.303263 156.112586 
L 768.720563 146.481037 
L 780.874463 136.522263 
L 793.396663 126.552599 
L 806.287163 116.572862 
L 819.914263 106.310095 
L 833.909663 96.05299 
L 848.273363 85.801056 
L 863.373663 75.300975 
L 878.842263 64.817769 
L 894.679163 54.350166 
L 911.252663 43.662332 
L 928.194463 32.998913 
L 932.614063 30.258394 
L 932.614063 30.258394 
" clip-path="url(#p2bff1e363d)" style="fill: none; stroke: #ff7f0e; stroke-width: 1.5; stroke-linecap: square"/>
   </g>
   <g id="line2d_33">
    <path d="M 564.314062 484.663636 
L 564.682362 470.283897 
L 565.418963 459.757198 
L 566.155562 452.509563 
L 567.260463 443.991593 
L 568.733663 434.850759 
L 570.206863 427.144681 
L 572.048363 418.767394 
L 573.889863 411.341067 
L 576.099663 403.319549 
L 578.677763 394.862195 
L 581.255863 387.135502 
L 584.202263 378.994567 
L 587.516963 370.527997 
L 590.831663 362.647505 
L 594.514663 354.449562 
L 598.565963 345.990456 
L 602.985563 337.315159 
L 607.405163 329.122978 
L 612.193063 320.709387 
L 617.349263 312.106769 
L 622.873763 303.342027 
L 628.766563 294.43757 
L 634.659363 285.93169 
L 640.920463 277.276092 
L 647.549863 268.488759 
L 654.547563 259.58512 
L 661.913563 250.578446 
L 669.647863 241.480184 
L 677.750463 232.300242 
L 686.221363 223.047216 
L 695.060563 213.728595 
L 704.268063 204.35092 
L 713.843863 194.919925 
L 723.787963 185.440652 
L 734.100363 175.917547 
L 744.781063 166.354545 
L 755.830063 156.755137 
L 767.615663 146.816267 
L 779.769563 136.864151 
L 792.291763 126.899892 
L 805.182263 116.924479 
L 818.809363 106.66518 
L 832.804763 96.410684 
L 847.168463 86.160621 
L 862.268763 75.661795 
L 877.737363 65.179268 
L 893.942563 54.471448 
L 910.516063 43.789188 
L 927.826163 32.90176 
L 932.614063 29.936364 
L 932.614063 29.936364 
" clip-path="url(#p2bff1e363d)" style="fill: none; stroke-dasharray: 5.55,2.4; stroke-dashoffset: 0; stroke: #000000; stroke-width: 1.5"/>
   </g>
   <g id="patch_9">
    <path d="M 545.899063 507.4 
L 545.899063 7.2 
" style="fill: none; stroke: #000000; stroke-width: 0.8; stroke-linejoin: miter; stroke-linecap: square"/>
   </g>
   <g id="patch_10">
    <path d="M 951.029063 507.4 
L 951.029063 7.2 
" style="fill: none; stroke: #000000; stroke-width: 0.8; stroke-linejoin: miter; stroke-linecap: square"/>
   </g>
   <g id="patch_11">
    <path d="M 545.899063 507.4 
L 951.029063 507.4 
" style="fill: none; stroke: #000000; stroke-width: 0.8; stroke-linejoin: miter; stroke-linecap: square"/>
   </g>
   <g id="patch_12">
    <path d="M 545.899063 7.2 
L 951.029063 7.2 
" style="fill: none; stroke: #000000; stroke-width: 0.8; stroke-linejoin: miter; stroke-linecap: square"/>
   </g>
   <g id="legend_2">
    <g id="patch_13">
     <path d="M 563.399063 100.590625 
L 773.317031 100.590625 
Q 778.317031 100.590625 778.317031 95.590625 
L 778.317031 24.7 
Q 778.317031 19.7 773.317031 19.7 
L 563.399063 19.7 
Q 558.399063 19.7 558.399063 24.7 
L 558.399063 95.590625 
Q 558.399063 100.590625 563.399063 100.590625 
z
" style="fill: #ffffff; opacity: 0.8; stroke: #cccccc; stroke-linejoin: miter"/>
    </g>
    <g id="line2d_34">
     <path d="M 568.399063 39.946094 
L 593.399063 39.946094 
L 618.399063 39.946094 
" style="fill: none; stroke: #ff7f0e; stroke-width: 1.5; stroke-linecap: square"/>
    </g>
    <g id="text_34">
     <!-- $t_{max}$ = 50 -->
     <g transform="translate(638.399063 48.696094) scale(0.25 -0.25)">
      <use xlink:href="#DejaVuSans-Oblique-74" transform="translate(0 0.78125)"/>
      <use xlink:href="#DejaVuSans-Oblique-6d" transform="translate(39.208984 -15.625) scale(0.7)"/>
      <use xlink:href="#DejaVuSans-Oblique-61" transform="translate(107.397461 -15.625) scale(0.7)"/>
      <use xlink:href="#DejaVuSans-Oblique-78" transform="translate(150.292969 -15.625) scale(0.7)"/>
      <use xlink:href="#DejaVuSans-20" transform="translate(194.453125 0.78125)"/>
      <use xlink:href="#DejaVuSans-3d" transform="translate(226.240234 0.78125)"/>
      <use xlink:href="#DejaVuSans-20" transform="translate(310.029297 0.78125)"/>
      <use xlink:href="#DejaVuSans-35" transform="translate(341.816406 0.78125)"/>
      <use xlink:href="#DejaVuSans-30" transform="translate(405.439453 0.78125)"/>
     </g>
    </g>
    <g id="line2d_35">
     <path d="M 568.399063 76.641406 
L 593.399063 76.641406 
L 618.399063 76.641406 
" style="fill: none; stroke-dasharray: 5.55,2.4; stroke-dashoffset: 0; stroke: #000000; stroke-width: 1.5"/>
    </g>
    <g id="text_35">
     <!-- x = sqrt(t) -->
     <g transform="translate(638.399063 85.391406) scale(0.25 -0.25)">
      <use xlink:href="#DejaVuSans-78"/>
      <use xlink:href="#DejaVuSans-20" x="59.179688"/>
      <use xlink:href="#DejaVuSans-3d" x="90.966797"/>
      <use xlink:href="#DejaVuSans-20" x="174.755859"/>
      <use xlink:href="#DejaVuSans-73" x="206.542969"/>
      <use xlink:href="#DejaVuSans-71" x="258.642578"/>
      <use xlink:href="#DejaVuSans-72" x="322.119141"/>
      <use xlink:href="#DejaVuSans-74" x="363.232422"/>
      <use xlink:href="#DejaVuSans-28" x="402.441406"/>
      <use xlink:href="#DejaVuSans-74" x="441.455078"/>
      <use xlink:href="#DejaVuSans-29" x="480.664062"/>
     </g>
    </g>
   </g>
  </g>
  <g id="axes_3">
   <g id="patch_14">
    <path d="M 1020.709062 507.4 
L 1425.839062 507.4 
L 1425.839062 7.2 
L 1020.709062 7.2 
z
" style="fill: #ffffff"/>
   </g>
   <g id="matplotlib.axis_5">
    <g id="xtick_13">
     <g id="line2d_36">
      <g>
       <use xlink:href="#m8c1f4b8867" x="1039.124063" y="507.4" style="stroke: #000000; stroke-width: 0.8"/>
      </g>
     </g>
     <g id="text_36">
      <!-- 0 -->
      <g transform="translate(1034.352188 525.797656) scale(0.15 -0.15)">
       <use xlink:href="#DejaVuSans-30"/>
      </g>
     </g>
    </g>
    <g id="xtick_14">
     <g id="line2d_37">
      <g>
       <use xlink:href="#m8c1f4b8867" x="1112.784063" y="507.4" style="stroke: #000000; stroke-width: 0.8"/>
      </g>
     </g>
     <g id="text_37">
      <!-- 20 -->
      <g transform="translate(1103.240313 525.797656) scale(0.15 -0.15)">
       <use xlink:href="#DejaVuSans-32"/>
       <use xlink:href="#DejaVuSans-30" x="63.623047"/>
      </g>
     </g>
    </g>
    <g id="xtick_15">
     <g id="line2d_38">
      <g>
       <use xlink:href="#m8c1f4b8867" x="1186.444063" y="507.4" style="stroke: #000000; stroke-width: 0.8"/>
      </g>
     </g>
     <g id="text_38">
      <!-- 40 -->
      <g transform="translate(1176.900313 525.797656) scale(0.15 -0.15)">
       <use xlink:href="#DejaVuSans-34"/>
       <use xlink:href="#DejaVuSans-30" x="63.623047"/>
      </g>
     </g>
    </g>
    <g id="xtick_16">
     <g id="line2d_39">
      <g>
       <use xlink:href="#m8c1f4b8867" x="1260.104063" y="507.4" style="stroke: #000000; stroke-width: 0.8"/>
      </g>
     </g>
     <g id="text_39">
      <!-- 60 -->
      <g transform="translate(1250.560313 525.797656) scale(0.15 -0.15)">
       <use xlink:href="#DejaVuSans-36"/>
       <use xlink:href="#DejaVuSans-30" x="63.623047"/>
      </g>
     </g>
    </g>
    <g id="xtick_17">
     <g id="line2d_40">
      <g>
       <use xlink:href="#m8c1f4b8867" x="1333.764063" y="507.4" style="stroke: #000000; stroke-width: 0.8"/>
      </g>
     </g>
     <g id="text_40">
      <!-- 80 -->
      <g transform="translate(1324.220313 525.797656) scale(0.15 -0.15)">
       <use xlink:href="#DejaVuSans-38"/>
       <use xlink:href="#DejaVuSans-30" x="63.623047"/>
      </g>
     </g>
    </g>
    <g id="xtick_18">
     <g id="line2d_41">
      <g>
       <use xlink:href="#m8c1f4b8867" x="1407.424063" y="507.4" style="stroke: #000000; stroke-width: 0.8"/>
      </g>
     </g>
     <g id="text_41">
      <!-- 100 -->
      <g transform="translate(1393.108438 525.797656) scale(0.15 -0.15)">
       <use xlink:href="#DejaVuSans-31"/>
       <use xlink:href="#DejaVuSans-30" x="63.623047"/>
       <use xlink:href="#DejaVuSans-30" x="127.246094"/>
      </g>
     </g>
    </g>
    <g id="text_42">
     <!-- t -->
     <g transform="translate(1217.393594 555.7125) scale(0.3 -0.3)">
      <use xlink:href="#DejaVuSans-74"/>
     </g>
    </g>
   </g>
   <g id="matplotlib.axis_6">
    <g id="ytick_16">
     <g id="line2d_42">
      <g>
       <use xlink:href="#me9ceb207af" x="1020.709062" y="484.663636" style="stroke: #000000; stroke-width: 0.8"/>
      </g>
     </g>
     <g id="text_43">
      <!-- 0 -->
      <g transform="translate(1004.165312 490.362464) scale(0.15 -0.15)">
       <use xlink:href="#DejaVuSans-30"/>
      </g>
     </g>
    </g>
    <g id="ytick_17">
     <g id="line2d_43">
      <g>
       <use xlink:href="#me9ceb207af" x="1020.709062" y="393.718182" style="stroke: #000000; stroke-width: 0.8"/>
      </g>
     </g>
     <g id="text_44">
      <!-- 2 -->
      <g transform="translate(1004.165312 399.41701) scale(0.15 -0.15)">
       <use xlink:href="#DejaVuSans-32"/>
      </g>
     </g>
    </g>
    <g id="ytick_18">
     <g id="line2d_44">
      <g>
       <use xlink:href="#me9ceb207af" x="1020.709062" y="302.772727" style="stroke: #000000; stroke-width: 0.8"/>
      </g>
     </g>
     <g id="text_45">
      <!-- 4 -->
      <g transform="translate(1004.165312 308.471555) scale(0.15 -0.15)">
       <use xlink:href="#DejaVuSans-34"/>
      </g>
     </g>
    </g>
    <g id="ytick_19">
     <g id="line2d_45">
      <g>
       <use xlink:href="#me9ceb207af" x="1020.709062" y="211.827273" style="stroke: #000000; stroke-width: 0.8"/>
      </g>
     </g>
     <g id="text_46">
      <!-- 6 -->
      <g transform="translate(1004.165312 217.526101) scale(0.15 -0.15)">
       <use xlink:href="#DejaVuSans-36"/>
      </g>
     </g>
    </g>
    <g id="ytick_20">
     <g id="line2d_46">
      <g>
       <use xlink:href="#me9ceb207af" x="1020.709062" y="120.881818" style="stroke: #000000; stroke-width: 0.8"/>
      </g>
     </g>
     <g id="text_47">
      <!-- 8 -->
      <g transform="translate(1004.165312 126.580646) scale(0.15 -0.15)">
       <use xlink:href="#DejaVuSans-38"/>
      </g>
     </g>
    </g>
    <g id="ytick_21">
     <g id="line2d_47">
      <g>
       <use xlink:href="#me9ceb207af" x="1020.709062" y="29.936364" style="stroke: #000000; stroke-width: 0.8"/>
      </g>
     </g>
     <g id="text_48">
      <!-- 10 -->
      <g transform="translate(994.621562 35.635192) scale(0.15 -0.15)">
       <use xlink:href="#DejaVuSans-31"/>
       <use xlink:href="#DejaVuSans-30" x="63.623047"/>
      </g>
     </g>
    </g>
    <g id="text_49">
     <!-- x(t) -->
     <g transform="translate(984.3825 283.763281) rotate(-90) scale(0.3 -0.3)">
      <use xlink:href="#DejaVuSans-78"/>
      <use xlink:href="#DejaVuSans-28" x="59.179688"/>
      <use xlink:href="#DejaVuSans-74" x="98.193359"/>
      <use xlink:href="#DejaVuSans-29" x="137.402344"/>
     </g>
    </g>
   </g>
   <g id="line2d_48">
    <path d="M 1039.124063 439.190909 
L 1039.676512 445.047408 
L 1040.228963 448.527845 
L 1040.597263 449.862312 
L 1040.965563 450.561026 
L 1041.333863 450.720635 
L 1041.702163 450.419533 
L 1042.070463 449.724431 
L 1042.622913 448.070699 
L 1043.359513 444.996608 
L 1044.464413 439.250047 
L 1047.963263 420.229816 
L 1049.620613 412.668911 
L 1051.462113 405.296342 
L 1053.487763 398.067761 
L 1055.881713 390.349767 
L 1058.643963 382.242386 
L 1061.590363 374.299531 
L 1064.905063 366.034521 
L 1068.403913 357.920084 
L 1072.086913 349.924564 
L 1076.138213 341.660117 
L 1080.373663 333.514208 
L 1084.977413 325.140708 
L 1089.949463 316.573289 
L 1095.105663 308.133661 
L 1100.630163 299.523027 
L 1106.338813 291.031622 
L 1112.415763 282.387441 
L 1118.861013 273.609119 
L 1125.674563 264.71259 
L 1132.672263 255.937861 
L 1140.038263 247.053134 
L 1147.772563 238.070222 
L 1155.875163 228.999403 
L 1164.346063 219.849647 
L 1173.185263 210.628801 
L 1182.392763 201.343756 
L 1191.968563 192.000575 
L 1202.096813 182.433375 
L 1212.593363 172.828624 
L 1223.458213 163.18965 
L 1234.691363 153.51941 
L 1246.476963 143.668816 
L 1258.630863 133.800431 
L 1271.337213 123.77235 
L 1284.411863 113.736919 
L 1298.038963 103.558974 
L 1312.218513 93.249627 
L 1326.766363 82.947695 
L 1341.866663 72.527115 
L 1357.519413 61.996658 
L 1373.724613 51.36433 
L 1390.482263 40.637443 
L 1407.424062 30.050102 
L 1407.424062 30.050102 
" clip-path="url(#pcd3f2026ac)" style="fill: none; stroke: #2ca02c; stroke-width: 1.5; stroke-linecap: square"/>
   </g>
   <g id="line2d_49">
    <path d="M 1039.124063 484.663636 
L 1039.492363 470.283897 
L 1040.044813 461.927273 
L 1040.781412 454.159604 
L 1041.702163 446.618423 
L 1042.991213 438.067957 
L 1044.464413 429.907222 
L 1046.121763 421.983807 
L 1047.963263 414.21759 
L 1050.173063 405.902562 
L 1052.567013 397.788113 
L 1055.145113 389.822744 
L 1058.091513 381.469596 
L 1061.222063 373.278657 
L 1064.536763 365.216554 
L 1068.219763 356.853721 
L 1072.086913 348.624922 
L 1076.322363 340.149048 
L 1080.741963 331.804914 
L 1085.529863 323.251467 
L 1090.501913 314.82437 
L 1095.842263 306.215769 
L 1101.366763 297.72703 
L 1107.259563 289.078041 
L 1113.520663 280.289146 
L 1120.150063 271.37764 
L 1126.963613 262.590926 
L 1134.145463 253.690828 
L 1141.695613 244.689962 
L 1149.614063 235.599252 
L 1157.900813 226.428186 
L 1166.555863 217.18503 
L 1175.579213 207.877006 
L 1184.970863 198.510444 
L 1194.730813 189.090909 
L 1204.859063 179.623308 
L 1215.539763 169.947683 
L 1226.588763 160.241938 
L 1238.006063 150.508699 
L 1249.975813 140.600022 
L 1262.313863 130.676635 
L 1275.204363 120.597725 
L 1288.463163 110.513992 
L 1302.274413 100.291304 
L 1316.638113 89.940457 
L 1331.370113 79.598871 
L 1346.654563 69.141428 
L 1362.491463 58.57666 
L 1378.880813 47.912353 
L 1395.822613 37.155625 
L 1407.424062 29.936364 
L 1407.424062 29.936364 
" clip-path="url(#pcd3f2026ac)" style="fill: none; stroke-dasharray: 5.55,2.4; stroke-dashoffset: 0; stroke: #000000; stroke-width: 1.5"/>
   </g>
   <g id="patch_15">
    <path d="M 1020.709062 507.4 
L 1020.709062 7.2 
" style="fill: none; stroke: #000000; stroke-width: 0.8; stroke-linejoin: miter; stroke-linecap: square"/>
   </g>
   <g id="patch_16">
    <path d="M 1425.839062 507.4 
L 1425.839062 7.2 
" style="fill: none; stroke: #000000; stroke-width: 0.8; stroke-linejoin: miter; stroke-linecap: square"/>
   </g>
   <g id="patch_17">
    <path d="M 1020.709063 507.4 
L 1425.839062 507.4 
" style="fill: none; stroke: #000000; stroke-width: 0.8; stroke-linejoin: miter; stroke-linecap: square"/>
   </g>
   <g id="patch_18">
    <path d="M 1020.709063 7.2 
L 1425.839062 7.2 
" style="fill: none; stroke: #000000; stroke-width: 0.8; stroke-linejoin: miter; stroke-linecap: square"/>
   </g>
   <g id="legend_3">
    <g id="patch_19">
     <path d="M 1038.209063 100.590625 
L 1251.459063 100.590625 
Q 1256.459063 100.590625 1256.459063 95.590625 
L 1256.459063 24.7 
Q 1256.459063 19.7 1251.459063 19.7 
L 1038.209063 19.7 
Q 1033.209063 19.7 1033.209063 24.7 
L 1033.209063 95.590625 
Q 1033.209063 100.590625 1038.209063 100.590625 
z
" style="fill: #ffffff; opacity: 0.8; stroke: #cccccc; stroke-linejoin: miter"/>
    </g>
    <g id="line2d_50">
     <path d="M 1043.209063 39.946094 
L 1068.209063 39.946094 
L 1093.209063 39.946094 
" style="fill: none; stroke: #2ca02c; stroke-width: 1.5; stroke-linecap: square"/>
    </g>
    <g id="text_50">
     <!-- $t_{max}$ = 100 -->
     <g transform="translate(1113.209063 48.696094) scale(0.25 -0.25)">
      <use xlink:href="#DejaVuSans-Oblique-74" transform="translate(0 0.78125)"/>
      <use xlink:href="#DejaVuSans-Oblique-6d" transform="translate(39.208984 -15.625) scale(0.7)"/>
      <use xlink:href="#DejaVuSans-Oblique-61" transform="translate(107.397461 -15.625) scale(0.7)"/>
      <use xlink:href="#DejaVuSans-Oblique-78" transform="translate(150.292969 -15.625) scale(0.7)"/>
      <use xlink:href="#DejaVuSans-20" transform="translate(194.453125 0.78125)"/>
      <use xlink:href="#DejaVuSans-3d" transform="translate(226.240234 0.78125)"/>
      <use xlink:href="#DejaVuSans-20" transform="translate(310.029297 0.78125)"/>
      <use xlink:href="#DejaVuSans-31" transform="translate(341.816406 0.78125)"/>
      <use xlink:href="#DejaVuSans-30" transform="translate(405.439453 0.78125)"/>
      <use xlink:href="#DejaVuSans-30" transform="translate(469.0625 0.78125)"/>
     </g>
    </g>
    <g id="line2d_51">
     <path d="M 1043.209063 76.641406 
L 1068.209063 76.641406 
L 1093.209063 76.641406 
" style="fill: none; stroke-dasharray: 5.55,2.4; stroke-dashoffset: 0; stroke: #000000; stroke-width: 1.5"/>
    </g>
    <g id="text_51">
     <!-- x = sqrt(t) -->
     <g transform="translate(1113.209063 85.391406) scale(0.25 -0.25)">
      <use xlink:href="#DejaVuSans-78"/>
      <use xlink:href="#DejaVuSans-20" x="59.179688"/>
      <use xlink:href="#DejaVuSans-3d" x="90.966797"/>
      <use xlink:href="#DejaVuSans-20" x="174.755859"/>
      <use xlink:href="#DejaVuSans-73" x="206.542969"/>
      <use xlink:href="#DejaVuSans-71" x="258.642578"/>
      <use xlink:href="#DejaVuSans-72" x="322.119141"/>
      <use xlink:href="#DejaVuSans-74" x="363.232422"/>
      <use xlink:href="#DejaVuSans-28" x="402.441406"/>
      <use xlink:href="#DejaVuSans-74" x="441.455078"/>
      <use xlink:href="#DejaVuSans-29" x="480.664062"/>
     </g>
    </g>
   </g>
  </g>
 </g>
 <defs>
  <clipPath id="p4b8090a94d">
   <rect x="71.089062" y="7.2" width="405.13" height="500.2"/>
  </clipPath>
  <clipPath id="p2bff1e363d">
   <rect x="545.899063" y="7.2" width="405.13" height="500.2"/>
  </clipPath>
  <clipPath id="pcd3f2026ac">
   <rect x="1020.709062" y="7.2" width="405.13" height="500.2"/>
  </clipPath>
 </defs>
</svg>
