<?xml version="1.0" encoding="utf-8" standalone="no"?>
<!DOCTYPE svg PUBLIC "-//W3C//DTD SVG 1.1//EN"
  "http://www.w3.org/Graphics/SVG/1.1/DTD/svg11.dtd">
<svg xmlns:xlink="http://www.w3.org/1999/xlink" width="856.343125pt" height="423.993437pt" viewBox="0 0 856.343125 423.993437" xmlns="http://www.w3.org/2000/svg" version="1.1">
 <metadata>
  <rdf:RDF xmlns:dc="http://purl.org/dc/elements/1.1/" xmlns:cc="http://creativecommons.org/ns#" xmlns:rdf="http://www.w3.org/1999/02/22-rdf-syntax-ns#">
   <cc:Work>
    <dc:type rdf:resource="http://purl.org/dc/dcmitype/StillImage"/>
    <dc:date>2024-09-29T01:43:41.258013</dc:date>
    <dc:format>image/svg+xml</dc:format>
    <dc:creator>
     <cc:Agent>
      <dc:title>Matplotlib v3.8.4, https://matplotlib.org/</dc:title>
     </cc:Agent>
    </dc:creator>
   </cc:Work>
  </rdf:RDF>
 </metadata>
 <defs>
  <style type="text/css">*{stroke-linejoin: round; stroke-linecap: butt}</style>
 </defs>
 <g id="figure_1">
  <g id="patch_1">
   <path d="M 0 423.993437 
L 856.343125 423.993437 
L 856.343125 0 
L 0 0 
z
" style="fill: #ffffff"/>
  </g>
  <g id="axes_1">
   <g id="patch_2">
    <path d="M 40.603125 386.437187 
L 422.543125 386.437187 
L 422.543125 26.877187 
L 40.603125 26.877187 
z
" style="fill: #ffffff"/>
   </g>
   <g id="matplotlib.axis_1">
    <g id="xtick_1">
     <g id="line2d_1">
      <defs>
       <path id="m2fa4e2bde6" d="M 0 0 
L 0 3.5 
" style="stroke: #000000; stroke-width: 0.8"/>
      </defs>
      <g>
       <use xlink:href="#m2fa4e2bde6" x="57.964034" y="386.437187" style="stroke: #000000; stroke-width: 0.8"/>
      </g>
     </g>
     <g id="text_1">
      <!-- 0 -->
      <g transform="translate(54.782784 401.035625) scale(0.1 -0.1)">
       <defs>
        <path id="DejaVuSans-30" d="M 2034 4250 
Q 1547 4250 1301 3770 
Q 1056 3291 1056 2328 
Q 1056 1369 1301 889 
Q 1547 409 2034 409 
Q 2525 409 2770 889 
Q 3016 1369 3016 2328 
Q 3016 3291 2770 3770 
Q 2525 4250 2034 4250 
z
M 2034 4750 
Q 2819 4750 3233 4129 
Q 3647 3509 3647 2328 
Q 3647 1150 3233 529 
Q 2819 -91 2034 -91 
Q 1250 -91 836 529 
Q 422 1150 422 2328 
Q 422 3509 836 4129 
Q 1250 4750 2034 4750 
z
" transform="scale(0.015625)"/>
       </defs>
       <use xlink:href="#DejaVuSans-30"/>
      </g>
     </g>
    </g>
    <g id="xtick_2">
     <g id="line2d_2">
      <g>
       <use xlink:href="#m2fa4e2bde6" x="127.40767" y="386.437187" style="stroke: #000000; stroke-width: 0.8"/>
      </g>
     </g>
     <g id="text_2">
      <!-- 100 -->
      <g transform="translate(117.86392 401.035625) scale(0.1 -0.1)">
       <defs>
        <path id="DejaVuSans-31" d="M 794 531 
L 1825 531 
L 1825 4091 
L 703 3866 
L 703 4441 
L 1819 4666 
L 2450 4666 
L 2450 531 
L 3481 531 
L 3481 0 
L 794 0 
L 794 531 
z
" transform="scale(0.015625)"/>
       </defs>
       <use xlink:href="#DejaVuSans-31"/>
       <use xlink:href="#DejaVuSans-30" x="63.623047"/>
       <use xlink:href="#DejaVuSans-30" x="127.246094"/>
      </g>
     </g>
    </g>
    <g id="xtick_3">
     <g id="line2d_3">
      <g>
       <use xlink:href="#m2fa4e2bde6" x="196.851307" y="386.437187" style="stroke: #000000; stroke-width: 0.8"/>
      </g>
     </g>
     <g id="text_3">
      <!-- 200 -->
      <g transform="translate(187.307557 401.035625) scale(0.1 -0.1)">
       <defs>
        <path id="DejaVuSans-32" d="M 1228 531 
L 3431 531 
L 3431 0 
L 469 0 
L 469 531 
Q 828 903 1448 1529 
Q 2069 2156 2228 2338 
Q 2531 2678 2651 2914 
Q 2772 3150 2772 3378 
Q 2772 3750 2511 3984 
Q 2250 4219 1831 4219 
Q 1534 4219 1204 4116 
Q 875 4013 500 3803 
L 500 4441 
Q 881 4594 1212 4672 
Q 1544 4750 1819 4750 
Q 2544 4750 2975 4387 
Q 3406 4025 3406 3419 
Q 3406 3131 3298 2873 
Q 3191 2616 2906 2266 
Q 2828 2175 2409 1742 
Q 1991 1309 1228 531 
z
" transform="scale(0.015625)"/>
       </defs>
       <use xlink:href="#DejaVuSans-32"/>
       <use xlink:href="#DejaVuSans-30" x="63.623047"/>
       <use xlink:href="#DejaVuSans-30" x="127.246094"/>
      </g>
     </g>
    </g>
    <g id="xtick_4">
     <g id="line2d_4">
      <g>
       <use xlink:href="#m2fa4e2bde6" x="266.294943" y="386.437187" style="stroke: #000000; stroke-width: 0.8"/>
      </g>
     </g>
     <g id="text_4">
      <!-- 300 -->
      <g transform="translate(256.751193 401.035625) scale(0.1 -0.1)">
       <defs>
        <path id="DejaVuSans-33" d="M 2597 2516 
Q 3050 2419 3304 2112 
Q 3559 1806 3559 1356 
Q 3559 666 3084 287 
Q 2609 -91 1734 -91 
Q 1441 -91 1130 -33 
Q 819 25 488 141 
L 488 750 
Q 750 597 1062 519 
Q 1375 441 1716 441 
Q 2309 441 2620 675 
Q 2931 909 2931 1356 
Q 2931 1769 2642 2001 
Q 2353 2234 1838 2234 
L 1294 2234 
L 1294 2753 
L 1863 2753 
Q 2328 2753 2575 2939 
Q 2822 3125 2822 3475 
Q 2822 3834 2567 4026 
Q 2313 4219 1838 4219 
Q 1578 4219 1281 4162 
Q 984 4106 628 3988 
L 628 4550 
Q 988 4650 1302 4700 
Q 1616 4750 1894 4750 
Q 2613 4750 3031 4423 
Q 3450 4097 3450 3541 
Q 3450 3153 3228 2886 
Q 3006 2619 2597 2516 
z
" transform="scale(0.015625)"/>
       </defs>
       <use xlink:href="#DejaVuSans-33"/>
       <use xlink:href="#DejaVuSans-30" x="63.623047"/>
       <use xlink:href="#DejaVuSans-30" x="127.246094"/>
      </g>
     </g>
    </g>
    <g id="xtick_5">
     <g id="line2d_5">
      <g>
       <use xlink:href="#m2fa4e2bde6" x="335.73858" y="386.437187" style="stroke: #000000; stroke-width: 0.8"/>
      </g>
     </g>
     <g id="text_5">
      <!-- 400 -->
      <g transform="translate(326.19483 401.035625) scale(0.1 -0.1)">
       <defs>
        <path id="DejaVuSans-34" d="M 2419 4116 
L 825 1625 
L 2419 1625 
L 2419 4116 
z
M 2253 4666 
L 3047 4666 
L 3047 1625 
L 3713 1625 
L 3713 1100 
L 3047 1100 
L 3047 0 
L 2419 0 
L 2419 1100 
L 313 1100 
L 313 1709 
L 2253 4666 
z
" transform="scale(0.015625)"/>
       </defs>
       <use xlink:href="#DejaVuSans-34"/>
       <use xlink:href="#DejaVuSans-30" x="63.623047"/>
       <use xlink:href="#DejaVuSans-30" x="127.246094"/>
      </g>
     </g>
    </g>
    <g id="xtick_6">
     <g id="line2d_6">
      <g>
       <use xlink:href="#m2fa4e2bde6" x="405.182216" y="386.437187" style="stroke: #000000; stroke-width: 0.8"/>
      </g>
     </g>
     <g id="text_6">
      <!-- 500 -->
      <g transform="translate(395.638466 401.035625) scale(0.1 -0.1)">
       <defs>
        <path id="DejaVuSans-35" d="M 691 4666 
L 3169 4666 
L 3169 4134 
L 1269 4134 
L 1269 2991 
Q 1406 3038 1543 3061 
Q 1681 3084 1819 3084 
Q 2600 3084 3056 2656 
Q 3513 2228 3513 1497 
Q 3513 744 3044 326 
Q 2575 -91 1722 -91 
Q 1428 -91 1123 -41 
Q 819 9 494 109 
L 494 744 
Q 775 591 1075 516 
Q 1375 441 1709 441 
Q 2250 441 2565 725 
Q 2881 1009 2881 1497 
Q 2881 1984 2565 2268 
Q 2250 2553 1709 2553 
Q 1456 2553 1204 2497 
Q 953 2441 691 2322 
L 691 4666 
z
" transform="scale(0.015625)"/>
       </defs>
       <use xlink:href="#DejaVuSans-35"/>
       <use xlink:href="#DejaVuSans-30" x="63.623047"/>
       <use xlink:href="#DejaVuSans-30" x="127.246094"/>
      </g>
     </g>
    </g>
    <g id="text_7">
     <!-- t -->
     <g transform="translate(229.612969 414.71375) scale(0.1 -0.1)">
      <defs>
       <path id="DejaVuSans-74" d="M 1172 4494 
L 1172 3500 
L 2356 3500 
L 2356 3053 
L 1172 3053 
L 1172 1153 
Q 1172 725 1289 603 
Q 1406 481 1766 481 
L 2356 481 
L 2356 0 
L 1766 0 
Q 1100 0 847 248 
Q 594 497 594 1153 
L 594 3053 
L 172 3053 
L 172 3500 
L 594 3500 
L 594 4494 
L 1172 4494 
z
" transform="scale(0.015625)"/>
      </defs>
      <use xlink:href="#DejaVuSans-74"/>
     </g>
    </g>
   </g>
   <g id="matplotlib.axis_2">
    <g id="ytick_1">
     <g id="line2d_7">
      <defs>
       <path id="md9750c1ff1" d="M 0 0 
L -3.5 0 
" style="stroke: #000000; stroke-width: 0.8"/>
      </defs>
      <g>
       <use xlink:href="#md9750c1ff1" x="40.603125" y="370.093551" style="stroke: #000000; stroke-width: 0.8"/>
      </g>
     </g>
     <g id="text_8">
      <!-- 0 -->
      <g transform="translate(27.240625 373.89277) scale(0.1 -0.1)">
       <use xlink:href="#DejaVuSans-30"/>
      </g>
     </g>
    </g>
    <g id="ytick_2">
     <g id="line2d_8">
      <g>
       <use xlink:href="#md9750c1ff1" x="40.603125" y="315.610214" style="stroke: #000000; stroke-width: 0.8"/>
      </g>
     </g>
     <g id="text_9">
      <!-- 5 -->
      <g transform="translate(27.240625 319.409433) scale(0.1 -0.1)">
       <use xlink:href="#DejaVuSans-35"/>
      </g>
     </g>
    </g>
    <g id="ytick_3">
     <g id="line2d_9">
      <g>
       <use xlink:href="#md9750c1ff1" x="40.603125" y="261.126877" style="stroke: #000000; stroke-width: 0.8"/>
      </g>
     </g>
     <g id="text_10">
      <!-- 10 -->
      <g transform="translate(20.878125 264.926095) scale(0.1 -0.1)">
       <use xlink:href="#DejaVuSans-31"/>
       <use xlink:href="#DejaVuSans-30" x="63.623047"/>
      </g>
     </g>
    </g>
    <g id="ytick_4">
     <g id="line2d_10">
      <g>
       <use xlink:href="#md9750c1ff1" x="40.603125" y="206.643539" style="stroke: #000000; stroke-width: 0.8"/>
      </g>
     </g>
     <g id="text_11">
      <!-- 15 -->
      <g transform="translate(20.878125 210.442758) scale(0.1 -0.1)">
       <use xlink:href="#DejaVuSans-31"/>
       <use xlink:href="#DejaVuSans-35" x="63.623047"/>
      </g>
     </g>
    </g>
    <g id="ytick_5">
     <g id="line2d_11">
      <g>
       <use xlink:href="#md9750c1ff1" x="40.603125" y="152.160202" style="stroke: #000000; stroke-width: 0.8"/>
      </g>
     </g>
     <g id="text_12">
      <!-- 20 -->
      <g transform="translate(20.878125 155.959421) scale(0.1 -0.1)">
       <use xlink:href="#DejaVuSans-32"/>
       <use xlink:href="#DejaVuSans-30" x="63.623047"/>
      </g>
     </g>
    </g>
    <g id="ytick_6">
     <g id="line2d_12">
      <g>
       <use xlink:href="#md9750c1ff1" x="40.603125" y="97.676865" style="stroke: #000000; stroke-width: 0.8"/>
      </g>
     </g>
     <g id="text_13">
      <!-- 25 -->
      <g transform="translate(20.878125 101.476084) scale(0.1 -0.1)">
       <use xlink:href="#DejaVuSans-32"/>
       <use xlink:href="#DejaVuSans-35" x="63.623047"/>
      </g>
     </g>
    </g>
    <g id="ytick_7">
     <g id="line2d_13">
      <g>
       <use xlink:href="#md9750c1ff1" x="40.603125" y="43.193527" style="stroke: #000000; stroke-width: 0.8"/>
      </g>
     </g>
     <g id="text_14">
      <!-- 30 -->
      <g transform="translate(20.878125 46.992746) scale(0.1 -0.1)">
       <use xlink:href="#DejaVuSans-33"/>
       <use xlink:href="#DejaVuSans-30" x="63.623047"/>
      </g>
     </g>
    </g>
    <g id="text_15">
     <!-- x(t) -->
     <g transform="translate(14.798438 215.478281) rotate(-90) scale(0.1 -0.1)">
      <defs>
       <path id="DejaVuSans-78" d="M 3513 3500 
L 2247 1797 
L 3578 0 
L 2900 0 
L 1881 1375 
L 863 0 
L 184 0 
L 1544 1831 
L 300 3500 
L 978 3500 
L 1906 2253 
L 2834 3500 
L 3513 3500 
z
" transform="scale(0.015625)"/>
       <path id="DejaVuSans-28" d="M 1984 4856 
Q 1566 4138 1362 3434 
Q 1159 2731 1159 2009 
Q 1159 1288 1364 580 
Q 1569 -128 1984 -844 
L 1484 -844 
Q 1016 -109 783 600 
Q 550 1309 550 2009 
Q 550 2706 781 3412 
Q 1013 4119 1484 4856 
L 1984 4856 
z
" transform="scale(0.015625)"/>
       <path id="DejaVuSans-29" d="M 513 4856 
L 1013 4856 
Q 1481 4119 1714 3412 
Q 1947 2706 1947 2009 
Q 1947 1309 1714 600 
Q 1481 -109 1013 -844 
L 513 -844 
Q 928 -128 1133 580 
Q 1338 1288 1338 2009 
Q 1338 2731 1133 3434 
Q 928 4138 513 4856 
z
" transform="scale(0.015625)"/>
      </defs>
      <use xlink:href="#DejaVuSans-78"/>
      <use xlink:href="#DejaVuSans-28" x="59.179688"/>
      <use xlink:href="#DejaVuSans-74" x="98.193359"/>
      <use xlink:href="#DejaVuSans-29" x="137.402344"/>
     </g>
    </g>
   </g>
   <g id="line2d_14">
    <path d="M 57.964034 359.196884 
L 58.207087 361.614914 
L 58.380696 361.959761 
L 58.484861 361.815207 
L 58.693192 360.981359 
L 59.179298 357.71147 
L 60.012621 352.469827 
L 60.915389 348.324323 
L 62.09593 343.992488 
L 63.519525 339.623124 
L 65.220894 335.133877 
L 67.165316 330.637224 
L 69.387512 326.065252 
L 71.887483 321.43804 
L 74.665229 316.769241 
L 77.720749 312.068424 
L 81.088765 307.29512 
L 84.769278 302.464493 
L 88.797009 297.546901 
L 93.171958 292.558805 
L 97.894125 287.512914 
L 102.998232 282.385285 
L 108.519001 277.157458 
L 114.42171 271.875632 
L 120.775803 266.490708 
L 127.58128 261.017941 
L 134.83814 255.4699 
L 142.581105 249.832303 
L 150.810176 244.117166 
L 159.560074 238.31204 
L 168.865521 232.40674 
L 178.726518 226.413613 
L 189.177785 220.323377 
L 200.254045 214.128371 
L 211.955298 207.840592 
L 224.316265 201.452812 
L 237.336947 194.975973 
L 251.052065 188.403258 
L 265.496341 181.728942 
L 280.704498 174.948237 
L 296.676534 168.071855 
L 313.447172 161.095034 
L 331.051134 154.013766 
L 349.523141 146.824691 
L 359.141085 143.077909 
L 359.210529 143.035634 
L 359.24525 143.251436 
L 359.349416 142.942108 
L 359.41886 142.889757 
L 359.453581 143.246175 
L 359.523025 143.253536 
L 359.557747 142.77033 
L 359.62719 142.701432 
L 359.661912 143.287234 
L 359.731356 143.315937 
L 359.766078 142.539396 
L 359.835521 142.443237 
L 359.870243 143.404698 
L 359.939687 143.468702 
L 359.974409 142.210888 
L 360.043852 142.069681 
L 360.078574 143.648756 
L 360.148018 143.771422 
L 360.18274 141.720993 
L 360.252183 141.505171 
L 360.286905 144.103552 
L 360.356349 144.324173 
L 360.39107 140.963641 
L 360.460514 140.624096 
L 360.495236 144.910893 
L 360.56468 145.295891 
L 360.599401 139.762927 
L 360.668845 139.218555 
L 360.703567 146.310851 
L 360.77301 146.97287 
L 360.807732 137.829762 
L 360.877176 136.94887 
L 360.911898 148.710288 
L 360.981341 149.839457 
L 361.016063 134.700967 
L 361.085507 133.279372 
L 361.120229 152.79037 
L 361.189672 154.697559 
L 361.224394 129.684244 
L 361.293838 127.444664 
L 361.32856 159.628829 
L 361.398003 162.762884 
L 361.432725 121.941758 
L 361.502169 118.656175 
L 361.53689 170.601659 
L 361.606334 175.336969 
L 361.641056 111.153194 
L 361.7105 107.111085 
L 361.745221 186.144677 
L 361.814665 191.875071 
L 361.849387 99.22424 
L 361.91883 95.758476 
L 361.953552 202.618625 
L 362.022996 207.067796 
L 362.057718 90.464454 
L 362.127161 88.681278 
L 362.161883 213.425395 
L 362.231327 215.427013 
L 362.266049 86.474574 
L 362.335492 85.840313 
L 362.370214 217.794958 
L 362.439658 218.452508 
L 362.47438 85.084254 
L 362.543823 84.853568 
L 362.578545 219.22328 
L 362.647989 219.455933 
L 362.68271 84.532455 
L 362.752154 84.409928 
L 362.786876 219.7784 
L 362.85632 219.901197 
L 362.891041 84.199637 
L 362.960485 84.10379 
L 362.995207 220.111861 
L 363.06465 220.207878 
L 363.099372 83.920591 
L 363.168816 83.831304 
L 363.203538 220.391421 
L 363.272981 220.480885 
L 363.307703 83.654964 
L 363.377147 83.567457 
L 363.411869 220.657585 
L 363.481312 220.745274 
L 363.516034 83.393214 
L 363.585478 83.306373 
L 363.6202 220.919881 
L 363.689643 221.006904 
L 363.724365 83.133122 
L 363.793809 83.046688 
L 363.82853 221.180516 
L 363.897974 221.267129 
L 363.932696 82.874171 
L 364.00214 82.788083 
L 364.036861 221.44 
L 364.106305 221.526264 
L 364.141027 82.616239 
L 364.21047 82.53048 
L 364.245192 221.698458 
L 364.314636 221.784389 
L 364.349358 82.359287 
L 364.418801 82.273851 
L 364.453523 221.955925 
L 364.522967 222.04153 
L 364.557689 82.103299 
L 364.627132 82.018182 
L 364.661854 222.212418 
L 364.731298 222.297702 
L 364.76602 81.848264 
L 364.835463 81.763462 
L 364.870185 222.46795 
L 364.939629 222.552916 
L 364.97435 81.59417 
L 365.043794 81.509679 
L 365.078516 222.722532 
L 365.14796 222.807183 
L 365.182681 81.341006 
L 365.252125 81.256823 
L 365.286847 222.976174 
L 365.35629 223.060515 
L 365.391012 81.088763 
L 365.460456 81.004885 
L 365.495178 223.228888 
L 365.564621 223.312921 
L 365.599343 80.83743 
L 365.668787 80.753852 
L 365.703509 223.480683 
L 365.772952 223.564413 
L 365.807674 80.586997 
L 365.877118 80.503717 
L 365.91184 223.731571 
L 365.981283 223.815 
L 366.016005 80.337454 
L 366.085449 80.254469 
L 366.12017 223.98156 
L 366.189614 224.064692 
L 366.224336 80.088791 
L 366.29378 80.006098 
L 366.328501 224.23066 
L 366.397945 224.313498 
L 366.432667 79.841 
L 366.50211 79.758595 
L 366.536832 224.478882 
L 366.606276 224.561429 
L 366.640998 79.594071 
L 366.710441 79.511951 
L 366.745163 224.726235 
L 366.814607 224.808494 
L 366.849329 79.347995 
L 366.918772 79.266157 
L 366.953494 224.972728 
L 367.022938 225.054702 
L 367.05766 79.102762 
L 367.127103 79.021204 
L 367.161825 225.218369 
L 367.231269 225.300062 
L 367.26599 78.858365 
L 367.335434 78.777083 
L 367.370156 225.463169 
L 367.4396 225.544583 
L 367.474321 78.614794 
L 367.543765 78.533786 
L 367.578487 225.707135 
L 367.64793 225.788274 
L 367.682652 78.372041 
L 367.752096 78.291304 
L 367.786818 225.950277 
L 367.856261 226.031143 
L 367.890983 78.130098 
L 367.960427 78.049628 
L 367.995149 226.192603 
L 368.064592 226.273199 
L 368.099314 77.888956 
L 368.168758 77.808752 
L 368.20348 226.434121 
L 368.272923 226.514449 
L 368.307645 77.648607 
L 368.377089 77.568666 
L 368.41181 226.67484 
L 368.481254 226.754903 
L 368.515976 77.409044 
L 368.58542 77.329363 
L 368.620141 226.914767 
L 368.689585 226.994568 
L 368.724307 77.170259 
L 368.79375 77.090835 
L 368.828472 227.15391 
L 368.897916 227.233452 
L 368.932638 76.932244 
L 369.002081 76.853075 
L 369.036803 227.392277 
L 369.106247 227.471562 
L 369.140969 76.694991 
L 369.210412 76.616075 
L 369.245134 227.629877 
L 369.314578 227.708907 
L 369.3493 76.458493 
L 369.418743 76.379827 
L 369.453465 227.866715 
L 369.522909 227.945494 
L 369.55763 76.222744 
L 369.627074 76.144325 
L 369.661796 228.102801 
L 369.73124 228.18133 
L 369.765961 75.987735 
L 369.835405 75.909562 
L 369.870127 228.33814 
L 369.93957 228.416422 
L 369.974292 75.753459 
L 370.043736 75.675529 
L 370.078458 228.572741 
L 370.147901 228.650778 
L 370.182623 75.51991 
L 370.252067 75.442221 
L 370.286789 228.806609 
L 370.356232 228.884404 
L 370.390954 75.287081 
L 370.460398 75.209631 
L 370.49512 229.039753 
L 370.564563 229.117308 
L 370.599285 75.054966 
L 370.668729 74.977751 
L 370.70345 229.272179 
L 370.772894 229.349496 
L 370.807616 74.823557 
L 370.87706 74.746576 
L 370.911781 229.503894 
L 370.981225 229.580975 
L 371.015947 74.592848 
L 371.08539 74.516099 
L 371.120112 229.734903 
L 371.189556 229.811751 
L 371.224278 74.362832 
L 371.293721 74.286313 
L 371.328443 229.965215 
L 371.397887 230.041831 
L 371.432609 74.133504 
L 371.502052 74.057213 
L 371.536774 230.194835 
L 371.606218 230.271222 
L 371.64094 73.904857 
L 371.710383 73.828792 
L 371.745105 230.423769 
L 371.814549 230.499929 
L 371.84927 73.676885 
L 371.918714 73.601043 
L 371.953436 230.652023 
L 372.02288 230.727958 
L 372.057601 73.449582 
L 372.127045 73.373962 
L 372.161767 230.879605 
L 372.23121 230.955317 
L 372.265932 73.222942 
L 372.335376 73.147541 
L 372.370098 231.106519 
L 372.439541 231.18201 
L 372.474263 72.996959 
L 372.543707 72.921776 
L 372.578429 231.332773 
L 372.647872 231.408044 
L 372.682594 72.771627 
L 372.752038 72.696661 
L 372.78676 231.55837 
L 372.856203 231.633425 
L 372.890925 72.546942 
L 372.960369 72.472189 
L 372.99509 231.783318 
L 373.064534 231.858157 
L 373.099256 72.322896 
L 373.1687 72.248356 
L 373.203421 232.007622 
L 373.272865 232.082248 
L 373.307587 72.099485 
L 373.37703 72.025155 
L 373.411752 232.231288 
L 373.481196 232.305702 
L 373.515918 71.876704 
L 373.585361 71.802582 
L 373.620083 232.45432 
L 373.689527 232.528525 
L 373.724249 71.654546 
L 373.793692 71.580631 
L 373.828414 232.676725 
L 373.897858 232.750722 
L 373.93258 71.433007 
L 374.002023 71.359297 
L 374.036745 232.898508 
L 374.106189 232.972299 
L 374.14091 71.212081 
L 374.210354 71.138574 
L 374.245076 233.119674 
L 374.31452 233.19326 
L 374.349241 70.991763 
L 374.418685 70.918458 
L 374.453407 233.340229 
L 374.52285 233.413612 
L 374.557572 70.772049 
L 374.627016 70.698944 
L 374.661738 233.560177 
L 374.731181 233.633359 
L 374.765903 70.552933 
L 374.835347 70.480026 
L 374.870069 233.779523 
L 374.939512 233.852505 
L 374.974234 70.33441 
L 375.043678 70.2617 
L 375.0784 233.998273 
L 375.147843 234.071057 
L 375.182565 70.116476 
L 375.252009 70.043961 
L 375.28673 234.216431 
L 375.356174 234.289019 
L 375.390896 69.899125 
L 375.46034 69.826803 
L 375.495061 234.434002 
L 375.564505 234.506396 
L 375.599227 69.682353 
L 375.66867 69.610224 
L 375.703392 234.650991 
L 375.772836 234.723192 
L 375.807558 69.466155 
L 375.877001 69.394216 
L 375.911723 234.867403 
L 375.981167 234.939413 
L 376.015889 69.250528 
L 376.085332 69.178778 
L 376.120054 235.083242 
L 376.189498 235.155062 
L 376.22422 69.035465 
L 376.293663 68.963902 
L 376.328385 235.298513 
L 376.397829 235.370145 
L 376.43255 68.820963 
L 376.501994 68.749586 
L 376.536716 235.513221 
L 376.60616 235.584666 
L 376.640881 68.607017 
L 376.710325 68.535825 
L 376.745047 235.727369 
L 376.81449 235.798629 
L 376.849212 68.393624 
L 376.918656 68.322614 
L 376.953378 235.940963 
L 377.022821 236.012038 
L 377.057543 68.180778 
L 377.126987 68.10995 
L 377.161709 236.154006 
L 377.231152 236.224899 
L 377.265874 67.968475 
L 377.335318 67.897827 
L 377.37004 236.366504 
L 377.439483 236.437215 
L 377.474205 67.756712 
L 377.543649 67.686243 
L 377.57837 236.578459 
L 377.647814 236.648991 
L 377.682536 67.545483 
L 377.75198 67.475192 
L 377.786701 236.789877 
L 377.856145 236.86023 
L 377.890867 67.334786 
L 377.96031 67.264671 
L 377.995032 237.000761 
L 378.064476 237.070938 
L 378.099198 67.124616 
L 378.168641 67.054675 
L 378.203363 237.211115 
L 378.272807 237.281117 
L 378.307529 66.914968 
L 378.376972 66.845201 
L 378.411694 237.420945 
L 378.481138 237.490772 
L 378.51586 66.70584 
L 378.585303 66.636245 
L 378.620025 237.630252 
L 378.689469 237.699906 
L 378.72419 66.497227 
L 378.793634 66.427803 
L 378.828356 237.839042 
L 378.8978 237.908525 
L 378.932521 66.289125 
L 379.001965 66.219871 
L 379.036687 238.047319 
L 379.10613 238.116631 
L 379.140852 66.081531 
L 379.210296 66.012446 
L 379.245018 238.255085 
L 379.314461 238.324228 
L 379.349183 65.874441 
L 379.418627 65.805523 
L 379.453349 238.462345 
L 379.522792 238.53132 
L 379.557514 65.667851 
L 379.626958 65.599099 
L 379.66168 238.669103 
L 379.731123 238.737911 
L 379.765845 65.461758 
L 379.835289 65.39317 
L 379.87001 238.875362 
L 379.939454 238.944005 
L 379.974176 65.256158 
L 380.04362 65.187733 
L 380.078341 239.081126 
L 380.147785 239.149605 
L 380.182507 65.051047 
L 380.25195 64.982785 
L 380.286672 239.286399 
L 380.356116 239.354714 
L 380.390838 64.846422 
L 380.460281 64.778321 
L 380.495003 239.491183 
L 380.564447 239.559337 
L 380.599169 64.642279 
L 380.668612 64.574338 
L 380.703334 239.695483 
L 380.772778 239.763476 
L 380.8075 64.438615 
L 380.876943 64.370833 
L 380.911665 239.899302 
L 380.981109 239.967135 
L 381.01583 64.235427 
L 381.085274 64.167803 
L 381.119996 240.102643 
L 381.18944 240.170318 
L 381.224161 64.032712 
L 381.293605 63.965244 
L 381.328327 240.30551 
L 381.39777 240.373028 
L 381.432492 63.830465 
L 381.501936 63.763153 
L 381.536658 240.507907 
L 381.606101 240.575268 
L 381.640823 63.628684 
L 381.710267 63.561526 
L 381.744989 240.709835 
L 381.814432 240.777041 
L 381.849154 63.427365 
L 381.918598 63.360361 
L 381.95332 240.911299 
L 382.022763 240.978352 
L 382.057485 63.226506 
L 382.126929 63.159654 
L 382.16165 241.112303 
L 382.231094 241.179202 
L 382.265816 63.026103 
L 382.33526 62.959402 
L 382.369981 241.312848 
L 382.439425 241.379595 
L 382.474147 62.826153 
L 382.54359 62.759603 
L 382.578312 241.512938 
L 382.647756 241.579535 
L 382.682478 62.626652 
L 382.751921 62.560252 
L 382.786643 241.712577 
L 382.856087 241.779023 
L 382.890809 62.427599 
L 382.960252 62.361347 
L 382.994974 241.911767 
L 383.064418 241.978065 
L 383.09914 62.228989 
L 383.168583 62.162884 
L 383.203305 242.110512 
L 383.272749 242.176661 
L 383.30747 62.030821 
L 383.376914 61.964862 
L 383.411636 242.308814 
L 383.48108 242.374817 
L 383.515801 61.83309 
L 383.585245 61.767277 
L 383.619967 242.506676 
L 383.68941 242.572533 
L 383.724132 61.635794 
L 383.793576 61.570125 
L 383.828298 242.704102 
L 383.897741 242.769814 
L 383.932463 61.438931 
L 384.001907 61.373405 
L 384.036629 242.901094 
L 384.106072 242.966662 
L 384.140794 61.242497 
L 384.210238 61.177114 
L 384.24496 243.097655 
L 384.314403 243.16308 
L 384.349125 61.046489 
L 384.418569 60.981247 
L 384.45329 243.293788 
L 384.522734 243.359071 
L 384.557456 60.850905 
L 384.6269 60.785804 
L 384.661621 243.489496 
L 384.731065 243.554638 
L 384.765787 60.655742 
L 384.83523 60.590781 
L 384.869952 243.684782 
L 384.939396 243.749783 
L 384.974118 60.460997 
L 385.043561 60.396174 
L 385.078283 243.879648 
L 385.147727 243.94451 
L 385.182449 60.266668 
L 385.251892 60.201983 
L 385.286614 244.074096 
L 385.356058 244.13882 
L 385.39078 60.072751 
L 385.460223 60.008204 
L 385.494945 244.268131 
L 385.564389 244.332717 
L 385.59911 59.879245 
L 385.668554 59.814833 
L 385.703276 244.461754 
L 385.77272 244.526204 
L 385.807441 59.686146 
L 385.876885 59.62187 
L 385.911607 244.654968 
L 385.98105 244.719282 
L 386.015772 59.493452 
L 386.085216 59.429311 
L 386.119938 244.847775 
L 386.189381 244.911954 
L 386.224103 59.301161 
L 386.293547 59.237153 
L 386.328269 245.040179 
L 386.397712 245.104224 
L 386.432434 59.10927 
L 386.501878 59.045394 
L 386.5366 245.232181 
L 386.606043 245.296093 
L 386.640765 58.917776 
L 386.710209 58.854033 
L 386.74493 245.423785 
L 386.814374 245.487564 
L 386.849096 58.726677 
L 386.91854 58.663065 
L 386.953261 245.614992 
L 387.022705 245.67864 
L 387.057427 58.535971 
L 387.12687 58.472489 
L 387.161592 245.805806 
L 387.231036 245.869323 
L 387.265758 58.345654 
L 387.335201 58.282302 
L 387.369923 245.996228 
L 387.439367 246.059616 
L 387.474089 58.155726 
L 387.543532 58.092502 
L 387.578254 246.186261 
L 387.647698 246.24952 
L 387.68242 57.966182 
L 387.751863 57.903086 
L 387.786585 246.375908 
L 387.856029 246.439038 
L 387.89075 57.777022 
L 387.960194 57.714053 
L 387.994916 246.565171 
L 388.06436 246.628173 
L 388.099081 57.588242 
L 388.168525 57.5254 
L 388.203247 246.754052 
L 388.27269 246.816927 
L 388.307412 57.399841 
L 388.376856 57.337124 
L 388.411578 246.942553 
L 388.481021 247.005303 
L 388.515743 57.211815 
L 388.585187 57.149223 
L 388.619909 247.130677 
L 388.689352 247.193302 
L 388.724074 57.024164 
L 388.793518 56.961696 
L 388.82824 247.318426 
L 388.897683 247.380926 
L 388.932405 56.836884 
L 389.001849 56.774539 
L 389.03657 247.505803 
L 389.106014 247.568179 
L 389.140736 56.649973 
L 389.21018 56.587751 
L 389.244901 247.692809 
L 389.314345 247.755062 
L 389.349067 56.463429 
L 389.41851 56.401329 
L 389.453232 247.879446 
L 389.522676 247.941578 
L 389.557398 56.277251 
L 389.626841 56.215272 
L 389.661563 248.065718 
L 389.731007 248.127728 
L 389.765729 56.091435 
L 389.835172 56.029577 
L 389.869894 248.251626 
L 389.939338 248.313515 
L 389.97406 55.90598 
L 390.043503 55.844241 
L 390.078225 248.437172 
L 390.147669 248.498941 
L 390.18239 55.720883 
L 390.251834 55.659264 
L 390.286556 248.622358 
L 390.356 248.684008 
L 390.390721 55.536144 
L 390.460165 55.474642 
L 390.494887 248.807187 
L 390.56433 248.868718 
L 390.599052 55.351758 
L 390.668496 55.290375 
L 390.703218 248.99166 
L 390.772661 249.053073 
L 390.807383 55.167725 
L 390.876827 55.106459 
L 390.911549 249.17578 
L 390.980992 249.237076 
L 391.015714 54.984042 
L 391.085158 54.922892 
L 391.11988 249.359549 
L 391.189323 249.420727 
L 391.224045 54.800708 
L 391.293489 54.739674 
L 391.32821 249.542968 
L 391.397654 249.604031 
L 391.432376 54.61772 
L 391.50182 54.556801 
L 391.536541 249.72604 
L 391.605985 249.786987 
L 391.640707 54.435077 
L 391.71015 54.374272 
L 391.744872 249.908766 
L 391.814316 249.969599 
L 391.849038 54.252776 
L 391.918481 54.192085 
L 391.953203 250.091149 
L 392.022647 250.151868 
L 392.057369 54.070816 
L 392.126812 54.010237 
L 392.161534 250.273191 
L 392.230978 250.333796 
L 392.2657 53.889194 
L 392.335143 53.828728 
L 392.369865 250.454893 
L 392.439309 250.515385 
L 392.47403 53.707909 
L 392.543474 53.647555 
L 392.578196 250.636257 
L 392.64764 250.696637 
L 392.682361 53.526959 
L 392.751805 53.466716 
L 392.786527 250.817286 
L 392.85597 250.877555 
L 392.890692 53.346342 
L 392.960136 53.28621 
L 392.994858 250.997981 
L 393.064301 251.058138 
L 393.099023 53.166056 
L 393.168467 53.106034 
L 393.203189 251.178343 
L 393.272632 251.238391 
L 393.307354 52.986099 
L 393.376798 52.926186 
L 393.41152 251.358376 
L 393.480963 251.418314 
L 393.515685 52.80647 
L 393.585129 52.746666 
L 393.61985 251.53808 
L 393.689294 251.597909 
L 393.724016 52.627167 
L 393.79346 52.567471 
L 393.828181 251.717457 
L 393.897625 251.777178 
L 393.932347 52.448187 
L 394.00179 52.388599 
L 394.036512 251.89651 
L 394.105956 251.956123 
L 394.140678 52.26953 
L 394.210121 52.210049 
L 394.244843 252.07524 
L 394.314287 252.134745 
L 394.349009 52.091193 
L 394.418452 52.031819 
L 394.453174 252.253648 
L 394.522618 252.313047 
L 394.55734 51.913176 
L 394.626783 51.853907 
L 394.661505 252.431737 
L 394.730949 252.491029 
L 394.76567 51.735475 
L 394.835114 51.676311 
L 394.869836 252.609508 
L 394.93928 252.668695 
L 394.974001 51.558089 
L 395.043445 51.49903 
L 395.078167 252.786963 
L 395.14761 252.846045 
L 395.182332 51.381017 
L 395.251776 51.322063 
L 395.286498 252.964104 
L 395.355941 253.023081 
L 395.390663 51.204257 
L 395.460107 51.145406 
L 395.494829 253.140932 
L 395.564272 253.199805 
L 395.598994 51.027808 
L 395.668438 50.96906 
L 395.70316 253.317448 
L 395.772603 253.376218 
L 395.807325 50.851667 
L 395.876769 50.793022 
L 395.91149 253.493656 
L 395.980934 253.552323 
L 396.015656 50.675833 
L 396.0851 50.61729 
L 396.119821 253.669555 
L 396.189265 253.72812 
L 396.223987 50.500305 
L 396.29343 50.441863 
L 396.328152 253.845148 
L 396.397596 253.903612 
L 396.432318 50.32508 
L 396.501761 50.266739 
L 396.536483 254.020437 
L 396.605927 254.078799 
L 396.640649 50.150158 
L 396.710092 50.091918 
L 396.744814 254.195423 
L 396.814258 254.253684 
L 396.84898 49.975537 
L 396.918423 49.917396 
L 396.953145 254.370107 
L 397.022589 254.428268 
L 397.05731 49.801214 
L 397.126754 49.743173 
L 397.161476 254.544492 
L 397.23092 254.602553 
L 397.265641 49.62719 
L 397.335085 49.569248 
L 397.369807 254.718578 
L 397.43925 254.77654 
L 397.473972 49.453461 
L 397.543416 49.395617 
L 397.578138 254.892367 
L 397.647581 254.950231 
L 397.682303 49.280027 
L 397.751747 49.222281 
L 397.786469 255.065861 
L 397.855912 255.123627 
L 397.890634 49.106887 
L 397.960078 49.049238 
L 397.9948 255.239061 
L 398.064243 255.29673 
L 398.098965 48.934037 
L 398.168409 48.876486 
L 398.20313 255.41197 
L 398.272574 255.469541 
L 398.307296 48.761478 
L 398.37674 48.704023 
L 398.411461 255.584587 
L 398.480905 255.642062 
L 398.515627 48.589208 
L 398.58507 48.531848 
L 398.619792 255.756915 
L 398.689236 255.814294 
L 398.723958 48.417225 
L 398.793401 48.359961 
L 398.828123 255.928955 
L 398.897567 255.986238 
L 398.932289 48.245528 
L 399.001732 48.188358 
L 399.036454 256.100709 
L 399.105898 256.157897 
L 399.14062 48.074115 
L 399.210063 48.01704 
L 399.244785 256.272178 
L 399.314229 256.329271 
L 399.34895 47.902984 
L 399.418394 47.846004 
L 399.453116 256.443363 
L 399.52256 256.500362 
L 399.557281 47.732136 
L 399.626725 47.675249 
L 399.661447 256.614266 
L 399.73089 256.671171 
L 399.765612 47.561568 
L 399.835056 47.504773 
L 399.869778 256.784888 
L 399.939221 256.8417 
L 399.973943 47.391278 
L 400.043387 47.334576 
L 400.078109 256.955232 
L 400.147552 257.011951 
L 400.182274 47.221266 
L 400.251718 47.164656 
L 400.28644 257.125297 
L 400.355883 257.181923 
L 400.390605 47.05153 
L 400.460049 46.995012 
L 400.49477 257.295085 
L 400.564214 257.35162 
L 400.598936 46.882068 
L 400.66838 46.825642 
L 400.703101 257.464598 
L 400.772545 257.521042 
L 400.807267 46.71288 
L 400.87671 46.656545 
L 400.911432 257.633838 
L 400.980876 257.69019 
L 401.015598 46.543964 
L 401.085041 46.487719 
L 401.119763 257.802804 
L 401.189207 257.859066 
L 401.223929 46.375319 
L 401.293372 46.319164 
L 401.328094 257.9715 
L 401.397538 258.027672 
L 401.43226 46.206943 
L 401.501703 46.150877 
L 401.536425 258.139925 
L 401.605869 258.196007 
L 401.64059 46.038835 
L 401.710034 45.982859 
L 401.744756 258.308082 
L 401.8142 258.364075 
L 401.848921 45.870994 
L 401.918365 45.815106 
L 401.953087 258.475972 
L 402.02253 258.531876 
L 402.057252 45.703419 
L 402.126696 45.647619 
L 402.161418 258.643595 
L 402.230861 258.69941 
L 402.265583 45.536108 
L 402.335027 45.480396 
L 402.369749 258.810953 
L 402.439192 258.866681 
L 402.473914 45.36906 
L 402.543358 45.313435 
L 402.57808 258.978048 
L 402.647523 259.033688 
L 402.682245 45.202274 
L 402.751689 45.146736 
L 402.78641 259.144881 
L 402.855854 259.200434 
L 402.890576 45.035748 
L 402.96002 44.980297 
L 402.994741 259.311453 
L 403.064185 259.366919 
L 403.098907 44.869482 
L 403.16835 44.814118 
L 403.203072 259.477764 
L 403.272516 259.533144 
L 403.307238 44.703474 
L 403.376681 44.648195 
L 403.411403 259.643817 
L 403.480847 259.699111 
L 403.515569 44.537723 
L 403.585012 44.48253 
L 403.619734 259.809613 
L 403.689178 259.864821 
L 403.7239 44.372228 
L 403.793343 44.317119 
L 403.828065 259.975152 
L 403.897509 260.030276 
L 403.93223 44.206987 
L 404.001674 44.151963 
L 404.036396 260.140437 
L 404.10584 260.195475 
L 404.140561 44.042 
L 404.210005 43.98706 
L 404.244727 260.305467 
L 404.31417 260.360421 
L 404.348892 43.877265 
L 404.418336 43.822409 
L 404.453058 260.470245 
L 404.522501 260.525115 
L 404.557223 43.712781 
L 404.626667 43.658008 
L 404.661389 260.634771 
L 404.730832 260.689558 
L 404.765554 43.548547 
L 404.834998 43.493857 
L 404.86972 260.799047 
L 404.939163 260.853751 
L 404.973885 43.384561 
L 405.043329 43.329955 
L 405.07805 260.963074 
L 405.182216 43.220824 
L 405.147494 261.017694 
L 405.182216 43.220824 
" clip-path="url(#p7928b7e135)" style="fill: none; stroke: #d62728; stroke-width: 1.5; stroke-linecap: square"/>
   </g>
   <g id="line2d_15">
    <path d="M 57.964034 370.093551 
L 58.137643 364.645217 
L 58.554305 360.04732 
L 59.179298 355.678615 
L 60.047343 351.219969 
L 61.12372 346.850165 
L 62.443149 342.419448 
L 64.00563 337.953 
L 65.811165 333.463888 
L 67.894474 328.887432 
L 70.220836 324.314577 
L 72.824972 319.685421 
L 75.741605 314.96029 
L 78.936012 310.211431 
L 82.442916 305.398173 
L 86.262316 300.533883 
L 90.428934 295.588708 
L 94.94277 290.577738 
L 99.838547 285.477578 
L 105.116263 280.303424 
L 110.77592 275.067363 
L 116.852238 269.749502 
L 123.37994 264.33411 
L 130.359025 258.835428 
L 137.824216 253.239811 
L 145.775512 247.560538 
L 154.212914 241.808718 
L 163.205865 235.949423 
L 172.754365 229.996135 
L 182.858414 223.960343 
L 193.552734 217.832362 
L 204.872047 211.604154 
L 216.851074 205.269074 
L 229.489816 198.838979 
L 242.788272 192.324181 
L 256.815887 185.701459 
L 271.57266 178.982033 
L 287.093312 172.160753 
L 303.412567 165.233305 
L 320.530423 158.210101 
L 338.481603 151.0868 
L 357.300829 143.859735 
L 377.022821 136.525829 
L 397.647581 129.094837 
L 405.182216 126.43666 
L 405.182216 126.43666 
" clip-path="url(#p7928b7e135)" style="fill: none; stroke-dasharray: 5.55,2.4; stroke-dashoffset: 0; stroke: #000000; stroke-width: 1.5"/>
   </g>
   <g id="patch_3">
    <path d="M 40.603125 386.437187 
L 40.603125 26.877187 
" style="fill: none; stroke: #000000; stroke-width: 0.8; stroke-linejoin: miter; stroke-linecap: square"/>
   </g>
   <g id="patch_4">
    <path d="M 422.543125 386.437187 
L 422.543125 26.877187 
" style="fill: none; stroke: #000000; stroke-width: 0.8; stroke-linejoin: miter; stroke-linecap: square"/>
   </g>
   <g id="patch_5">
    <path d="M 40.603125 386.437187 
L 422.543125 386.437187 
" style="fill: none; stroke: #000000; stroke-width: 0.8; stroke-linejoin: miter; stroke-linecap: square"/>
   </g>
   <g id="patch_6">
    <path d="M 40.603125 26.877187 
L 422.543125 26.877187 
" style="fill: none; stroke: #000000; stroke-width: 0.8; stroke-linejoin: miter; stroke-linecap: square"/>
   </g>
   <g id="text_16">
    <!-- (a) -->
    <g transform="translate(219.035 20.877187) scale(0.18 -0.18)">
     <defs>
      <path id="DejaVuSans-61" d="M 2194 1759 
Q 1497 1759 1228 1600 
Q 959 1441 959 1056 
Q 959 750 1161 570 
Q 1363 391 1709 391 
Q 2188 391 2477 730 
Q 2766 1069 2766 1631 
L 2766 1759 
L 2194 1759 
z
M 3341 1997 
L 3341 0 
L 2766 0 
L 2766 531 
Q 2569 213 2275 61 
Q 1981 -91 1556 -91 
Q 1019 -91 701 211 
Q 384 513 384 1019 
Q 384 1609 779 1909 
Q 1175 2209 1959 2209 
L 2766 2209 
L 2766 2266 
Q 2766 2663 2505 2880 
Q 2244 3097 1772 3097 
Q 1472 3097 1187 3025 
Q 903 2953 641 2809 
L 641 3341 
Q 956 3463 1253 3523 
Q 1550 3584 1831 3584 
Q 2591 3584 2966 3190 
Q 3341 2797 3341 1997 
z
" transform="scale(0.015625)"/>
     </defs>
     <use xlink:href="#DejaVuSans-28"/>
     <use xlink:href="#DejaVuSans-61" x="39.013672"/>
     <use xlink:href="#DejaVuSans-29" x="100.292969"/>
    </g>
   </g>
   <g id="legend_1">
    <g id="patch_7">
     <path d="M 49.003125 71.704687 
L 211.003125 71.704687 
Q 213.403125 71.704687 213.403125 69.304687 
L 213.403125 35.277187 
Q 213.403125 32.877187 211.003125 32.877187 
L 49.003125 32.877187 
Q 46.603125 32.877187 46.603125 35.277187 
L 46.603125 69.304687 
Q 46.603125 71.704687 49.003125 71.704687 
z
" style="fill: #ffffff; opacity: 0.8; stroke: #cccccc; stroke-linejoin: miter"/>
    </g>
    <g id="line2d_16">
     <path d="M 51.403125 42.595312 
L 63.403125 42.595312 
L 75.403125 42.595312 
" style="fill: none; stroke: #d62728; stroke-width: 1.5; stroke-linecap: square"/>
    </g>
    <g id="text_17">
     <!-- $t_{max}$ = 500, h = 0.05 -->
     <g transform="translate(85.003125 46.795312) scale(0.12 -0.12)">
      <defs>
       <path id="DejaVuSans-Oblique-74" d="M 2706 3500 
L 2619 3053 
L 1472 3053 
L 1100 1153 
Q 1081 1047 1072 975 
Q 1063 903 1063 863 
Q 1063 663 1183 572 
Q 1303 481 1569 481 
L 2150 481 
L 2053 0 
L 1503 0 
Q 991 0 739 200 
Q 488 400 488 806 
Q 488 878 497 964 
Q 506 1050 525 1153 
L 897 3053 
L 409 3053 
L 500 3500 
L 978 3500 
L 1172 4494 
L 1747 4494 
L 1556 3500 
L 2706 3500 
z
" transform="scale(0.015625)"/>
       <path id="DejaVuSans-Oblique-6d" d="M 5747 2113 
L 5338 0 
L 4763 0 
L 5166 2094 
Q 5191 2228 5203 2325 
Q 5216 2422 5216 2491 
Q 5216 2772 5059 2928 
Q 4903 3084 4622 3084 
Q 4203 3084 3875 2770 
Q 3547 2456 3450 1953 
L 3066 0 
L 2491 0 
L 2900 2094 
Q 2925 2209 2937 2307 
Q 2950 2406 2950 2484 
Q 2950 2769 2794 2926 
Q 2638 3084 2363 3084 
Q 1938 3084 1609 2770 
Q 1281 2456 1184 1953 
L 800 0 
L 225 0 
L 909 3500 
L 1484 3500 
L 1375 2956 
Q 1609 3263 1923 3423 
Q 2238 3584 2597 3584 
Q 2978 3584 3223 3384 
Q 3469 3184 3519 2828 
Q 3781 3197 4126 3390 
Q 4472 3584 4856 3584 
Q 5306 3584 5551 3325 
Q 5797 3066 5797 2591 
Q 5797 2488 5784 2364 
Q 5772 2241 5747 2113 
z
" transform="scale(0.015625)"/>
       <path id="DejaVuSans-Oblique-61" d="M 3438 1997 
L 3047 0 
L 2472 0 
L 2578 531 
Q 2325 219 2001 64 
Q 1678 -91 1281 -91 
Q 834 -91 548 182 
Q 263 456 263 884 
Q 263 1497 752 1853 
Q 1241 2209 2100 2209 
L 2900 2209 
L 2931 2363 
Q 2938 2388 2941 2417 
Q 2944 2447 2944 2509 
Q 2944 2788 2717 2942 
Q 2491 3097 2081 3097 
Q 1800 3097 1504 3025 
Q 1209 2953 897 2809 
L 997 3341 
Q 1322 3463 1633 3523 
Q 1944 3584 2234 3584 
Q 2853 3584 3176 3315 
Q 3500 3047 3500 2534 
Q 3500 2431 3484 2292 
Q 3469 2153 3438 1997 
z
M 2816 1759 
L 2241 1759 
Q 1534 1759 1195 1570 
Q 856 1381 856 984 
Q 856 709 1029 553 
Q 1203 397 1509 397 
Q 1978 397 2328 733 
Q 2678 1069 2791 1631 
L 2816 1759 
z
" transform="scale(0.015625)"/>
       <path id="DejaVuSans-Oblique-78" d="M 3841 3500 
L 2234 1784 
L 3219 0 
L 2559 0 
L 1819 1388 
L 531 0 
L -166 0 
L 1556 1844 
L 641 3500 
L 1300 3500 
L 1972 2234 
L 3144 3500 
L 3841 3500 
z
" transform="scale(0.015625)"/>
       <path id="DejaVuSans-20" transform="scale(0.015625)"/>
       <path id="DejaVuSans-3d" d="M 678 2906 
L 4684 2906 
L 4684 2381 
L 678 2381 
L 678 2906 
z
M 678 1631 
L 4684 1631 
L 4684 1100 
L 678 1100 
L 678 1631 
z
" transform="scale(0.015625)"/>
       <path id="DejaVuSans-2c" d="M 750 794 
L 1409 794 
L 1409 256 
L 897 -744 
L 494 -744 
L 750 256 
L 750 794 
z
" transform="scale(0.015625)"/>
       <path id="DejaVuSans-68" d="M 3513 2113 
L 3513 0 
L 2938 0 
L 2938 2094 
Q 2938 2591 2744 2837 
Q 2550 3084 2163 3084 
Q 1697 3084 1428 2787 
Q 1159 2491 1159 1978 
L 1159 0 
L 581 0 
L 581 4863 
L 1159 4863 
L 1159 2956 
Q 1366 3272 1645 3428 
Q 1925 3584 2291 3584 
Q 2894 3584 3203 3211 
Q 3513 2838 3513 2113 
z
" transform="scale(0.015625)"/>
       <path id="DejaVuSans-2e" d="M 684 794 
L 1344 794 
L 1344 0 
L 684 0 
L 684 794 
z
" transform="scale(0.015625)"/>
      </defs>
      <use xlink:href="#DejaVuSans-Oblique-74" transform="translate(0 0.015625)"/>
      <use xlink:href="#DejaVuSans-Oblique-6d" transform="translate(39.208984 -16.390625) scale(0.7)"/>
      <use xlink:href="#DejaVuSans-Oblique-61" transform="translate(107.397461 -16.390625) scale(0.7)"/>
      <use xlink:href="#DejaVuSans-Oblique-78" transform="translate(150.292969 -16.390625) scale(0.7)"/>
      <use xlink:href="#DejaVuSans-20" transform="translate(194.453125 0.015625)"/>
      <use xlink:href="#DejaVuSans-3d" transform="translate(226.240234 0.015625)"/>
      <use xlink:href="#DejaVuSans-20" transform="translate(310.029297 0.015625)"/>
      <use xlink:href="#DejaVuSans-35" transform="translate(341.816406 0.015625)"/>
      <use xlink:href="#DejaVuSans-30" transform="translate(405.439453 0.015625)"/>
      <use xlink:href="#DejaVuSans-30" transform="translate(469.0625 0.015625)"/>
      <use xlink:href="#DejaVuSans-2c" transform="translate(532.685547 0.015625)"/>
      <use xlink:href="#DejaVuSans-20" transform="translate(564.472656 0.015625)"/>
      <use xlink:href="#DejaVuSans-68" transform="translate(596.259766 0.015625)"/>
      <use xlink:href="#DejaVuSans-20" transform="translate(659.638672 0.015625)"/>
      <use xlink:href="#DejaVuSans-3d" transform="translate(691.425781 0.015625)"/>
      <use xlink:href="#DejaVuSans-20" transform="translate(775.214844 0.015625)"/>
      <use xlink:href="#DejaVuSans-30" transform="translate(807.001953 0.015625)"/>
      <use xlink:href="#DejaVuSans-2e" transform="translate(870.625 0.015625)"/>
      <use xlink:href="#DejaVuSans-30" transform="translate(902.412109 0.015625)"/>
      <use xlink:href="#DejaVuSans-35" transform="translate(966.035156 0.015625)"/>
     </g>
    </g>
    <g id="line2d_17">
     <path d="M 51.403125 60.209062 
L 63.403125 60.209062 
L 75.403125 60.209062 
" style="fill: none; stroke-dasharray: 5.55,2.4; stroke-dashoffset: 0; stroke: #000000; stroke-width: 1.5"/>
    </g>
    <g id="text_18">
     <!-- x = sqrt(t) -->
     <g transform="translate(85.003125 64.409062) scale(0.12 -0.12)">
      <defs>
       <path id="DejaVuSans-73" d="M 2834 3397 
L 2834 2853 
Q 2591 2978 2328 3040 
Q 2066 3103 1784 3103 
Q 1356 3103 1142 2972 
Q 928 2841 928 2578 
Q 928 2378 1081 2264 
Q 1234 2150 1697 2047 
L 1894 2003 
Q 2506 1872 2764 1633 
Q 3022 1394 3022 966 
Q 3022 478 2636 193 
Q 2250 -91 1575 -91 
Q 1294 -91 989 -36 
Q 684 19 347 128 
L 347 722 
Q 666 556 975 473 
Q 1284 391 1588 391 
Q 1994 391 2212 530 
Q 2431 669 2431 922 
Q 2431 1156 2273 1281 
Q 2116 1406 1581 1522 
L 1381 1569 
Q 847 1681 609 1914 
Q 372 2147 372 2553 
Q 372 3047 722 3315 
Q 1072 3584 1716 3584 
Q 2034 3584 2315 3537 
Q 2597 3491 2834 3397 
z
" transform="scale(0.015625)"/>
       <path id="DejaVuSans-71" d="M 947 1747 
Q 947 1113 1208 752 
Q 1469 391 1925 391 
Q 2381 391 2643 752 
Q 2906 1113 2906 1747 
Q 2906 2381 2643 2742 
Q 2381 3103 1925 3103 
Q 1469 3103 1208 2742 
Q 947 2381 947 1747 
z
M 2906 525 
Q 2725 213 2448 61 
Q 2172 -91 1784 -91 
Q 1150 -91 751 415 
Q 353 922 353 1747 
Q 353 2572 751 3078 
Q 1150 3584 1784 3584 
Q 2172 3584 2448 3432 
Q 2725 3281 2906 2969 
L 2906 3500 
L 3481 3500 
L 3481 -1331 
L 2906 -1331 
L 2906 525 
z
" transform="scale(0.015625)"/>
       <path id="DejaVuSans-72" d="M 2631 2963 
Q 2534 3019 2420 3045 
Q 2306 3072 2169 3072 
Q 1681 3072 1420 2755 
Q 1159 2438 1159 1844 
L 1159 0 
L 581 0 
L 581 3500 
L 1159 3500 
L 1159 2956 
Q 1341 3275 1631 3429 
Q 1922 3584 2338 3584 
Q 2397 3584 2469 3576 
Q 2541 3569 2628 3553 
L 2631 2963 
z
" transform="scale(0.015625)"/>
      </defs>
      <use xlink:href="#DejaVuSans-78"/>
      <use xlink:href="#DejaVuSans-20" x="59.179688"/>
      <use xlink:href="#DejaVuSans-3d" x="90.966797"/>
      <use xlink:href="#DejaVuSans-20" x="174.755859"/>
      <use xlink:href="#DejaVuSans-73" x="206.542969"/>
      <use xlink:href="#DejaVuSans-71" x="258.642578"/>
      <use xlink:href="#DejaVuSans-72" x="322.119141"/>
      <use xlink:href="#DejaVuSans-74" x="363.232422"/>
      <use xlink:href="#DejaVuSans-28" x="402.441406"/>
      <use xlink:href="#DejaVuSans-74" x="441.455078"/>
      <use xlink:href="#DejaVuSans-29" x="480.664062"/>
     </g>
    </g>
   </g>
  </g>
  <g id="axes_2">
   <g id="patch_8">
    <path d="M 467.203125 386.437187 
L 849.143125 386.437187 
L 849.143125 26.877187 
L 467.203125 26.877187 
z
" style="fill: #ffffff"/>
   </g>
   <g id="matplotlib.axis_3">
    <g id="xtick_7">
     <g id="line2d_18">
      <g>
       <use xlink:href="#m2fa4e2bde6" x="484.564034" y="386.437187" style="stroke: #000000; stroke-width: 0.8"/>
      </g>
     </g>
     <g id="text_19">
      <!-- 0 -->
      <g transform="translate(481.382784 401.035625) scale(0.1 -0.1)">
       <use xlink:href="#DejaVuSans-30"/>
      </g>
     </g>
    </g>
    <g id="xtick_8">
     <g id="line2d_19">
      <g>
       <use xlink:href="#m2fa4e2bde6" x="554.00767" y="386.437187" style="stroke: #000000; stroke-width: 0.8"/>
      </g>
     </g>
     <g id="text_20">
      <!-- 100 -->
      <g transform="translate(544.46392 401.035625) scale(0.1 -0.1)">
       <use xlink:href="#DejaVuSans-31"/>
       <use xlink:href="#DejaVuSans-30" x="63.623047"/>
       <use xlink:href="#DejaVuSans-30" x="127.246094"/>
      </g>
     </g>
    </g>
    <g id="xtick_9">
     <g id="line2d_20">
      <g>
       <use xlink:href="#m2fa4e2bde6" x="623.451307" y="386.437187" style="stroke: #000000; stroke-width: 0.8"/>
      </g>
     </g>
     <g id="text_21">
      <!-- 200 -->
      <g transform="translate(613.907557 401.035625) scale(0.1 -0.1)">
       <use xlink:href="#DejaVuSans-32"/>
       <use xlink:href="#DejaVuSans-30" x="63.623047"/>
       <use xlink:href="#DejaVuSans-30" x="127.246094"/>
      </g>
     </g>
    </g>
    <g id="xtick_10">
     <g id="line2d_21">
      <g>
       <use xlink:href="#m2fa4e2bde6" x="692.894943" y="386.437187" style="stroke: #000000; stroke-width: 0.8"/>
      </g>
     </g>
     <g id="text_22">
      <!-- 300 -->
      <g transform="translate(683.351193 401.035625) scale(0.1 -0.1)">
       <use xlink:href="#DejaVuSans-33"/>
       <use xlink:href="#DejaVuSans-30" x="63.623047"/>
       <use xlink:href="#DejaVuSans-30" x="127.246094"/>
      </g>
     </g>
    </g>
    <g id="xtick_11">
     <g id="line2d_22">
      <g>
       <use xlink:href="#m2fa4e2bde6" x="762.33858" y="386.437187" style="stroke: #000000; stroke-width: 0.8"/>
      </g>
     </g>
     <g id="text_23">
      <!-- 400 -->
      <g transform="translate(752.79483 401.035625) scale(0.1 -0.1)">
       <use xlink:href="#DejaVuSans-34"/>
       <use xlink:href="#DejaVuSans-30" x="63.623047"/>
       <use xlink:href="#DejaVuSans-30" x="127.246094"/>
      </g>
     </g>
    </g>
    <g id="xtick_12">
     <g id="line2d_23">
      <g>
       <use xlink:href="#m2fa4e2bde6" x="831.782216" y="386.437187" style="stroke: #000000; stroke-width: 0.8"/>
      </g>
     </g>
     <g id="text_24">
      <!-- 500 -->
      <g transform="translate(822.238466 401.035625) scale(0.1 -0.1)">
       <use xlink:href="#DejaVuSans-35"/>
       <use xlink:href="#DejaVuSans-30" x="63.623047"/>
       <use xlink:href="#DejaVuSans-30" x="127.246094"/>
      </g>
     </g>
    </g>
    <g id="text_25">
     <!-- t -->
     <g transform="translate(656.212969 414.71375) scale(0.1 -0.1)">
      <use xlink:href="#DejaVuSans-74"/>
     </g>
    </g>
   </g>
   <g id="matplotlib.axis_4">
    <g id="ytick_8">
     <g id="line2d_24">
      <g>
       <use xlink:href="#md9750c1ff1" x="467.203125" y="370.093551" style="stroke: #000000; stroke-width: 0.8"/>
      </g>
     </g>
     <g id="text_26">
      <!-- 0 -->
      <g transform="translate(453.840625 373.89277) scale(0.1 -0.1)">
       <use xlink:href="#DejaVuSans-30"/>
      </g>
     </g>
    </g>
    <g id="ytick_9">
     <g id="line2d_25">
      <g>
       <use xlink:href="#md9750c1ff1" x="467.203125" y="297.002587" style="stroke: #000000; stroke-width: 0.8"/>
      </g>
     </g>
     <g id="text_27">
      <!-- 5 -->
      <g transform="translate(453.840625 300.801806) scale(0.1 -0.1)">
       <use xlink:href="#DejaVuSans-35"/>
      </g>
     </g>
    </g>
    <g id="ytick_10">
     <g id="line2d_26">
      <g>
       <use xlink:href="#md9750c1ff1" x="467.203125" y="223.911624" style="stroke: #000000; stroke-width: 0.8"/>
      </g>
     </g>
     <g id="text_28">
      <!-- 10 -->
      <g transform="translate(447.478125 227.710842) scale(0.1 -0.1)">
       <use xlink:href="#DejaVuSans-31"/>
       <use xlink:href="#DejaVuSans-30" x="63.623047"/>
      </g>
     </g>
    </g>
    <g id="ytick_11">
     <g id="line2d_27">
      <g>
       <use xlink:href="#md9750c1ff1" x="467.203125" y="150.82066" style="stroke: #000000; stroke-width: 0.8"/>
      </g>
     </g>
     <g id="text_29">
      <!-- 15 -->
      <g transform="translate(447.478125 154.619878) scale(0.1 -0.1)">
       <use xlink:href="#DejaVuSans-31"/>
       <use xlink:href="#DejaVuSans-35" x="63.623047"/>
      </g>
     </g>
    </g>
    <g id="ytick_12">
     <g id="line2d_28">
      <g>
       <use xlink:href="#md9750c1ff1" x="467.203125" y="77.729696" style="stroke: #000000; stroke-width: 0.8"/>
      </g>
     </g>
     <g id="text_30">
      <!-- 20 -->
      <g transform="translate(447.478125 81.528915) scale(0.1 -0.1)">
       <use xlink:href="#DejaVuSans-32"/>
       <use xlink:href="#DejaVuSans-30" x="63.623047"/>
      </g>
     </g>
    </g>
    <g id="text_31">
     <!-- x(t) -->
     <g transform="translate(441.398437 215.478281) rotate(-90) scale(0.1 -0.1)">
      <use xlink:href="#DejaVuSans-78"/>
      <use xlink:href="#DejaVuSans-28" x="59.179688"/>
      <use xlink:href="#DejaVuSans-74" x="98.193359"/>
      <use xlink:href="#DejaVuSans-29" x="137.402344"/>
     </g>
    </g>
   </g>
   <g id="line2d_29">
    <path d="M 484.564034 355.475358 
L 484.820976 358.633776 
L 484.973752 358.999503 
L 485.001529 358.982796 
L 485.112639 358.710073 
L 485.334858 357.414743 
L 485.883463 352.450506 
L 486.702898 345.830105 
L 487.61261 340.366295 
L 488.786207 334.677331 
L 490.216746 328.848599 
L 491.890338 322.965472 
L 493.813926 317.020106 
L 495.987512 311.028464 
L 498.411095 305.001703 
L 501.09162 298.932715 
L 504.042974 292.803141 
L 507.265159 286.625949 
L 510.765118 280.398783 
L 514.549796 274.120045 
L 518.633082 267.778195 
L 523.02192 261.374352 
L 527.723254 254.909507 
L 532.750973 248.375762 
L 538.112022 241.775275 
L 543.820289 235.101969 
L 549.882718 228.358568 
L 556.313199 221.540208 
L 563.118676 214.649866 
L 570.319981 207.676949 
L 577.924059 200.625337 
L 585.944799 193.492346 
L 594.389145 186.281631 
L 603.27793 178.985209 
L 612.625044 171.60176 
L 622.444374 164.130265 
L 632.742865 156.574958 
L 643.541351 148.929933 
L 654.853719 141.194839 
L 666.700804 133.364964 
L 679.089548 125.445038 
L 692.040786 117.430841 
L 705.568407 109.322868 
L 719.686298 101.121654 
L 734.415293 92.823912 
L 749.769281 84.43057 
L 765.769095 75.938914 
L 782.428624 67.350159 
L 799.7687 58.662044 
L 817.803212 49.875983 
L 831.782216 43.228133 
L 831.782216 43.228133 
" clip-path="url(#paa2519a296)" style="fill: none; stroke: #d62728; stroke-width: 1.5; stroke-linecap: square"/>
   </g>
   <g id="line2d_30">
    <path d="M 484.564034 370.093551 
L 484.702921 363.556097 
L 485.064028 357.689603 
L 485.647355 351.835434 
L 486.459845 345.940333 
L 487.494556 340.063926 
L 488.75843 334.167279 
L 490.258412 328.233417 
L 491.994503 322.276194 
L 493.973647 316.283509 
L 496.195843 310.266019 
L 498.668037 304.214301 
L 501.397172 298.122144 
L 504.397137 291.971653 
L 507.667932 285.775592 
L 511.216502 279.531517 
L 515.04979 273.237682 
L 519.181687 266.882485 
L 523.619135 260.466851 
L 528.36908 253.991598 
L 533.44541 247.448743 
L 538.862013 240.832021 
L 544.618891 234.152218 
L 550.736875 227.395728 
L 557.222911 220.565802 
L 564.090886 213.658397 
L 571.347746 206.676801 
L 579.014324 199.611326 
L 587.097563 192.465967 
L 595.611353 185.238426 
L 604.569582 177.926857 
L 613.986139 170.529787 
L 623.874913 163.04606 
L 634.249792 155.474783 
L 645.124666 147.81529 
L 656.520366 140.062458 
L 668.443839 132.220921 
L 680.915916 124.28613 
L 693.950486 116.25841 
L 707.561439 108.138147 
L 721.769607 99.921823 
L 736.588879 91.610265 
L 752.040088 83.200578 
L 768.137123 74.693909 
L 784.893873 66.091371 
L 802.33117 57.390624 
L 820.469848 48.589672 
L 831.782216 43.220824 
L 831.782216 43.220824 
" clip-path="url(#paa2519a296)" style="fill: none; stroke-dasharray: 5.55,2.4; stroke-dashoffset: 0; stroke: #000000; stroke-width: 1.5"/>
   </g>
   <g id="patch_9">
    <path d="M 467.203125 386.437187 
L 467.203125 26.877187 
" style="fill: none; stroke: #000000; stroke-width: 0.8; stroke-linejoin: miter; stroke-linecap: square"/>
   </g>
   <g id="patch_10">
    <path d="M 849.143125 386.437187 
L 849.143125 26.877187 
" style="fill: none; stroke: #000000; stroke-width: 0.8; stroke-linejoin: miter; stroke-linecap: square"/>
   </g>
   <g id="patch_11">
    <path d="M 467.203125 386.437187 
L 849.143125 386.437187 
" style="fill: none; stroke: #000000; stroke-width: 0.8; stroke-linejoin: miter; stroke-linecap: square"/>
   </g>
   <g id="patch_12">
    <path d="M 467.203125 26.877187 
L 849.143125 26.877187 
" style="fill: none; stroke: #000000; stroke-width: 0.8; stroke-linejoin: miter; stroke-linecap: square"/>
   </g>
   <g id="text_32">
    <!-- (b) -->
    <g transform="translate(645.436719 20.877187) scale(0.18 -0.18)">
     <defs>
      <path id="DejaVuSans-62" d="M 3116 1747 
Q 3116 2381 2855 2742 
Q 2594 3103 2138 3103 
Q 1681 3103 1420 2742 
Q 1159 2381 1159 1747 
Q 1159 1113 1420 752 
Q 1681 391 2138 391 
Q 2594 391 2855 752 
Q 3116 1113 3116 1747 
z
M 1159 2969 
Q 1341 3281 1617 3432 
Q 1894 3584 2278 3584 
Q 2916 3584 3314 3078 
Q 3713 2572 3713 1747 
Q 3713 922 3314 415 
Q 2916 -91 2278 -91 
Q 1894 -91 1617 61 
Q 1341 213 1159 525 
L 1159 0 
L 581 0 
L 581 4863 
L 1159 4863 
L 1159 2969 
z
" transform="scale(0.015625)"/>
     </defs>
     <use xlink:href="#DejaVuSans-28"/>
     <use xlink:href="#DejaVuSans-62" x="39.013672"/>
     <use xlink:href="#DejaVuSans-29" x="102.490234"/>
    </g>
   </g>
   <g id="legend_2">
    <g id="patch_13">
     <path d="M 475.603125 71.704687 
L 637.603125 71.704687 
Q 640.003125 71.704687 640.003125 69.304687 
L 640.003125 35.277187 
Q 640.003125 32.877187 637.603125 32.877187 
L 475.603125 32.877187 
Q 473.203125 32.877187 473.203125 35.277187 
L 473.203125 69.304687 
Q 473.203125 71.704687 475.603125 71.704687 
z
" style="fill: #ffffff; opacity: 0.8; stroke: #cccccc; stroke-linejoin: miter"/>
    </g>
    <g id="line2d_31">
     <path d="M 478.003125 42.595312 
L 490.003125 42.595312 
L 502.003125 42.595312 
" style="fill: none; stroke: #d62728; stroke-width: 1.5; stroke-linecap: square"/>
    </g>
    <g id="text_33">
     <!-- $t_{max}$ = 500, h = 0.01 -->
     <g transform="translate(511.603125 46.795312) scale(0.12 -0.12)">
      <use xlink:href="#DejaVuSans-Oblique-74" transform="translate(0 0.015625)"/>
      <use xlink:href="#DejaVuSans-Oblique-6d" transform="translate(39.208984 -16.390625) scale(0.7)"/>
      <use xlink:href="#DejaVuSans-Oblique-61" transform="translate(107.397461 -16.390625) scale(0.7)"/>
      <use xlink:href="#DejaVuSans-Oblique-78" transform="translate(150.292969 -16.390625) scale(0.7)"/>
      <use xlink:href="#DejaVuSans-20" transform="translate(194.453125 0.015625)"/>
      <use xlink:href="#DejaVuSans-3d" transform="translate(226.240234 0.015625)"/>
      <use xlink:href="#DejaVuSans-20" transform="translate(310.029297 0.015625)"/>
      <use xlink:href="#DejaVuSans-35" transform="translate(341.816406 0.015625)"/>
      <use xlink:href="#DejaVuSans-30" transform="translate(405.439453 0.015625)"/>
      <use xlink:href="#DejaVuSans-30" transform="translate(469.0625 0.015625)"/>
      <use xlink:href="#DejaVuSans-2c" transform="translate(532.685547 0.015625)"/>
      <use xlink:href="#DejaVuSans-20" transform="translate(564.472656 0.015625)"/>
      <use xlink:href="#DejaVuSans-68" transform="translate(596.259766 0.015625)"/>
      <use xlink:href="#DejaVuSans-20" transform="translate(659.638672 0.015625)"/>
      <use xlink:href="#DejaVuSans-3d" transform="translate(691.425781 0.015625)"/>
      <use xlink:href="#DejaVuSans-20" transform="translate(775.214844 0.015625)"/>
      <use xlink:href="#DejaVuSans-30" transform="translate(807.001953 0.015625)"/>
      <use xlink:href="#DejaVuSans-2e" transform="translate(870.625 0.015625)"/>
      <use xlink:href="#DejaVuSans-30" transform="translate(902.412109 0.015625)"/>
      <use xlink:href="#DejaVuSans-31" transform="translate(966.035156 0.015625)"/>
     </g>
    </g>
    <g id="line2d_32">
     <path d="M 478.003125 60.209062 
L 490.003125 60.209062 
L 502.003125 60.209062 
" style="fill: none; stroke-dasharray: 5.55,2.4; stroke-dashoffset: 0; stroke: #000000; stroke-width: 1.5"/>
    </g>
    <g id="text_34">
     <!-- x = sqrt(t) -->
     <g transform="translate(511.603125 64.409062) scale(0.12 -0.12)">
      <use xlink:href="#DejaVuSans-78"/>
      <use xlink:href="#DejaVuSans-20" x="59.179688"/>
      <use xlink:href="#DejaVuSans-3d" x="90.966797"/>
      <use xlink:href="#DejaVuSans-20" x="174.755859"/>
      <use xlink:href="#DejaVuSans-73" x="206.542969"/>
      <use xlink:href="#DejaVuSans-71" x="258.642578"/>
      <use xlink:href="#DejaVuSans-72" x="322.119141"/>
      <use xlink:href="#DejaVuSans-74" x="363.232422"/>
      <use xlink:href="#DejaVuSans-28" x="402.441406"/>
      <use xlink:href="#DejaVuSans-74" x="441.455078"/>
      <use xlink:href="#DejaVuSans-29" x="480.664062"/>
     </g>
    </g>
   </g>
  </g>
 </g>
 <defs>
  <clipPath id="p7928b7e135">
   <rect x="40.603125" y="26.877187" width="381.94" height="359.56"/>
  </clipPath>
  <clipPath id="paa2519a296">
   <rect x="467.203125" y="26.877187" width="381.94" height="359.56"/>
  </clipPath>
 </defs>
</svg>
