<?xml version="1.0" encoding="utf-8" standalone="no"?>
<!DOCTYPE svg PUBLIC "-//W3C//DTD SVG 1.1//EN"
  "http://www.w3.org/Graphics/SVG/1.1/DTD/svg11.dtd">
<svg xmlns:xlink="http://www.w3.org/1999/xlink" width="856.652187pt" height="424.264687pt" viewBox="0 0 856.652187 424.264687" xmlns="http://www.w3.org/2000/svg" version="1.1">
 <metadata>
  <rdf:RDF xmlns:dc="http://purl.org/dc/elements/1.1/" xmlns:cc="http://creativecommons.org/ns#" xmlns:rdf="http://www.w3.org/1999/02/22-rdf-syntax-ns#">
   <cc:Work>
    <dc:type rdf:resource="http://purl.org/dc/dcmitype/StillImage"/>
    <dc:date>2024-09-29T23:56:41.431702</dc:date>
    <dc:format>image/svg+xml</dc:format>
    <dc:creator>
     <cc:Agent>
      <dc:title>Matplotlib v3.8.4, https://matplotlib.org/</dc:title>
     </cc:Agent>
    </dc:creator>
   </cc:Work>
  </rdf:RDF>
 </metadata>
 <defs>
  <style type="text/css">*{stroke-linejoin: round; stroke-linecap: butt}</style>
 </defs>
 <g id="figure_1">
  <g id="patch_1">
   <path d="M 0 424.264687 
L 856.652187 424.264687 
L 856.652187 0 
L 0 0 
z
" style="fill: #ffffff"/>
  </g>
  <g id="axes_1">
   <g id="patch_2">
    <path d="M 56.032188 382.837187 
L 427.037188 382.837187 
L 427.037188 26.877187 
L 56.032188 26.877187 
z
" style="fill: #ffffff"/>
   </g>
   <g id="matplotlib.axis_1">
    <g id="xtick_1">
     <g id="line2d_1">
      <defs>
       <path id="mf4aa50bac0" d="M 0 0 
L 0 3.5 
" style="stroke: #000000; stroke-width: 0.8"/>
      </defs>
      <g>
       <use xlink:href="#mf4aa50bac0" x="72.896051" y="382.837187" style="stroke: #000000; stroke-width: 0.8"/>
      </g>
     </g>
     <g id="text_1">
      <!-- 0 -->
      <g transform="translate(69.714801 397.435625) scale(0.1 -0.1)">
       <defs>
        <path id="DejaVuSans-30" d="M 2034 4250 
Q 1547 4250 1301 3770 
Q 1056 3291 1056 2328 
Q 1056 1369 1301 889 
Q 1547 409 2034 409 
Q 2525 409 2770 889 
Q 3016 1369 3016 2328 
Q 3016 3291 2770 3770 
Q 2525 4250 2034 4250 
z
M 2034 4750 
Q 2819 4750 3233 4129 
Q 3647 3509 3647 2328 
Q 3647 1150 3233 529 
Q 2819 -91 2034 -91 
Q 1250 -91 836 529 
Q 422 1150 422 2328 
Q 422 3509 836 4129 
Q 1250 4750 2034 4750 
z
" transform="scale(0.015625)"/>
       </defs>
       <use xlink:href="#DejaVuSans-30"/>
      </g>
     </g>
    </g>
    <g id="xtick_2">
     <g id="line2d_2">
      <g>
       <use xlink:href="#mf4aa50bac0" x="126.568437" y="382.837187" style="stroke: #000000; stroke-width: 0.8"/>
      </g>
     </g>
     <g id="text_2">
      <!-- 5 -->
      <g transform="translate(123.387187 397.435625) scale(0.1 -0.1)">
       <defs>
        <path id="DejaVuSans-35" d="M 691 4666 
L 3169 4666 
L 3169 4134 
L 1269 4134 
L 1269 2991 
Q 1406 3038 1543 3061 
Q 1681 3084 1819 3084 
Q 2600 3084 3056 2656 
Q 3513 2228 3513 1497 
Q 3513 744 3044 326 
Q 2575 -91 1722 -91 
Q 1428 -91 1123 -41 
Q 819 9 494 109 
L 494 744 
Q 775 591 1075 516 
Q 1375 441 1709 441 
Q 2250 441 2565 725 
Q 2881 1009 2881 1497 
Q 2881 1984 2565 2268 
Q 2250 2553 1709 2553 
Q 1456 2553 1204 2497 
Q 953 2441 691 2322 
L 691 4666 
z
" transform="scale(0.015625)"/>
       </defs>
       <use xlink:href="#DejaVuSans-35"/>
      </g>
     </g>
    </g>
    <g id="xtick_3">
     <g id="line2d_3">
      <g>
       <use xlink:href="#mf4aa50bac0" x="180.240823" y="382.837187" style="stroke: #000000; stroke-width: 0.8"/>
      </g>
     </g>
     <g id="text_3">
      <!-- 10 -->
      <g transform="translate(173.878323 397.435625) scale(0.1 -0.1)">
       <defs>
        <path id="DejaVuSans-31" d="M 794 531 
L 1825 531 
L 1825 4091 
L 703 3866 
L 703 4441 
L 1819 4666 
L 2450 4666 
L 2450 531 
L 3481 531 
L 3481 0 
L 794 0 
L 794 531 
z
" transform="scale(0.015625)"/>
       </defs>
       <use xlink:href="#DejaVuSans-31"/>
       <use xlink:href="#DejaVuSans-30" x="63.623047"/>
      </g>
     </g>
    </g>
    <g id="xtick_4">
     <g id="line2d_4">
      <g>
       <use xlink:href="#mf4aa50bac0" x="233.913209" y="382.837187" style="stroke: #000000; stroke-width: 0.8"/>
      </g>
     </g>
     <g id="text_4">
      <!-- 15 -->
      <g transform="translate(227.550709 397.435625) scale(0.1 -0.1)">
       <use xlink:href="#DejaVuSans-31"/>
       <use xlink:href="#DejaVuSans-35" x="63.623047"/>
      </g>
     </g>
    </g>
    <g id="xtick_5">
     <g id="line2d_5">
      <g>
       <use xlink:href="#mf4aa50bac0" x="287.585595" y="382.837187" style="stroke: #000000; stroke-width: 0.8"/>
      </g>
     </g>
     <g id="text_5">
      <!-- 20 -->
      <g transform="translate(281.223095 397.435625) scale(0.1 -0.1)">
       <defs>
        <path id="DejaVuSans-32" d="M 1228 531 
L 3431 531 
L 3431 0 
L 469 0 
L 469 531 
Q 828 903 1448 1529 
Q 2069 2156 2228 2338 
Q 2531 2678 2651 2914 
Q 2772 3150 2772 3378 
Q 2772 3750 2511 3984 
Q 2250 4219 1831 4219 
Q 1534 4219 1204 4116 
Q 875 4013 500 3803 
L 500 4441 
Q 881 4594 1212 4672 
Q 1544 4750 1819 4750 
Q 2544 4750 2975 4387 
Q 3406 4025 3406 3419 
Q 3406 3131 3298 2873 
Q 3191 2616 2906 2266 
Q 2828 2175 2409 1742 
Q 1991 1309 1228 531 
z
" transform="scale(0.015625)"/>
       </defs>
       <use xlink:href="#DejaVuSans-32"/>
       <use xlink:href="#DejaVuSans-30" x="63.623047"/>
      </g>
     </g>
    </g>
    <g id="xtick_6">
     <g id="line2d_6">
      <g>
       <use xlink:href="#mf4aa50bac0" x="341.25798" y="382.837187" style="stroke: #000000; stroke-width: 0.8"/>
      </g>
     </g>
     <g id="text_6">
      <!-- 25 -->
      <g transform="translate(334.89548 397.435625) scale(0.1 -0.1)">
       <use xlink:href="#DejaVuSans-32"/>
       <use xlink:href="#DejaVuSans-35" x="63.623047"/>
      </g>
     </g>
    </g>
    <g id="xtick_7">
     <g id="line2d_7">
      <g>
       <use xlink:href="#mf4aa50bac0" x="394.930366" y="382.837187" style="stroke: #000000; stroke-width: 0.8"/>
      </g>
     </g>
     <g id="text_7">
      <!-- 30 -->
      <g transform="translate(388.567866 397.435625) scale(0.1 -0.1)">
       <defs>
        <path id="DejaVuSans-33" d="M 2597 2516 
Q 3050 2419 3304 2112 
Q 3559 1806 3559 1356 
Q 3559 666 3084 287 
Q 2609 -91 1734 -91 
Q 1441 -91 1130 -33 
Q 819 25 488 141 
L 488 750 
Q 750 597 1062 519 
Q 1375 441 1716 441 
Q 2309 441 2620 675 
Q 2931 909 2931 1356 
Q 2931 1769 2642 2001 
Q 2353 2234 1838 2234 
L 1294 2234 
L 1294 2753 
L 1863 2753 
Q 2328 2753 2575 2939 
Q 2822 3125 2822 3475 
Q 2822 3834 2567 4026 
Q 2313 4219 1838 4219 
Q 1578 4219 1281 4162 
Q 984 4106 628 3988 
L 628 4550 
Q 988 4650 1302 4700 
Q 1616 4750 1894 4750 
Q 2613 4750 3031 4423 
Q 3450 4097 3450 3541 
Q 3450 3153 3228 2886 
Q 3006 2619 2597 2516 
z
" transform="scale(0.015625)"/>
       </defs>
       <use xlink:href="#DejaVuSans-33"/>
       <use xlink:href="#DejaVuSans-30" x="63.623047"/>
      </g>
     </g>
    </g>
    <g id="text_8">
     <!-- t -->
     <g transform="translate(238.790469 414.153125) scale(0.14 -0.14)">
      <defs>
       <path id="DejaVuSans-74" d="M 1172 4494 
L 1172 3500 
L 2356 3500 
L 2356 3053 
L 1172 3053 
L 1172 1153 
Q 1172 725 1289 603 
Q 1406 481 1766 481 
L 2356 481 
L 2356 0 
L 1766 0 
Q 1100 0 847 248 
Q 594 497 594 1153 
L 594 3053 
L 172 3053 
L 172 3500 
L 594 3500 
L 594 4494 
L 1172 4494 
z
" transform="scale(0.015625)"/>
      </defs>
      <use xlink:href="#DejaVuSans-74"/>
     </g>
    </g>
   </g>
   <g id="matplotlib.axis_2">
    <g id="ytick_1">
     <g id="line2d_8">
      <defs>
       <path id="mb38ee46ab1" d="M 0 0 
L -3.5 0 
" style="stroke: #000000; stroke-width: 0.8"/>
      </defs>
      <g>
       <use xlink:href="#mb38ee46ab1" x="56.032188" y="357.982192" style="stroke: #000000; stroke-width: 0.8"/>
      </g>
     </g>
     <g id="text_9">
      <!-- −2.0 -->
      <g transform="translate(24.749375 361.781411) scale(0.1 -0.1)">
       <defs>
        <path id="DejaVuSans-2212" d="M 678 2272 
L 4684 2272 
L 4684 1741 
L 678 1741 
L 678 2272 
z
" transform="scale(0.015625)"/>
        <path id="DejaVuSans-2e" d="M 684 794 
L 1344 794 
L 1344 0 
L 684 0 
L 684 794 
z
" transform="scale(0.015625)"/>
       </defs>
       <use xlink:href="#DejaVuSans-2212"/>
       <use xlink:href="#DejaVuSans-32" x="83.789062"/>
       <use xlink:href="#DejaVuSans-2e" x="147.412109"/>
       <use xlink:href="#DejaVuSans-30" x="179.199219"/>
      </g>
     </g>
    </g>
    <g id="ytick_2">
     <g id="line2d_9">
      <g>
       <use xlink:href="#mb38ee46ab1" x="56.032188" y="318.114196" style="stroke: #000000; stroke-width: 0.8"/>
      </g>
     </g>
     <g id="text_10">
      <!-- −1.5 -->
      <g transform="translate(24.749375 321.913415) scale(0.1 -0.1)">
       <use xlink:href="#DejaVuSans-2212"/>
       <use xlink:href="#DejaVuSans-31" x="83.789062"/>
       <use xlink:href="#DejaVuSans-2e" x="147.412109"/>
       <use xlink:href="#DejaVuSans-35" x="179.199219"/>
      </g>
     </g>
    </g>
    <g id="ytick_3">
     <g id="line2d_10">
      <g>
       <use xlink:href="#mb38ee46ab1" x="56.032188" y="278.2462" style="stroke: #000000; stroke-width: 0.8"/>
      </g>
     </g>
     <g id="text_11">
      <!-- −1.0 -->
      <g transform="translate(24.749375 282.045419) scale(0.1 -0.1)">
       <use xlink:href="#DejaVuSans-2212"/>
       <use xlink:href="#DejaVuSans-31" x="83.789062"/>
       <use xlink:href="#DejaVuSans-2e" x="147.412109"/>
       <use xlink:href="#DejaVuSans-30" x="179.199219"/>
      </g>
     </g>
    </g>
    <g id="ytick_4">
     <g id="line2d_11">
      <g>
       <use xlink:href="#mb38ee46ab1" x="56.032188" y="238.378205" style="stroke: #000000; stroke-width: 0.8"/>
      </g>
     </g>
     <g id="text_12">
      <!-- −0.5 -->
      <g transform="translate(24.749375 242.177423) scale(0.1 -0.1)">
       <use xlink:href="#DejaVuSans-2212"/>
       <use xlink:href="#DejaVuSans-30" x="83.789062"/>
       <use xlink:href="#DejaVuSans-2e" x="147.412109"/>
       <use xlink:href="#DejaVuSans-35" x="179.199219"/>
      </g>
     </g>
    </g>
    <g id="ytick_5">
     <g id="line2d_12">
      <g>
       <use xlink:href="#mb38ee46ab1" x="56.032188" y="198.510209" style="stroke: #000000; stroke-width: 0.8"/>
      </g>
     </g>
     <g id="text_13">
      <!-- 0.0 -->
      <g transform="translate(33.129063 202.309428) scale(0.1 -0.1)">
       <use xlink:href="#DejaVuSans-30"/>
       <use xlink:href="#DejaVuSans-2e" x="63.623047"/>
       <use xlink:href="#DejaVuSans-30" x="95.410156"/>
      </g>
     </g>
    </g>
    <g id="ytick_6">
     <g id="line2d_13">
      <g>
       <use xlink:href="#mb38ee46ab1" x="56.032188" y="158.642213" style="stroke: #000000; stroke-width: 0.8"/>
      </g>
     </g>
     <g id="text_14">
      <!-- 0.5 -->
      <g transform="translate(33.129063 162.441432) scale(0.1 -0.1)">
       <use xlink:href="#DejaVuSans-30"/>
       <use xlink:href="#DejaVuSans-2e" x="63.623047"/>
       <use xlink:href="#DejaVuSans-35" x="95.410156"/>
      </g>
     </g>
    </g>
    <g id="ytick_7">
     <g id="line2d_14">
      <g>
       <use xlink:href="#mb38ee46ab1" x="56.032188" y="118.774218" style="stroke: #000000; stroke-width: 0.8"/>
      </g>
     </g>
     <g id="text_15">
      <!-- 1.0 -->
      <g transform="translate(33.129063 122.573436) scale(0.1 -0.1)">
       <use xlink:href="#DejaVuSans-31"/>
       <use xlink:href="#DejaVuSans-2e" x="63.623047"/>
       <use xlink:href="#DejaVuSans-30" x="95.410156"/>
      </g>
     </g>
    </g>
    <g id="ytick_8">
     <g id="line2d_15">
      <g>
       <use xlink:href="#mb38ee46ab1" x="56.032188" y="78.906222" style="stroke: #000000; stroke-width: 0.8"/>
      </g>
     </g>
     <g id="text_16">
      <!-- 1.5 -->
      <g transform="translate(33.129063 82.705441) scale(0.1 -0.1)">
       <use xlink:href="#DejaVuSans-31"/>
       <use xlink:href="#DejaVuSans-2e" x="63.623047"/>
       <use xlink:href="#DejaVuSans-35" x="95.410156"/>
      </g>
     </g>
    </g>
    <g id="ytick_9">
     <g id="line2d_16">
      <g>
       <use xlink:href="#mb38ee46ab1" x="56.032188" y="39.038226" style="stroke: #000000; stroke-width: 0.8"/>
      </g>
     </g>
     <g id="text_17">
      <!-- 2.0 -->
      <g transform="translate(33.129063 42.837445) scale(0.1 -0.1)">
       <use xlink:href="#DejaVuSans-32"/>
       <use xlink:href="#DejaVuSans-2e" x="63.623047"/>
       <use xlink:href="#DejaVuSans-30" x="95.410156"/>
      </g>
     </g>
    </g>
    <g id="text_18">
     <!-- x(t) -->
     <g transform="translate(17.837813 217.206719) rotate(-90) scale(0.14 -0.14)">
      <defs>
       <path id="DejaVuSans-78" d="M 3513 3500 
L 2247 1797 
L 3578 0 
L 2900 0 
L 1881 1375 
L 863 0 
L 184 0 
L 1544 1831 
L 300 3500 
L 978 3500 
L 1906 2253 
L 2834 3500 
L 3513 3500 
z
" transform="scale(0.015625)"/>
       <path id="DejaVuSans-28" d="M 1984 4856 
Q 1566 4138 1362 3434 
Q 1159 2731 1159 2009 
Q 1159 1288 1364 580 
Q 1569 -128 1984 -844 
L 1484 -844 
Q 1016 -109 783 600 
Q 550 1309 550 2009 
Q 550 2706 781 3412 
Q 1013 4119 1484 4856 
L 1984 4856 
z
" transform="scale(0.015625)"/>
       <path id="DejaVuSans-29" d="M 513 4856 
L 1013 4856 
Q 1481 4119 1714 3412 
Q 1947 2706 1947 2009 
Q 1947 1309 1714 600 
Q 1481 -109 1013 -844 
L 513 -844 
Q 928 -128 1133 580 
Q 1338 1288 1338 2009 
Q 1338 2731 1133 3434 
Q 928 4138 513 4856 
z
" transform="scale(0.015625)"/>
      </defs>
      <use xlink:href="#DejaVuSans-78"/>
      <use xlink:href="#DejaVuSans-28" x="59.179688"/>
      <use xlink:href="#DejaVuSans-74" x="98.193359"/>
      <use xlink:href="#DejaVuSans-29" x="137.402344"/>
     </g>
    </g>
   </g>
   <g id="line2d_17">
    <path d="M 72.896051 198.510209 
L 77.189842 167.17257 
L 79.336737 152.841669 
L 80.946909 143.168773 
L 82.557081 134.66937 
L 84.167252 127.543678 
L 85.2407 123.64207 
L 86.314148 120.470079 
L 87.387595 118.063097 
L 88.461043 116.449039 
L 88.997767 115.945955 
L 89.534491 115.648025 
L 90.071215 115.556505 
L 90.607938 115.672141 
L 91.144662 115.995161 
L 91.681386 116.525276 
L 92.21811 117.261678 
L 93.291558 119.34753 
L 94.365005 122.235945 
L 95.438453 125.90204 
L 96.511901 130.313023 
L 98.122072 138.235778 
L 99.732244 147.575407 
L 101.342416 158.132248 
L 103.489311 173.702851 
L 106.709654 199.009334 
L 111.003445 232.875965 
L 113.150341 248.33317 
L 114.760512 258.751417 
L 116.370684 267.891439 
L 117.980855 275.537803 
L 119.054303 279.713538 
L 120.127751 283.097636 
L 121.201198 285.652274 
L 122.274646 287.347736 
L 122.81137 287.866292 
L 123.348094 288.162754 
L 123.884818 288.235827 
L 124.421542 288.084768 
L 124.958265 287.709395 
L 125.494989 287.110085 
L 126.031713 286.287778 
L 127.105161 283.980719 
L 128.178609 280.806872 
L 129.252056 276.793655 
L 130.325504 271.977023 
L 131.935676 263.344453 
L 133.545847 253.186991 
L 135.156019 241.721903 
L 137.302914 224.834095 
L 140.523257 197.430293 
L 144.817048 160.831843 
L 146.963944 144.160524 
L 148.574115 132.94009 
L 150.184287 123.111851 
L 151.794458 114.907593 
L 152.867906 110.439144 
L 153.941354 106.829587 
L 155.014801 104.119338 
L 156.088249 102.34002 
L 156.624973 101.806846 
L 157.161697 101.514097 
L 157.698421 101.463106 
L 158.235145 101.654606 
L 158.771869 102.088724 
L 159.308592 102.764981 
L 159.845316 103.682291 
L 160.918764 106.232708 
L 161.992212 109.719245 
L 163.065659 114.1117 
L 164.139107 119.370658 
L 165.749279 128.775846 
L 167.35945 139.822081 
L 168.969622 152.272954 
L 171.116517 170.588666 
L 174.33686 200.262584 
L 178.630651 239.811842 
L 180.777547 257.791868 
L 182.387718 269.875607 
L 183.99789 280.443139 
L 185.608061 289.245099 
L 186.681509 294.026043 
L 187.754957 297.875167 
L 188.828405 300.74929 
L 189.365128 301.80983 
L 189.901852 302.614772 
L 190.438576 303.161465 
L 190.9753 303.447896 
L 191.512024 303.4727 
L 192.048748 303.235159 
L 192.585472 302.735212 
L 193.122195 301.973452 
L 193.658919 300.95113 
L 194.732367 298.133068 
L 195.805815 294.304047 
L 196.879262 289.497319 
L 197.95271 283.756088 
L 199.562882 273.509981 
L 201.173053 261.497934 
L 203.319949 243.184718 
L 206.003568 217.61155 
L 213.517702 143.29948 
L 215.664598 125.011177 
L 217.274769 113.067505 
L 218.884941 102.958096 
L 219.958388 97.358548 
L 221.031836 92.743116 
L 222.105284 89.16291 
L 223.178732 86.658937 
L 223.715455 85.820474 
L 224.252179 85.26164 
L 224.788903 84.98453 
L 225.325627 84.990542 
L 225.862351 85.280367 
L 226.399075 85.853992 
L 226.935799 86.710692 
L 227.472522 87.849031 
L 228.54597 90.961362 
L 229.619418 95.165434 
L 230.692866 100.424647 
L 231.766313 106.691657 
L 233.376485 117.852957 
L 234.986656 130.914479 
L 237.133552 150.796377 
L 239.817171 178.515865 
L 247.331305 258.8375 
L 249.478201 278.544017 
L 251.088372 291.391924 
L 252.698544 302.24485 
L 253.771991 308.241767 
L 254.845439 313.170704 
L 255.918887 316.976996 
L 256.992335 319.616935 
L 257.529058 320.488983 
L 258.065782 321.058265 
L 258.602506 321.3226 
L 259.13923 321.280565 
L 259.675954 320.931499 
L 260.212678 320.275507 
L 260.749402 319.313461 
L 261.286125 318.047003 
L 262.359573 314.611228 
L 263.433021 309.996516 
L 264.506469 304.243142 
L 265.579916 297.402976 
L 267.190088 285.245715 
L 268.80026 271.043869 
L 270.947155 249.459909 
L 273.630774 219.415079 
L 281.144908 132.600866 
L 283.291804 111.367206 
L 284.901975 97.547518 
L 286.512147 85.897479 
L 287.585595 79.475872 
L 288.659042 74.213204 
L 289.73249 70.167936 
L 290.805938 67.386643 
L 291.342662 66.481157 
L 291.879385 65.90348 
L 292.416109 65.655876 
L 292.952833 65.739788 
L 293.489557 66.155837 
L 294.026281 66.903811 
L 294.563005 67.982672 
L 295.099729 69.390548 
L 296.173176 73.181738 
L 297.246624 78.245975 
L 298.320072 84.538959 
L 299.393519 92.003873 
L 301.003691 105.244914 
L 302.613863 120.685732 
L 304.760758 144.116401 
L 307.444377 176.680435 
L 314.958511 270.508811 
L 317.105407 293.386821 
L 318.715578 308.250799 
L 320.32575 320.755314 
L 321.399198 327.630727 
L 322.472645 333.248549 
L 323.546093 337.546268 
L 324.619541 340.474274 
L 325.156265 341.412797 
L 325.692989 341.99641 
L 326.229712 342.222767 
L 326.766436 342.090408 
L 327.30316 341.598767 
L 327.839884 340.748177 
L 328.376608 339.539864 
L 328.913332 337.975957 
L 329.986779 333.79433 
L 331.060227 328.238082 
L 332.133675 321.355928 
L 333.207123 313.210096 
L 334.817294 298.789789 
L 336.427466 282.002886 
L 338.574361 256.568655 
L 341.25798 221.275488 
L 348.235391 126.522776 
L 350.382286 101.056485 
L 351.992458 84.296326 
L 353.602629 69.982106 
L 354.676077 61.968807 
L 355.749525 55.281658 
L 356.822972 49.994212 
L 357.89642 46.166385 
L 358.433144 44.814655 
L 358.969868 43.843784 
L 359.506592 43.257153 
L 360.043315 43.057187 
L 360.580039 43.245355 
L 361.116763 43.822154 
L 361.653487 44.787116 
L 362.190211 46.138798 
L 362.726935 47.874788 
L 363.800382 52.485213 
L 364.87383 58.579882 
L 365.947278 66.10524 
L 367.020726 74.993149 
L 368.630897 90.696533 
L 370.241069 108.945819 
L 372.387964 136.553699 
L 375.071584 174.803316 
L 382.048994 277.219813 
L 384.195889 304.667097 
L 385.806061 322.701487 
L 387.416232 338.074839 
L 388.48968 346.661942 
L 389.563128 353.809592 
L 390.636575 359.439059 
L 391.710023 363.486415 
L 392.246747 364.901048 
L 392.783471 365.90324 
L 393.320195 366.489455 
L 393.856919 366.657187 
L 394.393642 366.404972 
L 394.930366 365.732389 
L 395.46709 364.640069 
L 396.003814 363.129693 
L 397.077262 358.866744 
L 398.150709 352.977886 
L 399.224157 345.513905 
L 400.297605 336.541602 
L 401.907776 320.438954 
L 403.517948 301.46955 
L 405.12812 280.039001 
L 407.275015 248.445802 
L 409.958634 205.852467 
L 409.958634 205.852467 
" clip-path="url(#pc02dfb84c3)" style="fill: none; stroke: #1f77b4; stroke-width: 1.5; stroke-linecap: square"/>
   </g>
   <g id="line2d_18">
    <path d="M 72.896051 198.510209 
L 77.189842 167.398372 
L 79.444082 152.693863 
L 81.268943 142.215892 
L 82.77177 134.781141 
L 84.167252 128.982702 
L 85.348045 124.984039 
L 86.421492 122.115617 
L 87.387595 120.183829 
L 88.139009 119.117987 
L 88.890422 118.440382 
L 89.534491 118.171356 
L 90.071215 118.167951 
L 90.607938 118.365399 
L 91.252007 118.866875 
L 91.896076 119.655356 
L 92.647489 120.934379 
L 93.506247 122.86219 
L 94.47235 125.61071 
L 95.545798 129.358777 
L 96.72659 134.282757 
L 98.122072 141.10526 
L 99.732244 150.184839 
L 101.557105 161.792475 
L 103.91869 178.363742 
L 108.319826 211.288662 
L 111.432824 233.695537 
L 113.57972 247.57718 
L 115.297236 257.317065 
L 116.800063 264.626697 
L 118.0882 269.87466 
L 119.268993 273.790261 
L 120.235095 276.321793 
L 121.093854 278.045521 
L 121.845267 279.137739 
L 122.59668 279.835686 
L 123.240749 280.117265 
L 123.777473 280.127652 
L 124.314197 279.934001 
L 124.958265 279.432862 
L 125.602334 278.640114 
L 126.353747 277.350309 
L 127.212506 275.402587 
L 128.178609 272.622138 
L 129.252056 268.827058 
L 130.432849 263.837876 
L 131.828331 256.92114 
L 133.438502 247.711684 
L 135.263364 235.93299 
L 137.624948 219.11051 
L 142.026084 185.667598 
L 145.139083 162.89433 
L 147.285978 148.778602 
L 149.003494 138.86979 
L 150.506321 131.429469 
L 151.794458 126.084281 
L 152.975251 122.092842 
L 153.941354 119.509392 
L 154.800112 117.747549 
L 155.551525 116.628392 
L 156.195594 115.987631 
L 156.839663 115.643555 
L 157.376386 115.584514 
L 157.91311 115.732757 
L 158.557179 116.183852 
L 159.201248 116.93158 
L 159.952661 118.175429 
L 160.811419 120.079569 
L 161.777522 122.822725 
L 162.85097 126.591302 
L 164.031762 131.569803 
L 165.427244 138.499045 
L 167.037416 147.756495 
L 168.862277 159.631751 
L 171.116517 175.837943 
L 174.873584 204.767542 
L 178.523307 232.272029 
L 180.670202 246.875103 
L 182.495063 257.814296 
L 183.99789 265.564777 
L 185.286027 271.176802 
L 186.46682 275.410174 
L 187.540267 278.456851 
L 188.50637 280.518907 
L 189.257784 281.665581 
L 190.009197 282.405638 
L 190.653266 282.713318 
L 191.18999 282.738333 
L 191.726713 282.55279 
L 192.370782 282.052745 
L 193.014851 281.251658 
L 193.766264 279.940241 
L 194.625022 277.952271 
L 195.591125 275.107019 
L 196.664573 271.216296 
L 197.845365 266.094253 
L 199.240847 258.985273 
L 200.851019 249.510607 
L 202.67588 237.382345 
L 205.037465 220.046131 
L 209.331256 186.383933 
L 212.551599 162.019053 
L 214.698495 147.423418 
L 216.416011 137.168067 
L 217.918838 129.459478 
L 219.206975 123.914566 
L 220.387767 119.767203 
L 221.461215 116.818171 
L 222.319973 115.043601 
L 223.071387 113.927491 
L 223.715455 113.29988 
L 224.359524 112.978636 
L 224.896248 112.945964 
L 225.432972 113.127186 
L 226.07704 113.626468 
L 226.721109 114.431619 
L 227.472522 115.753862 
L 228.331281 117.762167 
L 229.297384 120.640296 
L 230.370831 124.579662 
L 231.551624 129.769383 
L 232.947106 136.976405 
L 234.557277 146.586451 
L 236.382138 158.893294 
L 238.743723 176.492142 
L 242.93017 209.827721 
L 246.150513 234.661029 
L 248.297408 249.589384 
L 250.014924 260.112252 
L 251.517751 268.050051 
L 252.805889 273.784227 
L 253.986681 278.09677 
L 255.060129 281.187321 
L 255.918887 283.068184 
L 256.6703 284.271664 
L 257.421714 285.055797 
L 258.065782 285.390955 
L 258.602506 285.43152 
L 259.13923 285.254802 
L 259.675954 284.861134 
L 260.320023 284.10363 
L 261.071436 282.830107 
L 261.930194 280.868132 
L 262.896297 278.029841 
L 263.969745 274.119104 
L 265.150537 268.941522 
L 266.546019 261.722508 
L 268.048846 252.747791 
L 269.873707 240.423645 
L 272.127947 223.542601 
L 275.670325 195.022041 
L 279.642081 163.529828 
L 281.896322 147.458698 
L 283.721183 136.038448 
L 285.22401 127.959275 
L 286.512147 122.119426 
L 287.692939 117.723988 
L 288.766387 114.570566 
L 289.625145 112.648422 
L 290.376559 111.415629 
L 291.127972 110.608695 
L 291.772041 110.259264 
L 292.308765 110.210564 
L 292.845488 110.382589 
L 293.382212 110.775019 
L 294.026281 111.535606 
L 294.777694 112.819009 
L 295.636452 114.800508 
L 296.602555 117.671112 
L 297.676003 121.630306 
L 298.856796 126.875897 
L 300.252278 134.194067 
L 301.755104 143.296503 
L 303.579966 155.801405 
L 305.834206 172.937224 
L 309.376583 201.90259 
L 313.34834 233.905196 
L 315.60258 250.24609 
L 317.427441 261.863605 
L 318.930268 270.086615 
L 320.218405 276.034028 
L 321.399198 280.513891 
L 322.472645 283.731391 
L 323.331404 285.695647 
L 324.082817 286.958375 
L 324.83423 287.788634 
L 325.478299 288.152705 
L 326.015023 288.209786 
L 326.551747 288.042647 
L 327.088471 287.651594 
L 327.732539 286.88802 
L 328.483953 285.594746 
L 329.342711 283.593603 
L 330.308814 280.690381 
L 331.382261 276.682189 
L 332.563054 271.367746 
L 333.958536 263.949112 
L 335.461363 254.717189 
L 337.286224 242.028932 
L 339.540464 224.634553 
L 343.082842 195.21753 
L 347.054598 162.696358 
L 349.308838 146.081234 
L 351.133699 134.263104 
L 352.636526 125.893753 
L 353.924663 119.83685 
L 355.105456 115.271004 
L 356.178904 111.988198 
L 357.037662 109.980984 
L 357.789075 108.687686 
L 358.540489 107.833568 
L 359.184557 107.454483 
L 359.721281 107.388767 
L 360.258005 107.550822 
L 360.794729 107.940356 
L 361.438798 108.706819 
L 362.190211 110.009951 
L 363.048969 112.030858 
L 364.015072 114.967003 
L 365.08852 119.024741 
L 366.269312 124.408885 
L 367.664794 131.929309 
L 369.167621 141.29251 
L 370.992482 154.166756 
L 373.246722 171.823537 
L 376.681755 200.780901 
L 380.760856 234.747213 
L 383.015097 251.641106 
L 384.839958 263.663256 
L 386.342785 272.181497 
L 387.630922 278.349847 
L 388.811714 283.003262 
L 389.885162 286.352626 
L 390.74392 288.403659 
L 391.495334 289.728175 
L 392.246747 290.606696 
L 392.890816 291.001178 
L 393.427539 291.075788 
L 393.964263 290.91902 
L 394.500987 290.531152 
L 395.145056 289.761902 
L 395.896469 288.448928 
L 396.755227 286.408138 
L 397.72133 283.438765 
L 398.794778 279.330927 
L 399.975571 273.876224 
L 401.371053 266.252667 
L 402.873879 256.756372 
L 404.698741 243.693467 
L 406.952981 225.770386 
L 410.173324 198.227868 
L 410.173324 198.227868 
" clip-path="url(#pc02dfb84c3)" style="fill: none; stroke: #ff7f0e; stroke-width: 1.5; stroke-linecap: square"/>
   </g>
   <g id="line2d_19">
    <path d="M 72.896051 198.510209 
L 77.189842 167.428731 
L 79.39041 153.091088 
L 81.215271 142.609821 
L 82.77177 134.926423 
L 84.11358 129.364537 
L 85.294372 125.357515 
L 86.36782 122.479302 
L 87.280251 120.628193 
L 88.085336 119.460964 
L 88.783077 118.808404 
L 89.427146 118.504632 
L 90.017542 118.479061 
L 90.607938 118.695548 
L 91.198335 119.153503 
L 91.896076 120.004189 
L 92.647489 121.291357 
L 93.506247 123.225714 
L 94.47235 125.977791 
L 95.545798 129.72473 
L 96.780263 134.88325 
L 98.175745 141.726609 
L 99.785916 150.811319 
L 101.66445 162.757486 
L 104.026035 179.292735 
L 112.881979 242.843309 
L 114.70684 253.591685 
L 116.263339 261.522075 
L 117.658821 267.516544 
L 118.839613 271.685479 
L 119.913061 274.710776 
L 120.879164 276.784426 
L 121.68425 278.029654 
L 122.381991 278.747713 
L 123.02606 279.109962 
L 123.616456 279.187279 
L 124.206852 279.020599 
L 124.797248 278.61036 
L 125.441317 277.886447 
L 126.19273 276.680738 
L 127.051488 274.833781 
L 128.017591 272.172099 
L 129.091039 268.514891 
L 130.271832 263.683381 
L 131.613641 257.236902 
L 133.17014 248.612969 
L 134.995002 237.169084 
L 137.249242 221.518278 
L 140.845292 194.723506 
L 144.709703 166.431834 
L 146.910271 151.921092 
L 148.68146 141.62247 
L 150.237959 133.832907 
L 151.579769 128.197795 
L 152.760561 124.14133 
L 153.780337 121.358321 
L 154.692767 119.456419 
L 155.497853 118.251373 
L 156.195594 117.57152 
L 156.839663 117.247184 
L 157.430059 117.206731 
L 158.020455 117.412179 
L 158.610851 117.862975 
L 159.25492 118.633027 
L 160.006333 119.89485 
L 160.865092 121.808612 
L 161.831195 124.548352 
L 162.904642 128.295151 
L 164.139107 133.471166 
L 165.534589 140.356763 
L 167.091088 149.194453 
L 168.969622 161.229447 
L 171.331207 177.942257 
L 175.732342 211.129705 
L 178.845341 233.700951 
L 180.938564 247.350615 
L 182.65608 257.198087 
L 184.158907 264.59853 
L 185.500717 270.121134 
L 186.681509 274.061703 
L 187.701284 276.733006 
L 188.613715 278.526695 
L 189.418801 279.63042 
L 190.116542 280.218492 
L 190.706938 280.446719 
L 191.243662 280.439202 
L 191.834058 280.194397 
L 192.424454 279.702461 
L 193.122195 278.804454 
L 193.873609 277.457867 
L 194.732367 275.445226 
L 195.69847 272.592447 
L 196.771918 268.718887 
L 198.006383 263.397174 
L 199.401865 256.349296 
L 201.012036 247.006532 
L 202.89057 234.736843 
L 205.305827 217.375465 
L 213.893409 154.148463 
L 215.771942 142.712247 
L 217.382114 134.247038 
L 218.777596 128.067145 
L 220.012061 123.585334 
L 221.085508 120.489005 
L 221.997939 118.467969 
L 222.803025 117.163664 
L 223.500766 116.402686 
L 224.144834 116.007815 
L 224.735231 115.906601 
L 225.271955 116.031375 
L 225.862351 116.406773 
L 226.506419 117.09958 
L 227.20416 118.180932 
L 228.009246 119.850371 
L 228.921677 122.277289 
L 229.941452 125.641531 
L 231.122245 130.357843 
L 232.464054 136.717123 
L 233.966881 144.984096 
L 235.73807 156.066262 
L 237.884965 171.026804 
L 240.944291 194.109826 
L 245.882151 231.364337 
L 248.082719 246.21986 
L 249.853907 256.762768 
L 251.410406 264.736755 
L 252.752216 270.50498 
L 253.933009 274.656991 
L 254.952784 277.505295 
L 255.865215 279.451567 
L 256.6703 280.684466 
L 257.368041 281.379758 
L 258.01211 281.711112 
L 258.602506 281.751873 
L 259.13923 281.570446 
L 259.729626 281.131041 
L 260.373695 280.366609 
L 261.125108 279.102342 
L 261.983867 277.173931 
L 262.949969 274.402705 
L 264.023417 270.602589 
L 265.257882 265.342072 
L 266.653364 258.332437 
L 268.209863 249.323176 
L 270.034724 237.408795 
L 272.342637 220.766213 
L 276.314394 190.139897 
L 279.749426 164.370723 
L 281.896322 149.850755 
L 283.66751 139.298658 
L 285.170337 131.590115 
L 286.512147 125.805822 
L 287.692939 121.64882 
L 288.712715 118.803157 
L 289.625145 116.864695 
L 290.430231 115.642915 
L 291.127972 114.960419 
L 291.718368 114.658331 
L 292.255092 114.603705 
L 292.791816 114.758813 
L 293.382212 115.171257 
L 294.026281 115.908747 
L 294.777694 117.144969 
L 295.58278 118.912093 
L 296.495211 121.456112 
L 297.568658 125.161317 
L 298.749451 130.084227 
L 300.09126 136.682291 
L 301.594087 145.217349 
L 303.365276 156.609452 
L 305.565844 172.324791 
L 308.839859 197.555643 
L 313.240995 231.244738 
L 315.441563 246.403659 
L 317.266424 257.489359 
L 318.822923 265.619149 
L 320.164733 271.507019 
L 321.345525 275.751498 
L 322.365301 278.669089 
L 323.277731 280.668501 
L 324.082817 281.941019 
L 324.780558 282.664951 
L 325.424627 283.017934 
L 325.96135 283.079834 
L 326.498074 282.930345 
L 327.088471 282.522152 
L 327.732539 281.786978 
L 328.483953 280.550387 
L 329.289038 278.7792 
L 330.201469 276.226015 
L 331.274917 272.50391 
L 332.455709 267.554965 
L 333.797519 260.918238 
L 335.300346 252.329134 
L 337.071534 240.860156 
L 339.272102 225.03248 
L 342.492445 200.034177 
L 347.000926 165.252648 
L 349.201494 150.002292 
L 351.026355 138.860089 
L 352.582854 130.697311 
L 353.924663 124.792829 
L 355.105456 120.543023 
L 356.125231 117.627892 
L 357.037662 115.636216 
L 357.842748 114.37482 
L 358.540489 113.66374 
L 359.130885 113.341731 
L 359.667609 113.272446 
L 360.204333 113.416218 
L 360.794729 113.820066 
L 361.438798 114.552839 
L 362.190211 115.789724 
L 362.995297 117.564925 
L 363.907727 120.127255 
L 364.927503 123.661235 
L 366.108295 128.596395 
L 367.450105 135.230206 
L 368.952932 143.832196 
L 370.72412 155.337923 
L 372.871016 170.837741 
L 375.984014 195.12525 
L 380.760856 232.296636 
L 382.961424 247.638751 
L 384.732613 258.531377 
L 386.289112 266.773543 
L 387.630922 272.738976 
L 388.811714 277.035877 
L 389.83149 279.986286 
L 390.74392 282.00501 
L 391.549006 283.286562 
L 392.246747 284.012206 
L 392.837143 284.344381 
L 393.373867 284.421164 
L 393.910591 284.283209 
L 394.500987 283.8838 
L 395.145056 283.153513 
L 395.842797 282.01842 
L 396.647883 280.270282 
L 397.560313 277.733088 
L 398.580089 274.220029 
L 399.760881 269.299396 
L 401.102691 262.669251 
L 402.605517 254.055083 
L 404.376706 242.513248 
L 406.523602 226.939493 
L 409.582928 202.92272 
L 410.119651 198.612703 
L 410.119651 198.612703 
" clip-path="url(#pc02dfb84c3)" style="fill: none; stroke: #2ca02c; stroke-width: 1.5; stroke-linecap: square"/>
   </g>
   <g id="line2d_20">
    <path d="M 72.896051 198.510209 
L 77.189842 167.459551 
L 79.336737 153.487882 
L 80.946909 144.159067 
L 82.557081 136.050861 
L 84.167252 129.345358 
L 85.2407 125.730071 
L 86.314148 122.84198 
L 87.387595 120.70994 
L 87.924319 119.934398 
L 88.461043 119.355255 
L 88.997767 118.973957 
L 89.534491 118.791459 
L 90.071215 118.808217 
L 90.607938 119.024188 
L 91.144662 119.438832 
L 91.681386 120.051114 
L 92.754834 121.861978 
L 93.828282 124.438685 
L 94.901729 127.755491 
L 95.975177 131.779254 
L 97.585349 139.050665 
L 99.19552 147.657408 
L 100.805692 157.406196 
L 102.952587 171.799597 
L 106.17293 195.194734 
L 110.466721 226.480257 
L 112.613617 240.757219 
L 114.223788 250.388449 
L 115.83396 258.854606 
L 117.444131 265.965558 
L 118.517579 269.873073 
L 119.591027 273.067553 
L 120.664475 275.517081 
L 121.737922 277.197182 
L 122.274646 277.743146 
L 122.81137 278.091069 
L 123.348094 278.240081 
L 123.884818 278.18981 
L 124.421542 277.940382 
L 124.958265 277.492419 
L 125.494989 276.847042 
L 126.568437 274.970987 
L 127.641885 272.330961 
L 128.715332 268.953342 
L 129.78878 264.871879 
L 131.398952 257.521007 
L 133.009123 248.84488 
L 134.619295 239.038345 
L 136.76619 224.588249 
L 139.986533 201.155787 
L 144.280324 169.913386 
L 146.42722 155.69616 
L 148.037391 146.124731 
L 149.647563 137.729768 
L 151.257734 130.699802 
L 152.331182 126.850828 
L 153.40463 123.717851 
L 154.478078 121.332174 
L 155.551525 119.717635 
L 156.088249 119.204889 
L 156.624973 118.890365 
L 157.161697 118.77485 
L 157.698421 118.858631 
L 158.235145 119.141499 
L 158.771869 119.622748 
L 159.308592 120.301175 
L 160.38204 122.242289 
L 161.455488 124.945448 
L 162.528936 128.383641 
L 163.602383 132.522515 
L 165.212555 139.952328 
L 166.822726 148.697225 
L 168.969622 162.05962 
L 171.653241 180.737861 
L 179.167375 234.992287 
L 181.314271 248.350837 
L 182.924442 257.092117 
L 184.534614 264.517773 
L 185.608061 268.653623 
L 186.681509 272.088622 
L 187.754957 274.78845 
L 188.828405 276.726132 
L 189.365128 277.402814 
L 189.901852 277.882306 
L 190.438576 278.163408 
L 190.9753 278.24542 
L 191.512024 278.128134 
L 192.048748 277.811846 
L 192.585472 277.297344 
L 193.122195 276.585916 
L 194.195643 274.57988 
L 195.269091 271.81378 
L 196.342539 268.315256 
L 197.415986 264.119263 
L 199.026158 256.611033 
L 200.636329 247.797985 
L 202.783225 234.363295 
L 205.466844 215.628433 
L 212.980978 161.433342 
L 215.127874 148.148081 
L 216.738045 139.475603 
L 218.348217 132.128916 
L 219.421665 128.050493 
L 220.495112 124.676081 
L 221.56856 122.039395 
L 222.642008 120.166779 
L 223.178732 119.523149 
L 223.715455 119.076946 
L 224.252179 118.829284 
L 224.788903 118.780783 
L 225.325627 118.931564 
L 225.862351 119.281251 
L 226.399075 119.828968 
L 226.935799 120.573348 
L 228.009246 122.644164 
L 229.082694 125.473009 
L 230.156142 129.031617 
L 231.229589 133.284433 
L 232.839761 140.870548 
L 234.449933 149.751126 
L 236.596828 163.25716 
L 239.280447 182.04732 
L 246.794581 236.179244 
L 248.941477 249.390278 
L 250.551648 257.99334 
L 252.16182 265.260539 
L 253.235268 269.281246 
L 254.308715 272.594833 
L 255.382163 275.168191 
L 256.455611 276.975608 
L 256.992335 277.58614 
L 257.529058 277.999024 
L 258.065782 278.213227 
L 258.602506 278.228214 
L 259.13923 278.043948 
L 259.675954 277.660889 
L 260.212678 277.079994 
L 261.286125 275.330997 
L 262.359573 272.814432 
L 263.433021 269.555443 
L 264.506469 265.586594 
L 265.579916 260.94754 
L 267.190088 252.835438 
L 268.80026 243.503308 
L 270.947155 229.52825 
L 273.630774 210.390794 
L 279.534737 167.426941 
L 281.681632 153.458662 
L 283.291804 144.133164 
L 284.901975 136.028857 
L 286.512147 129.327746 
L 287.585595 125.715614 
L 288.659042 122.830822 
L 289.73249 120.702193 
L 290.269214 119.928387 
L 290.805938 119.350995 
L 291.342662 118.97146 
L 291.879385 118.790731 
L 292.416109 118.809259 
L 292.952833 119.026997 
L 293.489557 119.443402 
L 294.026281 120.057433 
L 295.099729 121.871744 
L 296.173176 124.4518 
L 297.246624 127.771824 
L 298.320072 131.798642 
L 299.930243 139.074263 
L 301.540415 147.684686 
L 303.150586 157.436542 
L 305.297482 171.832963 
L 308.517825 195.230112 
L 312.811616 226.513414 
L 314.958511 240.787245 
L 316.568683 250.415334 
L 318.178855 258.877745 
L 319.789026 265.984432 
L 320.862474 269.888861 
L 321.935922 273.080099 
L 323.009369 275.526259 
L 324.082817 277.202899 
L 324.619541 277.74711 
L 325.156265 278.093269 
L 325.692989 278.240512 
L 326.229712 278.188471 
L 326.766436 277.937276 
L 327.30316 277.487554 
L 327.839884 276.84043 
L 328.913332 274.960935 
L 329.986779 272.317569 
L 331.060227 268.936745 
L 332.133675 264.852242 
L 333.743846 257.497188 
L 335.354018 248.817413 
L 336.96419 239.007847 
L 339.111085 224.554785 
L 342.331428 201.120397 
L 346.625219 169.880335 
L 348.772114 155.666292 
L 350.382286 146.098041 
L 351.992458 137.706855 
L 353.602629 130.681181 
L 354.676077 126.835307 
L 355.749525 123.705584 
L 356.822972 121.323285 
L 357.89642 119.712212 
L 358.433144 119.201222 
L 358.969868 118.888463 
L 359.506592 118.774717 
L 360.043315 118.860268 
L 360.580039 119.144902 
L 361.116763 119.627908 
L 361.653487 120.308079 
L 362.726935 122.252626 
L 363.800382 124.959114 
L 364.87383 128.4005 
L 365.947278 132.542399 
L 367.557449 139.976367 
L 369.167621 148.724879 
L 371.314517 162.091116 
L 373.998136 180.772381 
L 381.51227 235.023769 
L 383.659165 248.378471 
L 385.269337 257.116132 
L 386.879508 264.537631 
L 387.952956 268.670454 
L 389.026404 272.102259 
L 390.099852 274.798757 
L 391.173299 276.733005 
L 391.710023 277.407943 
L 392.246747 277.885677 
L 392.783471 278.165014 
L 393.320195 278.245255 
L 393.856919 278.1262 
L 394.393642 277.808147 
L 394.930366 277.29189 
L 395.46709 276.57872 
L 396.540538 274.569259 
L 397.613986 271.79984 
L 398.687433 268.298136 
L 399.760881 264.099134 
L 401.371053 256.586777 
L 402.981224 247.770146 
L 405.12812 234.331664 
L 407.811739 215.593848 
L 409.958634 199.780073 
L 409.958634 199.780073 
" clip-path="url(#pc02dfb84c3)" style="fill: none; stroke-dasharray: 5.55,2.4; stroke-dashoffset: 0; stroke: #000000; stroke-width: 1.5"/>
   </g>
   <g id="patch_3">
    <path d="M 56.032188 382.837187 
L 56.032188 26.877187 
" style="fill: none; stroke: #000000; stroke-width: 0.8; stroke-linejoin: miter; stroke-linecap: square"/>
   </g>
   <g id="patch_4">
    <path d="M 427.037188 382.837187 
L 427.037188 26.877187 
" style="fill: none; stroke: #000000; stroke-width: 0.8; stroke-linejoin: miter; stroke-linecap: square"/>
   </g>
   <g id="patch_5">
    <path d="M 56.032188 382.837187 
L 427.037187 382.837187 
" style="fill: none; stroke: #000000; stroke-width: 0.8; stroke-linejoin: miter; stroke-linecap: square"/>
   </g>
   <g id="patch_6">
    <path d="M 56.032188 26.877187 
L 427.037187 26.877187 
" style="fill: none; stroke: #000000; stroke-width: 0.8; stroke-linejoin: miter; stroke-linecap: square"/>
   </g>
   <g id="text_19">
    <!-- (a) -->
    <g transform="translate(228.996563 20.877187) scale(0.18 -0.18)">
     <defs>
      <path id="DejaVuSans-61" d="M 2194 1759 
Q 1497 1759 1228 1600 
Q 959 1441 959 1056 
Q 959 750 1161 570 
Q 1363 391 1709 391 
Q 2188 391 2477 730 
Q 2766 1069 2766 1631 
L 2766 1759 
L 2194 1759 
z
M 3341 1997 
L 3341 0 
L 2766 0 
L 2766 531 
Q 2569 213 2275 61 
Q 1981 -91 1556 -91 
Q 1019 -91 701 211 
Q 384 513 384 1019 
Q 384 1609 779 1909 
Q 1175 2209 1959 2209 
L 2766 2209 
L 2766 2266 
Q 2766 2663 2505 2880 
Q 2244 3097 1772 3097 
Q 1472 3097 1187 3025 
Q 903 2953 641 2809 
L 641 3341 
Q 956 3463 1253 3523 
Q 1550 3584 1831 3584 
Q 2591 3584 2966 3190 
Q 3341 2797 3341 1997 
z
" transform="scale(0.015625)"/>
     </defs>
     <use xlink:href="#DejaVuSans-28"/>
     <use xlink:href="#DejaVuSans-61" x="39.013672"/>
     <use xlink:href="#DejaVuSans-29" x="100.292969"/>
    </g>
   </g>
   <g id="legend_1">
    <g id="patch_7">
     <path d="M 64.432188 376.837187 
L 172.944063 376.837187 
Q 175.344063 376.837187 175.344063 374.437187 
L 175.344063 305.182187 
Q 175.344063 302.782187 172.944063 302.782187 
L 64.432188 302.782187 
Q 62.032188 302.782187 62.032188 305.182187 
L 62.032188 374.437187 
Q 62.032188 376.837187 64.432188 376.837187 
z
" style="fill: #ffffff; opacity: 0.8; stroke: #cccccc; stroke-linejoin: miter"/>
    </g>
    <g id="line2d_21">
     <path d="M 66.832188 312.500313 
L 78.832188 312.500313 
L 90.832188 312.500313 
" style="fill: none; stroke: #1f77b4; stroke-width: 1.5; stroke-linecap: square"/>
    </g>
    <g id="text_20">
     <!-- h = 0.05 -->
     <g transform="translate(100.432187 316.700312) scale(0.12 -0.12)">
      <defs>
       <path id="DejaVuSans-68" d="M 3513 2113 
L 3513 0 
L 2938 0 
L 2938 2094 
Q 2938 2591 2744 2837 
Q 2550 3084 2163 3084 
Q 1697 3084 1428 2787 
Q 1159 2491 1159 1978 
L 1159 0 
L 581 0 
L 581 4863 
L 1159 4863 
L 1159 2956 
Q 1366 3272 1645 3428 
Q 1925 3584 2291 3584 
Q 2894 3584 3203 3211 
Q 3513 2838 3513 2113 
z
" transform="scale(0.015625)"/>
       <path id="DejaVuSans-20" transform="scale(0.015625)"/>
       <path id="DejaVuSans-3d" d="M 678 2906 
L 4684 2906 
L 4684 2381 
L 678 2381 
L 678 2906 
z
M 678 1631 
L 4684 1631 
L 4684 1100 
L 678 1100 
L 678 1631 
z
" transform="scale(0.015625)"/>
      </defs>
      <use xlink:href="#DejaVuSans-68"/>
      <use xlink:href="#DejaVuSans-20" x="63.378906"/>
      <use xlink:href="#DejaVuSans-3d" x="95.166016"/>
      <use xlink:href="#DejaVuSans-20" x="178.955078"/>
      <use xlink:href="#DejaVuSans-30" x="210.742188"/>
      <use xlink:href="#DejaVuSans-2e" x="274.365234"/>
      <use xlink:href="#DejaVuSans-30" x="306.152344"/>
      <use xlink:href="#DejaVuSans-35" x="369.775391"/>
     </g>
    </g>
    <g id="line2d_22">
     <path d="M 66.832188 330.114062 
L 78.832188 330.114062 
L 90.832188 330.114062 
" style="fill: none; stroke: #ff7f0e; stroke-width: 1.5; stroke-linecap: square"/>
    </g>
    <g id="text_21">
     <!-- h = 0.01 -->
     <g transform="translate(100.432187 334.314062) scale(0.12 -0.12)">
      <use xlink:href="#DejaVuSans-68"/>
      <use xlink:href="#DejaVuSans-20" x="63.378906"/>
      <use xlink:href="#DejaVuSans-3d" x="95.166016"/>
      <use xlink:href="#DejaVuSans-20" x="178.955078"/>
      <use xlink:href="#DejaVuSans-30" x="210.742188"/>
      <use xlink:href="#DejaVuSans-2e" x="274.365234"/>
      <use xlink:href="#DejaVuSans-30" x="306.152344"/>
      <use xlink:href="#DejaVuSans-31" x="369.775391"/>
     </g>
    </g>
    <g id="line2d_23">
     <path d="M 66.832188 347.727812 
L 78.832188 347.727812 
L 90.832188 347.727812 
" style="fill: none; stroke: #2ca02c; stroke-width: 1.5; stroke-linecap: square"/>
    </g>
    <g id="text_22">
     <!-- h = 0.005 -->
     <g transform="translate(100.432187 351.927812) scale(0.12 -0.12)">
      <use xlink:href="#DejaVuSans-68"/>
      <use xlink:href="#DejaVuSans-20" x="63.378906"/>
      <use xlink:href="#DejaVuSans-3d" x="95.166016"/>
      <use xlink:href="#DejaVuSans-20" x="178.955078"/>
      <use xlink:href="#DejaVuSans-30" x="210.742188"/>
      <use xlink:href="#DejaVuSans-2e" x="274.365234"/>
      <use xlink:href="#DejaVuSans-30" x="306.152344"/>
      <use xlink:href="#DejaVuSans-30" x="369.775391"/>
      <use xlink:href="#DejaVuSans-35" x="433.398438"/>
     </g>
    </g>
    <g id="line2d_24">
     <path d="M 66.832188 365.341562 
L 78.832188 365.341562 
L 90.832188 365.341562 
" style="fill: none; stroke-dasharray: 5.55,2.4; stroke-dashoffset: 0; stroke: #000000; stroke-width: 1.5"/>
    </g>
    <g id="text_23">
     <!-- x(t) = sin(t) -->
     <g transform="translate(100.432187 369.541562) scale(0.12 -0.12)">
      <defs>
       <path id="DejaVuSans-73" d="M 2834 3397 
L 2834 2853 
Q 2591 2978 2328 3040 
Q 2066 3103 1784 3103 
Q 1356 3103 1142 2972 
Q 928 2841 928 2578 
Q 928 2378 1081 2264 
Q 1234 2150 1697 2047 
L 1894 2003 
Q 2506 1872 2764 1633 
Q 3022 1394 3022 966 
Q 3022 478 2636 193 
Q 2250 -91 1575 -91 
Q 1294 -91 989 -36 
Q 684 19 347 128 
L 347 722 
Q 666 556 975 473 
Q 1284 391 1588 391 
Q 1994 391 2212 530 
Q 2431 669 2431 922 
Q 2431 1156 2273 1281 
Q 2116 1406 1581 1522 
L 1381 1569 
Q 847 1681 609 1914 
Q 372 2147 372 2553 
Q 372 3047 722 3315 
Q 1072 3584 1716 3584 
Q 2034 3584 2315 3537 
Q 2597 3491 2834 3397 
z
" transform="scale(0.015625)"/>
       <path id="DejaVuSans-69" d="M 603 3500 
L 1178 3500 
L 1178 0 
L 603 0 
L 603 3500 
z
M 603 4863 
L 1178 4863 
L 1178 4134 
L 603 4134 
L 603 4863 
z
" transform="scale(0.015625)"/>
       <path id="DejaVuSans-6e" d="M 3513 2113 
L 3513 0 
L 2938 0 
L 2938 2094 
Q 2938 2591 2744 2837 
Q 2550 3084 2163 3084 
Q 1697 3084 1428 2787 
Q 1159 2491 1159 1978 
L 1159 0 
L 581 0 
L 581 3500 
L 1159 3500 
L 1159 2956 
Q 1366 3272 1645 3428 
Q 1925 3584 2291 3584 
Q 2894 3584 3203 3211 
Q 3513 2838 3513 2113 
z
" transform="scale(0.015625)"/>
      </defs>
      <use xlink:href="#DejaVuSans-78"/>
      <use xlink:href="#DejaVuSans-28" x="59.179688"/>
      <use xlink:href="#DejaVuSans-74" x="98.193359"/>
      <use xlink:href="#DejaVuSans-29" x="137.402344"/>
      <use xlink:href="#DejaVuSans-20" x="176.416016"/>
      <use xlink:href="#DejaVuSans-3d" x="208.203125"/>
      <use xlink:href="#DejaVuSans-20" x="291.992188"/>
      <use xlink:href="#DejaVuSans-73" x="323.779297"/>
      <use xlink:href="#DejaVuSans-69" x="375.878906"/>
      <use xlink:href="#DejaVuSans-6e" x="403.662109"/>
      <use xlink:href="#DejaVuSans-28" x="467.041016"/>
      <use xlink:href="#DejaVuSans-74" x="506.054688"/>
      <use xlink:href="#DejaVuSans-29" x="545.263672"/>
     </g>
    </g>
   </g>
  </g>
  <g id="axes_2">
   <g id="patch_8">
    <path d="M 478.447187 382.837187 
L 849.452187 382.837187 
L 849.452187 26.877187 
L 478.447187 26.877187 
z
" style="fill: #ffffff"/>
   </g>
   <g id="matplotlib.axis_3">
    <g id="xtick_8">
     <g id="line2d_25">
      <g>
       <use xlink:href="#mf4aa50bac0" x="495.311051" y="382.837187" style="stroke: #000000; stroke-width: 0.8"/>
      </g>
     </g>
     <g id="text_24">
      <!-- 0 -->
      <g transform="translate(492.129801 397.435625) scale(0.1 -0.1)">
       <use xlink:href="#DejaVuSans-30"/>
      </g>
     </g>
    </g>
    <g id="xtick_9">
     <g id="line2d_26">
      <g>
       <use xlink:href="#mf4aa50bac0" x="548.983437" y="382.837187" style="stroke: #000000; stroke-width: 0.8"/>
      </g>
     </g>
     <g id="text_25">
      <!-- 5 -->
      <g transform="translate(545.802187 397.435625) scale(0.1 -0.1)">
       <use xlink:href="#DejaVuSans-35"/>
      </g>
     </g>
    </g>
    <g id="xtick_10">
     <g id="line2d_27">
      <g>
       <use xlink:href="#mf4aa50bac0" x="602.655823" y="382.837187" style="stroke: #000000; stroke-width: 0.8"/>
      </g>
     </g>
     <g id="text_26">
      <!-- 10 -->
      <g transform="translate(596.293323 397.435625) scale(0.1 -0.1)">
       <use xlink:href="#DejaVuSans-31"/>
       <use xlink:href="#DejaVuSans-30" x="63.623047"/>
      </g>
     </g>
    </g>
    <g id="xtick_11">
     <g id="line2d_28">
      <g>
       <use xlink:href="#mf4aa50bac0" x="656.328209" y="382.837187" style="stroke: #000000; stroke-width: 0.8"/>
      </g>
     </g>
     <g id="text_27">
      <!-- 15 -->
      <g transform="translate(649.965709 397.435625) scale(0.1 -0.1)">
       <use xlink:href="#DejaVuSans-31"/>
       <use xlink:href="#DejaVuSans-35" x="63.623047"/>
      </g>
     </g>
    </g>
    <g id="xtick_12">
     <g id="line2d_29">
      <g>
       <use xlink:href="#mf4aa50bac0" x="710.000595" y="382.837187" style="stroke: #000000; stroke-width: 0.8"/>
      </g>
     </g>
     <g id="text_28">
      <!-- 20 -->
      <g transform="translate(703.638095 397.435625) scale(0.1 -0.1)">
       <use xlink:href="#DejaVuSans-32"/>
       <use xlink:href="#DejaVuSans-30" x="63.623047"/>
      </g>
     </g>
    </g>
    <g id="xtick_13">
     <g id="line2d_30">
      <g>
       <use xlink:href="#mf4aa50bac0" x="763.67298" y="382.837187" style="stroke: #000000; stroke-width: 0.8"/>
      </g>
     </g>
     <g id="text_29">
      <!-- 25 -->
      <g transform="translate(757.31048 397.435625) scale(0.1 -0.1)">
       <use xlink:href="#DejaVuSans-32"/>
       <use xlink:href="#DejaVuSans-35" x="63.623047"/>
      </g>
     </g>
    </g>
    <g id="xtick_14">
     <g id="line2d_31">
      <g>
       <use xlink:href="#mf4aa50bac0" x="817.345366" y="382.837187" style="stroke: #000000; stroke-width: 0.8"/>
      </g>
     </g>
     <g id="text_30">
      <!-- 30 -->
      <g transform="translate(810.982866 397.435625) scale(0.1 -0.1)">
       <use xlink:href="#DejaVuSans-33"/>
       <use xlink:href="#DejaVuSans-30" x="63.623047"/>
      </g>
     </g>
    </g>
    <g id="text_31">
     <!-- t -->
     <g transform="translate(661.205469 414.153125) scale(0.14 -0.14)">
      <use xlink:href="#DejaVuSans-74"/>
     </g>
    </g>
   </g>
   <g id="matplotlib.axis_4">
    <g id="ytick_10">
     <g id="line2d_32">
      <g>
       <use xlink:href="#mb38ee46ab1" x="478.447187" y="366.657187" style="stroke: #000000; stroke-width: 0.8"/>
      </g>
     </g>
     <g id="text_32">
      <!-- 0.0 -->
      <g transform="translate(455.544062 370.456406) scale(0.1 -0.1)">
       <use xlink:href="#DejaVuSans-30"/>
       <use xlink:href="#DejaVuSans-2e" x="63.623047"/>
       <use xlink:href="#DejaVuSans-30" x="95.410156"/>
      </g>
     </g>
    </g>
    <g id="ytick_11">
     <g id="line2d_33">
      <g>
       <use xlink:href="#mb38ee46ab1" x="478.447187" y="308.410028" style="stroke: #000000; stroke-width: 0.8"/>
      </g>
     </g>
     <g id="text_33">
      <!-- 0.2 -->
      <g transform="translate(455.544062 312.209247) scale(0.1 -0.1)">
       <use xlink:href="#DejaVuSans-30"/>
       <use xlink:href="#DejaVuSans-2e" x="63.623047"/>
       <use xlink:href="#DejaVuSans-32" x="95.410156"/>
      </g>
     </g>
    </g>
    <g id="ytick_12">
     <g id="line2d_34">
      <g>
       <use xlink:href="#mb38ee46ab1" x="478.447187" y="250.162869" style="stroke: #000000; stroke-width: 0.8"/>
      </g>
     </g>
     <g id="text_34">
      <!-- 0.4 -->
      <g transform="translate(455.544062 253.962088) scale(0.1 -0.1)">
       <defs>
        <path id="DejaVuSans-34" d="M 2419 4116 
L 825 1625 
L 2419 1625 
L 2419 4116 
z
M 2253 4666 
L 3047 4666 
L 3047 1625 
L 3713 1625 
L 3713 1100 
L 3047 1100 
L 3047 0 
L 2419 0 
L 2419 1100 
L 313 1100 
L 313 1709 
L 2253 4666 
z
" transform="scale(0.015625)"/>
       </defs>
       <use xlink:href="#DejaVuSans-30"/>
       <use xlink:href="#DejaVuSans-2e" x="63.623047"/>
       <use xlink:href="#DejaVuSans-34" x="95.410156"/>
      </g>
     </g>
    </g>
    <g id="ytick_13">
     <g id="line2d_35">
      <g>
       <use xlink:href="#mb38ee46ab1" x="478.447187" y="191.91571" style="stroke: #000000; stroke-width: 0.8"/>
      </g>
     </g>
     <g id="text_35">
      <!-- 0.6 -->
      <g transform="translate(455.544062 195.714929) scale(0.1 -0.1)">
       <defs>
        <path id="DejaVuSans-36" d="M 2113 2584 
Q 1688 2584 1439 2293 
Q 1191 2003 1191 1497 
Q 1191 994 1439 701 
Q 1688 409 2113 409 
Q 2538 409 2786 701 
Q 3034 994 3034 1497 
Q 3034 2003 2786 2293 
Q 2538 2584 2113 2584 
z
M 3366 4563 
L 3366 3988 
Q 3128 4100 2886 4159 
Q 2644 4219 2406 4219 
Q 1781 4219 1451 3797 
Q 1122 3375 1075 2522 
Q 1259 2794 1537 2939 
Q 1816 3084 2150 3084 
Q 2853 3084 3261 2657 
Q 3669 2231 3669 1497 
Q 3669 778 3244 343 
Q 2819 -91 2113 -91 
Q 1303 -91 875 529 
Q 447 1150 447 2328 
Q 447 3434 972 4092 
Q 1497 4750 2381 4750 
Q 2619 4750 2861 4703 
Q 3103 4656 3366 4563 
z
" transform="scale(0.015625)"/>
       </defs>
       <use xlink:href="#DejaVuSans-30"/>
       <use xlink:href="#DejaVuSans-2e" x="63.623047"/>
       <use xlink:href="#DejaVuSans-36" x="95.410156"/>
      </g>
     </g>
    </g>
    <g id="ytick_14">
     <g id="line2d_36">
      <g>
       <use xlink:href="#mb38ee46ab1" x="478.447187" y="133.668551" style="stroke: #000000; stroke-width: 0.8"/>
      </g>
     </g>
     <g id="text_36">
      <!-- 0.8 -->
      <g transform="translate(455.544062 137.46777) scale(0.1 -0.1)">
       <defs>
        <path id="DejaVuSans-38" d="M 2034 2216 
Q 1584 2216 1326 1975 
Q 1069 1734 1069 1313 
Q 1069 891 1326 650 
Q 1584 409 2034 409 
Q 2484 409 2743 651 
Q 3003 894 3003 1313 
Q 3003 1734 2745 1975 
Q 2488 2216 2034 2216 
z
M 1403 2484 
Q 997 2584 770 2862 
Q 544 3141 544 3541 
Q 544 4100 942 4425 
Q 1341 4750 2034 4750 
Q 2731 4750 3128 4425 
Q 3525 4100 3525 3541 
Q 3525 3141 3298 2862 
Q 3072 2584 2669 2484 
Q 3125 2378 3379 2068 
Q 3634 1759 3634 1313 
Q 3634 634 3220 271 
Q 2806 -91 2034 -91 
Q 1263 -91 848 271 
Q 434 634 434 1313 
Q 434 1759 690 2068 
Q 947 2378 1403 2484 
z
M 1172 3481 
Q 1172 3119 1398 2916 
Q 1625 2713 2034 2713 
Q 2441 2713 2670 2916 
Q 2900 3119 2900 3481 
Q 2900 3844 2670 4047 
Q 2441 4250 2034 4250 
Q 1625 4250 1398 4047 
Q 1172 3844 1172 3481 
z
" transform="scale(0.015625)"/>
       </defs>
       <use xlink:href="#DejaVuSans-30"/>
       <use xlink:href="#DejaVuSans-2e" x="63.623047"/>
       <use xlink:href="#DejaVuSans-38" x="95.410156"/>
      </g>
     </g>
    </g>
    <g id="ytick_15">
     <g id="line2d_37">
      <g>
       <use xlink:href="#mb38ee46ab1" x="478.447187" y="75.421392" style="stroke: #000000; stroke-width: 0.8"/>
      </g>
     </g>
     <g id="text_37">
      <!-- 1.0 -->
      <g transform="translate(455.544062 79.22061) scale(0.1 -0.1)">
       <use xlink:href="#DejaVuSans-31"/>
       <use xlink:href="#DejaVuSans-2e" x="63.623047"/>
       <use xlink:href="#DejaVuSans-30" x="95.410156"/>
      </g>
     </g>
    </g>
    <g id="text_38">
     <!-- Difference between Numerical and Exact Solution -->
     <g transform="translate(448.6325 379.280781) rotate(-90) scale(0.14 -0.14)">
      <defs>
       <path id="DejaVuSans-44" d="M 1259 4147 
L 1259 519 
L 2022 519 
Q 2988 519 3436 956 
Q 3884 1394 3884 2338 
Q 3884 3275 3436 3711 
Q 2988 4147 2022 4147 
L 1259 4147 
z
M 628 4666 
L 1925 4666 
Q 3281 4666 3915 4102 
Q 4550 3538 4550 2338 
Q 4550 1131 3912 565 
Q 3275 0 1925 0 
L 628 0 
L 628 4666 
z
" transform="scale(0.015625)"/>
       <path id="DejaVuSans-66" d="M 2375 4863 
L 2375 4384 
L 1825 4384 
Q 1516 4384 1395 4259 
Q 1275 4134 1275 3809 
L 1275 3500 
L 2222 3500 
L 2222 3053 
L 1275 3053 
L 1275 0 
L 697 0 
L 697 3053 
L 147 3053 
L 147 3500 
L 697 3500 
L 697 3744 
Q 697 4328 969 4595 
Q 1241 4863 1831 4863 
L 2375 4863 
z
" transform="scale(0.015625)"/>
       <path id="DejaVuSans-65" d="M 3597 1894 
L 3597 1613 
L 953 1613 
Q 991 1019 1311 708 
Q 1631 397 2203 397 
Q 2534 397 2845 478 
Q 3156 559 3463 722 
L 3463 178 
Q 3153 47 2828 -22 
Q 2503 -91 2169 -91 
Q 1331 -91 842 396 
Q 353 884 353 1716 
Q 353 2575 817 3079 
Q 1281 3584 2069 3584 
Q 2775 3584 3186 3129 
Q 3597 2675 3597 1894 
z
M 3022 2063 
Q 3016 2534 2758 2815 
Q 2500 3097 2075 3097 
Q 1594 3097 1305 2825 
Q 1016 2553 972 2059 
L 3022 2063 
z
" transform="scale(0.015625)"/>
       <path id="DejaVuSans-72" d="M 2631 2963 
Q 2534 3019 2420 3045 
Q 2306 3072 2169 3072 
Q 1681 3072 1420 2755 
Q 1159 2438 1159 1844 
L 1159 0 
L 581 0 
L 581 3500 
L 1159 3500 
L 1159 2956 
Q 1341 3275 1631 3429 
Q 1922 3584 2338 3584 
Q 2397 3584 2469 3576 
Q 2541 3569 2628 3553 
L 2631 2963 
z
" transform="scale(0.015625)"/>
       <path id="DejaVuSans-63" d="M 3122 3366 
L 3122 2828 
Q 2878 2963 2633 3030 
Q 2388 3097 2138 3097 
Q 1578 3097 1268 2742 
Q 959 2388 959 1747 
Q 959 1106 1268 751 
Q 1578 397 2138 397 
Q 2388 397 2633 464 
Q 2878 531 3122 666 
L 3122 134 
Q 2881 22 2623 -34 
Q 2366 -91 2075 -91 
Q 1284 -91 818 406 
Q 353 903 353 1747 
Q 353 2603 823 3093 
Q 1294 3584 2113 3584 
Q 2378 3584 2631 3529 
Q 2884 3475 3122 3366 
z
" transform="scale(0.015625)"/>
       <path id="DejaVuSans-62" d="M 3116 1747 
Q 3116 2381 2855 2742 
Q 2594 3103 2138 3103 
Q 1681 3103 1420 2742 
Q 1159 2381 1159 1747 
Q 1159 1113 1420 752 
Q 1681 391 2138 391 
Q 2594 391 2855 752 
Q 3116 1113 3116 1747 
z
M 1159 2969 
Q 1341 3281 1617 3432 
Q 1894 3584 2278 3584 
Q 2916 3584 3314 3078 
Q 3713 2572 3713 1747 
Q 3713 922 3314 415 
Q 2916 -91 2278 -91 
Q 1894 -91 1617 61 
Q 1341 213 1159 525 
L 1159 0 
L 581 0 
L 581 4863 
L 1159 4863 
L 1159 2969 
z
" transform="scale(0.015625)"/>
       <path id="DejaVuSans-77" d="M 269 3500 
L 844 3500 
L 1563 769 
L 2278 3500 
L 2956 3500 
L 3675 769 
L 4391 3500 
L 4966 3500 
L 4050 0 
L 3372 0 
L 2619 2869 
L 1863 0 
L 1184 0 
L 269 3500 
z
" transform="scale(0.015625)"/>
       <path id="DejaVuSans-4e" d="M 628 4666 
L 1478 4666 
L 3547 763 
L 3547 4666 
L 4159 4666 
L 4159 0 
L 3309 0 
L 1241 3903 
L 1241 0 
L 628 0 
L 628 4666 
z
" transform="scale(0.015625)"/>
       <path id="DejaVuSans-75" d="M 544 1381 
L 544 3500 
L 1119 3500 
L 1119 1403 
Q 1119 906 1312 657 
Q 1506 409 1894 409 
Q 2359 409 2629 706 
Q 2900 1003 2900 1516 
L 2900 3500 
L 3475 3500 
L 3475 0 
L 2900 0 
L 2900 538 
Q 2691 219 2414 64 
Q 2138 -91 1772 -91 
Q 1169 -91 856 284 
Q 544 659 544 1381 
z
M 1991 3584 
L 1991 3584 
z
" transform="scale(0.015625)"/>
       <path id="DejaVuSans-6d" d="M 3328 2828 
Q 3544 3216 3844 3400 
Q 4144 3584 4550 3584 
Q 5097 3584 5394 3201 
Q 5691 2819 5691 2113 
L 5691 0 
L 5113 0 
L 5113 2094 
Q 5113 2597 4934 2840 
Q 4756 3084 4391 3084 
Q 3944 3084 3684 2787 
Q 3425 2491 3425 1978 
L 3425 0 
L 2847 0 
L 2847 2094 
Q 2847 2600 2669 2842 
Q 2491 3084 2119 3084 
Q 1678 3084 1418 2786 
Q 1159 2488 1159 1978 
L 1159 0 
L 581 0 
L 581 3500 
L 1159 3500 
L 1159 2956 
Q 1356 3278 1631 3431 
Q 1906 3584 2284 3584 
Q 2666 3584 2933 3390 
Q 3200 3197 3328 2828 
z
" transform="scale(0.015625)"/>
       <path id="DejaVuSans-6c" d="M 603 4863 
L 1178 4863 
L 1178 0 
L 603 0 
L 603 4863 
z
" transform="scale(0.015625)"/>
       <path id="DejaVuSans-64" d="M 2906 2969 
L 2906 4863 
L 3481 4863 
L 3481 0 
L 2906 0 
L 2906 525 
Q 2725 213 2448 61 
Q 2172 -91 1784 -91 
Q 1150 -91 751 415 
Q 353 922 353 1747 
Q 353 2572 751 3078 
Q 1150 3584 1784 3584 
Q 2172 3584 2448 3432 
Q 2725 3281 2906 2969 
z
M 947 1747 
Q 947 1113 1208 752 
Q 1469 391 1925 391 
Q 2381 391 2643 752 
Q 2906 1113 2906 1747 
Q 2906 2381 2643 2742 
Q 2381 3103 1925 3103 
Q 1469 3103 1208 2742 
Q 947 2381 947 1747 
z
" transform="scale(0.015625)"/>
       <path id="DejaVuSans-45" d="M 628 4666 
L 3578 4666 
L 3578 4134 
L 1259 4134 
L 1259 2753 
L 3481 2753 
L 3481 2222 
L 1259 2222 
L 1259 531 
L 3634 531 
L 3634 0 
L 628 0 
L 628 4666 
z
" transform="scale(0.015625)"/>
       <path id="DejaVuSans-53" d="M 3425 4513 
L 3425 3897 
Q 3066 4069 2747 4153 
Q 2428 4238 2131 4238 
Q 1616 4238 1336 4038 
Q 1056 3838 1056 3469 
Q 1056 3159 1242 3001 
Q 1428 2844 1947 2747 
L 2328 2669 
Q 3034 2534 3370 2195 
Q 3706 1856 3706 1288 
Q 3706 609 3251 259 
Q 2797 -91 1919 -91 
Q 1588 -91 1214 -16 
Q 841 59 441 206 
L 441 856 
Q 825 641 1194 531 
Q 1563 422 1919 422 
Q 2459 422 2753 634 
Q 3047 847 3047 1241 
Q 3047 1584 2836 1778 
Q 2625 1972 2144 2069 
L 1759 2144 
Q 1053 2284 737 2584 
Q 422 2884 422 3419 
Q 422 4038 858 4394 
Q 1294 4750 2059 4750 
Q 2388 4750 2728 4690 
Q 3069 4631 3425 4513 
z
" transform="scale(0.015625)"/>
       <path id="DejaVuSans-6f" d="M 1959 3097 
Q 1497 3097 1228 2736 
Q 959 2375 959 1747 
Q 959 1119 1226 758 
Q 1494 397 1959 397 
Q 2419 397 2687 759 
Q 2956 1122 2956 1747 
Q 2956 2369 2687 2733 
Q 2419 3097 1959 3097 
z
M 1959 3584 
Q 2709 3584 3137 3096 
Q 3566 2609 3566 1747 
Q 3566 888 3137 398 
Q 2709 -91 1959 -91 
Q 1206 -91 779 398 
Q 353 888 353 1747 
Q 353 2609 779 3096 
Q 1206 3584 1959 3584 
z
" transform="scale(0.015625)"/>
      </defs>
      <use xlink:href="#DejaVuSans-44"/>
      <use xlink:href="#DejaVuSans-69" x="77.001953"/>
      <use xlink:href="#DejaVuSans-66" x="104.785156"/>
      <use xlink:href="#DejaVuSans-66" x="139.990234"/>
      <use xlink:href="#DejaVuSans-65" x="175.195312"/>
      <use xlink:href="#DejaVuSans-72" x="236.71875"/>
      <use xlink:href="#DejaVuSans-65" x="275.582031"/>
      <use xlink:href="#DejaVuSans-6e" x="337.105469"/>
      <use xlink:href="#DejaVuSans-63" x="400.484375"/>
      <use xlink:href="#DejaVuSans-65" x="455.464844"/>
      <use xlink:href="#DejaVuSans-20" x="516.988281"/>
      <use xlink:href="#DejaVuSans-62" x="548.775391"/>
      <use xlink:href="#DejaVuSans-65" x="612.251953"/>
      <use xlink:href="#DejaVuSans-74" x="673.775391"/>
      <use xlink:href="#DejaVuSans-77" x="712.984375"/>
      <use xlink:href="#DejaVuSans-65" x="794.771484"/>
      <use xlink:href="#DejaVuSans-65" x="856.294922"/>
      <use xlink:href="#DejaVuSans-6e" x="917.818359"/>
      <use xlink:href="#DejaVuSans-20" x="981.197266"/>
      <use xlink:href="#DejaVuSans-4e" x="1012.984375"/>
      <use xlink:href="#DejaVuSans-75" x="1087.789062"/>
      <use xlink:href="#DejaVuSans-6d" x="1151.167969"/>
      <use xlink:href="#DejaVuSans-65" x="1248.580078"/>
      <use xlink:href="#DejaVuSans-72" x="1310.103516"/>
      <use xlink:href="#DejaVuSans-69" x="1351.216797"/>
      <use xlink:href="#DejaVuSans-63" x="1379"/>
      <use xlink:href="#DejaVuSans-61" x="1433.980469"/>
      <use xlink:href="#DejaVuSans-6c" x="1495.259766"/>
      <use xlink:href="#DejaVuSans-20" x="1523.042969"/>
      <use xlink:href="#DejaVuSans-61" x="1554.830078"/>
      <use xlink:href="#DejaVuSans-6e" x="1616.109375"/>
      <use xlink:href="#DejaVuSans-64" x="1679.488281"/>
      <use xlink:href="#DejaVuSans-20" x="1742.964844"/>
      <use xlink:href="#DejaVuSans-45" x="1774.751953"/>
      <use xlink:href="#DejaVuSans-78" x="1837.935547"/>
      <use xlink:href="#DejaVuSans-61" x="1897.115234"/>
      <use xlink:href="#DejaVuSans-63" x="1958.394531"/>
      <use xlink:href="#DejaVuSans-74" x="2013.375"/>
      <use xlink:href="#DejaVuSans-20" x="2052.583984"/>
      <use xlink:href="#DejaVuSans-53" x="2084.371094"/>
      <use xlink:href="#DejaVuSans-6f" x="2147.847656"/>
      <use xlink:href="#DejaVuSans-6c" x="2209.029297"/>
      <use xlink:href="#DejaVuSans-75" x="2236.8125"/>
      <use xlink:href="#DejaVuSans-74" x="2300.191406"/>
      <use xlink:href="#DejaVuSans-69" x="2339.400391"/>
      <use xlink:href="#DejaVuSans-6f" x="2367.183594"/>
      <use xlink:href="#DejaVuSans-6e" x="2428.365234"/>
     </g>
    </g>
   </g>
   <g id="line2d_38">
    <path d="M 495.311051 366.657187 
L 496.921223 366.529956 
L 498.531394 366.080055 
L 500.141566 365.325129 
L 501.751737 364.296894 
L 503.898633 362.579888 
L 506.582252 360.07655 
L 510.876043 356.042231 
L 512.486215 354.780307 
L 514.096386 353.779059 
L 515.706558 353.111873 
L 516.780005 352.885314 
L 517.853453 352.853236 
L 518.926901 353.029985 
L 520.000349 353.42718 
L 521.073796 354.053463 
L 522.147244 354.914279 
L 523.220692 356.0117 
L 524.294139 357.344298 
L 525.904311 359.772171 
L 527.514483 362.68479 
L 529.124654 366.03175 
L 529.661378 366.081693 
L 531.808274 360.930694 
L 535.565341 351.137882 
L 538.785684 342.888949 
L 540.932579 337.989138 
L 542.542751 334.842104 
L 544.152922 332.280761 
L 545.22637 330.953176 
L 546.299818 329.964101 
L 547.373265 329.339673 
L 548.446713 329.102486 
L 549.520161 329.271202 
L 550.593609 329.860204 
L 551.667056 330.879286 
L 552.740504 332.333402 
L 553.813952 334.222455 
L 554.887399 336.541159 
L 555.960847 339.278941 
L 557.571019 344.135215 
L 559.18119 349.821757 
L 560.791362 356.237162 
L 562.938257 365.704772 
L 563.474981 365.115889 
L 567.768772 344.327548 
L 570.989115 329.234742 
L 573.136011 320.289142 
L 574.746182 314.492303 
L 576.356354 309.676909 
L 577.429801 307.09226 
L 578.503249 305.058233 
L 579.576697 303.612269 
L 580.113421 303.120016 
L 580.650145 302.786292 
L 581.186869 302.614145 
L 581.723592 302.606219 
L 582.260316 302.764745 
L 582.79704 303.091525 
L 583.333764 303.587926 
L 584.407212 305.092825 
L 585.480659 307.281335 
L 586.554107 310.147921 
L 587.627555 313.679505 
L 588.701003 317.855439 
L 590.311174 325.263864 
L 591.921346 333.931044 
L 593.531517 343.695671 
L 595.678413 358.082996 
L 596.75186 365.712958 
L 597.288584 363.709172 
L 604.265994 313.317368 
L 606.41289 300.022935 
L 608.023061 291.446799 
L 609.633233 284.338193 
L 610.706681 280.522139 
L 611.780128 277.510536 
L 612.853576 275.351759 
L 613.3903 274.605114 
L 613.927024 274.086135 
L 614.463748 273.798508 
L 615.000472 273.745349 
L 615.537195 273.929183 
L 616.073919 274.351942 
L 616.610643 275.014946 
L 617.147367 275.918898 
L 618.220815 278.449315 
L 619.294262 281.936192 
L 620.36771 286.362312 
L 621.441158 291.700232 
L 622.514606 297.912387 
L 624.124777 308.763328 
L 625.734949 321.272014 
L 627.881844 340.099308 
L 630.565463 366.096983 
L 631.102187 361.812404 
L 637.00615 302.938765 
L 639.153045 284.046491 
L 640.763217 271.616914 
L 642.373388 261.047085 
L 643.446836 255.180724 
L 644.520284 250.349436 
L 645.593732 246.620615 
L 646.667179 244.051331 
L 647.203903 243.216336 
L 647.740627 242.687564 
L 648.277351 242.468923 
L 648.814075 242.56355 
L 649.350799 242.973799 
L 649.887522 243.701226 
L 650.424246 244.746585 
L 650.96097 246.109811 
L 652.034418 249.785503 
L 653.107866 254.711315 
L 654.181313 260.857043 
L 655.254761 268.179376 
L 656.864933 281.242704 
L 658.475104 296.582411 
L 660.085276 313.898035 
L 662.232171 339.4413 
L 664.379067 366.41248 
L 670.283029 289.968849 
L 672.429924 265.244191 
L 674.040096 248.872509 
L 675.650268 234.832104 
L 676.723715 226.954256 
L 677.797163 220.378227 
L 678.870611 215.190009 
L 679.944058 211.462565 
L 680.480782 210.16564 
L 681.017506 209.254897 
L 681.55423 208.735398 
L 682.090954 208.611238 
L 682.627678 208.885531 
L 683.164402 209.560392 
L 683.701125 210.636929 
L 684.237849 212.115226 
L 685.311297 216.272312 
L 686.384745 222.011743 
L 687.458193 229.297113 
L 688.53164 238.075664 
L 689.605088 248.278615 
L 691.21526 266.065256 
L 692.825431 286.517129 
L 694.972327 317.205945 
L 698.19267 365.136818 
L 703.559908 278.258716 
L 705.706804 246.979491 
L 707.316975 226.104056 
L 708.927147 208.028086 
L 710.000595 197.766476 
L 711.074042 189.081284 
L 712.14749 182.080762 
L 713.220938 176.857332 
L 713.757662 174.936296 
L 714.294385 173.486445 
L 714.831109 172.514398 
L 715.367833 172.025599 
L 715.904557 172.024296 
L 716.441281 172.513525 
L 716.978005 173.495092 
L 717.514729 174.969563 
L 718.051452 176.936255 
L 719.1249 182.337285 
L 720.198348 189.667576 
L 721.271796 198.876484 
L 722.345243 209.893607 
L 723.955415 229.608415 
L 725.565586 252.805394 
L 727.175758 279.017535 
L 729.322653 317.706148 
L 731.469549 359.310244 
L 732.006273 363.335241 
L 737.373511 258.099137 
L 739.520407 220.516251 
L 741.130578 195.555858 
L 742.74075 174.054252 
L 743.814198 161.916478 
L 744.887645 151.705563 
L 745.961093 143.546825 
L 747.034541 137.546151 
L 747.571265 135.382541 
L 748.107989 133.7887 
L 748.644712 132.771852 
L 749.181436 132.337802 
L 749.71816 132.49091 
L 750.254884 133.234074 
L 750.791608 134.568711 
L 751.328332 136.49475 
L 751.865056 139.010622 
L 752.938503 145.798067 
L 754.011951 154.888455 
L 755.085399 166.215347 
L 756.158846 179.688874 
L 757.769018 203.671695 
L 759.37919 231.754629 
L 760.989361 263.364957 
L 763.136257 309.842411 
L 765.283152 359.629285 
L 765.819876 360.94675 
L 770.650391 247.73893 
L 772.797286 202.142855 
L 774.407458 171.575171 
L 776.017629 144.953751 
L 777.627801 122.946811 
L 778.701248 111.126599 
L 779.774696 101.757709 
L 780.848144 94.96017 
L 781.384868 92.556418 
L 781.921592 90.829204 
L 782.458315 89.786355 
L 782.995039 89.434008 
L 783.531763 89.776589 
L 784.068487 90.816788 
L 784.605211 92.555548 
L 785.141935 94.992052 
L 785.678659 98.123716 
L 786.752106 106.453342 
L 787.825554 117.488442 
L 788.899002 131.145078 
L 789.972449 147.311928 
L 791.582621 175.960339 
L 793.192793 209.36974 
L 795.339688 260.117236 
L 798.023307 330.784227 
L 799.096755 360.433577 
L 799.633479 357.903927 
L 804.463994 225.309279 
L 806.610889 172.19298 
L 808.221061 136.708853 
L 809.831232 105.921239 
L 810.90468 88.389029 
L 811.978128 73.488054 
L 813.051575 61.393901 
L 814.125023 52.255472 
L 814.661747 48.833449 
L 815.198471 46.19322 
L 815.735195 44.34515 
L 816.271919 43.297659 
L 816.808642 43.057187 
L 817.345366 43.628169 
L 817.88209 45.013015 
L 818.418814 47.212094 
L 818.955538 50.223724 
L 819.492262 54.044167 
L 820.565709 64.086255 
L 821.639157 77.267437 
L 822.712605 93.484417 
L 823.786053 112.602261 
L 825.396224 146.348103 
L 827.006396 185.561847 
L 829.153291 244.928716 
L 831.83691 327.306276 
L 832.373634 344.477763 
L 832.373634 344.477763 
" clip-path="url(#p6a58f814d5)" style="fill: none; stroke: #1f77b4; stroke-width: 1.5; stroke-linecap: square"/>
   </g>
   <g id="line2d_39">
    <path d="M 495.311051 366.657187 
L 498.316705 366.547052 
L 501.537048 366.19841 
L 505.616149 365.514689 
L 512.808249 364.277269 
L 515.813903 364.015705 
L 518.390177 364.011489 
L 520.859107 364.234505 
L 523.220692 364.670914 
L 525.689622 365.358358 
L 528.373241 366.34869 
L 529.231999 366.60298 
L 532.667032 364.992641 
L 540.28851 361.334761 
L 542.75744 360.438401 
L 544.904336 359.884942 
L 546.836542 359.606294 
L 548.661403 359.558878 
L 550.486264 359.737212 
L 552.311125 360.149961 
L 554.135986 360.798048 
L 556.068192 361.732612 
L 558.107743 362.97567 
L 560.361983 364.615089 
L 562.938257 366.563595 
L 568.090806 361.930923 
L 571.31115 359.20245 
L 573.56539 357.55983 
L 575.497596 356.409653 
L 577.215112 355.632445 
L 578.825284 355.14288 
L 580.32811 354.913814 
L 581.830937 354.91789 
L 583.226419 355.137626 
L 584.729246 355.610016 
L 586.232073 356.32526 
L 587.842244 357.353204 
L 589.559761 358.731053 
L 591.384622 360.483553 
L 593.531517 362.86866 
L 596.215137 366.214372 
L 596.537171 366.634651 
L 596.96655 366.115113 
L 604.051305 356.928478 
L 606.1982 354.580416 
L 608.023061 352.899218 
L 609.633233 351.707952 
L 611.13606 350.876775 
L 612.531542 350.369554 
L 613.819679 350.141137 
L 615.107816 350.15181 
L 616.288609 350.376069 
L 617.576746 350.856253 
L 618.864883 351.580325 
L 620.260365 352.633365 
L 621.763192 354.06613 
L 623.373364 355.920792 
L 625.198225 358.378911 
L 627.34512 361.672209 
L 630.136084 366.40712 
L 630.243429 366.595814 
L 630.458119 366.340241 
L 636.898805 355.174088 
L 639.0457 351.95848 
L 640.870562 349.613913 
L 642.480733 347.909683 
L 643.876215 346.747825 
L 645.164352 345.958957 
L 646.345145 345.489695 
L 647.418593 345.282416 
L 648.49204 345.28943 
L 649.565488 345.513782 
L 650.638936 345.956306 
L 651.819728 346.693321 
L 653.000521 347.687535 
L 654.288658 349.055584 
L 655.68414 350.854033 
L 657.294312 353.305494 
L 659.119173 356.512197 
L 661.266068 360.755909 
L 664.057032 366.535622 
L 670.175684 353.2153 
L 672.32258 349.142124 
L 674.147441 346.151709 
L 675.650268 344.088818 
L 677.04575 342.541801 
L 678.226542 341.534899 
L 679.407335 340.822253 
L 680.480782 340.440531 
L 681.446885 340.319758 
L 682.412988 340.413497 
L 683.379091 340.723291 
L 684.452539 341.320561 
L 685.525987 342.18132 
L 686.706779 343.425662 
L 687.994916 345.125504 
L 689.390398 347.34744 
L 691.00057 350.361236 
L 692.825431 354.285449 
L 694.972327 359.45537 
L 697.763291 366.557591 
L 703.452563 351.580765 
L 705.599459 346.594617 
L 707.42432 342.902753 
L 708.927147 340.32879 
L 710.322629 338.37044 
L 711.503421 337.068357 
L 712.576869 336.184915 
L 713.542972 335.644658 
L 714.509075 335.352825 
L 715.367833 335.305819 
L 716.226591 335.460794 
L 717.192694 335.877329 
L 718.158797 336.549216 
L 719.232245 337.591307 
L 720.413037 339.088189 
L 721.701175 341.123497 
L 723.096657 343.774072 
L 724.706828 347.357548 
L 726.531689 352.009217 
L 728.678585 358.118871 
L 731.469549 366.595842 
L 736.944132 349.666134 
L 739.091028 343.782601 
L 740.915889 339.412182 
L 742.418716 336.352327 
L 743.814198 334.010774 
L 744.99499 332.440566 
L 746.068438 331.360982 
L 747.034541 330.684683 
L 747.893299 330.325082 
L 748.752057 330.197005 
L 749.610815 330.302947 
L 750.469574 330.643901 
L 751.328332 331.219345 
L 752.294435 332.144395 
L 753.367882 333.510777 
L 754.548675 335.412888 
L 755.836812 337.942582 
L 757.232294 341.182233 
L 758.842466 345.501673 
L 760.774672 351.384051 
L 763.136257 359.355876 
L 765.175807 366.65077 
L 770.543046 347.554259 
L 772.689941 340.777299 
L 774.514802 335.738387 
L 776.017629 332.205421 
L 777.305766 329.68358 
L 778.486559 327.820178 
L 779.560007 326.521554 
L 780.52611 325.688717 
L 781.384868 325.223358 
L 782.243626 325.021683 
L 782.995039 325.063912 
L 783.746453 325.311273 
L 784.605211 325.845004 
L 785.463969 326.644784 
L 786.430072 327.858154 
L 787.50352 329.586774 
L 788.684312 331.934053 
L 789.972449 334.998997 
L 791.475276 339.187789 
L 793.192793 344.689628 
L 795.232343 352.035279 
L 797.915963 362.630123 
L 798.882066 366.591599 
L 799.2041 365.394544 
L 804.034615 345.918656 
L 806.18151 338.178127 
L 808.006371 332.397557 
L 809.509198 328.323351 
L 810.90468 325.177591 
L 812.085472 323.040953 
L 813.15892 321.543419 
L 814.125023 320.573612 
L 814.983781 320.020917 
L 815.735195 319.780552 
L 816.486608 319.769701 
L 817.238022 319.989576 
L 817.989435 320.440253 
L 818.848193 321.236512 
L 819.814296 322.486608 
L 820.780399 324.104272 
L 821.853847 326.319494 
L 823.141984 329.531688 
L 824.537466 333.647404 
L 826.147638 339.135627 
L 827.972499 346.171506 
L 830.226739 355.777601 
L 832.588324 366.502105 
L 832.588324 366.502105 
" clip-path="url(#p6a58f814d5)" style="fill: none; stroke: #ff7f0e; stroke-width: 1.5; stroke-linecap: square"/>
   </g>
   <g id="line2d_40">
    <path d="M 495.311051 366.657187 
L 499.55117 366.547351 
L 504.542702 366.183519 
L 514.8478 365.368995 
L 518.604867 365.34597 
L 521.986227 365.54452 
L 525.367587 365.965429 
L 529.661378 366.528454 
L 535.189634 365.19064 
L 540.771562 363.908725 
L 544.045577 363.384059 
L 546.890214 363.151656 
L 549.520161 363.161839 
L 552.042763 363.394564 
L 554.565365 363.850073 
L 557.195312 364.55082 
L 560.147293 365.575785 
L 562.99193 366.571802 
L 573.3507 362.210788 
L 575.926975 361.467253 
L 578.234887 361.027738 
L 580.381783 360.842911 
L 582.421333 360.885464 
L 584.460884 361.149272 
L 586.554107 361.650041 
L 588.701003 362.395586 
L 591.008915 363.434896 
L 593.638862 364.869798 
L 596.644516 366.57478 
L 604.802718 361.410928 
L 607.271648 360.175426 
L 609.418543 359.341703 
L 611.350749 358.821275 
L 613.17561 358.553544 
L 614.946799 358.516185 
L 616.717988 358.705816 
L 618.489177 359.123808 
L 620.314038 359.787803 
L 622.246244 360.734572 
L 624.339467 362.01529 
L 626.754724 363.768503 
L 629.81405 366.288851 
L 630.297102 366.608418 
L 637.381857 360.609765 
L 639.797114 358.910793 
L 641.836665 357.739572 
L 643.661526 356.940746 
L 645.379042 356.431839 
L 646.989214 356.186073 
L 648.545713 356.171579 
L 650.102212 356.381356 
L 651.658711 356.815488 
L 653.268883 357.495526 
L 654.986399 358.467555 
L 656.864933 359.79888 
L 658.958156 361.570034 
L 661.427085 363.967105 
L 664.00336 366.614739 
L 664.057032 366.55636 
L 670.390374 359.82711 
L 672.751959 357.684785 
L 674.737837 356.175241 
L 676.509026 355.10565 
L 678.119197 354.390776 
L 679.622024 353.96406 
L 681.071179 353.78453 
L 682.466661 353.833562 
L 683.862143 354.102877 
L 685.311297 354.614282 
L 686.814124 355.387801 
L 688.424295 356.478313 
L 690.141812 357.917304 
L 692.074018 359.836523 
L 694.328258 362.403353 
L 697.333912 366.194726 
L 697.709618 366.62863 
L 703.667253 359.001769 
L 705.975166 356.441 
L 707.907372 354.61534 
L 709.624888 353.293319 
L 711.181387 352.374244 
L 712.630541 351.778692 
L 713.972351 351.463974 
L 715.260488 351.383593 
L 716.548626 351.524315 
L 717.836763 351.886739 
L 719.178573 352.497122 
L 720.574055 353.376752 
L 722.076881 354.589618 
L 723.740725 356.229389 
L 725.619259 358.412442 
L 727.819827 361.335987 
L 730.664463 365.516478 
L 731.415877 366.650181 
L 731.469549 366.567847 
L 737.105149 358.122348 
L 739.413062 355.101765 
L 741.291596 352.991367 
L 742.955439 351.444969 
L 744.458266 350.345601 
L 745.853748 349.600683 
L 747.141886 349.16308 
L 748.37635 348.977518 
L 749.557143 349.018692 
L 750.737935 349.275278 
L 751.9724 349.772644 
L 753.260538 350.536661 
L 754.65602 351.636837 
L 756.158846 353.120872 
L 757.82269 355.095212 
L 759.701224 357.689462 
L 761.901792 361.123218 
L 764.961118 366.351782 
L 765.122135 366.634893 
L 765.175807 366.58503 
L 770.596718 357.263446 
L 772.850958 353.851889 
L 774.729492 351.393432 
L 776.339663 349.63089 
L 777.788818 348.355418 
L 779.130628 347.461224 
L 780.365092 346.897129 
L 781.545885 346.598788 
L 782.673005 346.539378 
L 783.800125 346.70262 
L 784.927245 347.088502 
L 786.108038 347.728806 
L 787.342503 348.650217 
L 788.684312 349.932256 
L 790.187139 351.693787 
L 791.850983 354.008609 
L 793.729517 357.019196 
L 796.037429 361.168602 
L 798.882066 366.609959 
L 798.935738 366.503255 
L 804.141959 356.393463 
L 806.3962 352.522796 
L 808.274733 349.724701 
L 809.884905 347.710586 
L 811.334059 346.244883 
L 812.622196 345.243546 
L 813.802989 344.590216 
L 814.930109 344.212143 
L 816.003557 344.080663 
L 817.077004 344.175152 
L 818.150452 344.496228 
L 819.277572 345.07537 
L 820.458365 345.942953 
L 821.746502 347.183807 
L 823.141984 348.857068 
L 824.698483 351.096323 
L 826.415999 353.972593 
L 828.45555 357.846394 
L 831.031825 363.249183 
L 832.534651 366.55267 
L 832.534651 366.55267 
" clip-path="url(#p6a58f814d5)" style="fill: none; stroke: #2ca02c; stroke-width: 1.5; stroke-linecap: square"/>
   </g>
   <g id="patch_9">
    <path d="M 478.447187 382.837187 
L 478.447187 26.877187 
" style="fill: none; stroke: #000000; stroke-width: 0.8; stroke-linejoin: miter; stroke-linecap: square"/>
   </g>
   <g id="patch_10">
    <path d="M 849.452187 382.837187 
L 849.452187 26.877187 
" style="fill: none; stroke: #000000; stroke-width: 0.8; stroke-linejoin: miter; stroke-linecap: square"/>
   </g>
   <g id="patch_11">
    <path d="M 478.447187 382.837187 
L 849.452187 382.837187 
" style="fill: none; stroke: #000000; stroke-width: 0.8; stroke-linejoin: miter; stroke-linecap: square"/>
   </g>
   <g id="patch_12">
    <path d="M 478.447187 26.877187 
L 849.452187 26.877187 
" style="fill: none; stroke: #000000; stroke-width: 0.8; stroke-linejoin: miter; stroke-linecap: square"/>
   </g>
   <g id="text_39">
    <!-- (b) -->
    <g transform="translate(651.213281 20.877187) scale(0.18 -0.18)">
     <use xlink:href="#DejaVuSans-28"/>
     <use xlink:href="#DejaVuSans-62" x="39.013672"/>
     <use xlink:href="#DejaVuSans-29" x="102.490234"/>
    </g>
   </g>
   <g id="legend_2">
    <g id="patch_13">
     <path d="M 486.847187 89.318437 
L 584.889062 89.318437 
Q 587.289062 89.318437 587.289062 86.918437 
L 587.289062 35.277187 
Q 587.289062 32.877187 584.889062 32.877187 
L 486.847187 32.877187 
Q 484.447187 32.877187 484.447187 35.277187 
L 484.447187 86.918437 
Q 484.447187 89.318437 486.847187 89.318437 
z
" style="fill: #ffffff; opacity: 0.8; stroke: #cccccc; stroke-linejoin: miter"/>
    </g>
    <g id="line2d_41">
     <path d="M 489.247187 42.595312 
L 501.247187 42.595312 
L 513.247187 42.595312 
" style="fill: none; stroke: #1f77b4; stroke-width: 1.5; stroke-linecap: square"/>
    </g>
    <g id="text_40">
     <!-- h = 0.05 -->
     <g transform="translate(522.847187 46.795312) scale(0.12 -0.12)">
      <use xlink:href="#DejaVuSans-68"/>
      <use xlink:href="#DejaVuSans-20" x="63.378906"/>
      <use xlink:href="#DejaVuSans-3d" x="95.166016"/>
      <use xlink:href="#DejaVuSans-20" x="178.955078"/>
      <use xlink:href="#DejaVuSans-30" x="210.742188"/>
      <use xlink:href="#DejaVuSans-2e" x="274.365234"/>
      <use xlink:href="#DejaVuSans-30" x="306.152344"/>
      <use xlink:href="#DejaVuSans-35" x="369.775391"/>
     </g>
    </g>
    <g id="line2d_42">
     <path d="M 489.247187 60.209062 
L 501.247187 60.209062 
L 513.247187 60.209062 
" style="fill: none; stroke: #ff7f0e; stroke-width: 1.5; stroke-linecap: square"/>
    </g>
    <g id="text_41">
     <!-- h = 0.01 -->
     <g transform="translate(522.847187 64.409062) scale(0.12 -0.12)">
      <use xlink:href="#DejaVuSans-68"/>
      <use xlink:href="#DejaVuSans-20" x="63.378906"/>
      <use xlink:href="#DejaVuSans-3d" x="95.166016"/>
      <use xlink:href="#DejaVuSans-20" x="178.955078"/>
      <use xlink:href="#DejaVuSans-30" x="210.742188"/>
      <use xlink:href="#DejaVuSans-2e" x="274.365234"/>
      <use xlink:href="#DejaVuSans-30" x="306.152344"/>
      <use xlink:href="#DejaVuSans-31" x="369.775391"/>
     </g>
    </g>
    <g id="line2d_43">
     <path d="M 489.247187 77.822812 
L 501.247187 77.822812 
L 513.247187 77.822812 
" style="fill: none; stroke: #2ca02c; stroke-width: 1.5; stroke-linecap: square"/>
    </g>
    <g id="text_42">
     <!-- h = 0.005 -->
     <g transform="translate(522.847187 82.022812) scale(0.12 -0.12)">
      <use xlink:href="#DejaVuSans-68"/>
      <use xlink:href="#DejaVuSans-20" x="63.378906"/>
      <use xlink:href="#DejaVuSans-3d" x="95.166016"/>
      <use xlink:href="#DejaVuSans-20" x="178.955078"/>
      <use xlink:href="#DejaVuSans-30" x="210.742188"/>
      <use xlink:href="#DejaVuSans-2e" x="274.365234"/>
      <use xlink:href="#DejaVuSans-30" x="306.152344"/>
      <use xlink:href="#DejaVuSans-30" x="369.775391"/>
      <use xlink:href="#DejaVuSans-35" x="433.398438"/>
     </g>
    </g>
   </g>
  </g>
 </g>
 <defs>
  <clipPath id="pc02dfb84c3">
   <rect x="56.032188" y="26.877187" width="371.005" height="355.96"/>
  </clipPath>
  <clipPath id="p6a58f814d5">
   <rect x="478.447187" y="26.877187" width="371.005" height="355.96"/>
  </clipPath>
 </defs>
</svg>
