<?xml version="1.0" encoding="utf-8" standalone="no"?>
<!DOCTYPE svg PUBLIC "-//W3C//DTD SVG 1.1//EN"
  "http://www.w3.org/Graphics/SVG/1.1/DTD/svg11.dtd">
<svg xmlns:xlink="http://www.w3.org/1999/xlink" width="856.651562pt" height="424.264687pt" viewBox="0 0 856.651562 424.264687" xmlns="http://www.w3.org/2000/svg" version="1.1">
 <metadata>
  <rdf:RDF xmlns:dc="http://purl.org/dc/elements/1.1/" xmlns:cc="http://creativecommons.org/ns#" xmlns:rdf="http://www.w3.org/1999/02/22-rdf-syntax-ns#">
   <cc:Work>
    <dc:type rdf:resource="http://purl.org/dc/dcmitype/StillImage"/>
    <dc:date>2024-10-01T01:10:19.320031</dc:date>
    <dc:format>image/svg+xml</dc:format>
    <dc:creator>
     <cc:Agent>
      <dc:title>Matplotlib v3.8.4, https://matplotlib.org/</dc:title>
     </cc:Agent>
    </dc:creator>
   </cc:Work>
  </rdf:RDF>
 </metadata>
 <defs>
  <style type="text/css">*{stroke-linejoin: round; stroke-linecap: butt}</style>
 </defs>
 <g id="figure_1">
  <g id="patch_1">
   <path d="M 0 424.264687 
L 856.651562 424.264687 
L 856.651562 0 
L 0 0 
z
" style="fill: #ffffff"/>
  </g>
  <g id="axes_1">
   <g id="patch_2">
    <path d="M 46.491563 382.837187 
L 422.266562 382.837187 
L 422.266562 26.877187 
L 46.491563 26.877187 
z
" style="fill: #ffffff"/>
   </g>
   <g id="matplotlib.axis_1">
    <g id="xtick_1">
     <g id="line2d_1">
      <defs>
       <path id="me7be93d04a" d="M 0 0 
L 0 3.5 
" style="stroke: #000000; stroke-width: 0.8"/>
      </defs>
      <g>
       <use xlink:href="#me7be93d04a" x="63.572244" y="382.837187" style="stroke: #000000; stroke-width: 0.8"/>
      </g>
     </g>
     <g id="text_1">
      <!-- 0 -->
      <g transform="translate(60.390994 397.435625) scale(0.1 -0.1)">
       <defs>
        <path id="DejaVuSans-30" d="M 2034 4250 
Q 1547 4250 1301 3770 
Q 1056 3291 1056 2328 
Q 1056 1369 1301 889 
Q 1547 409 2034 409 
Q 2525 409 2770 889 
Q 3016 1369 3016 2328 
Q 3016 3291 2770 3770 
Q 2525 4250 2034 4250 
z
M 2034 4750 
Q 2819 4750 3233 4129 
Q 3647 3509 3647 2328 
Q 3647 1150 3233 529 
Q 2819 -91 2034 -91 
Q 1250 -91 836 529 
Q 422 1150 422 2328 
Q 422 3509 836 4129 
Q 1250 4750 2034 4750 
z
" transform="scale(0.015625)"/>
       </defs>
       <use xlink:href="#DejaVuSans-30"/>
      </g>
     </g>
    </g>
    <g id="xtick_2">
     <g id="line2d_2">
      <g>
       <use xlink:href="#me7be93d04a" x="117.882838" y="382.837187" style="stroke: #000000; stroke-width: 0.8"/>
      </g>
     </g>
     <g id="text_2">
      <!-- 5 -->
      <g transform="translate(114.701588 397.435625) scale(0.1 -0.1)">
       <defs>
        <path id="DejaVuSans-35" d="M 691 4666 
L 3169 4666 
L 3169 4134 
L 1269 4134 
L 1269 2991 
Q 1406 3038 1543 3061 
Q 1681 3084 1819 3084 
Q 2600 3084 3056 2656 
Q 3513 2228 3513 1497 
Q 3513 744 3044 326 
Q 2575 -91 1722 -91 
Q 1428 -91 1123 -41 
Q 819 9 494 109 
L 494 744 
Q 775 591 1075 516 
Q 1375 441 1709 441 
Q 2250 441 2565 725 
Q 2881 1009 2881 1497 
Q 2881 1984 2565 2268 
Q 2250 2553 1709 2553 
Q 1456 2553 1204 2497 
Q 953 2441 691 2322 
L 691 4666 
z
" transform="scale(0.015625)"/>
       </defs>
       <use xlink:href="#DejaVuSans-35"/>
      </g>
     </g>
    </g>
    <g id="xtick_3">
     <g id="line2d_3">
      <g>
       <use xlink:href="#me7be93d04a" x="172.193432" y="382.837187" style="stroke: #000000; stroke-width: 0.8"/>
      </g>
     </g>
     <g id="text_3">
      <!-- 10 -->
      <g transform="translate(165.830932 397.435625) scale(0.1 -0.1)">
       <defs>
        <path id="DejaVuSans-31" d="M 794 531 
L 1825 531 
L 1825 4091 
L 703 3866 
L 703 4441 
L 1819 4666 
L 2450 4666 
L 2450 531 
L 3481 531 
L 3481 0 
L 794 0 
L 794 531 
z
" transform="scale(0.015625)"/>
       </defs>
       <use xlink:href="#DejaVuSans-31"/>
       <use xlink:href="#DejaVuSans-30" x="63.623047"/>
      </g>
     </g>
    </g>
    <g id="xtick_4">
     <g id="line2d_4">
      <g>
       <use xlink:href="#me7be93d04a" x="226.504026" y="382.837187" style="stroke: #000000; stroke-width: 0.8"/>
      </g>
     </g>
     <g id="text_4">
      <!-- 15 -->
      <g transform="translate(220.141526 397.435625) scale(0.1 -0.1)">
       <use xlink:href="#DejaVuSans-31"/>
       <use xlink:href="#DejaVuSans-35" x="63.623047"/>
      </g>
     </g>
    </g>
    <g id="xtick_5">
     <g id="line2d_5">
      <g>
       <use xlink:href="#me7be93d04a" x="280.81462" y="382.837187" style="stroke: #000000; stroke-width: 0.8"/>
      </g>
     </g>
     <g id="text_5">
      <!-- 20 -->
      <g transform="translate(274.45212 397.435625) scale(0.1 -0.1)">
       <defs>
        <path id="DejaVuSans-32" d="M 1228 531 
L 3431 531 
L 3431 0 
L 469 0 
L 469 531 
Q 828 903 1448 1529 
Q 2069 2156 2228 2338 
Q 2531 2678 2651 2914 
Q 2772 3150 2772 3378 
Q 2772 3750 2511 3984 
Q 2250 4219 1831 4219 
Q 1534 4219 1204 4116 
Q 875 4013 500 3803 
L 500 4441 
Q 881 4594 1212 4672 
Q 1544 4750 1819 4750 
Q 2544 4750 2975 4387 
Q 3406 4025 3406 3419 
Q 3406 3131 3298 2873 
Q 3191 2616 2906 2266 
Q 2828 2175 2409 1742 
Q 1991 1309 1228 531 
z
" transform="scale(0.015625)"/>
       </defs>
       <use xlink:href="#DejaVuSans-32"/>
       <use xlink:href="#DejaVuSans-30" x="63.623047"/>
      </g>
     </g>
    </g>
    <g id="xtick_6">
     <g id="line2d_6">
      <g>
       <use xlink:href="#me7be93d04a" x="335.125214" y="382.837187" style="stroke: #000000; stroke-width: 0.8"/>
      </g>
     </g>
     <g id="text_6">
      <!-- 25 -->
      <g transform="translate(328.762714 397.435625) scale(0.1 -0.1)">
       <use xlink:href="#DejaVuSans-32"/>
       <use xlink:href="#DejaVuSans-35" x="63.623047"/>
      </g>
     </g>
    </g>
    <g id="xtick_7">
     <g id="line2d_7">
      <g>
       <use xlink:href="#me7be93d04a" x="389.435808" y="382.837187" style="stroke: #000000; stroke-width: 0.8"/>
      </g>
     </g>
     <g id="text_7">
      <!-- 30 -->
      <g transform="translate(383.073308 397.435625) scale(0.1 -0.1)">
       <defs>
        <path id="DejaVuSans-33" d="M 2597 2516 
Q 3050 2419 3304 2112 
Q 3559 1806 3559 1356 
Q 3559 666 3084 287 
Q 2609 -91 1734 -91 
Q 1441 -91 1130 -33 
Q 819 25 488 141 
L 488 750 
Q 750 597 1062 519 
Q 1375 441 1716 441 
Q 2309 441 2620 675 
Q 2931 909 2931 1356 
Q 2931 1769 2642 2001 
Q 2353 2234 1838 2234 
L 1294 2234 
L 1294 2753 
L 1863 2753 
Q 2328 2753 2575 2939 
Q 2822 3125 2822 3475 
Q 2822 3834 2567 4026 
Q 2313 4219 1838 4219 
Q 1578 4219 1281 4162 
Q 984 4106 628 3988 
L 628 4550 
Q 988 4650 1302 4700 
Q 1616 4750 1894 4750 
Q 2613 4750 3031 4423 
Q 3450 4097 3450 3541 
Q 3450 3153 3228 2886 
Q 3006 2619 2597 2516 
z
" transform="scale(0.015625)"/>
       </defs>
       <use xlink:href="#DejaVuSans-33"/>
       <use xlink:href="#DejaVuSans-30" x="63.623047"/>
      </g>
     </g>
    </g>
    <g id="text_8">
     <!-- t -->
     <g transform="translate(231.634844 414.153125) scale(0.14 -0.14)">
      <defs>
       <path id="DejaVuSans-74" d="M 1172 4494 
L 1172 3500 
L 2356 3500 
L 2356 3053 
L 1172 3053 
L 1172 1153 
Q 1172 725 1289 603 
Q 1406 481 1766 481 
L 2356 481 
L 2356 0 
L 1766 0 
Q 1100 0 847 248 
Q 594 497 594 1153 
L 594 3053 
L 172 3053 
L 172 3500 
L 594 3500 
L 594 4494 
L 1172 4494 
z
" transform="scale(0.015625)"/>
      </defs>
      <use xlink:href="#DejaVuSans-74"/>
     </g>
    </g>
   </g>
   <g id="matplotlib.axis_2">
    <g id="ytick_1">
     <g id="line2d_8">
      <defs>
       <path id="madca82798e" d="M 0 0 
L -3.5 0 
" style="stroke: #000000; stroke-width: 0.8"/>
      </defs>
      <g>
       <use xlink:href="#madca82798e" x="46.491563" y="364.57777" style="stroke: #000000; stroke-width: 0.8"/>
      </g>
     </g>
     <g id="text_9">
      <!-- −2 -->
      <g transform="translate(24.749375 368.376989) scale(0.1 -0.1)">
       <defs>
        <path id="DejaVuSans-2212" d="M 678 2272 
L 4684 2272 
L 4684 1741 
L 678 1741 
L 678 2272 
z
" transform="scale(0.015625)"/>
       </defs>
       <use xlink:href="#DejaVuSans-2212"/>
       <use xlink:href="#DejaVuSans-32" x="83.789062"/>
      </g>
     </g>
    </g>
    <g id="ytick_2">
     <g id="line2d_9">
      <g>
       <use xlink:href="#madca82798e" x="46.491563" y="287.896131" style="stroke: #000000; stroke-width: 0.8"/>
      </g>
     </g>
     <g id="text_10">
      <!-- −1 -->
      <g transform="translate(24.749375 291.69535) scale(0.1 -0.1)">
       <use xlink:href="#DejaVuSans-2212"/>
       <use xlink:href="#DejaVuSans-31" x="83.789062"/>
      </g>
     </g>
    </g>
    <g id="ytick_3">
     <g id="line2d_10">
      <g>
       <use xlink:href="#madca82798e" x="46.491563" y="211.214492" style="stroke: #000000; stroke-width: 0.8"/>
      </g>
     </g>
     <g id="text_11">
      <!-- 0 -->
      <g transform="translate(33.129063 215.013711) scale(0.1 -0.1)">
       <use xlink:href="#DejaVuSans-30"/>
      </g>
     </g>
    </g>
    <g id="ytick_4">
     <g id="line2d_11">
      <g>
       <use xlink:href="#madca82798e" x="46.491563" y="134.532853" style="stroke: #000000; stroke-width: 0.8"/>
      </g>
     </g>
     <g id="text_12">
      <!-- 1 -->
      <g transform="translate(33.129063 138.332071) scale(0.1 -0.1)">
       <use xlink:href="#DejaVuSans-31"/>
      </g>
     </g>
    </g>
    <g id="ytick_5">
     <g id="line2d_12">
      <g>
       <use xlink:href="#madca82798e" x="46.491563" y="57.851214" style="stroke: #000000; stroke-width: 0.8"/>
      </g>
     </g>
     <g id="text_13">
      <!-- 2 -->
      <g transform="translate(33.129063 61.650432) scale(0.1 -0.1)">
       <use xlink:href="#DejaVuSans-32"/>
      </g>
     </g>
    </g>
    <g id="text_14">
     <!-- v(t) -->
     <g transform="translate(17.837812 217.206719) rotate(-90) scale(0.14 -0.14)">
      <defs>
       <path id="DejaVuSans-76" d="M 191 3500 
L 800 3500 
L 1894 563 
L 2988 3500 
L 3597 3500 
L 2284 0 
L 1503 0 
L 191 3500 
z
" transform="scale(0.015625)"/>
       <path id="DejaVuSans-28" d="M 1984 4856 
Q 1566 4138 1362 3434 
Q 1159 2731 1159 2009 
Q 1159 1288 1364 580 
Q 1569 -128 1984 -844 
L 1484 -844 
Q 1016 -109 783 600 
Q 550 1309 550 2009 
Q 550 2706 781 3412 
Q 1013 4119 1484 4856 
L 1984 4856 
z
" transform="scale(0.015625)"/>
       <path id="DejaVuSans-29" d="M 513 4856 
L 1013 4856 
Q 1481 4119 1714 3412 
Q 1947 2706 1947 2009 
Q 1947 1309 1714 600 
Q 1481 -109 1013 -844 
L 513 -844 
Q 928 -128 1133 580 
Q 1338 1288 1338 2009 
Q 1338 2731 1133 3434 
Q 928 4138 513 4856 
z
" transform="scale(0.015625)"/>
      </defs>
      <use xlink:href="#DejaVuSans-76"/>
      <use xlink:href="#DejaVuSans-28" x="59.179688"/>
      <use xlink:href="#DejaVuSans-74" x="98.193359"/>
      <use xlink:href="#DejaVuSans-29" x="137.402344"/>
     </g>
    </g>
   </g>
   <g id="line2d_13">
    <path d="M 63.572244 134.532853 
L 64.11535 134.532853 
L 64.658456 134.724557 
L 65.201562 135.107965 
L 65.744668 135.682598 
L 66.83088 137.401226 
L 67.917092 139.867053 
L 69.003304 143.059144 
L 70.089516 146.949195 
L 71.175727 151.501775 
L 72.805045 159.478726 
L 74.434363 168.68068 
L 76.606787 182.509642 
L 79.322317 201.538244 
L 85.839588 248.304924 
L 88.012012 262.049234 
L 89.641329 271.141132 
L 91.270647 278.951915 
L 92.356859 283.354501 
L 93.443071 287.057276 
L 94.529283 290.019686 
L 95.615495 292.208382 
L 96.158601 293.004229 
L 96.701707 293.597591 
L 97.244813 293.986478 
L 97.787919 294.169408 
L 98.331024 294.145408 
L 98.87413 293.91402 
L 99.417236 293.475305 
L 99.960342 292.829841 
L 101.046554 290.923572 
L 102.132766 288.21017 
L 103.218978 284.712746 
L 104.30519 280.462371 
L 105.391402 275.497806 
L 107.02072 266.814603 
L 108.650037 256.814067 
L 110.822461 241.806855 
L 113.537991 221.188344 
L 120.055262 170.641009 
L 122.227686 155.825333 
L 123.857004 146.040292 
L 125.486321 137.649322 
L 126.572533 132.929681 
L 127.658745 128.96975 
L 128.744957 125.812955 
L 129.831169 123.494906 
L 130.374275 122.659302 
L 130.917381 122.042997 
L 131.460487 121.648079 
L 132.003593 121.476091 
L 132.546699 121.528018 
L 133.089805 121.804292 
L 133.632911 122.304781 
L 134.176017 123.028796 
L 135.262228 125.141839 
L 136.34844 128.126725 
L 137.434652 131.957951 
L 138.520864 136.601418 
L 139.607076 142.014728 
L 141.236394 151.466039 
L 142.865712 162.333873 
L 145.038135 178.619023 
L 147.753665 200.959481 
L 154.270936 255.591226 
L 156.44336 271.561038 
L 158.072678 282.091427 
L 159.701996 291.104931 
L 160.788208 296.163866 
L 161.874419 300.398102 
L 162.960631 303.761143 
L 164.046843 306.214975 
L 164.589949 307.091484 
L 165.133055 307.730493 
L 165.676161 308.129808 
L 166.219267 308.287834 
L 166.762373 308.203572 
L 167.305479 307.876626 
L 167.848585 307.307208 
L 168.391691 306.496134 
L 169.477903 304.155318 
L 170.564115 300.872795 
L 171.650326 296.676695 
L 172.736538 291.604433 
L 173.82275 285.702375 
L 175.452068 275.415735 
L 177.081386 263.60602 
L 179.25381 245.934867 
L 181.969339 221.72952 
L 188.486611 162.685362 
L 190.659034 145.472314 
L 192.288352 134.140496 
L 193.91767 124.459089 
L 195.003882 119.037118 
L 196.090094 114.510353 
L 197.176306 110.928571 
L 198.262517 108.332345 
L 198.805623 107.413862 
L 199.348729 106.752585 
L 199.891835 106.35081 
L 200.434941 106.210189 
L 200.978047 106.331728 
L 201.521153 106.715777 
L 202.064259 107.362033 
L 202.607365 108.269536 
L 203.693577 110.861167 
L 204.779789 114.469932 
L 205.866001 119.064814 
L 206.952213 124.604772 
L 208.58153 134.573282 
L 210.210848 146.342609 
L 211.840166 159.661261 
L 214.01259 179.326748 
L 217.271225 211.330116 
L 221.616073 254.230537 
L 223.788497 273.842171 
L 225.417814 287.075947 
L 227.047132 298.700919 
L 228.67645 308.443209 
L 229.762662 313.774973 
L 230.848874 318.107184 
L 231.935086 321.391487 
L 233.021298 323.589774 
L 233.564404 324.272662 
L 234.10751 324.674611 
L 234.650615 324.793915 
L 235.193721 324.629568 
L 235.736827 324.181274 
L 236.279933 323.449441 
L 236.823039 322.435191 
L 237.909251 319.567466 
L 238.995463 315.601177 
L 240.081675 310.570512 
L 241.167887 304.520482 
L 242.797205 293.658118 
L 244.426522 280.857553 
L 246.05584 266.392469 
L 248.228264 245.062668 
L 251.4869 210.405992 
L 255.831747 164.043738 
L 258.004171 142.890938 
L 259.633489 128.637563 
L 261.262807 116.136551 
L 262.892124 105.682585 
L 263.978336 99.976367 
L 265.064548 95.35466 
L 266.15076 91.869137 
L 266.693866 90.565569 
L 267.236972 89.560365 
L 267.780078 88.856782 
L 268.323184 88.457335 
L 268.86629 88.363783 
L 269.409396 88.577123 
L 269.952502 89.09759 
L 270.495608 89.92465 
L 271.038713 91.057003 
L 272.124925 94.228551 
L 273.211137 98.586567 
L 274.297349 104.093384 
L 275.383561 110.69965 
L 277.012879 122.535011 
L 278.642197 136.456312 
L 280.271514 152.165746 
L 282.443938 175.299785 
L 285.702574 212.828457 
L 290.047421 262.930159 
L 292.219845 285.744265 
L 293.849163 301.094975 
L 295.478481 314.537105 
L 297.107799 325.753606 
L 298.19401 331.859651 
L 299.280222 336.789059 
L 300.366434 340.486615 
L 300.90954 341.859473 
L 301.452646 342.909152 
L 301.995752 343.632218 
L 302.538858 344.026047 
L 303.081964 344.088832 
L 303.62507 343.819588 
L 304.168176 343.218158 
L 304.711282 342.285215 
L 305.254388 341.022264 
L 306.3406 337.516487 
L 307.426811 332.729351 
L 308.513023 326.70234 
L 309.599235 319.489557 
L 311.228553 306.595123 
L 312.857871 291.455885 
L 314.487189 274.395881 
L 316.659612 249.305987 
L 319.918248 208.668714 
L 324.263096 154.527829 
L 326.435519 129.922996 
L 328.064837 113.39136 
L 329.694155 98.938283 
L 331.323473 86.904858 
L 332.409685 80.37198 
L 333.495897 75.115639 
L 334.582108 71.194823 
L 335.125214 69.750112 
L 335.66832 68.655451 
L 336.211426 67.91445 
L 336.754532 67.529846 
L 337.297638 67.503493 
L 337.840744 67.836352 
L 338.38385 68.528488 
L 338.926956 69.579069 
L 339.470062 70.986365 
L 340.556274 74.859705 
L 341.642486 80.116836 
L 342.728698 86.712082 
L 343.814909 94.586147 
L 345.444227 108.633262 
L 347.073545 125.095998 
L 348.702863 143.621795 
L 350.875287 170.831822 
L 354.133922 214.833678 
L 358.47877 273.337351 
L 360.651194 299.872323 
L 362.280511 317.674766 
L 363.909829 333.213708 
L 365.539147 346.122212 
L 366.625359 353.110656 
L 367.711571 358.714237 
L 368.797783 362.869951 
L 369.340889 364.389029 
L 369.883995 365.528968 
L 370.427101 366.285971 
L 370.970206 366.657187 
L 371.513312 366.640725 
L 372.056418 366.235656 
L 372.599524 365.442022 
L 373.14263 364.260835 
L 373.685736 362.694078 
L 374.771948 358.416635 
L 375.85816 352.644837 
L 376.944372 345.428956 
L 378.030584 336.833967 
L 379.659901 321.532374 
L 381.289219 303.631509 
L 383.461643 276.391102 
L 386.177173 238.423372 
L 393.780656 128.462686 
L 395.95308 101.499612 
L 397.582398 83.926231 
L 399.211715 69.087093 
L 400.297927 60.891198 
L 401.384139 54.158445 
L 402.470351 48.963528 
L 403.556563 45.366128 
L 404.099669 44.180872 
L 404.642775 43.410238 
L 405.185881 43.057187 
L 405.185881 43.057187 
" clip-path="url(#p62fee56fb6)" style="fill: none; stroke: #1f77b4; stroke-width: 1.5; stroke-linecap: square"/>
   </g>
   <g id="line2d_14">
    <path d="M 63.572244 134.532853 
L 64.11535 134.609531 
L 64.767077 134.954349 
L 65.418805 135.573899 
L 66.179153 136.641128 
L 67.048122 138.308757 
L 68.025713 140.743436 
L 69.111925 144.11951 
L 70.306758 148.610274 
L 71.610212 154.376335 
L 73.130909 162.139519 
L 74.868848 172.19202 
L 77.041272 186.150676 
L 80.191286 208.059077 
L 85.07924 242.023341 
L 87.251663 255.569089 
L 89.098224 265.732212 
L 90.61892 272.945403 
L 91.922374 278.178912 
L 93.117207 282.136883 
L 94.203419 284.995594 
L 95.18101 286.940971 
L 96.04998 288.15726 
L 96.810328 288.818634 
L 97.462055 289.083351 
L 98.005161 289.089957 
L 98.548267 288.901878 
L 99.199994 288.419757 
L 99.851721 287.65942 
L 100.612069 286.424209 
L 101.481039 284.560688 
L 102.45863 281.902136 
L 103.544842 278.2751 
L 104.739675 273.508483 
L 106.15175 266.90216 
L 107.781068 258.108146 
L 109.627628 246.863193 
L 112.017294 230.806354 
L 116.470763 198.894536 
L 119.620777 177.170502 
L 121.793201 163.708511 
L 123.53114 154.260835 
L 125.051837 147.168636 
L 126.355291 142.075158 
L 127.550124 138.273248 
L 128.527715 135.813843 
L 129.396684 134.137908 
L 130.157033 133.074643 
L 130.917381 132.393481 
L 131.569108 132.116533 
L 132.112214 132.103108 
L 132.65532 132.287455 
L 133.307047 132.769185 
L 133.958774 133.533596 
L 134.719122 134.779184 
L 135.588092 136.661922 
L 136.565683 139.351331 
L 137.651895 143.023836 
L 138.846728 147.853549 
L 140.258803 154.551097 
L 141.888121 163.47088 
L 143.734681 174.881523 
L 146.124347 191.181749 
L 150.469195 222.805927 
L 153.619209 244.95022 
L 155.791633 258.720011 
L 157.529572 268.414979 
L 159.050269 275.71892 
L 160.353723 280.987134 
L 161.548556 284.941456 
L 162.634768 287.767404 
L 163.503737 289.480362 
L 164.264086 290.569811 
L 165.024434 291.27122 
L 165.676161 291.560718 
L 166.219267 291.581176 
L 166.762373 291.400728 
L 167.4141 290.919523 
L 168.065827 290.151102 
L 168.826176 288.895122 
L 169.695145 286.99303 
L 170.672736 284.272462 
L 171.758948 280.553967 
L 172.953781 275.660369 
L 174.365856 268.870383 
L 175.995174 259.823078 
L 177.841734 248.24435 
L 180.2314 231.697104 
L 184.467627 200.379233 
L 187.726262 177.06994 
L 189.898686 163.068353 
L 191.636625 153.205606 
L 193.157322 145.771455 
L 194.460776 140.406027 
L 195.655609 136.375554 
L 196.741821 133.491953 
L 197.61079 131.741225 
L 198.371139 130.625033 
L 199.131487 129.902909 
L 199.783214 129.600534 
L 200.32632 129.572823 
L 200.869426 129.749203 
L 201.521153 130.229745 
L 202.17288 131.002108 
L 202.933229 132.268495 
L 203.802198 134.190075 
L 204.779789 136.942108 
L 205.866001 140.707117 
L 207.060834 145.665398 
L 208.472909 152.549051 
L 210.102227 161.725653 
L 211.948787 173.474895 
L 214.229832 189.480229 
L 218.140195 218.808138 
L 221.724694 245.020009 
L 223.897118 259.33872 
L 225.635057 269.456866 
L 227.155753 277.110152 
L 228.459208 282.656758 
L 229.654041 286.845552 
L 230.740253 289.864967 
L 231.717843 291.913537 
L 232.478192 293.057042 
L 233.23854 293.800359 
L 233.890267 294.115945 
L 234.433373 294.151133 
L 234.976479 293.978996 
L 235.628206 293.49926 
L 236.279933 292.723024 
L 237.040282 291.446221 
L 237.909251 289.505017 
L 238.886842 286.721213 
L 239.973054 282.909159 
L 241.167887 277.885388 
L 242.579962 270.906824 
L 244.20928 261.599124 
L 246.05584 249.676907 
L 248.336885 233.429288 
L 252.247248 203.642058 
L 255.831747 177.003817 
L 258.004171 162.444512 
L 259.74211 152.151665 
L 261.262807 144.362351 
L 262.566261 138.713812 
L 263.761094 134.44482 
L 264.847306 131.364347 
L 265.824896 129.271012 
L 266.585245 128.099612 
L 267.345593 127.334614 
L 267.99732 127.005475 
L 268.540426 126.962581 
L 269.083532 127.130296 
L 269.735259 127.609078 
L 270.386986 128.389114 
L 271.147335 129.676344 
L 272.016304 131.637305 
L 272.993895 134.453189 
L 274.080107 138.312822 
L 275.27494 143.4029 
L 276.687015 150.477634 
L 278.316333 159.918256 
L 280.162893 172.015946 
L 282.443938 188.509463 
L 286.354301 218.763118 
L 289.9388 245.834582 
L 292.111224 260.638468 
L 293.957784 271.715711 
L 295.478481 279.554269 
L 296.781935 285.221911 
L 297.976768 289.489388 
L 299.06298 292.55268 
L 299.931949 294.421344 
L 300.692298 295.621232 
L 301.452646 296.408409 
L 302.104373 296.751449 
L 302.647479 296.802284 
L 303.190585 296.639174 
L 303.733691 296.262421 
L 304.385418 295.529522 
L 305.145767 294.290533 
L 306.014736 292.375505 
L 306.992327 289.599214 
L 308.078539 285.768186 
L 309.273372 280.690526 
L 310.685447 273.604534 
L 312.206144 264.788725 
L 314.052704 252.674983 
L 316.333749 236.071696 
L 319.809627 208.86201 
L 323.937232 176.974443 
L 326.109656 161.838792 
L 327.956216 150.476985 
L 329.476913 142.408477 
L 330.780367 136.550578 
L 331.9752 132.116733 
L 333.061412 128.910622 
L 334.039003 126.725046 
L 334.799351 125.496065 
L 335.559699 124.686202 
L 336.211426 124.328903 
L 336.754532 124.269887 
L 337.297638 124.428203 
L 337.840744 124.803564 
L 338.492471 125.53929 
L 339.25282 126.787766 
L 340.121789 128.721743 
L 341.09938 131.529548 
L 342.185592 135.407962 
L 343.380425 140.552243 
L 344.683879 147.142895 
L 346.204576 156.000009 
L 347.942515 167.450445 
L 350.114938 183.325651 
L 353.264953 208.198649 
L 358.044285 245.859419 
L 360.32533 261.971582 
L 362.17189 273.434698 
L 363.692587 281.554739 
L 364.996041 287.432979 
L 366.190874 291.865842 
L 367.277086 295.05475 
L 368.146056 297.006041 
L 368.906404 298.264731 
L 369.666752 299.097799 
L 370.318479 299.46972 
L 370.861585 299.537164 
L 371.404691 299.383834 
L 371.947797 299.010005 
L 372.599524 298.271548 
L 373.359873 297.013599 
L 374.228842 295.060559 
L 375.206433 292.220945 
L 376.292645 288.294618 
L 377.487478 283.082894 
L 378.790932 276.401978 
L 380.311629 267.419227 
L 382.049568 255.801407 
L 384.221991 239.687563 
L 387.372006 214.429032 
L 392.151338 176.160548 
L 394.432383 159.778086 
L 396.278943 148.117106 
L 397.79964 139.852639 
L 399.103094 133.866266 
L 400.297927 129.348416 
L 401.384139 126.09489 
L 402.253109 124.101038 
L 403.013457 122.81201 
L 403.773805 121.955208 
L 404.425532 121.568292 
L 404.860017 121.489454 
L 404.860017 121.489454 
" clip-path="url(#p62fee56fb6)" style="fill: none; stroke: #ff7f0e; stroke-width: 1.5; stroke-linecap: square"/>
   </g>
   <g id="line2d_15">
    <path d="M 63.572244 134.532853 
L 64.169661 134.638274 
L 64.767077 134.975339 
L 65.418805 135.606092 
L 66.179153 136.685964 
L 66.993812 138.248367 
L 67.917092 140.515263 
L 68.948993 143.653344 
L 70.143826 148.047997 
L 71.44728 153.713898 
L 72.967977 161.367608 
L 74.705916 171.306446 
L 76.824029 184.781945 
L 79.811112 205.38517 
L 85.13355 242.228228 
L 87.360284 255.962692 
L 89.152534 265.690508 
L 90.673231 272.799245 
L 92.030996 278.135583 
L 93.225829 281.972626 
L 94.25773 284.601086 
L 95.18101 286.393398 
L 95.995669 287.524928 
L 96.701707 288.158992 
L 97.353434 288.45602 
L 97.95085 288.484148 
L 98.548267 288.278572 
L 99.199994 287.788444 
L 99.906032 286.94635 
L 100.66638 285.681541 
L 101.53535 283.789245 
L 102.51294 281.105212 
L 103.599152 277.458969 
L 104.848296 272.447631 
L 106.260371 265.808726 
L 107.889689 257.005766 
L 109.79056 245.442242 
L 112.180226 229.453062 
L 121.032853 168.789938 
L 122.879413 158.365583 
L 124.45442 150.661213 
L 125.866496 144.825752 
L 127.115639 140.591927 
L 128.201851 137.66524 
L 129.125131 135.753382 
L 129.93979 134.517994 
L 130.700139 133.753561 
L 131.351866 133.400047 
L 131.949282 133.321933 
L 132.546699 133.479394 
L 133.144115 133.872016 
L 133.795842 134.567196 
L 134.556191 135.726966 
L 135.42516 137.505322 
L 136.402751 140.06983 
L 137.488963 143.59515 
L 138.683796 148.254031 
L 140.041561 154.471879 
L 141.616568 162.791885 
L 143.463128 173.834747 
L 145.744173 188.940113 
L 149.328672 214.416504 
L 153.239035 241.766837 
L 155.465769 255.821381 
L 157.258019 265.812007 
L 158.833026 273.381833 
L 160.190791 278.869542 
L 161.385624 282.830466 
L 162.471836 285.682863 
L 163.395116 287.524291 
L 164.209775 288.692403 
L 164.915813 289.352878 
L 165.56754 289.66982 
L 166.164956 289.712371 
L 166.762373 289.517507 
L 167.359789 289.085752 
L 168.065827 288.271825 
L 168.826176 287.031095 
L 169.695145 285.158228 
L 170.672736 282.485587 
L 171.758948 278.8389 
L 173.008091 273.810009 
L 174.420167 267.129592 
L 175.995174 258.565311 
L 177.896045 246.91491 
L 180.285711 230.75301 
L 184.902111 197.537345 
L 187.943505 176.584726 
L 190.061618 163.479154 
L 191.799557 154.048091 
L 193.320253 146.980728 
L 194.623708 141.915173 
L 195.76423 138.296007 
L 196.796131 135.711222 
L 197.719412 133.974203 
L 198.53407 132.90386 
L 199.240108 132.331956 
L 199.837525 132.108091 
L 200.434941 132.123431 
L 201.032358 132.377997 
L 201.684085 132.927692 
L 202.390123 133.841287 
L 203.204782 135.301623 
L 204.073751 137.330199 
L 205.105652 140.352904 
L 206.246175 144.43783 
L 207.549629 150.00685 
L 209.016015 157.324103 
L 210.699644 166.932279 
L 212.709135 179.779081 
L 215.370355 198.384378 
L 222.376421 248.133774 
L 224.440224 260.797626 
L 226.123852 269.834098 
L 227.590238 276.571482 
L 228.893693 281.568678 
L 230.034215 285.115509 
L 231.066116 287.625464 
L 231.935086 289.206198 
L 232.695434 290.180818 
L 233.401472 290.739822 
L 233.998888 290.950645 
L 234.596305 290.920354 
L 235.193721 290.648975 
L 235.845449 290.078871 
L 236.551486 289.140816 
L 237.366145 287.64935 
L 238.289425 285.439285 
L 239.321327 282.334604 
L 240.461849 278.156344 
L 241.765303 272.478431 
L 243.231689 265.037704 
L 244.915318 255.289304 
L 246.92481 242.281784 
L 249.586029 223.48362 
L 256.374853 174.83263 
L 258.438656 161.974013 
L 260.176595 152.494224 
L 261.642981 145.648182 
L 262.946435 140.557477 
L 264.086957 136.93231 
L 265.118859 134.355039 
L 266.042139 132.635121 
L 266.802487 131.643859 
L 267.508525 131.072045 
L 268.105941 130.852414 
L 268.703358 130.875788 
L 269.300774 131.142162 
L 269.952502 131.709006 
L 270.658539 132.646131 
L 271.473198 134.139893 
L 272.396478 136.35691 
L 273.42838 139.47477 
L 274.568902 143.674097 
L 275.872356 149.384161 
L 277.338742 156.870793 
L 279.022371 166.683561 
L 281.031863 179.782148 
L 283.693082 198.719648 
L 290.536217 248.126738 
L 292.600019 261.059087 
L 294.337958 270.584233 
L 295.804344 277.4557 
L 297.107799 282.558716 
L 298.248321 286.186553 
L 299.280222 288.759691 
L 300.149192 290.385739 
L 300.90954 291.393842 
L 301.615578 291.978631 
L 302.212994 292.207195 
L 302.810411 292.19085 
L 303.407827 291.929577 
L 304.059555 291.366083 
L 304.765592 290.429962 
L 305.580251 288.933963 
L 306.449221 286.85614 
L 307.426811 283.93991 
L 308.567334 279.793705 
L 309.816478 274.385065 
L 311.228553 267.266218 
L 312.857871 257.879057 
L 314.813052 245.241534 
L 317.31134 227.535372 
L 325.240686 170.1939 
L 327.195868 158.236989 
L 328.825185 149.558014 
L 330.237261 143.145151 
L 331.486405 138.423581 
L 332.626927 134.948889 
L 333.604518 132.636695 
L 334.473487 131.114145 
L 335.233836 130.201536 
L 335.885563 129.734797 
L 336.482979 129.564444 
L 337.026085 129.623841 
L 337.623502 129.924746 
L 338.275229 130.533466 
L 338.981267 131.520741 
L 339.795925 133.078282 
L 340.719206 135.374806 
L 341.751107 138.589932 
L 342.891629 142.906067 
L 344.195084 148.759982 
L 345.66147 156.419174 
L 347.345098 166.440152 
L 349.35459 179.794667 
L 352.07012 199.47455 
L 358.641702 247.740236 
L 360.759815 261.312984 
L 362.497754 271.061471 
L 363.96414 278.112258 
L 365.267594 283.364833 
L 366.408117 287.114166 
L 367.440018 289.788511 
L 368.363298 291.582238 
L 369.123646 292.62463 
L 369.829684 293.235874 
L 370.427101 293.482685 
L 370.970206 293.491197 
L 371.567623 293.263025 
L 372.16504 292.786623 
L 372.871077 291.905497 
L 373.631426 290.575218 
L 374.500395 288.57874 
L 375.477986 285.740865 
L 376.564198 281.87965 
L 377.813341 276.566498 
L 379.225417 269.5209 
L 380.854735 260.17097 
L 382.755605 247.879871 
L 385.145271 230.872366 
L 394.052209 165.896616 
L 395.898769 154.813892 
L 397.473776 146.627818 
L 398.885852 140.431923 
L 400.080685 136.115748 
L 401.166897 132.976664 
L 402.090177 130.920956 
L 402.904836 129.587545 
L 403.610873 128.802602 
L 404.262601 128.386743 
L 404.860017 128.267309 
L 404.860017 128.267309 
" clip-path="url(#p62fee56fb6)" style="fill: none; stroke: #2ca02c; stroke-width: 1.5; stroke-linecap: square"/>
   </g>
   <g id="line2d_16">
    <path d="M 63.572244 134.532853 
L 64.11535 134.628685 
L 64.658456 134.915942 
L 65.201562 135.393905 
L 65.744668 136.06138 
L 66.83088 137.957724 
L 67.917092 140.586025 
L 69.003304 143.920023 
L 70.089516 147.926404 
L 71.718833 155.10739 
L 73.348151 163.548421 
L 74.977469 173.059928 
L 77.149893 187.035056 
L 80.951634 213.453559 
L 84.753376 239.600565 
L 86.9258 253.186775 
L 88.555118 262.305629 
L 90.184435 270.277087 
L 91.813753 276.922126 
L 92.899965 280.540226 
L 93.986177 283.465645 
L 95.072389 285.669155 
L 96.158601 287.128739 
L 96.701707 287.574706 
L 97.244813 287.829813 
L 97.787919 287.893421 
L 98.331024 287.765372 
L 98.87413 287.445985 
L 99.417236 286.936059 
L 99.960342 286.236869 
L 101.046554 284.278154 
L 102.132766 281.589412 
L 103.218978 278.197506 
L 104.30519 274.136328 
L 105.934508 266.880171 
L 107.563825 258.373882 
L 109.736249 245.421212 
L 112.451779 227.378659 
L 120.055262 175.287866 
L 122.227686 162.545202 
L 123.857004 154.236473 
L 125.486321 147.207347 
L 126.572533 143.311404 
L 127.658745 140.093926 
L 128.744957 137.58706 
L 129.831169 135.815856 
L 130.374275 135.21195 
L 130.917381 134.79801 
L 131.460487 134.575072 
L 132.003593 134.543693 
L 132.546699 134.70395 
L 133.089805 135.055444 
L 133.632911 135.597296 
L 134.176017 136.328152 
L 135.262228 138.349099 
L 136.34844 141.098093 
L 137.434652 144.547667 
L 138.520864 148.663354 
L 140.150182 155.99417 
L 141.7795 164.565116 
L 143.951923 177.585964 
L 146.667453 195.681091 
L 153.72783 244.293175 
L 155.900254 257.377751 
L 157.529572 266.00938 
L 159.15889 273.410434 
L 160.245102 277.577482 
L 161.331314 281.081454 
L 162.417525 283.887338 
L 163.503737 285.967099 
L 164.589949 287.299956 
L 165.133055 287.681839 
L 165.676161 287.872593 
L 166.219267 287.871742 
L 166.762373 287.679287 
L 167.305479 287.295711 
L 167.848585 286.721971 
L 168.934797 285.010208 
L 170.021009 282.561103 
L 171.10722 279.399127 
L 172.193432 275.555872 
L 173.279644 271.069739 
L 174.908962 263.234844 
L 176.53828 254.231684 
L 178.710704 240.762856 
L 181.426233 222.337982 
L 187.400399 181.040967 
L 189.572822 167.637112 
L 191.20214 158.697513 
L 192.831458 150.937333 
L 194.460776 144.530848 
L 195.546988 141.084314 
L 196.6332 138.338498 
L 197.719412 136.320834 
L 198.262517 135.59165 
L 198.805623 135.051483 
L 199.348729 134.701684 
L 199.891835 134.543128 
L 200.434941 134.57621 
L 200.978047 134.800847 
L 201.521153 135.216479 
L 202.064259 135.822067 
L 203.150471 137.596583 
L 204.236683 140.106664 
L 205.322895 143.327231 
L 206.409107 147.226106 
L 208.038424 154.259268 
L 209.667742 162.571521 
L 211.29706 171.976191 
L 213.469484 185.847065 
L 216.728119 208.365126 
L 221.072967 238.430666 
L 223.245391 252.130617 
L 224.874709 261.362722 
L 226.504026 269.468606 
L 228.133344 276.266228 
L 229.219556 279.994459 
L 230.305768 283.035464 
L 231.39198 285.358856 
L 232.478192 286.941423 
L 233.021298 287.449662 
L 233.564404 287.767352 
L 234.10751 287.8937 
L 234.650615 287.828389 
L 235.193721 287.571584 
L 235.736827 287.123926 
L 236.279933 286.486534 
L 237.366145 284.649391 
L 238.452357 282.07851 
L 239.538569 278.799579 
L 240.624781 274.845361 
L 242.254099 267.736044 
L 243.883416 259.357375 
L 245.512734 249.89752 
L 247.685158 235.972639 
L 250.943794 213.419521 
L 255.288641 183.39657 
L 257.461065 169.754575 
L 259.090383 160.580324 
L 260.719701 152.543208 
L 262.349018 145.823722 
L 263.43523 142.151927 
L 264.521442 139.170183 
L 265.607654 136.908282 
L 266.693866 135.388824 
L 267.236972 134.912549 
L 267.780078 134.62699 
L 268.323184 134.53286 
L 268.86629 134.630394 
L 269.409396 134.919349 
L 269.952502 135.399001 
L 270.495608 136.068153 
L 271.581819 137.967794 
L 272.668031 140.599293 
L 273.754243 143.936355 
L 274.840455 147.945638 
L 276.469773 155.130607 
L 278.099091 163.5751 
L 279.728409 173.08947 
L 281.900832 187.067374 
L 285.702574 213.487597 
L 289.504315 239.632196 
L 291.676739 253.215269 
L 293.306057 262.331017 
L 294.935375 270.298799 
L 296.564693 276.939674 
L 297.650905 280.554772 
L 298.737116 283.477045 
L 299.823328 285.677295 
L 300.90954 287.133537 
L 301.452646 287.577813 
L 301.995752 287.831221 
L 302.538858 287.893127 
L 303.081964 287.763376 
L 303.62507 287.442293 
L 304.168176 286.93068 
L 304.711282 286.229816 
L 305.797494 284.267811 
L 306.883706 281.575881 
L 307.969917 278.180923 
L 309.056129 274.116859 
L 310.685447 266.856745 
L 312.314765 258.347026 
L 314.487189 245.390732 
L 317.202718 227.34537 
L 324.806202 175.257785 
L 326.978625 162.518892 
L 328.607943 154.213689 
L 330.237261 147.188601 
L 331.323473 143.29559 
L 332.409685 140.081201 
L 333.495897 137.577553 
L 334.582108 135.809661 
L 335.125214 135.207436 
L 335.66832 134.795189 
L 336.211426 134.57395 
L 336.754532 134.544273 
L 337.297638 134.706231 
L 337.840744 135.059421 
L 338.38385 135.602958 
L 338.926956 136.335485 
L 340.013168 138.359715 
L 341.09938 141.111886 
L 342.185592 144.5645 
L 343.271804 148.683058 
L 344.901121 156.017803 
L 346.530439 164.592147 
L 348.702863 177.616571 
L 351.418393 195.714439 
L 358.47877 244.323893 
L 360.651194 257.404937 
L 362.280511 266.033196 
L 363.909829 273.430345 
L 364.996041 277.594537 
L 366.082253 281.095481 
L 367.168465 283.898197 
L 368.254677 285.974681 
L 369.340889 287.304187 
L 369.883995 287.684375 
L 370.427101 287.873429 
L 370.970206 287.870875 
L 371.513312 287.676721 
L 372.056418 287.29145 
L 372.599524 286.716027 
L 373.685736 285.000947 
L 374.771948 282.548617 
L 375.85816 279.38354 
L 376.944372 275.53734 
L 378.030584 271.048448 
L 379.659901 263.209821 
L 381.289219 254.20349 
L 383.461643 240.73143 
L 386.177173 222.304288 
L 392.151338 181.009665 
L 394.323762 167.609096 
L 395.95308 158.672705 
L 397.582398 150.91629 
L 399.211715 144.514042 
L 400.297927 141.070548 
L 401.384139 138.32791 
L 402.470351 136.313531 
L 403.013457 135.586018 
L 403.556563 135.047537 
L 404.099669 134.699433 
L 404.642775 134.542578 
L 405.185881 134.577362 
L 405.185881 134.577362 
" clip-path="url(#p62fee56fb6)" style="fill: none; stroke-dasharray: 5.55,2.4; stroke-dashoffset: 0; stroke: #000000; stroke-width: 1.5"/>
   </g>
   <g id="patch_3">
    <path d="M 46.491563 382.837187 
L 46.491563 26.877187 
" style="fill: none; stroke: #000000; stroke-width: 0.8; stroke-linejoin: miter; stroke-linecap: square"/>
   </g>
   <g id="patch_4">
    <path d="M 422.266562 382.837187 
L 422.266562 26.877187 
" style="fill: none; stroke: #000000; stroke-width: 0.8; stroke-linejoin: miter; stroke-linecap: square"/>
   </g>
   <g id="patch_5">
    <path d="M 46.491563 382.837187 
L 422.266562 382.837187 
" style="fill: none; stroke: #000000; stroke-width: 0.8; stroke-linejoin: miter; stroke-linecap: square"/>
   </g>
   <g id="patch_6">
    <path d="M 46.491563 26.877187 
L 422.266562 26.877187 
" style="fill: none; stroke: #000000; stroke-width: 0.8; stroke-linejoin: miter; stroke-linecap: square"/>
   </g>
   <g id="text_15">
    <!-- (a) -->
    <g transform="translate(221.840937 20.877187) scale(0.18 -0.18)">
     <defs>
      <path id="DejaVuSans-61" d="M 2194 1759 
Q 1497 1759 1228 1600 
Q 959 1441 959 1056 
Q 959 750 1161 570 
Q 1363 391 1709 391 
Q 2188 391 2477 730 
Q 2766 1069 2766 1631 
L 2766 1759 
L 2194 1759 
z
M 3341 1997 
L 3341 0 
L 2766 0 
L 2766 531 
Q 2569 213 2275 61 
Q 1981 -91 1556 -91 
Q 1019 -91 701 211 
Q 384 513 384 1019 
Q 384 1609 779 1909 
Q 1175 2209 1959 2209 
L 2766 2209 
L 2766 2266 
Q 2766 2663 2505 2880 
Q 2244 3097 1772 3097 
Q 1472 3097 1187 3025 
Q 903 2953 641 2809 
L 641 3341 
Q 956 3463 1253 3523 
Q 1550 3584 1831 3584 
Q 2591 3584 2966 3190 
Q 3341 2797 3341 1997 
z
" transform="scale(0.015625)"/>
     </defs>
     <use xlink:href="#DejaVuSans-28"/>
     <use xlink:href="#DejaVuSans-61" x="39.013672"/>
     <use xlink:href="#DejaVuSans-29" x="100.292969"/>
    </g>
   </g>
   <g id="legend_1">
    <g id="patch_7">
     <path d="M 54.891562 106.932187 
L 166.405313 106.932187 
Q 168.805313 106.932187 168.805313 104.532188 
L 168.805313 35.277187 
Q 168.805313 32.877187 166.405313 32.877187 
L 54.891562 32.877187 
Q 52.491563 32.877187 52.491563 35.277187 
L 52.491563 104.532188 
Q 52.491563 106.932187 54.891562 106.932187 
z
" style="fill: #ffffff; opacity: 0.8; stroke: #cccccc; stroke-linejoin: miter"/>
    </g>
    <g id="line2d_17">
     <path d="M 57.291562 42.595312 
L 69.291562 42.595312 
L 81.291562 42.595312 
" style="fill: none; stroke: #1f77b4; stroke-width: 1.5; stroke-linecap: square"/>
    </g>
    <g id="text_16">
     <!-- h = 0.05 -->
     <g transform="translate(90.891562 46.795312) scale(0.12 -0.12)">
      <defs>
       <path id="DejaVuSans-68" d="M 3513 2113 
L 3513 0 
L 2938 0 
L 2938 2094 
Q 2938 2591 2744 2837 
Q 2550 3084 2163 3084 
Q 1697 3084 1428 2787 
Q 1159 2491 1159 1978 
L 1159 0 
L 581 0 
L 581 4863 
L 1159 4863 
L 1159 2956 
Q 1366 3272 1645 3428 
Q 1925 3584 2291 3584 
Q 2894 3584 3203 3211 
Q 3513 2838 3513 2113 
z
" transform="scale(0.015625)"/>
       <path id="DejaVuSans-20" transform="scale(0.015625)"/>
       <path id="DejaVuSans-3d" d="M 678 2906 
L 4684 2906 
L 4684 2381 
L 678 2381 
L 678 2906 
z
M 678 1631 
L 4684 1631 
L 4684 1100 
L 678 1100 
L 678 1631 
z
" transform="scale(0.015625)"/>
       <path id="DejaVuSans-2e" d="M 684 794 
L 1344 794 
L 1344 0 
L 684 0 
L 684 794 
z
" transform="scale(0.015625)"/>
      </defs>
      <use xlink:href="#DejaVuSans-68"/>
      <use xlink:href="#DejaVuSans-20" x="63.378906"/>
      <use xlink:href="#DejaVuSans-3d" x="95.166016"/>
      <use xlink:href="#DejaVuSans-20" x="178.955078"/>
      <use xlink:href="#DejaVuSans-30" x="210.742188"/>
      <use xlink:href="#DejaVuSans-2e" x="274.365234"/>
      <use xlink:href="#DejaVuSans-30" x="306.152344"/>
      <use xlink:href="#DejaVuSans-35" x="369.775391"/>
     </g>
    </g>
    <g id="line2d_18">
     <path d="M 57.291562 60.209062 
L 69.291562 60.209062 
L 81.291562 60.209062 
" style="fill: none; stroke: #ff7f0e; stroke-width: 1.5; stroke-linecap: square"/>
    </g>
    <g id="text_17">
     <!-- h = 0.01 -->
     <g transform="translate(90.891562 64.409062) scale(0.12 -0.12)">
      <use xlink:href="#DejaVuSans-68"/>
      <use xlink:href="#DejaVuSans-20" x="63.378906"/>
      <use xlink:href="#DejaVuSans-3d" x="95.166016"/>
      <use xlink:href="#DejaVuSans-20" x="178.955078"/>
      <use xlink:href="#DejaVuSans-30" x="210.742188"/>
      <use xlink:href="#DejaVuSans-2e" x="274.365234"/>
      <use xlink:href="#DejaVuSans-30" x="306.152344"/>
      <use xlink:href="#DejaVuSans-31" x="369.775391"/>
     </g>
    </g>
    <g id="line2d_19">
     <path d="M 57.291562 77.822812 
L 69.291562 77.822812 
L 81.291562 77.822812 
" style="fill: none; stroke: #2ca02c; stroke-width: 1.5; stroke-linecap: square"/>
    </g>
    <g id="text_18">
     <!-- h = 0.005 -->
     <g transform="translate(90.891562 82.022812) scale(0.12 -0.12)">
      <use xlink:href="#DejaVuSans-68"/>
      <use xlink:href="#DejaVuSans-20" x="63.378906"/>
      <use xlink:href="#DejaVuSans-3d" x="95.166016"/>
      <use xlink:href="#DejaVuSans-20" x="178.955078"/>
      <use xlink:href="#DejaVuSans-30" x="210.742188"/>
      <use xlink:href="#DejaVuSans-2e" x="274.365234"/>
      <use xlink:href="#DejaVuSans-30" x="306.152344"/>
      <use xlink:href="#DejaVuSans-30" x="369.775391"/>
      <use xlink:href="#DejaVuSans-35" x="433.398438"/>
     </g>
    </g>
    <g id="line2d_20">
     <path d="M 57.291562 95.436562 
L 69.291562 95.436562 
L 81.291562 95.436562 
" style="fill: none; stroke-dasharray: 5.55,2.4; stroke-dashoffset: 0; stroke: #000000; stroke-width: 1.5"/>
    </g>
    <g id="text_19">
     <!-- v(t) = cos(t) -->
     <g transform="translate(90.891562 99.636562) scale(0.12 -0.12)">
      <defs>
       <path id="DejaVuSans-63" d="M 3122 3366 
L 3122 2828 
Q 2878 2963 2633 3030 
Q 2388 3097 2138 3097 
Q 1578 3097 1268 2742 
Q 959 2388 959 1747 
Q 959 1106 1268 751 
Q 1578 397 2138 397 
Q 2388 397 2633 464 
Q 2878 531 3122 666 
L 3122 134 
Q 2881 22 2623 -34 
Q 2366 -91 2075 -91 
Q 1284 -91 818 406 
Q 353 903 353 1747 
Q 353 2603 823 3093 
Q 1294 3584 2113 3584 
Q 2378 3584 2631 3529 
Q 2884 3475 3122 3366 
z
" transform="scale(0.015625)"/>
       <path id="DejaVuSans-6f" d="M 1959 3097 
Q 1497 3097 1228 2736 
Q 959 2375 959 1747 
Q 959 1119 1226 758 
Q 1494 397 1959 397 
Q 2419 397 2687 759 
Q 2956 1122 2956 1747 
Q 2956 2369 2687 2733 
Q 2419 3097 1959 3097 
z
M 1959 3584 
Q 2709 3584 3137 3096 
Q 3566 2609 3566 1747 
Q 3566 888 3137 398 
Q 2709 -91 1959 -91 
Q 1206 -91 779 398 
Q 353 888 353 1747 
Q 353 2609 779 3096 
Q 1206 3584 1959 3584 
z
" transform="scale(0.015625)"/>
       <path id="DejaVuSans-73" d="M 2834 3397 
L 2834 2853 
Q 2591 2978 2328 3040 
Q 2066 3103 1784 3103 
Q 1356 3103 1142 2972 
Q 928 2841 928 2578 
Q 928 2378 1081 2264 
Q 1234 2150 1697 2047 
L 1894 2003 
Q 2506 1872 2764 1633 
Q 3022 1394 3022 966 
Q 3022 478 2636 193 
Q 2250 -91 1575 -91 
Q 1294 -91 989 -36 
Q 684 19 347 128 
L 347 722 
Q 666 556 975 473 
Q 1284 391 1588 391 
Q 1994 391 2212 530 
Q 2431 669 2431 922 
Q 2431 1156 2273 1281 
Q 2116 1406 1581 1522 
L 1381 1569 
Q 847 1681 609 1914 
Q 372 2147 372 2553 
Q 372 3047 722 3315 
Q 1072 3584 1716 3584 
Q 2034 3584 2315 3537 
Q 2597 3491 2834 3397 
z
" transform="scale(0.015625)"/>
      </defs>
      <use xlink:href="#DejaVuSans-76"/>
      <use xlink:href="#DejaVuSans-28" x="59.179688"/>
      <use xlink:href="#DejaVuSans-74" x="98.193359"/>
      <use xlink:href="#DejaVuSans-29" x="137.402344"/>
      <use xlink:href="#DejaVuSans-20" x="176.416016"/>
      <use xlink:href="#DejaVuSans-3d" x="208.203125"/>
      <use xlink:href="#DejaVuSans-20" x="291.992188"/>
      <use xlink:href="#DejaVuSans-63" x="323.779297"/>
      <use xlink:href="#DejaVuSans-6f" x="378.759766"/>
      <use xlink:href="#DejaVuSans-73" x="439.941406"/>
      <use xlink:href="#DejaVuSans-28" x="492.041016"/>
      <use xlink:href="#DejaVuSans-74" x="531.054688"/>
      <use xlink:href="#DejaVuSans-29" x="570.263672"/>
     </g>
    </g>
   </g>
  </g>
  <g id="axes_2">
   <g id="patch_8">
    <path d="M 473.676562 382.837187 
L 849.451562 382.837187 
L 849.451562 26.877187 
L 473.676562 26.877187 
z
" style="fill: #ffffff"/>
   </g>
   <g id="matplotlib.axis_3">
    <g id="xtick_8">
     <g id="line2d_21">
      <g>
       <use xlink:href="#me7be93d04a" x="490.757244" y="382.837187" style="stroke: #000000; stroke-width: 0.8"/>
      </g>
     </g>
     <g id="text_20">
      <!-- 0 -->
      <g transform="translate(487.575994 397.435625) scale(0.1 -0.1)">
       <use xlink:href="#DejaVuSans-30"/>
      </g>
     </g>
    </g>
    <g id="xtick_9">
     <g id="line2d_22">
      <g>
       <use xlink:href="#me7be93d04a" x="545.067838" y="382.837187" style="stroke: #000000; stroke-width: 0.8"/>
      </g>
     </g>
     <g id="text_21">
      <!-- 5 -->
      <g transform="translate(541.886588 397.435625) scale(0.1 -0.1)">
       <use xlink:href="#DejaVuSans-35"/>
      </g>
     </g>
    </g>
    <g id="xtick_10">
     <g id="line2d_23">
      <g>
       <use xlink:href="#me7be93d04a" x="599.378432" y="382.837187" style="stroke: #000000; stroke-width: 0.8"/>
      </g>
     </g>
     <g id="text_22">
      <!-- 10 -->
      <g transform="translate(593.015932 397.435625) scale(0.1 -0.1)">
       <use xlink:href="#DejaVuSans-31"/>
       <use xlink:href="#DejaVuSans-30" x="63.623047"/>
      </g>
     </g>
    </g>
    <g id="xtick_11">
     <g id="line2d_24">
      <g>
       <use xlink:href="#me7be93d04a" x="653.689026" y="382.837187" style="stroke: #000000; stroke-width: 0.8"/>
      </g>
     </g>
     <g id="text_23">
      <!-- 15 -->
      <g transform="translate(647.326526 397.435625) scale(0.1 -0.1)">
       <use xlink:href="#DejaVuSans-31"/>
       <use xlink:href="#DejaVuSans-35" x="63.623047"/>
      </g>
     </g>
    </g>
    <g id="xtick_12">
     <g id="line2d_25">
      <g>
       <use xlink:href="#me7be93d04a" x="707.99962" y="382.837187" style="stroke: #000000; stroke-width: 0.8"/>
      </g>
     </g>
     <g id="text_24">
      <!-- 20 -->
      <g transform="translate(701.63712 397.435625) scale(0.1 -0.1)">
       <use xlink:href="#DejaVuSans-32"/>
       <use xlink:href="#DejaVuSans-30" x="63.623047"/>
      </g>
     </g>
    </g>
    <g id="xtick_13">
     <g id="line2d_26">
      <g>
       <use xlink:href="#me7be93d04a" x="762.310214" y="382.837187" style="stroke: #000000; stroke-width: 0.8"/>
      </g>
     </g>
     <g id="text_25">
      <!-- 25 -->
      <g transform="translate(755.947714 397.435625) scale(0.1 -0.1)">
       <use xlink:href="#DejaVuSans-32"/>
       <use xlink:href="#DejaVuSans-35" x="63.623047"/>
      </g>
     </g>
    </g>
    <g id="xtick_14">
     <g id="line2d_27">
      <g>
       <use xlink:href="#me7be93d04a" x="816.620808" y="382.837187" style="stroke: #000000; stroke-width: 0.8"/>
      </g>
     </g>
     <g id="text_26">
      <!-- 30 -->
      <g transform="translate(810.258308 397.435625) scale(0.1 -0.1)">
       <use xlink:href="#DejaVuSans-33"/>
       <use xlink:href="#DejaVuSans-30" x="63.623047"/>
      </g>
     </g>
    </g>
    <g id="text_27">
     <!-- t -->
     <g transform="translate(658.819844 414.153125) scale(0.14 -0.14)">
      <use xlink:href="#DejaVuSans-74"/>
     </g>
    </g>
   </g>
   <g id="matplotlib.axis_4">
    <g id="ytick_6">
     <g id="line2d_28">
      <g>
       <use xlink:href="#madca82798e" x="473.676562" y="366.657187" style="stroke: #000000; stroke-width: 0.8"/>
      </g>
     </g>
     <g id="text_28">
      <!-- 0.0 -->
      <g transform="translate(450.773438 370.456406) scale(0.1 -0.1)">
       <use xlink:href="#DejaVuSans-30"/>
       <use xlink:href="#DejaVuSans-2e" x="63.623047"/>
       <use xlink:href="#DejaVuSans-30" x="95.410156"/>
      </g>
     </g>
    </g>
    <g id="ytick_7">
     <g id="line2d_29">
      <g>
       <use xlink:href="#madca82798e" x="473.676562" y="312.430502" style="stroke: #000000; stroke-width: 0.8"/>
      </g>
     </g>
     <g id="text_29">
      <!-- 0.2 -->
      <g transform="translate(450.773438 316.229721) scale(0.1 -0.1)">
       <use xlink:href="#DejaVuSans-30"/>
       <use xlink:href="#DejaVuSans-2e" x="63.623047"/>
       <use xlink:href="#DejaVuSans-32" x="95.410156"/>
      </g>
     </g>
    </g>
    <g id="ytick_8">
     <g id="line2d_30">
      <g>
       <use xlink:href="#madca82798e" x="473.676562" y="258.203817" style="stroke: #000000; stroke-width: 0.8"/>
      </g>
     </g>
     <g id="text_30">
      <!-- 0.4 -->
      <g transform="translate(450.773438 262.003036) scale(0.1 -0.1)">
       <defs>
        <path id="DejaVuSans-34" d="M 2419 4116 
L 825 1625 
L 2419 1625 
L 2419 4116 
z
M 2253 4666 
L 3047 4666 
L 3047 1625 
L 3713 1625 
L 3713 1100 
L 3047 1100 
L 3047 0 
L 2419 0 
L 2419 1100 
L 313 1100 
L 313 1709 
L 2253 4666 
z
" transform="scale(0.015625)"/>
       </defs>
       <use xlink:href="#DejaVuSans-30"/>
       <use xlink:href="#DejaVuSans-2e" x="63.623047"/>
       <use xlink:href="#DejaVuSans-34" x="95.410156"/>
      </g>
     </g>
    </g>
    <g id="ytick_9">
     <g id="line2d_31">
      <g>
       <use xlink:href="#madca82798e" x="473.676562" y="203.977132" style="stroke: #000000; stroke-width: 0.8"/>
      </g>
     </g>
     <g id="text_31">
      <!-- 0.6 -->
      <g transform="translate(450.773438 207.776351) scale(0.1 -0.1)">
       <defs>
        <path id="DejaVuSans-36" d="M 2113 2584 
Q 1688 2584 1439 2293 
Q 1191 2003 1191 1497 
Q 1191 994 1439 701 
Q 1688 409 2113 409 
Q 2538 409 2786 701 
Q 3034 994 3034 1497 
Q 3034 2003 2786 2293 
Q 2538 2584 2113 2584 
z
M 3366 4563 
L 3366 3988 
Q 3128 4100 2886 4159 
Q 2644 4219 2406 4219 
Q 1781 4219 1451 3797 
Q 1122 3375 1075 2522 
Q 1259 2794 1537 2939 
Q 1816 3084 2150 3084 
Q 2853 3084 3261 2657 
Q 3669 2231 3669 1497 
Q 3669 778 3244 343 
Q 2819 -91 2113 -91 
Q 1303 -91 875 529 
Q 447 1150 447 2328 
Q 447 3434 972 4092 
Q 1497 4750 2381 4750 
Q 2619 4750 2861 4703 
Q 3103 4656 3366 4563 
z
" transform="scale(0.015625)"/>
       </defs>
       <use xlink:href="#DejaVuSans-30"/>
       <use xlink:href="#DejaVuSans-2e" x="63.623047"/>
       <use xlink:href="#DejaVuSans-36" x="95.410156"/>
      </g>
     </g>
    </g>
    <g id="ytick_10">
     <g id="line2d_32">
      <g>
       <use xlink:href="#madca82798e" x="473.676562" y="149.750447" style="stroke: #000000; stroke-width: 0.8"/>
      </g>
     </g>
     <g id="text_32">
      <!-- 0.8 -->
      <g transform="translate(450.773438 153.549666) scale(0.1 -0.1)">
       <defs>
        <path id="DejaVuSans-38" d="M 2034 2216 
Q 1584 2216 1326 1975 
Q 1069 1734 1069 1313 
Q 1069 891 1326 650 
Q 1584 409 2034 409 
Q 2484 409 2743 651 
Q 3003 894 3003 1313 
Q 3003 1734 2745 1975 
Q 2488 2216 2034 2216 
z
M 1403 2484 
Q 997 2584 770 2862 
Q 544 3141 544 3541 
Q 544 4100 942 4425 
Q 1341 4750 2034 4750 
Q 2731 4750 3128 4425 
Q 3525 4100 3525 3541 
Q 3525 3141 3298 2862 
Q 3072 2584 2669 2484 
Q 3125 2378 3379 2068 
Q 3634 1759 3634 1313 
Q 3634 634 3220 271 
Q 2806 -91 2034 -91 
Q 1263 -91 848 271 
Q 434 634 434 1313 
Q 434 1759 690 2068 
Q 947 2378 1403 2484 
z
M 1172 3481 
Q 1172 3119 1398 2916 
Q 1625 2713 2034 2713 
Q 2441 2713 2670 2916 
Q 2900 3119 2900 3481 
Q 2900 3844 2670 4047 
Q 2441 4250 2034 4250 
Q 1625 4250 1398 4047 
Q 1172 3844 1172 3481 
z
" transform="scale(0.015625)"/>
       </defs>
       <use xlink:href="#DejaVuSans-30"/>
       <use xlink:href="#DejaVuSans-2e" x="63.623047"/>
       <use xlink:href="#DejaVuSans-38" x="95.410156"/>
      </g>
     </g>
    </g>
    <g id="ytick_11">
     <g id="line2d_33">
      <g>
       <use xlink:href="#madca82798e" x="473.676562" y="95.523762" style="stroke: #000000; stroke-width: 0.8"/>
      </g>
     </g>
     <g id="text_33">
      <!-- 1.0 -->
      <g transform="translate(450.773438 99.322981) scale(0.1 -0.1)">
       <use xlink:href="#DejaVuSans-31"/>
       <use xlink:href="#DejaVuSans-2e" x="63.623047"/>
       <use xlink:href="#DejaVuSans-30" x="95.410156"/>
      </g>
     </g>
    </g>
    <g id="ytick_12">
     <g id="line2d_34">
      <g>
       <use xlink:href="#madca82798e" x="473.676562" y="41.297077" style="stroke: #000000; stroke-width: 0.8"/>
      </g>
     </g>
     <g id="text_34">
      <!-- 1.2 -->
      <g transform="translate(450.773438 45.096296) scale(0.1 -0.1)">
       <use xlink:href="#DejaVuSans-31"/>
       <use xlink:href="#DejaVuSans-2e" x="63.623047"/>
       <use xlink:href="#DejaVuSans-32" x="95.410156"/>
      </g>
     </g>
    </g>
    <g id="text_35">
     <!-- Difference between Numerical and Exact Solution -->
     <g transform="translate(443.861875 379.280781) rotate(-90) scale(0.14 -0.14)">
      <defs>
       <path id="DejaVuSans-44" d="M 1259 4147 
L 1259 519 
L 2022 519 
Q 2988 519 3436 956 
Q 3884 1394 3884 2338 
Q 3884 3275 3436 3711 
Q 2988 4147 2022 4147 
L 1259 4147 
z
M 628 4666 
L 1925 4666 
Q 3281 4666 3915 4102 
Q 4550 3538 4550 2338 
Q 4550 1131 3912 565 
Q 3275 0 1925 0 
L 628 0 
L 628 4666 
z
" transform="scale(0.015625)"/>
       <path id="DejaVuSans-69" d="M 603 3500 
L 1178 3500 
L 1178 0 
L 603 0 
L 603 3500 
z
M 603 4863 
L 1178 4863 
L 1178 4134 
L 603 4134 
L 603 4863 
z
" transform="scale(0.015625)"/>
       <path id="DejaVuSans-66" d="M 2375 4863 
L 2375 4384 
L 1825 4384 
Q 1516 4384 1395 4259 
Q 1275 4134 1275 3809 
L 1275 3500 
L 2222 3500 
L 2222 3053 
L 1275 3053 
L 1275 0 
L 697 0 
L 697 3053 
L 147 3053 
L 147 3500 
L 697 3500 
L 697 3744 
Q 697 4328 969 4595 
Q 1241 4863 1831 4863 
L 2375 4863 
z
" transform="scale(0.015625)"/>
       <path id="DejaVuSans-65" d="M 3597 1894 
L 3597 1613 
L 953 1613 
Q 991 1019 1311 708 
Q 1631 397 2203 397 
Q 2534 397 2845 478 
Q 3156 559 3463 722 
L 3463 178 
Q 3153 47 2828 -22 
Q 2503 -91 2169 -91 
Q 1331 -91 842 396 
Q 353 884 353 1716 
Q 353 2575 817 3079 
Q 1281 3584 2069 3584 
Q 2775 3584 3186 3129 
Q 3597 2675 3597 1894 
z
M 3022 2063 
Q 3016 2534 2758 2815 
Q 2500 3097 2075 3097 
Q 1594 3097 1305 2825 
Q 1016 2553 972 2059 
L 3022 2063 
z
" transform="scale(0.015625)"/>
       <path id="DejaVuSans-72" d="M 2631 2963 
Q 2534 3019 2420 3045 
Q 2306 3072 2169 3072 
Q 1681 3072 1420 2755 
Q 1159 2438 1159 1844 
L 1159 0 
L 581 0 
L 581 3500 
L 1159 3500 
L 1159 2956 
Q 1341 3275 1631 3429 
Q 1922 3584 2338 3584 
Q 2397 3584 2469 3576 
Q 2541 3569 2628 3553 
L 2631 2963 
z
" transform="scale(0.015625)"/>
       <path id="DejaVuSans-6e" d="M 3513 2113 
L 3513 0 
L 2938 0 
L 2938 2094 
Q 2938 2591 2744 2837 
Q 2550 3084 2163 3084 
Q 1697 3084 1428 2787 
Q 1159 2491 1159 1978 
L 1159 0 
L 581 0 
L 581 3500 
L 1159 3500 
L 1159 2956 
Q 1366 3272 1645 3428 
Q 1925 3584 2291 3584 
Q 2894 3584 3203 3211 
Q 3513 2838 3513 2113 
z
" transform="scale(0.015625)"/>
       <path id="DejaVuSans-62" d="M 3116 1747 
Q 3116 2381 2855 2742 
Q 2594 3103 2138 3103 
Q 1681 3103 1420 2742 
Q 1159 2381 1159 1747 
Q 1159 1113 1420 752 
Q 1681 391 2138 391 
Q 2594 391 2855 752 
Q 3116 1113 3116 1747 
z
M 1159 2969 
Q 1341 3281 1617 3432 
Q 1894 3584 2278 3584 
Q 2916 3584 3314 3078 
Q 3713 2572 3713 1747 
Q 3713 922 3314 415 
Q 2916 -91 2278 -91 
Q 1894 -91 1617 61 
Q 1341 213 1159 525 
L 1159 0 
L 581 0 
L 581 4863 
L 1159 4863 
L 1159 2969 
z
" transform="scale(0.015625)"/>
       <path id="DejaVuSans-77" d="M 269 3500 
L 844 3500 
L 1563 769 
L 2278 3500 
L 2956 3500 
L 3675 769 
L 4391 3500 
L 4966 3500 
L 4050 0 
L 3372 0 
L 2619 2869 
L 1863 0 
L 1184 0 
L 269 3500 
z
" transform="scale(0.015625)"/>
       <path id="DejaVuSans-4e" d="M 628 4666 
L 1478 4666 
L 3547 763 
L 3547 4666 
L 4159 4666 
L 4159 0 
L 3309 0 
L 1241 3903 
L 1241 0 
L 628 0 
L 628 4666 
z
" transform="scale(0.015625)"/>
       <path id="DejaVuSans-75" d="M 544 1381 
L 544 3500 
L 1119 3500 
L 1119 1403 
Q 1119 906 1312 657 
Q 1506 409 1894 409 
Q 2359 409 2629 706 
Q 2900 1003 2900 1516 
L 2900 3500 
L 3475 3500 
L 3475 0 
L 2900 0 
L 2900 538 
Q 2691 219 2414 64 
Q 2138 -91 1772 -91 
Q 1169 -91 856 284 
Q 544 659 544 1381 
z
M 1991 3584 
L 1991 3584 
z
" transform="scale(0.015625)"/>
       <path id="DejaVuSans-6d" d="M 3328 2828 
Q 3544 3216 3844 3400 
Q 4144 3584 4550 3584 
Q 5097 3584 5394 3201 
Q 5691 2819 5691 2113 
L 5691 0 
L 5113 0 
L 5113 2094 
Q 5113 2597 4934 2840 
Q 4756 3084 4391 3084 
Q 3944 3084 3684 2787 
Q 3425 2491 3425 1978 
L 3425 0 
L 2847 0 
L 2847 2094 
Q 2847 2600 2669 2842 
Q 2491 3084 2119 3084 
Q 1678 3084 1418 2786 
Q 1159 2488 1159 1978 
L 1159 0 
L 581 0 
L 581 3500 
L 1159 3500 
L 1159 2956 
Q 1356 3278 1631 3431 
Q 1906 3584 2284 3584 
Q 2666 3584 2933 3390 
Q 3200 3197 3328 2828 
z
" transform="scale(0.015625)"/>
       <path id="DejaVuSans-6c" d="M 603 4863 
L 1178 4863 
L 1178 0 
L 603 0 
L 603 4863 
z
" transform="scale(0.015625)"/>
       <path id="DejaVuSans-64" d="M 2906 2969 
L 2906 4863 
L 3481 4863 
L 3481 0 
L 2906 0 
L 2906 525 
Q 2725 213 2448 61 
Q 2172 -91 1784 -91 
Q 1150 -91 751 415 
Q 353 922 353 1747 
Q 353 2572 751 3078 
Q 1150 3584 1784 3584 
Q 2172 3584 2448 3432 
Q 2725 3281 2906 2969 
z
M 947 1747 
Q 947 1113 1208 752 
Q 1469 391 1925 391 
Q 2381 391 2643 752 
Q 2906 1113 2906 1747 
Q 2906 2381 2643 2742 
Q 2381 3103 1925 3103 
Q 1469 3103 1208 2742 
Q 947 2381 947 1747 
z
" transform="scale(0.015625)"/>
       <path id="DejaVuSans-45" d="M 628 4666 
L 3578 4666 
L 3578 4134 
L 1259 4134 
L 1259 2753 
L 3481 2753 
L 3481 2222 
L 1259 2222 
L 1259 531 
L 3634 531 
L 3634 0 
L 628 0 
L 628 4666 
z
" transform="scale(0.015625)"/>
       <path id="DejaVuSans-78" d="M 3513 3500 
L 2247 1797 
L 3578 0 
L 2900 0 
L 1881 1375 
L 863 0 
L 184 0 
L 1544 1831 
L 300 3500 
L 978 3500 
L 1906 2253 
L 2834 3500 
L 3513 3500 
z
" transform="scale(0.015625)"/>
       <path id="DejaVuSans-53" d="M 3425 4513 
L 3425 3897 
Q 3066 4069 2747 4153 
Q 2428 4238 2131 4238 
Q 1616 4238 1336 4038 
Q 1056 3838 1056 3469 
Q 1056 3159 1242 3001 
Q 1428 2844 1947 2747 
L 2328 2669 
Q 3034 2534 3370 2195 
Q 3706 1856 3706 1288 
Q 3706 609 3251 259 
Q 2797 -91 1919 -91 
Q 1588 -91 1214 -16 
Q 841 59 441 206 
L 441 856 
Q 825 641 1194 531 
Q 1563 422 1919 422 
Q 2459 422 2753 634 
Q 3047 847 3047 1241 
Q 3047 1584 2836 1778 
Q 2625 1972 2144 2069 
L 1759 2144 
Q 1053 2284 737 2584 
Q 422 2884 422 3419 
Q 422 4038 858 4394 
Q 1294 4750 2059 4750 
Q 2388 4750 2728 4690 
Q 3069 4631 3425 4513 
z
" transform="scale(0.015625)"/>
      </defs>
      <use xlink:href="#DejaVuSans-44"/>
      <use xlink:href="#DejaVuSans-69" x="77.001953"/>
      <use xlink:href="#DejaVuSans-66" x="104.785156"/>
      <use xlink:href="#DejaVuSans-66" x="139.990234"/>
      <use xlink:href="#DejaVuSans-65" x="175.195312"/>
      <use xlink:href="#DejaVuSans-72" x="236.71875"/>
      <use xlink:href="#DejaVuSans-65" x="275.582031"/>
      <use xlink:href="#DejaVuSans-6e" x="337.105469"/>
      <use xlink:href="#DejaVuSans-63" x="400.484375"/>
      <use xlink:href="#DejaVuSans-65" x="455.464844"/>
      <use xlink:href="#DejaVuSans-20" x="516.988281"/>
      <use xlink:href="#DejaVuSans-62" x="548.775391"/>
      <use xlink:href="#DejaVuSans-65" x="612.251953"/>
      <use xlink:href="#DejaVuSans-74" x="673.775391"/>
      <use xlink:href="#DejaVuSans-77" x="712.984375"/>
      <use xlink:href="#DejaVuSans-65" x="794.771484"/>
      <use xlink:href="#DejaVuSans-65" x="856.294922"/>
      <use xlink:href="#DejaVuSans-6e" x="917.818359"/>
      <use xlink:href="#DejaVuSans-20" x="981.197266"/>
      <use xlink:href="#DejaVuSans-4e" x="1012.984375"/>
      <use xlink:href="#DejaVuSans-75" x="1087.789062"/>
      <use xlink:href="#DejaVuSans-6d" x="1151.167969"/>
      <use xlink:href="#DejaVuSans-65" x="1248.580078"/>
      <use xlink:href="#DejaVuSans-72" x="1310.103516"/>
      <use xlink:href="#DejaVuSans-69" x="1351.216797"/>
      <use xlink:href="#DejaVuSans-63" x="1379"/>
      <use xlink:href="#DejaVuSans-61" x="1433.980469"/>
      <use xlink:href="#DejaVuSans-6c" x="1495.259766"/>
      <use xlink:href="#DejaVuSans-20" x="1523.042969"/>
      <use xlink:href="#DejaVuSans-61" x="1554.830078"/>
      <use xlink:href="#DejaVuSans-6e" x="1616.109375"/>
      <use xlink:href="#DejaVuSans-64" x="1679.488281"/>
      <use xlink:href="#DejaVuSans-20" x="1742.964844"/>
      <use xlink:href="#DejaVuSans-45" x="1774.751953"/>
      <use xlink:href="#DejaVuSans-78" x="1837.935547"/>
      <use xlink:href="#DejaVuSans-61" x="1897.115234"/>
      <use xlink:href="#DejaVuSans-63" x="1958.394531"/>
      <use xlink:href="#DejaVuSans-74" x="2013.375"/>
      <use xlink:href="#DejaVuSans-20" x="2052.583984"/>
      <use xlink:href="#DejaVuSans-53" x="2084.371094"/>
      <use xlink:href="#DejaVuSans-6f" x="2147.847656"/>
      <use xlink:href="#DejaVuSans-6c" x="2209.029297"/>
      <use xlink:href="#DejaVuSans-75" x="2236.8125"/>
      <use xlink:href="#DejaVuSans-74" x="2300.191406"/>
      <use xlink:href="#DejaVuSans-69" x="2339.400391"/>
      <use xlink:href="#DejaVuSans-6f" x="2367.183594"/>
      <use xlink:href="#DejaVuSans-6e" x="2428.365234"/>
     </g>
    </g>
   </g>
   <g id="line2d_35">
    <path d="M 490.757244 366.657187 
L 494.558986 364.394328 
L 496.73141 363.395245 
L 498.360727 362.89731 
L 499.990045 362.671682 
L 501.619363 362.758771 
L 502.705575 363.005229 
L 503.791787 363.408949 
L 505.421105 364.314172 
L 507.050423 365.574815 
L 508.136634 366.604344 
L 509.222846 365.539284 
L 510.852164 363.544929 
L 513.024588 360.523853 
L 516.826329 354.698715 
L 520.084965 349.841341 
L 522.257389 347.056706 
L 523.886707 345.361278 
L 524.972919 344.466349 
L 526.05913 343.787299 
L 527.145342 343.345542 
L 528.231554 343.160105 
L 529.317766 343.247297 
L 530.403978 343.620392 
L 531.49019 344.289362 
L 532.576402 345.26063 
L 533.662614 346.536879 
L 534.748825 348.116892 
L 535.835037 349.995448 
L 537.464355 353.351624 
L 539.093673 357.309208 
L 540.722991 361.799616 
L 542.352309 366.579196 
L 545.067838 357.656576 
L 551.042004 337.676866 
L 553.214427 331.372053 
L 554.843745 327.323966 
L 556.473063 324.011367 
L 557.559275 322.273128 
L 558.645487 320.949507 
L 559.731699 320.0693 
L 560.817911 319.657082 
L 561.361017 319.632895 
L 561.904122 319.732807 
L 562.447228 319.958531 
L 563.53344 320.792605 
L 564.619652 322.142062 
L 565.705864 324.008204 
L 566.792076 326.386522 
L 567.878288 329.266601 
L 568.9645 332.632085 
L 570.593818 338.540153 
L 572.223135 345.389492 
L 574.395559 355.762362 
L 576.024877 364.268999 
L 576.567983 366.106414 
L 585.257678 319.031351 
L 586.886996 311.743802 
L 588.516314 305.467073 
L 589.602525 301.938144 
L 590.688737 298.993223 
L 591.774949 296.677661 
L 592.861161 295.031068 
L 593.404267 294.469305 
L 593.947373 294.086757 
L 594.490479 293.88652 
L 595.033585 293.87124 
L 595.576691 294.043097 
L 596.119797 294.403796 
L 596.662903 294.954558 
L 597.206009 295.69611 
L 598.29222 297.751977 
L 599.378432 300.567106 
L 600.464644 304.128989 
L 601.550856 308.416873 
L 602.637068 313.401811 
L 604.266386 322.103124 
L 605.895704 332.130272 
L 608.068127 347.22156 
L 610.240551 363.770408 
L 610.783657 365.251908 
L 617.844034 309.788877 
L 620.016458 295.164389 
L 621.645776 285.717779 
L 623.275094 277.866845 
L 624.361306 273.634238 
L 625.447517 270.272854 
L 626.533729 267.833858 
L 627.076835 266.973876 
L 627.619941 266.359693 
L 628.163047 265.995151 
L 628.706153 265.88348 
L 629.249259 266.027278 
L 629.792365 266.428502 
L 630.335471 267.088456 
L 630.878577 268.007786 
L 631.964789 270.623791 
L 633.051001 274.268198 
L 634.137213 278.92181 
L 635.223424 284.554575 
L 636.309636 291.125711 
L 637.938954 302.626952 
L 639.568272 315.906637 
L 641.740696 335.919515 
L 644.456225 363.586638 
L 644.999331 363.97172 
L 650.973497 301.168702 
L 653.14592 280.94721 
L 654.775238 267.603775 
L 656.404556 256.211333 
L 657.490768 249.855152 
L 658.57698 244.585774 
L 659.663192 240.474189 
L 660.749404 237.58053 
L 661.29251 236.606049 
L 661.835615 235.953284 
L 662.378721 235.626366 
L 662.921827 235.628617 
L 663.464933 235.962543 
L 664.008039 236.629813 
L 664.551145 237.631254 
L 665.094251 238.966841 
L 666.180463 242.636057 
L 667.266675 247.620042 
L 668.352887 253.887577 
L 669.439099 261.393773 
L 671.068416 274.844458 
L 672.697734 290.696904 
L 674.327052 308.638896 
L 676.499476 335.169808 
L 678.6719 363.757357 
L 679.215006 362.21729 
L 684.646065 289.648525 
L 686.818489 263.665837 
L 688.447807 246.395296 
L 690.077124 231.513717 
L 691.163336 223.115107 
L 692.249548 216.055449 
L 693.33576 210.424716 
L 694.421972 206.299462 
L 694.965078 204.821402 
L 695.508184 203.741853 
L 696.05129 203.066202 
L 696.594396 202.798843 
L 697.137502 202.943156 
L 697.680608 203.501495 
L 698.223713 204.475172 
L 698.766819 205.86445 
L 699.309925 207.668535 
L 700.396137 212.512632 
L 701.482349 218.97984 
L 702.568561 227.02559 
L 703.654773 236.588615 
L 705.284091 253.604076 
L 706.913409 273.528048 
L 708.542726 295.96013 
L 710.71515 328.957821 
L 712.887574 364.32658 
L 713.43068 359.934995 
L 718.318633 279.43216 
L 720.491057 246.996752 
L 722.120375 225.258731 
L 723.749693 206.342288 
L 724.835905 195.54047 
L 725.922116 186.336394 
L 727.008328 178.842574 
L 728.09454 173.155449 
L 728.637646 171.014848 
L 729.180752 169.354216 
L 729.723858 168.18059 
L 730.266964 167.499816 
L 730.81007 167.316521 
L 731.353176 167.634099 
L 731.896282 168.454689 
L 732.439388 169.779171 
L 732.982494 171.607149 
L 733.5256 173.936946 
L 734.611811 180.088886 
L 735.698023 188.195958 
L 736.784235 198.198795 
L 737.870447 210.01807 
L 739.499765 230.931774 
L 741.129083 255.295475 
L 743.301506 292.277532 
L 746.017036 343.751553 
L 747.103248 365.343111 
L 747.646354 357.065651 
L 752.534307 260.555927 
L 754.706731 221.935301 
L 756.336049 196.16513 
L 757.965367 173.843319 
L 759.051579 161.160389 
L 760.137791 150.410823 
L 761.224003 141.724322 
L 762.310214 135.211063 
L 762.85332 132.798158 
L 763.396426 130.960366 
L 763.939532 129.705406 
L 764.482638 129.039568 
L 765.025744 128.967681 
L 765.56885 129.493101 
L 766.111956 130.617688 
L 766.655062 132.341799 
L 767.198168 134.664274 
L 768.28438 141.092085 
L 769.370592 149.861467 
L 770.456804 160.908614 
L 771.543015 174.145966 
L 773.172333 197.860412 
L 774.801651 225.782442 
L 776.430969 257.342537 
L 778.603393 303.927032 
L 781.318922 366.453342 
L 786.749982 239.769663 
L 788.922405 194.505743 
L 790.551723 164.418149 
L 792.181041 138.463316 
L 793.267253 123.782316 
L 794.353465 111.399719 
L 795.439677 101.463436 
L 796.525889 94.098103 
L 797.068995 91.411753 
L 797.612101 89.40358 
L 798.155206 88.081991 
L 798.698312 87.4537 
L 799.241418 87.523704 
L 799.784524 88.295262 
L 800.32763 89.76988 
L 800.870736 91.947295 
L 801.413842 94.825469 
L 802.500054 102.66706 
L 803.586266 113.24284 
L 804.672478 126.472843 
L 805.75869 142.249491 
L 807.388007 170.388428 
L 809.017325 203.38854 
L 810.646643 240.570564 
L 812.819067 295.283063 
L 815.534597 364.374129 
L 820.42255 230.866971 
L 822.594974 177.013898 
L 824.224292 140.859633 
L 825.853609 109.313465 
L 827.482927 83.156442 
L 828.569139 69.048064 
L 829.655351 57.802217 
L 830.741563 49.558754 
L 831.284669 46.598725 
L 831.827775 44.428506 
L 832.370881 43.057187 
L 832.370881 43.057187 
" clip-path="url(#p8a9e4ac319)" style="fill: none; stroke: #1f77b4; stroke-width: 1.5; stroke-linecap: square"/>
   </g>
   <g id="line2d_36">
    <path d="M 490.757244 366.657187 
L 496.73141 366.018083 
L 500.098666 365.889013 
L 503.031439 365.99248 
L 505.964211 366.32093 
L 508.245256 366.585958 
L 511.612512 365.778831 
L 516.826329 364.258499 
L 521.388419 363.012862 
L 524.321191 362.442942 
L 526.819479 362.185657 
L 529.100524 362.176752 
L 531.272947 362.392632 
L 533.445371 362.838596 
L 535.617795 363.513995 
L 537.89884 364.45587 
L 540.505748 365.786196 
L 542.135066 366.586688 
L 546.262671 363.984016 
L 551.042004 361.023051 
L 553.648912 359.668092 
L 555.821336 358.782196 
L 557.776517 358.223647 
L 559.514456 357.945808 
L 561.252395 357.893176 
L 562.881713 358.05973 
L 564.511031 358.440756 
L 566.24897 359.083537 
L 567.986909 359.963516 
L 569.833469 361.142642 
L 571.897272 362.727012 
L 574.286938 364.851014 
L 576.242119 366.556863 
L 585.040436 357.870998 
L 587.212859 356.173543 
L 589.059419 355.009669 
L 590.688737 354.234877 
L 592.209434 353.749661 
L 593.621509 353.520292 
L 595.033585 353.514337 
L 596.44566 353.738092 
L 597.857736 354.193853 
L 599.269811 354.879772 
L 600.790508 355.868805 
L 602.419826 357.201921 
L 604.157765 358.910047 
L 606.221567 361.271854 
L 608.611233 364.362245 
L 610.349172 366.540973 
L 617.626792 356.435519 
L 619.799216 353.894328 
L 621.645776 352.072512 
L 623.275094 350.777824 
L 624.687169 349.923857 
L 625.990623 349.375331 
L 627.294078 349.070159 
L 628.488911 349.012246 
L 629.683744 349.171245 
L 630.878577 349.549024 
L 632.182031 350.209578 
L 633.485485 351.124552 
L 634.897561 352.392599 
L 636.418257 354.061757 
L 638.156196 356.32066 
L 640.111378 359.24875 
L 642.501044 363.260007 
L 644.456225 366.539358 
L 650.864875 355.018326 
L 653.037299 351.632096 
L 654.883859 349.155295 
L 656.513177 347.346628 
L 657.925253 346.104915 
L 659.228707 345.251949 
L 660.42354 344.732549 
L 661.509752 344.487142 
L 662.595964 344.46332 
L 663.682176 344.664245 
L 664.768388 345.090806 
L 665.963221 345.818869 
L 667.158054 346.813043 
L 668.461508 348.190991 
L 669.873583 350.01146 
L 671.502901 352.502147 
L 673.349461 355.769798 
L 675.521885 360.105013 
L 678.563278 366.552367 
L 684.537444 353.343388 
L 686.709868 349.132663 
L 688.556428 346.028513 
L 690.077124 343.875936 
L 691.4892 342.25 
L 692.684033 341.180277 
L 693.878866 340.408954 
L 694.965078 339.977854 
L 695.942669 339.816122 
L 696.920259 339.872394 
L 697.89785 340.148379 
L 698.875441 340.643985 
L 699.961652 341.449855 
L 701.156486 342.640356 
L 702.45994 344.289807 
L 703.872015 346.467578 
L 705.392712 349.231709 
L 707.130651 352.861127 
L 709.194453 357.707543 
L 711.909983 364.701457 
L 712.670331 366.580353 
L 718.318633 351.71184 
L 720.491057 346.656272 
L 722.337617 342.907348 
L 723.858314 340.288373 
L 725.270389 338.290193 
L 726.465222 336.956079 
L 727.551434 336.044961 
L 728.529025 335.481034 
L 729.506616 335.166754 
L 730.375585 335.100849 
L 731.244555 335.237938 
L 732.222145 335.63558 
L 733.199736 336.289889 
L 734.285948 337.314003 
L 735.37216 338.643622 
L 736.566993 340.446341 
L 737.979068 343.011402 
L 739.499765 346.258181 
L 741.237704 350.510656 
L 743.301506 356.174835 
L 746.017036 364.326179 
L 746.777385 366.623681 
L 752.208444 350.003502 
L 754.380868 344.095996 
L 756.227428 339.699486 
L 757.748125 336.614151 
L 759.1602 334.245708 
L 760.355033 332.650336 
L 761.441245 331.545992 
L 762.418836 330.845913 
L 763.287805 330.464018 
L 764.156775 330.3126 
L 765.025744 330.394199 
L 765.894714 330.709862 
L 766.763683 331.259129 
L 767.741274 332.153759 
L 768.827486 333.485269 
L 770.022319 335.347923 
L 771.325773 337.833565 
L 772.737848 341.024742 
L 774.367166 345.287982 
L 776.213726 350.763362 
L 778.494771 358.253219 
L 780.884438 366.631655 
L 781.644786 363.96575 
L 785.989633 348.806638 
L 788.270678 341.656251 
L 790.117239 336.580507 
L 791.637935 333.00076 
L 793.050011 330.234901 
L 794.244844 328.354815 
L 795.331056 327.035786 
L 796.308646 326.180315 
L 797.177616 325.691468 
L 798.046585 325.463176 
L 798.806934 325.479602 
L 799.567282 325.698871 
L 800.436251 326.197784 
L 801.305221 326.95997 
L 802.282812 328.12791 
L 803.369023 329.802432 
L 804.563857 332.086235 
L 805.867311 335.077831 
L 807.388007 339.176706 
L 809.125946 344.57182 
L 811.189749 351.788381 
L 813.796658 361.78578 
L 814.991491 366.556527 
L 815.208733 365.884524 
L 820.096686 346.648977 
L 822.377731 338.622558 
L 824.224292 332.932312 
L 825.744988 328.923987 
L 827.048442 326.045865 
L 828.243276 323.901765 
L 829.329487 322.388821 
L 830.307078 321.39807 
L 831.176048 320.821143 
L 831.936396 320.555276 
L 832.045017 320.535665 
L 832.045017 320.535665 
" clip-path="url(#p8a9e4ac319)" style="fill: none; stroke: #ff7f0e; stroke-width: 1.5; stroke-linecap: square"/>
   </g>
   <g id="line2d_37">
    <path d="M 490.757244 366.657187 
L 498.360727 366.292949 
L 502.705575 366.316296 
L 506.83318 366.562716 
L 508.462498 366.595372 
L 513.459073 365.956541 
L 523.343601 364.637458 
L 526.9281 364.429298 
L 530.078114 364.465257 
L 533.119508 364.722667 
L 536.160901 365.203256 
L 539.473847 365.958016 
L 542.243687 366.578793 
L 554.789435 362.936434 
L 557.559275 362.495429 
L 560.057562 362.31699 
L 562.447228 362.366197 
L 564.782584 362.633748 
L 567.17225 363.132176 
L 569.670537 363.88272 
L 572.440378 364.954112 
L 575.807635 366.510631 
L 576.187809 366.61599 
L 585.583541 362.074395 
L 588.19045 361.142487 
L 590.471495 360.555575 
L 592.589608 360.236569 
L 594.5991 360.156008 
L 596.554281 360.296436 
L 598.509463 360.656077 
L 600.518955 361.249663 
L 602.637068 362.106764 
L 604.972424 363.296989 
L 607.687953 364.942638 
L 610.349172 366.573607 
L 617.952656 361.400492 
L 620.505253 359.990885 
L 622.677677 359.041444 
L 624.632859 358.425769 
L 626.479419 358.078075 
L 628.217358 357.973775 
L 629.955297 358.094287 
L 631.693236 358.442161 
L 633.485485 359.035309 
L 635.332046 359.884199 
L 637.341538 361.059888 
L 639.568272 362.628524 
L 642.229491 364.788072 
L 644.456225 366.565022 
L 651.190739 360.653332 
L 653.634716 358.845958 
L 655.698518 357.586498 
L 657.545079 356.713402 
L 659.228707 356.154169 
L 660.858025 355.846143 
L 662.433032 355.77751 
L 663.953729 355.930476 
L 665.528736 356.316842 
L 667.158054 356.956279 
L 668.841682 357.86247 
L 670.633932 359.081737 
L 672.643424 360.725979 
L 674.978779 362.939064 
L 678.020172 366.153831 
L 678.508968 366.623249 
L 684.754686 359.894923 
L 687.144352 357.683139 
L 689.153844 356.116886 
L 690.946094 354.999184 
L 692.575412 354.243344 
L 694.096108 353.781297 
L 695.562494 353.570747 
L 696.97457 353.593035 
L 698.386645 353.83892 
L 699.798721 354.307305 
L 701.319417 355.054788 
L 702.894425 356.082955 
L 704.632364 357.495799 
L 706.533234 359.338552 
L 708.759969 361.824017 
L 711.58412 365.33354 
L 712.616021 366.639736 
L 712.670331 366.568694 
L 718.481565 359.140769 
L 720.816921 356.540625 
L 722.772102 354.68041 
L 724.510041 353.326969 
L 726.085048 352.379201 
L 727.551434 351.757014 
L 728.909199 351.417913 
L 730.212653 351.314547 
L 731.516108 351.432859 
L 732.819562 351.773603 
L 734.177327 352.362345 
L 735.589402 353.220668 
L 737.110099 354.412172 
L 738.793727 356.030479 
L 740.640287 358.126243 
L 742.812711 360.946691 
L 745.582551 364.934576 
L 746.723074 366.650979 
L 746.777385 366.581116 
L 752.371376 358.301721 
L 754.706731 355.274181 
L 756.607602 353.15443 
L 758.29123 351.596836 
L 759.811927 350.484933 
L 761.224003 349.726296 
L 762.527457 349.27426 
L 763.7766 349.0733 
L 764.971434 349.098358 
L 766.166267 349.337534 
L 767.41541 349.815404 
L 768.718864 350.557791 
L 770.076629 351.586824 
L 771.597326 353.032337 
L 773.226644 354.896784 
L 775.073204 357.356639 
L 777.245628 360.634134 
L 780.1784 365.500341 
L 780.884438 366.600708 
L 786.315497 357.456662 
L 788.596542 354.073362 
L 790.497413 351.633467 
L 792.126731 349.88242 
L 793.593117 348.613321 
L 794.950881 347.721356 
L 796.200025 347.155989 
L 797.394858 346.853321 
L 798.535381 346.786868 
L 799.675903 346.940178 
L 800.816426 347.313233 
L 802.011259 347.937026 
L 803.260402 348.837896 
L 804.618167 350.093963 
L 806.084553 351.754938 
L 807.768182 354.016744 
L 809.669052 356.964691 
L 811.950097 360.936435 
L 814.991491 366.627556 
L 815.045801 366.522497 
L 820.259618 356.671576 
L 822.540663 352.855856 
L 824.441534 350.094923 
L 826.070852 348.105145 
L 827.537238 346.654668 
L 828.840692 345.661122 
L 830.089836 344.986408 
L 831.230358 344.617137 
L 832.045017 344.501027 
L 832.045017 344.501027 
" clip-path="url(#p8a9e4ac319)" style="fill: none; stroke: #2ca02c; stroke-width: 1.5; stroke-linecap: square"/>
   </g>
   <g id="patch_9">
    <path d="M 473.676562 382.837187 
L 473.676562 26.877187 
" style="fill: none; stroke: #000000; stroke-width: 0.8; stroke-linejoin: miter; stroke-linecap: square"/>
   </g>
   <g id="patch_10">
    <path d="M 849.451562 382.837187 
L 849.451562 26.877187 
" style="fill: none; stroke: #000000; stroke-width: 0.8; stroke-linejoin: miter; stroke-linecap: square"/>
   </g>
   <g id="patch_11">
    <path d="M 473.676562 382.837187 
L 849.451562 382.837187 
" style="fill: none; stroke: #000000; stroke-width: 0.8; stroke-linejoin: miter; stroke-linecap: square"/>
   </g>
   <g id="patch_12">
    <path d="M 473.676562 26.877187 
L 849.451562 26.877187 
" style="fill: none; stroke: #000000; stroke-width: 0.8; stroke-linejoin: miter; stroke-linecap: square"/>
   </g>
   <g id="text_36">
    <!-- (b) -->
    <g transform="translate(648.827656 20.877187) scale(0.18 -0.18)">
     <use xlink:href="#DejaVuSans-28"/>
     <use xlink:href="#DejaVuSans-62" x="39.013672"/>
     <use xlink:href="#DejaVuSans-29" x="102.490234"/>
    </g>
   </g>
   <g id="legend_2">
    <g id="patch_13">
     <path d="M 482.076562 89.318437 
L 580.118438 89.318437 
Q 582.518438 89.318437 582.518438 86.918437 
L 582.518438 35.277187 
Q 582.518438 32.877187 580.118438 32.877187 
L 482.076562 32.877187 
Q 479.676562 32.877187 479.676562 35.277187 
L 479.676562 86.918437 
Q 479.676562 89.318437 482.076562 89.318437 
z
" style="fill: #ffffff; opacity: 0.8; stroke: #cccccc; stroke-linejoin: miter"/>
    </g>
    <g id="line2d_38">
     <path d="M 484.476562 42.595312 
L 496.476562 42.595312 
L 508.476562 42.595312 
" style="fill: none; stroke: #1f77b4; stroke-width: 1.5; stroke-linecap: square"/>
    </g>
    <g id="text_37">
     <!-- h = 0.05 -->
     <g transform="translate(518.076563 46.795312) scale(0.12 -0.12)">
      <use xlink:href="#DejaVuSans-68"/>
      <use xlink:href="#DejaVuSans-20" x="63.378906"/>
      <use xlink:href="#DejaVuSans-3d" x="95.166016"/>
      <use xlink:href="#DejaVuSans-20" x="178.955078"/>
      <use xlink:href="#DejaVuSans-30" x="210.742188"/>
      <use xlink:href="#DejaVuSans-2e" x="274.365234"/>
      <use xlink:href="#DejaVuSans-30" x="306.152344"/>
      <use xlink:href="#DejaVuSans-35" x="369.775391"/>
     </g>
    </g>
    <g id="line2d_39">
     <path d="M 484.476562 60.209062 
L 496.476562 60.209062 
L 508.476562 60.209062 
" style="fill: none; stroke: #ff7f0e; stroke-width: 1.5; stroke-linecap: square"/>
    </g>
    <g id="text_38">
     <!-- h = 0.01 -->
     <g transform="translate(518.076563 64.409062) scale(0.12 -0.12)">
      <use xlink:href="#DejaVuSans-68"/>
      <use xlink:href="#DejaVuSans-20" x="63.378906"/>
      <use xlink:href="#DejaVuSans-3d" x="95.166016"/>
      <use xlink:href="#DejaVuSans-20" x="178.955078"/>
      <use xlink:href="#DejaVuSans-30" x="210.742188"/>
      <use xlink:href="#DejaVuSans-2e" x="274.365234"/>
      <use xlink:href="#DejaVuSans-30" x="306.152344"/>
      <use xlink:href="#DejaVuSans-31" x="369.775391"/>
     </g>
    </g>
    <g id="line2d_40">
     <path d="M 484.476562 77.822812 
L 496.476562 77.822812 
L 508.476562 77.822812 
" style="fill: none; stroke: #2ca02c; stroke-width: 1.5; stroke-linecap: square"/>
    </g>
    <g id="text_39">
     <!-- h = 0.005 -->
     <g transform="translate(518.076563 82.022812) scale(0.12 -0.12)">
      <use xlink:href="#DejaVuSans-68"/>
      <use xlink:href="#DejaVuSans-20" x="63.378906"/>
      <use xlink:href="#DejaVuSans-3d" x="95.166016"/>
      <use xlink:href="#DejaVuSans-20" x="178.955078"/>
      <use xlink:href="#DejaVuSans-30" x="210.742188"/>
      <use xlink:href="#DejaVuSans-2e" x="274.365234"/>
      <use xlink:href="#DejaVuSans-30" x="306.152344"/>
      <use xlink:href="#DejaVuSans-30" x="369.775391"/>
      <use xlink:href="#DejaVuSans-35" x="433.398438"/>
     </g>
    </g>
   </g>
  </g>
 </g>
 <defs>
  <clipPath id="p62fee56fb6">
   <rect x="46.491563" y="26.877187" width="375.775" height="355.96"/>
  </clipPath>
  <clipPath id="p8a9e4ac319">
   <rect x="473.676562" y="26.877187" width="375.775" height="355.96"/>
  </clipPath>
 </defs>
</svg>
