<?xml version="1.0" encoding="utf-8" standalone="no"?>
<!DOCTYPE svg PUBLIC "-//W3C//DTD SVG 1.1//EN"
  "http://www.w3.org/Graphics/SVG/1.1/DTD/svg11.dtd">
<svg xmlns:xlink="http://www.w3.org/1999/xlink" width="856.651562pt" height="424.264687pt" viewBox="0 0 856.651562 424.264687" xmlns="http://www.w3.org/2000/svg" version="1.1">
 <metadata>
  <rdf:RDF xmlns:dc="http://purl.org/dc/elements/1.1/" xmlns:cc="http://creativecommons.org/ns#" xmlns:rdf="http://www.w3.org/1999/02/22-rdf-syntax-ns#">
   <cc:Work>
    <dc:type rdf:resource="http://purl.org/dc/dcmitype/StillImage"/>
    <dc:date>2024-09-29T20:48:12.404326</dc:date>
    <dc:format>image/svg+xml</dc:format>
    <dc:creator>
     <cc:Agent>
      <dc:title>Matplotlib v3.8.4, https://matplotlib.org/</dc:title>
     </cc:Agent>
    </dc:creator>
   </cc:Work>
  </rdf:RDF>
 </metadata>
 <defs>
  <style type="text/css">*{stroke-linejoin: round; stroke-linecap: butt}</style>
 </defs>
 <g id="figure_1">
  <g id="patch_1">
   <path d="M 0 424.264687 
L 856.651562 424.264687 
L 856.651562 0 
L 0 0 
z
" style="fill: #ffffff"/>
  </g>
  <g id="axes_1">
   <g id="patch_2">
    <path d="M 46.491563 382.837187 
L 422.266562 382.837187 
L 422.266562 26.877187 
L 46.491563 26.877187 
z
" style="fill: #ffffff"/>
   </g>
   <g id="matplotlib.axis_1">
    <g id="xtick_1">
     <g id="line2d_1">
      <defs>
       <path id="mef1f3c19af" d="M 0 0 
L 0 3.5 
" style="stroke: #000000; stroke-width: 0.8"/>
      </defs>
      <g>
       <use xlink:href="#mef1f3c19af" x="63.572244" y="382.837187" style="stroke: #000000; stroke-width: 0.8"/>
      </g>
     </g>
     <g id="text_1">
      <!-- 0 -->
      <g transform="translate(60.390994 397.435625) scale(0.1 -0.1)">
       <defs>
        <path id="DejaVuSans-30" d="M 2034 4250 
Q 1547 4250 1301 3770 
Q 1056 3291 1056 2328 
Q 1056 1369 1301 889 
Q 1547 409 2034 409 
Q 2525 409 2770 889 
Q 3016 1369 3016 2328 
Q 3016 3291 2770 3770 
Q 2525 4250 2034 4250 
z
M 2034 4750 
Q 2819 4750 3233 4129 
Q 3647 3509 3647 2328 
Q 3647 1150 3233 529 
Q 2819 -91 2034 -91 
Q 1250 -91 836 529 
Q 422 1150 422 2328 
Q 422 3509 836 4129 
Q 1250 4750 2034 4750 
z
" transform="scale(0.015625)"/>
       </defs>
       <use xlink:href="#DejaVuSans-30"/>
      </g>
     </g>
    </g>
    <g id="xtick_2">
     <g id="line2d_2">
      <g>
       <use xlink:href="#mef1f3c19af" x="117.934694" y="382.837187" style="stroke: #000000; stroke-width: 0.8"/>
      </g>
     </g>
     <g id="text_2">
      <!-- 5 -->
      <g transform="translate(114.753444 397.435625) scale(0.1 -0.1)">
       <defs>
        <path id="DejaVuSans-35" d="M 691 4666 
L 3169 4666 
L 3169 4134 
L 1269 4134 
L 1269 2991 
Q 1406 3038 1543 3061 
Q 1681 3084 1819 3084 
Q 2600 3084 3056 2656 
Q 3513 2228 3513 1497 
Q 3513 744 3044 326 
Q 2575 -91 1722 -91 
Q 1428 -91 1123 -41 
Q 819 9 494 109 
L 494 744 
Q 775 591 1075 516 
Q 1375 441 1709 441 
Q 2250 441 2565 725 
Q 2881 1009 2881 1497 
Q 2881 1984 2565 2268 
Q 2250 2553 1709 2553 
Q 1456 2553 1204 2497 
Q 953 2441 691 2322 
L 691 4666 
z
" transform="scale(0.015625)"/>
       </defs>
       <use xlink:href="#DejaVuSans-35"/>
      </g>
     </g>
    </g>
    <g id="xtick_3">
     <g id="line2d_3">
      <g>
       <use xlink:href="#mef1f3c19af" x="172.297144" y="382.837187" style="stroke: #000000; stroke-width: 0.8"/>
      </g>
     </g>
     <g id="text_3">
      <!-- 10 -->
      <g transform="translate(165.934644 397.435625) scale(0.1 -0.1)">
       <defs>
        <path id="DejaVuSans-31" d="M 794 531 
L 1825 531 
L 1825 4091 
L 703 3866 
L 703 4441 
L 1819 4666 
L 2450 4666 
L 2450 531 
L 3481 531 
L 3481 0 
L 794 0 
L 794 531 
z
" transform="scale(0.015625)"/>
       </defs>
       <use xlink:href="#DejaVuSans-31"/>
       <use xlink:href="#DejaVuSans-30" x="63.623047"/>
      </g>
     </g>
    </g>
    <g id="xtick_4">
     <g id="line2d_4">
      <g>
       <use xlink:href="#mef1f3c19af" x="226.659595" y="382.837187" style="stroke: #000000; stroke-width: 0.8"/>
      </g>
     </g>
     <g id="text_4">
      <!-- 15 -->
      <g transform="translate(220.297095 397.435625) scale(0.1 -0.1)">
       <use xlink:href="#DejaVuSans-31"/>
       <use xlink:href="#DejaVuSans-35" x="63.623047"/>
      </g>
     </g>
    </g>
    <g id="xtick_5">
     <g id="line2d_5">
      <g>
       <use xlink:href="#mef1f3c19af" x="281.022045" y="382.837187" style="stroke: #000000; stroke-width: 0.8"/>
      </g>
     </g>
     <g id="text_5">
      <!-- 20 -->
      <g transform="translate(274.659545 397.435625) scale(0.1 -0.1)">
       <defs>
        <path id="DejaVuSans-32" d="M 1228 531 
L 3431 531 
L 3431 0 
L 469 0 
L 469 531 
Q 828 903 1448 1529 
Q 2069 2156 2228 2338 
Q 2531 2678 2651 2914 
Q 2772 3150 2772 3378 
Q 2772 3750 2511 3984 
Q 2250 4219 1831 4219 
Q 1534 4219 1204 4116 
Q 875 4013 500 3803 
L 500 4441 
Q 881 4594 1212 4672 
Q 1544 4750 1819 4750 
Q 2544 4750 2975 4387 
Q 3406 4025 3406 3419 
Q 3406 3131 3298 2873 
Q 3191 2616 2906 2266 
Q 2828 2175 2409 1742 
Q 1991 1309 1228 531 
z
" transform="scale(0.015625)"/>
       </defs>
       <use xlink:href="#DejaVuSans-32"/>
       <use xlink:href="#DejaVuSans-30" x="63.623047"/>
      </g>
     </g>
    </g>
    <g id="xtick_6">
     <g id="line2d_6">
      <g>
       <use xlink:href="#mef1f3c19af" x="335.384495" y="382.837187" style="stroke: #000000; stroke-width: 0.8"/>
      </g>
     </g>
     <g id="text_6">
      <!-- 25 -->
      <g transform="translate(329.021995 397.435625) scale(0.1 -0.1)">
       <use xlink:href="#DejaVuSans-32"/>
       <use xlink:href="#DejaVuSans-35" x="63.623047"/>
      </g>
     </g>
    </g>
    <g id="xtick_7">
     <g id="line2d_7">
      <g>
       <use xlink:href="#mef1f3c19af" x="389.746945" y="382.837187" style="stroke: #000000; stroke-width: 0.8"/>
      </g>
     </g>
     <g id="text_7">
      <!-- 30 -->
      <g transform="translate(383.384445 397.435625) scale(0.1 -0.1)">
       <defs>
        <path id="DejaVuSans-33" d="M 2597 2516 
Q 3050 2419 3304 2112 
Q 3559 1806 3559 1356 
Q 3559 666 3084 287 
Q 2609 -91 1734 -91 
Q 1441 -91 1130 -33 
Q 819 25 488 141 
L 488 750 
Q 750 597 1062 519 
Q 1375 441 1716 441 
Q 2309 441 2620 675 
Q 2931 909 2931 1356 
Q 2931 1769 2642 2001 
Q 2353 2234 1838 2234 
L 1294 2234 
L 1294 2753 
L 1863 2753 
Q 2328 2753 2575 2939 
Q 2822 3125 2822 3475 
Q 2822 3834 2567 4026 
Q 2313 4219 1838 4219 
Q 1578 4219 1281 4162 
Q 984 4106 628 3988 
L 628 4550 
Q 988 4650 1302 4700 
Q 1616 4750 1894 4750 
Q 2613 4750 3031 4423 
Q 3450 4097 3450 3541 
Q 3450 3153 3228 2886 
Q 3006 2619 2597 2516 
z
" transform="scale(0.015625)"/>
       </defs>
       <use xlink:href="#DejaVuSans-33"/>
       <use xlink:href="#DejaVuSans-30" x="63.623047"/>
      </g>
     </g>
    </g>
    <g id="text_8">
     <!-- t (s) -->
     <g transform="translate(220.301406 414.153125) scale(0.14 -0.14)">
      <defs>
       <path id="DejaVuSans-74" d="M 1172 4494 
L 1172 3500 
L 2356 3500 
L 2356 3053 
L 1172 3053 
L 1172 1153 
Q 1172 725 1289 603 
Q 1406 481 1766 481 
L 2356 481 
L 2356 0 
L 1766 0 
Q 1100 0 847 248 
Q 594 497 594 1153 
L 594 3053 
L 172 3053 
L 172 3500 
L 594 3500 
L 594 4494 
L 1172 4494 
z
" transform="scale(0.015625)"/>
       <path id="DejaVuSans-20" transform="scale(0.015625)"/>
       <path id="DejaVuSans-28" d="M 1984 4856 
Q 1566 4138 1362 3434 
Q 1159 2731 1159 2009 
Q 1159 1288 1364 580 
Q 1569 -128 1984 -844 
L 1484 -844 
Q 1016 -109 783 600 
Q 550 1309 550 2009 
Q 550 2706 781 3412 
Q 1013 4119 1484 4856 
L 1984 4856 
z
" transform="scale(0.015625)"/>
       <path id="DejaVuSans-73" d="M 2834 3397 
L 2834 2853 
Q 2591 2978 2328 3040 
Q 2066 3103 1784 3103 
Q 1356 3103 1142 2972 
Q 928 2841 928 2578 
Q 928 2378 1081 2264 
Q 1234 2150 1697 2047 
L 1894 2003 
Q 2506 1872 2764 1633 
Q 3022 1394 3022 966 
Q 3022 478 2636 193 
Q 2250 -91 1575 -91 
Q 1294 -91 989 -36 
Q 684 19 347 128 
L 347 722 
Q 666 556 975 473 
Q 1284 391 1588 391 
Q 1994 391 2212 530 
Q 2431 669 2431 922 
Q 2431 1156 2273 1281 
Q 2116 1406 1581 1522 
L 1381 1569 
Q 847 1681 609 1914 
Q 372 2147 372 2553 
Q 372 3047 722 3315 
Q 1072 3584 1716 3584 
Q 2034 3584 2315 3537 
Q 2597 3491 2834 3397 
z
" transform="scale(0.015625)"/>
       <path id="DejaVuSans-29" d="M 513 4856 
L 1013 4856 
Q 1481 4119 1714 3412 
Q 1947 2706 1947 2009 
Q 1947 1309 1714 600 
Q 1481 -109 1013 -844 
L 513 -844 
Q 928 -128 1133 580 
Q 1338 1288 1338 2009 
Q 1338 2731 1133 3434 
Q 928 4138 513 4856 
z
" transform="scale(0.015625)"/>
      </defs>
      <use xlink:href="#DejaVuSans-74"/>
      <use xlink:href="#DejaVuSans-20" x="39.208984"/>
      <use xlink:href="#DejaVuSans-28" x="70.996094"/>
      <use xlink:href="#DejaVuSans-73" x="110.009766"/>
      <use xlink:href="#DejaVuSans-29" x="162.109375"/>
     </g>
    </g>
   </g>
   <g id="matplotlib.axis_2">
    <g id="ytick_1">
     <g id="line2d_8">
      <defs>
       <path id="me5d1121b0a" d="M 0 0 
L -3.5 0 
" style="stroke: #000000; stroke-width: 0.8"/>
      </defs>
      <g>
       <use xlink:href="#me5d1121b0a" x="46.491563" y="364.575499" style="stroke: #000000; stroke-width: 0.8"/>
      </g>
     </g>
     <g id="text_9">
      <!-- −2 -->
      <g transform="translate(24.749375 368.374718) scale(0.1 -0.1)">
       <defs>
        <path id="DejaVuSans-2212" d="M 678 2272 
L 4684 2272 
L 4684 1741 
L 678 1741 
L 678 2272 
z
" transform="scale(0.015625)"/>
       </defs>
       <use xlink:href="#DejaVuSans-2212"/>
       <use xlink:href="#DejaVuSans-32" x="83.789062"/>
      </g>
     </g>
    </g>
    <g id="ytick_2">
     <g id="line2d_9">
      <g>
       <use xlink:href="#me5d1121b0a" x="46.491563" y="287.810108" style="stroke: #000000; stroke-width: 0.8"/>
      </g>
     </g>
     <g id="text_10">
      <!-- −1 -->
      <g transform="translate(24.749375 291.609327) scale(0.1 -0.1)">
       <use xlink:href="#DejaVuSans-2212"/>
       <use xlink:href="#DejaVuSans-31" x="83.789062"/>
      </g>
     </g>
    </g>
    <g id="ytick_3">
     <g id="line2d_10">
      <g>
       <use xlink:href="#me5d1121b0a" x="46.491563" y="211.044717" style="stroke: #000000; stroke-width: 0.8"/>
      </g>
     </g>
     <g id="text_11">
      <!-- 0 -->
      <g transform="translate(33.129063 214.843936) scale(0.1 -0.1)">
       <use xlink:href="#DejaVuSans-30"/>
      </g>
     </g>
    </g>
    <g id="ytick_4">
     <g id="line2d_11">
      <g>
       <use xlink:href="#me5d1121b0a" x="46.491563" y="134.279326" style="stroke: #000000; stroke-width: 0.8"/>
      </g>
     </g>
     <g id="text_12">
      <!-- 1 -->
      <g transform="translate(33.129063 138.078545) scale(0.1 -0.1)">
       <use xlink:href="#DejaVuSans-31"/>
      </g>
     </g>
    </g>
    <g id="ytick_5">
     <g id="line2d_12">
      <g>
       <use xlink:href="#me5d1121b0a" x="46.491563" y="57.513936" style="stroke: #000000; stroke-width: 0.8"/>
      </g>
     </g>
     <g id="text_13">
      <!-- 2 -->
      <g transform="translate(33.129063 61.313154) scale(0.1 -0.1)">
       <use xlink:href="#DejaVuSans-32"/>
      </g>
     </g>
    </g>
    <g id="text_14">
     <!-- v(t) -->
     <g transform="translate(17.837812 217.206719) rotate(-90) scale(0.14 -0.14)">
      <defs>
       <path id="DejaVuSans-76" d="M 191 3500 
L 800 3500 
L 1894 563 
L 2988 3500 
L 3597 3500 
L 2284 0 
L 1503 0 
L 191 3500 
z
" transform="scale(0.015625)"/>
      </defs>
      <use xlink:href="#DejaVuSans-76"/>
      <use xlink:href="#DejaVuSans-28" x="59.179688"/>
      <use xlink:href="#DejaVuSans-74" x="98.193359"/>
      <use xlink:href="#DejaVuSans-29" x="137.402344"/>
     </g>
    </g>
   </g>
   <g id="line2d_13">
    <path d="M 63.572244 134.279326 
L 64.115869 134.279326 
L 64.659493 134.47124 
L 65.203118 134.855067 
L 65.746742 135.430328 
L 66.833991 137.150833 
L 67.92124 139.619353 
L 69.008489 142.81493 
L 70.095738 146.70923 
L 71.182987 151.266782 
L 72.813861 159.252446 
L 74.444734 168.46445 
L 76.619232 182.308516 
L 79.337355 201.357901 
L 85.860849 248.17566 
L 88.035347 261.934981 
L 89.66622 271.036809 
L 91.297094 278.856124 
L 92.384343 283.263518 
L 93.471592 286.970337 
L 94.558841 289.935983 
L 95.64609 292.127069 
L 96.189714 292.923785 
L 96.733339 293.517795 
L 97.276963 293.907107 
L 97.820588 294.090237 
L 98.364212 294.06621 
L 98.907837 293.83457 
L 99.451461 293.395376 
L 99.995086 292.749207 
L 101.082335 290.840855 
L 102.169584 288.12449 
L 103.256833 284.623246 
L 104.344082 280.368229 
L 105.431331 275.398242 
L 107.062204 266.705555 
L 108.693078 256.694096 
L 110.867576 241.670493 
L 113.585698 221.029463 
L 120.109192 170.42692 
L 122.28369 155.595062 
L 123.914564 145.799334 
L 125.545437 137.3992 
L 126.632686 132.674404 
L 127.719935 128.710147 
L 128.807184 125.549905 
L 129.894433 123.229324 
L 130.438058 122.392807 
L 130.981682 121.775829 
L 131.525307 121.38048 
L 132.068931 121.208304 
L 132.612556 121.260288 
L 133.15618 121.536863 
L 133.699805 122.0379 
L 134.243429 122.762705 
L 135.330678 124.878056 
L 136.417927 127.866202 
L 137.505176 131.701613 
L 138.592425 136.350151 
L 139.679674 141.769374 
L 141.310548 151.231007 
L 142.941421 162.110711 
L 145.115919 178.413647 
L 147.834042 200.778506 
L 154.357536 255.469919 
L 156.532034 271.457174 
L 158.162907 281.999065 
L 159.793781 291.022413 
L 160.88103 296.086873 
L 161.968279 300.325734 
L 163.055528 303.692448 
L 164.142777 306.14896 
L 164.686401 307.026427 
L 165.230026 307.666133 
L 165.77365 308.065885 
L 166.317275 308.224083 
L 166.860899 308.139729 
L 167.404524 307.812426 
L 167.948148 307.242385 
L 168.491773 306.430426 
L 169.579022 304.087054 
L 170.666271 300.800945 
L 171.75352 296.600263 
L 172.840769 291.52246 
L 173.928018 285.613956 
L 175.558892 275.316082 
L 177.189765 263.493468 
L 179.364263 245.803014 
L 182.082386 221.57123 
L 188.60588 162.462584 
L 190.780378 145.230736 
L 192.411251 133.886542 
L 194.042125 124.19456 
L 195.129374 118.766667 
L 196.216623 114.234958 
L 197.303872 110.649265 
L 198.391121 108.050202 
L 198.934745 107.130717 
L 199.47837 106.468718 
L 200.021994 106.066503 
L 200.565619 105.925729 
L 201.109243 106.0474 
L 201.652868 106.431869 
L 202.196492 107.078831 
L 202.740117 107.987325 
L 203.827366 110.581786 
L 204.914615 114.194493 
L 206.001864 118.794394 
L 207.089113 124.340402 
L 208.719986 134.3198 
L 210.35086 146.101981 
L 211.981733 159.43518 
L 214.156231 179.122146 
L 217.417978 211.160467 
L 221.766974 254.107745 
L 223.941472 273.740799 
L 225.572346 286.989029 
L 227.203219 298.626697 
L 228.834093 308.379628 
L 229.921342 313.717215 
L 231.008591 318.054157 
L 232.09584 321.342048 
L 233.183089 323.542736 
L 233.726713 324.226369 
L 234.270338 324.628758 
L 234.813962 324.748192 
L 235.357587 324.583666 
L 235.901211 324.134881 
L 236.444836 323.402249 
L 236.98846 322.386892 
L 238.075709 319.516034 
L 239.162958 315.545413 
L 240.250207 310.509254 
L 241.337456 304.452616 
L 242.96833 293.578388 
L 244.599203 280.763843 
L 246.230077 266.28296 
L 248.404575 244.929863 
L 251.666322 210.235334 
L 256.015318 163.822444 
L 258.189816 142.64654 
L 259.820689 128.377598 
L 261.451563 115.862932 
L 263.082436 105.397548 
L 264.169685 99.685099 
L 265.256934 95.058343 
L 266.344183 91.569014 
L 266.887808 90.264022 
L 267.431432 89.257719 
L 267.975057 88.553369 
L 268.518681 88.153485 
L 269.062306 88.05983 
L 269.60593 88.273404 
L 270.149555 88.794439 
L 270.693179 89.622403 
L 271.236804 90.755992 
L 272.324053 93.931004 
L 273.411302 98.293781 
L 274.498551 103.806612 
L 275.5858 110.420093 
L 277.216673 122.268381 
L 278.847547 136.204887 
L 280.47842 151.931478 
L 282.652918 175.090785 
L 285.914665 212.660446 
L 290.263661 262.816869 
L 292.438159 285.655892 
L 294.069033 301.023368 
L 295.699906 314.48018 
L 297.33078 325.708931 
L 298.418029 331.821646 
L 299.505278 336.756437 
L 300.592527 340.458031 
L 301.136151 341.832389 
L 301.679776 342.883214 
L 302.2234 343.60707 
L 302.767025 344.001329 
L 303.310649 344.064183 
L 303.854274 343.794645 
L 304.397898 343.192558 
L 304.941523 342.258596 
L 305.485147 340.994265 
L 306.572396 337.48466 
L 307.659645 332.692295 
L 308.746894 326.658702 
L 309.834143 319.438041 
L 311.465017 306.529523 
L 313.09589 291.37375 
L 314.726764 274.295113 
L 316.901262 249.177816 
L 320.163009 208.496159 
L 324.512005 154.296141 
L 326.686503 129.664435 
L 328.317376 113.114743 
L 329.94825 98.645881 
L 331.579123 86.599313 
L 332.666372 80.059299 
L 333.753621 74.797218 
L 334.84087 70.872119 
L 335.384495 69.42583 
L 335.928119 68.329973 
L 336.471744 67.588163 
L 337.015368 67.203139 
L 337.558993 67.176757 
L 338.102617 67.509979 
L 338.646242 68.202871 
L 339.189866 69.2546 
L 339.733491 70.663433 
L 340.82074 74.541004 
L 341.907989 79.803877 
L 342.995238 86.406325 
L 344.082487 94.288991 
L 345.71336 108.351449 
L 347.344234 124.832165 
L 348.975107 143.378195 
L 351.149605 170.617941 
L 354.411352 214.667856 
L 358.760348 273.235427 
L 360.934846 299.79938 
L 362.56572 317.621268 
L 364.196593 333.177181 
L 365.827467 346.099784 
L 366.914716 353.09586 
L 368.001965 358.705561 
L 369.089214 362.865815 
L 369.632838 364.386552 
L 370.176463 365.527736 
L 370.720087 366.285566 
L 371.263712 366.657187 
L 371.807336 366.640707 
L 372.350961 366.235196 
L 372.894585 365.440695 
L 373.43821 364.258217 
L 373.981834 362.68975 
L 375.069083 358.407635 
L 376.156332 352.629532 
L 377.243581 345.40577 
L 378.33083 336.801394 
L 379.961704 321.483088 
L 381.592577 303.562672 
L 383.767075 276.292513 
L 386.485198 238.283315 
L 394.095941 128.20253 
L 396.270439 101.210007 
L 397.901312 83.617432 
L 399.532186 68.762087 
L 400.619435 60.557241 
L 401.706684 53.817134 
L 402.793933 48.616543 
L 403.881182 45.015213 
L 404.424806 43.828664 
L 404.968431 43.057187 
L 404.968431 43.057187 
" clip-path="url(#pb202234152)" style="fill: none; stroke: #1f77b4; stroke-width: 1.5; stroke-linecap: square"/>
   </g>
   <g id="line2d_14">
    <path d="M 63.572244 134.279326 
L 64.115869 134.356088 
L 64.768218 134.701283 
L 65.420568 135.32151 
L 66.181642 136.389905 
L 67.051441 138.059355 
L 68.029965 140.496693 
L 69.117214 143.876455 
L 70.313188 148.372123 
L 71.617887 154.144482 
L 73.140036 161.916145 
L 74.879634 171.979625 
L 77.054132 185.953526 
L 80.207154 207.885857 
L 85.099775 241.887216 
L 87.274273 255.447759 
L 89.122596 265.621981 
L 90.644744 272.843051 
L 91.949443 278.082276 
L 93.145417 282.04457 
L 94.232666 284.906403 
L 95.21119 286.853905 
L 96.080989 288.071522 
L 96.842064 288.733619 
L 97.494413 288.998625 
L 98.038038 289.005238 
L 98.581662 288.816954 
L 99.234012 288.334306 
L 99.886361 287.573139 
L 100.647435 286.336578 
L 101.517234 284.471022 
L 102.495759 281.809567 
L 103.583008 278.178569 
L 104.778981 273.406746 
L 106.192405 266.793207 
L 107.823279 257.989589 
L 109.671602 246.732354 
L 112.06355 230.657978 
L 116.521271 198.711306 
L 119.674293 176.963544 
L 121.848791 163.486851 
L 123.588389 154.028856 
L 125.110538 146.92891 
L 126.415237 141.829869 
L 127.611211 138.023807 
L 128.589735 135.561716 
L 129.459534 133.883951 
L 130.220608 132.819525 
L 130.981682 132.137618 
L 131.634032 131.860368 
L 132.177656 131.846928 
L 132.721281 132.031476 
L 133.37363 132.513733 
L 134.02598 133.278978 
L 134.787054 134.525927 
L 135.656853 136.410721 
L 136.635377 139.103067 
L 137.722626 142.779584 
L 138.9186 147.614572 
L 140.332024 154.319435 
L 141.962897 163.24896 
L 143.811221 174.672066 
L 146.203168 190.990094 
L 150.552164 222.648813 
L 153.705187 244.817292 
L 155.879685 258.602122 
L 157.619283 268.307678 
L 159.141432 275.619598 
L 160.44613 280.893565 
L 161.642104 284.852206 
L 162.729353 287.681241 
L 163.599152 289.39607 
L 164.360227 290.486708 
L 165.121301 291.188884 
L 165.77365 291.478698 
L 166.317275 291.499178 
L 166.860899 291.318533 
L 167.513249 290.836802 
L 168.165598 290.067542 
L 168.926673 288.81019 
L 169.796472 286.906021 
L 170.774996 284.182482 
L 171.862245 280.459925 
L 173.058219 275.560983 
L 174.471643 268.763581 
L 176.102516 259.706394 
L 177.950839 248.11502 
L 180.342787 231.5497 
L 184.583058 200.197624 
L 187.844805 176.862872 
L 190.019303 162.845993 
L 191.758902 152.972474 
L 193.28105 145.530203 
L 194.585749 140.158916 
L 195.781723 136.12404 
L 196.868972 133.23729 
L 197.738771 131.48465 
L 198.499845 130.367239 
L 199.26092 129.644326 
L 199.913269 129.34162 
L 200.456894 129.31388 
L 201.000518 129.490452 
L 201.652868 129.971519 
L 202.305217 130.744726 
L 203.066291 132.012495 
L 203.93609 133.936174 
L 204.914615 136.691213 
L 206.001864 140.460334 
L 207.197837 145.424031 
L 208.611261 152.315202 
L 210.242135 161.501827 
L 212.090458 173.263901 
L 214.373681 189.286716 
L 218.287777 218.646657 
L 221.875699 244.887157 
L 224.050197 259.221507 
L 225.789795 269.350704 
L 227.311944 277.012349 
L 228.616643 282.565013 
L 229.812617 286.758382 
L 230.899866 289.781095 
L 231.87839 291.831901 
L 232.639464 292.976656 
L 233.400538 293.720785 
L 234.052888 294.036716 
L 234.596512 294.071941 
L 235.140137 293.899617 
L 235.792486 293.419357 
L 236.444836 292.642273 
L 237.20591 291.364075 
L 238.075709 289.420751 
L 239.054233 286.633907 
L 240.141482 282.817689 
L 241.337456 277.788431 
L 242.75088 270.802246 
L 244.381753 261.484379 
L 246.230077 249.549141 
L 248.5133 233.283776 
L 252.427396 203.464013 
L 256.015318 176.796678 
L 258.189816 162.221471 
L 259.929414 151.917382 
L 261.451563 144.119561 
L 262.756261 138.464852 
L 263.952235 134.191197 
L 265.039484 131.10736 
L 266.018008 129.011739 
L 266.779083 127.839059 
L 267.540157 127.073225 
L 268.192506 126.743727 
L 268.736131 126.700787 
L 269.279755 126.868685 
L 269.932105 127.34799 
L 270.584454 128.128878 
L 271.345529 129.417513 
L 272.215328 131.380616 
L 273.193852 134.199576 
L 274.281101 138.063425 
L 275.477075 143.159062 
L 276.890498 150.241523 
L 278.521372 159.692456 
L 280.369695 171.803359 
L 282.652918 188.31489 
L 286.567015 218.601589 
L 290.154936 245.702619 
L 292.329434 260.522674 
L 294.069033 271.004623 
L 295.591181 278.940989 
L 296.89588 284.699565 
L 298.091854 289.054984 
L 299.179103 292.201114 
L 300.157627 294.342448 
L 300.918701 295.543647 
L 301.679776 296.331683 
L 302.332125 296.675098 
L 302.87575 296.725988 
L 303.419374 296.5627 
L 303.962999 296.185536 
L 304.615348 295.451836 
L 305.376422 294.211494 
L 306.246222 292.294375 
L 307.224746 289.515052 
L 308.311995 285.679839 
L 309.507969 280.596633 
L 310.921392 273.502902 
L 312.443541 264.677465 
L 314.291864 252.550491 
L 316.575087 235.92907 
L 320.054284 208.689666 
L 324.18583 176.767271 
L 326.360328 161.615089 
L 328.208651 150.240873 
L 329.7308 142.163553 
L 331.035499 136.299256 
L 332.231473 131.860568 
L 333.318722 128.650956 
L 334.297246 126.462992 
L 335.05832 125.232669 
L 335.819394 124.421921 
L 336.471744 124.064232 
L 337.015368 124.005152 
L 337.558993 124.163641 
L 338.102617 124.539412 
L 338.754967 125.275941 
L 339.516041 126.525781 
L 340.38584 128.46187 
L 341.364364 131.272742 
L 342.451613 135.155391 
L 343.647587 140.305291 
L 344.952286 146.903142 
L 346.474435 155.76993 
L 348.214033 167.232871 
L 350.388531 183.125416 
L 353.541553 208.02558 
L 358.325449 245.727484 
L 360.499947 261.133747 
L 362.34827 272.704018 
L 363.870419 280.924742 
L 365.283842 287.346451 
L 366.479816 291.784155 
L 367.567065 294.976545 
L 368.436864 296.929968 
L 369.197939 298.190033 
L 369.959013 299.024011 
L 370.611362 299.396338 
L 371.154987 299.463855 
L 371.698611 299.310358 
L 372.242236 298.93612 
L 372.894585 298.196858 
L 373.65566 296.937535 
L 374.525459 294.982361 
L 375.503983 292.139645 
L 376.591232 288.20903 
L 377.787206 282.991614 
L 379.091905 276.303401 
L 380.614053 267.310839 
L 382.353652 255.680331 
L 384.52815 239.548887 
L 387.681172 214.262769 
L 392.465067 175.952487 
L 394.74829 159.552133 
L 396.596614 147.878417 
L 398.118762 139.604923 
L 399.423461 133.612012 
L 400.619435 129.089228 
L 401.706684 125.832148 
L 402.576483 123.836118 
L 403.337557 122.545682 
L 404.098632 121.687944 
L 404.750981 121.300606 
L 405.185881 121.221682 
L 405.185881 121.221682 
" clip-path="url(#pb202234152)" style="fill: none; stroke: #ff7f0e; stroke-width: 1.5; stroke-linecap: square"/>
   </g>
   <g id="line2d_15">
    <path d="M 63.572244 134.279326 
L 64.170231 134.384863 
L 64.768218 134.722296 
L 65.420568 135.353738 
L 66.181642 136.43479 
L 66.997079 137.998899 
L 67.92124 140.26827 
L 68.954127 143.40978 
L 70.150101 147.809232 
L 71.4548 153.481321 
L 72.976948 161.143391 
L 74.716547 171.093084 
L 76.836682 184.583301 
L 79.826617 205.209029 
L 85.154137 242.092326 
L 87.382997 255.841792 
L 89.176958 265.580232 
L 90.699107 272.696734 
L 92.058168 278.0389 
L 93.254142 281.880133 
L 94.287029 284.511464 
L 95.21119 286.305734 
L 96.026627 287.4385 
L 96.733339 288.073256 
L 97.385688 288.370609 
L 97.983675 288.398768 
L 98.581662 288.192967 
L 99.234012 287.702303 
L 99.940723 286.85929 
L 100.701798 285.593099 
L 101.571597 283.698737 
L 102.550121 281.011772 
L 103.63737 277.361546 
L 104.887706 272.344736 
L 106.30113 265.698579 
L 107.932004 256.886005 
L 109.834689 245.309851 
L 112.226637 229.303208 
L 121.087717 168.573828 
L 122.93604 158.138087 
L 124.512551 150.425302 
L 125.925975 144.583468 
L 127.176311 140.345019 
L 128.26356 137.415135 
L 129.187722 135.501189 
L 130.003158 134.264451 
L 130.764233 133.499184 
L 131.416582 133.145284 
L 132.014569 133.067085 
L 132.612556 133.224717 
L 133.210543 133.617768 
L 133.862892 134.313707 
L 134.623967 135.474744 
L 135.493766 137.255042 
L 136.47229 139.822351 
L 137.559539 143.351521 
L 138.755513 148.015491 
L 140.114574 154.24013 
L 141.691085 162.569223 
L 143.539408 173.624147 
L 145.822631 188.74601 
L 149.410553 214.250227 
L 153.324649 241.630432 
L 155.55351 255.700326 
L 157.347471 265.701864 
L 158.923982 273.279958 
L 160.283043 278.77366 
L 161.479017 282.738911 
L 162.566266 285.594423 
L 163.490428 287.437862 
L 164.305864 288.60725 
L 165.012576 289.268446 
L 165.664926 289.585735 
L 166.262913 289.628332 
L 166.860899 289.433255 
L 167.458886 289.001029 
L 168.165598 288.186213 
L 168.926673 286.944128 
L 169.796472 285.069215 
L 170.774996 282.393655 
L 171.862245 278.742985 
L 173.112581 273.708602 
L 174.526005 267.020888 
L 176.102516 258.447253 
L 178.005202 246.784128 
L 180.39715 230.604575 
L 185.017958 197.352632 
L 188.062255 176.377129 
L 190.182391 163.257243 
L 191.921989 153.815879 
L 193.444138 146.740797 
L 194.748836 141.66971 
L 195.890448 138.046591 
L 196.923334 135.458982 
L 197.847496 133.720066 
L 198.662933 132.648555 
L 199.369645 132.076026 
L 199.967632 131.851916 
L 200.565619 131.867274 
L 201.163605 132.122117 
L 201.815955 132.672413 
L 202.522667 133.587006 
L 203.338103 135.048937 
L 204.207903 137.079728 
L 205.186427 139.930221 
L 206.328038 143.983254 
L 207.578375 149.270648 
L 208.991798 156.230222 
L 210.622672 165.407714 
L 212.57972 177.763405 
L 215.080393 195.075313 
L 223.01731 251.143959 
L 224.974359 262.836373 
L 226.605232 271.323707 
L 228.018656 277.595258 
L 229.268992 282.213051 
L 230.410604 285.611632 
L 231.389128 287.873427 
L 232.258927 289.363036 
L 233.020001 290.256158 
L 233.672351 290.71321 
L 234.270338 290.880407 
L 234.868325 290.806178 
L 235.466312 290.49068 
L 236.118661 289.872398 
L 236.825373 288.882288 
L 237.64081 287.331217 
L 238.564971 285.0546 
L 239.597858 281.877361 
L 240.739469 277.62191 
L 242.044168 271.860694 
L 243.511954 264.333954 
L 245.19719 254.498799 
L 247.262963 241.036806 
L 250.035448 221.344869 
L 256.341492 176.062191 
L 258.461628 162.708354 
L 260.201226 153.090032 
L 261.723375 145.875066 
L 263.028074 140.697394 
L 264.169685 136.992388 
L 265.202572 134.340639 
L 266.126733 132.552844 
L 266.94217 131.445178 
L 267.648882 130.846771 
L 268.246869 130.60481 
L 268.844856 130.606082 
L 269.442843 130.850652 
L 270.04083 131.337846 
L 270.747542 132.224455 
L 271.508616 133.551804 
L 272.378415 135.53373 
L 273.356939 138.341062 
L 274.444188 142.15103 
L 275.694525 147.38337 
L 277.107948 154.310726 
L 278.738822 163.491291 
L 280.641508 175.545103 
L 283.087818 192.597004 
L 291.731447 254.323917 
L 293.634133 265.586985 
L 295.210644 273.677494 
L 296.624068 279.822487 
L 297.874404 284.296831 
L 298.961653 287.404635 
L 299.940177 289.551238 
L 300.755614 290.855872 
L 301.516688 291.669163 
L 302.169038 292.05224 
L 302.767025 292.147368 
L 303.310649 292.020997 
L 303.908636 291.648182 
L 304.560986 290.963366 
L 305.32206 289.800807 
L 306.137497 288.126811 
L 307.061658 285.705451 
L 308.094545 282.360856 
L 309.290519 277.684782 
L 310.64958 271.393415 
L 312.171729 263.229256 
L 313.965689 252.301888 
L 316.140187 237.571922 
L 319.29321 214.474581 
L 324.131468 179.090907 
L 326.360328 164.472727 
L 328.154289 154.086814 
L 329.7308 146.221976 
L 331.089861 140.524323 
L 332.285835 136.415443 
L 333.318722 133.589655 
L 334.242883 131.651767 
L 335.05832 130.416982 
L 335.765032 129.713019 
L 336.417381 129.36789 
L 337.015368 129.30968 
L 337.558993 129.471282 
L 338.15698 129.884585 
L 338.809329 130.615496 
L 339.570403 131.834161 
L 340.440203 133.702163 
L 341.418727 136.395317 
L 342.505976 140.096872 
L 343.70195 144.988058 
L 345.061011 151.515312 
L 346.637522 160.24861 
L 348.485845 171.83917 
L 350.769068 187.692604 
L 354.35699 214.428435 
L 358.271086 243.127971 
L 360.499947 257.874453 
L 362.293908 268.356126 
L 363.870419 276.297333 
L 365.22948 282.053677 
L 366.425454 286.207954 
L 367.45834 289.067792 
L 368.382502 291.031824 
L 369.197939 292.286129 
L 369.904651 293.004227 
L 370.557 293.360055 
L 371.154987 293.426058 
L 371.698611 293.269845 
L 372.296598 292.860591 
L 372.948948 292.131835 
L 373.710022 290.912693 
L 374.525459 289.172012 
L 375.44962 286.667963 
L 376.482507 283.222711 
L 377.678481 278.42038 
L 379.037542 271.974745 
L 380.559691 263.627041 
L 382.353652 252.473473 
L 384.52815 237.463418 
L 387.735534 213.556824 
L 392.410705 178.832049 
L 394.639565 163.95619 
L 396.433526 153.37792 
L 398.010037 145.35965 
L 399.369099 139.544059 
L 400.565072 135.343935 
L 401.597959 132.449694 
L 402.522121 130.459231 
L 403.337557 129.185179 
L 404.044269 128.452768 
L 404.696619 128.086095 
L 405.131518 128.007433 
L 405.131518 128.007433 
" clip-path="url(#pb202234152)" style="fill: none; stroke: #2ca02c; stroke-width: 1.5; stroke-linecap: square"/>
   </g>
   <g id="line2d_16">
    <path d="M 63.572244 134.279326 
L 64.115869 134.375263 
L 64.659493 134.662834 
L 65.203118 135.141319 
L 65.746742 135.809523 
L 66.833991 137.707938 
L 67.92124 140.33911 
L 69.008489 143.676749 
L 70.095738 147.687506 
L 71.726612 154.876335 
L 73.357485 163.326585 
L 74.988359 172.848481 
L 77.162857 186.838873 
L 80.968228 213.28623 
L 84.7736 239.461793 
L 86.948098 253.062842 
L 88.578971 262.191656 
L 90.209845 270.171821 
L 91.840718 276.824117 
L 92.927967 280.446169 
L 94.015216 283.374784 
L 95.102465 285.5807 
L 96.189714 287.041878 
L 96.733339 287.488333 
L 97.276963 287.743718 
L 97.820588 287.807395 
L 98.364212 287.679206 
L 98.907837 287.35947 
L 99.451461 286.848988 
L 99.995086 286.149034 
L 101.082335 284.18818 
L 102.169584 281.496501 
L 103.256833 278.10089 
L 104.344082 274.035277 
L 105.974955 266.771194 
L 107.605829 258.255615 
L 109.780327 245.288798 
L 112.498449 227.226539 
L 120.109192 175.078852 
L 122.28369 162.322271 
L 123.914564 154.004467 
L 125.545437 146.967664 
L 126.632686 143.067466 
L 127.719935 139.846473 
L 128.807184 137.33687 
L 129.894433 135.563731 
L 130.438058 134.959165 
L 130.981682 134.544774 
L 131.525307 134.321592 
L 132.068931 134.290178 
L 132.612556 134.450611 
L 133.15618 134.802489 
L 133.699805 135.344933 
L 134.243429 136.076587 
L 135.330678 138.099741 
L 136.417927 140.851738 
L 137.505176 144.305079 
L 138.592425 148.425261 
L 140.223299 155.764084 
L 141.854172 164.344391 
L 144.02867 177.37946 
L 146.746793 195.494351 
L 153.813911 244.159529 
L 155.988409 257.258396 
L 157.619283 265.899452 
L 159.250156 273.30859 
L 160.337405 277.480189 
L 161.424654 280.987988 
L 162.511903 283.796936 
L 163.599152 285.878969 
L 164.686401 287.213282 
L 165.230026 287.595582 
L 165.77365 287.786544 
L 166.317275 287.785692 
L 166.860899 287.593028 
L 167.404524 287.209032 
L 167.948148 286.634665 
L 169.035397 284.921033 
L 170.122646 282.469254 
L 171.209895 279.303824 
L 172.297144 275.456371 
L 173.384393 270.965339 
L 175.015267 263.121886 
L 176.646141 254.108893 
L 178.820639 240.625354 
L 181.538761 222.180356 
L 187.518631 180.838237 
L 189.693129 167.419742 
L 191.324002 158.47038 
L 192.954876 150.701724 
L 194.585749 144.288242 
L 195.672998 140.837943 
L 196.760247 138.089128 
L 197.847496 136.069261 
L 198.391121 135.33928 
L 198.934745 134.798523 
L 199.47837 134.448342 
L 200.021994 134.289613 
L 200.565619 134.322731 
L 201.109243 134.547614 
L 201.652868 134.9637 
L 202.196492 135.569949 
L 203.283741 137.346403 
L 204.37099 139.859226 
L 205.458239 143.08331 
L 206.545488 146.986443 
L 208.176362 154.027287 
L 209.807235 162.348619 
L 211.438109 171.76356 
L 213.612607 185.649584 
L 216.874354 208.192239 
L 221.22335 238.290617 
L 223.397848 252.005531 
L 225.028721 261.24772 
L 226.659595 269.362457 
L 228.290468 276.167503 
L 229.377717 279.899806 
L 230.464966 282.944132 
L 231.552215 285.270062 
L 232.639464 286.854358 
L 233.183089 287.363151 
L 233.726713 287.681188 
L 234.270338 287.807674 
L 234.813962 287.742293 
L 235.357587 287.485207 
L 235.901211 287.03706 
L 236.444836 286.398972 
L 237.532085 284.559822 
L 238.619334 281.986133 
L 239.706583 278.703621 
L 240.793832 274.745084 
L 242.424705 267.628002 
L 244.055579 259.240182 
L 245.686452 249.769995 
L 247.86095 235.829906 
L 251.122697 213.252155 
L 255.471693 183.196412 
L 257.646191 169.539518 
L 259.277065 160.355247 
L 260.907938 152.309352 
L 262.538812 145.582527 
L 263.626061 141.906722 
L 264.71331 138.921722 
L 265.800559 136.65735 
L 266.887808 135.136232 
L 267.431432 134.659438 
L 267.975057 134.373567 
L 268.518681 134.279334 
L 269.062306 134.376975 
L 269.60593 134.666245 
L 270.149555 135.146421 
L 270.693179 135.816303 
L 271.780428 137.71802 
L 272.867677 140.352392 
L 273.954926 143.693099 
L 275.042175 147.706761 
L 276.673049 154.899578 
L 278.303922 163.353293 
L 279.934796 172.878055 
L 282.109294 186.871226 
L 285.914665 213.320305 
L 289.720037 239.493459 
L 291.894535 253.091368 
L 293.525408 262.217072 
L 295.156282 270.193556 
L 296.787155 276.841684 
L 297.874404 280.460731 
L 298.961653 283.386196 
L 300.048902 285.588849 
L 301.136151 287.046681 
L 301.679776 287.491443 
L 302.2234 287.745128 
L 302.767025 287.807101 
L 303.310649 287.677208 
L 303.854274 287.355775 
L 304.397898 286.843603 
L 304.941523 286.141973 
L 306.028772 284.177825 
L 307.116021 281.482955 
L 308.20327 278.084289 
L 309.290519 274.015786 
L 310.921392 266.747743 
L 312.552266 258.22873 
L 314.726764 245.258284 
L 317.444886 227.193214 
L 325.055629 175.048739 
L 327.230127 162.295932 
L 328.861001 153.981658 
L 330.491874 146.948898 
L 331.579123 143.051634 
L 332.666372 139.833735 
L 333.753621 137.327352 
L 334.84087 135.557529 
L 335.384495 134.954646 
L 335.928119 134.541949 
L 336.471744 134.320469 
L 337.015368 134.290759 
L 337.558993 134.452894 
L 338.102617 134.80647 
L 338.646242 135.350601 
L 339.189866 136.083927 
L 340.277115 138.110369 
L 341.364364 140.865546 
L 342.451613 144.32193 
L 343.538862 148.444986 
L 345.169736 155.787743 
L 346.800609 164.371452 
L 348.975107 177.4101 
L 351.69323 195.527736 
L 358.760348 244.190281 
L 360.934846 257.285612 
L 362.56572 265.923295 
L 364.196593 273.328523 
L 365.283842 277.497263 
L 366.371091 281.00203 
L 367.45834 283.807807 
L 368.545589 285.88656 
L 369.632838 287.217517 
L 370.176463 287.598121 
L 370.720087 287.787381 
L 371.263712 287.784825 
L 371.807336 287.590458 
L 372.350961 287.204767 
L 372.894585 286.628715 
L 373.981834 284.911762 
L 375.069083 282.456753 
L 376.156332 279.28822 
L 377.243581 275.437819 
L 378.33083 270.944024 
L 379.961704 263.096835 
L 381.592577 254.080668 
L 383.767075 240.593894 
L 386.485198 222.146626 
L 392.465067 180.8069 
L 394.639565 167.391696 
L 396.270439 158.445545 
L 397.901312 150.680658 
L 399.532186 144.271417 
L 400.619435 140.824163 
L 401.706684 138.078529 
L 402.793933 136.061949 
L 403.337557 135.333642 
L 403.881182 134.794573 
L 404.424806 134.446089 
L 404.968431 134.289062 
L 404.968431 134.289062 
" clip-path="url(#pb202234152)" style="fill: none; stroke-dasharray: 5.55,2.4; stroke-dashoffset: 0; stroke: #000000; stroke-width: 1.5"/>
   </g>
   <g id="patch_3">
    <path d="M 46.491563 382.837188 
L 46.491563 26.877187 
" style="fill: none; stroke: #000000; stroke-width: 0.8; stroke-linejoin: miter; stroke-linecap: square"/>
   </g>
   <g id="patch_4">
    <path d="M 422.266562 382.837188 
L 422.266562 26.877187 
" style="fill: none; stroke: #000000; stroke-width: 0.8; stroke-linejoin: miter; stroke-linecap: square"/>
   </g>
   <g id="patch_5">
    <path d="M 46.491563 382.837187 
L 422.266562 382.837187 
" style="fill: none; stroke: #000000; stroke-width: 0.8; stroke-linejoin: miter; stroke-linecap: square"/>
   </g>
   <g id="patch_6">
    <path d="M 46.491563 26.877187 
L 422.266562 26.877187 
" style="fill: none; stroke: #000000; stroke-width: 0.8; stroke-linejoin: miter; stroke-linecap: square"/>
   </g>
   <g id="text_15">
    <!-- (a) -->
    <g transform="translate(221.840937 20.877187) scale(0.18 -0.18)">
     <defs>
      <path id="DejaVuSans-61" d="M 2194 1759 
Q 1497 1759 1228 1600 
Q 959 1441 959 1056 
Q 959 750 1161 570 
Q 1363 391 1709 391 
Q 2188 391 2477 730 
Q 2766 1069 2766 1631 
L 2766 1759 
L 2194 1759 
z
M 3341 1997 
L 3341 0 
L 2766 0 
L 2766 531 
Q 2569 213 2275 61 
Q 1981 -91 1556 -91 
Q 1019 -91 701 211 
Q 384 513 384 1019 
Q 384 1609 779 1909 
Q 1175 2209 1959 2209 
L 2766 2209 
L 2766 2266 
Q 2766 2663 2505 2880 
Q 2244 3097 1772 3097 
Q 1472 3097 1187 3025 
Q 903 2953 641 2809 
L 641 3341 
Q 956 3463 1253 3523 
Q 1550 3584 1831 3584 
Q 2591 3584 2966 3190 
Q 3341 2797 3341 1997 
z
" transform="scale(0.015625)"/>
     </defs>
     <use xlink:href="#DejaVuSans-28"/>
     <use xlink:href="#DejaVuSans-61" x="39.013672"/>
     <use xlink:href="#DejaVuSans-29" x="100.292969"/>
    </g>
   </g>
   <g id="legend_1">
    <g id="patch_7">
     <path d="M 54.891562 106.932187 
L 166.405313 106.932187 
Q 168.805313 106.932187 168.805313 104.532188 
L 168.805313 35.277187 
Q 168.805313 32.877187 166.405313 32.877187 
L 54.891562 32.877187 
Q 52.491563 32.877187 52.491563 35.277187 
L 52.491563 104.532188 
Q 52.491563 106.932187 54.891562 106.932187 
z
" style="fill: #ffffff; opacity: 0.8; stroke: #cccccc; stroke-linejoin: miter"/>
    </g>
    <g id="line2d_17">
     <path d="M 57.291562 42.595312 
L 69.291562 42.595312 
L 81.291562 42.595312 
" style="fill: none; stroke: #1f77b4; stroke-width: 1.5; stroke-linecap: square"/>
    </g>
    <g id="text_16">
     <!-- h = 0.05s -->
     <g transform="translate(90.891562 46.795312) scale(0.12 -0.12)">
      <defs>
       <path id="DejaVuSans-68" d="M 3513 2113 
L 3513 0 
L 2938 0 
L 2938 2094 
Q 2938 2591 2744 2837 
Q 2550 3084 2163 3084 
Q 1697 3084 1428 2787 
Q 1159 2491 1159 1978 
L 1159 0 
L 581 0 
L 581 4863 
L 1159 4863 
L 1159 2956 
Q 1366 3272 1645 3428 
Q 1925 3584 2291 3584 
Q 2894 3584 3203 3211 
Q 3513 2838 3513 2113 
z
" transform="scale(0.015625)"/>
       <path id="DejaVuSans-3d" d="M 678 2906 
L 4684 2906 
L 4684 2381 
L 678 2381 
L 678 2906 
z
M 678 1631 
L 4684 1631 
L 4684 1100 
L 678 1100 
L 678 1631 
z
" transform="scale(0.015625)"/>
       <path id="DejaVuSans-2e" d="M 684 794 
L 1344 794 
L 1344 0 
L 684 0 
L 684 794 
z
" transform="scale(0.015625)"/>
      </defs>
      <use xlink:href="#DejaVuSans-68"/>
      <use xlink:href="#DejaVuSans-20" x="63.378906"/>
      <use xlink:href="#DejaVuSans-3d" x="95.166016"/>
      <use xlink:href="#DejaVuSans-20" x="178.955078"/>
      <use xlink:href="#DejaVuSans-30" x="210.742188"/>
      <use xlink:href="#DejaVuSans-2e" x="274.365234"/>
      <use xlink:href="#DejaVuSans-30" x="306.152344"/>
      <use xlink:href="#DejaVuSans-35" x="369.775391"/>
      <use xlink:href="#DejaVuSans-73" x="433.398438"/>
     </g>
    </g>
    <g id="line2d_18">
     <path d="M 57.291562 60.209062 
L 69.291562 60.209062 
L 81.291562 60.209062 
" style="fill: none; stroke: #ff7f0e; stroke-width: 1.5; stroke-linecap: square"/>
    </g>
    <g id="text_17">
     <!-- h = 0.01s -->
     <g transform="translate(90.891562 64.409062) scale(0.12 -0.12)">
      <use xlink:href="#DejaVuSans-68"/>
      <use xlink:href="#DejaVuSans-20" x="63.378906"/>
      <use xlink:href="#DejaVuSans-3d" x="95.166016"/>
      <use xlink:href="#DejaVuSans-20" x="178.955078"/>
      <use xlink:href="#DejaVuSans-30" x="210.742188"/>
      <use xlink:href="#DejaVuSans-2e" x="274.365234"/>
      <use xlink:href="#DejaVuSans-30" x="306.152344"/>
      <use xlink:href="#DejaVuSans-31" x="369.775391"/>
      <use xlink:href="#DejaVuSans-73" x="433.398438"/>
     </g>
    </g>
    <g id="line2d_19">
     <path d="M 57.291562 77.822812 
L 69.291562 77.822812 
L 81.291562 77.822812 
" style="fill: none; stroke: #2ca02c; stroke-width: 1.5; stroke-linecap: square"/>
    </g>
    <g id="text_18">
     <!-- h = 0.005s -->
     <g transform="translate(90.891562 82.022812) scale(0.12 -0.12)">
      <use xlink:href="#DejaVuSans-68"/>
      <use xlink:href="#DejaVuSans-20" x="63.378906"/>
      <use xlink:href="#DejaVuSans-3d" x="95.166016"/>
      <use xlink:href="#DejaVuSans-20" x="178.955078"/>
      <use xlink:href="#DejaVuSans-30" x="210.742188"/>
      <use xlink:href="#DejaVuSans-2e" x="274.365234"/>
      <use xlink:href="#DejaVuSans-30" x="306.152344"/>
      <use xlink:href="#DejaVuSans-30" x="369.775391"/>
      <use xlink:href="#DejaVuSans-35" x="433.398438"/>
      <use xlink:href="#DejaVuSans-73" x="497.021484"/>
     </g>
    </g>
    <g id="line2d_20">
     <path d="M 57.291562 95.436562 
L 69.291562 95.436562 
L 81.291562 95.436562 
" style="fill: none; stroke-dasharray: 5.55,2.4; stroke-dashoffset: 0; stroke: #000000; stroke-width: 1.5"/>
    </g>
    <g id="text_19">
     <!-- v(t) = cos(t) -->
     <g transform="translate(90.891562 99.636562) scale(0.12 -0.12)">
      <defs>
       <path id="DejaVuSans-63" d="M 3122 3366 
L 3122 2828 
Q 2878 2963 2633 3030 
Q 2388 3097 2138 3097 
Q 1578 3097 1268 2742 
Q 959 2388 959 1747 
Q 959 1106 1268 751 
Q 1578 397 2138 397 
Q 2388 397 2633 464 
Q 2878 531 3122 666 
L 3122 134 
Q 2881 22 2623 -34 
Q 2366 -91 2075 -91 
Q 1284 -91 818 406 
Q 353 903 353 1747 
Q 353 2603 823 3093 
Q 1294 3584 2113 3584 
Q 2378 3584 2631 3529 
Q 2884 3475 3122 3366 
z
" transform="scale(0.015625)"/>
       <path id="DejaVuSans-6f" d="M 1959 3097 
Q 1497 3097 1228 2736 
Q 959 2375 959 1747 
Q 959 1119 1226 758 
Q 1494 397 1959 397 
Q 2419 397 2687 759 
Q 2956 1122 2956 1747 
Q 2956 2369 2687 2733 
Q 2419 3097 1959 3097 
z
M 1959 3584 
Q 2709 3584 3137 3096 
Q 3566 2609 3566 1747 
Q 3566 888 3137 398 
Q 2709 -91 1959 -91 
Q 1206 -91 779 398 
Q 353 888 353 1747 
Q 353 2609 779 3096 
Q 1206 3584 1959 3584 
z
" transform="scale(0.015625)"/>
      </defs>
      <use xlink:href="#DejaVuSans-76"/>
      <use xlink:href="#DejaVuSans-28" x="59.179688"/>
      <use xlink:href="#DejaVuSans-74" x="98.193359"/>
      <use xlink:href="#DejaVuSans-29" x="137.402344"/>
      <use xlink:href="#DejaVuSans-20" x="176.416016"/>
      <use xlink:href="#DejaVuSans-3d" x="208.203125"/>
      <use xlink:href="#DejaVuSans-20" x="291.992188"/>
      <use xlink:href="#DejaVuSans-63" x="323.779297"/>
      <use xlink:href="#DejaVuSans-6f" x="378.759766"/>
      <use xlink:href="#DejaVuSans-73" x="439.941406"/>
      <use xlink:href="#DejaVuSans-28" x="492.041016"/>
      <use xlink:href="#DejaVuSans-74" x="531.054688"/>
      <use xlink:href="#DejaVuSans-29" x="570.263672"/>
     </g>
    </g>
   </g>
  </g>
  <g id="axes_2">
   <g id="patch_8">
    <path d="M 473.676562 382.837187 
L 849.451562 382.837187 
L 849.451562 26.877187 
L 473.676562 26.877187 
z
" style="fill: #ffffff"/>
   </g>
   <g id="matplotlib.axis_3">
    <g id="xtick_8">
     <g id="line2d_21">
      <g>
       <use xlink:href="#mef1f3c19af" x="490.757244" y="382.837187" style="stroke: #000000; stroke-width: 0.8"/>
      </g>
     </g>
     <g id="text_20">
      <!-- 0 -->
      <g transform="translate(487.575994 397.435625) scale(0.1 -0.1)">
       <use xlink:href="#DejaVuSans-30"/>
      </g>
     </g>
    </g>
    <g id="xtick_9">
     <g id="line2d_22">
      <g>
       <use xlink:href="#mef1f3c19af" x="545.119694" y="382.837187" style="stroke: #000000; stroke-width: 0.8"/>
      </g>
     </g>
     <g id="text_21">
      <!-- 5 -->
      <g transform="translate(541.938444 397.435625) scale(0.1 -0.1)">
       <use xlink:href="#DejaVuSans-35"/>
      </g>
     </g>
    </g>
    <g id="xtick_10">
     <g id="line2d_23">
      <g>
       <use xlink:href="#mef1f3c19af" x="599.482144" y="382.837187" style="stroke: #000000; stroke-width: 0.8"/>
      </g>
     </g>
     <g id="text_22">
      <!-- 10 -->
      <g transform="translate(593.119644 397.435625) scale(0.1 -0.1)">
       <use xlink:href="#DejaVuSans-31"/>
       <use xlink:href="#DejaVuSans-30" x="63.623047"/>
      </g>
     </g>
    </g>
    <g id="xtick_11">
     <g id="line2d_24">
      <g>
       <use xlink:href="#mef1f3c19af" x="653.844595" y="382.837187" style="stroke: #000000; stroke-width: 0.8"/>
      </g>
     </g>
     <g id="text_23">
      <!-- 15 -->
      <g transform="translate(647.482095 397.435625) scale(0.1 -0.1)">
       <use xlink:href="#DejaVuSans-31"/>
       <use xlink:href="#DejaVuSans-35" x="63.623047"/>
      </g>
     </g>
    </g>
    <g id="xtick_12">
     <g id="line2d_25">
      <g>
       <use xlink:href="#mef1f3c19af" x="708.207045" y="382.837187" style="stroke: #000000; stroke-width: 0.8"/>
      </g>
     </g>
     <g id="text_24">
      <!-- 20 -->
      <g transform="translate(701.844545 397.435625) scale(0.1 -0.1)">
       <use xlink:href="#DejaVuSans-32"/>
       <use xlink:href="#DejaVuSans-30" x="63.623047"/>
      </g>
     </g>
    </g>
    <g id="xtick_13">
     <g id="line2d_26">
      <g>
       <use xlink:href="#mef1f3c19af" x="762.569495" y="382.837187" style="stroke: #000000; stroke-width: 0.8"/>
      </g>
     </g>
     <g id="text_25">
      <!-- 25 -->
      <g transform="translate(756.206995 397.435625) scale(0.1 -0.1)">
       <use xlink:href="#DejaVuSans-32"/>
       <use xlink:href="#DejaVuSans-35" x="63.623047"/>
      </g>
     </g>
    </g>
    <g id="xtick_14">
     <g id="line2d_27">
      <g>
       <use xlink:href="#mef1f3c19af" x="816.931945" y="382.837187" style="stroke: #000000; stroke-width: 0.8"/>
      </g>
     </g>
     <g id="text_26">
      <!-- 30 -->
      <g transform="translate(810.569445 397.435625) scale(0.1 -0.1)">
       <use xlink:href="#DejaVuSans-33"/>
       <use xlink:href="#DejaVuSans-30" x="63.623047"/>
      </g>
     </g>
    </g>
    <g id="text_27">
     <!-- t (s) -->
     <g transform="translate(647.486406 414.153125) scale(0.14 -0.14)">
      <use xlink:href="#DejaVuSans-74"/>
      <use xlink:href="#DejaVuSans-20" x="39.208984"/>
      <use xlink:href="#DejaVuSans-28" x="70.996094"/>
      <use xlink:href="#DejaVuSans-73" x="110.009766"/>
      <use xlink:href="#DejaVuSans-29" x="162.109375"/>
     </g>
    </g>
   </g>
   <g id="matplotlib.axis_4">
    <g id="ytick_6">
     <g id="line2d_28">
      <g>
       <use xlink:href="#me5d1121b0a" x="473.676562" y="366.688673" style="stroke: #000000; stroke-width: 0.8"/>
      </g>
     </g>
     <g id="text_28">
      <!-- 0.0 -->
      <g transform="translate(450.773437 370.487892) scale(0.1 -0.1)">
       <use xlink:href="#DejaVuSans-30"/>
       <use xlink:href="#DejaVuSans-2e" x="63.623047"/>
       <use xlink:href="#DejaVuSans-30" x="95.410156"/>
      </g>
     </g>
    </g>
    <g id="ytick_7">
     <g id="line2d_29">
      <g>
       <use xlink:href="#me5d1121b0a" x="473.676562" y="298.601151" style="stroke: #000000; stroke-width: 0.8"/>
      </g>
     </g>
     <g id="text_29">
      <!-- 0.5 -->
      <g transform="translate(450.773437 302.40037) scale(0.1 -0.1)">
       <use xlink:href="#DejaVuSans-30"/>
       <use xlink:href="#DejaVuSans-2e" x="63.623047"/>
       <use xlink:href="#DejaVuSans-35" x="95.410156"/>
      </g>
     </g>
    </g>
    <g id="ytick_8">
     <g id="line2d_30">
      <g>
       <use xlink:href="#me5d1121b0a" x="473.676562" y="230.51363" style="stroke: #000000; stroke-width: 0.8"/>
      </g>
     </g>
     <g id="text_30">
      <!-- 1.0 -->
      <g transform="translate(450.773437 234.312848) scale(0.1 -0.1)">
       <use xlink:href="#DejaVuSans-31"/>
       <use xlink:href="#DejaVuSans-2e" x="63.623047"/>
       <use xlink:href="#DejaVuSans-30" x="95.410156"/>
      </g>
     </g>
    </g>
    <g id="ytick_9">
     <g id="line2d_31">
      <g>
       <use xlink:href="#me5d1121b0a" x="473.676562" y="162.426108" style="stroke: #000000; stroke-width: 0.8"/>
      </g>
     </g>
     <g id="text_31">
      <!-- 1.5 -->
      <g transform="translate(450.773437 166.225327) scale(0.1 -0.1)">
       <use xlink:href="#DejaVuSans-31"/>
       <use xlink:href="#DejaVuSans-2e" x="63.623047"/>
       <use xlink:href="#DejaVuSans-35" x="95.410156"/>
      </g>
     </g>
    </g>
    <g id="ytick_10">
     <g id="line2d_32">
      <g>
       <use xlink:href="#me5d1121b0a" x="473.676562" y="94.338586" style="stroke: #000000; stroke-width: 0.8"/>
      </g>
     </g>
     <g id="text_32">
      <!-- 2.0 -->
      <g transform="translate(450.773437 98.137805) scale(0.1 -0.1)">
       <use xlink:href="#DejaVuSans-32"/>
       <use xlink:href="#DejaVuSans-2e" x="63.623047"/>
       <use xlink:href="#DejaVuSans-30" x="95.410156"/>
      </g>
     </g>
    </g>
    <g id="text_33">
     <!-- Difference between Numerical and Exact Solution -->
     <g transform="translate(443.861875 379.280781) rotate(-90) scale(0.14 -0.14)">
      <defs>
       <path id="DejaVuSans-44" d="M 1259 4147 
L 1259 519 
L 2022 519 
Q 2988 519 3436 956 
Q 3884 1394 3884 2338 
Q 3884 3275 3436 3711 
Q 2988 4147 2022 4147 
L 1259 4147 
z
M 628 4666 
L 1925 4666 
Q 3281 4666 3915 4102 
Q 4550 3538 4550 2338 
Q 4550 1131 3912 565 
Q 3275 0 1925 0 
L 628 0 
L 628 4666 
z
" transform="scale(0.015625)"/>
       <path id="DejaVuSans-69" d="M 603 3500 
L 1178 3500 
L 1178 0 
L 603 0 
L 603 3500 
z
M 603 4863 
L 1178 4863 
L 1178 4134 
L 603 4134 
L 603 4863 
z
" transform="scale(0.015625)"/>
       <path id="DejaVuSans-66" d="M 2375 4863 
L 2375 4384 
L 1825 4384 
Q 1516 4384 1395 4259 
Q 1275 4134 1275 3809 
L 1275 3500 
L 2222 3500 
L 2222 3053 
L 1275 3053 
L 1275 0 
L 697 0 
L 697 3053 
L 147 3053 
L 147 3500 
L 697 3500 
L 697 3744 
Q 697 4328 969 4595 
Q 1241 4863 1831 4863 
L 2375 4863 
z
" transform="scale(0.015625)"/>
       <path id="DejaVuSans-65" d="M 3597 1894 
L 3597 1613 
L 953 1613 
Q 991 1019 1311 708 
Q 1631 397 2203 397 
Q 2534 397 2845 478 
Q 3156 559 3463 722 
L 3463 178 
Q 3153 47 2828 -22 
Q 2503 -91 2169 -91 
Q 1331 -91 842 396 
Q 353 884 353 1716 
Q 353 2575 817 3079 
Q 1281 3584 2069 3584 
Q 2775 3584 3186 3129 
Q 3597 2675 3597 1894 
z
M 3022 2063 
Q 3016 2534 2758 2815 
Q 2500 3097 2075 3097 
Q 1594 3097 1305 2825 
Q 1016 2553 972 2059 
L 3022 2063 
z
" transform="scale(0.015625)"/>
       <path id="DejaVuSans-72" d="M 2631 2963 
Q 2534 3019 2420 3045 
Q 2306 3072 2169 3072 
Q 1681 3072 1420 2755 
Q 1159 2438 1159 1844 
L 1159 0 
L 581 0 
L 581 3500 
L 1159 3500 
L 1159 2956 
Q 1341 3275 1631 3429 
Q 1922 3584 2338 3584 
Q 2397 3584 2469 3576 
Q 2541 3569 2628 3553 
L 2631 2963 
z
" transform="scale(0.015625)"/>
       <path id="DejaVuSans-6e" d="M 3513 2113 
L 3513 0 
L 2938 0 
L 2938 2094 
Q 2938 2591 2744 2837 
Q 2550 3084 2163 3084 
Q 1697 3084 1428 2787 
Q 1159 2491 1159 1978 
L 1159 0 
L 581 0 
L 581 3500 
L 1159 3500 
L 1159 2956 
Q 1366 3272 1645 3428 
Q 1925 3584 2291 3584 
Q 2894 3584 3203 3211 
Q 3513 2838 3513 2113 
z
" transform="scale(0.015625)"/>
       <path id="DejaVuSans-62" d="M 3116 1747 
Q 3116 2381 2855 2742 
Q 2594 3103 2138 3103 
Q 1681 3103 1420 2742 
Q 1159 2381 1159 1747 
Q 1159 1113 1420 752 
Q 1681 391 2138 391 
Q 2594 391 2855 752 
Q 3116 1113 3116 1747 
z
M 1159 2969 
Q 1341 3281 1617 3432 
Q 1894 3584 2278 3584 
Q 2916 3584 3314 3078 
Q 3713 2572 3713 1747 
Q 3713 922 3314 415 
Q 2916 -91 2278 -91 
Q 1894 -91 1617 61 
Q 1341 213 1159 525 
L 1159 0 
L 581 0 
L 581 4863 
L 1159 4863 
L 1159 2969 
z
" transform="scale(0.015625)"/>
       <path id="DejaVuSans-77" d="M 269 3500 
L 844 3500 
L 1563 769 
L 2278 3500 
L 2956 3500 
L 3675 769 
L 4391 3500 
L 4966 3500 
L 4050 0 
L 3372 0 
L 2619 2869 
L 1863 0 
L 1184 0 
L 269 3500 
z
" transform="scale(0.015625)"/>
       <path id="DejaVuSans-4e" d="M 628 4666 
L 1478 4666 
L 3547 763 
L 3547 4666 
L 4159 4666 
L 4159 0 
L 3309 0 
L 1241 3903 
L 1241 0 
L 628 0 
L 628 4666 
z
" transform="scale(0.015625)"/>
       <path id="DejaVuSans-75" d="M 544 1381 
L 544 3500 
L 1119 3500 
L 1119 1403 
Q 1119 906 1312 657 
Q 1506 409 1894 409 
Q 2359 409 2629 706 
Q 2900 1003 2900 1516 
L 2900 3500 
L 3475 3500 
L 3475 0 
L 2900 0 
L 2900 538 
Q 2691 219 2414 64 
Q 2138 -91 1772 -91 
Q 1169 -91 856 284 
Q 544 659 544 1381 
z
M 1991 3584 
L 1991 3584 
z
" transform="scale(0.015625)"/>
       <path id="DejaVuSans-6d" d="M 3328 2828 
Q 3544 3216 3844 3400 
Q 4144 3584 4550 3584 
Q 5097 3584 5394 3201 
Q 5691 2819 5691 2113 
L 5691 0 
L 5113 0 
L 5113 2094 
Q 5113 2597 4934 2840 
Q 4756 3084 4391 3084 
Q 3944 3084 3684 2787 
Q 3425 2491 3425 1978 
L 3425 0 
L 2847 0 
L 2847 2094 
Q 2847 2600 2669 2842 
Q 2491 3084 2119 3084 
Q 1678 3084 1418 2786 
Q 1159 2488 1159 1978 
L 1159 0 
L 581 0 
L 581 3500 
L 1159 3500 
L 1159 2956 
Q 1356 3278 1631 3431 
Q 1906 3584 2284 3584 
Q 2666 3584 2933 3390 
Q 3200 3197 3328 2828 
z
" transform="scale(0.015625)"/>
       <path id="DejaVuSans-6c" d="M 603 4863 
L 1178 4863 
L 1178 0 
L 603 0 
L 603 4863 
z
" transform="scale(0.015625)"/>
       <path id="DejaVuSans-64" d="M 2906 2969 
L 2906 4863 
L 3481 4863 
L 3481 0 
L 2906 0 
L 2906 525 
Q 2725 213 2448 61 
Q 2172 -91 1784 -91 
Q 1150 -91 751 415 
Q 353 922 353 1747 
Q 353 2572 751 3078 
Q 1150 3584 1784 3584 
Q 2172 3584 2448 3432 
Q 2725 3281 2906 2969 
z
M 947 1747 
Q 947 1113 1208 752 
Q 1469 391 1925 391 
Q 2381 391 2643 752 
Q 2906 1113 2906 1747 
Q 2906 2381 2643 2742 
Q 2381 3103 1925 3103 
Q 1469 3103 1208 2742 
Q 947 2381 947 1747 
z
" transform="scale(0.015625)"/>
       <path id="DejaVuSans-45" d="M 628 4666 
L 3578 4666 
L 3578 4134 
L 1259 4134 
L 1259 2753 
L 3481 2753 
L 3481 2222 
L 1259 2222 
L 1259 531 
L 3634 531 
L 3634 0 
L 628 0 
L 628 4666 
z
" transform="scale(0.015625)"/>
       <path id="DejaVuSans-78" d="M 3513 3500 
L 2247 1797 
L 3578 0 
L 2900 0 
L 1881 1375 
L 863 0 
L 184 0 
L 1544 1831 
L 300 3500 
L 978 3500 
L 1906 2253 
L 2834 3500 
L 3513 3500 
z
" transform="scale(0.015625)"/>
       <path id="DejaVuSans-53" d="M 3425 4513 
L 3425 3897 
Q 3066 4069 2747 4153 
Q 2428 4238 2131 4238 
Q 1616 4238 1336 4038 
Q 1056 3838 1056 3469 
Q 1056 3159 1242 3001 
Q 1428 2844 1947 2747 
L 2328 2669 
Q 3034 2534 3370 2195 
Q 3706 1856 3706 1288 
Q 3706 609 3251 259 
Q 2797 -91 1919 -91 
Q 1588 -91 1214 -16 
Q 841 59 441 206 
L 441 856 
Q 825 641 1194 531 
Q 1563 422 1919 422 
Q 2459 422 2753 634 
Q 3047 847 3047 1241 
Q 3047 1584 2836 1778 
Q 2625 1972 2144 2069 
L 1759 2144 
Q 1053 2284 737 2584 
Q 422 2884 422 3419 
Q 422 4038 858 4394 
Q 1294 4750 2059 4750 
Q 2388 4750 2728 4690 
Q 3069 4631 3425 4513 
z
" transform="scale(0.015625)"/>
      </defs>
      <use xlink:href="#DejaVuSans-44"/>
      <use xlink:href="#DejaVuSans-69" x="77.001953"/>
      <use xlink:href="#DejaVuSans-66" x="104.785156"/>
      <use xlink:href="#DejaVuSans-66" x="139.990234"/>
      <use xlink:href="#DejaVuSans-65" x="175.195312"/>
      <use xlink:href="#DejaVuSans-72" x="236.71875"/>
      <use xlink:href="#DejaVuSans-65" x="275.582031"/>
      <use xlink:href="#DejaVuSans-6e" x="337.105469"/>
      <use xlink:href="#DejaVuSans-63" x="400.484375"/>
      <use xlink:href="#DejaVuSans-65" x="455.464844"/>
      <use xlink:href="#DejaVuSans-20" x="516.988281"/>
      <use xlink:href="#DejaVuSans-62" x="548.775391"/>
      <use xlink:href="#DejaVuSans-65" x="612.251953"/>
      <use xlink:href="#DejaVuSans-74" x="673.775391"/>
      <use xlink:href="#DejaVuSans-77" x="712.984375"/>
      <use xlink:href="#DejaVuSans-65" x="794.771484"/>
      <use xlink:href="#DejaVuSans-65" x="856.294922"/>
      <use xlink:href="#DejaVuSans-6e" x="917.818359"/>
      <use xlink:href="#DejaVuSans-20" x="981.197266"/>
      <use xlink:href="#DejaVuSans-4e" x="1012.984375"/>
      <use xlink:href="#DejaVuSans-75" x="1087.789062"/>
      <use xlink:href="#DejaVuSans-6d" x="1151.167969"/>
      <use xlink:href="#DejaVuSans-65" x="1248.580078"/>
      <use xlink:href="#DejaVuSans-72" x="1310.103516"/>
      <use xlink:href="#DejaVuSans-69" x="1351.216797"/>
      <use xlink:href="#DejaVuSans-63" x="1379"/>
      <use xlink:href="#DejaVuSans-61" x="1433.980469"/>
      <use xlink:href="#DejaVuSans-6c" x="1495.259766"/>
      <use xlink:href="#DejaVuSans-20" x="1523.042969"/>
      <use xlink:href="#DejaVuSans-61" x="1554.830078"/>
      <use xlink:href="#DejaVuSans-6e" x="1616.109375"/>
      <use xlink:href="#DejaVuSans-64" x="1679.488281"/>
      <use xlink:href="#DejaVuSans-20" x="1742.964844"/>
      <use xlink:href="#DejaVuSans-45" x="1774.751953"/>
      <use xlink:href="#DejaVuSans-78" x="1837.935547"/>
      <use xlink:href="#DejaVuSans-61" x="1897.115234"/>
      <use xlink:href="#DejaVuSans-63" x="1958.394531"/>
      <use xlink:href="#DejaVuSans-74" x="2013.375"/>
      <use xlink:href="#DejaVuSans-20" x="2052.583984"/>
      <use xlink:href="#DejaVuSans-53" x="2084.371094"/>
      <use xlink:href="#DejaVuSans-6f" x="2147.847656"/>
      <use xlink:href="#DejaVuSans-6c" x="2209.029297"/>
      <use xlink:href="#DejaVuSans-75" x="2236.8125"/>
      <use xlink:href="#DejaVuSans-74" x="2300.191406"/>
      <use xlink:href="#DejaVuSans-69" x="2339.400391"/>
      <use xlink:href="#DejaVuSans-6f" x="2367.183594"/>
      <use xlink:href="#DejaVuSans-6e" x="2428.365234"/>
     </g>
    </g>
   </g>
   <g id="line2d_33">
    <path d="M 490.757244 230.51363 
L 492.388118 252.451963 
L 494.562616 285.835946 
L 497.280738 332.292391 
L 498.911612 361.564345 
L 499.455236 361.970293 
L 503.260608 294.45286 
L 505.435106 259.122405 
L 507.065979 235.316097 
L 508.696853 214.441537 
L 510.327726 196.991223 
L 511.414975 187.468775 
L 512.502224 179.756837 
L 513.589473 173.939255 
L 514.133098 171.761831 
L 514.676722 170.080714 
L 515.220347 168.900879 
L 515.763971 168.226026 
L 516.307596 168.058566 
L 516.85122 168.399617 
L 517.394845 169.248999 
L 517.938469 170.605227 
L 518.482094 172.465521 
L 519.569343 177.680727 
L 520.656592 184.846679 
L 521.743841 193.895351 
L 522.83109 204.739262 
L 524.461963 224.134289 
L 526.092837 246.894851 
L 527.72371 272.510782 
L 529.898208 310.099858 
L 532.616331 360.450983 
L 533.159955 362.661152 
L 537.508951 282.586521 
L 539.683449 246.570486 
L 541.314323 222.574518 
L 542.945196 201.79591 
L 544.032445 189.977344 
L 545.119694 179.934959 
L 546.206943 171.77667 
L 547.294192 165.591424 
L 547.837817 163.26106 
L 548.381441 161.448235 
L 548.925066 160.158336 
L 549.46869 159.395421 
L 550.012315 159.162206 
L 550.555939 159.460054 
L 551.099564 160.288975 
L 551.643188 161.647617 
L 552.186813 163.533275 
L 552.730437 165.941888 
L 553.817686 172.305045 
L 554.904935 180.677987 
L 555.992184 190.980878 
L 557.079433 203.113904 
L 558.710307 224.480088 
L 560.34118 249.217558 
L 562.515678 286.476486 
L 565.233801 337.788953 
L 566.32105 359.127685 
L 566.864674 363.513538 
L 571.21367 279.635181 
L 573.388168 241.81959 
L 575.019042 216.581112 
L 576.649915 194.684956 
L 577.737164 182.204269 
L 578.824413 171.574639 
L 579.911662 162.91051 
L 580.998911 156.306568 
L 581.542536 153.801098 
L 582.08616 151.836715 
L 582.629785 150.419277 
L 583.173409 149.553248 
L 583.717034 149.241692 
L 584.260658 149.48626 
L 584.804283 150.287181 
L 585.347907 151.643264 
L 585.891532 153.551897 
L 586.435156 156.00905 
L 587.522405 162.545765 
L 588.609654 171.193239 
L 589.696903 181.869522 
L 590.784152 194.471663 
L 592.415026 216.711684 
L 594.045899 242.510842 
L 596.220397 281.438096 
L 598.93852 335.149851 
L 600.025769 357.516071 
L 600.569393 364.601915 
L 604.91839 276.485709 
L 607.092888 236.657139 
L 608.723761 210.02474 
L 610.354635 186.870898 
L 611.441884 173.64254 
L 612.529133 162.347462 
L 613.616382 153.107458 
L 614.703631 146.023698 
L 615.247255 143.316111 
L 615.79088 141.175631 
L 616.334504 139.608649 
L 616.878129 138.620103 
L 617.421753 138.213458 
L 617.965378 138.3907 
L 618.509002 139.152325 
L 619.052627 140.497335 
L 619.596251 142.423242 
L 620.139876 144.926067 
L 621.227125 151.639169 
L 622.314374 160.575435 
L 623.401623 171.65073 
L 624.488872 184.758775 
L 626.119745 207.94807 
L 627.750619 234.907306 
L 629.925117 275.666244 
L 632.643239 332.024401 
L 634.274113 366.011076 
L 638.623109 273.18379 
L 640.797607 231.105819 
L 642.42848 202.910037 
L 644.059354 178.340089 
L 645.690227 157.979562 
L 646.777476 146.990531 
L 647.864725 138.211664 
L 648.951974 131.740239 
L 649.495599 129.393882 
L 650.039223 127.65028 
L 650.582848 126.514914 
L 651.126472 125.991724 
L 651.670097 126.083091 
L 652.213721 126.78983 
L 652.757346 128.111187 
L 653.30097 130.044835 
L 653.844595 132.586882 
L 654.931844 139.472801 
L 656.019093 148.706813 
L 657.106342 160.202579 
L 658.193591 173.850352 
L 659.824464 198.062225 
L 661.455338 226.280631 
L 663.629836 269.039951 
L 666.347958 328.305118 
L 667.978832 365.540297 
L 668.522456 355.333277 
L 672.327828 269.784761 
L 674.502326 225.196558 
L 676.133199 195.248607 
L 677.764073 169.084396 
L 679.394946 147.325546 
L 680.482195 135.530097 
L 681.569444 126.055933 
L 682.656693 119.008121 
L 683.200318 116.420283 
L 683.743942 114.467318 
L 684.287567 113.155346 
L 684.831191 112.488859 
L 685.374816 112.47071 
L 685.91844 113.102103 
L 686.462065 114.382584 
L 687.005689 116.310044 
L 687.549314 118.880717 
L 688.636563 125.928406 
L 689.723812 135.462781 
L 690.811061 147.39535 
L 691.89831 161.612816 
L 693.529183 186.917255 
L 695.160057 216.49365 
L 697.334555 261.426473 
L 700.052677 323.872256 
L 701.683551 363.189289 
L 702.227175 356.971522 
L 706.032547 266.354655 
L 708.207045 218.969562 
L 709.837918 187.060002 
L 711.468792 159.10213 
L 713.099665 135.760156 
L 714.186914 123.045322 
L 715.274163 112.772463 
L 716.361412 105.05552 
L 716.905037 102.184134 
L 717.448661 99.982766 
L 717.992286 98.458274 
L 718.53591 97.615806 
L 719.079535 97.458777 
L 719.623159 97.988859 
L 720.166784 99.205977 
L 720.710408 101.108301 
L 721.254033 103.692251 
L 722.341282 110.881993 
L 723.428531 120.71187 
L 724.51578 133.091373 
L 725.603029 147.903636 
L 727.233902 174.365972 
L 728.864776 205.397791 
L 730.495649 240.312116 
L 732.670147 291.544688 
L 735.38827 360.191804 
L 735.931894 359.185736 
L 740.28089 249.904864 
L 742.455388 200.696983 
L 744.086262 167.88562 
L 745.717135 139.451312 
L 746.804384 123.266047 
L 747.891633 109.50354 
L 748.978882 98.313513 
L 750.066131 89.82002 
L 750.609756 86.61588 
L 751.15338 84.120082 
L 751.697005 82.340349 
L 752.240629 81.282596 
L 752.784254 80.950908 
L 753.327878 81.347529 
L 753.871503 82.472846 
L 754.415127 84.325396 
L 754.958752 86.901853 
L 755.502376 90.197044 
L 756.589625 98.913737 
L 757.676874 110.397531 
L 758.764123 124.54197 
L 759.851372 141.213051 
L 761.482246 170.599696 
L 763.113119 204.661379 
L 765.287617 256.031319 
L 768.00574 326.899538 
L 769.092989 356.412107 
L 769.636613 362.107153 
L 773.985609 245.782152 
L 776.160107 193.164831 
L 777.790981 157.96117 
L 779.421854 127.33816 
L 780.509103 109.832631 
L 781.596352 94.877516 
L 782.683601 82.635394 
L 783.77085 73.24183 
L 784.314475 69.647864 
L 784.858099 66.803892 
L 785.401724 64.718645 
L 785.945348 63.398942 
L 786.488973 62.849665 
L 787.032597 63.073741 
L 787.576222 64.072136 
L 788.119846 65.843845 
L 788.663471 68.385889 
L 789.207095 71.693326 
L 790.294344 80.574815 
L 791.381593 92.409855 
L 792.468842 107.089585 
L 793.556091 124.47572 
L 795.186965 155.258109 
L 796.817838 191.077631 
L 798.992336 245.290096 
L 801.710459 320.357358 
L 803.341332 365.882432 
L 807.690328 241.809955 
L 809.864826 185.409329 
L 811.4957 147.535286 
L 813.126573 114.454441 
L 814.757447 86.954352 
L 815.844696 72.055073 
L 816.931945 60.097416 
L 818.019194 51.215188 
L 818.562818 47.960794 
L 819.106443 45.511419 
L 819.650067 43.874942 
L 820.193692 43.057187 
L 820.737316 43.061907 
L 821.280941 43.89077 
L 821.824565 45.543347 
L 822.36819 48.017118 
L 822.911814 51.307462 
L 823.999063 60.308977 
L 825.086312 72.46947 
L 826.173561 87.678035 
L 827.26081 105.792281 
L 828.891684 138.026479 
L 830.522557 175.70281 
L 832.153431 217.991615 
L 832.153431 217.991615 
" clip-path="url(#pe8bddd38c2)" style="fill: none; stroke: #1f77b4; stroke-width: 1.5; stroke-linecap: square"/>
   </g>
   <g id="line2d_34">
    <path d="M 490.757244 230.51363 
L 492.388118 252.407066 
L 494.236441 280.329822 
L 496.628389 320.089819 
L 499.237787 366.02078 
L 499.346511 365.422156 
L 503.586783 291.909899 
L 505.761281 257.88457 
L 507.609604 232.315785 
L 509.131752 214.137609 
L 510.436451 200.922492 
L 511.632425 190.902923 
L 512.719674 183.640175 
L 513.589473 179.148108 
L 514.350548 176.204383 
L 515.002897 174.426322 
L 515.546522 173.475252 
L 515.981421 173.063624 
L 516.416321 172.963241 
L 516.742495 173.092361 
L 517.177395 173.536895 
L 517.72102 174.529302 
L 518.264644 176.004706 
L 518.916993 178.407616 
L 519.678068 182.072011 
L 520.547867 187.373197 
L 521.526391 194.715769 
L 522.61364 204.516302 
L 523.918339 218.423844 
L 525.331763 235.912036 
L 526.962636 258.841365 
L 528.919684 289.544514 
L 531.529082 334.240173 
L 533.377405 366.155437 
L 537.617676 291.997223 
L 539.900899 256.012284 
L 541.749223 230.366746 
L 543.271371 212.167436 
L 544.57607 198.964892 
L 545.772044 188.981626 
L 546.859293 181.772103 
L 547.729092 177.336137 
L 548.490166 174.451068 
L 549.142516 172.730171 
L 549.68614 171.83144 
L 550.12104 171.46467 
L 550.555939 171.411723 
L 550.882114 171.578069 
L 551.317014 172.07437 
L 551.860638 173.134799 
L 552.512988 175.049213 
L 553.274062 178.158995 
L 554.143861 182.849859 
L 555.122385 189.540512 
L 556.209634 198.666001 
L 557.405608 210.65466 
L 558.819032 227.263572 
L 560.449905 249.360992 
L 562.298229 277.598595 
L 564.690176 317.883514 
L 567.408299 366.475989 
L 567.843199 359.039499 
L 571.757295 290.265209 
L 573.931793 255.729883 
L 575.780116 229.793569 
L 577.302265 211.36647 
L 578.606964 197.980769 
L 579.802938 187.84184 
L 580.890187 180.502626 
L 581.759986 175.971939 
L 582.52106 173.01111 
L 583.173409 171.230868 
L 583.717034 170.286796 
L 584.151934 169.886531 
L 584.586833 169.802618 
L 584.913008 169.947429 
L 585.347907 170.41731 
L 585.891532 171.448458 
L 586.435156 172.97036 
L 587.087506 175.439149 
L 587.84858 179.194011 
L 588.718379 184.615996 
L 589.696903 192.115756 
L 590.892877 203.208909 
L 592.197576 217.57815 
L 593.719725 237.062323 
L 595.459323 262.445425 
L 597.525096 296.035566 
L 600.351944 345.940827 
L 601.439193 365.716624 
L 601.547918 365.678745 
L 605.788189 290.333026 
L 608.071412 253.79972 
L 609.919735 227.779573 
L 611.441884 209.326899 
L 612.746582 195.951039 
L 613.942556 185.846817 
L 615.029805 178.560149 
L 615.899604 174.085554 
L 616.660679 171.183763 
L 617.313028 169.461301 
L 617.856653 168.570284 
L 618.291552 168.215581 
L 618.617727 168.158913 
L 618.943902 168.281797 
L 619.378801 168.724784 
L 619.813701 169.486168 
L 620.357325 170.883833 
L 621.009675 173.210447 
L 621.770749 176.809616 
L 622.640548 182.068035 
L 623.619072 189.403369 
L 624.706321 199.246723 
L 626.01102 213.275778 
L 627.424444 230.980061 
L 629.055317 254.263258 
L 631.012366 285.528086 
L 633.621763 331.17477 
L 635.578811 366.435832 
L 639.819082 290.4005 
L 642.102305 253.483209 
L 643.950629 227.160935 
L 645.472777 208.472076 
L 646.777476 194.906684 
L 647.97345 184.641705 
L 649.060699 177.221392 
L 649.930498 172.649406 
L 650.691572 169.669892 
L 651.343922 167.886691 
L 651.887546 166.949377 
L 652.322446 166.560549 
L 652.757346 166.493419 
L 653.08352 166.654312 
L 653.51842 167.150267 
L 654.062044 168.221399 
L 654.714394 170.164961 
L 655.475468 173.331109 
L 656.345267 178.115556 
L 657.323791 184.947984 
L 658.41104 194.275007 
L 659.607014 206.53657 
L 661.020438 223.532827 
L 662.651312 246.156332 
L 664.499635 275.078394 
L 666.891583 316.357008 
L 669.609705 366.169656 
L 669.71843 365.192099 
L 673.958701 288.602493 
L 676.133199 253.158891 
L 677.981522 226.528208 
L 679.503671 207.598278 
L 680.80837 193.839449 
L 682.004344 183.410416 
L 683.091593 175.85373 
L 683.961392 171.182373 
L 684.722466 168.123564 
L 685.374816 166.2784 
L 685.91844 165.293861 
L 686.35334 164.870228 
L 686.788239 164.771 
L 687.114414 164.909628 
L 687.549314 165.378348 
L 688.092938 166.419439 
L 688.636563 167.963926 
L 689.288912 170.476436 
L 690.049986 174.305033 
L 690.919786 179.840832 
L 691.89831 187.505458 
L 692.985559 197.732984 
L 694.290257 212.243234 
L 695.703681 230.486078 
L 697.334555 254.401432 
L 699.291603 286.420879 
L 701.901 333.027012 
L 703.749324 365.962253 
L 707.989595 288.651884 
L 710.272818 251.1434 
L 712.121141 224.415785 
L 713.64329 205.451594 
L 714.947988 191.696813 
L 716.143962 181.298596 
L 717.231211 173.792138 
L 718.101011 169.175875 
L 718.862085 166.175859 
L 719.514434 164.388734 
L 720.058059 163.457796 
L 720.492958 163.080379 
L 720.819133 163.012081 
L 721.145308 163.127987 
L 721.580207 163.568915 
L 722.015107 164.336528 
L 722.558732 165.753626 
L 723.211081 168.120583 
L 723.972155 171.790121 
L 724.841954 177.159287 
L 725.820479 184.657053 
L 726.907728 194.726369 
L 728.212426 209.086727 
L 729.62585 227.218771 
L 731.256724 251.075351 
L 733.213772 283.123689 
L 735.823169 329.935059 
L 737.780218 366.628777 
L 739.845991 327.998154 
L 742.781563 275.599197 
L 744.847336 242.447016 
L 746.586934 217.944422 
L 748.109083 199.600977 
L 749.413782 186.470606 
L 750.501031 177.505274 
L 751.479555 171.054536 
L 752.349354 166.65273 
L 753.110428 163.853771 
L 753.762778 162.248162 
L 754.306402 161.474467 
L 754.741302 161.226477 
L 755.067477 161.257235 
L 755.393651 161.473798 
L 755.828551 162.051271 
L 756.372175 163.235836 
L 757.024525 165.332069 
L 757.785599 168.698469 
L 758.655398 173.739782 
L 759.633922 180.894947 
L 760.721171 190.619455 
L 761.917145 203.360976 
L 763.330569 220.97448 
L 764.961443 244.364595 
L 766.809766 274.205128 
L 769.201714 316.708945 
L 771.811111 365.825393 
L 771.919836 365.483036 
L 776.160107 286.837811 
L 778.44333 248.70936 
L 780.291653 221.556044 
L 781.813802 202.30218 
L 783.118501 188.347699 
L 784.314475 177.808534 
L 785.401724 170.210453 
L 786.271523 165.54662 
L 787.032597 162.524035 
L 787.684947 160.731827 
L 788.228571 159.806736 
L 788.663471 159.44059 
L 788.989646 159.384585 
L 789.31582 159.516063 
L 789.75072 159.982831 
L 790.185619 160.782054 
L 790.729244 162.246703 
L 791.381593 164.68236 
L 792.142668 168.447792 
L 793.012467 173.946745 
L 793.990991 181.615294 
L 795.07824 191.903531 
L 796.382939 206.564148 
L 797.796362 225.062985 
L 799.427236 249.388568 
L 801.384284 282.05022 
L 803.993682 329.732319 
L 805.95073 366.28588 
L 810.191001 286.871774 
L 812.474224 248.317831 
L 814.322547 220.831039 
L 815.844696 201.317386 
L 817.149395 187.155116 
L 818.345369 176.4403 
L 819.432618 168.696721 
L 820.302417 163.927255 
L 821.063491 160.820689 
L 821.71584 158.963109 
L 822.259465 157.988389 
L 822.694365 157.585808 
L 823.020539 157.504421 
L 823.346714 157.612211 
L 823.781614 158.050068 
L 824.216513 158.823479 
L 824.760138 160.260287 
L 825.412487 162.669116 
L 826.173561 166.412452 
L 827.043361 171.898429 
L 828.021885 179.568143 
L 829.109134 189.877253 
L 830.413832 204.58985 
L 831.827256 223.177351 
L 832.370881 230.996949 
L 832.370881 230.996949 
" clip-path="url(#pe8bddd38c2)" style="fill: none; stroke: #ff7f0e; stroke-width: 1.5; stroke-linecap: square"/>
   </g>
   <g id="line2d_35">
    <path d="M 490.757244 230.51363 
L 492.333755 251.625897 
L 494.236441 280.296551 
L 496.628389 319.9967 
L 499.292149 366.576905 
L 499.346511 365.611851 
L 503.586783 292.281402 
L 505.815643 257.548887 
L 507.609604 232.846268 
L 509.131752 214.713138 
L 510.490814 201.027597 
L 511.686788 191.118634 
L 512.719674 184.267313 
L 513.643836 179.532371 
L 514.459273 176.477918 
L 515.111622 174.805289 
L 515.655246 173.939927 
L 516.090146 173.595254 
L 516.470683 173.547675 
L 516.85122 173.737264 
L 517.28612 174.244064 
L 517.775382 175.183154 
L 518.373369 176.858716 
L 519.080081 179.580773 
L 519.895518 183.705764 
L 520.819679 189.627129 
L 521.852566 197.761211 
L 523.04854 209.084716 
L 524.407601 224.266151 
L 525.92975 243.90797 
L 527.72371 270.126488 
L 529.898208 305.373884 
L 533.105593 361.437234 
L 533.377405 366.280809 
L 533.431768 366.127657 
L 537.672039 292.466594 
L 539.900899 257.545342 
L 541.69486 232.690374 
L 543.271371 213.832083 
L 544.630432 200.138232 
L 545.826406 190.23344 
L 546.859293 183.394344 
L 547.783454 178.677029 
L 548.544529 175.812197 
L 549.196878 174.101839 
L 549.740503 173.206965 
L 550.175402 172.839998 
L 550.555939 172.773901 
L 550.936477 172.945922 
L 551.371376 173.433833 
L 551.860638 174.353226 
L 552.458625 176.007004 
L 553.165337 178.706647 
L 553.980774 182.810382 
L 554.904935 188.713767 
L 555.937822 196.835589 
L 557.133796 208.155376 
L 558.438495 222.693797 
L 559.960643 242.269009 
L 561.700242 267.61377 
L 563.820377 301.878511 
L 566.864674 355.064485 
L 567.517024 366.647669 
L 571.811657 291.753343 
L 574.040518 256.736008 
L 575.834479 231.828112 
L 577.356627 213.542168 
L 578.715689 199.739392 
L 579.911662 189.743798 
L 580.944549 182.830984 
L 581.868711 178.051982 
L 582.684147 174.967524 
L 583.336497 173.277005 
L 583.880121 172.40094 
L 584.315021 172.050478 
L 584.695558 171.999864 
L 585.076095 172.188319 
L 585.510995 172.696153 
L 586.000257 173.639373 
L 586.598244 175.324242 
L 587.304956 178.063298 
L 588.120392 182.215895 
L 589.044554 188.178712 
L 590.077441 196.37155 
L 591.273415 207.778804 
L 592.632476 223.074646 
L 594.154624 242.866774 
L 595.948585 269.288633 
L 598.123083 304.812876 
L 601.330468 361.322857 
L 601.60228 366.205342 
L 601.656643 366.195335 
L 605.951276 291.033785 
L 608.180137 255.919252 
L 609.974097 230.957753 
L 611.496246 212.644799 
L 612.855307 198.832728 
L 614.051281 188.840659 
L 615.084168 181.939687 
L 616.008329 177.178109 
L 616.769404 174.284943 
L 617.421753 172.556254 
L 617.965378 171.650356 
L 618.400277 171.277375 
L 618.780814 171.208071 
L 619.161351 171.378807 
L 619.596251 171.867605 
L 620.085513 172.791 
L 620.6835 174.453977 
L 621.390212 177.170566 
L 622.205649 181.301942 
L 623.12981 187.246945 
L 624.162697 195.427866 
L 625.358671 206.832001 
L 626.66337 221.480776 
L 628.185518 241.20685 
L 629.925117 266.749556 
L 632.045252 301.285258 
L 635.089549 354.897639 
L 635.741899 366.657187 
L 635.796261 365.739523 
L 640.036532 291.212888 
L 642.265393 255.904012 
L 644.059354 230.785995 
L 645.581502 212.343626 
L 646.940563 198.420844 
L 648.136537 188.336569 
L 649.169424 181.360804 
L 650.093586 176.536696 
L 650.909022 173.421519 
L 651.561372 171.712681 
L 652.104996 170.825654 
L 652.539896 170.469261 
L 652.920433 170.415537 
L 653.30097 170.602827 
L 653.73587 171.111713 
L 654.225132 172.059155 
L 654.823119 173.753541 
L 655.529831 176.509989 
L 656.345267 180.690832 
L 657.269429 186.696065 
L 658.302315 194.949028 
L 659.498289 206.441987 
L 660.857351 221.854912 
L 662.379499 241.800869 
L 664.17346 268.430837 
L 666.347958 304.238424 
L 669.555343 361.205531 
L 669.881517 366.264863 
L 674.176151 290.483427 
L 676.405011 255.074287 
L 678.198972 229.900586 
L 679.721121 211.429758 
L 681.080182 197.496658 
L 682.276156 187.415234 
L 683.309043 180.450904 
L 684.233204 175.643998 
L 684.994278 172.721812 
L 685.646628 170.974342 
L 686.190252 170.057145 
L 686.625152 169.677996 
L 687.005689 169.605397 
L 687.386226 169.774806 
L 687.821126 170.2645 
L 688.310388 171.191975 
L 688.908375 172.864349 
L 689.615087 175.59826 
L 690.430523 179.757902 
L 691.354685 185.745471 
L 692.387572 193.986848 
L 693.583546 205.477278 
L 694.888244 220.238962 
L 696.410393 240.119402 
L 698.149991 265.864662 
L 700.270127 300.677652 
L 703.314424 354.726418 
L 703.966774 366.582537 
L 704.021136 365.806107 
L 708.261407 290.660184 
L 710.490268 255.052887 
L 712.284228 229.719774 
L 713.860739 210.507211 
L 715.219801 196.563558 
L 716.415775 186.484893 
L 717.448661 179.532007 
L 718.372823 174.74238 
L 719.133897 171.839327 
L 719.786247 170.111709 
L 720.329871 169.213438 
L 720.764771 168.850955 
L 721.145308 168.794029 
L 721.525845 168.980108 
L 721.960745 169.490049 
L 722.450007 170.441789 
L 723.047994 172.145886 
L 723.754705 174.920097 
L 724.570142 179.129808 
L 725.494304 185.178406 
L 726.52719 193.492855 
L 727.723164 205.073472 
L 729.082226 220.606166 
L 730.604374 240.709497 
L 732.398335 267.552388 
L 734.572833 303.6499 
L 737.780218 361.084797 
L 738.106392 366.336682 
L 742.401026 289.920811 
L 744.629886 254.21011 
L 746.423847 228.819174 
L 747.945996 210.18671 
L 749.305057 196.129681 
L 750.501031 185.956744 
L 751.533917 178.927514 
L 752.458079 174.074163 
L 753.219153 171.122228 
L 753.871503 169.355495 
L 754.415127 168.426699 
L 754.850027 168.041209 
L 755.230564 167.965213 
L 755.611101 168.133238 
L 756.046001 168.623818 
L 756.535263 169.555437 
L 757.13325 171.237386 
L 757.839962 173.988976 
L 758.655398 178.17749 
L 759.57956 184.20856 
L 760.612447 192.511739 
L 761.80842 204.090407 
L 763.113119 218.967563 
L 764.635268 239.005898 
L 766.374866 264.958366 
L 768.495002 300.055048 
L 771.539299 354.550337 
L 772.191648 366.505277 
L 772.246011 365.875112 
L 776.486282 290.09539 
L 778.715142 254.182629 
L 780.509103 228.629313 
L 782.085614 209.247361 
L 783.444676 195.178705 
L 784.64065 185.007812 
L 785.673536 177.989589 
L 786.597698 173.15327 
L 787.358772 170.22037 
L 788.011121 168.473481 
L 788.554746 167.563657 
L 788.989646 167.194904 
L 789.370183 167.134669 
L 789.75072 167.319476 
L 790.185619 167.830459 
L 790.674881 168.786553 
L 791.272868 170.500536 
L 791.97958 173.292865 
L 792.795017 177.532048 
L 793.719179 183.624944 
L 794.752065 192.002229 
L 795.948039 203.672454 
L 797.252738 218.655287 
L 798.774887 238.822578 
L 800.514485 264.926806 
L 802.688983 301.153473 
L 805.787643 356.959041 
L 806.331267 366.411245 
L 810.625901 289.346097 
L 812.854761 253.326716 
L 814.648722 227.713381 
L 816.170871 208.91541 
L 817.529932 194.731456 
L 818.725906 184.464771 
L 819.758792 177.369033 
L 820.682954 172.468066 
L 821.444028 169.485614 
L 822.096378 167.699103 
L 822.640002 166.758382 
L 823.074902 166.366357 
L 823.455439 166.286845 
L 823.835976 166.453415 
L 824.270876 166.944856 
L 824.760138 167.880662 
L 825.358125 169.572347 
L 826.064836 172.341953 
L 826.880273 176.559926 
L 827.804435 182.635415 
L 828.837321 191.001732 
L 830.033295 202.670576 
L 831.337994 217.665775 
L 832.316518 230.338647 
L 832.316518 230.338647 
" clip-path="url(#pe8bddd38c2)" style="fill: none; stroke: #2ca02c; stroke-width: 1.5; stroke-linecap: square"/>
   </g>
   <g id="patch_9">
    <path d="M 473.676562 382.837187 
L 473.676562 26.877187 
" style="fill: none; stroke: #000000; stroke-width: 0.8; stroke-linejoin: miter; stroke-linecap: square"/>
   </g>
   <g id="patch_10">
    <path d="M 849.451562 382.837187 
L 849.451562 26.877187 
" style="fill: none; stroke: #000000; stroke-width: 0.8; stroke-linejoin: miter; stroke-linecap: square"/>
   </g>
   <g id="patch_11">
    <path d="M 473.676562 382.837187 
L 849.451562 382.837187 
" style="fill: none; stroke: #000000; stroke-width: 0.8; stroke-linejoin: miter; stroke-linecap: square"/>
   </g>
   <g id="patch_12">
    <path d="M 473.676562 26.877187 
L 849.451562 26.877187 
" style="fill: none; stroke: #000000; stroke-width: 0.8; stroke-linejoin: miter; stroke-linecap: square"/>
   </g>
   <g id="text_34">
    <!-- (b) -->
    <g transform="translate(648.827656 20.877187) scale(0.18 -0.18)">
     <use xlink:href="#DejaVuSans-28"/>
     <use xlink:href="#DejaVuSans-62" x="39.013672"/>
     <use xlink:href="#DejaVuSans-29" x="102.490234"/>
    </g>
   </g>
   <g id="legend_2">
    <g id="patch_13">
     <path d="M 482.076562 89.318437 
L 586.369687 89.318437 
Q 588.769687 89.318437 588.769687 86.918437 
L 588.769687 35.277187 
Q 588.769687 32.877187 586.369687 32.877187 
L 482.076562 32.877187 
Q 479.676562 32.877187 479.676562 35.277187 
L 479.676562 86.918437 
Q 479.676562 89.318437 482.076562 89.318437 
z
" style="fill: #ffffff; opacity: 0.8; stroke: #cccccc; stroke-linejoin: miter"/>
    </g>
    <g id="line2d_36">
     <path d="M 484.476562 42.595312 
L 496.476562 42.595312 
L 508.476562 42.595312 
" style="fill: none; stroke: #1f77b4; stroke-width: 1.5; stroke-linecap: square"/>
    </g>
    <g id="text_35">
     <!-- h = 0.05s -->
     <g transform="translate(518.076562 46.795312) scale(0.12 -0.12)">
      <use xlink:href="#DejaVuSans-68"/>
      <use xlink:href="#DejaVuSans-20" x="63.378906"/>
      <use xlink:href="#DejaVuSans-3d" x="95.166016"/>
      <use xlink:href="#DejaVuSans-20" x="178.955078"/>
      <use xlink:href="#DejaVuSans-30" x="210.742188"/>
      <use xlink:href="#DejaVuSans-2e" x="274.365234"/>
      <use xlink:href="#DejaVuSans-30" x="306.152344"/>
      <use xlink:href="#DejaVuSans-35" x="369.775391"/>
      <use xlink:href="#DejaVuSans-73" x="433.398438"/>
     </g>
    </g>
    <g id="line2d_37">
     <path d="M 484.476562 60.209062 
L 496.476562 60.209062 
L 508.476562 60.209062 
" style="fill: none; stroke: #ff7f0e; stroke-width: 1.5; stroke-linecap: square"/>
    </g>
    <g id="text_36">
     <!-- h = 0.01s -->
     <g transform="translate(518.076562 64.409062) scale(0.12 -0.12)">
      <use xlink:href="#DejaVuSans-68"/>
      <use xlink:href="#DejaVuSans-20" x="63.378906"/>
      <use xlink:href="#DejaVuSans-3d" x="95.166016"/>
      <use xlink:href="#DejaVuSans-20" x="178.955078"/>
      <use xlink:href="#DejaVuSans-30" x="210.742188"/>
      <use xlink:href="#DejaVuSans-2e" x="274.365234"/>
      <use xlink:href="#DejaVuSans-30" x="306.152344"/>
      <use xlink:href="#DejaVuSans-31" x="369.775391"/>
      <use xlink:href="#DejaVuSans-73" x="433.398438"/>
     </g>
    </g>
    <g id="line2d_38">
     <path d="M 484.476562 77.822812 
L 496.476562 77.822812 
L 508.476562 77.822812 
" style="fill: none; stroke: #2ca02c; stroke-width: 1.5; stroke-linecap: square"/>
    </g>
    <g id="text_37">
     <!-- h = 0.005s -->
     <g transform="translate(518.076562 82.022812) scale(0.12 -0.12)">
      <use xlink:href="#DejaVuSans-68"/>
      <use xlink:href="#DejaVuSans-20" x="63.378906"/>
      <use xlink:href="#DejaVuSans-3d" x="95.166016"/>
      <use xlink:href="#DejaVuSans-20" x="178.955078"/>
      <use xlink:href="#DejaVuSans-30" x="210.742188"/>
      <use xlink:href="#DejaVuSans-2e" x="274.365234"/>
      <use xlink:href="#DejaVuSans-30" x="306.152344"/>
      <use xlink:href="#DejaVuSans-30" x="369.775391"/>
      <use xlink:href="#DejaVuSans-35" x="433.398438"/>
      <use xlink:href="#DejaVuSans-73" x="497.021484"/>
     </g>
    </g>
   </g>
  </g>
 </g>
 <defs>
  <clipPath id="pb202234152">
   <rect x="46.491563" y="26.877187" width="375.775" height="355.96"/>
  </clipPath>
  <clipPath id="pe8bddd38c2">
   <rect x="473.676562" y="26.877187" width="375.775" height="355.96"/>
  </clipPath>
 </defs>
</svg>
