<?xml version="1.0" encoding="utf-8" standalone="no"?>
<!DOCTYPE svg PUBLIC "-//W3C//DTD SVG 1.1//EN"
  "http://www.w3.org/Graphics/SVG/1.1/DTD/svg11.dtd">
<svg xmlns:xlink="http://www.w3.org/1999/xlink" width="856.624687pt" height="424.264687pt" viewBox="0 0 856.624687 424.264687" xmlns="http://www.w3.org/2000/svg" version="1.1">
 <metadata>
  <rdf:RDF xmlns:dc="http://purl.org/dc/elements/1.1/" xmlns:cc="http://creativecommons.org/ns#" xmlns:rdf="http://www.w3.org/1999/02/22-rdf-syntax-ns#">
   <cc:Work>
    <dc:type rdf:resource="http://purl.org/dc/dcmitype/StillImage"/>
    <dc:date>2024-09-29T02:26:24.302692</dc:date>
    <dc:format>image/svg+xml</dc:format>
    <dc:creator>
     <cc:Agent>
      <dc:title>Matplotlib v3.8.4, https://matplotlib.org/</dc:title>
     </cc:Agent>
    </dc:creator>
   </cc:Work>
  </rdf:RDF>
 </metadata>
 <defs>
  <style type="text/css">*{stroke-linejoin: round; stroke-linecap: butt}</style>
 </defs>
 <g id="figure_1">
  <g id="patch_1">
   <path d="M 0 424.264687 
L 856.624687 424.264687 
L 856.624687 0 
L 0 0 
z
" style="fill: #ffffff"/>
  </g>
  <g id="axes_1">
   <g id="patch_2">
    <path d="M 62.394688 382.837187 
L 423.814687 382.837187 
L 423.814687 26.877187 
L 62.394688 26.877187 
z
" style="fill: #ffffff"/>
   </g>
   <g id="matplotlib.axis_1">
    <g id="xtick_1">
     <g id="line2d_1">
      <defs>
       <path id="m1bdbadab49" d="M 0 0 
L 0 3.5 
" style="stroke: #000000; stroke-width: 0.8"/>
      </defs>
      <g>
       <use xlink:href="#m1bdbadab49" x="78.822869" y="382.837187" style="stroke: #000000; stroke-width: 0.8"/>
      </g>
     </g>
     <g id="text_1">
      <!-- 0 -->
      <g transform="translate(75.641619 397.435625) scale(0.1 -0.1)">
       <defs>
        <path id="DejaVuSans-30" d="M 2034 4250 
Q 1547 4250 1301 3770 
Q 1056 3291 1056 2328 
Q 1056 1369 1301 889 
Q 1547 409 2034 409 
Q 2525 409 2770 889 
Q 3016 1369 3016 2328 
Q 3016 3291 2770 3770 
Q 2525 4250 2034 4250 
z
M 2034 4750 
Q 2819 4750 3233 4129 
Q 3647 3509 3647 2328 
Q 3647 1150 3233 529 
Q 2819 -91 2034 -91 
Q 1250 -91 836 529 
Q 422 1150 422 2328 
Q 422 3509 836 4129 
Q 1250 4750 2034 4750 
z
" transform="scale(0.015625)"/>
       </defs>
       <use xlink:href="#DejaVuSans-30"/>
      </g>
     </g>
    </g>
    <g id="xtick_2">
     <g id="line2d_2">
      <g>
       <use xlink:href="#m1bdbadab49" x="131.108617" y="382.837187" style="stroke: #000000; stroke-width: 0.8"/>
      </g>
     </g>
     <g id="text_2">
      <!-- 5 -->
      <g transform="translate(127.927367 397.435625) scale(0.1 -0.1)">
       <defs>
        <path id="DejaVuSans-35" d="M 691 4666 
L 3169 4666 
L 3169 4134 
L 1269 4134 
L 1269 2991 
Q 1406 3038 1543 3061 
Q 1681 3084 1819 3084 
Q 2600 3084 3056 2656 
Q 3513 2228 3513 1497 
Q 3513 744 3044 326 
Q 2575 -91 1722 -91 
Q 1428 -91 1123 -41 
Q 819 9 494 109 
L 494 744 
Q 775 591 1075 516 
Q 1375 441 1709 441 
Q 2250 441 2565 725 
Q 2881 1009 2881 1497 
Q 2881 1984 2565 2268 
Q 2250 2553 1709 2553 
Q 1456 2553 1204 2497 
Q 953 2441 691 2322 
L 691 4666 
z
" transform="scale(0.015625)"/>
       </defs>
       <use xlink:href="#DejaVuSans-35"/>
      </g>
     </g>
    </g>
    <g id="xtick_3">
     <g id="line2d_3">
      <g>
       <use xlink:href="#m1bdbadab49" x="183.394364" y="382.837187" style="stroke: #000000; stroke-width: 0.8"/>
      </g>
     </g>
     <g id="text_3">
      <!-- 10 -->
      <g transform="translate(177.031864 397.435625) scale(0.1 -0.1)">
       <defs>
        <path id="DejaVuSans-31" d="M 794 531 
L 1825 531 
L 1825 4091 
L 703 3866 
L 703 4441 
L 1819 4666 
L 2450 4666 
L 2450 531 
L 3481 531 
L 3481 0 
L 794 0 
L 794 531 
z
" transform="scale(0.015625)"/>
       </defs>
       <use xlink:href="#DejaVuSans-31"/>
       <use xlink:href="#DejaVuSans-30" x="63.623047"/>
      </g>
     </g>
    </g>
    <g id="xtick_4">
     <g id="line2d_4">
      <g>
       <use xlink:href="#m1bdbadab49" x="235.680111" y="382.837187" style="stroke: #000000; stroke-width: 0.8"/>
      </g>
     </g>
     <g id="text_4">
      <!-- 15 -->
      <g transform="translate(229.317611 397.435625) scale(0.1 -0.1)">
       <use xlink:href="#DejaVuSans-31"/>
       <use xlink:href="#DejaVuSans-35" x="63.623047"/>
      </g>
     </g>
    </g>
    <g id="xtick_5">
     <g id="line2d_5">
      <g>
       <use xlink:href="#m1bdbadab49" x="287.965859" y="382.837187" style="stroke: #000000; stroke-width: 0.8"/>
      </g>
     </g>
     <g id="text_5">
      <!-- 20 -->
      <g transform="translate(281.603359 397.435625) scale(0.1 -0.1)">
       <defs>
        <path id="DejaVuSans-32" d="M 1228 531 
L 3431 531 
L 3431 0 
L 469 0 
L 469 531 
Q 828 903 1448 1529 
Q 2069 2156 2228 2338 
Q 2531 2678 2651 2914 
Q 2772 3150 2772 3378 
Q 2772 3750 2511 3984 
Q 2250 4219 1831 4219 
Q 1534 4219 1204 4116 
Q 875 4013 500 3803 
L 500 4441 
Q 881 4594 1212 4672 
Q 1544 4750 1819 4750 
Q 2544 4750 2975 4387 
Q 3406 4025 3406 3419 
Q 3406 3131 3298 2873 
Q 3191 2616 2906 2266 
Q 2828 2175 2409 1742 
Q 1991 1309 1228 531 
z
" transform="scale(0.015625)"/>
       </defs>
       <use xlink:href="#DejaVuSans-32"/>
       <use xlink:href="#DejaVuSans-30" x="63.623047"/>
      </g>
     </g>
    </g>
    <g id="xtick_6">
     <g id="line2d_6">
      <g>
       <use xlink:href="#m1bdbadab49" x="340.251606" y="382.837187" style="stroke: #000000; stroke-width: 0.8"/>
      </g>
     </g>
     <g id="text_6">
      <!-- 25 -->
      <g transform="translate(333.889106 397.435625) scale(0.1 -0.1)">
       <use xlink:href="#DejaVuSans-32"/>
       <use xlink:href="#DejaVuSans-35" x="63.623047"/>
      </g>
     </g>
    </g>
    <g id="xtick_7">
     <g id="line2d_7">
      <g>
       <use xlink:href="#m1bdbadab49" x="392.537353" y="382.837187" style="stroke: #000000; stroke-width: 0.8"/>
      </g>
     </g>
     <g id="text_7">
      <!-- 30 -->
      <g transform="translate(386.174853 397.435625) scale(0.1 -0.1)">
       <defs>
        <path id="DejaVuSans-33" d="M 2597 2516 
Q 3050 2419 3304 2112 
Q 3559 1806 3559 1356 
Q 3559 666 3084 287 
Q 2609 -91 1734 -91 
Q 1441 -91 1130 -33 
Q 819 25 488 141 
L 488 750 
Q 750 597 1062 519 
Q 1375 441 1716 441 
Q 2309 441 2620 675 
Q 2931 909 2931 1356 
Q 2931 1769 2642 2001 
Q 2353 2234 1838 2234 
L 1294 2234 
L 1294 2753 
L 1863 2753 
Q 2328 2753 2575 2939 
Q 2822 3125 2822 3475 
Q 2822 3834 2567 4026 
Q 2313 4219 1838 4219 
Q 1578 4219 1281 4162 
Q 984 4106 628 3988 
L 628 4550 
Q 988 4650 1302 4700 
Q 1616 4750 1894 4750 
Q 2613 4750 3031 4423 
Q 3450 4097 3450 3541 
Q 3450 3153 3228 2886 
Q 3006 2619 2597 2516 
z
" transform="scale(0.015625)"/>
       </defs>
       <use xlink:href="#DejaVuSans-33"/>
       <use xlink:href="#DejaVuSans-30" x="63.623047"/>
      </g>
     </g>
    </g>
    <g id="text_8">
     <!-- t -->
     <g transform="translate(240.360469 414.153125) scale(0.14 -0.14)">
      <defs>
       <path id="DejaVuSans-74" d="M 1172 4494 
L 1172 3500 
L 2356 3500 
L 2356 3053 
L 1172 3053 
L 1172 1153 
Q 1172 725 1289 603 
Q 1406 481 1766 481 
L 2356 481 
L 2356 0 
L 1766 0 
Q 1100 0 847 248 
Q 594 497 594 1153 
L 594 3053 
L 172 3053 
L 172 3500 
L 594 3500 
L 594 4494 
L 1172 4494 
z
" transform="scale(0.015625)"/>
      </defs>
      <use xlink:href="#DejaVuSans-74"/>
     </g>
    </g>
   </g>
   <g id="matplotlib.axis_2">
    <g id="ytick_1">
     <g id="line2d_8">
      <defs>
       <path id="me82909fad4" d="M 0 0 
L -3.5 0 
" style="stroke: #000000; stroke-width: 0.8"/>
      </defs>
      <g>
       <use xlink:href="#me82909fad4" x="62.394688" y="366.598032" style="stroke: #000000; stroke-width: 0.8"/>
      </g>
     </g>
     <g id="text_9">
      <!-- −1.00 -->
      <g transform="translate(24.749375 370.397251) scale(0.1 -0.1)">
       <defs>
        <path id="DejaVuSans-2212" d="M 678 2272 
L 4684 2272 
L 4684 1741 
L 678 1741 
L 678 2272 
z
" transform="scale(0.015625)"/>
        <path id="DejaVuSans-2e" d="M 684 794 
L 1344 794 
L 1344 0 
L 684 0 
L 684 794 
z
" transform="scale(0.015625)"/>
       </defs>
       <use xlink:href="#DejaVuSans-2212"/>
       <use xlink:href="#DejaVuSans-31" x="83.789062"/>
       <use xlink:href="#DejaVuSans-2e" x="147.412109"/>
       <use xlink:href="#DejaVuSans-30" x="179.199219"/>
       <use xlink:href="#DejaVuSans-30" x="242.822266"/>
      </g>
     </g>
    </g>
    <g id="ytick_2">
     <g id="line2d_9">
      <g>
       <use xlink:href="#me82909fad4" x="62.394688" y="326.163282" style="stroke: #000000; stroke-width: 0.8"/>
      </g>
     </g>
     <g id="text_10">
      <!-- −0.75 -->
      <g transform="translate(24.749375 329.962501) scale(0.1 -0.1)">
       <defs>
        <path id="DejaVuSans-37" d="M 525 4666 
L 3525 4666 
L 3525 4397 
L 1831 0 
L 1172 0 
L 2766 4134 
L 525 4134 
L 525 4666 
z
" transform="scale(0.015625)"/>
       </defs>
       <use xlink:href="#DejaVuSans-2212"/>
       <use xlink:href="#DejaVuSans-30" x="83.789062"/>
       <use xlink:href="#DejaVuSans-2e" x="147.412109"/>
       <use xlink:href="#DejaVuSans-37" x="179.199219"/>
       <use xlink:href="#DejaVuSans-35" x="242.822266"/>
      </g>
     </g>
    </g>
    <g id="ytick_3">
     <g id="line2d_10">
      <g>
       <use xlink:href="#me82909fad4" x="62.394688" y="285.728532" style="stroke: #000000; stroke-width: 0.8"/>
      </g>
     </g>
     <g id="text_11">
      <!-- −0.50 -->
      <g transform="translate(24.749375 289.52775) scale(0.1 -0.1)">
       <use xlink:href="#DejaVuSans-2212"/>
       <use xlink:href="#DejaVuSans-30" x="83.789062"/>
       <use xlink:href="#DejaVuSans-2e" x="147.412109"/>
       <use xlink:href="#DejaVuSans-35" x="179.199219"/>
       <use xlink:href="#DejaVuSans-30" x="242.822266"/>
      </g>
     </g>
    </g>
    <g id="ytick_4">
     <g id="line2d_11">
      <g>
       <use xlink:href="#me82909fad4" x="62.394688" y="245.293781" style="stroke: #000000; stroke-width: 0.8"/>
      </g>
     </g>
     <g id="text_12">
      <!-- −0.25 -->
      <g transform="translate(24.749375 249.093) scale(0.1 -0.1)">
       <use xlink:href="#DejaVuSans-2212"/>
       <use xlink:href="#DejaVuSans-30" x="83.789062"/>
       <use xlink:href="#DejaVuSans-2e" x="147.412109"/>
       <use xlink:href="#DejaVuSans-32" x="179.199219"/>
       <use xlink:href="#DejaVuSans-35" x="242.822266"/>
      </g>
     </g>
    </g>
    <g id="ytick_5">
     <g id="line2d_12">
      <g>
       <use xlink:href="#me82909fad4" x="62.394688" y="204.859031" style="stroke: #000000; stroke-width: 0.8"/>
      </g>
     </g>
     <g id="text_13">
      <!-- 0.00 -->
      <g transform="translate(33.129063 208.65825) scale(0.1 -0.1)">
       <use xlink:href="#DejaVuSans-30"/>
       <use xlink:href="#DejaVuSans-2e" x="63.623047"/>
       <use xlink:href="#DejaVuSans-30" x="95.410156"/>
       <use xlink:href="#DejaVuSans-30" x="159.033203"/>
      </g>
     </g>
    </g>
    <g id="ytick_6">
     <g id="line2d_13">
      <g>
       <use xlink:href="#me82909fad4" x="62.394688" y="164.424281" style="stroke: #000000; stroke-width: 0.8"/>
      </g>
     </g>
     <g id="text_14">
      <!-- 0.25 -->
      <g transform="translate(33.129063 168.223499) scale(0.1 -0.1)">
       <use xlink:href="#DejaVuSans-30"/>
       <use xlink:href="#DejaVuSans-2e" x="63.623047"/>
       <use xlink:href="#DejaVuSans-32" x="95.410156"/>
       <use xlink:href="#DejaVuSans-35" x="159.033203"/>
      </g>
     </g>
    </g>
    <g id="ytick_7">
     <g id="line2d_14">
      <g>
       <use xlink:href="#me82909fad4" x="62.394688" y="123.98953" style="stroke: #000000; stroke-width: 0.8"/>
      </g>
     </g>
     <g id="text_15">
      <!-- 0.50 -->
      <g transform="translate(33.129063 127.788749) scale(0.1 -0.1)">
       <use xlink:href="#DejaVuSans-30"/>
       <use xlink:href="#DejaVuSans-2e" x="63.623047"/>
       <use xlink:href="#DejaVuSans-35" x="95.410156"/>
       <use xlink:href="#DejaVuSans-30" x="159.033203"/>
      </g>
     </g>
    </g>
    <g id="ytick_8">
     <g id="line2d_15">
      <g>
       <use xlink:href="#me82909fad4" x="62.394688" y="83.55478" style="stroke: #000000; stroke-width: 0.8"/>
      </g>
     </g>
     <g id="text_16">
      <!-- 0.75 -->
      <g transform="translate(33.129063 87.353999) scale(0.1 -0.1)">
       <use xlink:href="#DejaVuSans-30"/>
       <use xlink:href="#DejaVuSans-2e" x="63.623047"/>
       <use xlink:href="#DejaVuSans-37" x="95.410156"/>
       <use xlink:href="#DejaVuSans-35" x="159.033203"/>
      </g>
     </g>
    </g>
    <g id="ytick_9">
     <g id="line2d_16">
      <g>
       <use xlink:href="#me82909fad4" x="62.394688" y="43.12003" style="stroke: #000000; stroke-width: 0.8"/>
      </g>
     </g>
     <g id="text_17">
      <!-- 1.00 -->
      <g transform="translate(33.129063 46.919248) scale(0.1 -0.1)">
       <use xlink:href="#DejaVuSans-31"/>
       <use xlink:href="#DejaVuSans-2e" x="63.623047"/>
       <use xlink:href="#DejaVuSans-30" x="95.410156"/>
       <use xlink:href="#DejaVuSans-30" x="159.033203"/>
      </g>
     </g>
    </g>
    <g id="text_18">
     <!-- x(t) -->
     <g transform="translate(17.837812 217.206719) rotate(-90) scale(0.14 -0.14)">
      <defs>
       <path id="DejaVuSans-78" d="M 3513 3500 
L 2247 1797 
L 3578 0 
L 2900 0 
L 1881 1375 
L 863 0 
L 184 0 
L 1544 1831 
L 300 3500 
L 978 3500 
L 1906 2253 
L 2834 3500 
L 3513 3500 
z
" transform="scale(0.015625)"/>
       <path id="DejaVuSans-28" d="M 1984 4856 
Q 1566 4138 1362 3434 
Q 1159 2731 1159 2009 
Q 1159 1288 1364 580 
Q 1569 -128 1984 -844 
L 1484 -844 
Q 1016 -109 783 600 
Q 550 1309 550 2009 
Q 550 2706 781 3412 
Q 1013 4119 1484 4856 
L 1984 4856 
z
" transform="scale(0.015625)"/>
       <path id="DejaVuSans-29" d="M 513 4856 
L 1013 4856 
Q 1481 4119 1714 3412 
Q 1947 2706 1947 2009 
Q 1947 1309 1714 600 
Q 1481 -109 1013 -844 
L 513 -844 
Q 928 -128 1133 580 
Q 1338 1288 1338 2009 
Q 1338 2731 1133 3434 
Q 928 4138 513 4856 
z
" transform="scale(0.015625)"/>
      </defs>
      <use xlink:href="#DejaVuSans-78"/>
      <use xlink:href="#DejaVuSans-28" x="59.179688"/>
      <use xlink:href="#DejaVuSans-74" x="98.193359"/>
      <use xlink:href="#DejaVuSans-29" x="137.402344"/>
     </g>
    </g>
   </g>
   <g id="line2d_17">
    <path d="M 78.822869 204.859031 
L 83.005729 141.849694 
L 85.097159 113.50012 
L 86.665731 94.573217 
L 88.234304 78.125072 
L 89.802876 64.525394 
L 90.848591 57.195233 
L 91.894306 51.341686 
L 92.940021 47.023295 
L 93.462879 45.453892 
L 93.985736 44.283248 
L 94.508594 43.514293 
L 95.031451 43.14895 
L 95.554308 43.188135 
L 96.077166 43.63175 
L 96.600023 44.478685 
L 97.122881 45.726823 
L 97.645738 47.373043 
L 98.691453 51.842269 
L 99.737168 57.841677 
L 100.782883 65.311278 
L 101.828598 74.176379 
L 103.397171 89.89308 
L 104.965743 108.193894 
L 107.057173 135.896549 
L 109.67146 174.253895 
L 116.468607 276.653201 
L 118.560037 304.028483 
L 120.12861 322.017538 
L 121.697182 337.373357 
L 122.742897 345.974531 
L 123.788612 353.164578 
L 124.834327 358.871592 
L 125.880042 363.038498 
L 126.402899 364.530773 
L 126.925757 365.623622 
L 127.448614 366.31431 
L 127.971472 366.601109 
L 128.494329 366.4833 
L 129.017187 365.961177 
L 129.540044 365.036047 
L 130.062902 363.710223 
L 130.585759 361.98702 
L 131.631474 357.366703 
L 132.677189 351.221296 
L 133.722904 343.612246 
L 134.768619 334.61564 
L 136.337191 318.719431 
L 137.905764 300.263957 
L 139.997194 272.399661 
L 142.611481 233.920583 
L 149.408628 131.656004 
L 151.500058 104.447452 
L 153.068631 86.616411 
L 154.637203 71.442974 
L 155.682918 62.97492 
L 156.728633 55.925681 
L 157.774348 50.365753 
L 158.820063 46.350741 
L 159.34292 44.935742 
L 159.865778 43.920799 
L 160.388635 43.308451 
L 160.911493 43.100231 
L 161.43435 43.296661 
L 161.957208 43.89725 
L 162.480065 44.900495 
L 163.002923 46.303888 
L 164.048638 50.296085 
L 165.094352 55.833925 
L 166.140067 62.862032 
L 167.185782 71.310132 
L 168.754355 86.456296 
L 170.322927 104.263818 
L 172.414357 131.447789 
L 175.028644 169.408155 
L 182.348649 279.464138 
L 184.440079 306.503374 
L 186.008651 324.174701 
L 187.577224 339.164305 
L 188.622939 347.498425 
L 189.668654 354.406177 
L 190.714369 359.818479 
L 191.760084 363.681204 
L 192.282941 365.018785 
L 192.805799 365.955719 
L 193.328656 366.48966 
L 193.851513 366.619274 
L 194.374371 366.344234 
L 194.897228 365.665228 
L 195.420086 364.583955 
L 195.942943 363.103118 
L 196.988658 358.958559 
L 198.034373 353.272992 
L 199.080088 346.103267 
L 200.125803 337.521078 
L 201.694376 322.190802 
L 203.262948 304.223239 
L 205.354378 276.869452 
L 207.968665 238.776 
L 215.28867 128.858753 
L 217.3801 101.991405 
L 218.948672 84.481476 
L 220.517245 69.677139 
L 221.56296 61.477754 
L 222.608675 54.712155 
L 223.654389 49.448005 
L 224.700104 45.737948 
L 225.222962 44.477918 
L 225.745819 43.61909 
L 226.268677 43.163612 
L 226.791534 43.112625 
L 227.314392 43.466257 
L 227.837249 44.223623 
L 228.360107 45.382829 
L 228.882964 46.940978 
L 229.928679 51.237522 
L 230.974394 57.070295 
L 232.020109 64.380973 
L 233.065824 73.096455 
L 234.634396 88.609412 
L 236.202969 106.735335 
L 238.294399 134.25637 
L 240.908686 172.479324 
L 247.705833 275.04711 
L 249.797263 302.617353 
L 251.365836 320.790091 
L 252.934408 336.357183 
L 253.980123 345.112212 
L 255.025838 352.464736 
L 256.071553 358.341226 
L 257.117268 362.682913 
L 257.640125 364.264023 
L 258.162983 365.446374 
L 258.68584 366.227008 
L 259.208698 366.603971 
L 259.731555 366.57632 
L 260.254413 366.144122 
L 260.77727 365.308459 
L 261.300128 364.07142 
L 261.822985 362.4361 
L 262.8687 357.987962 
L 263.914415 352.00852 
L 264.96013 344.557565 
L 266.005845 335.709601 
L 267.574417 320.015409 
L 269.14299 301.732823 
L 271.23442 274.047123 
L 273.848707 235.698265 
L 280.645854 133.254131 
L 282.737284 105.847675 
L 284.305856 87.831022 
L 285.874429 72.444672 
L 286.920144 63.82185 
L 287.965859 56.609373 
L 289.011574 50.879369 
L 290.057289 46.689145 
L 290.580146 45.185159 
L 291.103004 44.080606 
L 291.625861 43.378248 
L 292.148719 43.079843 
L 292.671576 43.186139 
L 293.194433 43.696869 
L 293.717291 44.610758 
L 294.240148 45.925519 
L 294.763006 47.637864 
L 295.808721 52.237191 
L 296.854436 58.362752 
L 297.900151 65.953294 
L 298.945866 74.932917 
L 300.514438 90.806879 
L 302.083011 109.244416 
L 304.17444 137.092182 
L 306.788728 175.563333 
L 313.585875 277.874127 
L 315.677305 305.114192 
L 317.245877 322.973042 
L 318.81445 338.177179 
L 319.860165 346.666967 
L 320.90588 353.738702 
L 321.951595 359.321663 
L 322.997309 363.360014 
L 323.520167 364.786725 
L 324.043024 365.813369 
L 324.565882 366.437377 
L 325.088739 366.657187 
L 325.611597 366.47225 
L 326.134454 365.883027 
L 326.657312 364.890992 
L 327.180169 363.498625 
L 328.225884 359.527819 
L 329.271599 354.010313 
L 330.317314 347.001276 
L 331.363029 338.570796 
L 332.931601 323.447956 
L 334.500174 305.659573 
L 336.591604 278.493883 
L 339.205891 240.54377 
L 346.525896 130.440497 
L 348.617326 103.369413 
L 350.185898 85.670068 
L 351.75447 70.649599 
L 352.800185 62.29366 
L 353.8459 55.363349 
L 354.891615 49.927973 
L 355.93733 46.04189 
L 356.460188 44.692597 
L 356.983045 43.743967 
L 357.505903 43.198376 
L 358.02876 43.057187 
L 358.551618 43.320757 
L 359.074475 43.988424 
L 359.597333 45.058521 
L 360.12019 46.52837 
L 361.165905 50.65163 
L 362.21162 56.316977 
L 363.257335 63.467762 
L 364.30305 72.032482 
L 365.871622 87.339689 
L 367.440195 105.288399 
L 369.531625 132.624323 
L 372.145912 170.708082 
L 379.465917 280.67411 
L 381.557346 307.57364 
L 383.125919 325.111792 
L 384.694491 339.947157 
L 385.740206 348.168444 
L 386.785921 354.956663 
L 387.831636 360.243927 
L 388.877351 363.977358 
L 389.400209 365.249099 
L 389.923066 366.119617 
L 390.445924 366.586733 
L 390.968781 366.649277 
L 391.491638 366.307094 
L 392.014496 365.561037 
L 392.537353 364.412973 
L 393.060211 362.865773 
L 394.105926 358.590433 
L 395.151641 352.777766 
L 396.197356 345.485893 
L 397.243071 336.787729 
L 398.811643 321.297583 
L 400.380216 303.190226 
L 402.471645 275.686633 
L 405.085933 237.472813 
L 407.177363 205.320702 
L 407.177363 205.320702 
" clip-path="url(#p02c45d33d9)" style="fill: none; stroke: #1f77b4; stroke-width: 1.5; stroke-linecap: square"/>
   </g>
   <g id="line2d_18">
    <path d="M 78.822869 204.859031 
L 83.005729 141.873901 
L 85.20173 112.202665 
L 86.979446 91.109814 
L 88.443447 76.177702 
L 89.802876 64.561438 
L 90.953163 56.574942 
L 91.998878 50.867827 
L 92.83545 47.407761 
L 93.56745 45.20581 
L 94.194879 43.940532 
L 94.717737 43.328411 
L 95.136022 43.129379 
L 95.554308 43.189088 
L 95.972594 43.507444 
L 96.495452 44.268294 
L 97.122881 45.710933 
L 97.854881 48.117463 
L 98.691453 51.807019 
L 99.632597 57.126613 
L 100.678312 64.43763 
L 101.828598 74.097084 
L 103.188028 87.540374 
L 104.7566 105.495996 
L 106.534315 128.519555 
L 108.834888 161.477385 
L 112.913177 223.974131 
L 116.154893 272.057852 
L 118.246323 299.946717 
L 119.919467 319.576932 
L 121.383468 334.364715 
L 122.638326 345.032556 
L 123.788612 353.043519 
L 124.834327 358.773929 
L 125.670899 362.253192 
L 126.402899 364.472244 
L 127.030328 365.752339 
L 127.553186 366.376879 
L 127.971472 366.585871 
L 128.389758 366.536126 
L 128.808044 366.227724 
L 129.330901 365.479274 
L 129.853759 364.329345 
L 130.481188 362.423592 
L 131.213188 359.484082 
L 132.04976 355.19825 
L 132.990904 349.228774 
L 134.14119 340.351333 
L 135.396048 328.803125 
L 136.860049 313.090175 
L 138.533193 292.559004 
L 140.520051 265.314763 
L 143.23891 224.716084 
L 149.094914 136.418003 
L 151.186344 108.667877 
L 152.859488 89.180655 
L 154.323488 74.538259 
L 155.578346 64.007847 
L 156.728633 56.131474 
L 157.669776 51.020803 
L 158.506348 47.522352 
L 159.238349 45.286204 
L 159.865778 43.991295 
L 160.388635 43.354337 
L 160.806921 43.135386 
L 161.225207 43.175166 
L 161.643493 43.473615 
L 162.166351 44.209662 
L 162.689208 45.347262 
L 163.316637 47.238358 
L 164.048638 50.161028 
L 164.885209 54.428057 
L 165.826353 60.377086 
L 166.976639 69.230787 
L 168.231497 80.75498 
L 169.695498 96.442842 
L 171.368642 116.949801 
L 173.355501 144.172275 
L 176.074359 184.754748 
L 181.930363 273.074278 
L 184.021793 300.849827 
L 185.694937 320.363197 
L 187.158938 335.032149 
L 188.413796 345.587645 
L 189.564082 353.488569 
L 190.609797 359.114239 
L 191.446369 362.50721 
L 192.17837 364.649405 
L 192.805799 365.862917 
L 193.328656 366.431657 
L 193.746942 366.595904 
L 194.165228 366.501398 
L 194.583514 366.148289 
L 195.106371 365.344145 
L 195.7338 363.849911 
L 196.465801 361.383915 
L 197.302373 357.627713 
L 198.243516 352.235331 
L 199.289231 344.846843 
L 200.439518 335.107204 
L 201.798947 321.577229 
L 203.36752 303.534262 
L 205.145235 280.430477 
L 207.445808 247.401956 
L 211.733239 181.674403 
L 214.765812 136.869726 
L 216.857242 109.068822 
L 218.530386 89.529349 
L 219.994387 74.833875 
L 221.249245 64.253321 
L 222.399532 56.327864 
L 223.445246 50.678852 
L 224.281818 47.266655 
L 225.013819 45.107342 
L 225.641248 43.879002 
L 226.164105 43.297838 
L 226.582391 43.123629 
L 227.000677 43.208172 
L 227.418963 43.55133 
L 227.941821 44.34308 
L 228.56925 45.822546 
L 229.30125 48.271523 
L 230.137822 52.008655 
L 231.078966 57.380214 
L 232.124681 64.746545 
L 233.274967 74.463259 
L 234.634396 87.968462 
L 236.202969 105.986484 
L 237.980684 129.067381 
L 240.281257 162.075782 
L 244.464117 226.194891 
L 247.601262 272.622232 
L 249.692692 300.448426 
L 251.365836 320.013955 
L 252.829837 334.735916 
L 254.084694 345.341503 
L 255.234981 353.291474 
L 256.280696 358.963815 
L 257.117268 362.395229 
L 257.849268 364.571657 
L 258.476697 365.814821 
L 258.999555 366.408408 
L 259.417841 366.592577 
L 259.836127 366.517999 
L 260.254413 366.184791 
L 260.77727 365.405437 
L 261.404699 363.940745 
L 262.1367 361.508792 
L 262.973271 357.790739 
L 263.914415 352.440016 
L 264.96013 345.095859 
L 266.110416 335.402093 
L 267.469846 321.921695 
L 269.038418 303.928659 
L 270.816134 280.870704 
L 273.116706 247.882503 
L 277.299566 183.770141 
L 280.436711 137.322095 
L 282.528141 109.470676 
L 284.201285 89.879138 
L 285.665286 75.130726 
L 286.920144 64.500129 
L 288.07043 56.525663 
L 289.116145 50.830007 
L 289.952717 47.379384 
L 290.684718 45.185848 
L 291.312147 43.927862 
L 291.835004 43.321853 
L 292.25329 43.127724 
L 292.671576 43.192338 
L 293.089862 43.515594 
L 293.612719 44.282549 
L 294.240148 45.732467 
L 294.972149 48.147388 
L 295.808721 51.846354 
L 296.749864 57.176228 
L 297.795579 64.498194 
L 298.945866 74.168989 
L 300.305295 87.624551 
L 301.873868 105.592556 
L 303.651583 128.627514 
L 305.952156 161.595438 
L 310.030444 224.095948 
L 313.27216 272.169542 
L 315.36359 300.046118 
L 317.036734 319.663619 
L 318.500735 334.438449 
L 319.755593 345.094029 
L 320.90588 353.092971 
L 321.951595 358.811929 
L 322.788166 362.281752 
L 323.520167 364.492393 
L 324.147596 365.765197 
L 324.670453 366.383626 
L 325.088739 366.587716 
L 325.507025 366.533065 
L 325.925311 366.219762 
L 326.448169 365.465207 
L 326.971026 364.309206 
L 327.598455 362.396235 
L 328.330456 359.448431 
L 329.167028 355.153335 
L 330.108171 349.173784 
L 331.258458 340.284642 
L 332.513315 328.724592 
L 333.977316 312.999267 
L 335.65046 292.456143 
L 337.637319 265.201141 
L 340.356178 224.594417 
L 346.212181 136.306746 
L 348.303611 108.569087 
L 349.976755 89.094704 
L 351.440756 74.465357 
L 352.695614 63.947275 
L 353.8459 56.082974 
L 354.787044 50.982624 
L 355.623616 47.493608 
L 356.355616 45.265869 
L 356.983045 43.978249 
L 357.505903 43.347402 
L 357.924189 43.133353 
L 358.342475 43.178038 
L 358.760761 43.481388 
L 359.283618 44.223542 
L 359.806476 45.367215 
L 360.433905 47.265531 
L 361.165905 50.196499 
L 362.002477 54.472796 
L 362.94362 60.431907 
L 364.093907 69.29732 
L 365.348765 80.833367 
L 366.812766 96.533623 
L 368.48591 117.052559 
L 370.472768 144.285826 
L 373.191627 184.876392 
L 379.047631 273.185615 
L 381.139061 300.948728 
L 382.812204 320.449282 
L 384.276205 335.105203 
L 385.531063 345.648381 
L 386.68135 353.537242 
L 387.622493 358.658582 
L 388.459065 362.166782 
L 389.191066 364.411614 
L 389.818495 365.714047 
L 390.341352 366.357311 
L 390.759638 366.581319 
L 391.177924 366.546598 
L 391.59621 366.253202 
L 392.119067 365.523452 
L 392.641925 364.39211 
L 393.269354 362.508452 
L 394.001354 359.594328 
L 394.837926 355.336839 
L 395.77907 349.398182 
L 396.929356 340.556521 
L 398.184214 329.044503 
L 399.648215 313.369354 
L 401.321359 292.874654 
L 403.308217 265.663188 
L 406.027076 225.088877 
L 407.386506 204.115498 
L 407.386506 204.115498 
" clip-path="url(#p02c45d33d9)" style="fill: none; stroke: #ff7f0e; stroke-width: 1.5; stroke-linecap: square"/>
   </g>
   <g id="line2d_19">
    <path d="M 78.822869 204.859031 
L 83.005729 141.874649 
L 85.20173 112.203682 
L 86.979446 91.110945 
L 88.495733 75.690529 
L 89.802876 64.56251 
L 90.953163 56.575897 
L 91.946592 51.117861 
L 92.83545 47.408404 
L 93.56745 45.206291 
L 94.194879 43.940857 
L 94.717737 43.328594 
L 95.136022 43.129441 
L 95.502023 43.167424 
L 95.920309 43.453335 
L 96.39088 44.083595 
L 96.966024 45.295794 
L 97.593453 47.168385 
L 98.325453 50.069771 
L 99.162025 54.313005 
L 100.155454 60.599999 
L 101.253455 69.059685 
L 102.508313 80.553324 
L 103.920028 95.611479 
L 105.593172 116.008269 
L 107.58003 143.131274 
L 110.246603 182.837311 
L 116.416322 275.707932 
L 118.455466 302.538127 
L 120.12861 321.828601 
L 121.592611 336.271652 
L 122.847469 346.614083 
L 123.945469 353.995596 
L 124.938898 359.260469 
L 125.77547 362.615616 
L 126.507471 364.724157 
L 127.1349 365.908542 
L 127.657757 366.452891 
L 128.076043 366.59759 
L 128.442044 366.511944 
L 128.86033 366.171624 
L 129.330901 365.480336 
L 129.906044 364.193984 
L 130.585759 362.05289 
L 131.370045 358.75813 
L 132.258903 353.979237 
L 133.252332 347.365786 
L 134.402619 338.107064 
L 135.709762 325.637695 
L 137.173763 309.444805 
L 138.899193 287.759676 
L 140.990623 258.516332 
L 144.023196 212.645263 
L 148.728914 141.600511 
L 150.872629 112.622938 
L 152.650345 91.474745 
L 154.166631 75.99867 
L 155.473775 64.817431 
L 156.624061 56.780665 
L 157.617491 51.2773 
L 158.506348 47.526054 
L 159.238349 45.288875 
L 159.865778 43.993056 
L 160.388635 43.355324 
L 160.806921 43.135745 
L 161.172921 43.155846 
L 161.591207 43.421338 
L 162.061779 44.028691 
L 162.584637 45.085362 
L 163.212066 46.880213 
L 163.944066 49.692232 
L 164.780638 53.835621 
L 165.721781 59.650096 
L 166.819782 67.915397 
L 168.07464 79.202434 
L 169.486355 94.051524 
L 171.107213 113.56886 
L 173.041786 139.685908 
L 175.603788 177.537186 
L 182.453221 280.300793 
L 184.440079 305.962662 
L 186.113223 324.784348 
L 187.524938 338.299501 
L 188.779796 348.281087 
L 189.877797 355.327008 
L 190.81894 360.049666 
L 191.655512 363.193953 
L 192.387513 365.114911 
L 192.962656 366.073913 
L 193.433228 366.49599 
L 193.851513 366.596443 
L 194.217514 366.47208 
L 194.6358 366.087575 
L 195.106371 365.346742 
L 195.681515 364.000214 
L 196.361229 361.788771 
L 197.145516 358.414245 
L 198.034373 353.547312 
L 199.027802 346.839181 
L 200.178089 337.476819 
L 201.485233 324.898988 
L 202.949234 308.598381 
L 204.674663 286.807704 
L 206.818379 256.70594 
L 210.007809 208.306778 
L 214.399812 142.071074 
L 216.595814 112.378505 
L 218.373529 91.262598 
L 219.889816 75.818935 
L 221.196959 64.668693 
L 222.347246 56.661141 
L 223.340675 51.184182 
L 224.229533 47.457282 
L 224.961533 45.240534 
L 225.588962 43.962419 
L 226.11182 43.339527 
L 226.530106 43.13185 
L 226.896106 43.162371 
L 227.314392 43.439762 
L 227.784964 44.060465 
L 228.307821 45.131892 
L 228.93525 46.944294 
L 229.66725 49.776492 
L 230.503822 53.942434 
L 231.444966 59.781456 
L 232.542967 68.074038 
L 233.797824 79.390097 
L 235.20954 94.268591 
L 236.830398 113.814786 
L 238.76497 139.958512 
L 241.326972 177.830692 
L 248.124119 279.848458 
L 250.110978 305.563345 
L 251.784122 324.440919 
L 253.195837 338.010117 
L 254.450695 348.044197 
L 255.548695 355.138871 
L 256.489839 359.904988 
L 257.326411 363.0889 
L 258.058411 365.045089 
L 258.633554 366.032022 
L 259.104126 366.47705 
L 259.522412 366.597936 
L 259.888412 366.491453 
L 260.306698 366.12735 
L 260.77727 365.409393 
L 261.352413 364.090646 
L 262.032128 361.911677 
L 262.816414 358.573968 
L 263.705272 353.747663 
L 264.698701 347.083216 
L 265.848988 337.76866 
L 267.156131 325.240842 
L 268.620132 308.989882 
L 270.345562 287.247817 
L 272.489278 257.189678 
L 275.626422 209.626004 
L 280.122997 141.796783 
L 282.318998 112.134385 
L 284.096713 91.050835 
L 285.613 75.639637 
L 286.920144 64.52043 
L 288.07043 56.542119 
L 289.063859 51.091585 
L 289.952717 47.389043 
L 290.684718 45.192733 
L 291.312147 43.932326 
L 291.835004 43.324277 
L 292.25329 43.128503 
L 292.61929 43.169445 
L 293.037576 43.458733 
L 293.508148 44.092783 
L 294.083291 45.309586 
L 294.71072 47.187154 
L 295.442721 50.094258 
L 296.279293 54.343879 
L 297.272722 60.638198 
L 298.370722 69.105577 
L 299.62558 80.607384 
L 301.037296 95.673793 
L 302.710439 116.078886 
L 304.697298 143.209394 
L 307.363871 182.921048 
L 313.481303 275.056249 
L 315.520448 301.959987 
L 317.245877 321.886998 
L 318.709878 336.32095 
L 319.964736 346.654806 
L 321.062737 354.028332 
L 322.056166 359.285664 
L 322.892738 362.634283 
L 323.624738 364.737012 
L 324.252167 365.916364 
L 324.775025 366.456496 
L 325.193311 366.597816 
L 325.559311 366.509212 
L 325.977597 366.165516 
L 326.448169 365.470441 
L 327.023312 364.179489 
L 327.703027 362.033016 
L 328.487313 358.732156 
L 329.376171 353.946528 
L 330.3696 347.325831 
L 331.519886 338.059174 
L 332.82703 325.581494 
L 334.291031 309.380344 
L 336.016461 287.687109 
L 338.10789 258.4366 
L 341.19275 211.75296 
L 345.846181 141.522706 
L 347.989897 112.553488 
L 349.767612 91.414448 
L 351.283899 75.947565 
L 352.591042 64.77512 
L 353.741329 56.746642 
L 354.734758 51.25077 
L 355.623616 47.506433 
L 356.355616 45.275054 
L 356.983045 43.98426 
L 357.505903 43.350741 
L 357.924189 43.13454 
L 358.290189 43.1576 
L 358.708475 43.42647 
L 359.179047 44.037613 
L 359.701904 45.098474 
L 360.329333 46.898309 
L 361.061334 49.716058 
L 361.897905 53.865853 
L 362.839049 59.6873 
L 363.93705 67.960351 
L 365.191908 79.255634 
L 366.603623 94.113081 
L 368.224481 113.638622 
L 370.159054 139.763259 
L 372.721055 177.620494 
L 379.518202 279.659495 
L 381.505061 305.396435 
L 383.178205 324.297277 
L 384.58992 337.888989 
L 385.844778 347.944945 
L 386.942778 355.059944 
L 387.883922 359.844183 
L 388.720494 363.04462 
L 389.452494 365.015506 
L 390.027638 366.014091 
L 390.498209 366.468694 
L 390.916495 366.598108 
L 391.282495 366.499085 
L 391.700781 366.143497 
L 392.171353 365.435087 
L 392.746496 364.127937 
L 393.426211 361.962525 
L 394.210497 358.640188 
L 395.099355 353.83085 
L 396.092784 347.18465 
L 397.243071 337.890069 
L 398.550214 325.383156 
L 400.014215 309.152958 
L 401.739645 287.43124 
L 403.831075 258.155583 
L 406.915934 211.455477 
L 407.33422 204.987717 
L 407.33422 204.987717 
" clip-path="url(#p02c45d33d9)" style="fill: none; stroke: #2ca02c; stroke-width: 1.5; stroke-linecap: square"/>
   </g>
   <g id="line2d_20">
    <path d="M 78.822869 204.859031 
L 83.005729 141.874897 
L 85.097159 113.534321 
L 86.665731 94.611459 
L 88.234304 78.164519 
L 89.802876 64.562865 
L 90.848591 57.229503 
L 91.894306 51.371206 
L 92.940021 47.04651 
L 93.462879 45.473376 
L 93.985736 44.298623 
L 94.508594 43.525188 
L 95.031451 43.155004 
L 95.554308 43.188995 
L 96.077166 43.627077 
L 96.600023 44.468155 
L 97.122881 45.710127 
L 97.645738 47.349888 
L 98.691453 51.8054 
L 99.737168 57.790173 
L 100.782883 65.24441 
L 101.828598 74.09363 
L 103.397171 89.786041 
L 104.965743 108.062744 
L 107.057173 135.735036 
L 109.67146 174.060262 
L 116.468607 276.431845 
L 118.560037 303.820315 
L 120.12861 321.826756 
L 121.697182 337.206354 
L 122.742897 345.826826 
L 123.788612 353.038794 
L 124.834327 358.7702 
L 125.880042 362.963776 
L 126.402899 364.470171 
L 126.925757 365.577621 
L 127.448614 366.283359 
L 127.971472 366.58562 
L 128.494329 366.483648 
L 129.017187 365.9777 
L 129.540044 365.069038 
L 130.062902 363.759935 
L 130.585759 362.053663 
L 131.631474 357.46765 
L 132.677189 351.356823 
L 133.722904 343.782238 
L 134.768619 334.819578 
L 136.337191 318.972418 
L 137.905764 300.562518 
L 139.997194 272.751244 
L 142.611481 234.321812 
L 149.408628 132.069352 
L 151.500058 104.825702 
L 153.068631 86.956306 
L 154.637203 71.734752 
L 155.682918 63.229571 
L 156.728633 56.139506 
L 157.774348 50.535396 
L 158.820063 46.473238 
L 159.34292 45.033688 
L 159.865778 43.993618 
L 160.388635 43.355628 
L 160.911493 43.121312 
L 161.43435 43.291256 
L 161.957208 43.865036 
L 162.480065 44.841216 
L 163.002923 46.217358 
L 164.048638 50.154776 
L 165.094352 55.637947 
L 166.140067 62.612087 
L 167.185782 71.00751 
L 168.754355 86.078378 
L 170.322927 103.816803 
L 172.414357 130.921506 
L 175.028644 168.809039 
L 182.348649 278.860429 
L 184.440079 305.957333 
L 186.008651 323.688421 
L 187.577224 338.750857 
L 188.622939 347.140144 
L 189.668654 354.107806 
L 190.714369 359.584223 
L 191.760084 363.514677 
L 192.282941 364.88728 
L 192.805799 365.859896 
L 193.328656 366.430094 
L 193.851513 366.596448 
L 194.374371 366.358543 
L 194.897228 365.716973 
L 195.420086 364.673342 
L 195.942943 363.230259 
L 196.988658 359.161152 
L 198.034373 353.550308 
L 199.080088 346.453791 
L 200.125803 337.942506 
L 201.694376 322.712576 
L 203.262948 304.83591 
L 205.354378 277.584563 
L 207.968665 239.582176 
L 215.28867 129.651144 
L 217.3801 102.702901 
L 218.948672 85.111374 
L 220.517245 70.209122 
L 221.56296 61.93632 
L 222.608675 55.091556 
L 223.654389 49.743218 
L 224.700104 45.944746 
L 225.222962 44.639187 
L 225.745819 43.734093 
L 226.268677 43.231729 
L 226.791534 43.133348 
L 227.314392 43.439197 
L 227.837249 44.148512 
L 228.360107 45.259519 
L 228.882964 46.769442 
L 229.928679 50.969951 
L 230.974394 56.708069 
L 232.020109 63.926463 
L 233.065824 72.553008 
L 234.634396 87.940923 
L 236.202969 105.954568 
L 238.294399 133.350633 
L 240.908686 171.465187 
L 248.228691 281.268091 
L 250.320121 308.065768 
L 251.888693 325.51649 
L 253.457265 340.257506 
L 254.50298 348.413236 
L 255.548695 355.134621 
L 256.59441 360.354501 
L 257.640125 364.020722 
L 258.162983 365.259145 
L 258.68584 366.096652 
L 259.208698 366.531148 
L 259.731555 366.561549 
L 260.254413 366.187777 
L 260.77727 365.410768 
L 261.300128 364.232462 
L 261.822985 362.655807 
L 262.8687 358.324192 
L 263.914415 352.459205 
L 264.96013 345.119445 
L 266.005845 336.37825 
L 267.574417 320.833436 
L 269.14299 302.684087 
L 271.23442 275.145241 
L 273.848707 236.921214 
L 280.645854 134.443472 
L 282.737284 106.919617 
L 284.305856 88.784544 
L 285.874429 73.256253 
L 286.920144 64.527141 
L 287.965859 57.200178 
L 289.011574 51.348574 
L 290.057289 47.030795 
L 290.580146 45.461184 
L 291.103004 44.289984 
L 291.625861 43.520123 
L 292.148719 43.153526 
L 292.671576 43.191108 
L 293.194433 43.632776 
L 293.717291 44.477425 
L 294.240148 45.722945 
L 294.763006 47.366222 
L 295.808721 51.828635 
L 296.854436 57.820077 
L 297.900151 65.280684 
L 298.945866 74.135912 
L 300.514438 89.836525 
L 302.083011 108.120296 
L 304.17444 135.799978 
L 306.788728 174.130776 
L 313.585875 276.496248 
L 315.677305 303.877116 
L 317.245877 321.87635 
L 318.81445 337.247627 
L 319.860165 345.862025 
L 320.90588 353.067567 
L 321.951595 358.792259 
L 322.997309 362.978901 
L 323.520167 364.481768 
L 324.043024 365.585661 
L 324.565882 366.287821 
L 325.088739 366.586494 
L 325.611597 366.480932 
L 326.134454 365.971399 
L 326.657312 365.05917 
L 327.180169 363.746523 
L 327.703027 362.036741 
L 328.748742 357.443844 
L 329.794457 351.326371 
L 330.840172 343.745444 
L 331.885887 334.77681 
L 333.454459 318.921507 
L 335.023031 300.504607 
L 337.114461 272.686047 
L 339.728749 234.251186 
L 346.525896 132.005219 
L 348.617326 104.769273 
L 350.185898 86.907151 
L 351.75447 71.693974 
L 352.800185 63.1949 
L 353.8459 56.111287 
L 354.891615 50.513913 
L 355.93733 46.458704 
L 356.460188 45.022687 
L 356.983045 43.986179 
L 357.505903 43.351768 
L 358.02876 43.121042 
L 358.551618 43.294576 
L 359.074475 43.871937 
L 359.597333 44.851683 
L 360.12019 46.231363 
L 361.165905 50.175744 
L 362.21162 55.665668 
L 363.257335 62.646284 
L 364.30305 71.047843 
L 365.871622 86.127138 
L 367.440195 103.872897 
L 369.531625 130.985394 
L 372.145912 168.87906 
L 379.465917 278.924288 
L 381.557346 306.013388 
L 383.125919 323.737135 
L 384.694491 338.791137 
L 385.740206 347.174286 
L 386.785921 354.135468 
L 387.831636 359.605129 
L 388.877351 363.528619 
L 389.400209 364.897683 
L 389.923066 365.866735 
L 390.445924 366.43335 
L 390.968781 366.596114 
L 391.491638 366.35462 
L 392.014496 365.709471 
L 392.537353 364.662279 
L 393.060211 363.215662 
L 394.105926 359.139607 
L 395.151641 353.522031 
L 396.197356 346.419064 
L 397.243071 337.901676 
L 398.811643 322.663374 
L 400.380216 304.779441 
L 402.471645 277.520401 
L 405.085933 239.512023 
L 407.177363 207.434864 
L 407.177363 207.434864 
" clip-path="url(#p02c45d33d9)" style="fill: none; stroke-dasharray: 5.55,2.4; stroke-dashoffset: 0; stroke: #000000; stroke-width: 1.5"/>
   </g>
   <g id="patch_3">
    <path d="M 62.394688 382.837187 
L 62.394688 26.877187 
" style="fill: none; stroke: #000000; stroke-width: 0.8; stroke-linejoin: miter; stroke-linecap: square"/>
   </g>
   <g id="patch_4">
    <path d="M 423.814687 382.837187 
L 423.814687 26.877187 
" style="fill: none; stroke: #000000; stroke-width: 0.8; stroke-linejoin: miter; stroke-linecap: square"/>
   </g>
   <g id="patch_5">
    <path d="M 62.394688 382.837187 
L 423.814687 382.837187 
" style="fill: none; stroke: #000000; stroke-width: 0.8; stroke-linejoin: miter; stroke-linecap: square"/>
   </g>
   <g id="patch_6">
    <path d="M 62.394688 26.877187 
L 423.814687 26.877187 
" style="fill: none; stroke: #000000; stroke-width: 0.8; stroke-linejoin: miter; stroke-linecap: square"/>
   </g>
   <g id="text_19">
    <!-- (a) -->
    <g transform="translate(230.566562 20.877187) scale(0.18 -0.18)">
     <defs>
      <path id="DejaVuSans-61" d="M 2194 1759 
Q 1497 1759 1228 1600 
Q 959 1441 959 1056 
Q 959 750 1161 570 
Q 1363 391 1709 391 
Q 2188 391 2477 730 
Q 2766 1069 2766 1631 
L 2766 1759 
L 2194 1759 
z
M 3341 1997 
L 3341 0 
L 2766 0 
L 2766 531 
Q 2569 213 2275 61 
Q 1981 -91 1556 -91 
Q 1019 -91 701 211 
Q 384 513 384 1019 
Q 384 1609 779 1909 
Q 1175 2209 1959 2209 
L 2766 2209 
L 2766 2266 
Q 2766 2663 2505 2880 
Q 2244 3097 1772 3097 
Q 1472 3097 1187 3025 
Q 903 2953 641 2809 
L 641 3341 
Q 956 3463 1253 3523 
Q 1550 3584 1831 3584 
Q 2591 3584 2966 3190 
Q 3341 2797 3341 1997 
z
" transform="scale(0.015625)"/>
     </defs>
     <use xlink:href="#DejaVuSans-28"/>
     <use xlink:href="#DejaVuSans-61" x="39.013672"/>
     <use xlink:href="#DejaVuSans-29" x="100.292969"/>
    </g>
   </g>
   <g id="legend_1">
    <g id="patch_7">
     <path d="M 70.794688 241.884687 
L 168.836562 241.884687 
Q 171.236562 241.884687 171.236562 239.484687 
L 171.236562 170.229687 
Q 171.236562 167.829687 168.836562 167.829687 
L 70.794688 167.829687 
Q 68.394688 167.829687 68.394688 170.229687 
L 68.394688 239.484687 
Q 68.394688 241.884687 70.794688 241.884687 
z
" style="fill: #ffffff; opacity: 0.8; stroke: #cccccc; stroke-linejoin: miter"/>
    </g>
    <g id="line2d_21">
     <path d="M 73.194688 177.547812 
L 85.194688 177.547812 
L 97.194688 177.547812 
" style="fill: none; stroke: #1f77b4; stroke-width: 1.5; stroke-linecap: square"/>
    </g>
    <g id="text_20">
     <!-- h = 0.05 -->
     <g transform="translate(106.794688 181.747812) scale(0.12 -0.12)">
      <defs>
       <path id="DejaVuSans-68" d="M 3513 2113 
L 3513 0 
L 2938 0 
L 2938 2094 
Q 2938 2591 2744 2837 
Q 2550 3084 2163 3084 
Q 1697 3084 1428 2787 
Q 1159 2491 1159 1978 
L 1159 0 
L 581 0 
L 581 4863 
L 1159 4863 
L 1159 2956 
Q 1366 3272 1645 3428 
Q 1925 3584 2291 3584 
Q 2894 3584 3203 3211 
Q 3513 2838 3513 2113 
z
" transform="scale(0.015625)"/>
       <path id="DejaVuSans-20" transform="scale(0.015625)"/>
       <path id="DejaVuSans-3d" d="M 678 2906 
L 4684 2906 
L 4684 2381 
L 678 2381 
L 678 2906 
z
M 678 1631 
L 4684 1631 
L 4684 1100 
L 678 1100 
L 678 1631 
z
" transform="scale(0.015625)"/>
      </defs>
      <use xlink:href="#DejaVuSans-68"/>
      <use xlink:href="#DejaVuSans-20" x="63.378906"/>
      <use xlink:href="#DejaVuSans-3d" x="95.166016"/>
      <use xlink:href="#DejaVuSans-20" x="178.955078"/>
      <use xlink:href="#DejaVuSans-30" x="210.742188"/>
      <use xlink:href="#DejaVuSans-2e" x="274.365234"/>
      <use xlink:href="#DejaVuSans-30" x="306.152344"/>
      <use xlink:href="#DejaVuSans-35" x="369.775391"/>
     </g>
    </g>
    <g id="line2d_22">
     <path d="M 73.194688 195.161562 
L 85.194688 195.161562 
L 97.194688 195.161562 
" style="fill: none; stroke: #ff7f0e; stroke-width: 1.5; stroke-linecap: square"/>
    </g>
    <g id="text_21">
     <!-- h = 0.01 -->
     <g transform="translate(106.794688 199.361562) scale(0.12 -0.12)">
      <use xlink:href="#DejaVuSans-68"/>
      <use xlink:href="#DejaVuSans-20" x="63.378906"/>
      <use xlink:href="#DejaVuSans-3d" x="95.166016"/>
      <use xlink:href="#DejaVuSans-20" x="178.955078"/>
      <use xlink:href="#DejaVuSans-30" x="210.742188"/>
      <use xlink:href="#DejaVuSans-2e" x="274.365234"/>
      <use xlink:href="#DejaVuSans-30" x="306.152344"/>
      <use xlink:href="#DejaVuSans-31" x="369.775391"/>
     </g>
    </g>
    <g id="line2d_23">
     <path d="M 73.194688 212.775312 
L 85.194688 212.775312 
L 97.194688 212.775312 
" style="fill: none; stroke: #2ca02c; stroke-width: 1.5; stroke-linecap: square"/>
    </g>
    <g id="text_22">
     <!-- h = 0.005 -->
     <g transform="translate(106.794688 216.975312) scale(0.12 -0.12)">
      <use xlink:href="#DejaVuSans-68"/>
      <use xlink:href="#DejaVuSans-20" x="63.378906"/>
      <use xlink:href="#DejaVuSans-3d" x="95.166016"/>
      <use xlink:href="#DejaVuSans-20" x="178.955078"/>
      <use xlink:href="#DejaVuSans-30" x="210.742188"/>
      <use xlink:href="#DejaVuSans-2e" x="274.365234"/>
      <use xlink:href="#DejaVuSans-30" x="306.152344"/>
      <use xlink:href="#DejaVuSans-30" x="369.775391"/>
      <use xlink:href="#DejaVuSans-35" x="433.398438"/>
     </g>
    </g>
    <g id="line2d_24">
     <path d="M 73.194688 230.389062 
L 85.194688 230.389062 
L 97.194688 230.389062 
" style="fill: none; stroke-dasharray: 5.55,2.4; stroke-dashoffset: 0; stroke: #000000; stroke-width: 1.5"/>
    </g>
    <g id="text_23">
     <!-- a -->
     <g transform="translate(106.794688 234.589062) scale(0.12 -0.12)">
      <use xlink:href="#DejaVuSans-61"/>
     </g>
    </g>
   </g>
  </g>
  <g id="axes_2">
   <g id="patch_8">
    <path d="M 488.004687 382.837187 
L 849.424687 382.837187 
L 849.424687 26.877187 
L 488.004687 26.877187 
z
" style="fill: #ffffff"/>
   </g>
   <g id="matplotlib.axis_3">
    <g id="xtick_8">
     <g id="line2d_25">
      <g>
       <use xlink:href="#m1bdbadab49" x="504.432869" y="382.837187" style="stroke: #000000; stroke-width: 0.8"/>
      </g>
     </g>
     <g id="text_24">
      <!-- 0 -->
      <g transform="translate(501.251619 397.435625) scale(0.1 -0.1)">
       <use xlink:href="#DejaVuSans-30"/>
      </g>
     </g>
    </g>
    <g id="xtick_9">
     <g id="line2d_26">
      <g>
       <use xlink:href="#m1bdbadab49" x="556.718617" y="382.837187" style="stroke: #000000; stroke-width: 0.8"/>
      </g>
     </g>
     <g id="text_25">
      <!-- 5 -->
      <g transform="translate(553.537367 397.435625) scale(0.1 -0.1)">
       <use xlink:href="#DejaVuSans-35"/>
      </g>
     </g>
    </g>
    <g id="xtick_10">
     <g id="line2d_27">
      <g>
       <use xlink:href="#m1bdbadab49" x="609.004364" y="382.837187" style="stroke: #000000; stroke-width: 0.8"/>
      </g>
     </g>
     <g id="text_26">
      <!-- 10 -->
      <g transform="translate(602.641864 397.435625) scale(0.1 -0.1)">
       <use xlink:href="#DejaVuSans-31"/>
       <use xlink:href="#DejaVuSans-30" x="63.623047"/>
      </g>
     </g>
    </g>
    <g id="xtick_11">
     <g id="line2d_28">
      <g>
       <use xlink:href="#m1bdbadab49" x="661.290111" y="382.837187" style="stroke: #000000; stroke-width: 0.8"/>
      </g>
     </g>
     <g id="text_27">
      <!-- 15 -->
      <g transform="translate(654.927611 397.435625) scale(0.1 -0.1)">
       <use xlink:href="#DejaVuSans-31"/>
       <use xlink:href="#DejaVuSans-35" x="63.623047"/>
      </g>
     </g>
    </g>
    <g id="xtick_12">
     <g id="line2d_29">
      <g>
       <use xlink:href="#m1bdbadab49" x="713.575859" y="382.837187" style="stroke: #000000; stroke-width: 0.8"/>
      </g>
     </g>
     <g id="text_28">
      <!-- 20 -->
      <g transform="translate(707.213359 397.435625) scale(0.1 -0.1)">
       <use xlink:href="#DejaVuSans-32"/>
       <use xlink:href="#DejaVuSans-30" x="63.623047"/>
      </g>
     </g>
    </g>
    <g id="xtick_13">
     <g id="line2d_30">
      <g>
       <use xlink:href="#m1bdbadab49" x="765.861606" y="382.837187" style="stroke: #000000; stroke-width: 0.8"/>
      </g>
     </g>
     <g id="text_29">
      <!-- 25 -->
      <g transform="translate(759.499106 397.435625) scale(0.1 -0.1)">
       <use xlink:href="#DejaVuSans-32"/>
       <use xlink:href="#DejaVuSans-35" x="63.623047"/>
      </g>
     </g>
    </g>
    <g id="xtick_14">
     <g id="line2d_31">
      <g>
       <use xlink:href="#m1bdbadab49" x="818.147353" y="382.837187" style="stroke: #000000; stroke-width: 0.8"/>
      </g>
     </g>
     <g id="text_30">
      <!-- 30 -->
      <g transform="translate(811.784853 397.435625) scale(0.1 -0.1)">
       <use xlink:href="#DejaVuSans-33"/>
       <use xlink:href="#DejaVuSans-30" x="63.623047"/>
      </g>
     </g>
    </g>
    <g id="text_31">
     <!-- t -->
     <g transform="translate(665.970469 414.153125) scale(0.14 -0.14)">
      <use xlink:href="#DejaVuSans-74"/>
     </g>
    </g>
   </g>
   <g id="matplotlib.axis_4">
    <g id="ytick_10">
     <g id="line2d_32">
      <g>
       <use xlink:href="#me82909fad4" x="488.004687" y="366.657187" style="stroke: #000000; stroke-width: 0.8"/>
      </g>
     </g>
     <g id="text_32">
      <!-- 0.000 -->
      <g transform="translate(452.376562 370.456406) scale(0.1 -0.1)">
       <use xlink:href="#DejaVuSans-30"/>
       <use xlink:href="#DejaVuSans-2e" x="63.623047"/>
       <use xlink:href="#DejaVuSans-30" x="95.410156"/>
       <use xlink:href="#DejaVuSans-30" x="159.033203"/>
       <use xlink:href="#DejaVuSans-30" x="222.65625"/>
      </g>
     </g>
    </g>
    <g id="ytick_11">
     <g id="line2d_33">
      <g>
       <use xlink:href="#me82909fad4" x="488.004687" y="317.144672" style="stroke: #000000; stroke-width: 0.8"/>
      </g>
     </g>
     <g id="text_33">
      <!-- 0.002 -->
      <g transform="translate(452.376562 320.943891) scale(0.1 -0.1)">
       <use xlink:href="#DejaVuSans-30"/>
       <use xlink:href="#DejaVuSans-2e" x="63.623047"/>
       <use xlink:href="#DejaVuSans-30" x="95.410156"/>
       <use xlink:href="#DejaVuSans-30" x="159.033203"/>
       <use xlink:href="#DejaVuSans-32" x="222.65625"/>
      </g>
     </g>
    </g>
    <g id="ytick_12">
     <g id="line2d_34">
      <g>
       <use xlink:href="#me82909fad4" x="488.004687" y="267.632157" style="stroke: #000000; stroke-width: 0.8"/>
      </g>
     </g>
     <g id="text_34">
      <!-- 0.004 -->
      <g transform="translate(452.376562 271.431376) scale(0.1 -0.1)">
       <defs>
        <path id="DejaVuSans-34" d="M 2419 4116 
L 825 1625 
L 2419 1625 
L 2419 4116 
z
M 2253 4666 
L 3047 4666 
L 3047 1625 
L 3713 1625 
L 3713 1100 
L 3047 1100 
L 3047 0 
L 2419 0 
L 2419 1100 
L 313 1100 
L 313 1709 
L 2253 4666 
z
" transform="scale(0.015625)"/>
       </defs>
       <use xlink:href="#DejaVuSans-30"/>
       <use xlink:href="#DejaVuSans-2e" x="63.623047"/>
       <use xlink:href="#DejaVuSans-30" x="95.410156"/>
       <use xlink:href="#DejaVuSans-30" x="159.033203"/>
       <use xlink:href="#DejaVuSans-34" x="222.65625"/>
      </g>
     </g>
    </g>
    <g id="ytick_13">
     <g id="line2d_35">
      <g>
       <use xlink:href="#me82909fad4" x="488.004687" y="218.119641" style="stroke: #000000; stroke-width: 0.8"/>
      </g>
     </g>
     <g id="text_35">
      <!-- 0.006 -->
      <g transform="translate(452.376562 221.91886) scale(0.1 -0.1)">
       <defs>
        <path id="DejaVuSans-36" d="M 2113 2584 
Q 1688 2584 1439 2293 
Q 1191 2003 1191 1497 
Q 1191 994 1439 701 
Q 1688 409 2113 409 
Q 2538 409 2786 701 
Q 3034 994 3034 1497 
Q 3034 2003 2786 2293 
Q 2538 2584 2113 2584 
z
M 3366 4563 
L 3366 3988 
Q 3128 4100 2886 4159 
Q 2644 4219 2406 4219 
Q 1781 4219 1451 3797 
Q 1122 3375 1075 2522 
Q 1259 2794 1537 2939 
Q 1816 3084 2150 3084 
Q 2853 3084 3261 2657 
Q 3669 2231 3669 1497 
Q 3669 778 3244 343 
Q 2819 -91 2113 -91 
Q 1303 -91 875 529 
Q 447 1150 447 2328 
Q 447 3434 972 4092 
Q 1497 4750 2381 4750 
Q 2619 4750 2861 4703 
Q 3103 4656 3366 4563 
z
" transform="scale(0.015625)"/>
       </defs>
       <use xlink:href="#DejaVuSans-30"/>
       <use xlink:href="#DejaVuSans-2e" x="63.623047"/>
       <use xlink:href="#DejaVuSans-30" x="95.410156"/>
       <use xlink:href="#DejaVuSans-30" x="159.033203"/>
       <use xlink:href="#DejaVuSans-36" x="222.65625"/>
      </g>
     </g>
    </g>
    <g id="ytick_14">
     <g id="line2d_36">
      <g>
       <use xlink:href="#me82909fad4" x="488.004687" y="168.607126" style="stroke: #000000; stroke-width: 0.8"/>
      </g>
     </g>
     <g id="text_36">
      <!-- 0.008 -->
      <g transform="translate(452.376562 172.406345) scale(0.1 -0.1)">
       <defs>
        <path id="DejaVuSans-38" d="M 2034 2216 
Q 1584 2216 1326 1975 
Q 1069 1734 1069 1313 
Q 1069 891 1326 650 
Q 1584 409 2034 409 
Q 2484 409 2743 651 
Q 3003 894 3003 1313 
Q 3003 1734 2745 1975 
Q 2488 2216 2034 2216 
z
M 1403 2484 
Q 997 2584 770 2862 
Q 544 3141 544 3541 
Q 544 4100 942 4425 
Q 1341 4750 2034 4750 
Q 2731 4750 3128 4425 
Q 3525 4100 3525 3541 
Q 3525 3141 3298 2862 
Q 3072 2584 2669 2484 
Q 3125 2378 3379 2068 
Q 3634 1759 3634 1313 
Q 3634 634 3220 271 
Q 2806 -91 2034 -91 
Q 1263 -91 848 271 
Q 434 634 434 1313 
Q 434 1759 690 2068 
Q 947 2378 1403 2484 
z
M 1172 3481 
Q 1172 3119 1398 2916 
Q 1625 2713 2034 2713 
Q 2441 2713 2670 2916 
Q 2900 3119 2900 3481 
Q 2900 3844 2670 4047 
Q 2441 4250 2034 4250 
Q 1625 4250 1398 4047 
Q 1172 3844 1172 3481 
z
" transform="scale(0.015625)"/>
       </defs>
       <use xlink:href="#DejaVuSans-30"/>
       <use xlink:href="#DejaVuSans-2e" x="63.623047"/>
       <use xlink:href="#DejaVuSans-30" x="95.410156"/>
       <use xlink:href="#DejaVuSans-30" x="159.033203"/>
       <use xlink:href="#DejaVuSans-38" x="222.65625"/>
      </g>
     </g>
    </g>
    <g id="ytick_15">
     <g id="line2d_37">
      <g>
       <use xlink:href="#me82909fad4" x="488.004687" y="119.094611" style="stroke: #000000; stroke-width: 0.8"/>
      </g>
     </g>
     <g id="text_37">
      <!-- 0.010 -->
      <g transform="translate(452.376562 122.893829) scale(0.1 -0.1)">
       <use xlink:href="#DejaVuSans-30"/>
       <use xlink:href="#DejaVuSans-2e" x="63.623047"/>
       <use xlink:href="#DejaVuSans-30" x="95.410156"/>
       <use xlink:href="#DejaVuSans-31" x="159.033203"/>
       <use xlink:href="#DejaVuSans-30" x="222.65625"/>
      </g>
     </g>
    </g>
    <g id="ytick_16">
     <g id="line2d_38">
      <g>
       <use xlink:href="#me82909fad4" x="488.004687" y="69.582095" style="stroke: #000000; stroke-width: 0.8"/>
      </g>
     </g>
     <g id="text_38">
      <!-- 0.012 -->
      <g transform="translate(452.376562 73.381314) scale(0.1 -0.1)">
       <use xlink:href="#DejaVuSans-30"/>
       <use xlink:href="#DejaVuSans-2e" x="63.623047"/>
       <use xlink:href="#DejaVuSans-30" x="95.410156"/>
       <use xlink:href="#DejaVuSans-31" x="159.033203"/>
       <use xlink:href="#DejaVuSans-32" x="222.65625"/>
      </g>
     </g>
    </g>
    <g id="text_39">
     <!-- Difference between Numerical and Exact Solution -->
     <g transform="translate(445.465 379.280781) rotate(-90) scale(0.14 -0.14)">
      <defs>
       <path id="DejaVuSans-44" d="M 1259 4147 
L 1259 519 
L 2022 519 
Q 2988 519 3436 956 
Q 3884 1394 3884 2338 
Q 3884 3275 3436 3711 
Q 2988 4147 2022 4147 
L 1259 4147 
z
M 628 4666 
L 1925 4666 
Q 3281 4666 3915 4102 
Q 4550 3538 4550 2338 
Q 4550 1131 3912 565 
Q 3275 0 1925 0 
L 628 0 
L 628 4666 
z
" transform="scale(0.015625)"/>
       <path id="DejaVuSans-69" d="M 603 3500 
L 1178 3500 
L 1178 0 
L 603 0 
L 603 3500 
z
M 603 4863 
L 1178 4863 
L 1178 4134 
L 603 4134 
L 603 4863 
z
" transform="scale(0.015625)"/>
       <path id="DejaVuSans-66" d="M 2375 4863 
L 2375 4384 
L 1825 4384 
Q 1516 4384 1395 4259 
Q 1275 4134 1275 3809 
L 1275 3500 
L 2222 3500 
L 2222 3053 
L 1275 3053 
L 1275 0 
L 697 0 
L 697 3053 
L 147 3053 
L 147 3500 
L 697 3500 
L 697 3744 
Q 697 4328 969 4595 
Q 1241 4863 1831 4863 
L 2375 4863 
z
" transform="scale(0.015625)"/>
       <path id="DejaVuSans-65" d="M 3597 1894 
L 3597 1613 
L 953 1613 
Q 991 1019 1311 708 
Q 1631 397 2203 397 
Q 2534 397 2845 478 
Q 3156 559 3463 722 
L 3463 178 
Q 3153 47 2828 -22 
Q 2503 -91 2169 -91 
Q 1331 -91 842 396 
Q 353 884 353 1716 
Q 353 2575 817 3079 
Q 1281 3584 2069 3584 
Q 2775 3584 3186 3129 
Q 3597 2675 3597 1894 
z
M 3022 2063 
Q 3016 2534 2758 2815 
Q 2500 3097 2075 3097 
Q 1594 3097 1305 2825 
Q 1016 2553 972 2059 
L 3022 2063 
z
" transform="scale(0.015625)"/>
       <path id="DejaVuSans-72" d="M 2631 2963 
Q 2534 3019 2420 3045 
Q 2306 3072 2169 3072 
Q 1681 3072 1420 2755 
Q 1159 2438 1159 1844 
L 1159 0 
L 581 0 
L 581 3500 
L 1159 3500 
L 1159 2956 
Q 1341 3275 1631 3429 
Q 1922 3584 2338 3584 
Q 2397 3584 2469 3576 
Q 2541 3569 2628 3553 
L 2631 2963 
z
" transform="scale(0.015625)"/>
       <path id="DejaVuSans-6e" d="M 3513 2113 
L 3513 0 
L 2938 0 
L 2938 2094 
Q 2938 2591 2744 2837 
Q 2550 3084 2163 3084 
Q 1697 3084 1428 2787 
Q 1159 2491 1159 1978 
L 1159 0 
L 581 0 
L 581 3500 
L 1159 3500 
L 1159 2956 
Q 1366 3272 1645 3428 
Q 1925 3584 2291 3584 
Q 2894 3584 3203 3211 
Q 3513 2838 3513 2113 
z
" transform="scale(0.015625)"/>
       <path id="DejaVuSans-63" d="M 3122 3366 
L 3122 2828 
Q 2878 2963 2633 3030 
Q 2388 3097 2138 3097 
Q 1578 3097 1268 2742 
Q 959 2388 959 1747 
Q 959 1106 1268 751 
Q 1578 397 2138 397 
Q 2388 397 2633 464 
Q 2878 531 3122 666 
L 3122 134 
Q 2881 22 2623 -34 
Q 2366 -91 2075 -91 
Q 1284 -91 818 406 
Q 353 903 353 1747 
Q 353 2603 823 3093 
Q 1294 3584 2113 3584 
Q 2378 3584 2631 3529 
Q 2884 3475 3122 3366 
z
" transform="scale(0.015625)"/>
       <path id="DejaVuSans-62" d="M 3116 1747 
Q 3116 2381 2855 2742 
Q 2594 3103 2138 3103 
Q 1681 3103 1420 2742 
Q 1159 2381 1159 1747 
Q 1159 1113 1420 752 
Q 1681 391 2138 391 
Q 2594 391 2855 752 
Q 3116 1113 3116 1747 
z
M 1159 2969 
Q 1341 3281 1617 3432 
Q 1894 3584 2278 3584 
Q 2916 3584 3314 3078 
Q 3713 2572 3713 1747 
Q 3713 922 3314 415 
Q 2916 -91 2278 -91 
Q 1894 -91 1617 61 
Q 1341 213 1159 525 
L 1159 0 
L 581 0 
L 581 4863 
L 1159 4863 
L 1159 2969 
z
" transform="scale(0.015625)"/>
       <path id="DejaVuSans-77" d="M 269 3500 
L 844 3500 
L 1563 769 
L 2278 3500 
L 2956 3500 
L 3675 769 
L 4391 3500 
L 4966 3500 
L 4050 0 
L 3372 0 
L 2619 2869 
L 1863 0 
L 1184 0 
L 269 3500 
z
" transform="scale(0.015625)"/>
       <path id="DejaVuSans-4e" d="M 628 4666 
L 1478 4666 
L 3547 763 
L 3547 4666 
L 4159 4666 
L 4159 0 
L 3309 0 
L 1241 3903 
L 1241 0 
L 628 0 
L 628 4666 
z
" transform="scale(0.015625)"/>
       <path id="DejaVuSans-75" d="M 544 1381 
L 544 3500 
L 1119 3500 
L 1119 1403 
Q 1119 906 1312 657 
Q 1506 409 1894 409 
Q 2359 409 2629 706 
Q 2900 1003 2900 1516 
L 2900 3500 
L 3475 3500 
L 3475 0 
L 2900 0 
L 2900 538 
Q 2691 219 2414 64 
Q 2138 -91 1772 -91 
Q 1169 -91 856 284 
Q 544 659 544 1381 
z
M 1991 3584 
L 1991 3584 
z
" transform="scale(0.015625)"/>
       <path id="DejaVuSans-6d" d="M 3328 2828 
Q 3544 3216 3844 3400 
Q 4144 3584 4550 3584 
Q 5097 3584 5394 3201 
Q 5691 2819 5691 2113 
L 5691 0 
L 5113 0 
L 5113 2094 
Q 5113 2597 4934 2840 
Q 4756 3084 4391 3084 
Q 3944 3084 3684 2787 
Q 3425 2491 3425 1978 
L 3425 0 
L 2847 0 
L 2847 2094 
Q 2847 2600 2669 2842 
Q 2491 3084 2119 3084 
Q 1678 3084 1418 2786 
Q 1159 2488 1159 1978 
L 1159 0 
L 581 0 
L 581 3500 
L 1159 3500 
L 1159 2956 
Q 1356 3278 1631 3431 
Q 1906 3584 2284 3584 
Q 2666 3584 2933 3390 
Q 3200 3197 3328 2828 
z
" transform="scale(0.015625)"/>
       <path id="DejaVuSans-6c" d="M 603 4863 
L 1178 4863 
L 1178 0 
L 603 0 
L 603 4863 
z
" transform="scale(0.015625)"/>
       <path id="DejaVuSans-64" d="M 2906 2969 
L 2906 4863 
L 3481 4863 
L 3481 0 
L 2906 0 
L 2906 525 
Q 2725 213 2448 61 
Q 2172 -91 1784 -91 
Q 1150 -91 751 415 
Q 353 922 353 1747 
Q 353 2572 751 3078 
Q 1150 3584 1784 3584 
Q 2172 3584 2448 3432 
Q 2725 3281 2906 2969 
z
M 947 1747 
Q 947 1113 1208 752 
Q 1469 391 1925 391 
Q 2381 391 2643 752 
Q 2906 1113 2906 1747 
Q 2906 2381 2643 2742 
Q 2381 3103 1925 3103 
Q 1469 3103 1208 2742 
Q 947 2381 947 1747 
z
" transform="scale(0.015625)"/>
       <path id="DejaVuSans-45" d="M 628 4666 
L 3578 4666 
L 3578 4134 
L 1259 4134 
L 1259 2753 
L 3481 2753 
L 3481 2222 
L 1259 2222 
L 1259 531 
L 3634 531 
L 3634 0 
L 628 0 
L 628 4666 
z
" transform="scale(0.015625)"/>
       <path id="DejaVuSans-53" d="M 3425 4513 
L 3425 3897 
Q 3066 4069 2747 4153 
Q 2428 4238 2131 4238 
Q 1616 4238 1336 4038 
Q 1056 3838 1056 3469 
Q 1056 3159 1242 3001 
Q 1428 2844 1947 2747 
L 2328 2669 
Q 3034 2534 3370 2195 
Q 3706 1856 3706 1288 
Q 3706 609 3251 259 
Q 2797 -91 1919 -91 
Q 1588 -91 1214 -16 
Q 841 59 441 206 
L 441 856 
Q 825 641 1194 531 
Q 1563 422 1919 422 
Q 2459 422 2753 634 
Q 3047 847 3047 1241 
Q 3047 1584 2836 1778 
Q 2625 1972 2144 2069 
L 1759 2144 
Q 1053 2284 737 2584 
Q 422 2884 422 3419 
Q 422 4038 858 4394 
Q 1294 4750 2059 4750 
Q 2388 4750 2728 4690 
Q 3069 4631 3425 4513 
z
" transform="scale(0.015625)"/>
       <path id="DejaVuSans-6f" d="M 1959 3097 
Q 1497 3097 1228 2736 
Q 959 2375 959 1747 
Q 959 1119 1226 758 
Q 1494 397 1959 397 
Q 2419 397 2687 759 
Q 2956 1122 2956 1747 
Q 2956 2369 2687 2733 
Q 2419 3097 1959 3097 
z
M 1959 3584 
Q 2709 3584 3137 3096 
Q 3566 2609 3566 1747 
Q 3566 888 3137 398 
Q 2709 -91 1959 -91 
Q 1206 -91 779 398 
Q 353 888 353 1747 
Q 353 2609 779 3096 
Q 1206 3584 1959 3584 
z
" transform="scale(0.015625)"/>
      </defs>
      <use xlink:href="#DejaVuSans-44"/>
      <use xlink:href="#DejaVuSans-69" x="77.001953"/>
      <use xlink:href="#DejaVuSans-66" x="104.785156"/>
      <use xlink:href="#DejaVuSans-66" x="139.990234"/>
      <use xlink:href="#DejaVuSans-65" x="175.195312"/>
      <use xlink:href="#DejaVuSans-72" x="236.71875"/>
      <use xlink:href="#DejaVuSans-65" x="275.582031"/>
      <use xlink:href="#DejaVuSans-6e" x="337.105469"/>
      <use xlink:href="#DejaVuSans-63" x="400.484375"/>
      <use xlink:href="#DejaVuSans-65" x="455.464844"/>
      <use xlink:href="#DejaVuSans-20" x="516.988281"/>
      <use xlink:href="#DejaVuSans-62" x="548.775391"/>
      <use xlink:href="#DejaVuSans-65" x="612.251953"/>
      <use xlink:href="#DejaVuSans-74" x="673.775391"/>
      <use xlink:href="#DejaVuSans-77" x="712.984375"/>
      <use xlink:href="#DejaVuSans-65" x="794.771484"/>
      <use xlink:href="#DejaVuSans-65" x="856.294922"/>
      <use xlink:href="#DejaVuSans-6e" x="917.818359"/>
      <use xlink:href="#DejaVuSans-20" x="981.197266"/>
      <use xlink:href="#DejaVuSans-4e" x="1012.984375"/>
      <use xlink:href="#DejaVuSans-75" x="1087.789062"/>
      <use xlink:href="#DejaVuSans-6d" x="1151.167969"/>
      <use xlink:href="#DejaVuSans-65" x="1248.580078"/>
      <use xlink:href="#DejaVuSans-72" x="1310.103516"/>
      <use xlink:href="#DejaVuSans-69" x="1351.216797"/>
      <use xlink:href="#DejaVuSans-63" x="1379"/>
      <use xlink:href="#DejaVuSans-61" x="1433.980469"/>
      <use xlink:href="#DejaVuSans-6c" x="1495.259766"/>
      <use xlink:href="#DejaVuSans-20" x="1523.042969"/>
      <use xlink:href="#DejaVuSans-61" x="1554.830078"/>
      <use xlink:href="#DejaVuSans-6e" x="1616.109375"/>
      <use xlink:href="#DejaVuSans-64" x="1679.488281"/>
      <use xlink:href="#DejaVuSans-20" x="1742.964844"/>
      <use xlink:href="#DejaVuSans-45" x="1774.751953"/>
      <use xlink:href="#DejaVuSans-78" x="1837.935547"/>
      <use xlink:href="#DejaVuSans-61" x="1897.115234"/>
      <use xlink:href="#DejaVuSans-63" x="1958.394531"/>
      <use xlink:href="#DejaVuSans-74" x="2013.375"/>
      <use xlink:href="#DejaVuSans-20" x="2052.583984"/>
      <use xlink:href="#DejaVuSans-53" x="2084.371094"/>
      <use xlink:href="#DejaVuSans-6f" x="2147.847656"/>
      <use xlink:href="#DejaVuSans-6c" x="2209.029297"/>
      <use xlink:href="#DejaVuSans-75" x="2236.8125"/>
      <use xlink:href="#DejaVuSans-74" x="2300.191406"/>
      <use xlink:href="#DejaVuSans-69" x="2339.400391"/>
      <use xlink:href="#DejaVuSans-6f" x="2367.183594"/>
      <use xlink:href="#DejaVuSans-6e" x="2428.365234"/>
     </g>
    </g>
   </g>
   <g id="line2d_39">
    <path d="M 504.432869 366.657187 
L 507.570014 363.668837 
L 509.138587 362.405077 
L 510.707159 361.422307 
L 511.752874 360.964913 
L 512.798589 360.691144 
L 513.844304 360.619319 
L 514.890019 360.764316 
L 515.935734 361.137285 
L 516.981449 361.745402 
L 518.027164 362.591698 
L 519.072879 363.674931 
L 520.641451 365.730664 
L 521.164308 366.525593 
L 521.687166 365.941962 
L 523.255738 363.11303 
L 525.347168 358.773835 
L 527.961456 352.75709 
L 532.144315 343.052963 
L 534.235745 338.831915 
L 535.804318 336.204162 
L 536.850033 334.77946 
L 537.895748 333.657255 
L 538.941463 332.869351 
L 539.987178 332.444168 
L 541.032892 332.406249 
L 542.078607 332.775815 
L 543.124322 333.568361 
L 544.170037 334.794312 
L 545.215752 336.458736 
L 546.261467 338.561118 
L 547.307182 341.095204 
L 548.875755 345.677765 
L 550.444327 351.137813 
L 552.012899 357.3812 
L 554.104329 366.603814 
L 556.718617 353.840274 
L 561.947191 327.934218 
L 564.038621 318.78768 
L 565.607194 312.842784 
L 567.175766 307.897672 
L 568.221481 305.243737 
L 569.267196 303.158836 
L 570.312911 301.684112 
L 570.835768 301.186837 
L 571.358626 300.854852 
L 571.881483 300.69156 
L 572.404341 300.699934 
L 572.927198 300.8825 
L 573.450056 301.241327 
L 573.972913 301.778011 
L 575.018628 303.388933 
L 576.064343 305.718285 
L 577.110058 308.761047 
L 578.155773 312.504025 
L 579.201488 316.92581 
L 580.77006 324.764375 
L 582.338633 333.928525 
L 584.430063 347.907408 
L 586.521493 363.430557 
L 587.04435 365.829873 
L 594.364355 308.811884 
L 596.455785 294.97118 
L 598.024357 286.102626 
L 599.592929 278.81791 
L 600.638644 274.954668 
L 601.684359 271.955029 
L 602.730074 269.869119 
L 603.252932 269.182088 
L 603.775789 268.738263 
L 604.298647 268.541332 
L 604.821504 268.594361 
L 605.344362 268.899779 
L 605.867219 269.459366 
L 606.390077 270.274243 
L 606.912934 271.34486 
L 607.958649 274.251736 
L 609.004364 278.16999 
L 610.050079 283.078633 
L 611.095794 288.945718 
L 612.664366 299.446996 
L 614.232939 311.817722 
L 615.801511 325.819449 
L 617.892941 346.528705 
L 619.461513 363.163438 
L 619.984371 364.467008 
L 626.258661 296.895143 
L 628.350091 277.333875 
L 629.918663 264.588198 
L 631.487235 253.87399 
L 632.53295 248.010143 
L 633.578665 243.261366 
L 634.62438 239.694796 
L 635.147238 238.37275 
L 635.670095 237.366267 
L 636.192953 236.680435 
L 636.71581 236.319548 
L 637.238668 236.287085 
L 637.761525 236.5857 
L 638.284383 237.217206 
L 638.80724 238.182562 
L 639.330097 239.481871 
L 640.375812 243.078408 
L 641.421527 247.990226 
L 642.467242 254.186786 
L 643.512957 261.623722 
L 645.08153 274.974509 
L 646.650102 290.732364 
L 648.218675 308.585046 
L 650.310104 335.003992 
L 652.401534 363.485314 
L 652.924392 362.515367 
L 658.152967 290.208742 
L 660.244396 264.336253 
L 661.812969 247.150546 
L 663.381541 232.354504 
L 664.427256 224.012396 
L 665.472971 217.007952 
L 666.518686 211.430223 
L 667.564401 207.354688 
L 668.087259 205.899884 
L 668.610116 204.842306 
L 669.132973 204.187174 
L 669.655831 203.938703 
L 670.178688 204.100093 
L 670.701546 204.67351 
L 671.224403 205.660077 
L 671.747261 207.059862 
L 672.270118 208.871876 
L 673.315833 213.723304 
L 674.361548 220.185163 
L 675.407263 228.211338 
L 676.452978 237.739078 
L 678.021551 254.669172 
L 679.590123 274.465311 
L 681.681553 304.61168 
L 684.29584 346.704457 
L 685.341555 364.396341 
L 685.864413 359.975193 
L 690.57013 280.654112 
L 692.66156 248.821007 
L 694.230132 227.54466 
L 695.798705 209.084123 
L 697.367277 193.909006 
L 698.412992 185.818903 
L 699.458707 179.469034 
L 700.504422 174.942651 
L 701.027279 173.384453 
L 701.550137 172.305254 
L 702.072994 171.710326 
L 702.595852 171.603736 
L 703.118709 171.988328 
L 703.641567 172.865708 
L 704.164424 174.236235 
L 704.687282 176.099014 
L 705.732997 181.291454 
L 706.778712 188.4107 
L 707.824427 197.404425 
L 708.870141 208.200639 
L 710.438714 227.570263 
L 712.007286 250.402106 
L 713.575859 276.226738 
L 715.667289 314.363157 
L 718.281576 365.896581 
L 719.327291 346.248873 
L 723.510151 263.705586 
L 725.601581 226.673798 
L 727.170153 202.071062 
L 728.738725 180.859569 
L 729.78444 168.868478 
L 730.830155 158.760359 
L 731.87587 150.655029 
L 732.921585 144.653035 
L 733.444443 142.466643 
L 733.9673 140.834459 
L 734.490158 139.76313 
L 735.013015 139.257913 
L 735.535873 139.322649 
L 736.05873 139.959752 
L 736.581588 141.170196 
L 737.104445 142.953503 
L 737.627303 145.307743 
L 738.673017 151.714009 
L 739.718732 160.344476 
L 740.764447 171.131635 
L 741.810162 183.985478 
L 743.378735 206.891005 
L 744.947307 233.726227 
L 747.038737 274.639319 
L 749.653024 331.803532 
L 751.221597 365.32838 
L 755.927314 257.49833 
L 758.018744 214.14259 
L 759.587316 185.098181 
L 761.155889 159.812405 
L 762.724461 138.90684 
L 763.770176 127.668783 
L 764.815891 118.746037 
L 765.861606 112.247383 
L 766.384464 109.934635 
L 766.907321 108.257906 
L 767.430179 107.223957 
L 767.953036 106.837952 
L 768.475893 107.103434 
L 768.998751 108.022314 
L 769.521608 109.594859 
L 770.044466 111.819683 
L 770.567323 114.693745 
L 771.613038 122.36916 
L 772.658753 132.563838 
L 773.704468 145.194561 
L 774.750183 160.152795 
L 776.318756 186.657047 
L 777.887328 217.548436 
L 779.978758 264.421737 
L 782.593045 329.583574 
L 783.63876 356.883462 
L 784.161618 362.649927 
L 788.867335 240.919316 
L 790.958765 192.303636 
L 792.527337 159.878552 
L 794.09591 131.781737 
L 795.141625 115.797685 
L 796.18734 102.221286 
L 797.233054 91.206747 
L 798.278769 82.883479 
L 798.801627 79.764361 
L 799.324484 77.35461 
L 799.847342 75.662809 
L 800.370199 74.69576 
L 800.893057 74.458459 
L 801.415914 74.954079 
L 801.938772 76.183952 
L 802.461629 78.147566 
L 802.984487 80.842553 
L 804.030202 88.407912 
L 805.075917 98.824126 
L 806.121632 112.006101 
L 807.167346 127.840211 
L 808.735919 156.248008 
L 810.304491 189.713166 
L 811.873064 227.528582 
L 813.964494 283.297423 
L 816.578781 358.519895 
L 817.101638 359.382666 
L 821.284498 238.143291 
L 823.375928 182.874909 
L 824.944501 145.680041 
L 826.513073 113.118914 
L 828.081645 85.975135 
L 829.12736 71.224138 
L 830.173075 59.346558 
L 831.21879 50.480498 
L 831.741648 47.211915 
L 832.264505 44.73456 
L 832.787363 43.057187 
L 832.787363 43.057187 
" clip-path="url(#p8d2b9fbebe)" style="fill: none; stroke: #1f77b4; stroke-width: 1.5; stroke-linecap: square"/>
   </g>
   <g id="line2d_40">
    <path d="M 504.432869 366.657187 
L 513.112303 366.424182 
L 518.340878 366.522333 
L 522.105452 366.579449 
L 529.111742 365.971181 
L 536.327175 365.404917 
L 540.614606 365.298036 
L 544.37918 365.42269 
L 548.143754 365.770681 
L 552.222042 366.375685 
L 554.104329 366.598105 
L 566.548337 364.355446 
L 569.894625 364.0755 
L 572.927198 364.045028 
L 575.8552 364.239183 
L 578.783202 364.654472 
L 581.920347 365.323419 
L 585.684921 366.364519 
L 586.835207 366.596769 
L 596.14207 363.803472 
L 599.174644 363.174957 
L 601.893502 362.8359 
L 604.403218 362.744865 
L 606.808363 362.873618 
L 609.318079 363.236486 
L 611.932366 363.850845 
L 614.755796 364.752098 
L 618.206656 366.106488 
L 619.566085 366.625309 
L 627.513519 363.286905 
L 630.336949 362.380477 
L 632.846665 361.807476 
L 635.147238 361.513666 
L 637.343239 361.461584 
L 639.434669 361.628752 
L 641.63067 362.031553 
L 643.931243 362.691333 
L 646.336388 363.614334 
L 649.159818 364.944824 
L 652.506106 366.566919 
L 659.303253 362.884352 
L 662.022112 361.689695 
L 664.322685 360.910579 
L 666.414115 360.427527 
L 668.400973 360.191596 
L 670.28326 360.181649 
L 672.165547 360.38478 
L 674.152405 360.828137 
L 676.243835 361.536897 
L 678.439837 362.523374 
L 680.949552 363.905782 
L 684.086697 365.906388 
L 685.236984 366.629477 
L 691.615845 362.402698 
L 694.230132 360.962914 
L 696.426134 359.997925 
L 698.412992 359.361013 
L 700.295279 358.991256 
L 702.072994 358.866214 
L 703.85071 358.966816 
L 705.628425 359.294158 
L 707.406141 359.842656 
L 709.288427 360.650786 
L 711.379857 361.795987 
L 713.785002 363.382085 
L 716.817575 365.673279 
L 718.072433 366.637649 
L 724.033008 361.964515 
L 726.542724 360.295715 
L 728.634154 359.154992 
L 730.516441 358.367977 
L 732.294156 357.861198 
L 733.9673 357.611163 
L 735.640444 357.591196 
L 737.313588 357.80517 
L 738.986732 358.250918 
L 740.764447 358.96917 
L 742.646734 359.98542 
L 744.738164 361.387854 
L 747.143309 363.290327 
L 750.280453 366.082789 
L 750.907882 366.64988 
L 756.659315 361.448985 
L 759.064459 359.58599 
L 761.155889 358.240438 
L 762.933604 357.344216 
L 764.606748 356.736712 
L 766.175321 356.392161 
L 767.743893 356.276112 
L 769.312465 356.393943 
L 770.881038 356.745761 
L 772.44961 357.32634 
L 774.122754 358.185841 
L 775.90047 359.349581 
L 777.887328 360.918409 
L 780.292472 363.121722 
L 783.534189 366.427978 
L 783.743332 366.648205 
L 784.684475 365.672298 
L 789.181049 361.08254 
L 791.586194 358.940852 
L 793.573052 357.44959 
L 795.350768 356.379892 
L 797.023912 355.633622 
L 798.592484 355.183748 
L 800.056485 354.99365 
L 801.520486 355.031601 
L 802.984487 355.299109 
L 804.448488 355.793151 
L 806.01706 356.565209 
L 807.690204 357.648887 
L 809.467919 359.066925 
L 811.559349 361.035635 
L 814.069065 363.724847 
L 816.683353 366.563325 
L 821.911927 360.567961 
L 824.317072 358.168782 
L 826.30393 356.494697 
L 828.081645 355.290151 
L 829.650218 354.489451 
L 831.114219 353.98305 
L 832.473648 353.732078 
L 832.996506 353.693225 
L 832.996506 353.693225 
" clip-path="url(#p8d2b9fbebe)" style="fill: none; stroke: #ff7f0e; stroke-width: 1.5; stroke-linecap: square"/>
   </g>
   <g id="line2d_41">
    <path d="M 504.432869 366.657187 
L 518.654593 366.627321 
L 524.772025 366.584551 
L 542.078607 366.323569 
L 549.607755 366.485248 
L 555.359187 366.580196 
L 568.953482 366.025091 
L 575.018628 366.034248 
L 580.979203 366.270461 
L 587.880922 366.55678 
L 598.808643 365.801014 
L 604.089504 365.679217 
L 609.004364 365.78959 
L 614.180653 366.134093 
L 620.350371 366.559317 
L 630.023234 365.607634 
L 634.781237 365.378504 
L 639.120954 365.391893 
L 643.460672 365.630616 
L 648.323246 366.129548 
L 652.872106 366.577993 
L 661.865255 365.427225 
L 666.257257 365.105427 
L 670.178688 365.037859 
L 674.047834 365.19562 
L 678.126122 365.589908 
L 683.040982 366.302897 
L 685.498412 366.599104 
L 693.968703 365.261843 
L 698.099278 364.851941 
L 701.75928 364.711 
L 705.262425 364.797456 
L 708.870141 365.110571 
L 712.896144 365.691137 
L 718.543005 366.549647 
L 726.176724 365.117428 
L 730.098155 364.620008 
L 733.549014 364.405279 
L 736.843016 364.425103 
L 740.137018 364.669174 
L 743.640163 365.154049 
L 747.823023 365.969175 
L 751.169311 366.585754 
L 758.593887 364.967883 
L 762.306175 364.396767 
L 765.547892 364.117099 
L 768.632751 364.072584 
L 771.71761 364.253636 
L 774.90704 364.666506 
L 778.462471 365.355971 
L 783.168188 366.513641 
L 783.900189 366.608209 
L 791.115622 364.818664 
L 794.671053 364.176974 
L 797.808198 363.834959 
L 800.7362 363.739145 
L 803.611916 363.867168 
L 806.592203 364.226157 
L 809.83392 364.848905 
L 813.703065 365.832251 
L 816.787924 366.591928 
L 823.637357 364.686675 
L 827.088216 363.968433 
L 830.068504 363.569814 
L 832.839648 363.418074 
L 832.94422 363.416732 
L 832.94422 363.416732 
" clip-path="url(#p8d2b9fbebe)" style="fill: none; stroke: #2ca02c; stroke-width: 1.5; stroke-linecap: square"/>
   </g>
   <g id="patch_9">
    <path d="M 488.004687 382.837187 
L 488.004687 26.877187 
" style="fill: none; stroke: #000000; stroke-width: 0.8; stroke-linejoin: miter; stroke-linecap: square"/>
   </g>
   <g id="patch_10">
    <path d="M 849.424687 382.837187 
L 849.424687 26.877187 
" style="fill: none; stroke: #000000; stroke-width: 0.8; stroke-linejoin: miter; stroke-linecap: square"/>
   </g>
   <g id="patch_11">
    <path d="M 488.004687 382.837187 
L 849.424687 382.837187 
" style="fill: none; stroke: #000000; stroke-width: 0.8; stroke-linejoin: miter; stroke-linecap: square"/>
   </g>
   <g id="patch_12">
    <path d="M 488.004687 26.877187 
L 849.424687 26.877187 
" style="fill: none; stroke: #000000; stroke-width: 0.8; stroke-linejoin: miter; stroke-linecap: square"/>
   </g>
   <g id="text_40">
    <!-- (b) -->
    <g transform="translate(655.978281 20.877187) scale(0.18 -0.18)">
     <use xlink:href="#DejaVuSans-28"/>
     <use xlink:href="#DejaVuSans-62" x="39.013672"/>
     <use xlink:href="#DejaVuSans-29" x="102.490234"/>
    </g>
   </g>
   <g id="legend_2">
    <g id="patch_13">
     <path d="M 496.404687 89.318437 
L 594.446562 89.318437 
Q 596.846562 89.318437 596.846562 86.918437 
L 596.846562 35.277187 
Q 596.846562 32.877187 594.446562 32.877187 
L 496.404687 32.877187 
Q 494.004687 32.877187 494.004687 35.277187 
L 494.004687 86.918437 
Q 494.004687 89.318437 496.404687 89.318437 
z
" style="fill: #ffffff; opacity: 0.8; stroke: #cccccc; stroke-linejoin: miter"/>
    </g>
    <g id="line2d_42">
     <path d="M 498.804687 42.595312 
L 510.804687 42.595312 
L 522.804687 42.595312 
" style="fill: none; stroke: #1f77b4; stroke-width: 1.5; stroke-linecap: square"/>
    </g>
    <g id="text_41">
     <!-- h = 0.05 -->
     <g transform="translate(532.404687 46.795312) scale(0.12 -0.12)">
      <use xlink:href="#DejaVuSans-68"/>
      <use xlink:href="#DejaVuSans-20" x="63.378906"/>
      <use xlink:href="#DejaVuSans-3d" x="95.166016"/>
      <use xlink:href="#DejaVuSans-20" x="178.955078"/>
      <use xlink:href="#DejaVuSans-30" x="210.742188"/>
      <use xlink:href="#DejaVuSans-2e" x="274.365234"/>
      <use xlink:href="#DejaVuSans-30" x="306.152344"/>
      <use xlink:href="#DejaVuSans-35" x="369.775391"/>
     </g>
    </g>
    <g id="line2d_43">
     <path d="M 498.804687 60.209062 
L 510.804687 60.209062 
L 522.804687 60.209062 
" style="fill: none; stroke: #ff7f0e; stroke-width: 1.5; stroke-linecap: square"/>
    </g>
    <g id="text_42">
     <!-- h = 0.01 -->
     <g transform="translate(532.404687 64.409062) scale(0.12 -0.12)">
      <use xlink:href="#DejaVuSans-68"/>
      <use xlink:href="#DejaVuSans-20" x="63.378906"/>
      <use xlink:href="#DejaVuSans-3d" x="95.166016"/>
      <use xlink:href="#DejaVuSans-20" x="178.955078"/>
      <use xlink:href="#DejaVuSans-30" x="210.742188"/>
      <use xlink:href="#DejaVuSans-2e" x="274.365234"/>
      <use xlink:href="#DejaVuSans-30" x="306.152344"/>
      <use xlink:href="#DejaVuSans-31" x="369.775391"/>
     </g>
    </g>
    <g id="line2d_44">
     <path d="M 498.804687 77.822812 
L 510.804687 77.822812 
L 522.804687 77.822812 
" style="fill: none; stroke: #2ca02c; stroke-width: 1.5; stroke-linecap: square"/>
    </g>
    <g id="text_43">
     <!-- h = 0.005 -->
     <g transform="translate(532.404687 82.022812) scale(0.12 -0.12)">
      <use xlink:href="#DejaVuSans-68"/>
      <use xlink:href="#DejaVuSans-20" x="63.378906"/>
      <use xlink:href="#DejaVuSans-3d" x="95.166016"/>
      <use xlink:href="#DejaVuSans-20" x="178.955078"/>
      <use xlink:href="#DejaVuSans-30" x="210.742188"/>
      <use xlink:href="#DejaVuSans-2e" x="274.365234"/>
      <use xlink:href="#DejaVuSans-30" x="306.152344"/>
      <use xlink:href="#DejaVuSans-30" x="369.775391"/>
      <use xlink:href="#DejaVuSans-35" x="433.398438"/>
     </g>
    </g>
   </g>
  </g>
 </g>
 <defs>
  <clipPath id="p02c45d33d9">
   <rect x="62.394688" y="26.877187" width="361.42" height="355.96"/>
  </clipPath>
  <clipPath id="p8d2b9fbebe">
   <rect x="488.004687" y="26.877187" width="361.42" height="355.96"/>
  </clipPath>
 </defs>
</svg>
