<?xml version="1.0" encoding="utf-8" standalone="no"?>
<!DOCTYPE svg PUBLIC "-//W3C//DTD SVG 1.1//EN"
  "http://www.w3.org/Graphics/SVG/1.1/DTD/svg11.dtd">
<svg xmlns:xlink="http://www.w3.org/1999/xlink" width="856.624687pt" height="424.264687pt" viewBox="0 0 856.624687 424.264687" xmlns="http://www.w3.org/2000/svg" version="1.1">
 <metadata>
  <rdf:RDF xmlns:dc="http://purl.org/dc/elements/1.1/" xmlns:cc="http://creativecommons.org/ns#" xmlns:rdf="http://www.w3.org/1999/02/22-rdf-syntax-ns#">
   <cc:Work>
    <dc:type rdf:resource="http://purl.org/dc/dcmitype/StillImage"/>
    <dc:date>2024-09-29T20:50:22.951829</dc:date>
    <dc:format>image/svg+xml</dc:format>
    <dc:creator>
     <cc:Agent>
      <dc:title>Matplotlib v3.8.4, https://matplotlib.org/</dc:title>
     </cc:Agent>
    </dc:creator>
   </cc:Work>
  </rdf:RDF>
 </metadata>
 <defs>
  <style type="text/css">*{stroke-linejoin: round; stroke-linecap: butt}</style>
 </defs>
 <g id="figure_1">
  <g id="patch_1">
   <path d="M 0 424.264687 
L 856.624687 424.264687 
L 856.624687 0 
L 0 0 
z
" style="fill: #ffffff"/>
  </g>
  <g id="axes_1">
   <g id="patch_2">
    <path d="M 62.394688 382.837187 
L 423.814687 382.837187 
L 423.814687 26.877187 
L 62.394688 26.877187 
z
" style="fill: #ffffff"/>
   </g>
   <g id="matplotlib.axis_1">
    <g id="xtick_1">
     <g id="line2d_1">
      <defs>
       <path id="m8bb660fe7a" d="M 0 0 
L 0 3.5 
" style="stroke: #000000; stroke-width: 0.8"/>
      </defs>
      <g>
       <use xlink:href="#m8bb660fe7a" x="78.822869" y="382.837187" style="stroke: #000000; stroke-width: 0.8"/>
      </g>
     </g>
     <g id="text_1">
      <!-- 0 -->
      <g transform="translate(75.641619 397.435625) scale(0.1 -0.1)">
       <defs>
        <path id="DejaVuSans-30" d="M 2034 4250 
Q 1547 4250 1301 3770 
Q 1056 3291 1056 2328 
Q 1056 1369 1301 889 
Q 1547 409 2034 409 
Q 2525 409 2770 889 
Q 3016 1369 3016 2328 
Q 3016 3291 2770 3770 
Q 2525 4250 2034 4250 
z
M 2034 4750 
Q 2819 4750 3233 4129 
Q 3647 3509 3647 2328 
Q 3647 1150 3233 529 
Q 2819 -91 2034 -91 
Q 1250 -91 836 529 
Q 422 1150 422 2328 
Q 422 3509 836 4129 
Q 1250 4750 2034 4750 
z
" transform="scale(0.015625)"/>
       </defs>
       <use xlink:href="#DejaVuSans-30"/>
      </g>
     </g>
    </g>
    <g id="xtick_2">
     <g id="line2d_2">
      <g>
       <use xlink:href="#m8bb660fe7a" x="131.108617" y="382.837187" style="stroke: #000000; stroke-width: 0.8"/>
      </g>
     </g>
     <g id="text_2">
      <!-- 5 -->
      <g transform="translate(127.927367 397.435625) scale(0.1 -0.1)">
       <defs>
        <path id="DejaVuSans-35" d="M 691 4666 
L 3169 4666 
L 3169 4134 
L 1269 4134 
L 1269 2991 
Q 1406 3038 1543 3061 
Q 1681 3084 1819 3084 
Q 2600 3084 3056 2656 
Q 3513 2228 3513 1497 
Q 3513 744 3044 326 
Q 2575 -91 1722 -91 
Q 1428 -91 1123 -41 
Q 819 9 494 109 
L 494 744 
Q 775 591 1075 516 
Q 1375 441 1709 441 
Q 2250 441 2565 725 
Q 2881 1009 2881 1497 
Q 2881 1984 2565 2268 
Q 2250 2553 1709 2553 
Q 1456 2553 1204 2497 
Q 953 2441 691 2322 
L 691 4666 
z
" transform="scale(0.015625)"/>
       </defs>
       <use xlink:href="#DejaVuSans-35"/>
      </g>
     </g>
    </g>
    <g id="xtick_3">
     <g id="line2d_3">
      <g>
       <use xlink:href="#m8bb660fe7a" x="183.394364" y="382.837187" style="stroke: #000000; stroke-width: 0.8"/>
      </g>
     </g>
     <g id="text_3">
      <!-- 10 -->
      <g transform="translate(177.031864 397.435625) scale(0.1 -0.1)">
       <defs>
        <path id="DejaVuSans-31" d="M 794 531 
L 1825 531 
L 1825 4091 
L 703 3866 
L 703 4441 
L 1819 4666 
L 2450 4666 
L 2450 531 
L 3481 531 
L 3481 0 
L 794 0 
L 794 531 
z
" transform="scale(0.015625)"/>
       </defs>
       <use xlink:href="#DejaVuSans-31"/>
       <use xlink:href="#DejaVuSans-30" x="63.623047"/>
      </g>
     </g>
    </g>
    <g id="xtick_4">
     <g id="line2d_4">
      <g>
       <use xlink:href="#m8bb660fe7a" x="235.680111" y="382.837187" style="stroke: #000000; stroke-width: 0.8"/>
      </g>
     </g>
     <g id="text_4">
      <!-- 15 -->
      <g transform="translate(229.317611 397.435625) scale(0.1 -0.1)">
       <use xlink:href="#DejaVuSans-31"/>
       <use xlink:href="#DejaVuSans-35" x="63.623047"/>
      </g>
     </g>
    </g>
    <g id="xtick_5">
     <g id="line2d_5">
      <g>
       <use xlink:href="#m8bb660fe7a" x="287.965859" y="382.837187" style="stroke: #000000; stroke-width: 0.8"/>
      </g>
     </g>
     <g id="text_5">
      <!-- 20 -->
      <g transform="translate(281.603359 397.435625) scale(0.1 -0.1)">
       <defs>
        <path id="DejaVuSans-32" d="M 1228 531 
L 3431 531 
L 3431 0 
L 469 0 
L 469 531 
Q 828 903 1448 1529 
Q 2069 2156 2228 2338 
Q 2531 2678 2651 2914 
Q 2772 3150 2772 3378 
Q 2772 3750 2511 3984 
Q 2250 4219 1831 4219 
Q 1534 4219 1204 4116 
Q 875 4013 500 3803 
L 500 4441 
Q 881 4594 1212 4672 
Q 1544 4750 1819 4750 
Q 2544 4750 2975 4387 
Q 3406 4025 3406 3419 
Q 3406 3131 3298 2873 
Q 3191 2616 2906 2266 
Q 2828 2175 2409 1742 
Q 1991 1309 1228 531 
z
" transform="scale(0.015625)"/>
       </defs>
       <use xlink:href="#DejaVuSans-32"/>
       <use xlink:href="#DejaVuSans-30" x="63.623047"/>
      </g>
     </g>
    </g>
    <g id="xtick_6">
     <g id="line2d_6">
      <g>
       <use xlink:href="#m8bb660fe7a" x="340.251606" y="382.837187" style="stroke: #000000; stroke-width: 0.8"/>
      </g>
     </g>
     <g id="text_6">
      <!-- 25 -->
      <g transform="translate(333.889106 397.435625) scale(0.1 -0.1)">
       <use xlink:href="#DejaVuSans-32"/>
       <use xlink:href="#DejaVuSans-35" x="63.623047"/>
      </g>
     </g>
    </g>
    <g id="xtick_7">
     <g id="line2d_7">
      <g>
       <use xlink:href="#m8bb660fe7a" x="392.537353" y="382.837187" style="stroke: #000000; stroke-width: 0.8"/>
      </g>
     </g>
     <g id="text_7">
      <!-- 30 -->
      <g transform="translate(386.174853 397.435625) scale(0.1 -0.1)">
       <defs>
        <path id="DejaVuSans-33" d="M 2597 2516 
Q 3050 2419 3304 2112 
Q 3559 1806 3559 1356 
Q 3559 666 3084 287 
Q 2609 -91 1734 -91 
Q 1441 -91 1130 -33 
Q 819 25 488 141 
L 488 750 
Q 750 597 1062 519 
Q 1375 441 1716 441 
Q 2309 441 2620 675 
Q 2931 909 2931 1356 
Q 2931 1769 2642 2001 
Q 2353 2234 1838 2234 
L 1294 2234 
L 1294 2753 
L 1863 2753 
Q 2328 2753 2575 2939 
Q 2822 3125 2822 3475 
Q 2822 3834 2567 4026 
Q 2313 4219 1838 4219 
Q 1578 4219 1281 4162 
Q 984 4106 628 3988 
L 628 4550 
Q 988 4650 1302 4700 
Q 1616 4750 1894 4750 
Q 2613 4750 3031 4423 
Q 3450 4097 3450 3541 
Q 3450 3153 3228 2886 
Q 3006 2619 2597 2516 
z
" transform="scale(0.015625)"/>
       </defs>
       <use xlink:href="#DejaVuSans-33"/>
       <use xlink:href="#DejaVuSans-30" x="63.623047"/>
      </g>
     </g>
    </g>
    <g id="text_8">
     <!-- t (s) -->
     <g transform="translate(229.027031 414.153125) scale(0.14 -0.14)">
      <defs>
       <path id="DejaVuSans-74" d="M 1172 4494 
L 1172 3500 
L 2356 3500 
L 2356 3053 
L 1172 3053 
L 1172 1153 
Q 1172 725 1289 603 
Q 1406 481 1766 481 
L 2356 481 
L 2356 0 
L 1766 0 
Q 1100 0 847 248 
Q 594 497 594 1153 
L 594 3053 
L 172 3053 
L 172 3500 
L 594 3500 
L 594 4494 
L 1172 4494 
z
" transform="scale(0.015625)"/>
       <path id="DejaVuSans-20" transform="scale(0.015625)"/>
       <path id="DejaVuSans-28" d="M 1984 4856 
Q 1566 4138 1362 3434 
Q 1159 2731 1159 2009 
Q 1159 1288 1364 580 
Q 1569 -128 1984 -844 
L 1484 -844 
Q 1016 -109 783 600 
Q 550 1309 550 2009 
Q 550 2706 781 3412 
Q 1013 4119 1484 4856 
L 1984 4856 
z
" transform="scale(0.015625)"/>
       <path id="DejaVuSans-73" d="M 2834 3397 
L 2834 2853 
Q 2591 2978 2328 3040 
Q 2066 3103 1784 3103 
Q 1356 3103 1142 2972 
Q 928 2841 928 2578 
Q 928 2378 1081 2264 
Q 1234 2150 1697 2047 
L 1894 2003 
Q 2506 1872 2764 1633 
Q 3022 1394 3022 966 
Q 3022 478 2636 193 
Q 2250 -91 1575 -91 
Q 1294 -91 989 -36 
Q 684 19 347 128 
L 347 722 
Q 666 556 975 473 
Q 1284 391 1588 391 
Q 1994 391 2212 530 
Q 2431 669 2431 922 
Q 2431 1156 2273 1281 
Q 2116 1406 1581 1522 
L 1381 1569 
Q 847 1681 609 1914 
Q 372 2147 372 2553 
Q 372 3047 722 3315 
Q 1072 3584 1716 3584 
Q 2034 3584 2315 3537 
Q 2597 3491 2834 3397 
z
" transform="scale(0.015625)"/>
       <path id="DejaVuSans-29" d="M 513 4856 
L 1013 4856 
Q 1481 4119 1714 3412 
Q 1947 2706 1947 2009 
Q 1947 1309 1714 600 
Q 1481 -109 1013 -844 
L 513 -844 
Q 928 -128 1133 580 
Q 1338 1288 1338 2009 
Q 1338 2731 1133 3434 
Q 928 4138 513 4856 
z
" transform="scale(0.015625)"/>
      </defs>
      <use xlink:href="#DejaVuSans-74"/>
      <use xlink:href="#DejaVuSans-20" x="39.208984"/>
      <use xlink:href="#DejaVuSans-28" x="70.996094"/>
      <use xlink:href="#DejaVuSans-73" x="110.009766"/>
      <use xlink:href="#DejaVuSans-29" x="162.109375"/>
     </g>
    </g>
   </g>
   <g id="matplotlib.axis_2">
    <g id="ytick_1">
     <g id="line2d_8">
      <defs>
       <path id="m99c01ad1c2" d="M 0 0 
L -3.5 0 
" style="stroke: #000000; stroke-width: 0.8"/>
      </defs>
      <g>
       <use xlink:href="#m99c01ad1c2" x="62.394688" y="366.598569" style="stroke: #000000; stroke-width: 0.8"/>
      </g>
     </g>
     <g id="text_9">
      <!-- −1.00 -->
      <g transform="translate(24.749375 370.397788) scale(0.1 -0.1)">
       <defs>
        <path id="DejaVuSans-2212" d="M 678 2272 
L 4684 2272 
L 4684 1741 
L 678 1741 
L 678 2272 
z
" transform="scale(0.015625)"/>
        <path id="DejaVuSans-2e" d="M 684 794 
L 1344 794 
L 1344 0 
L 684 0 
L 684 794 
z
" transform="scale(0.015625)"/>
       </defs>
       <use xlink:href="#DejaVuSans-2212"/>
       <use xlink:href="#DejaVuSans-31" x="83.789062"/>
       <use xlink:href="#DejaVuSans-2e" x="147.412109"/>
       <use xlink:href="#DejaVuSans-30" x="179.199219"/>
       <use xlink:href="#DejaVuSans-30" x="242.822266"/>
      </g>
     </g>
    </g>
    <g id="ytick_2">
     <g id="line2d_9">
      <g>
       <use xlink:href="#m99c01ad1c2" x="62.394688" y="326.165735" style="stroke: #000000; stroke-width: 0.8"/>
      </g>
     </g>
     <g id="text_10">
      <!-- −0.75 -->
      <g transform="translate(24.749375 329.964954) scale(0.1 -0.1)">
       <defs>
        <path id="DejaVuSans-37" d="M 525 4666 
L 3525 4666 
L 3525 4397 
L 1831 0 
L 1172 0 
L 2766 4134 
L 525 4134 
L 525 4666 
z
" transform="scale(0.015625)"/>
       </defs>
       <use xlink:href="#DejaVuSans-2212"/>
       <use xlink:href="#DejaVuSans-30" x="83.789062"/>
       <use xlink:href="#DejaVuSans-2e" x="147.412109"/>
       <use xlink:href="#DejaVuSans-37" x="179.199219"/>
       <use xlink:href="#DejaVuSans-35" x="242.822266"/>
      </g>
     </g>
    </g>
    <g id="ytick_3">
     <g id="line2d_10">
      <g>
       <use xlink:href="#m99c01ad1c2" x="62.394688" y="285.732901" style="stroke: #000000; stroke-width: 0.8"/>
      </g>
     </g>
     <g id="text_11">
      <!-- −0.50 -->
      <g transform="translate(24.749375 289.53212) scale(0.1 -0.1)">
       <use xlink:href="#DejaVuSans-2212"/>
       <use xlink:href="#DejaVuSans-30" x="83.789062"/>
       <use xlink:href="#DejaVuSans-2e" x="147.412109"/>
       <use xlink:href="#DejaVuSans-35" x="179.199219"/>
       <use xlink:href="#DejaVuSans-30" x="242.822266"/>
      </g>
     </g>
    </g>
    <g id="ytick_4">
     <g id="line2d_11">
      <g>
       <use xlink:href="#m99c01ad1c2" x="62.394688" y="245.300067" style="stroke: #000000; stroke-width: 0.8"/>
      </g>
     </g>
     <g id="text_12">
      <!-- −0.25 -->
      <g transform="translate(24.749375 249.099286) scale(0.1 -0.1)">
       <use xlink:href="#DejaVuSans-2212"/>
       <use xlink:href="#DejaVuSans-30" x="83.789062"/>
       <use xlink:href="#DejaVuSans-2e" x="147.412109"/>
       <use xlink:href="#DejaVuSans-32" x="179.199219"/>
       <use xlink:href="#DejaVuSans-35" x="242.822266"/>
      </g>
     </g>
    </g>
    <g id="ytick_5">
     <g id="line2d_12">
      <g>
       <use xlink:href="#m99c01ad1c2" x="62.394688" y="204.867233" style="stroke: #000000; stroke-width: 0.8"/>
      </g>
     </g>
     <g id="text_13">
      <!-- 0.00 -->
      <g transform="translate(33.129063 208.666452) scale(0.1 -0.1)">
       <use xlink:href="#DejaVuSans-30"/>
       <use xlink:href="#DejaVuSans-2e" x="63.623047"/>
       <use xlink:href="#DejaVuSans-30" x="95.410156"/>
       <use xlink:href="#DejaVuSans-30" x="159.033203"/>
      </g>
     </g>
    </g>
    <g id="ytick_6">
     <g id="line2d_13">
      <g>
       <use xlink:href="#m99c01ad1c2" x="62.394688" y="164.4344" style="stroke: #000000; stroke-width: 0.8"/>
      </g>
     </g>
     <g id="text_14">
      <!-- 0.25 -->
      <g transform="translate(33.129063 168.233618) scale(0.1 -0.1)">
       <use xlink:href="#DejaVuSans-30"/>
       <use xlink:href="#DejaVuSans-2e" x="63.623047"/>
       <use xlink:href="#DejaVuSans-32" x="95.410156"/>
       <use xlink:href="#DejaVuSans-35" x="159.033203"/>
      </g>
     </g>
    </g>
    <g id="ytick_7">
     <g id="line2d_14">
      <g>
       <use xlink:href="#m99c01ad1c2" x="62.394688" y="124.001566" style="stroke: #000000; stroke-width: 0.8"/>
      </g>
     </g>
     <g id="text_15">
      <!-- 0.50 -->
      <g transform="translate(33.129063 127.800784) scale(0.1 -0.1)">
       <use xlink:href="#DejaVuSans-30"/>
       <use xlink:href="#DejaVuSans-2e" x="63.623047"/>
       <use xlink:href="#DejaVuSans-35" x="95.410156"/>
       <use xlink:href="#DejaVuSans-30" x="159.033203"/>
      </g>
     </g>
    </g>
    <g id="ytick_8">
     <g id="line2d_15">
      <g>
       <use xlink:href="#m99c01ad1c2" x="62.394688" y="83.568732" style="stroke: #000000; stroke-width: 0.8"/>
      </g>
     </g>
     <g id="text_16">
      <!-- 0.75 -->
      <g transform="translate(33.129063 87.36795) scale(0.1 -0.1)">
       <use xlink:href="#DejaVuSans-30"/>
       <use xlink:href="#DejaVuSans-2e" x="63.623047"/>
       <use xlink:href="#DejaVuSans-37" x="95.410156"/>
       <use xlink:href="#DejaVuSans-35" x="159.033203"/>
      </g>
     </g>
    </g>
    <g id="ytick_9">
     <g id="line2d_16">
      <g>
       <use xlink:href="#m99c01ad1c2" x="62.394688" y="43.135898" style="stroke: #000000; stroke-width: 0.8"/>
      </g>
     </g>
     <g id="text_17">
      <!-- 1.00 -->
      <g transform="translate(33.129063 46.935117) scale(0.1 -0.1)">
       <use xlink:href="#DejaVuSans-31"/>
       <use xlink:href="#DejaVuSans-2e" x="63.623047"/>
       <use xlink:href="#DejaVuSans-30" x="95.410156"/>
       <use xlink:href="#DejaVuSans-30" x="159.033203"/>
      </g>
     </g>
    </g>
    <g id="text_18">
     <!-- x(t) -->
     <g transform="translate(17.837812 217.206719) rotate(-90) scale(0.14 -0.14)">
      <defs>
       <path id="DejaVuSans-78" d="M 3513 3500 
L 2247 1797 
L 3578 0 
L 2900 0 
L 1881 1375 
L 863 0 
L 184 0 
L 1544 1831 
L 300 3500 
L 978 3500 
L 1906 2253 
L 2834 3500 
L 3513 3500 
z
" transform="scale(0.015625)"/>
      </defs>
      <use xlink:href="#DejaVuSans-78"/>
      <use xlink:href="#DejaVuSans-28" x="59.179688"/>
      <use xlink:href="#DejaVuSans-74" x="98.193359"/>
      <use xlink:href="#DejaVuSans-29" x="137.402344"/>
     </g>
    </g>
   </g>
   <g id="line2d_17">
    <path d="M 78.822869 43.135898 
L 79.345727 43.338062 
L 79.868584 43.944302 
L 80.391442 44.953101 
L 80.914299 46.361938 
L 81.960014 50.364634 
L 83.005729 55.912369 
L 84.051444 62.94967 
L 85.097159 71.406168 
L 86.665731 86.56326 
L 88.234304 104.37949 
L 90.325734 131.571288 
L 92.940021 169.534948 
L 100.260026 279.561994 
L 102.351456 306.584009 
L 103.920028 324.240482 
L 105.4886 339.213938 
L 106.534315 347.536751 
L 107.58003 354.432895 
L 108.625745 359.833405 
L 109.67146 363.684269 
L 110.194318 365.015932 
L 110.717175 365.946975 
L 111.240033 366.475069 
L 111.76289 366.598891 
L 112.285748 366.318131 
L 112.808605 365.633492 
L 113.331463 364.546685 
L 113.85432 363.060428 
L 114.900035 358.905423 
L 115.94575 353.210024 
L 116.991465 346.031179 
L 118.03718 337.440672 
L 119.605752 322.099605 
L 121.174325 304.123485 
L 123.265755 276.762088 
L 125.880042 238.665626 
L 133.200047 128.778056 
L 135.291476 101.928087 
L 136.860049 84.433107 
L 138.428621 69.644991 
L 139.474336 61.456947 
L 140.520051 54.70298 
L 141.565766 49.450635 
L 142.611481 45.752439 
L 143.134339 44.498324 
L 143.657196 43.645379 
L 144.180054 43.19574 
L 144.702911 43.150532 
L 145.225768 43.509868 
L 145.748626 44.27285 
L 146.271483 45.43757 
L 146.794341 47.001115 
L 147.840056 51.30805 
L 148.885771 57.15059 
L 149.931486 64.470315 
L 150.977201 73.194032 
L 152.545773 88.717644 
L 154.114346 106.851972 
L 156.205775 134.380399 
L 158.820063 172.606076 
L 165.61721 275.147308 
L 167.70864 302.700833 
L 169.277212 320.859022 
L 170.845785 336.410199 
L 171.8915 345.154035 
L 172.937215 352.49503 
L 173.982929 358.359771 
L 175.028644 362.689604 
L 175.551502 364.264786 
L 176.074359 365.441227 
L 176.597217 366.215985 
L 177.120074 366.587119 
L 177.642932 366.553702 
L 178.165789 366.115816 
L 178.688647 365.274555 
L 179.211504 364.032025 
L 179.734362 362.391332 
L 180.780077 357.932858 
L 181.825792 351.943714 
L 182.871507 344.483787 
L 183.917221 335.627671 
L 185.485794 319.922963 
L 187.054366 301.632124 
L 189.145796 273.939251 
L 191.760084 235.587956 
L 198.557231 133.171066 
L 200.648661 105.78149 
L 202.217233 87.779486 
L 203.785805 72.409128 
L 204.83152 63.797537 
L 205.877235 56.596616 
L 206.92295 50.878378 
L 207.968665 46.700011 
L 208.491523 45.201952 
L 209.01438 44.103304 
L 209.537238 43.406814 
L 210.060095 43.114227 
L 210.582953 43.226275 
L 211.10581 43.742678 
L 211.628668 44.662144 
L 212.151525 45.982376 
L 212.674383 47.700069 
L 213.720097 52.309675 
L 214.765812 58.444871 
L 215.811527 66.04431 
L 216.857242 75.032002 
L 218.425815 90.91634 
L 219.994387 109.361977 
L 222.085817 137.216697 
L 224.700104 175.689998 
L 231.497252 277.97286 
L 233.588681 305.195884 
L 235.157254 323.039987 
L 236.725826 338.228056 
L 237.771541 346.706576 
L 238.817256 353.766729 
L 239.862971 359.337909 
L 240.908686 363.3644 
L 241.431544 364.785187 
L 241.954401 365.805932 
L 242.477259 366.42408 
L 243.000116 366.638084 
L 243.522973 366.447409 
L 244.045831 365.85253 
L 244.568688 364.854936 
L 245.091546 363.457122 
L 246.137261 359.475806 
L 247.182976 353.948393 
L 248.228691 346.93015 
L 249.274406 338.491257 
L 250.842978 323.357467 
L 252.411551 305.560352 
L 254.50298 278.386801 
L 257.117268 240.43335 
L 264.437272 130.358914 
L 266.528702 103.305031 
L 268.097275 85.62053 
L 269.665847 70.616202 
L 270.711562 62.271568 
L 271.757277 55.352864 
L 272.802992 49.929282 
L 273.848707 46.055062 
L 274.371564 44.711689 
L 274.894422 43.768952 
L 275.417279 43.229212 
L 275.940137 43.093818 
L 276.462994 43.36311 
L 276.985852 44.036416 
L 277.508709 45.112051 
L 278.031567 46.587325 
L 279.077282 50.721041 
L 280.122997 56.396232 
L 281.168712 63.55615 
L 282.214427 72.129202 
L 283.782999 87.447223 
L 285.351571 105.404514 
L 287.443001 132.748082 
L 290.057289 170.834893 
L 297.377293 280.771346 
L 299.468723 307.653516 
L 301.037296 325.176728 
L 302.605868 339.995879 
L 303.651583 348.205827 
L 304.697298 354.982415 
L 305.743013 360.257872 
L 306.788728 363.979439 
L 307.311585 365.245264 
L 307.834443 366.109896 
L 308.3573 366.57117 
L 308.880158 366.627932 
L 309.403015 366.28004 
L 309.925873 365.528364 
L 310.44873 364.374782 
L 310.971588 362.82218 
L 312.017303 358.536439 
L 313.063017 352.713992 
L 314.108732 345.41306 
L 315.154447 336.706646 
L 316.72302 321.205824 
L 318.291592 303.090036 
L 320.383022 275.579018 
L 322.997309 237.362432 
L 329.794457 134.777862 
L 331.885887 107.193527 
L 333.454459 89.007968 
L 335.023031 73.426441 
L 336.068746 64.661051 
L 337.114461 57.297696 
L 338.160176 51.410013 
L 339.205891 47.056884 
L 339.728749 45.469995 
L 340.251606 44.281845 
L 340.774464 43.495408 
L 341.297321 43.112651 
L 341.820179 43.134533 
L 342.343036 43.560999 
L 342.865893 44.390984 
L 343.388751 45.622411 
L 343.911608 47.252201 
L 344.957323 51.689578 
L 346.003038 57.658745 
L 347.048753 65.100015 
L 348.094468 73.938981 
L 349.663041 89.62116 
L 351.231613 107.893747 
L 353.323043 135.569634 
L 355.93733 173.912398 
L 362.734477 276.374018 
L 364.825907 303.794745 
L 366.39448 321.824334 
L 367.963052 337.225213 
L 369.008767 345.858447 
L 370.054482 353.081796 
L 371.100197 358.823021 
L 372.145912 363.024707 
L 372.668769 364.534477 
L 373.191627 365.644831 
L 373.714484 366.352992 
L 374.237342 366.657187 
L 374.760199 366.556656 
L 375.283057 366.051647 
L 375.805914 365.143426 
L 376.328772 363.834261 
L 376.851629 362.127429 
L 377.897344 357.538821 
L 378.943059 351.423483 
L 379.988774 343.842564 
L 381.034489 334.871867 
L 382.603061 319.009797 
L 384.171634 300.58212 
L 386.263064 272.743963 
L 388.877351 234.27863 
L 395.674498 131.949651 
L 397.765928 104.695137 
L 399.334501 86.823238 
L 400.903073 71.604479 
L 401.948788 63.10423 
L 402.994503 56.021584 
L 404.040218 50.427372 
L 405.085933 46.377541 
L 405.60879 44.945042 
L 406.131648 43.912595 
L 406.654505 43.282785 
L 407.177363 43.057187 
L 407.177363 43.057187 
" clip-path="url(#p0d773480ad)" style="fill: none; stroke: #1f77b4; stroke-width: 1.5; stroke-linecap: square"/>
   </g>
   <g id="line2d_18">
    <path d="M 78.822869 43.135898 
L 79.241155 43.265269 
L 79.659441 43.653178 
L 80.182299 44.500647 
L 80.809728 46.04647 
L 81.541728 48.571867 
L 82.3783 52.394561 
L 83.319444 57.859464 
L 84.365159 65.325006 
L 85.515445 75.144235 
L 86.874874 88.760016 
L 88.443447 106.889092 
L 90.325734 131.509159 
L 92.626307 164.732926 
L 101.305741 293.396993 
L 103.083456 315.019921 
L 104.652029 331.479824 
L 106.011458 343.456654 
L 107.161744 351.771019 
L 108.207459 357.790783 
L 109.148603 361.903521 
L 109.880603 364.22482 
L 110.508032 365.59357 
L 111.03089 366.292463 
L 111.449176 366.561112 
L 111.867462 366.571077 
L 112.285748 366.322342 
L 112.704034 365.815304 
L 113.226891 364.819545 
L 113.85432 363.097172 
L 114.586321 360.368533 
L 115.422892 356.318381 
L 116.364036 350.605471 
L 117.409751 342.876501 
L 118.664609 331.789248 
L 120.024038 317.723624 
L 121.592611 299.144109 
L 123.474898 274.094002 
L 125.880042 238.947682 
L 133.618333 123.427993 
L 135.500619 99.727425 
L 137.069192 82.54287 
L 138.428621 69.859464 
L 139.683479 60.169793 
L 140.729194 53.679857 
L 141.670338 49.128993 
L 142.50691 46.141204 
L 143.23891 44.35929 
L 143.761768 43.56748 
L 144.180054 43.22426 
L 144.598339 43.139642 
L 145.016625 43.313763 
L 145.434911 43.746344 
L 145.957769 44.649435 
L 146.585198 46.261502 
L 147.317198 48.863188 
L 148.15377 52.771302 
L 149.094914 58.329393 
L 150.140629 65.893986 
L 151.395487 76.796839 
L 152.754916 90.681414 
L 154.323488 109.080082 
L 156.205775 133.958249 
L 158.61092 168.964531 
L 166.662925 288.871918 
L 168.545212 312.257647 
L 170.113784 329.123777 
L 171.473214 341.495832 
L 172.6235 350.170749 
L 173.669215 356.535194 
L 174.610358 360.968972 
L 175.44693 363.850185 
L 176.074359 365.344465 
L 176.597217 366.148669 
L 177.120074 366.54974 
L 177.53836 366.579634 
L 177.956646 366.350813 
L 178.374932 365.863645 
L 178.89779 364.892609 
L 179.525219 363.199659 
L 180.257219 360.504872 
L 181.093791 356.492581 
L 182.034935 350.820921 
L 183.08065 343.135726 
L 184.335507 332.097546 
L 185.694937 318.080059 
L 187.263509 299.548567 
L 189.145796 274.544015 
L 191.550941 239.434596 
L 199.393803 122.463015 
L 201.27609 98.879505 
L 202.844662 81.813616 
L 204.204091 69.246408 
L 205.458949 59.673228 
L 206.504664 53.285897 
L 207.445808 48.830775 
L 208.28238 45.93014 
L 208.909809 44.421095 
L 209.432666 43.604498 
L 209.955524 43.190988 
L 210.37381 43.151131 
L 210.792096 43.369993 
L 211.210382 43.847225 
L 211.733239 44.805895 
L 212.360668 46.484128 
L 213.092669 49.161979 
L 213.92924 53.155325 
L 214.870384 58.80634 
L 215.916099 66.469621 
L 217.170957 77.483225 
L 218.530386 91.476592 
L 220.098959 109.984008 
L 221.981246 134.965693 
L 224.38639 170.056536 
L 232.229252 287.057029 
L 234.111539 310.666708 
L 235.680111 327.759093 
L 237.039541 340.352227 
L 238.294399 349.951383 
L 239.340114 356.361585 
L 240.281257 360.838041 
L 241.117829 363.758091 
L 241.745258 365.281898 
L 242.268116 366.110885 
L 242.790973 366.536834 
L 243.209259 366.586655 
L 243.627545 366.377752 
L 244.045831 365.910457 
L 244.568688 364.964155 
L 245.196117 363.300643 
L 245.928118 360.639734 
L 246.76469 356.665343 
L 247.705833 351.034987 
L 248.751548 343.393638 
L 250.006406 332.404636 
L 251.365836 318.435421 
L 252.934408 299.952126 
L 254.816695 274.993367 
L 257.221839 239.921183 
L 265.064701 122.892056 
L 266.946988 99.256264 
L 268.515561 82.137423 
L 269.87499 69.518393 
L 271.129848 59.893283 
L 272.175563 53.460225 
L 273.116706 48.962446 
L 273.953278 46.022989 
L 274.580707 44.484423 
L 275.103565 43.643047 
L 275.626422 43.204662 
L 276.044708 43.144876 
L 276.462994 43.34382 
L 276.88128 43.801177 
L 277.404138 44.735109 
L 278.031567 46.383895 
L 278.763567 49.027856 
L 279.600139 52.983283 
L 280.541283 58.592967 
L 281.586998 66.212365 
L 282.841855 77.176739 
L 284.201285 91.121769 
L 285.769857 109.580899 
L 287.652144 134.516672 
L 290.057289 169.570115 
L 298.004722 288.018946 
L 299.887009 311.510688 
L 301.455582 328.483771 
L 302.815011 340.960238 
L 304.069869 350.442547 
L 305.115584 356.749905 
L 306.056727 361.130454 
L 306.893299 363.963241 
L 307.520728 365.420709 
L 308.043586 366.194021 
L 308.461872 366.522393 
L 308.880158 366.592142 
L 309.298444 366.403158 
L 309.71673 365.955741 
L 310.239587 365.034181 
L 310.867016 363.400124 
L 311.599017 360.773119 
L 312.435588 356.836664 
L 313.376732 351.247666 
L 314.422447 343.650237 
L 315.677305 332.710517 
L 317.036734 318.789706 
L 318.605307 300.354784 
L 320.487594 275.442055 
L 322.892738 240.407438 
L 330.840172 121.929259 
L 332.722458 98.411153 
L 334.291031 81.411432 
L 335.65046 68.908935 
L 336.905318 59.400571 
L 337.951033 53.070289 
L 338.892177 48.66837 
L 339.728749 45.816145 
L 340.356178 44.343902 
L 340.879035 43.558192 
L 341.297321 43.219869 
L 341.715607 43.140156 
L 342.133893 43.319181 
L 342.552179 43.756657 
L 343.075036 44.665842 
L 343.702465 46.285167 
L 344.434466 48.895211 
L 345.271038 52.812682 
L 346.212181 58.380982 
L 347.257896 65.956424 
L 348.512754 76.871464 
L 349.872184 90.768024 
L 351.440756 109.178693 
L 353.323043 134.068319 
L 355.728187 169.084028 
L 363.675621 287.591273 
L 365.557908 311.135688 
L 367.12648 328.162005 
L 368.48591 340.690502 
L 369.740768 350.2249 
L 370.786483 356.57809 
L 371.727626 361.001369 
L 372.564198 363.873027 
L 373.191627 365.36004 
L 373.714484 366.158145 
L 374.237342 366.553094 
L 374.655628 366.578082 
L 375.073914 366.344359 
L 375.4922 365.852299 
L 376.015057 364.875174 
L 376.642486 363.174977 
L 377.374487 360.471849 
L 378.211059 356.450225 
L 379.152202 350.768393 
L 380.197917 343.072397 
L 381.452775 332.022101 
L 382.812204 317.992718 
L 384.380777 299.449342 
L 386.263064 274.433492 
L 388.668208 239.31487 
L 396.406499 123.752469 
L 398.288786 100.012787 
L 399.857358 82.788529 
L 401.216787 70.066215 
L 402.471645 60.337518 
L 403.51736 53.813191 
L 404.458504 49.230227 
L 405.295076 46.213208 
L 406.027076 44.405332 
L 406.549934 43.594834 
L 407.072791 43.187446 
L 407.386506 43.136972 
L 407.386506 43.136972 
" clip-path="url(#p0d773480ad)" style="fill: none; stroke: #ff7f0e; stroke-width: 1.5; stroke-linecap: square"/>
   </g>
   <g id="line2d_19">
    <path d="M 78.822869 43.135898 
L 79.18887 43.234949 
L 79.607156 43.590558 
L 80.077727 44.298976 
L 80.65287 45.606115 
L 81.332585 47.771483 
L 82.116871 51.09373 
L 83.005729 55.902913 
L 83.999158 62.548876 
L 85.149445 71.843101 
L 86.456588 84.349509 
L 87.920589 100.579021 
L 89.646019 122.299791 
L 91.737449 151.574127 
L 94.822308 198.272049 
L 99.47574 268.475247 
L 101.619455 297.413468 
L 103.397171 318.519089 
L 104.913457 333.952702 
L 106.220601 345.093509 
L 107.370887 353.092289 
L 108.364317 358.561403 
L 109.253174 362.281135 
L 109.985175 364.491911 
L 110.612604 365.764882 
L 111.135461 366.383484 
L 111.553747 366.587734 
L 111.919747 366.554223 
L 112.338033 366.273429 
L 112.808605 365.648925 
L 113.331463 364.573313 
L 113.958892 362.755961 
L 114.690892 359.918106 
L 115.527464 355.745891 
L 116.468607 349.900104 
L 117.566608 341.60009 
L 118.821466 330.276246 
L 120.233181 315.390029 
L 121.854039 295.836491 
L 123.788612 269.686368 
L 126.350614 231.810013 
L 133.147761 129.805655 
L 135.134619 104.100841 
L 136.807763 85.2335 
L 138.219478 71.673979 
L 139.474336 61.64915 
L 140.572337 54.562963 
L 141.51348 49.804339 
L 142.350052 46.627205 
L 143.082053 44.677001 
L 143.657196 43.694786 
L 144.127768 43.253619 
L 144.546054 43.136156 
L 144.912054 43.245625 
L 145.33034 43.613124 
L 145.800912 44.334874 
L 146.376055 45.658206 
L 147.05577 47.842505 
L 147.840056 51.186217 
L 148.728914 56.019092 
L 149.722343 62.690534 
L 150.872629 72.012651 
L 152.179773 84.548247 
L 153.643774 100.806751 
L 155.369203 122.555928 
L 157.512919 152.619956 
L 160.650064 200.185921 
L 165.146638 268.005179 
L 167.34264 297.657487 
L 169.120355 318.730731 
L 170.636642 334.131866 
L 171.943785 345.241628 
L 173.094072 353.211161 
L 174.087501 358.653846 
L 174.976359 362.349217 
L 175.708359 364.539554 
L 176.335788 365.794816 
L 176.858646 366.398576 
L 177.276932 366.590923 
L 177.642932 366.546992 
L 178.061218 366.254302 
L 178.53179 365.616452 
L 179.106933 364.39505 
L 179.734362 362.512542 
L 180.466362 359.599795 
L 181.302934 355.34392 
L 182.296363 349.042497 
L 183.394364 340.567748 
L 184.649222 329.058236 
L 186.060937 313.984206 
L 187.734081 293.571699 
L 189.720939 266.434911 
L 192.439798 225.917974 
L 198.452659 135.325579 
L 200.544089 107.702555 
L 202.217233 88.34519 
L 203.681234 73.834166 
L 204.936092 63.427508 
L 206.086378 55.672013 
L 207.079808 50.422558 
L 207.91638 47.080702 
L 208.64838 44.98395 
L 209.275809 43.809744 
L 209.798666 43.273901 
L 210.216952 43.136007 
L 210.582953 43.227597 
L 211.001239 43.574691 
L 211.47181 44.273561 
L 212.046954 45.569102 
L 212.726668 47.72091 
L 213.510954 51.027779 
L 214.399812 55.819987 
L 215.393241 62.447693 
L 216.543528 71.721928 
L 217.850672 84.20741 
L 219.314672 100.416133 
L 221.040102 122.11652 
L 223.131532 151.372866 
L 226.216391 198.059027 
L 230.869823 268.279182 
L 233.013538 297.238558 
L 234.791254 318.367325 
L 236.30754 333.824168 
L 237.614684 344.987185 
L 238.76497 353.006895 
L 239.7584 358.494925 
L 240.647257 362.232095 
L 241.379258 364.457504 
L 242.006687 365.743154 
L 242.529544 366.372383 
L 242.94783 366.585156 
L 243.31383 366.559107 
L 243.732116 366.286833 
L 244.202688 365.671887 
L 244.725546 364.60684 
L 245.352975 362.802054 
L 246.084975 359.978645 
L 246.921547 355.822574 
L 247.862691 349.994357 
L 248.960691 341.713867 
L 250.215549 330.41079 
L 251.627264 315.545609 
L 253.248122 296.012711 
L 255.182695 269.881657 
L 257.744697 232.02022 
L 264.541844 129.994557 
L 266.528702 104.267674 
L 268.201846 85.377052 
L 269.613561 71.795009 
L 270.868419 61.748297 
L 271.96642 54.641782 
L 272.907563 49.865034 
L 273.744135 46.671372 
L 274.476136 44.706471 
L 275.051279 43.712604 
L 275.521851 43.261861 
L 275.940137 43.135872 
L 276.306137 43.237881 
L 276.724423 43.596866 
L 277.194995 44.309069 
L 277.770138 45.620806 
L 278.449853 47.79155 
L 279.234139 51.119893 
L 280.122997 55.935804 
L 281.116426 62.589005 
L 282.266712 71.891154 
L 283.573856 84.405856 
L 285.037857 100.643609 
L 286.763287 122.372457 
L 288.854716 151.653921 
L 291.939576 198.356502 
L 296.540721 267.80885 
L 298.736723 297.482801 
L 300.514438 318.579243 
L 302.030725 334.003645 
L 303.337868 345.135645 
L 304.488155 353.126127 
L 305.481584 358.587741 
L 306.370442 362.300559 
L 307.102442 364.505534 
L 307.729871 365.773479 
L 308.252729 366.387867 
L 308.671015 366.588738 
L 309.037015 366.552269 
L 309.455301 366.268098 
L 309.925873 365.639804 
L 310.501016 364.430017 
L 311.128445 362.560058 
L 311.860445 359.661731 
L 312.697017 355.421962 
L 313.690446 349.139008 
L 314.788447 340.683651 
L 316.043305 329.194728 
L 317.45502 314.141501 
L 319.128164 293.749914 
L 321.115023 266.632021 
L 323.781596 226.930723 
L 329.951314 134.060513 
L 331.990458 107.227179 
L 333.663602 87.933015 
L 335.127603 73.485992 
L 336.382461 63.139665 
L 337.480461 55.754416 
L 338.473891 50.485936 
L 339.310463 47.12761 
L 340.042463 45.016197 
L 340.669892 43.829295 
L 341.19275 43.282817 
L 341.611036 43.136396 
L 341.977036 43.220526 
L 342.395322 43.559104 
L 342.865893 44.248425 
L 343.441037 45.532365 
L 344.120751 47.670609 
L 344.905038 50.962096 
L 345.793895 55.73732 
L 346.787325 62.346757 
L 347.937611 71.600986 
L 349.244755 84.065521 
L 350.708756 100.253426 
L 352.434185 121.933392 
L 354.525615 151.171698 
L 357.558188 197.038209 
L 362.263906 268.083006 
L 364.407621 297.063486 
L 366.185337 318.215364 
L 367.701623 333.69541 
L 369.008767 344.880618 
L 370.159054 352.921243 
L 371.152483 358.42818 
L 372.04134 362.182782 
L 372.773341 364.422819 
L 373.40077 365.721146 
L 373.923627 366.361001 
L 374.341913 366.582298 
L 374.707914 366.56371 
L 375.1262 366.299957 
L 375.596771 365.69457 
L 376.119629 364.64009 
L 376.747058 362.847872 
L 377.479058 360.038915 
L 378.31563 355.898994 
L 379.256774 350.088357 
L 380.354774 341.827406 
L 381.609632 330.545115 
L 383.021347 315.700996 
L 384.642206 296.188772 
L 386.576778 270.076832 
L 389.13878 232.23038 
L 395.988213 129.467246 
L 397.975071 103.802092 
L 399.648215 84.976559 
L 401.05993 71.457467 
L 402.314788 61.471907 
L 403.412789 54.422192 
L 404.353932 49.69608 
L 405.190504 46.548589 
L 405.922505 44.624741 
L 406.497648 43.663422 
L 406.96822 43.239424 
L 407.33422 43.13587 
L 407.33422 43.13587 
" clip-path="url(#p0d773480ad)" style="fill: none; stroke: #2ca02c; stroke-width: 1.5; stroke-linecap: square"/>
   </g>
   <g id="line2d_20">
    <path d="M 78.822869 43.135898 
L 79.345727 43.33802 
L 79.868584 43.943881 
L 80.391442 44.951966 
L 80.914299 46.359757 
L 81.960014 50.359387 
L 83.005729 55.902809 
L 84.051444 62.934634 
L 85.097159 71.384602 
L 86.665731 86.530215 
L 88.234304 104.333423 
L 90.325734 131.506527 
L 92.940021 169.446989 
L 100.260026 279.437136 
L 102.351456 306.462592 
L 103.920028 324.126904 
L 105.4886 339.1129 
L 106.534315 347.446699 
L 107.58003 354.355892 
L 108.625745 359.771443 
L 109.67146 363.639242 
L 110.194318 364.980042 
L 110.717175 365.920644 
L 111.240033 366.458696 
L 111.76289 366.592853 
L 112.285748 366.322781 
L 112.808605 365.649154 
L 113.331463 364.573656 
L 113.85432 363.098974 
L 114.900035 358.967796 
L 115.94575 353.296895 
L 116.991465 346.142935 
L 118.03718 337.577394 
L 119.605752 322.273235 
L 121.174325 304.332389 
L 123.265755 277.013559 
L 125.880042 238.95952 
L 133.200047 129.093406 
L 135.291476 102.217507 
L 136.860049 84.69334 
L 138.428621 69.86802 
L 139.474336 61.650979 
L 140.520051 54.864908 
L 141.565766 49.577611 
L 142.611481 45.841916 
L 143.134339 44.5682 
L 143.657196 43.695149 
L 144.180054 43.224944 
L 144.702911 43.158761 
L 145.225768 43.496764 
L 145.748626 44.23811 
L 146.271483 45.380945 
L 146.794341 46.922412 
L 147.840056 51.184847 
L 148.885771 56.982826 
L 149.931486 64.258416 
L 150.977201 72.938923 
L 152.545773 88.400548 
L 154.114346 106.477763 
L 156.205775 133.940388 
L 158.820063 172.105315 
L 166.140067 281.839629 
L 168.231497 308.564072 
L 169.80007 325.946855 
L 171.368642 340.610451 
L 172.414357 348.710153 
L 173.460072 355.372623 
L 174.505787 360.531294 
L 175.551502 364.13462 
L 176.074359 365.341161 
L 176.597217 366.1466 
L 177.120074 366.548924 
L 177.642932 366.547129 
L 178.165789 366.141218 
L 178.688647 365.332206 
L 179.211504 364.122116 
L 179.734362 362.513971 
L 180.780077 358.120581 
L 181.825792 352.195934 
L 182.871507 344.799228 
L 183.917221 336.004367 
L 185.485794 320.386371 
L 187.054366 302.174064 
L 189.145796 274.569585 
L 191.760084 236.296469 
L 198.557231 133.875849 
L 200.648661 106.42077 
L 202.217233 88.350726 
L 203.785805 72.897392 
L 204.83152 64.222942 
L 205.877235 56.953763 
L 206.92295 51.162487 
L 207.968665 46.906978 
L 208.491523 45.369035 
L 209.01438 44.229755 
L 209.537238 43.491985 
L 210.060095 43.157569 
L 210.582953 43.227343 
L 211.10581 43.701133 
L 211.628668 44.577753 
L 212.151525 45.855014 
L 212.674383 47.529723 
L 213.720097 52.053757 
L 214.765812 58.104653 
L 215.811527 65.621953 
L 216.857242 74.530545 
L 218.425815 90.303809 
L 219.994387 108.64992 
L 222.085817 136.394303 
L 224.700104 174.772903 
L 231.497252 277.077831 
L 233.588681 304.389012 
L 235.157254 322.322619 
L 236.725826 337.618431 
L 237.771541 346.177883 
L 238.817256 353.325405 
L 239.862971 358.989581 
L 240.908686 363.113819 
L 241.431544 364.584969 
L 241.954401 365.656909 
L 242.477259 366.326957 
L 243.000116 366.593441 
L 243.522973 366.455693 
L 244.045831 365.914059 
L 244.568688 364.969891 
L 245.091546 363.62555 
L 245.614403 361.884396 
L 246.660118 357.230037 
L 247.705833 351.053319 
L 248.751548 343.415958 
L 249.797263 334.394265 
L 251.365836 318.466848 
L 252.934408 299.988228 
L 255.025838 272.105903 
L 257.640125 233.624532 
L 264.437272 131.442526 
L 266.528702 104.277173 
L 268.097275 86.481271 
L 269.665847 71.344062 
L 270.711562 62.900215 
L 271.757277 55.874855 
L 272.802992 50.338178 
L 273.848707 46.345504 
L 274.371564 44.941249 
L 274.894422 43.936727 
L 275.417279 43.334446 
L 275.940137 43.135914 
L 276.462994 43.341625 
L 276.985852 43.951067 
L 277.508709 44.962715 
L 278.031567 46.374041 
L 279.077282 50.380627 
L 280.122997 55.930792 
L 281.168712 62.969081 
L 282.214427 71.425169 
L 283.782999 86.579183 
L 285.351571 104.389693 
L 287.443001 131.570542 
L 290.057289 169.517071 
L 297.377293 279.50086 
L 299.468723 306.518465 
L 301.037296 324.175405 
L 302.605868 339.152941 
L 303.651583 347.480587 
L 304.697298 354.383288 
L 305.743013 359.792074 
L 306.788728 363.652903 
L 307.311585 364.990162 
L 307.834443 365.927197 
L 308.3573 366.461666 
L 308.880158 366.592233 
L 309.403015 366.318572 
L 309.925873 365.641367 
L 310.44873 364.56231 
L 310.971588 363.084099 
L 312.017303 358.94598 
L 313.063017 353.268357 
L 314.108732 346.107959 
L 315.154447 337.536331 
L 316.72302 322.223827 
L 318.291592 304.275746 
L 320.383022 276.949272 
L 322.997309 238.889309 
L 330.317314 129.029963 
L 332.408744 102.162016 
L 333.977316 84.645286 
L 335.545889 69.828482 
L 336.591604 61.617625 
L 337.637319 54.83807 
L 338.683034 49.557558 
L 339.728749 45.828848 
L 340.251606 44.558679 
L 340.774464 43.689197 
L 341.297321 43.222577 
L 341.820179 43.159984 
L 342.343036 43.501575 
L 342.865893 44.246497 
L 343.388751 45.392886 
L 343.911608 46.937878 
L 344.957323 51.207238 
L 346.003038 57.011917 
L 347.048753 64.293918 
L 348.094468 72.980481 
L 349.663041 88.450392 
L 351.231613 106.534775 
L 353.323043 134.004942 
L 355.93733 172.17565 
L 363.257335 281.902788 
L 365.348765 308.619178 
L 366.917337 325.994459 
L 368.48591 340.649484 
L 369.531625 348.742971 
L 370.57734 355.3989 
L 371.623054 360.550766 
L 372.668769 364.147093 
L 373.191627 365.350083 
L 373.714484 366.151949 
L 374.237342 366.550688 
L 374.760199 366.545302 
L 375.283057 366.135805 
L 375.805914 365.32322 
L 376.328772 364.109579 
L 376.851629 362.497916 
L 377.897344 358.097617 
L 378.943059 352.166292 
L 379.988774 344.763202 
L 381.034489 335.962319 
L 382.603061 320.336094 
L 384.171634 302.116687 
L 386.263064 274.504769 
L 388.877351 236.226013 
L 395.674498 133.811323 
L 397.765928 106.363797 
L 399.334501 88.300928 
L 400.903073 72.855887 
L 401.948788 64.187496 
L 402.994503 56.92473 
L 404.040218 51.140157 
L 405.085933 46.891574 
L 405.60879 45.357157 
L 406.131648 44.221432 
L 406.654505 43.487238 
L 407.177363 43.156409 
L 407.177363 43.156409 
" clip-path="url(#p0d773480ad)" style="fill: none; stroke-dasharray: 5.55,2.4; stroke-dashoffset: 0; stroke: #000000; stroke-width: 1.5"/>
   </g>
   <g id="patch_3">
    <path d="M 62.394688 382.837188 
L 62.394688 26.877187 
" style="fill: none; stroke: #000000; stroke-width: 0.8; stroke-linejoin: miter; stroke-linecap: square"/>
   </g>
   <g id="patch_4">
    <path d="M 423.814687 382.837188 
L 423.814687 26.877187 
" style="fill: none; stroke: #000000; stroke-width: 0.8; stroke-linejoin: miter; stroke-linecap: square"/>
   </g>
   <g id="patch_5">
    <path d="M 62.394688 382.837187 
L 423.814687 382.837187 
" style="fill: none; stroke: #000000; stroke-width: 0.8; stroke-linejoin: miter; stroke-linecap: square"/>
   </g>
   <g id="patch_6">
    <path d="M 62.394688 26.877187 
L 423.814687 26.877187 
" style="fill: none; stroke: #000000; stroke-width: 0.8; stroke-linejoin: miter; stroke-linecap: square"/>
   </g>
   <g id="text_19">
    <!-- (a) -->
    <g transform="translate(230.566562 20.877187) scale(0.18 -0.18)">
     <defs>
      <path id="DejaVuSans-61" d="M 2194 1759 
Q 1497 1759 1228 1600 
Q 959 1441 959 1056 
Q 959 750 1161 570 
Q 1363 391 1709 391 
Q 2188 391 2477 730 
Q 2766 1069 2766 1631 
L 2766 1759 
L 2194 1759 
z
M 3341 1997 
L 3341 0 
L 2766 0 
L 2766 531 
Q 2569 213 2275 61 
Q 1981 -91 1556 -91 
Q 1019 -91 701 211 
Q 384 513 384 1019 
Q 384 1609 779 1909 
Q 1175 2209 1959 2209 
L 2766 2209 
L 2766 2266 
Q 2766 2663 2505 2880 
Q 2244 3097 1772 3097 
Q 1472 3097 1187 3025 
Q 903 2953 641 2809 
L 641 3341 
Q 956 3463 1253 3523 
Q 1550 3584 1831 3584 
Q 2591 3584 2966 3190 
Q 3341 2797 3341 1997 
z
" transform="scale(0.015625)"/>
     </defs>
     <use xlink:href="#DejaVuSans-28"/>
     <use xlink:href="#DejaVuSans-61" x="39.013672"/>
     <use xlink:href="#DejaVuSans-29" x="100.292969"/>
    </g>
   </g>
   <g id="legend_1">
    <g id="patch_7">
     <path d="M 70.794688 106.932187 
L 182.308437 106.932187 
Q 184.708438 106.932187 184.708438 104.532188 
L 184.708438 35.277187 
Q 184.708438 32.877187 182.308437 32.877187 
L 70.794688 32.877187 
Q 68.394688 32.877187 68.394688 35.277187 
L 68.394688 104.532188 
Q 68.394688 106.932187 70.794688 106.932187 
z
" style="fill: #ffffff; opacity: 0.8; stroke: #cccccc; stroke-linejoin: miter"/>
    </g>
    <g id="line2d_21">
     <path d="M 73.194688 42.595312 
L 85.194688 42.595312 
L 97.194688 42.595312 
" style="fill: none; stroke: #1f77b4; stroke-width: 1.5; stroke-linecap: square"/>
    </g>
    <g id="text_20">
     <!-- h = 0.05s -->
     <g transform="translate(106.794688 46.795312) scale(0.12 -0.12)">
      <defs>
       <path id="DejaVuSans-68" d="M 3513 2113 
L 3513 0 
L 2938 0 
L 2938 2094 
Q 2938 2591 2744 2837 
Q 2550 3084 2163 3084 
Q 1697 3084 1428 2787 
Q 1159 2491 1159 1978 
L 1159 0 
L 581 0 
L 581 4863 
L 1159 4863 
L 1159 2956 
Q 1366 3272 1645 3428 
Q 1925 3584 2291 3584 
Q 2894 3584 3203 3211 
Q 3513 2838 3513 2113 
z
" transform="scale(0.015625)"/>
       <path id="DejaVuSans-3d" d="M 678 2906 
L 4684 2906 
L 4684 2381 
L 678 2381 
L 678 2906 
z
M 678 1631 
L 4684 1631 
L 4684 1100 
L 678 1100 
L 678 1631 
z
" transform="scale(0.015625)"/>
      </defs>
      <use xlink:href="#DejaVuSans-68"/>
      <use xlink:href="#DejaVuSans-20" x="63.378906"/>
      <use xlink:href="#DejaVuSans-3d" x="95.166016"/>
      <use xlink:href="#DejaVuSans-20" x="178.955078"/>
      <use xlink:href="#DejaVuSans-30" x="210.742188"/>
      <use xlink:href="#DejaVuSans-2e" x="274.365234"/>
      <use xlink:href="#DejaVuSans-30" x="306.152344"/>
      <use xlink:href="#DejaVuSans-35" x="369.775391"/>
      <use xlink:href="#DejaVuSans-73" x="433.398438"/>
     </g>
    </g>
    <g id="line2d_22">
     <path d="M 73.194688 60.209062 
L 85.194688 60.209062 
L 97.194688 60.209062 
" style="fill: none; stroke: #ff7f0e; stroke-width: 1.5; stroke-linecap: square"/>
    </g>
    <g id="text_21">
     <!-- h = 0.01s -->
     <g transform="translate(106.794688 64.409062) scale(0.12 -0.12)">
      <use xlink:href="#DejaVuSans-68"/>
      <use xlink:href="#DejaVuSans-20" x="63.378906"/>
      <use xlink:href="#DejaVuSans-3d" x="95.166016"/>
      <use xlink:href="#DejaVuSans-20" x="178.955078"/>
      <use xlink:href="#DejaVuSans-30" x="210.742188"/>
      <use xlink:href="#DejaVuSans-2e" x="274.365234"/>
      <use xlink:href="#DejaVuSans-30" x="306.152344"/>
      <use xlink:href="#DejaVuSans-31" x="369.775391"/>
      <use xlink:href="#DejaVuSans-73" x="433.398438"/>
     </g>
    </g>
    <g id="line2d_23">
     <path d="M 73.194688 77.822812 
L 85.194688 77.822812 
L 97.194688 77.822812 
" style="fill: none; stroke: #2ca02c; stroke-width: 1.5; stroke-linecap: square"/>
    </g>
    <g id="text_22">
     <!-- h = 0.005s -->
     <g transform="translate(106.794688 82.022812) scale(0.12 -0.12)">
      <use xlink:href="#DejaVuSans-68"/>
      <use xlink:href="#DejaVuSans-20" x="63.378906"/>
      <use xlink:href="#DejaVuSans-3d" x="95.166016"/>
      <use xlink:href="#DejaVuSans-20" x="178.955078"/>
      <use xlink:href="#DejaVuSans-30" x="210.742188"/>
      <use xlink:href="#DejaVuSans-2e" x="274.365234"/>
      <use xlink:href="#DejaVuSans-30" x="306.152344"/>
      <use xlink:href="#DejaVuSans-30" x="369.775391"/>
      <use xlink:href="#DejaVuSans-35" x="433.398438"/>
      <use xlink:href="#DejaVuSans-73" x="497.021484"/>
     </g>
    </g>
    <g id="line2d_24">
     <path d="M 73.194688 95.436562 
L 85.194688 95.436562 
L 97.194688 95.436562 
" style="fill: none; stroke-dasharray: 5.55,2.4; stroke-dashoffset: 0; stroke: #000000; stroke-width: 1.5"/>
    </g>
    <g id="text_23">
     <!-- v(t) = cos(t) -->
     <g transform="translate(106.794688 99.636562) scale(0.12 -0.12)">
      <defs>
       <path id="DejaVuSans-76" d="M 191 3500 
L 800 3500 
L 1894 563 
L 2988 3500 
L 3597 3500 
L 2284 0 
L 1503 0 
L 191 3500 
z
" transform="scale(0.015625)"/>
       <path id="DejaVuSans-63" d="M 3122 3366 
L 3122 2828 
Q 2878 2963 2633 3030 
Q 2388 3097 2138 3097 
Q 1578 3097 1268 2742 
Q 959 2388 959 1747 
Q 959 1106 1268 751 
Q 1578 397 2138 397 
Q 2388 397 2633 464 
Q 2878 531 3122 666 
L 3122 134 
Q 2881 22 2623 -34 
Q 2366 -91 2075 -91 
Q 1284 -91 818 406 
Q 353 903 353 1747 
Q 353 2603 823 3093 
Q 1294 3584 2113 3584 
Q 2378 3584 2631 3529 
Q 2884 3475 3122 3366 
z
" transform="scale(0.015625)"/>
       <path id="DejaVuSans-6f" d="M 1959 3097 
Q 1497 3097 1228 2736 
Q 959 2375 959 1747 
Q 959 1119 1226 758 
Q 1494 397 1959 397 
Q 2419 397 2687 759 
Q 2956 1122 2956 1747 
Q 2956 2369 2687 2733 
Q 2419 3097 1959 3097 
z
M 1959 3584 
Q 2709 3584 3137 3096 
Q 3566 2609 3566 1747 
Q 3566 888 3137 398 
Q 2709 -91 1959 -91 
Q 1206 -91 779 398 
Q 353 888 353 1747 
Q 353 2609 779 3096 
Q 1206 3584 1959 3584 
z
" transform="scale(0.015625)"/>
      </defs>
      <use xlink:href="#DejaVuSans-76"/>
      <use xlink:href="#DejaVuSans-28" x="59.179688"/>
      <use xlink:href="#DejaVuSans-74" x="98.193359"/>
      <use xlink:href="#DejaVuSans-29" x="137.402344"/>
      <use xlink:href="#DejaVuSans-20" x="176.416016"/>
      <use xlink:href="#DejaVuSans-3d" x="208.203125"/>
      <use xlink:href="#DejaVuSans-20" x="291.992188"/>
      <use xlink:href="#DejaVuSans-63" x="323.779297"/>
      <use xlink:href="#DejaVuSans-6f" x="378.759766"/>
      <use xlink:href="#DejaVuSans-73" x="439.941406"/>
      <use xlink:href="#DejaVuSans-28" x="492.041016"/>
      <use xlink:href="#DejaVuSans-74" x="531.054688"/>
      <use xlink:href="#DejaVuSans-29" x="570.263672"/>
     </g>
    </g>
   </g>
  </g>
  <g id="axes_2">
   <g id="patch_8">
    <path d="M 488.004687 382.837187 
L 849.424687 382.837187 
L 849.424687 26.877187 
L 488.004687 26.877187 
z
" style="fill: #ffffff"/>
   </g>
   <g id="matplotlib.axis_3">
    <g id="xtick_8">
     <g id="line2d_25">
      <g>
       <use xlink:href="#m8bb660fe7a" x="504.432869" y="382.837187" style="stroke: #000000; stroke-width: 0.8"/>
      </g>
     </g>
     <g id="text_24">
      <!-- 0 -->
      <g transform="translate(501.251619 397.435625) scale(0.1 -0.1)">
       <use xlink:href="#DejaVuSans-30"/>
      </g>
     </g>
    </g>
    <g id="xtick_9">
     <g id="line2d_26">
      <g>
       <use xlink:href="#m8bb660fe7a" x="556.718617" y="382.837187" style="stroke: #000000; stroke-width: 0.8"/>
      </g>
     </g>
     <g id="text_25">
      <!-- 5 -->
      <g transform="translate(553.537367 397.435625) scale(0.1 -0.1)">
       <use xlink:href="#DejaVuSans-35"/>
      </g>
     </g>
    </g>
    <g id="xtick_10">
     <g id="line2d_27">
      <g>
       <use xlink:href="#m8bb660fe7a" x="609.004364" y="382.837187" style="stroke: #000000; stroke-width: 0.8"/>
      </g>
     </g>
     <g id="text_26">
      <!-- 10 -->
      <g transform="translate(602.641864 397.435625) scale(0.1 -0.1)">
       <use xlink:href="#DejaVuSans-31"/>
       <use xlink:href="#DejaVuSans-30" x="63.623047"/>
      </g>
     </g>
    </g>
    <g id="xtick_11">
     <g id="line2d_28">
      <g>
       <use xlink:href="#m8bb660fe7a" x="661.290111" y="382.837187" style="stroke: #000000; stroke-width: 0.8"/>
      </g>
     </g>
     <g id="text_27">
      <!-- 15 -->
      <g transform="translate(654.927611 397.435625) scale(0.1 -0.1)">
       <use xlink:href="#DejaVuSans-31"/>
       <use xlink:href="#DejaVuSans-35" x="63.623047"/>
      </g>
     </g>
    </g>
    <g id="xtick_12">
     <g id="line2d_29">
      <g>
       <use xlink:href="#m8bb660fe7a" x="713.575859" y="382.837187" style="stroke: #000000; stroke-width: 0.8"/>
      </g>
     </g>
     <g id="text_28">
      <!-- 20 -->
      <g transform="translate(707.213359 397.435625) scale(0.1 -0.1)">
       <use xlink:href="#DejaVuSans-32"/>
       <use xlink:href="#DejaVuSans-30" x="63.623047"/>
      </g>
     </g>
    </g>
    <g id="xtick_13">
     <g id="line2d_30">
      <g>
       <use xlink:href="#m8bb660fe7a" x="765.861606" y="382.837187" style="stroke: #000000; stroke-width: 0.8"/>
      </g>
     </g>
     <g id="text_29">
      <!-- 25 -->
      <g transform="translate(759.499106 397.435625) scale(0.1 -0.1)">
       <use xlink:href="#DejaVuSans-32"/>
       <use xlink:href="#DejaVuSans-35" x="63.623047"/>
      </g>
     </g>
    </g>
    <g id="xtick_14">
     <g id="line2d_31">
      <g>
       <use xlink:href="#m8bb660fe7a" x="818.147353" y="382.837187" style="stroke: #000000; stroke-width: 0.8"/>
      </g>
     </g>
     <g id="text_30">
      <!-- 30 -->
      <g transform="translate(811.784853 397.435625) scale(0.1 -0.1)">
       <use xlink:href="#DejaVuSans-33"/>
       <use xlink:href="#DejaVuSans-30" x="63.623047"/>
      </g>
     </g>
    </g>
    <g id="text_31">
     <!-- t (s) -->
     <g transform="translate(654.637031 414.153125) scale(0.14 -0.14)">
      <use xlink:href="#DejaVuSans-74"/>
      <use xlink:href="#DejaVuSans-20" x="39.208984"/>
      <use xlink:href="#DejaVuSans-28" x="70.996094"/>
      <use xlink:href="#DejaVuSans-73" x="110.009766"/>
      <use xlink:href="#DejaVuSans-29" x="162.109375"/>
     </g>
    </g>
   </g>
   <g id="matplotlib.axis_4">
    <g id="ytick_10">
     <g id="line2d_32">
      <g>
       <use xlink:href="#m99c01ad1c2" x="488.004687" y="366.657187" style="stroke: #000000; stroke-width: 0.8"/>
      </g>
     </g>
     <g id="text_32">
      <!-- 0.000 -->
      <g transform="translate(452.376562 370.456406) scale(0.1 -0.1)">
       <use xlink:href="#DejaVuSans-30"/>
       <use xlink:href="#DejaVuSans-2e" x="63.623047"/>
       <use xlink:href="#DejaVuSans-30" x="95.410156"/>
       <use xlink:href="#DejaVuSans-30" x="159.033203"/>
       <use xlink:href="#DejaVuSans-30" x="222.65625"/>
      </g>
     </g>
    </g>
    <g id="ytick_11">
     <g id="line2d_33">
      <g>
       <use xlink:href="#m99c01ad1c2" x="488.004687" y="314.702919" style="stroke: #000000; stroke-width: 0.8"/>
      </g>
     </g>
     <g id="text_33">
      <!-- 0.002 -->
      <g transform="translate(452.376562 318.502138) scale(0.1 -0.1)">
       <use xlink:href="#DejaVuSans-30"/>
       <use xlink:href="#DejaVuSans-2e" x="63.623047"/>
       <use xlink:href="#DejaVuSans-30" x="95.410156"/>
       <use xlink:href="#DejaVuSans-30" x="159.033203"/>
       <use xlink:href="#DejaVuSans-32" x="222.65625"/>
      </g>
     </g>
    </g>
    <g id="ytick_12">
     <g id="line2d_34">
      <g>
       <use xlink:href="#m99c01ad1c2" x="488.004687" y="262.748651" style="stroke: #000000; stroke-width: 0.8"/>
      </g>
     </g>
     <g id="text_34">
      <!-- 0.004 -->
      <g transform="translate(452.376562 266.54787) scale(0.1 -0.1)">
       <defs>
        <path id="DejaVuSans-34" d="M 2419 4116 
L 825 1625 
L 2419 1625 
L 2419 4116 
z
M 2253 4666 
L 3047 4666 
L 3047 1625 
L 3713 1625 
L 3713 1100 
L 3047 1100 
L 3047 0 
L 2419 0 
L 2419 1100 
L 313 1100 
L 313 1709 
L 2253 4666 
z
" transform="scale(0.015625)"/>
       </defs>
       <use xlink:href="#DejaVuSans-30"/>
       <use xlink:href="#DejaVuSans-2e" x="63.623047"/>
       <use xlink:href="#DejaVuSans-30" x="95.410156"/>
       <use xlink:href="#DejaVuSans-30" x="159.033203"/>
       <use xlink:href="#DejaVuSans-34" x="222.65625"/>
      </g>
     </g>
    </g>
    <g id="ytick_13">
     <g id="line2d_35">
      <g>
       <use xlink:href="#m99c01ad1c2" x="488.004687" y="210.794382" style="stroke: #000000; stroke-width: 0.8"/>
      </g>
     </g>
     <g id="text_35">
      <!-- 0.006 -->
      <g transform="translate(452.376562 214.593601) scale(0.1 -0.1)">
       <defs>
        <path id="DejaVuSans-36" d="M 2113 2584 
Q 1688 2584 1439 2293 
Q 1191 2003 1191 1497 
Q 1191 994 1439 701 
Q 1688 409 2113 409 
Q 2538 409 2786 701 
Q 3034 994 3034 1497 
Q 3034 2003 2786 2293 
Q 2538 2584 2113 2584 
z
M 3366 4563 
L 3366 3988 
Q 3128 4100 2886 4159 
Q 2644 4219 2406 4219 
Q 1781 4219 1451 3797 
Q 1122 3375 1075 2522 
Q 1259 2794 1537 2939 
Q 1816 3084 2150 3084 
Q 2853 3084 3261 2657 
Q 3669 2231 3669 1497 
Q 3669 778 3244 343 
Q 2819 -91 2113 -91 
Q 1303 -91 875 529 
Q 447 1150 447 2328 
Q 447 3434 972 4092 
Q 1497 4750 2381 4750 
Q 2619 4750 2861 4703 
Q 3103 4656 3366 4563 
z
" transform="scale(0.015625)"/>
       </defs>
       <use xlink:href="#DejaVuSans-30"/>
       <use xlink:href="#DejaVuSans-2e" x="63.623047"/>
       <use xlink:href="#DejaVuSans-30" x="95.410156"/>
       <use xlink:href="#DejaVuSans-30" x="159.033203"/>
       <use xlink:href="#DejaVuSans-36" x="222.65625"/>
      </g>
     </g>
    </g>
    <g id="ytick_14">
     <g id="line2d_36">
      <g>
       <use xlink:href="#m99c01ad1c2" x="488.004687" y="158.840114" style="stroke: #000000; stroke-width: 0.8"/>
      </g>
     </g>
     <g id="text_36">
      <!-- 0.008 -->
      <g transform="translate(452.376562 162.639333) scale(0.1 -0.1)">
       <defs>
        <path id="DejaVuSans-38" d="M 2034 2216 
Q 1584 2216 1326 1975 
Q 1069 1734 1069 1313 
Q 1069 891 1326 650 
Q 1584 409 2034 409 
Q 2484 409 2743 651 
Q 3003 894 3003 1313 
Q 3003 1734 2745 1975 
Q 2488 2216 2034 2216 
z
M 1403 2484 
Q 997 2584 770 2862 
Q 544 3141 544 3541 
Q 544 4100 942 4425 
Q 1341 4750 2034 4750 
Q 2731 4750 3128 4425 
Q 3525 4100 3525 3541 
Q 3525 3141 3298 2862 
Q 3072 2584 2669 2484 
Q 3125 2378 3379 2068 
Q 3634 1759 3634 1313 
Q 3634 634 3220 271 
Q 2806 -91 2034 -91 
Q 1263 -91 848 271 
Q 434 634 434 1313 
Q 434 1759 690 2068 
Q 947 2378 1403 2484 
z
M 1172 3481 
Q 1172 3119 1398 2916 
Q 1625 2713 2034 2713 
Q 2441 2713 2670 2916 
Q 2900 3119 2900 3481 
Q 2900 3844 2670 4047 
Q 2441 4250 2034 4250 
Q 1625 4250 1398 4047 
Q 1172 3844 1172 3481 
z
" transform="scale(0.015625)"/>
       </defs>
       <use xlink:href="#DejaVuSans-30"/>
       <use xlink:href="#DejaVuSans-2e" x="63.623047"/>
       <use xlink:href="#DejaVuSans-30" x="95.410156"/>
       <use xlink:href="#DejaVuSans-30" x="159.033203"/>
       <use xlink:href="#DejaVuSans-38" x="222.65625"/>
      </g>
     </g>
    </g>
    <g id="ytick_15">
     <g id="line2d_37">
      <g>
       <use xlink:href="#m99c01ad1c2" x="488.004687" y="106.885846" style="stroke: #000000; stroke-width: 0.8"/>
      </g>
     </g>
     <g id="text_37">
      <!-- 0.010 -->
      <g transform="translate(452.376562 110.685065) scale(0.1 -0.1)">
       <use xlink:href="#DejaVuSans-30"/>
       <use xlink:href="#DejaVuSans-2e" x="63.623047"/>
       <use xlink:href="#DejaVuSans-30" x="95.410156"/>
       <use xlink:href="#DejaVuSans-31" x="159.033203"/>
       <use xlink:href="#DejaVuSans-30" x="222.65625"/>
      </g>
     </g>
    </g>
    <g id="ytick_16">
     <g id="line2d_38">
      <g>
       <use xlink:href="#m99c01ad1c2" x="488.004687" y="54.931577" style="stroke: #000000; stroke-width: 0.8"/>
      </g>
     </g>
     <g id="text_38">
      <!-- 0.012 -->
      <g transform="translate(452.376562 58.730796) scale(0.1 -0.1)">
       <use xlink:href="#DejaVuSans-30"/>
       <use xlink:href="#DejaVuSans-2e" x="63.623047"/>
       <use xlink:href="#DejaVuSans-30" x="95.410156"/>
       <use xlink:href="#DejaVuSans-31" x="159.033203"/>
       <use xlink:href="#DejaVuSans-32" x="222.65625"/>
      </g>
     </g>
    </g>
    <g id="text_39">
     <!-- Difference between Numerical and Exact Solution -->
     <g transform="translate(445.465 379.280781) rotate(-90) scale(0.14 -0.14)">
      <defs>
       <path id="DejaVuSans-44" d="M 1259 4147 
L 1259 519 
L 2022 519 
Q 2988 519 3436 956 
Q 3884 1394 3884 2338 
Q 3884 3275 3436 3711 
Q 2988 4147 2022 4147 
L 1259 4147 
z
M 628 4666 
L 1925 4666 
Q 3281 4666 3915 4102 
Q 4550 3538 4550 2338 
Q 4550 1131 3912 565 
Q 3275 0 1925 0 
L 628 0 
L 628 4666 
z
" transform="scale(0.015625)"/>
       <path id="DejaVuSans-69" d="M 603 3500 
L 1178 3500 
L 1178 0 
L 603 0 
L 603 3500 
z
M 603 4863 
L 1178 4863 
L 1178 4134 
L 603 4134 
L 603 4863 
z
" transform="scale(0.015625)"/>
       <path id="DejaVuSans-66" d="M 2375 4863 
L 2375 4384 
L 1825 4384 
Q 1516 4384 1395 4259 
Q 1275 4134 1275 3809 
L 1275 3500 
L 2222 3500 
L 2222 3053 
L 1275 3053 
L 1275 0 
L 697 0 
L 697 3053 
L 147 3053 
L 147 3500 
L 697 3500 
L 697 3744 
Q 697 4328 969 4595 
Q 1241 4863 1831 4863 
L 2375 4863 
z
" transform="scale(0.015625)"/>
       <path id="DejaVuSans-65" d="M 3597 1894 
L 3597 1613 
L 953 1613 
Q 991 1019 1311 708 
Q 1631 397 2203 397 
Q 2534 397 2845 478 
Q 3156 559 3463 722 
L 3463 178 
Q 3153 47 2828 -22 
Q 2503 -91 2169 -91 
Q 1331 -91 842 396 
Q 353 884 353 1716 
Q 353 2575 817 3079 
Q 1281 3584 2069 3584 
Q 2775 3584 3186 3129 
Q 3597 2675 3597 1894 
z
M 3022 2063 
Q 3016 2534 2758 2815 
Q 2500 3097 2075 3097 
Q 1594 3097 1305 2825 
Q 1016 2553 972 2059 
L 3022 2063 
z
" transform="scale(0.015625)"/>
       <path id="DejaVuSans-72" d="M 2631 2963 
Q 2534 3019 2420 3045 
Q 2306 3072 2169 3072 
Q 1681 3072 1420 2755 
Q 1159 2438 1159 1844 
L 1159 0 
L 581 0 
L 581 3500 
L 1159 3500 
L 1159 2956 
Q 1341 3275 1631 3429 
Q 1922 3584 2338 3584 
Q 2397 3584 2469 3576 
Q 2541 3569 2628 3553 
L 2631 2963 
z
" transform="scale(0.015625)"/>
       <path id="DejaVuSans-6e" d="M 3513 2113 
L 3513 0 
L 2938 0 
L 2938 2094 
Q 2938 2591 2744 2837 
Q 2550 3084 2163 3084 
Q 1697 3084 1428 2787 
Q 1159 2491 1159 1978 
L 1159 0 
L 581 0 
L 581 3500 
L 1159 3500 
L 1159 2956 
Q 1366 3272 1645 3428 
Q 1925 3584 2291 3584 
Q 2894 3584 3203 3211 
Q 3513 2838 3513 2113 
z
" transform="scale(0.015625)"/>
       <path id="DejaVuSans-62" d="M 3116 1747 
Q 3116 2381 2855 2742 
Q 2594 3103 2138 3103 
Q 1681 3103 1420 2742 
Q 1159 2381 1159 1747 
Q 1159 1113 1420 752 
Q 1681 391 2138 391 
Q 2594 391 2855 752 
Q 3116 1113 3116 1747 
z
M 1159 2969 
Q 1341 3281 1617 3432 
Q 1894 3584 2278 3584 
Q 2916 3584 3314 3078 
Q 3713 2572 3713 1747 
Q 3713 922 3314 415 
Q 2916 -91 2278 -91 
Q 1894 -91 1617 61 
Q 1341 213 1159 525 
L 1159 0 
L 581 0 
L 581 4863 
L 1159 4863 
L 1159 2969 
z
" transform="scale(0.015625)"/>
       <path id="DejaVuSans-77" d="M 269 3500 
L 844 3500 
L 1563 769 
L 2278 3500 
L 2956 3500 
L 3675 769 
L 4391 3500 
L 4966 3500 
L 4050 0 
L 3372 0 
L 2619 2869 
L 1863 0 
L 1184 0 
L 269 3500 
z
" transform="scale(0.015625)"/>
       <path id="DejaVuSans-4e" d="M 628 4666 
L 1478 4666 
L 3547 763 
L 3547 4666 
L 4159 4666 
L 4159 0 
L 3309 0 
L 1241 3903 
L 1241 0 
L 628 0 
L 628 4666 
z
" transform="scale(0.015625)"/>
       <path id="DejaVuSans-75" d="M 544 1381 
L 544 3500 
L 1119 3500 
L 1119 1403 
Q 1119 906 1312 657 
Q 1506 409 1894 409 
Q 2359 409 2629 706 
Q 2900 1003 2900 1516 
L 2900 3500 
L 3475 3500 
L 3475 0 
L 2900 0 
L 2900 538 
Q 2691 219 2414 64 
Q 2138 -91 1772 -91 
Q 1169 -91 856 284 
Q 544 659 544 1381 
z
M 1991 3584 
L 1991 3584 
z
" transform="scale(0.015625)"/>
       <path id="DejaVuSans-6d" d="M 3328 2828 
Q 3544 3216 3844 3400 
Q 4144 3584 4550 3584 
Q 5097 3584 5394 3201 
Q 5691 2819 5691 2113 
L 5691 0 
L 5113 0 
L 5113 2094 
Q 5113 2597 4934 2840 
Q 4756 3084 4391 3084 
Q 3944 3084 3684 2787 
Q 3425 2491 3425 1978 
L 3425 0 
L 2847 0 
L 2847 2094 
Q 2847 2600 2669 2842 
Q 2491 3084 2119 3084 
Q 1678 3084 1418 2786 
Q 1159 2488 1159 1978 
L 1159 0 
L 581 0 
L 581 3500 
L 1159 3500 
L 1159 2956 
Q 1356 3278 1631 3431 
Q 1906 3584 2284 3584 
Q 2666 3584 2933 3390 
Q 3200 3197 3328 2828 
z
" transform="scale(0.015625)"/>
       <path id="DejaVuSans-6c" d="M 603 4863 
L 1178 4863 
L 1178 0 
L 603 0 
L 603 4863 
z
" transform="scale(0.015625)"/>
       <path id="DejaVuSans-64" d="M 2906 2969 
L 2906 4863 
L 3481 4863 
L 3481 0 
L 2906 0 
L 2906 525 
Q 2725 213 2448 61 
Q 2172 -91 1784 -91 
Q 1150 -91 751 415 
Q 353 922 353 1747 
Q 353 2572 751 3078 
Q 1150 3584 1784 3584 
Q 2172 3584 2448 3432 
Q 2725 3281 2906 2969 
z
M 947 1747 
Q 947 1113 1208 752 
Q 1469 391 1925 391 
Q 2381 391 2643 752 
Q 2906 1113 2906 1747 
Q 2906 2381 2643 2742 
Q 2381 3103 1925 3103 
Q 1469 3103 1208 2742 
Q 947 2381 947 1747 
z
" transform="scale(0.015625)"/>
       <path id="DejaVuSans-45" d="M 628 4666 
L 3578 4666 
L 3578 4134 
L 1259 4134 
L 1259 2753 
L 3481 2753 
L 3481 2222 
L 1259 2222 
L 1259 531 
L 3634 531 
L 3634 0 
L 628 0 
L 628 4666 
z
" transform="scale(0.015625)"/>
       <path id="DejaVuSans-53" d="M 3425 4513 
L 3425 3897 
Q 3066 4069 2747 4153 
Q 2428 4238 2131 4238 
Q 1616 4238 1336 4038 
Q 1056 3838 1056 3469 
Q 1056 3159 1242 3001 
Q 1428 2844 1947 2747 
L 2328 2669 
Q 3034 2534 3370 2195 
Q 3706 1856 3706 1288 
Q 3706 609 3251 259 
Q 2797 -91 1919 -91 
Q 1588 -91 1214 -16 
Q 841 59 441 206 
L 441 856 
Q 825 641 1194 531 
Q 1563 422 1919 422 
Q 2459 422 2753 634 
Q 3047 847 3047 1241 
Q 3047 1584 2836 1778 
Q 2625 1972 2144 2069 
L 1759 2144 
Q 1053 2284 737 2584 
Q 422 2884 422 3419 
Q 422 4038 858 4394 
Q 1294 4750 2059 4750 
Q 2388 4750 2728 4690 
Q 3069 4631 3425 4513 
z
" transform="scale(0.015625)"/>
      </defs>
      <use xlink:href="#DejaVuSans-44"/>
      <use xlink:href="#DejaVuSans-69" x="77.001953"/>
      <use xlink:href="#DejaVuSans-66" x="104.785156"/>
      <use xlink:href="#DejaVuSans-66" x="139.990234"/>
      <use xlink:href="#DejaVuSans-65" x="175.195312"/>
      <use xlink:href="#DejaVuSans-72" x="236.71875"/>
      <use xlink:href="#DejaVuSans-65" x="275.582031"/>
      <use xlink:href="#DejaVuSans-6e" x="337.105469"/>
      <use xlink:href="#DejaVuSans-63" x="400.484375"/>
      <use xlink:href="#DejaVuSans-65" x="455.464844"/>
      <use xlink:href="#DejaVuSans-20" x="516.988281"/>
      <use xlink:href="#DejaVuSans-62" x="548.775391"/>
      <use xlink:href="#DejaVuSans-65" x="612.251953"/>
      <use xlink:href="#DejaVuSans-74" x="673.775391"/>
      <use xlink:href="#DejaVuSans-77" x="712.984375"/>
      <use xlink:href="#DejaVuSans-65" x="794.771484"/>
      <use xlink:href="#DejaVuSans-65" x="856.294922"/>
      <use xlink:href="#DejaVuSans-6e" x="917.818359"/>
      <use xlink:href="#DejaVuSans-20" x="981.197266"/>
      <use xlink:href="#DejaVuSans-4e" x="1012.984375"/>
      <use xlink:href="#DejaVuSans-75" x="1087.789062"/>
      <use xlink:href="#DejaVuSans-6d" x="1151.167969"/>
      <use xlink:href="#DejaVuSans-65" x="1248.580078"/>
      <use xlink:href="#DejaVuSans-72" x="1310.103516"/>
      <use xlink:href="#DejaVuSans-69" x="1351.216797"/>
      <use xlink:href="#DejaVuSans-63" x="1379"/>
      <use xlink:href="#DejaVuSans-61" x="1433.980469"/>
      <use xlink:href="#DejaVuSans-6c" x="1495.259766"/>
      <use xlink:href="#DejaVuSans-20" x="1523.042969"/>
      <use xlink:href="#DejaVuSans-61" x="1554.830078"/>
      <use xlink:href="#DejaVuSans-6e" x="1616.109375"/>
      <use xlink:href="#DejaVuSans-64" x="1679.488281"/>
      <use xlink:href="#DejaVuSans-20" x="1742.964844"/>
      <use xlink:href="#DejaVuSans-45" x="1774.751953"/>
      <use xlink:href="#DejaVuSans-78" x="1837.935547"/>
      <use xlink:href="#DejaVuSans-61" x="1897.115234"/>
      <use xlink:href="#DejaVuSans-63" x="1958.394531"/>
      <use xlink:href="#DejaVuSans-74" x="2013.375"/>
      <use xlink:href="#DejaVuSans-20" x="2052.583984"/>
      <use xlink:href="#DejaVuSans-53" x="2084.371094"/>
      <use xlink:href="#DejaVuSans-6f" x="2147.847656"/>
      <use xlink:href="#DejaVuSans-6c" x="2209.029297"/>
      <use xlink:href="#DejaVuSans-75" x="2236.8125"/>
      <use xlink:href="#DejaVuSans-74" x="2300.191406"/>
      <use xlink:href="#DejaVuSans-69" x="2339.400391"/>
      <use xlink:href="#DejaVuSans-6f" x="2367.183594"/>
      <use xlink:href="#DejaVuSans-6e" x="2428.365234"/>
     </g>
    </g>
   </g>
   <g id="line2d_39">
    <path d="M 504.432869 366.657187 
L 505.478584 366.589575 
L 506.524299 366.30691 
L 507.570014 365.814443 
L 508.615729 365.121656 
L 510.184302 363.737629 
L 511.752874 361.996245 
L 513.844304 359.258032 
L 520.118594 350.516638 
L 521.687166 348.814299 
L 522.732881 347.906961 
L 523.778596 347.217649 
L 524.824311 346.774466 
L 525.870026 346.60254 
L 526.915741 346.723559 
L 527.961456 347.15536 
L 529.007171 347.91156 
L 530.052886 349.001237 
L 531.0986 350.428678 
L 532.144315 352.193178 
L 533.19003 354.28892 
L 534.758603 358.028138 
L 536.327175 362.427871 
L 537.37289 365.687426 
L 537.895748 365.910403 
L 539.987178 358.568683 
L 543.64718 344.69702 
L 546.784325 333.103144 
L 548.875755 326.266223 
L 550.444327 321.903808 
L 551.490042 319.452352 
L 552.535757 317.419483 
L 553.581472 315.846707 
L 554.627187 314.771251 
L 555.150044 314.430336 
L 555.672902 314.225477 
L 556.195759 314.15987 
L 556.718617 314.236343 
L 557.241474 314.457342 
L 557.764332 314.824917 
L 558.810047 316.005955 
L 559.855762 317.787548 
L 560.901476 320.170842 
L 561.947191 323.149836 
L 562.992906 326.711268 
L 564.561479 333.098522 
L 566.130051 340.648506 
L 567.698624 349.226119 
L 569.790054 361.96648 
L 570.312911 365.335452 
L 570.835768 364.552545 
L 579.201488 309.506671 
L 580.77006 300.999594 
L 582.338633 293.69762 
L 583.384348 289.612486 
L 584.430063 286.225401 
L 585.475778 283.590932 
L 586.521493 281.756638 
L 587.04435 281.15233 
L 587.567208 280.762378 
L 588.090065 280.590461 
L 588.612923 280.639705 
L 589.13578 280.912668 
L 589.658638 281.411326 
L 590.181495 282.137065 
L 591.22721 284.272301 
L 592.272925 287.317257 
L 593.31864 291.260861 
L 594.364355 296.082004 
L 595.41007 301.749564 
L 596.978642 311.745633 
L 598.547215 323.373133 
L 600.638644 341.02083 
L 603.252932 365.601477 
L 603.775789 362.577061 
L 610.050079 301.3858 
L 612.141509 283.64854 
L 613.710081 272.099153 
L 615.278654 262.407835 
L 616.324369 257.119879 
L 617.370084 252.85661 
L 618.415799 249.681408 
L 618.938656 248.518822 
L 619.461513 247.647274 
L 619.984371 247.071647 
L 620.507228 246.796085 
L 621.030086 246.823981 
L 621.552943 247.157958 
L 622.075801 247.799861 
L 622.598658 248.750739 
L 623.121516 250.010839 
L 624.167231 253.455649 
L 625.212946 258.120016 
L 626.258661 263.976592 
L 627.304376 270.985041 
L 628.872948 283.537906 
L 630.44152 298.32905 
L 632.010093 315.068811 
L 634.101523 339.820507 
L 636.192953 366.485608 
L 638.284383 339.296378 
L 641.944385 292.396302 
L 644.035815 268.272956 
L 645.604387 252.287187 
L 647.17296 238.568835 
L 648.218675 230.866979 
L 649.264389 224.433944 
L 650.310104 219.354169 
L 651.355819 215.699254 
L 651.878677 214.424751 
L 652.401534 213.527029 
L 652.924392 213.011036 
L 653.447249 212.880767 
L 653.970107 213.139252 
L 654.492964 213.788535 
L 655.015822 214.829667 
L 655.538679 216.262695 
L 656.584394 220.299572 
L 657.630109 225.879275 
L 658.675824 232.965691 
L 659.721539 241.506654 
L 661.290111 256.892693 
L 662.858684 275.102537 
L 664.427256 295.772094 
L 666.518686 326.409096 
L 669.132973 365.326526 
L 674.361548 281.10771 
L 676.452978 250.86489 
L 678.021551 230.717588 
L 679.590123 213.306996 
L 680.635838 203.444957 
L 681.681553 195.117838 
L 682.727268 188.428678 
L 683.772983 183.464906 
L 684.29584 181.652828 
L 684.818698 180.29727 
L 685.341555 179.404318 
L 685.864413 178.978911 
L 686.38727 179.024816 
L 686.910128 179.544621 
L 687.432985 180.539715 
L 687.955843 182.01028 
L 688.4787 183.955285 
L 689.524415 189.258395 
L 690.57013 196.416434 
L 691.615845 205.377433 
L 692.66156 216.070388 
L 694.230132 235.156539 
L 695.798705 257.557821 
L 697.890135 291.779359 
L 700.504422 339.709444 
L 701.550137 359.895819 
L 702.072994 363.206271 
L 706.778712 272.36258 
L 708.870141 235.737323 
L 710.438714 211.171591 
L 712.007286 189.76693 
L 713.575859 172.060881 
L 714.621574 162.542639 
L 715.667289 154.989803 
L 716.713004 149.498497 
L 717.235861 147.550499 
L 717.758719 146.144782 
L 718.281576 145.28756 
L 718.804433 144.983682 
L 719.327291 145.236613 
L 719.850148 146.048421 
L 720.373006 147.419761 
L 720.895863 149.349872 
L 721.418721 151.836567 
L 722.464436 158.463845 
L 723.510151 167.255685 
L 724.555866 178.143701 
L 725.601581 191.03753 
L 727.170153 213.889392 
L 728.738725 240.537146 
L 730.830155 281.001395 
L 733.444443 337.312325 
L 734.490158 360.923276 
L 735.013015 360.468202 
L 739.718732 255.043083 
L 741.810162 212.8957 
L 743.378735 184.77857 
L 744.947307 160.418695 
L 745.993022 146.568217 
L 747.038737 134.815062 
L 748.084452 125.296228 
L 749.130167 118.127212 
L 749.653024 115.453759 
L 750.175882 113.400648 
L 750.698739 111.975698 
L 751.221597 111.185174 
L 751.744454 111.033757 
L 752.267312 111.524532 
L 752.790169 112.65897 
L 753.313027 114.436916 
L 753.835884 116.856589 
L 754.881599 123.605819 
L 755.927314 132.859814 
L 756.973029 144.545937 
L 758.018744 158.566289 
L 759.587316 183.699374 
L 761.155889 213.293178 
L 762.724461 246.729143 
L 764.815891 296.041572 
L 767.430179 362.569175 
L 767.953036 357.112618 
L 772.135896 249.851953 
L 774.227326 200.958233 
L 775.795898 168.065846 
L 777.36447 139.291849 
L 778.933043 115.33787 
L 779.978758 102.347197 
L 781.024473 91.917198 
L 782.070188 84.172542 
L 782.593045 81.339038 
L 783.115903 79.211665 
L 783.63876 77.798433 
L 784.161618 77.105577 
L 784.684475 77.137536 
L 785.207333 77.896935 
L 785.73019 79.38457 
L 786.253048 81.599403 
L 786.775905 84.538553 
L 787.82162 92.569088 
L 788.867335 103.416463 
L 789.91305 116.992038 
L 790.958765 133.178932 
L 792.527337 162.033045 
L 794.09591 195.837709 
L 796.18734 247.362617 
L 798.801627 319.31505 
L 800.370199 364.833535 
L 800.893057 353.139923 
L 805.075917 232.923776 
L 807.167346 178.444316 
L 808.735919 141.943954 
L 810.304491 110.151977 
L 811.873064 83.838248 
L 812.918779 69.667098 
L 813.964494 58.385101 
L 815.010209 50.125509 
L 815.533066 47.162692 
L 816.055924 44.99195 
L 816.578781 43.621406 
L 817.101638 43.057187 
L 817.624496 43.303414 
L 818.147353 44.362172 
L 818.670211 46.233509 
L 819.193068 48.915422 
L 819.715926 52.403858 
L 820.761641 61.773865 
L 821.807356 74.270367 
L 822.853071 89.78816 
L 823.898786 108.190854 
L 825.467358 140.832238 
L 827.03593 178.903515 
L 829.12736 236.695026 
L 831.741648 317.052114 
L 832.787363 350.720275 
L 832.787363 350.720275 
" clip-path="url(#p87674d640d)" style="fill: none; stroke: #1f77b4; stroke-width: 1.5; stroke-linecap: square"/>
   </g>
   <g id="line2d_40">
    <path d="M 504.432869 366.657187 
L 509.870587 366.54679 
L 518.027164 366.116004 
L 524.510596 365.873985 
L 529.007171 365.927981 
L 533.294602 366.203911 
L 538.209462 366.54413 
L 552.640328 364.673311 
L 556.091188 364.570028 
L 559.332904 364.696208 
L 562.57462 365.050746 
L 566.02548 365.662643 
L 570.103768 366.628277 
L 570.417482 366.604281 
L 580.979203 363.94125 
L 584.116348 363.45377 
L 586.939779 363.242594 
L 589.554066 363.268837 
L 592.168353 363.520482 
L 594.782641 363.994166 
L 597.606071 364.73305 
L 600.847787 365.816462 
L 603.252932 366.584362 
L 611.618651 363.419188 
L 614.546653 362.598729 
L 617.056369 362.120281 
L 619.356942 361.899449 
L 621.552943 361.901936 
L 623.748945 362.120783 
L 626.049518 362.57977 
L 628.454662 363.295482 
L 631.068949 364.311853 
L 634.206094 365.781205 
L 635.98381 366.623233 
L 643.303814 362.925826 
L 646.022673 361.834057 
L 648.323246 361.134862 
L 650.519247 360.700757 
L 652.506106 360.527322 
L 654.492964 360.574993 
L 656.479823 360.847915 
L 658.466681 361.341894 
L 660.558111 362.086741 
L 662.858684 363.14341 
L 665.577543 364.651564 
L 668.92383 366.557299 
L 675.407263 362.460089 
L 678.021551 361.096539 
L 680.217552 360.188716 
L 682.20441 359.596221 
L 684.086697 359.260914 
L 685.864413 359.160796 
L 687.642128 359.278395 
L 689.419843 359.614504 
L 691.30213 360.20214 
L 693.288989 361.064985 
L 695.48499 362.276726 
L 697.994706 363.932562 
L 701.340994 366.437919 
L 701.654708 366.631865 
L 707.824427 361.950407 
L 710.334142 360.348602 
L 712.425572 359.26088 
L 714.307859 358.517792 
L 716.085575 358.048125 
L 717.758719 357.828351 
L 719.431862 357.833506 
L 721.105006 358.066982 
L 722.77815 358.526263 
L 724.555866 359.252114 
L 726.438153 360.268703 
L 728.529582 361.662351 
L 730.934727 363.543379 
L 734.176443 366.386461 
L 734.490158 366.64257 
L 740.346161 361.456148 
L 742.751306 359.637453 
L 744.842736 358.32733 
L 746.725023 357.414645 
L 748.398166 356.844128 
L 749.966739 356.531934 
L 751.535311 356.445404 
L 753.103884 356.589392 
L 754.672456 356.963544 
L 756.241029 357.562251 
L 757.914172 358.436104 
L 759.796459 359.685417 
L 761.887889 361.360468 
L 764.397605 363.682366 
L 767.325607 366.656841 
L 767.430179 366.548647 
L 772.867896 361.039013 
L 775.273041 358.932202 
L 777.259899 357.46923 
L 779.037614 356.423766 
L 780.710758 355.698901 
L 782.279331 355.267514 
L 783.743332 355.09304 
L 785.207333 355.144843 
L 786.671334 355.42427 
L 788.135334 355.928169 
L 789.703907 356.708389 
L 791.377051 357.797955 
L 793.259338 359.31031 
L 795.350768 361.292668 
L 797.965055 364.104766 
L 800.265628 366.554282 
L 805.494203 360.589556 
L 807.899347 358.200033 
L 809.886205 356.531512 
L 811.663921 355.330092 
L 813.232493 354.530761 
L 814.696494 354.02455 
L 816.055924 353.772908 
L 817.415353 353.737943 
L 818.774782 353.922141 
L 820.134212 354.32427 
L 821.598213 354.995282 
L 823.166785 355.975701 
L 824.839929 357.297863 
L 826.722216 359.08796 
L 828.918217 361.510204 
L 831.741648 364.992335 
L 832.996506 366.614136 
L 832.996506 366.614136 
" clip-path="url(#p87674d640d)" style="fill: none; stroke: #ff7f0e; stroke-width: 1.5; stroke-linecap: square"/>
   </g>
   <g id="line2d_41">
    <path d="M 504.432869 366.657187 
L 516.301734 366.546015 
L 528.954885 366.47505 
L 541.974036 366.49004 
L 553.947472 366.144772 
L 560.535476 366.194508 
L 567.175766 366.473398 
L 571.149483 366.593004 
L 583.645777 365.869834 
L 589.13578 365.806067 
L 594.312069 365.968486 
L 600.063501 366.380304 
L 603.671218 366.594064 
L 614.285225 365.656251 
L 619.200085 365.469626 
L 623.696659 365.522938 
L 628.245519 365.802477 
L 633.578665 366.365348 
L 636.34981 366.595893 
L 645.81353 365.466932 
L 650.310104 365.174693 
L 654.336107 365.134736 
L 658.309824 365.31982 
L 662.544969 365.744384 
L 667.878116 366.519157 
L 669.080688 366.600415 
L 677.760122 365.293704 
L 681.942982 364.906016 
L 685.65527 364.783541 
L 689.262986 364.889581 
L 692.975274 365.22599 
L 697.158134 365.837829 
L 702.072994 366.56162 
L 709.915856 365.136305 
L 713.889573 364.655341 
L 717.340433 364.457981 
L 720.634435 364.489457 
L 723.980722 364.745159 
L 727.588439 365.250419 
L 731.87587 366.086502 
L 734.699301 366.597258 
L 742.33302 364.969455 
L 746.097594 364.411006 
L 749.391596 364.146748 
L 752.476455 364.120305 
L 755.561314 364.315894 
L 758.80303 364.747606 
L 762.463033 365.468058 
L 767.691607 366.552138 
L 774.750183 364.825839 
L 778.3579 364.185796 
L 781.495045 363.853765 
L 784.423046 363.765766 
L 787.298762 363.899668 
L 790.27905 364.262605 
L 793.520766 364.887016 
L 797.442197 365.883294 
L 800.370199 366.58988 
L 807.271918 364.681376 
L 810.722777 363.969155 
L 813.703065 363.575305 
L 816.526495 363.426847 
L 819.245354 363.505025 
L 822.016499 363.806436 
L 824.996786 364.360251 
L 828.343074 365.215177 
L 832.94422 366.641508 
L 832.94422 366.641508 
" clip-path="url(#p87674d640d)" style="fill: none; stroke: #2ca02c; stroke-width: 1.5; stroke-linecap: square"/>
   </g>
   <g id="patch_9">
    <path d="M 488.004687 382.837187 
L 488.004687 26.877187 
" style="fill: none; stroke: #000000; stroke-width: 0.8; stroke-linejoin: miter; stroke-linecap: square"/>
   </g>
   <g id="patch_10">
    <path d="M 849.424687 382.837187 
L 849.424687 26.877187 
" style="fill: none; stroke: #000000; stroke-width: 0.8; stroke-linejoin: miter; stroke-linecap: square"/>
   </g>
   <g id="patch_11">
    <path d="M 488.004687 382.837187 
L 849.424687 382.837187 
" style="fill: none; stroke: #000000; stroke-width: 0.8; stroke-linejoin: miter; stroke-linecap: square"/>
   </g>
   <g id="patch_12">
    <path d="M 488.004687 26.877187 
L 849.424687 26.877187 
" style="fill: none; stroke: #000000; stroke-width: 0.8; stroke-linejoin: miter; stroke-linecap: square"/>
   </g>
   <g id="text_40">
    <!-- (b) -->
    <g transform="translate(655.978281 20.877187) scale(0.18 -0.18)">
     <use xlink:href="#DejaVuSans-28"/>
     <use xlink:href="#DejaVuSans-62" x="39.013672"/>
     <use xlink:href="#DejaVuSans-29" x="102.490234"/>
    </g>
   </g>
   <g id="legend_2">
    <g id="patch_13">
     <path d="M 496.404687 89.318437 
L 600.697812 89.318437 
Q 603.097812 89.318437 603.097812 86.918437 
L 603.097812 35.277187 
Q 603.097812 32.877187 600.697812 32.877187 
L 496.404687 32.877187 
Q 494.004687 32.877187 494.004687 35.277187 
L 494.004687 86.918437 
Q 494.004687 89.318437 496.404687 89.318437 
z
" style="fill: #ffffff; opacity: 0.8; stroke: #cccccc; stroke-linejoin: miter"/>
    </g>
    <g id="line2d_42">
     <path d="M 498.804687 42.595312 
L 510.804687 42.595312 
L 522.804687 42.595312 
" style="fill: none; stroke: #1f77b4; stroke-width: 1.5; stroke-linecap: square"/>
    </g>
    <g id="text_41">
     <!-- h = 0.05s -->
     <g transform="translate(532.404687 46.795312) scale(0.12 -0.12)">
      <use xlink:href="#DejaVuSans-68"/>
      <use xlink:href="#DejaVuSans-20" x="63.378906"/>
      <use xlink:href="#DejaVuSans-3d" x="95.166016"/>
      <use xlink:href="#DejaVuSans-20" x="178.955078"/>
      <use xlink:href="#DejaVuSans-30" x="210.742188"/>
      <use xlink:href="#DejaVuSans-2e" x="274.365234"/>
      <use xlink:href="#DejaVuSans-30" x="306.152344"/>
      <use xlink:href="#DejaVuSans-35" x="369.775391"/>
      <use xlink:href="#DejaVuSans-73" x="433.398438"/>
     </g>
    </g>
    <g id="line2d_43">
     <path d="M 498.804687 60.209062 
L 510.804687 60.209062 
L 522.804687 60.209062 
" style="fill: none; stroke: #ff7f0e; stroke-width: 1.5; stroke-linecap: square"/>
    </g>
    <g id="text_42">
     <!-- h = 0.01s -->
     <g transform="translate(532.404687 64.409062) scale(0.12 -0.12)">
      <use xlink:href="#DejaVuSans-68"/>
      <use xlink:href="#DejaVuSans-20" x="63.378906"/>
      <use xlink:href="#DejaVuSans-3d" x="95.166016"/>
      <use xlink:href="#DejaVuSans-20" x="178.955078"/>
      <use xlink:href="#DejaVuSans-30" x="210.742188"/>
      <use xlink:href="#DejaVuSans-2e" x="274.365234"/>
      <use xlink:href="#DejaVuSans-30" x="306.152344"/>
      <use xlink:href="#DejaVuSans-31" x="369.775391"/>
      <use xlink:href="#DejaVuSans-73" x="433.398438"/>
     </g>
    </g>
    <g id="line2d_44">
     <path d="M 498.804687 77.822812 
L 510.804687 77.822812 
L 522.804687 77.822812 
" style="fill: none; stroke: #2ca02c; stroke-width: 1.5; stroke-linecap: square"/>
    </g>
    <g id="text_43">
     <!-- h = 0.005s -->
     <g transform="translate(532.404687 82.022812) scale(0.12 -0.12)">
      <use xlink:href="#DejaVuSans-68"/>
      <use xlink:href="#DejaVuSans-20" x="63.378906"/>
      <use xlink:href="#DejaVuSans-3d" x="95.166016"/>
      <use xlink:href="#DejaVuSans-20" x="178.955078"/>
      <use xlink:href="#DejaVuSans-30" x="210.742188"/>
      <use xlink:href="#DejaVuSans-2e" x="274.365234"/>
      <use xlink:href="#DejaVuSans-30" x="306.152344"/>
      <use xlink:href="#DejaVuSans-30" x="369.775391"/>
      <use xlink:href="#DejaVuSans-35" x="433.398438"/>
      <use xlink:href="#DejaVuSans-73" x="497.021484"/>
     </g>
    </g>
   </g>
  </g>
 </g>
 <defs>
  <clipPath id="p0d773480ad">
   <rect x="62.394688" y="26.877187" width="361.42" height="355.96"/>
  </clipPath>
  <clipPath id="p87674d640d">
   <rect x="488.004687" y="26.877187" width="361.42" height="355.96"/>
  </clipPath>
 </defs>
</svg>
