<?xml version="1.0" encoding="utf-8" standalone="no"?>
<!DOCTYPE svg PUBLIC "-//W3C//DTD SVG 1.1//EN"
  "http://www.w3.org/Graphics/SVG/1.1/DTD/svg11.dtd">
<svg xmlns:xlink="http://www.w3.org/1999/xlink" width="856.651562pt" height="424.2675pt" viewBox="0 0 856.651562 424.2675" xmlns="http://www.w3.org/2000/svg" version="1.1">
 <metadata>
  <rdf:RDF xmlns:dc="http://purl.org/dc/elements/1.1/" xmlns:cc="http://creativecommons.org/ns#" xmlns:rdf="http://www.w3.org/1999/02/22-rdf-syntax-ns#">
   <cc:Work>
    <dc:type rdf:resource="http://purl.org/dc/dcmitype/StillImage"/>
    <dc:date>2024-09-30T00:26:57.624389</dc:date>
    <dc:format>image/svg+xml</dc:format>
    <dc:creator>
     <cc:Agent>
      <dc:title>Matplotlib v3.8.4, https://matplotlib.org/</dc:title>
     </cc:Agent>
    </dc:creator>
   </cc:Work>
  </rdf:RDF>
 </metadata>
 <defs>
  <style type="text/css">*{stroke-linejoin: round; stroke-linecap: butt}</style>
 </defs>
 <g id="figure_1">
  <g id="patch_1">
   <path d="M 0 424.2675 
L 856.651562 424.2675 
L 856.651562 0 
L 0 0 
z
" style="fill: #ffffff"/>
  </g>
  <g id="axes_1">
   <g id="patch_2">
    <path d="M 46.491563 382.84 
L 849.451563 382.84 
L 849.451563 7.2 
L 46.491563 7.2 
z
" style="fill: #ffffff"/>
   </g>
   <g id="matplotlib.axis_1">
    <g id="xtick_1">
     <g id="line2d_1">
      <defs>
       <path id="ma81702e5e5" d="M 0 0 
L 0 3.5 
" style="stroke: #000000; stroke-width: 0.8"/>
      </defs>
      <g>
       <use xlink:href="#ma81702e5e5" x="82.989744" y="382.84" style="stroke: #000000; stroke-width: 0.8"/>
      </g>
     </g>
     <g id="text_1">
      <!-- 0.0 -->
      <g transform="translate(75.038182 397.438437) scale(0.1 -0.1)">
       <defs>
        <path id="DejaVuSans-30" d="M 2034 4250 
Q 1547 4250 1301 3770 
Q 1056 3291 1056 2328 
Q 1056 1369 1301 889 
Q 1547 409 2034 409 
Q 2525 409 2770 889 
Q 3016 1369 3016 2328 
Q 3016 3291 2770 3770 
Q 2525 4250 2034 4250 
z
M 2034 4750 
Q 2819 4750 3233 4129 
Q 3647 3509 3647 2328 
Q 3647 1150 3233 529 
Q 2819 -91 2034 -91 
Q 1250 -91 836 529 
Q 422 1150 422 2328 
Q 422 3509 836 4129 
Q 1250 4750 2034 4750 
z
" transform="scale(0.015625)"/>
        <path id="DejaVuSans-2e" d="M 684 794 
L 1344 794 
L 1344 0 
L 684 0 
L 684 794 
z
" transform="scale(0.015625)"/>
       </defs>
       <use xlink:href="#DejaVuSans-30"/>
       <use xlink:href="#DejaVuSans-2e" x="63.623047"/>
       <use xlink:href="#DejaVuSans-30" x="95.410156"/>
      </g>
     </g>
    </g>
    <g id="xtick_2">
     <g id="line2d_2">
      <g>
       <use xlink:href="#ma81702e5e5" x="174.235199" y="382.84" style="stroke: #000000; stroke-width: 0.8"/>
      </g>
     </g>
     <g id="text_2">
      <!-- 2.5 -->
      <g transform="translate(166.283636 397.438437) scale(0.1 -0.1)">
       <defs>
        <path id="DejaVuSans-32" d="M 1228 531 
L 3431 531 
L 3431 0 
L 469 0 
L 469 531 
Q 828 903 1448 1529 
Q 2069 2156 2228 2338 
Q 2531 2678 2651 2914 
Q 2772 3150 2772 3378 
Q 2772 3750 2511 3984 
Q 2250 4219 1831 4219 
Q 1534 4219 1204 4116 
Q 875 4013 500 3803 
L 500 4441 
Q 881 4594 1212 4672 
Q 1544 4750 1819 4750 
Q 2544 4750 2975 4387 
Q 3406 4025 3406 3419 
Q 3406 3131 3298 2873 
Q 3191 2616 2906 2266 
Q 2828 2175 2409 1742 
Q 1991 1309 1228 531 
z
" transform="scale(0.015625)"/>
        <path id="DejaVuSans-35" d="M 691 4666 
L 3169 4666 
L 3169 4134 
L 1269 4134 
L 1269 2991 
Q 1406 3038 1543 3061 
Q 1681 3084 1819 3084 
Q 2600 3084 3056 2656 
Q 3513 2228 3513 1497 
Q 3513 744 3044 326 
Q 2575 -91 1722 -91 
Q 1428 -91 1123 -41 
Q 819 9 494 109 
L 494 744 
Q 775 591 1075 516 
Q 1375 441 1709 441 
Q 2250 441 2565 725 
Q 2881 1009 2881 1497 
Q 2881 1984 2565 2268 
Q 2250 2553 1709 2553 
Q 1456 2553 1204 2497 
Q 953 2441 691 2322 
L 691 4666 
z
" transform="scale(0.015625)"/>
       </defs>
       <use xlink:href="#DejaVuSans-32"/>
       <use xlink:href="#DejaVuSans-2e" x="63.623047"/>
       <use xlink:href="#DejaVuSans-35" x="95.410156"/>
      </g>
     </g>
    </g>
    <g id="xtick_3">
     <g id="line2d_3">
      <g>
       <use xlink:href="#ma81702e5e5" x="265.480653" y="382.84" style="stroke: #000000; stroke-width: 0.8"/>
      </g>
     </g>
     <g id="text_3">
      <!-- 5.0 -->
      <g transform="translate(257.529091 397.438437) scale(0.1 -0.1)">
       <use xlink:href="#DejaVuSans-35"/>
       <use xlink:href="#DejaVuSans-2e" x="63.623047"/>
       <use xlink:href="#DejaVuSans-30" x="95.410156"/>
      </g>
     </g>
    </g>
    <g id="xtick_4">
     <g id="line2d_4">
      <g>
       <use xlink:href="#ma81702e5e5" x="356.726108" y="382.84" style="stroke: #000000; stroke-width: 0.8"/>
      </g>
     </g>
     <g id="text_4">
      <!-- 7.5 -->
      <g transform="translate(348.774545 397.438437) scale(0.1 -0.1)">
       <defs>
        <path id="DejaVuSans-37" d="M 525 4666 
L 3525 4666 
L 3525 4397 
L 1831 0 
L 1172 0 
L 2766 4134 
L 525 4134 
L 525 4666 
z
" transform="scale(0.015625)"/>
       </defs>
       <use xlink:href="#DejaVuSans-37"/>
       <use xlink:href="#DejaVuSans-2e" x="63.623047"/>
       <use xlink:href="#DejaVuSans-35" x="95.410156"/>
      </g>
     </g>
    </g>
    <g id="xtick_5">
     <g id="line2d_5">
      <g>
       <use xlink:href="#ma81702e5e5" x="447.971563" y="382.84" style="stroke: #000000; stroke-width: 0.8"/>
      </g>
     </g>
     <g id="text_5">
      <!-- 10.0 -->
      <g transform="translate(436.83875 397.438437) scale(0.1 -0.1)">
       <defs>
        <path id="DejaVuSans-31" d="M 794 531 
L 1825 531 
L 1825 4091 
L 703 3866 
L 703 4441 
L 1819 4666 
L 2450 4666 
L 2450 531 
L 3481 531 
L 3481 0 
L 794 0 
L 794 531 
z
" transform="scale(0.015625)"/>
       </defs>
       <use xlink:href="#DejaVuSans-31"/>
       <use xlink:href="#DejaVuSans-30" x="63.623047"/>
       <use xlink:href="#DejaVuSans-2e" x="127.246094"/>
       <use xlink:href="#DejaVuSans-30" x="159.033203"/>
      </g>
     </g>
    </g>
    <g id="xtick_6">
     <g id="line2d_6">
      <g>
       <use xlink:href="#ma81702e5e5" x="539.217017" y="382.84" style="stroke: #000000; stroke-width: 0.8"/>
      </g>
     </g>
     <g id="text_6">
      <!-- 12.5 -->
      <g transform="translate(528.084205 397.438437) scale(0.1 -0.1)">
       <use xlink:href="#DejaVuSans-31"/>
       <use xlink:href="#DejaVuSans-32" x="63.623047"/>
       <use xlink:href="#DejaVuSans-2e" x="127.246094"/>
       <use xlink:href="#DejaVuSans-35" x="159.033203"/>
      </g>
     </g>
    </g>
    <g id="xtick_7">
     <g id="line2d_7">
      <g>
       <use xlink:href="#ma81702e5e5" x="630.462472" y="382.84" style="stroke: #000000; stroke-width: 0.8"/>
      </g>
     </g>
     <g id="text_7">
      <!-- 15.0 -->
      <g transform="translate(619.329659 397.438437) scale(0.1 -0.1)">
       <use xlink:href="#DejaVuSans-31"/>
       <use xlink:href="#DejaVuSans-35" x="63.623047"/>
       <use xlink:href="#DejaVuSans-2e" x="127.246094"/>
       <use xlink:href="#DejaVuSans-30" x="159.033203"/>
      </g>
     </g>
    </g>
    <g id="xtick_8">
     <g id="line2d_8">
      <g>
       <use xlink:href="#ma81702e5e5" x="721.707926" y="382.84" style="stroke: #000000; stroke-width: 0.8"/>
      </g>
     </g>
     <g id="text_8">
      <!-- 17.5 -->
      <g transform="translate(710.575114 397.438437) scale(0.1 -0.1)">
       <use xlink:href="#DejaVuSans-31"/>
       <use xlink:href="#DejaVuSans-37" x="63.623047"/>
       <use xlink:href="#DejaVuSans-2e" x="127.246094"/>
       <use xlink:href="#DejaVuSans-35" x="159.033203"/>
      </g>
     </g>
    </g>
    <g id="xtick_9">
     <g id="line2d_9">
      <g>
       <use xlink:href="#ma81702e5e5" x="812.953381" y="382.84" style="stroke: #000000; stroke-width: 0.8"/>
      </g>
     </g>
     <g id="text_9">
      <!-- 20.0 -->
      <g transform="translate(801.820568 397.438437) scale(0.1 -0.1)">
       <use xlink:href="#DejaVuSans-32"/>
       <use xlink:href="#DejaVuSans-30" x="63.623047"/>
       <use xlink:href="#DejaVuSans-2e" x="127.246094"/>
       <use xlink:href="#DejaVuSans-30" x="159.033203"/>
      </g>
     </g>
    </g>
    <g id="text_10">
     <!-- t -->
     <g transform="translate(445.227344 414.155937) scale(0.14 -0.14)">
      <defs>
       <path id="DejaVuSans-74" d="M 1172 4494 
L 1172 3500 
L 2356 3500 
L 2356 3053 
L 1172 3053 
L 1172 1153 
Q 1172 725 1289 603 
Q 1406 481 1766 481 
L 2356 481 
L 2356 0 
L 1766 0 
Q 1100 0 847 248 
Q 594 497 594 1153 
L 594 3053 
L 172 3053 
L 172 3500 
L 594 3500 
L 594 4494 
L 1172 4494 
z
" transform="scale(0.015625)"/>
      </defs>
      <use xlink:href="#DejaVuSans-74"/>
     </g>
    </g>
   </g>
   <g id="matplotlib.axis_2">
    <g id="ytick_1">
     <g id="line2d_10">
      <defs>
       <path id="md2680dc6e7" d="M 0 0 
L -3.5 0 
" style="stroke: #000000; stroke-width: 0.8"/>
      </defs>
      <g>
       <use xlink:href="#md2680dc6e7" x="46.491563" y="354.812744" style="stroke: #000000; stroke-width: 0.8"/>
      </g>
     </g>
     <g id="text_11">
      <!-- −2 -->
      <g transform="translate(24.749375 358.611963) scale(0.1 -0.1)">
       <defs>
        <path id="DejaVuSans-2212" d="M 678 2272 
L 4684 2272 
L 4684 1741 
L 678 1741 
L 678 2272 
z
" transform="scale(0.015625)"/>
       </defs>
       <use xlink:href="#DejaVuSans-2212"/>
       <use xlink:href="#DejaVuSans-32" x="83.789062"/>
      </g>
     </g>
    </g>
    <g id="ytick_2">
     <g id="line2d_11">
      <g>
       <use xlink:href="#md2680dc6e7" x="46.491563" y="275.024501" style="stroke: #000000; stroke-width: 0.8"/>
      </g>
     </g>
     <g id="text_12">
      <!-- −1 -->
      <g transform="translate(24.749375 278.82372) scale(0.1 -0.1)">
       <use xlink:href="#DejaVuSans-2212"/>
       <use xlink:href="#DejaVuSans-31" x="83.789062"/>
      </g>
     </g>
    </g>
    <g id="ytick_3">
     <g id="line2d_12">
      <g>
       <use xlink:href="#md2680dc6e7" x="46.491563" y="195.236259" style="stroke: #000000; stroke-width: 0.8"/>
      </g>
     </g>
     <g id="text_13">
      <!-- 0 -->
      <g transform="translate(33.129063 199.035477) scale(0.1 -0.1)">
       <use xlink:href="#DejaVuSans-30"/>
      </g>
     </g>
    </g>
    <g id="ytick_4">
     <g id="line2d_13">
      <g>
       <use xlink:href="#md2680dc6e7" x="46.491563" y="115.448016" style="stroke: #000000; stroke-width: 0.8"/>
      </g>
     </g>
     <g id="text_14">
      <!-- 1 -->
      <g transform="translate(33.129063 119.247235) scale(0.1 -0.1)">
       <use xlink:href="#DejaVuSans-31"/>
      </g>
     </g>
    </g>
    <g id="ytick_5">
     <g id="line2d_14">
      <g>
       <use xlink:href="#md2680dc6e7" x="46.491563" y="35.659773" style="stroke: #000000; stroke-width: 0.8"/>
      </g>
     </g>
     <g id="text_15">
      <!-- 2 -->
      <g transform="translate(33.129063 39.458992) scale(0.1 -0.1)">
       <use xlink:href="#DejaVuSans-32"/>
      </g>
     </g>
    </g>
    <g id="text_16">
     <!-- y(t) -->
     <g transform="translate(17.837812 207.369531) rotate(-90) scale(0.14 -0.14)">
      <defs>
       <path id="DejaVuSans-79" d="M 2059 -325 
Q 1816 -950 1584 -1140 
Q 1353 -1331 966 -1331 
L 506 -1331 
L 506 -850 
L 844 -850 
Q 1081 -850 1212 -737 
Q 1344 -625 1503 -206 
L 1606 56 
L 191 3500 
L 800 3500 
L 1894 763 
L 2988 3500 
L 3597 3500 
L 2059 -325 
z
" transform="scale(0.015625)"/>
       <path id="DejaVuSans-28" d="M 1984 4856 
Q 1566 4138 1362 3434 
Q 1159 2731 1159 2009 
Q 1159 1288 1364 580 
Q 1569 -128 1984 -844 
L 1484 -844 
Q 1016 -109 783 600 
Q 550 1309 550 2009 
Q 550 2706 781 3412 
Q 1013 4119 1484 4856 
L 1984 4856 
z
" transform="scale(0.015625)"/>
       <path id="DejaVuSans-29" d="M 513 4856 
L 1013 4856 
Q 1481 4119 1714 3412 
Q 1947 2706 1947 2009 
Q 1947 1309 1714 600 
Q 1481 -109 1013 -844 
L 513 -844 
Q 928 -128 1133 580 
Q 1338 1288 1338 2009 
Q 1338 2731 1133 3434 
Q 928 4138 513 4856 
z
" transform="scale(0.015625)"/>
      </defs>
      <use xlink:href="#DejaVuSans-79"/>
      <use xlink:href="#DejaVuSans-28" x="59.179688"/>
      <use xlink:href="#DejaVuSans-74" x="98.193359"/>
      <use xlink:href="#DejaVuSans-29" x="137.402344"/>
     </g>
    </g>
   </g>
   <g id="line2d_15">
    <path d="M 82.989744 195.236259 
L 90.289381 194.441319 
L 97.589017 192.087792 
L 104.888653 188.269312 
L 112.18829 183.150777 
L 119.487926 176.969379 
L 126.787563 170.028225 
L 134.087199 162.711486 
L 141.386835 155.52705 
L 148.686472 148.92706 
L 155.986108 143.286615 
L 163.285744 138.903771 
L 170.585381 136.001513 
L 177.885017 134.73473 
L 185.184653 134.896865 
L 192.48429 136.254896 
L 199.783926 138.682773 
L 207.083563 142.161418 
L 214.383199 146.778724 
L 221.682835 152.48724 
L 228.982472 158.934181 
L 236.282108 166.012864 
L 243.581744 173.58405 
L 250.881381 181.469727 
L 258.181017 189.453104 
L 265.480653 197.279384 
L 272.78029 204.673725 
L 280.079926 211.282263 
L 287.379563 216.786235 
L 294.679199 220.945412 
L 301.978835 223.598099 
L 309.278472 224.661136 
L 316.578108 224.129899 
L 323.877744 222.078243 
L 331.177381 218.612324 
L 338.477017 213.855684 
L 345.776653 207.972818 
L 353.07629 201.169497 
L 360.375926 193.692761 
L 367.675563 185.830927 
L 374.975199 177.907568 
L 382.274835 170.305953 
L 389.574472 163.480082 
L 396.874108 157.79553 
L 404.173744 153.515267 
L 411.473381 150.799656 
L 418.773017 149.706456 
L 426.072653 150.1915 
L 433.37229 152.152934 
L 440.671926 155.453932 
L 447.971563 159.939627 
L 455.271199 165.451978 
L 462.570835 171.829769 
L 469.870472 178.908606 
L 477.170108 186.520924 
L 484.469744 194.472145 
L 491.769381 202.416273 
L 499.069017 209.975341 
L 506.368653 216.809738 
L 513.66829 222.61841 
L 520.967926 227.138865 
L 528.267563 230.147172 
L 535.567199 231.50466 
L 542.866835 231.258416 
L 550.166472 229.505966 
L 557.466108 226.361952 
L 564.765744 221.958126 
L 572.065381 216.443357 
L 579.365017 209.983627 
L 586.664653 202.762022 
L 593.96429 194.98498 
L 601.263926 187.001507 
L 608.563562 179.197368 
L 615.863199 171.930145 
L 623.162835 165.529238 
L 630.462472 160.295867 
L 637.762108 156.503073 
L 645.061744 154.356974 
L 652.361381 153.837195 
L 659.661017 154.851336 
L 666.960653 157.294185 
L 674.26029 161.047224 
L 681.559926 165.978626 
L 688.859563 171.936312 
L 696.159199 178.731744 
L 703.458835 186.16851 
L 710.758472 194.008563 
L 718.058108 201.968837 
L 725.357744 209.72125 
L 732.657381 216.893732 
L 739.957017 223.115345 
L 747.256653 228.094336 
L 754.55629 231.620901 
L 761.855926 233.56633 
L 769.155563 233.883002 
L 776.455199 232.604389 
L 783.754835 229.845051 
L 791.054472 225.799112 
L 798.354108 220.625757 
L 805.653744 214.45907 
L 812.953381 207.483115 
" clip-path="url(#pa92336f754)" style="fill: none; stroke: #1f77b4; stroke-width: 1.5; stroke-linecap: square"/>
   </g>
   <g id="line2d_16">
    <path d="M 82.989744 195.236259 
L 90.289381 194.442627 
L 97.589017 192.089562 
L 104.888653 188.285974 
L 112.18829 183.298367 
L 119.487926 177.581262 
L 126.787563 171.890886 
L 134.087199 166.961731 
L 141.386835 163.331949 
L 148.686472 161.137166 
L 155.986108 160.152383 
L 163.285744 160.10913 
L 170.585381 160.807933 
L 177.885017 162.113944 
L 185.184653 163.969823 
L 192.48429 166.364528 
L 199.783926 169.286121 
L 207.083563 172.779887 
L 214.383199 176.908642 
L 221.682835 181.774269 
L 228.982472 187.485752 
L 236.282108 194.039586 
L 243.581744 201.318331 
L 250.881381 208.929806 
L 258.181017 216.042408 
L 265.480653 221.722133 
L 272.78029 225.440089 
L 280.079926 227.269133 
L 287.379563 227.59636 
L 294.679199 226.8135 
L 301.978835 225.185588 
L 309.278472 222.862244 
L 316.578108 219.914752 
L 323.877744 216.321312 
L 331.177381 212.054728 
L 338.477017 206.955839 
L 345.776653 200.969523 
L 353.07629 194.165911 
L 360.375926 186.740453 
L 367.675563 179.178722 
L 374.975199 172.450855 
L 382.274835 167.34213 
L 389.574472 164.240423 
L 396.874108 162.921621 
L 404.173744 162.974321 
L 411.473381 164.034475 
L 418.773017 165.884764 
L 426.072653 168.390796 
L 433.37229 171.538459 
L 440.671926 175.338123 
L 447.971563 179.868308 
L 455.271199 185.199366 
L 462.570835 191.364092 
L 469.870472 198.359689 
L 477.170108 205.956772 
L 484.469744 213.32917 
L 491.769381 219.6501 
L 499.069017 224.212164 
L 506.368653 226.762295 
L 513.66829 227.642033 
L 520.967926 227.267321 
L 528.267563 225.969154 
L 535.567199 223.939749 
L 542.866835 221.225324 
L 550.166472 217.883544 
L 557.466108 213.883714 
L 564.765744 209.144968 
L 572.065381 203.576853 
L 579.365017 197.12436 
L 586.664653 189.919057 
L 593.96429 182.307118 
L 601.263926 175.115763 
L 608.563562 169.253198 
L 615.863199 165.306486 
L 623.162835 163.287033 
L 630.462472 162.818232 
L 637.762108 163.491044 
L 645.061744 165.032508 
L 652.361381 167.273731 
L 659.661017 170.150241 
L 666.960653 173.67689 
L 674.26029 177.894338 
L 681.559926 182.883719 
L 688.859563 188.695265 
L 696.159199 195.34805 
L 703.458835 202.807632 
L 710.758472 210.386074 
L 718.058108 217.183345 
L 725.357744 222.524386 
L 732.657381 225.960424 
L 739.957017 227.471913 
L 747.256653 227.564851 
L 754.55629 226.609706 
L 761.855926 224.859409 
L 769.155563 222.443691 
L 776.455199 219.357709 
L 783.754835 215.62611 
L 791.054472 211.20694 
L 798.354108 206.000293 
L 805.653744 199.927551 
L 812.953381 193.013635 
" clip-path="url(#pa92336f754)" style="fill: none; stroke: #ff7f0e; stroke-width: 1.5; stroke-linecap: square"/>
   </g>
   <g id="line2d_17">
    <path d="M 82.989744 195.236259 
L 90.289381 187.296191 
L 97.589017 163.867468 
L 104.888653 127.742913 
L 112.18829 87.685955 
L 119.487926 55.967249 
L 126.787563 37.593681 
L 134.087199 28.533665 
L 141.386835 24.82191 
L 148.686472 24.274545 
L 155.986108 26.239609 
L 163.285744 30.663545 
L 170.585381 37.363224 
L 177.885017 46.537667 
L 185.184653 58.48258 
L 192.48429 73.637969 
L 199.783926 92.727951 
L 207.083563 116.946654 
L 214.383199 149.17064 
L 221.682835 192.239576 
L 228.982472 246.429509 
L 236.282108 302.494368 
L 243.581744 341.329777 
L 250.881381 359.014388 
L 258.181017 365.011495 
L 265.480653 365.599821 
L 272.78029 363.092213 
L 280.079926 358.063859 
L 287.379563 350.717741 
L 294.679199 340.724745 
L 301.978835 327.943745 
L 309.278472 311.702167 
L 316.578108 291.179445 
L 323.877744 264.845384 
L 331.177381 230.090707 
L 338.477017 183.654334 
L 345.776653 127.126017 
L 353.07629 74.308522 
L 360.375926 42.202268 
L 367.675563 28.911305 
L 374.975199 24.91385 
L 382.274835 25.331556 
L 389.574472 28.574447 
L 396.874108 34.321505 
L 404.173744 42.391635 
L 411.473381 53.171604 
L 418.773017 66.877948 
L 426.072653 84.272116 
L 433.37229 106.308536 
L 440.671926 134.775175 
L 447.971563 172.614037 
L 455.271199 222.533879 
L 462.570835 280.0736 
L 469.870472 327.977826 
L 477.170108 353.599817 
L 484.469744 363.36891 
L 491.769381 365.765455 
L 499.069017 364.452916 
L 506.368653 360.48428 
L 513.66829 354.036142 
L 520.967926 345.225249 
L 528.267563 333.620597 
L 535.567199 318.935868 
L 542.866835 300.321866 
L 550.166472 276.569049 
L 557.466108 245.770218 
L 564.765744 204.605604 
L 572.065381 151.521291 
L 579.365017 94.516671 
L 586.664653 52.724109 
L 593.96429 32.846676 
L 601.263926 25.814612 
L 608.563562 24.769409 
L 615.863199 26.954891 
L 623.162835 31.636534 
L 630.462472 38.708243 
L 637.762108 48.371819 
L 645.061744 60.776346 
L 652.361381 76.531065 
L 659.661017 96.496591 
L 666.960653 121.959267 
L 674.26029 155.468153 
L 681.559926 200.39817 
L 688.859563 256.038857 
L 696.159199 310.519634 
L 703.458835 345.516265 
L 710.758472 360.581966 
L 718.058108 365.390875 
L 725.357744 365.367195 
L 732.657381 362.40644 
L 739.957017 357.004838 
L 747.256653 349.22435 
L 754.55629 338.781942 
L 761.855926 325.467094 
L 769.155563 308.608636 
L 776.455199 287.164597 
L 783.754835 259.672947 
L 791.054472 223.175379 
L 798.354108 174.823911 
L 805.653744 117.442269 
L 812.953381 67.247742 
" clip-path="url(#pa92336f754)" style="fill: none; stroke: #2ca02c; stroke-width: 1.5; stroke-linecap: square"/>
   </g>
   <g id="line2d_18">
    <path d="M 82.989744 195.236259 
L 90.289381 187.29782 
L 97.589017 165.054618 
L 104.888653 140.479792 
L 112.18829 127.410902 
L 119.487926 121.547911 
L 126.787563 118.176149 
L 134.087199 116.250819 
L 141.386835 115.514861 
L 148.686472 115.872666 
L 155.986108 117.288514 
L 163.285744 119.782733 
L 170.585381 123.442474 
L 177.885017 128.432839 
L 185.184653 135.032591 
L 192.48429 143.777613 
L 199.783926 155.814566 
L 207.083563 173.448442 
L 214.383199 201.848003 
L 221.682835 239.825748 
L 228.982472 262.735641 
L 236.282108 269.886801 
L 243.581744 272.933211 
L 250.881381 274.53137 
L 258.181017 274.978762 
L 265.480653 274.340537 
L 272.78029 272.621441 
L 280.079926 269.786857 
L 287.379563 265.747585 
L 294.679199 260.319987 
L 301.978835 253.154394 
L 309.278472 243.579011 
L 316.578108 230.277732 
L 323.877744 210.055177 
L 331.177381 177.807647 
L 338.477017 141.399538 
L 345.776653 124.787425 
L 353.07629 119.474541 
L 360.375926 116.95309 
L 367.675563 115.751011 
L 374.975199 115.624716 
L 382.274835 116.548829 
L 389.574472 118.562477 
L 396.874108 121.724525 
L 404.173744 126.146554 
L 411.473381 132.046335 
L 418.773017 139.832157 
L 426.072653 150.286258 
L 433.37229 165.199371 
L 440.671926 188.315823 
L 447.971563 224.096294 
L 455.271199 256.108626 
L 462.570835 267.795349 
L 469.870472 271.902203 
L 477.170108 274.044514 
L 484.469744 274.940042 
L 491.769381 274.719553 
L 499.069017 273.431566 
L 506.368653 271.065836 
L 513.66829 267.550859 
L 520.967926 262.738171 
L 528.267563 256.363867 
L 535.567199 247.925789 
L 542.866835 236.385237 
L 550.166472 219.659373 
L 557.466108 192.886998 
L 564.765744 155.090525 
L 572.065381 129.352728 
L 579.365017 121.123551 
L 586.664653 117.827455 
L 593.96429 116.087477 
L 601.263926 115.501085 
L 608.563562 115.99799 
L 615.863199 117.57514 
L 623.162835 120.265058 
L 630.462472 124.147827 
L 637.762108 129.391392 
L 645.061744 136.318204 
L 652.361381 145.542076 
L 659.661017 158.263227 
L 666.960653 177.358283 
L 674.26029 207.929534 
L 681.559926 245.416273 
L 688.859563 264.565605 
L 696.159199 270.552031 
L 703.458835 273.293943 
L 710.758472 274.636034 
L 718.058108 274.880472 
L 725.357744 274.086949 
L 732.657381 272.213491 
L 739.957017 269.200911 
L 747.256653 264.945144 
L 754.55629 259.245657 
L 761.855926 251.727379 
L 769.155563 241.673418 
L 776.455199 227.464212 
L 783.754835 205.673264 
L 791.054472 171.281537 
L 798.354108 137.052769 
L 805.653744 123.48036 
L 812.953381 118.945848 
" clip-path="url(#pa92336f754)" style="fill: none; stroke: #d62728; stroke-width: 1.5; stroke-linecap: square"/>
   </g>
   <g id="patch_3">
    <path d="M 46.491563 382.84 
L 46.491563 7.2 
" style="fill: none; stroke: #000000; stroke-width: 0.8; stroke-linejoin: miter; stroke-linecap: square"/>
   </g>
   <g id="patch_4">
    <path d="M 849.451563 382.84 
L 849.451563 7.2 
" style="fill: none; stroke: #000000; stroke-width: 0.8; stroke-linejoin: miter; stroke-linecap: square"/>
   </g>
   <g id="patch_5">
    <path d="M 46.491563 382.84 
L 849.451563 382.84 
" style="fill: none; stroke: #000000; stroke-width: 0.8; stroke-linejoin: miter; stroke-linecap: square"/>
   </g>
   <g id="patch_6">
    <path d="M 46.491563 7.2 
L 849.451563 7.2 
" style="fill: none; stroke: #000000; stroke-width: 0.8; stroke-linejoin: miter; stroke-linecap: square"/>
   </g>
   <g id="legend_1">
    <g id="patch_7">
     <path d="M 54.891562 376.84 
L 174.169687 376.84 
Q 176.569687 376.84 176.569687 374.44 
L 176.569687 305.185 
Q 176.569687 302.785 174.169687 302.785 
L 54.891562 302.785 
Q 52.491563 302.785 52.491563 305.185 
L 52.491563 374.44 
Q 52.491563 376.84 54.891562 376.84 
z
" style="fill: #ffffff; opacity: 0.8; stroke: #cccccc; stroke-linejoin: miter"/>
    </g>
    <g id="line2d_19">
     <path d="M 57.291562 312.503125 
L 69.291562 312.503125 
L 81.291562 312.503125 
" style="fill: none; stroke: #1f77b4; stroke-width: 1.5; stroke-linecap: square"/>
    </g>
    <g id="text_17">
     <!-- a=0.5, b=0.5 -->
     <g transform="translate(90.891562 316.703125) scale(0.12 -0.12)">
      <defs>
       <path id="DejaVuSans-61" d="M 2194 1759 
Q 1497 1759 1228 1600 
Q 959 1441 959 1056 
Q 959 750 1161 570 
Q 1363 391 1709 391 
Q 2188 391 2477 730 
Q 2766 1069 2766 1631 
L 2766 1759 
L 2194 1759 
z
M 3341 1997 
L 3341 0 
L 2766 0 
L 2766 531 
Q 2569 213 2275 61 
Q 1981 -91 1556 -91 
Q 1019 -91 701 211 
Q 384 513 384 1019 
Q 384 1609 779 1909 
Q 1175 2209 1959 2209 
L 2766 2209 
L 2766 2266 
Q 2766 2663 2505 2880 
Q 2244 3097 1772 3097 
Q 1472 3097 1187 3025 
Q 903 2953 641 2809 
L 641 3341 
Q 956 3463 1253 3523 
Q 1550 3584 1831 3584 
Q 2591 3584 2966 3190 
Q 3341 2797 3341 1997 
z
" transform="scale(0.015625)"/>
       <path id="DejaVuSans-3d" d="M 678 2906 
L 4684 2906 
L 4684 2381 
L 678 2381 
L 678 2906 
z
M 678 1631 
L 4684 1631 
L 4684 1100 
L 678 1100 
L 678 1631 
z
" transform="scale(0.015625)"/>
       <path id="DejaVuSans-2c" d="M 750 794 
L 1409 794 
L 1409 256 
L 897 -744 
L 494 -744 
L 750 256 
L 750 794 
z
" transform="scale(0.015625)"/>
       <path id="DejaVuSans-20" transform="scale(0.015625)"/>
       <path id="DejaVuSans-62" d="M 3116 1747 
Q 3116 2381 2855 2742 
Q 2594 3103 2138 3103 
Q 1681 3103 1420 2742 
Q 1159 2381 1159 1747 
Q 1159 1113 1420 752 
Q 1681 391 2138 391 
Q 2594 391 2855 752 
Q 3116 1113 3116 1747 
z
M 1159 2969 
Q 1341 3281 1617 3432 
Q 1894 3584 2278 3584 
Q 2916 3584 3314 3078 
Q 3713 2572 3713 1747 
Q 3713 922 3314 415 
Q 2916 -91 2278 -91 
Q 1894 -91 1617 61 
Q 1341 213 1159 525 
L 1159 0 
L 581 0 
L 581 4863 
L 1159 4863 
L 1159 2969 
z
" transform="scale(0.015625)"/>
      </defs>
      <use xlink:href="#DejaVuSans-61"/>
      <use xlink:href="#DejaVuSans-3d" x="61.279297"/>
      <use xlink:href="#DejaVuSans-30" x="145.068359"/>
      <use xlink:href="#DejaVuSans-2e" x="208.691406"/>
      <use xlink:href="#DejaVuSans-35" x="240.478516"/>
      <use xlink:href="#DejaVuSans-2c" x="304.101562"/>
      <use xlink:href="#DejaVuSans-20" x="335.888672"/>
      <use xlink:href="#DejaVuSans-62" x="367.675781"/>
      <use xlink:href="#DejaVuSans-3d" x="431.152344"/>
      <use xlink:href="#DejaVuSans-30" x="514.941406"/>
      <use xlink:href="#DejaVuSans-2e" x="578.564453"/>
      <use xlink:href="#DejaVuSans-35" x="610.351562"/>
     </g>
    </g>
    <g id="line2d_20">
     <path d="M 57.291562 330.116875 
L 69.291562 330.116875 
L 81.291562 330.116875 
" style="fill: none; stroke: #ff7f0e; stroke-width: 1.5; stroke-linecap: square"/>
    </g>
    <g id="text_18">
     <!-- a=5, b=0.5 -->
     <g transform="translate(90.891562 334.316875) scale(0.12 -0.12)">
      <use xlink:href="#DejaVuSans-61"/>
      <use xlink:href="#DejaVuSans-3d" x="61.279297"/>
      <use xlink:href="#DejaVuSans-35" x="145.068359"/>
      <use xlink:href="#DejaVuSans-2c" x="208.691406"/>
      <use xlink:href="#DejaVuSans-20" x="240.478516"/>
      <use xlink:href="#DejaVuSans-62" x="272.265625"/>
      <use xlink:href="#DejaVuSans-3d" x="335.742188"/>
      <use xlink:href="#DejaVuSans-30" x="419.53125"/>
      <use xlink:href="#DejaVuSans-2e" x="483.154297"/>
      <use xlink:href="#DejaVuSans-35" x="514.941406"/>
     </g>
    </g>
    <g id="line2d_21">
     <path d="M 57.291562 347.730625 
L 69.291562 347.730625 
L 81.291562 347.730625 
" style="fill: none; stroke: #2ca02c; stroke-width: 1.5; stroke-linecap: square"/>
    </g>
    <g id="text_19">
     <!-- a=0.5, b=5 -->
     <g transform="translate(90.891562 351.930625) scale(0.12 -0.12)">
      <use xlink:href="#DejaVuSans-61"/>
      <use xlink:href="#DejaVuSans-3d" x="61.279297"/>
      <use xlink:href="#DejaVuSans-30" x="145.068359"/>
      <use xlink:href="#DejaVuSans-2e" x="208.691406"/>
      <use xlink:href="#DejaVuSans-35" x="240.478516"/>
      <use xlink:href="#DejaVuSans-2c" x="304.101562"/>
      <use xlink:href="#DejaVuSans-20" x="335.888672"/>
      <use xlink:href="#DejaVuSans-62" x="367.675781"/>
      <use xlink:href="#DejaVuSans-3d" x="431.152344"/>
      <use xlink:href="#DejaVuSans-35" x="514.941406"/>
     </g>
    </g>
    <g id="line2d_22">
     <path d="M 57.291562 365.344375 
L 69.291562 365.344375 
L 81.291562 365.344375 
" style="fill: none; stroke: #d62728; stroke-width: 1.5; stroke-linecap: square"/>
    </g>
    <g id="text_20">
     <!-- a=5, b=5 -->
     <g transform="translate(90.891562 369.544375) scale(0.12 -0.12)">
      <use xlink:href="#DejaVuSans-61"/>
      <use xlink:href="#DejaVuSans-3d" x="61.279297"/>
      <use xlink:href="#DejaVuSans-35" x="145.068359"/>
      <use xlink:href="#DejaVuSans-2c" x="208.691406"/>
      <use xlink:href="#DejaVuSans-20" x="240.478516"/>
      <use xlink:href="#DejaVuSans-62" x="272.265625"/>
      <use xlink:href="#DejaVuSans-3d" x="335.742188"/>
      <use xlink:href="#DejaVuSans-35" x="419.53125"/>
     </g>
    </g>
   </g>
  </g>
 </g>
 <defs>
  <clipPath id="pa92336f754">
   <rect x="46.491563" y="7.2" width="802.96" height="375.64"/>
  </clipPath>
 </defs>
</svg>
