<?xml version="1.0" encoding="utf-8" standalone="no"?>
<!DOCTYPE svg PUBLIC "-//W3C//DTD SVG 1.1//EN"
  "http://www.w3.org/Graphics/SVG/1.1/DTD/svg11.dtd">
<svg xmlns:xlink="http://www.w3.org/1999/xlink" width="856.755312pt" height="424.264687pt" viewBox="0 0 856.755312 424.264687" xmlns="http://www.w3.org/2000/svg" version="1.1">
 <metadata>
  <rdf:RDF xmlns:dc="http://purl.org/dc/elements/1.1/" xmlns:cc="http://creativecommons.org/ns#" xmlns:rdf="http://www.w3.org/1999/02/22-rdf-syntax-ns#">
   <cc:Work>
    <dc:type rdf:resource="http://purl.org/dc/dcmitype/StillImage"/>
    <dc:date>2024-09-29T20:51:26.435240</dc:date>
    <dc:format>image/svg+xml</dc:format>
    <dc:creator>
     <cc:Agent>
      <dc:title>Matplotlib v3.8.4, https://matplotlib.org/</dc:title>
     </cc:Agent>
    </dc:creator>
   </cc:Work>
  </rdf:RDF>
 </metadata>
 <defs>
  <style type="text/css">*{stroke-linejoin: round; stroke-linecap: butt}</style>
 </defs>
 <g id="figure_1">
  <g id="patch_1">
   <path d="M 0 424.264687 
L 856.755312 424.264687 
L 856.755312 0 
L 0 0 
z
" style="fill: #ffffff"/>
  </g>
  <g id="axes_1">
   <g id="patch_2">
    <path d="M 44.845313 382.837187 
L 417.310313 382.837187 
L 417.310313 26.877187 
L 44.845313 26.877187 
z
" style="fill: #ffffff"/>
   </g>
   <g id="matplotlib.axis_1">
    <g id="xtick_1">
     <g id="line2d_1">
      <defs>
       <path id="md66d86ce46" d="M 0 0 
L 0 3.5 
" style="stroke: #000000; stroke-width: 0.8"/>
      </defs>
      <g>
       <use xlink:href="#md66d86ce46" x="61.77554" y="382.837187" style="stroke: #000000; stroke-width: 0.8"/>
      </g>
     </g>
     <g id="text_1">
      <!-- 0 -->
      <g transform="translate(58.59429 397.435625) scale(0.1 -0.1)">
       <defs>
        <path id="DejaVuSans-30" d="M 2034 4250 
Q 1547 4250 1301 3770 
Q 1056 3291 1056 2328 
Q 1056 1369 1301 889 
Q 1547 409 2034 409 
Q 2525 409 2770 889 
Q 3016 1369 3016 2328 
Q 3016 3291 2770 3770 
Q 2525 4250 2034 4250 
z
M 2034 4750 
Q 2819 4750 3233 4129 
Q 3647 3509 3647 2328 
Q 3647 1150 3233 529 
Q 2819 -91 2034 -91 
Q 1250 -91 836 529 
Q 422 1150 422 2328 
Q 422 3509 836 4129 
Q 1250 4750 2034 4750 
z
" transform="scale(0.015625)"/>
       </defs>
       <use xlink:href="#DejaVuSans-30"/>
      </g>
     </g>
    </g>
    <g id="xtick_2">
     <g id="line2d_2">
      <g>
       <use xlink:href="#md66d86ce46" x="115.666127" y="382.837187" style="stroke: #000000; stroke-width: 0.8"/>
      </g>
     </g>
     <g id="text_2">
      <!-- 5 -->
      <g transform="translate(112.484877 397.435625) scale(0.1 -0.1)">
       <defs>
        <path id="DejaVuSans-35" d="M 691 4666 
L 3169 4666 
L 3169 4134 
L 1269 4134 
L 1269 2991 
Q 1406 3038 1543 3061 
Q 1681 3084 1819 3084 
Q 2600 3084 3056 2656 
Q 3513 2228 3513 1497 
Q 3513 744 3044 326 
Q 2575 -91 1722 -91 
Q 1428 -91 1123 -41 
Q 819 9 494 109 
L 494 744 
Q 775 591 1075 516 
Q 1375 441 1709 441 
Q 2250 441 2565 725 
Q 2881 1009 2881 1497 
Q 2881 1984 2565 2268 
Q 2250 2553 1709 2553 
Q 1456 2553 1204 2497 
Q 953 2441 691 2322 
L 691 4666 
z
" transform="scale(0.015625)"/>
       </defs>
       <use xlink:href="#DejaVuSans-35"/>
      </g>
     </g>
    </g>
    <g id="xtick_3">
     <g id="line2d_3">
      <g>
       <use xlink:href="#md66d86ce46" x="169.556714" y="382.837187" style="stroke: #000000; stroke-width: 0.8"/>
      </g>
     </g>
     <g id="text_3">
      <!-- 10 -->
      <g transform="translate(163.194214 397.435625) scale(0.1 -0.1)">
       <defs>
        <path id="DejaVuSans-31" d="M 794 531 
L 1825 531 
L 1825 4091 
L 703 3866 
L 703 4441 
L 1819 4666 
L 2450 4666 
L 2450 531 
L 3481 531 
L 3481 0 
L 794 0 
L 794 531 
z
" transform="scale(0.015625)"/>
       </defs>
       <use xlink:href="#DejaVuSans-31"/>
       <use xlink:href="#DejaVuSans-30" x="63.623047"/>
      </g>
     </g>
    </g>
    <g id="xtick_4">
     <g id="line2d_4">
      <g>
       <use xlink:href="#md66d86ce46" x="223.447301" y="382.837187" style="stroke: #000000; stroke-width: 0.8"/>
      </g>
     </g>
     <g id="text_4">
      <!-- 15 -->
      <g transform="translate(217.084801 397.435625) scale(0.1 -0.1)">
       <use xlink:href="#DejaVuSans-31"/>
       <use xlink:href="#DejaVuSans-35" x="63.623047"/>
      </g>
     </g>
    </g>
    <g id="xtick_5">
     <g id="line2d_5">
      <g>
       <use xlink:href="#md66d86ce46" x="277.337888" y="382.837187" style="stroke: #000000; stroke-width: 0.8"/>
      </g>
     </g>
     <g id="text_5">
      <!-- 20 -->
      <g transform="translate(270.975388 397.435625) scale(0.1 -0.1)">
       <defs>
        <path id="DejaVuSans-32" d="M 1228 531 
L 3431 531 
L 3431 0 
L 469 0 
L 469 531 
Q 828 903 1448 1529 
Q 2069 2156 2228 2338 
Q 2531 2678 2651 2914 
Q 2772 3150 2772 3378 
Q 2772 3750 2511 3984 
Q 2250 4219 1831 4219 
Q 1534 4219 1204 4116 
Q 875 4013 500 3803 
L 500 4441 
Q 881 4594 1212 4672 
Q 1544 4750 1819 4750 
Q 2544 4750 2975 4387 
Q 3406 4025 3406 3419 
Q 3406 3131 3298 2873 
Q 3191 2616 2906 2266 
Q 2828 2175 2409 1742 
Q 1991 1309 1228 531 
z
" transform="scale(0.015625)"/>
       </defs>
       <use xlink:href="#DejaVuSans-32"/>
       <use xlink:href="#DejaVuSans-30" x="63.623047"/>
      </g>
     </g>
    </g>
    <g id="xtick_6">
     <g id="line2d_6">
      <g>
       <use xlink:href="#md66d86ce46" x="331.228476" y="382.837187" style="stroke: #000000; stroke-width: 0.8"/>
      </g>
     </g>
     <g id="text_6">
      <!-- 25 -->
      <g transform="translate(324.865976 397.435625) scale(0.1 -0.1)">
       <use xlink:href="#DejaVuSans-32"/>
       <use xlink:href="#DejaVuSans-35" x="63.623047"/>
      </g>
     </g>
    </g>
    <g id="xtick_7">
     <g id="line2d_7">
      <g>
       <use xlink:href="#md66d86ce46" x="385.119063" y="382.837187" style="stroke: #000000; stroke-width: 0.8"/>
      </g>
     </g>
     <g id="text_7">
      <!-- 30 -->
      <g transform="translate(378.756563 397.435625) scale(0.1 -0.1)">
       <defs>
        <path id="DejaVuSans-33" d="M 2597 2516 
Q 3050 2419 3304 2112 
Q 3559 1806 3559 1356 
Q 3559 666 3084 287 
Q 2609 -91 1734 -91 
Q 1441 -91 1130 -33 
Q 819 25 488 141 
L 488 750 
Q 750 597 1062 519 
Q 1375 441 1716 441 
Q 2309 441 2620 675 
Q 2931 909 2931 1356 
Q 2931 1769 2642 2001 
Q 2353 2234 1838 2234 
L 1294 2234 
L 1294 2753 
L 1863 2753 
Q 2328 2753 2575 2939 
Q 2822 3125 2822 3475 
Q 2822 3834 2567 4026 
Q 2313 4219 1838 4219 
Q 1578 4219 1281 4162 
Q 984 4106 628 3988 
L 628 4550 
Q 988 4650 1302 4700 
Q 1616 4750 1894 4750 
Q 2613 4750 3031 4423 
Q 3450 4097 3450 3541 
Q 3450 3153 3228 2886 
Q 3006 2619 2597 2516 
z
" transform="scale(0.015625)"/>
       </defs>
       <use xlink:href="#DejaVuSans-33"/>
       <use xlink:href="#DejaVuSans-30" x="63.623047"/>
      </g>
     </g>
    </g>
    <g id="text_8">
     <!-- t (s) -->
     <g transform="translate(217.000156 414.153125) scale(0.14 -0.14)">
      <defs>
       <path id="DejaVuSans-74" d="M 1172 4494 
L 1172 3500 
L 2356 3500 
L 2356 3053 
L 1172 3053 
L 1172 1153 
Q 1172 725 1289 603 
Q 1406 481 1766 481 
L 2356 481 
L 2356 0 
L 1766 0 
Q 1100 0 847 248 
Q 594 497 594 1153 
L 594 3053 
L 172 3053 
L 172 3500 
L 594 3500 
L 594 4494 
L 1172 4494 
z
" transform="scale(0.015625)"/>
       <path id="DejaVuSans-20" transform="scale(0.015625)"/>
       <path id="DejaVuSans-28" d="M 1984 4856 
Q 1566 4138 1362 3434 
Q 1159 2731 1159 2009 
Q 1159 1288 1364 580 
Q 1569 -128 1984 -844 
L 1484 -844 
Q 1016 -109 783 600 
Q 550 1309 550 2009 
Q 550 2706 781 3412 
Q 1013 4119 1484 4856 
L 1984 4856 
z
" transform="scale(0.015625)"/>
       <path id="DejaVuSans-73" d="M 2834 3397 
L 2834 2853 
Q 2591 2978 2328 3040 
Q 2066 3103 1784 3103 
Q 1356 3103 1142 2972 
Q 928 2841 928 2578 
Q 928 2378 1081 2264 
Q 1234 2150 1697 2047 
L 1894 2003 
Q 2506 1872 2764 1633 
Q 3022 1394 3022 966 
Q 3022 478 2636 193 
Q 2250 -91 1575 -91 
Q 1294 -91 989 -36 
Q 684 19 347 128 
L 347 722 
Q 666 556 975 473 
Q 1284 391 1588 391 
Q 1994 391 2212 530 
Q 2431 669 2431 922 
Q 2431 1156 2273 1281 
Q 2116 1406 1581 1522 
L 1381 1569 
Q 847 1681 609 1914 
Q 372 2147 372 2553 
Q 372 3047 722 3315 
Q 1072 3584 1716 3584 
Q 2034 3584 2315 3537 
Q 2597 3491 2834 3397 
z
" transform="scale(0.015625)"/>
       <path id="DejaVuSans-29" d="M 513 4856 
L 1013 4856 
Q 1481 4119 1714 3412 
Q 1947 2706 1947 2009 
Q 1947 1309 1714 600 
Q 1481 -109 1013 -844 
L 513 -844 
Q 928 -128 1133 580 
Q 1338 1288 1338 2009 
Q 1338 2731 1133 3434 
Q 928 4138 513 4856 
z
" transform="scale(0.015625)"/>
      </defs>
      <use xlink:href="#DejaVuSans-74"/>
      <use xlink:href="#DejaVuSans-20" x="39.208984"/>
      <use xlink:href="#DejaVuSans-28" x="70.996094"/>
      <use xlink:href="#DejaVuSans-73" x="110.009766"/>
      <use xlink:href="#DejaVuSans-29" x="162.109375"/>
     </g>
    </g>
   </g>
   <g id="matplotlib.axis_2">
    <g id="ytick_1">
     <g id="line2d_8">
      <defs>
       <path id="m3e67d2dd7e" d="M 0 0 
L -3.5 0 
" style="stroke: #000000; stroke-width: 0.8"/>
      </defs>
      <g>
       <use xlink:href="#m3e67d2dd7e" x="44.845313" y="366.595852" style="stroke: #000000; stroke-width: 0.8"/>
      </g>
     </g>
     <g id="text_9">
      <!-- −1.00 -->
      <g transform="translate(7.2 370.395071) scale(0.1 -0.1)">
       <defs>
        <path id="DejaVuSans-2212" d="M 678 2272 
L 4684 2272 
L 4684 1741 
L 678 1741 
L 678 2272 
z
" transform="scale(0.015625)"/>
        <path id="DejaVuSans-2e" d="M 684 794 
L 1344 794 
L 1344 0 
L 684 0 
L 684 794 
z
" transform="scale(0.015625)"/>
       </defs>
       <use xlink:href="#DejaVuSans-2212"/>
       <use xlink:href="#DejaVuSans-31" x="83.789062"/>
       <use xlink:href="#DejaVuSans-2e" x="147.412109"/>
       <use xlink:href="#DejaVuSans-30" x="179.199219"/>
       <use xlink:href="#DejaVuSans-30" x="242.822266"/>
      </g>
     </g>
    </g>
    <g id="ytick_2">
     <g id="line2d_9">
      <g>
       <use xlink:href="#m3e67d2dd7e" x="44.845313" y="326.159067" style="stroke: #000000; stroke-width: 0.8"/>
      </g>
     </g>
     <g id="text_10">
      <!-- −0.75 -->
      <g transform="translate(7.2 329.958286) scale(0.1 -0.1)">
       <defs>
        <path id="DejaVuSans-37" d="M 525 4666 
L 3525 4666 
L 3525 4397 
L 1831 0 
L 1172 0 
L 2766 4134 
L 525 4134 
L 525 4666 
z
" transform="scale(0.015625)"/>
       </defs>
       <use xlink:href="#DejaVuSans-2212"/>
       <use xlink:href="#DejaVuSans-30" x="83.789062"/>
       <use xlink:href="#DejaVuSans-2e" x="147.412109"/>
       <use xlink:href="#DejaVuSans-37" x="179.199219"/>
       <use xlink:href="#DejaVuSans-35" x="242.822266"/>
      </g>
     </g>
    </g>
    <g id="ytick_3">
     <g id="line2d_10">
      <g>
       <use xlink:href="#m3e67d2dd7e" x="44.845313" y="285.722282" style="stroke: #000000; stroke-width: 0.8"/>
      </g>
     </g>
     <g id="text_11">
      <!-- −0.50 -->
      <g transform="translate(7.2 289.5215) scale(0.1 -0.1)">
       <use xlink:href="#DejaVuSans-2212"/>
       <use xlink:href="#DejaVuSans-30" x="83.789062"/>
       <use xlink:href="#DejaVuSans-2e" x="147.412109"/>
       <use xlink:href="#DejaVuSans-35" x="179.199219"/>
       <use xlink:href="#DejaVuSans-30" x="242.822266"/>
      </g>
     </g>
    </g>
    <g id="ytick_4">
     <g id="line2d_11">
      <g>
       <use xlink:href="#m3e67d2dd7e" x="44.845313" y="245.285496" style="stroke: #000000; stroke-width: 0.8"/>
      </g>
     </g>
     <g id="text_12">
      <!-- −0.25 -->
      <g transform="translate(7.2 249.084715) scale(0.1 -0.1)">
       <use xlink:href="#DejaVuSans-2212"/>
       <use xlink:href="#DejaVuSans-30" x="83.789062"/>
       <use xlink:href="#DejaVuSans-2e" x="147.412109"/>
       <use xlink:href="#DejaVuSans-32" x="179.199219"/>
       <use xlink:href="#DejaVuSans-35" x="242.822266"/>
      </g>
     </g>
    </g>
    <g id="ytick_5">
     <g id="line2d_12">
      <g>
       <use xlink:href="#m3e67d2dd7e" x="44.845313" y="204.848711" style="stroke: #000000; stroke-width: 0.8"/>
      </g>
     </g>
     <g id="text_13">
      <!-- 0.00 -->
      <g transform="translate(15.579688 208.64793) scale(0.1 -0.1)">
       <use xlink:href="#DejaVuSans-30"/>
       <use xlink:href="#DejaVuSans-2e" x="63.623047"/>
       <use xlink:href="#DejaVuSans-30" x="95.410156"/>
       <use xlink:href="#DejaVuSans-30" x="159.033203"/>
      </g>
     </g>
    </g>
    <g id="ytick_6">
     <g id="line2d_13">
      <g>
       <use xlink:href="#m3e67d2dd7e" x="44.845313" y="164.411926" style="stroke: #000000; stroke-width: 0.8"/>
      </g>
     </g>
     <g id="text_14">
      <!-- 0.25 -->
      <g transform="translate(15.579688 168.211144) scale(0.1 -0.1)">
       <use xlink:href="#DejaVuSans-30"/>
       <use xlink:href="#DejaVuSans-2e" x="63.623047"/>
       <use xlink:href="#DejaVuSans-32" x="95.410156"/>
       <use xlink:href="#DejaVuSans-35" x="159.033203"/>
      </g>
     </g>
    </g>
    <g id="ytick_7">
     <g id="line2d_14">
      <g>
       <use xlink:href="#m3e67d2dd7e" x="44.845313" y="123.97514" style="stroke: #000000; stroke-width: 0.8"/>
      </g>
     </g>
     <g id="text_15">
      <!-- 0.50 -->
      <g transform="translate(15.579688 127.774359) scale(0.1 -0.1)">
       <use xlink:href="#DejaVuSans-30"/>
       <use xlink:href="#DejaVuSans-2e" x="63.623047"/>
       <use xlink:href="#DejaVuSans-35" x="95.410156"/>
       <use xlink:href="#DejaVuSans-30" x="159.033203"/>
      </g>
     </g>
    </g>
    <g id="ytick_8">
     <g id="line2d_15">
      <g>
       <use xlink:href="#m3e67d2dd7e" x="44.845313" y="83.538355" style="stroke: #000000; stroke-width: 0.8"/>
      </g>
     </g>
     <g id="text_16">
      <!-- 0.75 -->
      <g transform="translate(15.579688 87.337574) scale(0.1 -0.1)">
       <use xlink:href="#DejaVuSans-30"/>
       <use xlink:href="#DejaVuSans-2e" x="63.623047"/>
       <use xlink:href="#DejaVuSans-37" x="95.410156"/>
       <use xlink:href="#DejaVuSans-35" x="159.033203"/>
      </g>
     </g>
    </g>
    <g id="ytick_9">
     <g id="line2d_16">
      <g>
       <use xlink:href="#m3e67d2dd7e" x="44.845313" y="43.10157" style="stroke: #000000; stroke-width: 0.8"/>
      </g>
     </g>
     <g id="text_17">
      <!-- 1.00 -->
      <g transform="translate(15.579688 46.900788) scale(0.1 -0.1)">
       <use xlink:href="#DejaVuSans-31"/>
       <use xlink:href="#DejaVuSans-2e" x="63.623047"/>
       <use xlink:href="#DejaVuSans-30" x="95.410156"/>
       <use xlink:href="#DejaVuSans-30" x="159.033203"/>
      </g>
     </g>
    </g>
   </g>
   <g id="line2d_17">
    <path d="M 61.77554 204.848711 
L 65.838794 145.2999 
L 68.209026 113.93063 
L 69.902049 94.123995 
L 71.595072 77.025785 
L 72.94949 65.588079 
L 73.965303 58.447882 
L 74.981117 52.614661 
L 75.996931 48.140348 
L 76.67414 45.931812 
L 77.351349 44.352341 
L 78.028558 43.407087 
L 78.367163 43.173155 
L 78.705767 43.098472 
L 79.044372 43.182916 
L 79.382976 43.426192 
L 80.060185 44.387208 
L 80.737394 45.976167 
L 81.414603 48.187749 
L 82.091813 51.014973 
L 83.107626 56.388715 
L 84.12344 63.083197 
L 85.477858 73.966446 
L 86.832276 86.932296 
L 88.525299 105.750952 
L 90.556926 131.503894 
L 92.927158 164.72475 
L 101.730876 291.638626 
L 103.423899 311.941968 
L 105.116922 329.60465 
L 106.47134 341.529178 
L 107.825758 351.288388 
L 108.841572 357.09602 
L 109.857385 361.552729 
L 110.534594 363.754814 
L 111.211803 365.3322 
L 111.889013 366.281981 
L 112.227617 366.520275 
L 112.566222 366.600034 
L 112.904826 366.520875 
L 113.243431 366.282593 
L 113.92064 365.328725 
L 114.597849 363.740321 
L 115.275058 361.522103 
L 115.952267 358.681621 
L 116.968081 353.277628 
L 117.983894 346.544512 
L 119.338313 335.607474 
L 120.692731 322.602986 
L 122.385753 303.790543 
L 124.417381 278.064787 
L 126.787613 244.848592 
L 135.591331 117.909612 
L 137.284353 97.6338 
L 138.977376 80.011901 
L 140.331794 68.112782 
L 141.686213 58.368086 
L 142.702026 52.566317 
L 143.71784 48.106736 
L 144.395049 45.898384 
L 145.072258 44.315531 
L 145.749467 43.366632 
L 146.088072 43.13175 
L 146.426676 43.057187 
L 146.765281 43.143171 
L 147.103885 43.389742 
L 147.781094 44.363889 
L 148.458303 45.976267 
L 149.135513 48.22056 
L 149.812722 51.087499 
L 150.828535 56.527826 
L 151.844349 63.287202 
L 153.198767 74.230721 
L 154.553185 87.213174 
L 156.246208 106.017079 
L 158.277835 131.749925 
L 160.648067 165.000413 
L 169.113181 287.576741 
L 171.144808 312.151119 
L 172.837831 329.76347 
L 174.192249 341.656606 
L 175.546667 351.403308 
L 176.562481 357.212183 
L 177.578294 361.666942 
L 178.255503 363.861874 
L 178.932713 365.425326 
L 179.609922 366.350701 
L 179.948526 366.57285 
L 180.287131 366.634335 
L 180.625735 366.535157 
L 180.96434 366.275502 
L 181.641549 365.276412 
L 182.318758 363.642212 
L 182.995967 361.380985 
L 184.011781 356.838374 
L 185.027594 350.958798 
L 186.043408 343.789923 
L 187.397826 332.330531 
L 188.752244 318.859656 
L 190.445267 299.507545 
L 192.476894 273.227521 
L 195.185731 234.596005 
L 202.296426 130.898504 
L 204.328053 105.242733 
L 206.021076 86.529447 
L 207.375494 73.623838 
L 208.729913 62.78609 
L 209.745726 56.126686 
L 210.76154 50.795465 
L 211.777353 46.83955 
L 212.454563 44.983297 
L 213.131772 43.759727 
L 213.808981 43.172487 
L 214.147585 43.117877 
L 214.48619 43.222469 
L 214.824794 43.485947 
L 215.502003 44.487425 
L 216.179213 46.116591 
L 216.856422 48.367439 
L 217.872235 52.892903 
L 218.888049 58.765626 
L 219.903863 65.93845 
L 221.258281 77.41977 
L 222.612699 90.929231 
L 224.305722 110.336696 
L 226.337349 136.64121 
L 229.046185 175.259776 
L 236.156881 278.947809 
L 238.188508 304.584685 
L 239.881531 323.295632 
L 241.235949 336.175501 
L 242.590367 346.972606 
L 243.606181 353.601478 
L 244.621994 358.907566 
L 245.637808 362.846857 
L 246.315017 364.697541 
L 246.992226 365.920187 
L 247.669435 366.513186 
L 248.00804 366.572508 
L 248.346644 366.473162 
L 248.685249 366.214955 
L 249.362458 365.222058 
L 250.039667 363.595769 
L 250.716876 361.340843 
L 251.394085 358.464837 
L 252.409899 353.009722 
L 253.425713 346.227906 
L 254.780131 335.229121 
L 256.134549 322.165448 
L 257.827572 303.283538 
L 259.859199 277.496972 
L 262.229431 244.236655 
L 270.694544 121.718346 
L 272.726172 97.180602 
L 274.419194 79.630117 
L 275.773613 67.796645 
L 277.128031 58.123452 
L 278.143844 52.37759 
L 279.159658 47.978092 
L 279.836867 45.80947 
L 280.514076 44.265813 
L 281.191285 43.355568 
L 281.52989 43.139809 
L 281.868494 43.084234 
L 282.207099 43.189073 
L 282.545703 43.454366 
L 283.222913 44.465572 
L 283.900122 46.114515 
L 284.577331 48.394912 
L 285.593144 52.978491 
L 286.608958 58.917814 
L 287.624772 66.154395 
L 288.97919 77.692116 
L 290.333608 91.215301 
L 292.026631 110.605985 
L 294.058258 136.893022 
L 296.767094 175.545044 
L 303.87779 279.234009 
L 305.909417 304.821899 
L 307.60244 323.47434 
L 308.956858 336.315978 
L 310.311276 347.083806 
L 311.32709 353.70723 
L 312.342903 359.015012 
L 313.358717 362.952348 
L 314.035926 364.795569 
L 314.713135 366.003536 
L 315.390344 366.57106 
L 315.728949 366.613841 
L 316.067553 366.495901 
L 316.406158 366.217421 
L 317.083367 365.180483 
L 317.760576 363.508153 
L 318.437785 361.208505 
L 319.453599 356.607725 
L 320.469413 350.670515 
L 321.485226 343.448826 
L 322.839644 331.924367 
L 324.194063 318.396572 
L 325.887085 298.986457 
L 327.918713 272.655593 
L 330.627549 233.980994 
L 337.738244 130.354965 
L 339.769872 104.767596 
L 341.462894 86.122945 
L 342.817313 73.281346 
L 344.171731 62.510009 
L 345.187544 55.902415 
L 346.203358 50.624889 
L 347.219172 46.724565 
L 347.896381 44.906375 
L 348.57359 43.721598 
L 349.250799 43.173788 
L 349.589403 43.139098 
L 349.928008 43.263725 
L 350.266613 43.547333 
L 350.943822 44.589278 
L 351.621031 46.258854 
L 352.29824 48.54925 
L 353.314053 53.131802 
L 354.329867 59.058313 
L 355.345681 66.281133 
L 356.700099 77.822784 
L 358.054517 91.38537 
L 359.74754 110.850225 
L 361.779167 137.214443 
L 364.488003 175.876125 
L 371.598699 279.488988 
L 373.630326 305.05852 
L 375.323349 323.701698 
L 376.677767 336.521682 
L 378.032185 347.253177 
L 379.047999 353.829107 
L 380.063813 359.079346 
L 381.079626 362.960378 
L 381.756835 364.771224 
L 382.434044 365.953375 
L 383.111253 366.504535 
L 383.449858 366.543254 
L 383.788463 366.423553 
L 384.127067 366.145252 
L 384.804276 365.113002 
L 385.481485 363.448542 
L 386.158694 361.156678 
L 387.174508 356.559837 
L 388.190322 350.606313 
L 389.206135 343.34741 
L 390.560553 331.75323 
L 391.914972 318.149815 
L 393.607994 298.685167 
L 395.639622 272.347067 
L 398.348458 233.686594 
L 400.380085 203.360535 
L 400.380085 203.360535 
" clip-path="url(#p4161f1b6a0)" style="fill: none; stroke: #1f77b4; stroke-width: 1.5; stroke-linecap: square"/>
   </g>
   <g id="line2d_18">
    <path d="M 61.77554 43.10157 
L 62.114144 43.181382 
L 62.452749 43.42074 
L 63.129958 44.376966 
L 63.807167 45.96589 
L 64.484376 48.181333 
L 65.161585 51.014986 
L 66.177399 56.40035 
L 67.193213 63.10505 
L 68.547631 73.992653 
L 69.902049 86.943742 
L 71.595072 105.715806 
L 73.626699 131.413142 
L 75.996931 164.619402 
L 84.800649 291.593498 
L 86.493672 311.881758 
L 88.186694 329.531068 
L 89.541113 341.460956 
L 90.895531 351.237431 
L 91.911344 357.072429 
L 92.927158 361.564307 
L 93.604367 363.788289 
L 94.281576 365.383013 
L 94.958785 366.340864 
L 95.29739 366.579391 
L 95.635994 366.657187 
L 95.974599 366.574134 
L 96.313203 366.330297 
L 96.990413 365.361467 
L 97.667622 363.754938 
L 98.344831 361.517912 
L 99.02204 358.660558 
L 100.037853 353.240946 
L 101.053667 346.512655 
L 102.408085 335.61544 
L 103.762503 322.661462 
L 105.455526 303.883407 
L 107.487153 278.160431 
L 109.857385 244.909266 
L 118.322499 122.334755 
L 120.354126 97.720982 
L 122.047149 80.077348 
L 123.401567 68.146404 
L 124.755985 58.363219 
L 125.771799 52.539451 
L 126.787613 48.07554 
L 127.464822 45.87572 
L 128.142031 44.307093 
L 128.81924 43.375282 
L 129.157844 43.149161 
L 129.496449 43.083062 
L 129.835053 43.176887 
L 130.173658 43.43036 
L 130.850867 44.414252 
L 131.528076 46.028971 
L 132.205285 48.265899 
L 133.221099 52.767146 
L 134.236913 58.611729 
L 135.252726 65.752123 
L 136.607144 77.184732 
L 137.961563 90.643231 
L 139.654585 109.995199 
L 141.686213 136.273884 
L 144.395049 174.875438 
L 151.505744 278.599259 
L 153.537372 304.278882 
L 155.230394 323.029618 
L 156.584812 335.958015 
L 157.939231 346.808536 
L 158.955044 353.476713 
L 159.970858 358.819432 
L 160.986672 362.791746 
L 161.663881 364.662353 
L 162.34109 365.903263 
L 163.018299 366.510862 
L 163.356903 366.576746 
L 163.695508 366.484341 
L 164.034113 366.234033 
L 164.711322 365.259739 
L 165.388531 363.655549 
L 166.06574 361.42581 
L 166.742949 358.577537 
L 167.758763 353.167298 
L 168.774576 346.431735 
L 170.128994 335.490651 
L 171.483413 322.470774 
L 173.176435 303.606257 
L 175.208063 277.843107 
L 177.578294 244.60166 
L 186.043408 122.056961 
L 188.075035 97.463103 
L 189.768058 79.857101 
L 191.122476 67.980994 
L 192.476894 58.267898 
L 193.492708 52.492372 
L 194.508522 48.066144 
L 195.185731 45.882711 
L 195.86294 44.320074 
L 196.540149 43.386911 
L 196.878753 43.158424 
L 197.217358 43.089391 
L 197.555963 43.180131 
L 197.894567 43.430779 
L 198.571776 44.41144 
L 199.248985 46.028836 
L 199.926194 48.277531 
L 200.603403 51.149185 
L 201.619217 56.599332 
L 202.635031 63.374989 
L 203.989449 74.356877 
L 205.343867 87.38385 
L 207.03689 106.218812 
L 209.068517 131.974547 
L 211.438749 165.222971 
L 219.903863 287.78605 
L 221.93549 312.335819 
L 223.628513 329.911679 
L 224.982931 341.775391 
L 226.337349 351.481306 
L 227.353163 357.258477 
L 228.368976 361.692922 
L 229.046185 363.878822 
L 229.723394 365.435621 
L 230.400603 366.355697 
L 230.739208 366.575393 
L 231.077813 366.634394 
L 231.416417 366.532581 
L 231.755022 366.270019 
L 232.432231 365.263846 
L 233.10944 363.620111 
L 233.786649 361.346016 
L 234.802463 356.776002 
L 235.818276 350.858071 
L 236.83409 343.654054 
L 238.188508 332.161377 
L 239.542926 318.665807 
L 241.235949 299.2998 
L 243.267576 273.02074 
L 245.976413 234.368124 
L 253.087108 130.685604 
L 255.118735 105.067117 
L 256.811758 86.378061 
L 258.166176 73.510853 
L 259.520594 62.698992 
L 260.536408 56.050845 
L 261.552222 50.728366 
L 262.568035 46.782048 
L 263.245244 44.934061 
L 263.922453 43.721053 
L 264.599663 43.147222 
L 264.938267 43.100524 
L 265.276872 43.213893 
L 265.615476 43.487048 
L 266.292685 44.510684 
L 266.969894 46.165585 
L 267.647103 48.44303 
L 268.662917 53.002962 
L 269.678731 58.903229 
L 270.694544 66.095602 
L 272.048963 77.59063 
L 273.403381 91.103043 
L 275.096403 110.51087 
L 277.128031 136.84337 
L 279.836867 175.490689 
L 286.947563 279.141649 
L 288.97919 304.756589 
L 290.672213 323.43541 
L 292.026631 336.303136 
L 293.381049 347.088855 
L 294.396862 353.705322 
L 295.412676 358.993611 
L 296.42849 362.908942 
L 297.105699 364.740313 
L 297.782908 365.941165 
L 298.460117 366.508079 
L 298.798722 366.553457 
L 299.137326 366.440258 
L 299.475931 366.169012 
L 300.15314 365.15362 
L 300.830349 363.509533 
L 301.507558 361.24126 
L 302.523372 356.684831 
L 303.539185 350.775828 
L 304.554999 343.562727 
L 305.909417 332.025363 
L 307.263835 318.464211 
L 308.956858 299.014039 
L 310.988485 272.698713 
L 313.697322 234.06167 
L 320.808017 130.409793 
L 322.839644 104.803074 
L 324.532667 86.142822 
L 325.887085 73.311757 
L 327.241503 62.563539 
L 328.257317 55.969123 
L 329.273131 50.695034 
L 330.288944 46.785784 
L 330.966153 44.952445 
L 331.643363 43.74392 
L 332.320572 43.1677 
L 332.659176 43.11827 
L 332.997781 43.228433 
L 333.336385 43.498319 
L 334.013594 44.51688 
L 334.690803 46.171384 
L 335.368013 48.456377 
L 336.383826 53.046996 
L 337.39964 58.996444 
L 338.415453 66.249781 
L 339.769872 77.826854 
L 341.12429 91.391357 
L 342.817313 110.811666 
L 344.84894 137.119806 
L 347.557776 175.766554 
L 354.668472 279.441678 
L 356.700099 305.015333 
L 358.393122 323.638169 
L 359.74754 336.448763 
L 361.101958 347.186453 
L 362.117772 353.775591 
L 363.133585 359.053246 
L 364.149399 362.970935 
L 364.826608 364.80522 
L 365.503817 366.006444 
L 366.181026 366.568464 
L 366.519631 366.608663 
L 366.858235 366.4881 
L 367.19684 366.206842 
L 367.874049 365.163429 
L 368.551258 363.482655 
L 369.228467 361.171715 
L 370.244281 356.546782 
L 371.260094 350.574325 
L 372.275908 343.316147 
L 373.630326 331.75874 
L 374.984744 318.2057 
L 376.677767 298.779754 
L 378.709394 272.448079 
L 381.418231 233.754368 
L 388.190322 134.680469 
L 390.221949 108.625111 
L 391.914972 89.474467 
L 393.26939 76.180538 
L 394.623808 64.918394 
L 395.639622 57.910871 
L 396.655435 52.209637 
L 397.671249 47.865771 
L 398.348458 45.743147 
L 399.025667 44.24875 
L 399.702876 43.387846 
L 400.041481 43.195879 
L 400.380085 43.163067 
L 400.380085 43.163067 
" clip-path="url(#p4161f1b6a0)" style="fill: none; stroke: #ff7f0e; stroke-width: 1.5; stroke-linecap: square"/>
   </g>
   <g id="line2d_19">
    <path d="M 61.77554 204.848711 
L 65.838794 145.305617 
L 68.209026 113.933331 
L 69.902049 94.125173 
L 71.595072 77.043396 
L 72.94949 65.626149 
L 73.965303 58.495522 
L 74.981117 52.663936 
L 75.996931 48.183153 
L 76.67414 45.966556 
L 77.351349 44.376994 
L 78.028558 43.420741 
L 78.367163 43.181382 
L 78.705767 43.10157 
L 79.044372 43.181382 
L 79.382976 43.420741 
L 80.060185 44.376994 
L 80.737394 45.966556 
L 81.414603 48.183153 
L 82.091813 51.018038 
L 83.107626 56.404524 
L 84.12344 63.10861 
L 85.477858 73.992525 
L 86.832276 86.940119 
L 88.525299 105.712747 
L 90.556926 131.417045 
L 92.927158 164.623833 
L 101.730876 291.517163 
L 103.423899 311.814015 
L 105.116922 329.477025 
L 106.47134 341.416339 
L 107.825758 351.2019 
L 108.841572 357.033486 
L 109.857385 361.514268 
L 110.534594 363.730866 
L 111.211803 365.320428 
L 111.889013 366.276681 
L 112.227617 366.51604 
L 112.566222 366.595852 
L 112.904826 366.51604 
L 113.243431 366.276681 
L 113.92064 365.320428 
L 114.597849 363.730866 
L 115.275058 361.514268 
L 115.952267 358.679384 
L 116.968081 353.292898 
L 117.983894 346.588811 
L 119.338313 335.704897 
L 120.692731 322.757303 
L 122.385753 303.984675 
L 124.417381 278.280376 
L 126.787613 245.073589 
L 135.591331 118.180259 
L 137.284353 97.883407 
L 138.977376 80.220396 
L 140.331794 68.281083 
L 141.686213 58.495522 
L 142.702026 52.663936 
L 143.71784 48.183153 
L 144.395049 45.966556 
L 145.072258 44.376994 
L 145.749467 43.420741 
L 146.088072 43.181382 
L 146.426676 43.10157 
L 146.765281 43.181382 
L 147.103885 43.420741 
L 147.781094 44.376994 
L 148.458303 45.966556 
L 149.135513 48.183153 
L 149.812722 51.018038 
L 150.828535 56.404524 
L 151.844349 63.10861 
L 153.198767 73.992525 
L 154.553185 86.940119 
L 156.246208 105.712747 
L 158.277835 131.417045 
L 160.648067 164.623833 
L 169.451785 291.517163 
L 171.144808 311.814015 
L 172.837831 329.477025 
L 174.192249 341.416339 
L 175.546667 351.2019 
L 176.562481 357.033486 
L 177.578294 361.514268 
L 178.255503 363.730866 
L 178.932713 365.320428 
L 179.609922 366.276681 
L 179.948526 366.51604 
L 180.287131 366.595852 
L 180.625735 366.51604 
L 180.96434 366.276681 
L 181.641549 365.320428 
L 182.318758 363.730866 
L 182.995967 361.514268 
L 183.673176 358.679384 
L 184.68899 353.292898 
L 185.704803 346.588811 
L 187.059222 335.704897 
L 188.41364 322.757303 
L 190.106663 303.984675 
L 192.13829 278.280376 
L 194.508522 245.073589 
L 203.31224 118.180259 
L 205.005263 97.883407 
L 206.698285 80.220396 
L 208.052703 68.281083 
L 209.407122 58.495522 
L 210.422935 52.663936 
L 211.438749 48.183153 
L 212.115958 45.966556 
L 212.793167 44.376994 
L 213.470376 43.420741 
L 213.808981 43.181382 
L 214.147585 43.10157 
L 214.48619 43.181382 
L 214.824794 43.420741 
L 215.502003 44.376994 
L 216.179213 45.966556 
L 216.856422 48.183153 
L 217.533631 51.018038 
L 218.549444 56.404524 
L 219.565258 63.10861 
L 220.919676 73.992525 
L 222.274094 86.940119 
L 223.967117 105.712747 
L 225.998744 131.417045 
L 228.368976 164.623833 
L 237.172694 291.517163 
L 238.865717 311.814015 
L 240.55874 329.477025 
L 241.913158 341.416339 
L 243.267576 351.2019 
L 244.28339 357.033486 
L 245.299203 361.514268 
L 245.976413 363.730866 
L 246.653622 365.320428 
L 247.330831 366.276681 
L 247.669435 366.51604 
L 248.00804 366.595852 
L 248.346644 366.51604 
L 248.685249 366.276681 
L 249.362458 365.320428 
L 250.039667 363.730866 
L 250.716876 361.514268 
L 251.394085 358.679384 
L 252.409899 353.292898 
L 253.425713 346.588811 
L 254.780131 335.704897 
L 256.134549 322.757303 
L 257.827572 303.984675 
L 259.859199 278.280376 
L 262.229431 245.073589 
L 271.033149 118.180259 
L 272.726172 97.883407 
L 274.419194 80.220396 
L 275.773613 68.281083 
L 277.128031 58.495522 
L 278.143844 52.663936 
L 279.159658 48.183153 
L 279.836867 45.966556 
L 280.514076 44.376994 
L 281.191285 43.420741 
L 281.52989 43.181382 
L 281.868494 43.10157 
L 282.207099 43.181382 
L 282.545703 43.420741 
L 283.222913 44.376994 
L 283.900122 45.966556 
L 284.577331 48.183153 
L 285.25454 51.018038 
L 286.270353 56.404524 
L 287.286167 63.10861 
L 288.640585 73.992525 
L 289.995003 86.940119 
L 291.688026 105.712747 
L 293.719653 131.417045 
L 296.089885 164.623833 
L 304.893603 291.517163 
L 306.586626 311.814015 
L 308.279649 329.477025 
L 309.634067 341.416339 
L 310.988485 351.2019 
L 312.004299 357.033486 
L 313.020113 361.514268 
L 313.697322 363.730866 
L 314.374531 365.320428 
L 315.05174 366.276681 
L 315.390344 366.51604 
L 315.728949 366.595852 
L 316.067553 366.51604 
L 316.406158 366.276681 
L 317.083367 365.320428 
L 317.760576 363.730866 
L 318.437785 361.514268 
L 319.114994 358.679384 
L 320.130808 353.292898 
L 321.146622 346.588811 
L 322.50104 335.704897 
L 323.855458 322.757303 
L 325.548481 303.984675 
L 327.580108 278.280376 
L 329.95034 245.073589 
L 338.754058 118.180259 
L 340.447081 97.883407 
L 342.140103 80.220396 
L 343.494522 68.281083 
L 344.84894 58.495522 
L 345.864753 52.663936 
L 346.880567 48.183153 
L 347.557776 45.966556 
L 348.234985 44.376994 
L 348.912194 43.420741 
L 349.250799 43.181382 
L 349.589403 43.10157 
L 349.928008 43.181382 
L 350.266613 43.420741 
L 350.943822 44.376994 
L 351.621031 45.966556 
L 352.29824 48.183153 
L 352.975449 51.018038 
L 353.991263 56.404524 
L 355.007076 63.10861 
L 356.361494 73.992525 
L 357.715913 86.940119 
L 359.408935 105.712747 
L 361.440562 131.417045 
L 363.810794 164.623833 
L 372.614513 291.517163 
L 374.307535 311.814015 
L 376.000558 329.477025 
L 377.354976 341.416339 
L 378.709394 351.2019 
L 379.725208 357.033486 
L 380.741022 361.514268 
L 381.418231 363.730866 
L 382.09544 365.320428 
L 382.772649 366.276681 
L 383.111253 366.51604 
L 383.449858 366.595852 
L 383.788463 366.51604 
L 384.127067 366.276681 
L 384.804276 365.320428 
L 385.481485 363.730866 
L 386.158694 361.514268 
L 386.835903 358.679384 
L 387.851717 353.292898 
L 388.867531 346.588811 
L 390.221949 335.704897 
L 391.576367 322.757303 
L 393.26939 303.984675 
L 395.301017 278.280376 
L 397.671249 245.073589 
L 400.380085 204.848711 
L 400.380085 204.848711 
" clip-path="url(#p4161f1b6a0)" style="fill: none; stroke-dasharray: 5.55,2.4; stroke-dashoffset: 0; stroke: #000000; stroke-width: 1.5"/>
   </g>
   <g id="line2d_20">
    <path d="M 61.77554 43.10157 
L 62.114144 43.181382 
L 62.452749 43.420741 
L 63.129958 44.376994 
L 63.807167 45.966556 
L 64.484376 48.183153 
L 65.161585 51.018038 
L 66.177399 56.404524 
L 67.193213 63.10861 
L 68.547631 73.992525 
L 69.902049 86.940119 
L 71.595072 105.712747 
L 73.626699 131.417045 
L 75.996931 164.623833 
L 84.800649 291.517163 
L 86.493672 311.814015 
L 88.186694 329.477025 
L 89.541113 341.416339 
L 90.895531 351.2019 
L 91.911344 357.033486 
L 92.927158 361.514268 
L 93.604367 363.730866 
L 94.281576 365.320428 
L 94.958785 366.276681 
L 95.29739 366.51604 
L 95.635994 366.595852 
L 95.974599 366.51604 
L 96.313203 366.276681 
L 96.990413 365.320428 
L 97.667622 363.730866 
L 98.344831 361.514268 
L 99.02204 358.679384 
L 100.037853 353.292898 
L 101.053667 346.588811 
L 102.408085 335.704897 
L 103.762503 322.757303 
L 105.455526 303.984675 
L 107.487153 278.280376 
L 109.857385 245.073589 
L 118.661103 118.180259 
L 120.354126 97.883407 
L 122.047149 80.220396 
L 123.401567 68.281083 
L 124.755985 58.495522 
L 125.771799 52.663936 
L 126.787613 48.183153 
L 127.464822 45.966556 
L 128.142031 44.376994 
L 128.81924 43.420741 
L 129.157844 43.181382 
L 129.496449 43.10157 
L 129.835053 43.181382 
L 130.173658 43.420741 
L 130.850867 44.376994 
L 131.528076 45.966556 
L 132.205285 48.183153 
L 132.882494 51.018038 
L 133.898308 56.404524 
L 134.914122 63.10861 
L 136.26854 73.992525 
L 137.622958 86.940119 
L 139.315981 105.712747 
L 141.347608 131.417045 
L 143.71784 164.623833 
L 152.521558 291.517163 
L 154.214581 311.814015 
L 155.907603 329.477025 
L 157.262022 341.416339 
L 158.61644 351.2019 
L 159.632253 357.033486 
L 160.648067 361.514268 
L 161.325276 363.730866 
L 162.002485 365.320428 
L 162.679694 366.276681 
L 163.018299 366.51604 
L 163.356903 366.595852 
L 163.695508 366.51604 
L 164.034113 366.276681 
L 164.711322 365.320428 
L 165.388531 363.730866 
L 166.06574 361.514268 
L 166.742949 358.679384 
L 167.758763 353.292898 
L 168.774576 346.588811 
L 170.128994 335.704897 
L 171.483413 322.757303 
L 173.176435 303.984675 
L 175.208063 278.280376 
L 177.578294 245.073589 
L 186.382013 118.180259 
L 188.075035 97.883407 
L 189.768058 80.220396 
L 191.122476 68.281083 
L 192.476894 58.495522 
L 193.492708 52.663936 
L 194.508522 48.183153 
L 195.185731 45.966556 
L 195.86294 44.376994 
L 196.540149 43.420741 
L 196.878753 43.181382 
L 197.217358 43.10157 
L 197.555963 43.181382 
L 197.894567 43.420741 
L 198.571776 44.376994 
L 199.248985 45.966556 
L 199.926194 48.183153 
L 200.603403 51.018038 
L 201.619217 56.404524 
L 202.635031 63.10861 
L 203.989449 73.992525 
L 205.343867 86.940119 
L 207.03689 105.712747 
L 209.068517 131.417045 
L 211.438749 164.623833 
L 220.242467 291.517163 
L 221.93549 311.814015 
L 223.628513 329.477025 
L 224.982931 341.416339 
L 226.337349 351.2019 
L 227.353163 357.033486 
L 228.368976 361.514268 
L 229.046185 363.730866 
L 229.723394 365.320428 
L 230.400603 366.276681 
L 230.739208 366.51604 
L 231.077813 366.595852 
L 231.416417 366.51604 
L 231.755022 366.276681 
L 232.432231 365.320428 
L 233.10944 363.730866 
L 233.786649 361.514268 
L 234.463858 358.679384 
L 235.479672 353.292898 
L 236.495485 346.588811 
L 237.849903 335.704897 
L 239.204322 322.757303 
L 240.897344 303.984675 
L 242.928972 278.280376 
L 245.299203 245.073589 
L 254.102922 118.180259 
L 255.795944 97.883407 
L 257.488967 80.220396 
L 258.843385 68.281083 
L 260.197803 58.495522 
L 261.213617 52.663936 
L 262.229431 48.183153 
L 262.90664 45.966556 
L 263.583849 44.376994 
L 264.261058 43.420741 
L 264.599663 43.181382 
L 264.938267 43.10157 
L 265.276872 43.181382 
L 265.615476 43.420741 
L 266.292685 44.376994 
L 266.969894 45.966556 
L 267.647103 48.183153 
L 268.324313 51.018038 
L 269.340126 56.404524 
L 270.35594 63.10861 
L 271.710358 73.992525 
L 273.064776 86.940119 
L 274.757799 105.712747 
L 276.789426 131.417045 
L 279.159658 164.623833 
L 287.963376 291.517163 
L 289.656399 311.814015 
L 291.349422 329.477025 
L 292.70384 341.416339 
L 294.058258 351.2019 
L 295.074072 357.033486 
L 296.089885 361.514268 
L 296.767094 363.730866 
L 297.444303 365.320428 
L 298.121512 366.276681 
L 298.460117 366.51604 
L 298.798722 366.595852 
L 299.137326 366.51604 
L 299.475931 366.276681 
L 300.15314 365.320428 
L 300.830349 363.730866 
L 301.507558 361.514268 
L 302.184767 358.679384 
L 303.200581 353.292898 
L 304.216394 346.588811 
L 305.570813 335.704897 
L 306.925231 322.757303 
L 308.618253 303.984675 
L 310.649881 278.280376 
L 313.020113 245.073589 
L 321.823831 118.180259 
L 323.516853 97.883407 
L 325.209876 80.220396 
L 326.564294 68.281083 
L 327.918713 58.495522 
L 328.934526 52.663936 
L 329.95034 48.183153 
L 330.627549 45.966556 
L 331.304758 44.376994 
L 331.981967 43.420741 
L 332.320572 43.181382 
L 332.659176 43.10157 
L 332.997781 43.181382 
L 333.336385 43.420741 
L 334.013594 44.376994 
L 334.690803 45.966556 
L 335.368013 48.183153 
L 336.045222 51.018038 
L 337.061035 56.404524 
L 338.076849 63.10861 
L 339.431267 73.992525 
L 340.785685 86.940119 
L 342.478708 105.712747 
L 344.510335 131.417045 
L 346.880567 164.623833 
L 355.684285 291.517163 
L 357.377308 311.814015 
L 359.070331 329.477025 
L 360.424749 341.416339 
L 361.779167 351.2019 
L 362.794981 357.033486 
L 363.810794 361.514268 
L 364.488003 363.730866 
L 365.165213 365.320428 
L 365.842422 366.276681 
L 366.181026 366.51604 
L 366.519631 366.595852 
L 366.858235 366.51604 
L 367.19684 366.276681 
L 367.874049 365.320428 
L 368.551258 363.730866 
L 369.228467 361.514268 
L 369.905676 358.679384 
L 370.92149 353.292898 
L 371.937303 346.588811 
L 373.291722 335.704897 
L 374.64614 322.757303 
L 376.339163 303.984675 
L 378.37079 278.280376 
L 380.741022 245.073589 
L 389.54474 118.180259 
L 391.237763 97.883407 
L 392.930785 80.220396 
L 394.285203 68.281083 
L 395.639622 58.495522 
L 396.655435 52.663936 
L 397.671249 48.183153 
L 398.348458 45.966556 
L 399.025667 44.376994 
L 399.702876 43.420741 
L 400.041481 43.181382 
L 400.380085 43.10157 
L 400.380085 43.10157 
" clip-path="url(#p4161f1b6a0)" style="fill: none; stroke-dasharray: 5.55,2.4; stroke-dashoffset: 0; stroke: #808080; stroke-width: 1.5"/>
   </g>
   <g id="patch_3">
    <path d="M 44.845313 382.837187 
L 44.845313 26.877187 
" style="fill: none; stroke: #000000; stroke-width: 0.8; stroke-linejoin: miter; stroke-linecap: square"/>
   </g>
   <g id="patch_4">
    <path d="M 417.310313 382.837187 
L 417.310313 26.877187 
" style="fill: none; stroke: #000000; stroke-width: 0.8; stroke-linejoin: miter; stroke-linecap: square"/>
   </g>
   <g id="patch_5">
    <path d="M 44.845313 382.837187 
L 417.310313 382.837187 
" style="fill: none; stroke: #000000; stroke-width: 0.8; stroke-linejoin: miter; stroke-linecap: square"/>
   </g>
   <g id="patch_6">
    <path d="M 44.845313 26.877187 
L 417.310313 26.877187 
" style="fill: none; stroke: #000000; stroke-width: 0.8; stroke-linejoin: miter; stroke-linecap: square"/>
   </g>
   <g id="text_18">
    <!-- (a) -->
    <g transform="translate(218.539688 20.877187) scale(0.18 -0.18)">
     <defs>
      <path id="DejaVuSans-61" d="M 2194 1759 
Q 1497 1759 1228 1600 
Q 959 1441 959 1056 
Q 959 750 1161 570 
Q 1363 391 1709 391 
Q 2188 391 2477 730 
Q 2766 1069 2766 1631 
L 2766 1759 
L 2194 1759 
z
M 3341 1997 
L 3341 0 
L 2766 0 
L 2766 531 
Q 2569 213 2275 61 
Q 1981 -91 1556 -91 
Q 1019 -91 701 211 
Q 384 513 384 1019 
Q 384 1609 779 1909 
Q 1175 2209 1959 2209 
L 2766 2209 
L 2766 2266 
Q 2766 2663 2505 2880 
Q 2244 3097 1772 3097 
Q 1472 3097 1187 3025 
Q 903 2953 641 2809 
L 641 3341 
Q 956 3463 1253 3523 
Q 1550 3584 1831 3584 
Q 2591 3584 2966 3190 
Q 3341 2797 3341 1997 
z
" transform="scale(0.015625)"/>
     </defs>
     <use xlink:href="#DejaVuSans-28"/>
     <use xlink:href="#DejaVuSans-61" x="39.013672"/>
     <use xlink:href="#DejaVuSans-29" x="100.292969"/>
    </g>
   </g>
   <g id="legend_1">
    <g id="patch_7">
     <path d="M 336.250312 106.932187 
L 408.910313 106.932187 
Q 411.310313 106.932187 411.310313 104.532188 
L 411.310313 35.277187 
Q 411.310313 32.877187 408.910313 32.877187 
L 336.250312 32.877187 
Q 333.850312 32.877187 333.850312 35.277187 
L 333.850312 104.532188 
Q 333.850312 106.932187 336.250312 106.932187 
z
" style="fill: #ffffff; opacity: 0.8; stroke: #cccccc; stroke-linejoin: miter"/>
    </g>
    <g id="line2d_21">
     <path d="M 338.650312 42.595312 
L 350.650312 42.595312 
L 362.650312 42.595312 
" style="fill: none; stroke: #1f77b4; stroke-width: 1.5; stroke-linecap: square"/>
    </g>
    <g id="text_19">
     <!-- x(t) -->
     <g transform="translate(372.250313 46.795312) scale(0.12 -0.12)">
      <defs>
       <path id="DejaVuSans-78" d="M 3513 3500 
L 2247 1797 
L 3578 0 
L 2900 0 
L 1881 1375 
L 863 0 
L 184 0 
L 1544 1831 
L 300 3500 
L 978 3500 
L 1906 2253 
L 2834 3500 
L 3513 3500 
z
" transform="scale(0.015625)"/>
      </defs>
      <use xlink:href="#DejaVuSans-78"/>
      <use xlink:href="#DejaVuSans-28" x="59.179688"/>
      <use xlink:href="#DejaVuSans-74" x="98.193359"/>
      <use xlink:href="#DejaVuSans-29" x="137.402344"/>
     </g>
    </g>
    <g id="line2d_22">
     <path d="M 338.650312 60.209062 
L 350.650312 60.209062 
L 362.650312 60.209062 
" style="fill: none; stroke: #ff7f0e; stroke-width: 1.5; stroke-linecap: square"/>
    </g>
    <g id="text_20">
     <!-- v(t) -->
     <g transform="translate(372.250313 64.409062) scale(0.12 -0.12)">
      <defs>
       <path id="DejaVuSans-76" d="M 191 3500 
L 800 3500 
L 1894 563 
L 2988 3500 
L 3597 3500 
L 2284 0 
L 1503 0 
L 191 3500 
z
" transform="scale(0.015625)"/>
      </defs>
      <use xlink:href="#DejaVuSans-76"/>
      <use xlink:href="#DejaVuSans-28" x="59.179688"/>
      <use xlink:href="#DejaVuSans-74" x="98.193359"/>
      <use xlink:href="#DejaVuSans-29" x="137.402344"/>
     </g>
    </g>
    <g id="line2d_23">
     <path d="M 338.650312 77.822812 
L 350.650312 77.822812 
L 362.650312 77.822812 
" style="fill: none; stroke-dasharray: 5.55,2.4; stroke-dashoffset: 0; stroke: #000000; stroke-width: 1.5"/>
    </g>
    <g id="text_21">
     <!-- sin(t) -->
     <g transform="translate(372.250313 82.022812) scale(0.12 -0.12)">
      <defs>
       <path id="DejaVuSans-69" d="M 603 3500 
L 1178 3500 
L 1178 0 
L 603 0 
L 603 3500 
z
M 603 4863 
L 1178 4863 
L 1178 4134 
L 603 4134 
L 603 4863 
z
" transform="scale(0.015625)"/>
       <path id="DejaVuSans-6e" d="M 3513 2113 
L 3513 0 
L 2938 0 
L 2938 2094 
Q 2938 2591 2744 2837 
Q 2550 3084 2163 3084 
Q 1697 3084 1428 2787 
Q 1159 2491 1159 1978 
L 1159 0 
L 581 0 
L 581 3500 
L 1159 3500 
L 1159 2956 
Q 1366 3272 1645 3428 
Q 1925 3584 2291 3584 
Q 2894 3584 3203 3211 
Q 3513 2838 3513 2113 
z
" transform="scale(0.015625)"/>
      </defs>
      <use xlink:href="#DejaVuSans-73"/>
      <use xlink:href="#DejaVuSans-69" x="52.099609"/>
      <use xlink:href="#DejaVuSans-6e" x="79.882812"/>
      <use xlink:href="#DejaVuSans-28" x="143.261719"/>
      <use xlink:href="#DejaVuSans-74" x="182.275391"/>
      <use xlink:href="#DejaVuSans-29" x="221.484375"/>
     </g>
    </g>
    <g id="line2d_24">
     <path d="M 338.650312 95.436562 
L 350.650312 95.436562 
L 362.650312 95.436562 
" style="fill: none; stroke-dasharray: 5.55,2.4; stroke-dashoffset: 0; stroke: #808080; stroke-width: 1.5"/>
    </g>
    <g id="text_22">
     <!-- cos(t) -->
     <g transform="translate(372.250313 99.636562) scale(0.12 -0.12)">
      <defs>
       <path id="DejaVuSans-63" d="M 3122 3366 
L 3122 2828 
Q 2878 2963 2633 3030 
Q 2388 3097 2138 3097 
Q 1578 3097 1268 2742 
Q 959 2388 959 1747 
Q 959 1106 1268 751 
Q 1578 397 2138 397 
Q 2388 397 2633 464 
Q 2878 531 3122 666 
L 3122 134 
Q 2881 22 2623 -34 
Q 2366 -91 2075 -91 
Q 1284 -91 818 406 
Q 353 903 353 1747 
Q 353 2603 823 3093 
Q 1294 3584 2113 3584 
Q 2378 3584 2631 3529 
Q 2884 3475 3122 3366 
z
" transform="scale(0.015625)"/>
       <path id="DejaVuSans-6f" d="M 1959 3097 
Q 1497 3097 1228 2736 
Q 959 2375 959 1747 
Q 959 1119 1226 758 
Q 1494 397 1959 397 
Q 2419 397 2687 759 
Q 2956 1122 2956 1747 
Q 2956 2369 2687 2733 
Q 2419 3097 1959 3097 
z
M 1959 3584 
Q 2709 3584 3137 3096 
Q 3566 2609 3566 1747 
Q 3566 888 3137 398 
Q 2709 -91 1959 -91 
Q 1206 -91 779 398 
Q 353 888 353 1747 
Q 353 2609 779 3096 
Q 1206 3584 1959 3584 
z
" transform="scale(0.015625)"/>
      </defs>
      <use xlink:href="#DejaVuSans-63"/>
      <use xlink:href="#DejaVuSans-6f" x="54.980469"/>
      <use xlink:href="#DejaVuSans-73" x="116.162109"/>
      <use xlink:href="#DejaVuSans-28" x="168.261719"/>
      <use xlink:href="#DejaVuSans-74" x="207.275391"/>
      <use xlink:href="#DejaVuSans-29" x="246.484375"/>
     </g>
    </g>
   </g>
  </g>
  <g id="axes_2">
   <g id="patch_8">
    <path d="M 477.090312 382.837187 
L 849.555312 382.837187 
L 849.555312 26.877187 
L 477.090312 26.877187 
z
" style="fill: #ffffff"/>
   </g>
   <g id="matplotlib.axis_3">
    <g id="xtick_8">
     <g id="line2d_25">
      <g>
       <use xlink:href="#md66d86ce46" x="494.084724" y="382.837187" style="stroke: #000000; stroke-width: 0.8"/>
      </g>
     </g>
     <g id="text_23">
      <!-- −1.00 -->
      <g transform="translate(478.762068 397.435625) scale(0.1 -0.1)">
       <use xlink:href="#DejaVuSans-2212"/>
       <use xlink:href="#DejaVuSans-31" x="83.789062"/>
       <use xlink:href="#DejaVuSans-2e" x="147.412109"/>
       <use xlink:href="#DejaVuSans-30" x="179.199219"/>
       <use xlink:href="#DejaVuSans-30" x="242.822266"/>
      </g>
     </g>
    </g>
    <g id="xtick_9">
     <g id="line2d_26">
      <g>
       <use xlink:href="#md66d86ce46" x="536.399848" y="382.837187" style="stroke: #000000; stroke-width: 0.8"/>
      </g>
     </g>
     <g id="text_24">
      <!-- −0.75 -->
      <g transform="translate(521.077192 397.435625) scale(0.1 -0.1)">
       <use xlink:href="#DejaVuSans-2212"/>
       <use xlink:href="#DejaVuSans-30" x="83.789062"/>
       <use xlink:href="#DejaVuSans-2e" x="147.412109"/>
       <use xlink:href="#DejaVuSans-37" x="179.199219"/>
       <use xlink:href="#DejaVuSans-35" x="242.822266"/>
      </g>
     </g>
    </g>
    <g id="xtick_10">
     <g id="line2d_27">
      <g>
       <use xlink:href="#md66d86ce46" x="578.714973" y="382.837187" style="stroke: #000000; stroke-width: 0.8"/>
      </g>
     </g>
     <g id="text_25">
      <!-- −0.50 -->
      <g transform="translate(563.392316 397.435625) scale(0.1 -0.1)">
       <use xlink:href="#DejaVuSans-2212"/>
       <use xlink:href="#DejaVuSans-30" x="83.789062"/>
       <use xlink:href="#DejaVuSans-2e" x="147.412109"/>
       <use xlink:href="#DejaVuSans-35" x="179.199219"/>
       <use xlink:href="#DejaVuSans-30" x="242.822266"/>
      </g>
     </g>
    </g>
    <g id="xtick_11">
     <g id="line2d_28">
      <g>
       <use xlink:href="#md66d86ce46" x="621.030097" y="382.837187" style="stroke: #000000; stroke-width: 0.8"/>
      </g>
     </g>
     <g id="text_26">
      <!-- −0.25 -->
      <g transform="translate(605.707441 397.435625) scale(0.1 -0.1)">
       <use xlink:href="#DejaVuSans-2212"/>
       <use xlink:href="#DejaVuSans-30" x="83.789062"/>
       <use xlink:href="#DejaVuSans-2e" x="147.412109"/>
       <use xlink:href="#DejaVuSans-32" x="179.199219"/>
       <use xlink:href="#DejaVuSans-35" x="242.822266"/>
      </g>
     </g>
    </g>
    <g id="xtick_12">
     <g id="line2d_29">
      <g>
       <use xlink:href="#md66d86ce46" x="663.345221" y="382.837187" style="stroke: #000000; stroke-width: 0.8"/>
      </g>
     </g>
     <g id="text_27">
      <!-- 0.00 -->
      <g transform="translate(652.212409 397.435625) scale(0.1 -0.1)">
       <use xlink:href="#DejaVuSans-30"/>
       <use xlink:href="#DejaVuSans-2e" x="63.623047"/>
       <use xlink:href="#DejaVuSans-30" x="95.410156"/>
       <use xlink:href="#DejaVuSans-30" x="159.033203"/>
      </g>
     </g>
    </g>
    <g id="xtick_13">
     <g id="line2d_30">
      <g>
       <use xlink:href="#md66d86ce46" x="705.660346" y="382.837187" style="stroke: #000000; stroke-width: 0.8"/>
      </g>
     </g>
     <g id="text_28">
      <!-- 0.25 -->
      <g transform="translate(694.527533 397.435625) scale(0.1 -0.1)">
       <use xlink:href="#DejaVuSans-30"/>
       <use xlink:href="#DejaVuSans-2e" x="63.623047"/>
       <use xlink:href="#DejaVuSans-32" x="95.410156"/>
       <use xlink:href="#DejaVuSans-35" x="159.033203"/>
      </g>
     </g>
    </g>
    <g id="xtick_14">
     <g id="line2d_31">
      <g>
       <use xlink:href="#md66d86ce46" x="747.97547" y="382.837187" style="stroke: #000000; stroke-width: 0.8"/>
      </g>
     </g>
     <g id="text_29">
      <!-- 0.50 -->
      <g transform="translate(736.842657 397.435625) scale(0.1 -0.1)">
       <use xlink:href="#DejaVuSans-30"/>
       <use xlink:href="#DejaVuSans-2e" x="63.623047"/>
       <use xlink:href="#DejaVuSans-35" x="95.410156"/>
       <use xlink:href="#DejaVuSans-30" x="159.033203"/>
      </g>
     </g>
    </g>
    <g id="xtick_15">
     <g id="line2d_32">
      <g>
       <use xlink:href="#md66d86ce46" x="790.290594" y="382.837187" style="stroke: #000000; stroke-width: 0.8"/>
      </g>
     </g>
     <g id="text_30">
      <!-- 0.75 -->
      <g transform="translate(779.157782 397.435625) scale(0.1 -0.1)">
       <use xlink:href="#DejaVuSans-30"/>
       <use xlink:href="#DejaVuSans-2e" x="63.623047"/>
       <use xlink:href="#DejaVuSans-37" x="95.410156"/>
       <use xlink:href="#DejaVuSans-35" x="159.033203"/>
      </g>
     </g>
    </g>
    <g id="xtick_16">
     <g id="line2d_33">
      <g>
       <use xlink:href="#md66d86ce46" x="832.605718" y="382.837187" style="stroke: #000000; stroke-width: 0.8"/>
      </g>
     </g>
     <g id="text_31">
      <!-- 1.00 -->
      <g transform="translate(821.472906 397.435625) scale(0.1 -0.1)">
       <use xlink:href="#DejaVuSans-31"/>
       <use xlink:href="#DejaVuSans-2e" x="63.623047"/>
       <use xlink:href="#DejaVuSans-30" x="95.410156"/>
       <use xlink:href="#DejaVuSans-30" x="159.033203"/>
      </g>
     </g>
    </g>
    <g id="text_32">
     <!-- x -->
     <g transform="translate(659.179687 414.153125) scale(0.14 -0.14)">
      <use xlink:href="#DejaVuSans-78"/>
     </g>
    </g>
   </g>
   <g id="matplotlib.axis_4">
    <g id="ytick_10">
     <g id="line2d_34">
      <g>
       <use xlink:href="#m3e67d2dd7e" x="477.090312" y="374.120772" style="stroke: #000000; stroke-width: 0.8"/>
      </g>
     </g>
     <g id="text_33">
      <!-- −1.00 -->
      <g transform="translate(439.445 377.91999) scale(0.1 -0.1)">
       <use xlink:href="#DejaVuSans-2212"/>
       <use xlink:href="#DejaVuSans-31" x="83.789062"/>
       <use xlink:href="#DejaVuSans-2e" x="147.412109"/>
       <use xlink:href="#DejaVuSans-30" x="179.199219"/>
       <use xlink:href="#DejaVuSans-30" x="242.822266"/>
      </g>
     </g>
    </g>
    <g id="ytick_11">
     <g id="line2d_35">
      <g>
       <use xlink:href="#m3e67d2dd7e" x="477.090312" y="331.805647" style="stroke: #000000; stroke-width: 0.8"/>
      </g>
     </g>
     <g id="text_34">
      <!-- −0.75 -->
      <g transform="translate(439.445 335.604866) scale(0.1 -0.1)">
       <use xlink:href="#DejaVuSans-2212"/>
       <use xlink:href="#DejaVuSans-30" x="83.789062"/>
       <use xlink:href="#DejaVuSans-2e" x="147.412109"/>
       <use xlink:href="#DejaVuSans-37" x="179.199219"/>
       <use xlink:href="#DejaVuSans-35" x="242.822266"/>
      </g>
     </g>
    </g>
    <g id="ytick_12">
     <g id="line2d_36">
      <g>
       <use xlink:href="#m3e67d2dd7e" x="477.090312" y="289.490523" style="stroke: #000000; stroke-width: 0.8"/>
      </g>
     </g>
     <g id="text_35">
      <!-- −0.50 -->
      <g transform="translate(439.445 293.289742) scale(0.1 -0.1)">
       <use xlink:href="#DejaVuSans-2212"/>
       <use xlink:href="#DejaVuSans-30" x="83.789062"/>
       <use xlink:href="#DejaVuSans-2e" x="147.412109"/>
       <use xlink:href="#DejaVuSans-35" x="179.199219"/>
       <use xlink:href="#DejaVuSans-30" x="242.822266"/>
      </g>
     </g>
    </g>
    <g id="ytick_13">
     <g id="line2d_37">
      <g>
       <use xlink:href="#m3e67d2dd7e" x="477.090312" y="247.175399" style="stroke: #000000; stroke-width: 0.8"/>
      </g>
     </g>
     <g id="text_36">
      <!-- −0.25 -->
      <g transform="translate(439.445 250.974617) scale(0.1 -0.1)">
       <use xlink:href="#DejaVuSans-2212"/>
       <use xlink:href="#DejaVuSans-30" x="83.789062"/>
       <use xlink:href="#DejaVuSans-2e" x="147.412109"/>
       <use xlink:href="#DejaVuSans-32" x="179.199219"/>
       <use xlink:href="#DejaVuSans-35" x="242.822266"/>
      </g>
     </g>
    </g>
    <g id="ytick_14">
     <g id="line2d_38">
      <g>
       <use xlink:href="#m3e67d2dd7e" x="477.090312" y="204.860274" style="stroke: #000000; stroke-width: 0.8"/>
      </g>
     </g>
     <g id="text_37">
      <!-- 0.00 -->
      <g transform="translate(447.824687 208.659493) scale(0.1 -0.1)">
       <use xlink:href="#DejaVuSans-30"/>
       <use xlink:href="#DejaVuSans-2e" x="63.623047"/>
       <use xlink:href="#DejaVuSans-30" x="95.410156"/>
       <use xlink:href="#DejaVuSans-30" x="159.033203"/>
      </g>
     </g>
    </g>
    <g id="ytick_15">
     <g id="line2d_39">
      <g>
       <use xlink:href="#m3e67d2dd7e" x="477.090312" y="162.54515" style="stroke: #000000; stroke-width: 0.8"/>
      </g>
     </g>
     <g id="text_38">
      <!-- 0.25 -->
      <g transform="translate(447.824687 166.344369) scale(0.1 -0.1)">
       <use xlink:href="#DejaVuSans-30"/>
       <use xlink:href="#DejaVuSans-2e" x="63.623047"/>
       <use xlink:href="#DejaVuSans-32" x="95.410156"/>
       <use xlink:href="#DejaVuSans-35" x="159.033203"/>
      </g>
     </g>
    </g>
    <g id="ytick_16">
     <g id="line2d_40">
      <g>
       <use xlink:href="#m3e67d2dd7e" x="477.090312" y="120.230026" style="stroke: #000000; stroke-width: 0.8"/>
      </g>
     </g>
     <g id="text_39">
      <!-- 0.50 -->
      <g transform="translate(447.824687 124.029244) scale(0.1 -0.1)">
       <use xlink:href="#DejaVuSans-30"/>
       <use xlink:href="#DejaVuSans-2e" x="63.623047"/>
       <use xlink:href="#DejaVuSans-35" x="95.410156"/>
       <use xlink:href="#DejaVuSans-30" x="159.033203"/>
      </g>
     </g>
    </g>
    <g id="ytick_17">
     <g id="line2d_41">
      <g>
       <use xlink:href="#m3e67d2dd7e" x="477.090312" y="77.914901" style="stroke: #000000; stroke-width: 0.8"/>
      </g>
     </g>
     <g id="text_40">
      <!-- 0.75 -->
      <g transform="translate(447.824687 81.71412) scale(0.1 -0.1)">
       <use xlink:href="#DejaVuSans-30"/>
       <use xlink:href="#DejaVuSans-2e" x="63.623047"/>
       <use xlink:href="#DejaVuSans-37" x="95.410156"/>
       <use xlink:href="#DejaVuSans-35" x="159.033203"/>
      </g>
     </g>
    </g>
    <g id="ytick_18">
     <g id="line2d_42">
      <g>
       <use xlink:href="#m3e67d2dd7e" x="477.090312" y="35.599777" style="stroke: #000000; stroke-width: 0.8"/>
      </g>
     </g>
     <g id="text_41">
      <!-- 1.00 -->
      <g transform="translate(447.824687 39.398996) scale(0.1 -0.1)">
       <use xlink:href="#DejaVuSans-31"/>
       <use xlink:href="#DejaVuSans-2e" x="63.623047"/>
       <use xlink:href="#DejaVuSans-30" x="95.410156"/>
       <use xlink:href="#DejaVuSans-30" x="159.033203"/>
      </g>
     </g>
    </g>
    <g id="text_42">
     <!-- v(x) -->
     <g transform="translate(432.533437 218.605625) rotate(-90) scale(0.14 -0.14)">
      <use xlink:href="#DejaVuSans-76"/>
      <use xlink:href="#DejaVuSans-28" x="59.179688"/>
      <use xlink:href="#DejaVuSans-78" x="98.193359"/>
      <use xlink:href="#DejaVuSans-29" x="157.373047"/>
     </g>
    </g>
   </g>
   <g id="line2d_43">
    <path d="M 832.605718 204.860274 
L 832.522199 199.543673 
L 832.271722 194.232319 
L 831.854534 188.931454 
L 831.271078 183.646232 
L 830.522108 178.381452 
L 829.608347 173.142456 
L 828.53064 167.934618 
L 827.289993 162.763233 
L 825.887575 157.633516 
L 824.324714 152.550605 
L 822.602902 147.519555 
L 820.72379 142.545347 
L 818.689193 137.632877 
L 816.501086 132.786967 
L 814.161606 128.012355 
L 811.673052 123.313704 
L 809.037882 118.695595 
L 806.258719 114.162531 
L 803.338345 109.718936 
L 800.279705 105.369153 
L 797.085905 101.117447 
L 793.760212 96.968005 
L 790.306054 92.924933 
L 786.727023 88.992258 
L 783.026592 85.173203 
L 779.208046 81.470394 
L 775.275268 77.887938 
L 771.23223 74.429813 
L 767.082973 71.099815 
L 762.831606 67.901565 
L 758.482313 64.838502 
L 754.039345 61.913891 
L 749.507024 59.130813 
L 744.889743 56.492174 
L 740.191964 54.000702 
L 735.418221 51.658945 
L 730.573117 49.469271 
L 725.661326 47.433873 
L 720.687592 45.554763 
L 715.65673 43.833776 
L 710.573625 42.272566 
L 705.443231 40.872613 
L 700.270575 39.635213 
L 695.060751 38.561488 
L 689.818927 37.652378 
L 684.550338 36.908648 
L 679.260292 36.330882 
L 673.954166 35.919486 
L 668.637406 35.674687 
L 663.315532 35.596536 
L 657.99413 35.684902 
L 652.67886 35.939478 
L 647.37545 36.359778 
L 642.089678 36.945135 
L 636.824591 37.694722 
L 631.584018 38.607903 
L 626.373637 39.684012 
L 621.199021 40.922216 
L 616.065639 42.321521 
L 610.978854 43.880768 
L 605.943923 45.598635 
L 600.966001 47.473638 
L 596.050136 49.504127 
L 591.201272 51.688291 
L 586.424248 54.024154 
L 581.723798 56.509576 
L 577.104551 59.142256 
L 572.571031 61.919728 
L 568.127659 64.839362 
L 563.778748 67.898365 
L 559.528508 71.093781 
L 555.381044 74.422491 
L 551.340356 77.881212 
L 547.410339 81.466496 
L 543.594784 85.174733 
L 539.897375 89.002151 
L 536.321693 92.944813 
L 532.871214 96.998617 
L 529.549309 101.159301 
L 526.359243 105.422437 
L 523.304177 109.783433 
L 520.387168 114.237537 
L 517.611167 118.779831 
L 514.97902 123.405233 
L 512.493468 128.108499 
L 510.156563 132.885162 
L 507.968809 137.733329 
L 505.932645 142.648201 
L 504.050523 147.624668 
L 502.324697 152.657618 
L 500.75723 157.741936 
L 499.349991 162.872506 
L 498.104655 168.044208 
L 497.022702 173.251919 
L 496.10542 178.490515 
L 495.353901 183.754869 
L 494.769045 189.03985 
L 494.351557 194.340326 
L 494.10195 199.651162 
L 494.02054 204.967221 
L 494.107452 210.283362 
L 494.362615 215.594443 
L 494.785766 220.895318 
L 495.376448 226.180839 
L 496.134009 231.445857 
L 497.057603 236.685218 
L 498.146191 241.893767 
L 499.398541 247.066345 
L 500.813225 252.197792 
L 502.388622 257.282945 
L 504.122919 262.316639 
L 506.014107 267.293704 
L 508.059983 272.20897 
L 510.258151 277.057263 
L 512.606022 281.833408 
L 515.100811 286.532226 
L 517.739752 291.148928 
L 520.521644 295.681688 
L 523.444093 300.12626 
L 526.504215 304.477801 
L 529.699019 308.731624 
L 533.025399 312.883198 
L 536.480141 316.928146 
L 540.059921 320.862251 
L 543.761302 324.681447 
L 547.580737 328.381827 
L 551.514569 331.959637 
L 555.559029 335.411282 
L 559.71024 338.73332 
L 563.964211 341.922465 
L 568.316841 344.97559 
L 572.763921 347.889719 
L 577.301128 350.662034 
L 581.924029 353.289874 
L 586.628081 355.770732 
L 591.408631 358.102256 
L 596.260914 360.282253 
L 601.180054 362.308682 
L 606.161065 364.17966 
L 611.19885 365.893459 
L 616.288203 367.448508 
L 621.423804 368.843389 
L 626.600224 370.076842 
L 631.811924 371.147763 
L 637.053254 372.055202 
L 642.318627 372.798421 
L 647.605323 373.377643 
L 652.908754 373.792321 
L 658.223261 374.041684 
L 663.543249 374.125147 
L 668.863182 374.042311 
L 674.177585 373.792961 
L 679.481042 373.377067 
L 684.7682 372.794784 
L 690.033764 372.046453 
L 695.272503 371.132597 
L 700.479243 370.053928 
L 705.648873 368.81134 
L 710.77634 367.405914 
L 715.856654 365.838914 
L 720.884885 364.111791 
L 725.856163 362.226179 
L 730.765679 360.183899 
L 735.608684 357.986955 
L 740.380489 355.637537 
L 745.076468 353.138021 
L 749.692053 350.490967 
L 754.222737 347.699118 
L 758.664076 344.765406 
L 763.011682 341.692944 
L 767.261232 338.485034 
L 771.408462 335.145159 
L 775.449166 331.67699 
L 779.379203 328.084382 
L 783.194489 324.371374 
L 786.891003 320.542191 
L 790.464782 316.601243 
L 793.912369 312.552676 
L 797.232824 308.398078 
L 800.422885 304.141229 
L 803.478929 299.786482 
L 806.39752 295.33824 
L 809.175408 290.800956 
L 811.809529 286.179134 
L 814.297006 281.477328 
L 816.635146 276.700142 
L 818.821446 271.852229 
L 820.853587 266.938296 
L 822.729436 261.963096 
L 824.447047 256.931435 
L 826.00466 251.848167 
L 827.400701 246.718199 
L 828.633783 241.546486 
L 829.702706 236.338035 
L 830.606453 231.097902 
L 831.344197 225.831192 
L 831.915295 220.543064 
L 832.319291 215.238724 
L 832.555916 209.92343 
L 832.625085 204.602488 
L 832.526902 199.281258 
L 832.261656 193.965146 
L 831.829821 188.659611 
L 831.23206 183.370163 
L 830.46922 178.102359 
L 829.542335 172.861809 
L 828.452626 167.654171 
L 827.201499 162.485157 
L 825.790156 157.3582 
L 824.219578 152.276318 
L 822.491164 147.245051 
L 820.606457 142.269814 
L 818.567153 137.355902 
L 816.375093 132.508483 
L 814.032267 127.7326 
L 811.540813 123.033173 
L 808.903019 118.414998 
L 806.121318 113.882746 
L 803.198294 109.440962 
L 800.136679 105.09407 
L 796.93935 100.846367 
L 793.609337 96.702027 
L 790.149815 92.665098 
L 786.564108 88.739505 
L 782.855687 84.92905 
L 779.028175 81.237406 
L 775.085338 77.668127 
L 771.031095 74.224639 
L 766.86951 70.910245 
L 762.604797 67.728124 
L 758.241316 64.68133 
L 753.783578 61.772791 
L 749.236241 59.005315 
L 744.60411 56.381581 
L 739.89214 53.904146 
L 735.105434 51.575442 
L 730.249242 49.397778 
L 725.328963 47.373336 
L 720.350141 45.504174 
L 715.315895 43.790992 
L 710.229476 42.234755 
L 705.096255 40.83744 
L 699.921582 39.600827 
L 694.71079 38.526507 
L 689.469188 37.615873 
L 684.202067 36.870129 
L 678.914698 36.290283 
L 673.612332 35.877153 
L 668.3002 35.631359 
L 662.983513 35.553333 
L 657.667462 35.643311 
L 652.357217 35.901336 
L 647.057931 36.327258 
L 641.774732 36.920733 
L 636.512734 37.681226 
L 631.277026 38.608008 
L 626.07268 39.700154 
L 620.904747 40.956551 
L 615.778258 42.375888 
L 610.698224 43.956663 
L 605.669636 45.697182 
L 600.697465 47.595555 
L 595.786663 49.6497 
L 590.94216 51.857344 
L 586.168869 54.216016 
L 581.471679 56.723058 
L 576.855462 59.375612 
L 572.32507 62.170633 
L 567.885333 65.104879 
L 563.541064 68.174917 
L 559.296395 71.377569 
L 555.152808 74.711491 
L 551.114478 78.173596 
L 547.185852 81.76042 
L 543.37121 85.468411 
L 539.674664 89.293923 
L 536.100155 93.233222 
L 532.651455 97.282483 
L 529.332168 101.437791 
L 526.145727 105.695139 
L 523.095397 110.050432 
L 520.184275 114.499482 
L 517.415285 119.038014 
L 514.791186 123.661658 
L 512.314565 128.365959 
L 509.987841 133.146366 
L 507.813263 137.998242 
L 505.792913 142.916858 
L 503.928701 147.897394 
L 502.222369 152.934941 
L 500.67549 158.024497 
L 499.289468 163.160974 
L 498.065536 168.339188 
L 497.004761 173.55387 
L 496.108037 178.799658 
L 495.376093 184.071098 
L 494.809485 189.36265 
L 494.408602 194.668678 
L 494.173663 199.983461 
L 494.104718 205.301184 
L 494.201415 210.61768 
L 494.46335 215.930096 
L 494.890556 221.232741 
L 495.482901 226.519957 
L 496.240079 231.78617 
L 497.161608 237.025894 
L 498.246832 242.233727 
L 499.494922 247.404354 
L 500.904871 252.532544 
L 502.4755 257.613155 
L 504.205455 262.641128 
L 506.093206 267.61149 
L 508.137051 272.519356 
L 510.335111 277.359924 
L 512.685333 282.12848 
L 515.185489 286.820394 
L 517.833179 291.431124 
L 520.625823 295.956211 
L 523.560673 300.391285 
L 526.634801 304.732059 
L 529.845107 308.974334 
L 533.188315 313.113995 
L 536.660977 317.147013 
L 540.259467 321.069446 
L 543.979986 324.877437 
L 547.818561 328.567216 
L 551.771043 332.135096 
L 555.83311 335.577479 
L 560.000264 338.890851 
L 564.267832 342.071784 
L 568.630969 345.116935 
L 573.084672 348.023066 
L 577.626429 350.788989 
L 582.253189 353.412887 
L 586.960145 355.891689 
L 591.742467 358.222514 
L 596.595304 360.402676 
L 601.513778 362.429679 
L 606.492989 364.301219 
L 611.528015 366.015185 
L 616.613908 367.569656 
L 621.745699 368.962907 
L 626.918393 370.193402 
L 632.126974 371.259796 
L 637.366401 372.16094 
L 642.63161 372.895873 
L 647.917513 373.463829 
L 653.219 373.864232 
L 658.530936 374.0967 
L 663.848164 374.161042 
L 669.165502 374.057257 
L 674.477745 373.78554 
L 679.779665 373.346276 
L 685.066011 372.740042 
L 690.331506 371.967607 
L 695.570854 371.029931 
L 700.778731 369.92817 
L 705.949793 368.663667 
L 711.07867 367.237961 
L 716.159969 365.65278 
L 721.188276 363.910047 
L 726.15815 362.011874 
L 731.064195 359.960544 
L 735.903965 357.757356 
L 740.673757 355.403919 
L 745.368371 352.902496 
L 749.982751 350.255478 
L 754.511984 347.465387 
L 758.9513 344.53487 
L 763.296074 341.466701 
L 767.541822 338.263784 
L 771.684204 334.92915 
L 775.719024 331.465957 
L 779.642229 327.877492 
L 783.449909 324.167169 
L 787.138297 320.338531 
L 790.70377 316.395246 
L 794.142847 312.341112 
L 797.452192 308.180056 
L 800.628611 303.916129 
L 803.669054 299.553512 
L 806.570614 295.096515 
L 809.330527 290.549574 
L 811.946172 285.917253 
L 814.415073 281.204243 
L 816.734896 276.415366 
L 818.903449 271.555567 
L 820.918685 266.629923 
L 822.778701 261.643637 
L 824.481736 256.60204 
L 826.026171 251.510589 
L 827.410533 246.374872 
L 828.633606 241.200315 
L 829.695389 235.989368 
L 830.594819 230.746709 
L 831.330613 225.477892 
L 831.901682 220.188429 
L 832.307122 214.883789 
L 832.546223 209.569398 
L 832.618463 204.250639 
L 832.523508 198.932852 
L 832.261217 193.621336 
L 831.831636 188.321346 
L 831.235003 183.038093 
L 830.471744 177.776749 
L 829.542476 172.542438 
L 828.448005 167.340246 
L 827.189327 162.175215 
L 825.767627 157.052342 
L 824.184281 151.976585 
L 822.440854 146.952855 
L 820.539102 141.986024 
L 818.480968 137.08092 
L 816.268588 132.242327 
L 813.904285 127.474989 
L 811.390573 122.783603 
L 808.730157 118.172828 
L 805.92593 113.647278 
L 802.980974 109.211524 
L 799.898563 104.870094 
L 796.68216 100.627475 
L 793.335417 96.48811 
L 789.862177 92.456399 
L 786.266471 88.536701 
L 782.551774 84.732464 
L 778.719609 81.044934 
L 774.773686 77.478011 
L 770.717996 74.035681 
L 766.556602 70.72175 
L 762.293632 67.539843 
L 757.933286 64.493406 
L 753.479829 61.585704 
L 748.937595 58.819822 
L 744.310989 56.198668 
L 739.604481 53.724967 
L 734.822611 51.401264 
L 729.969987 49.229926 
L 725.051286 47.213139 
L 720.071252 45.35291 
L 715.034698 43.651064 
L 709.946506 42.109248 
L 704.811626 40.728928 
L 699.635076 39.511391 
L 694.421942 38.457744 
L 689.177379 37.568913 
L 683.906611 36.845645 
L 678.614928 36.288507 
L 673.307692 35.897886 
L 667.99033 35.673988 
L 662.668338 35.616842 
L 657.347282 35.726293 
L 652.032795 36.002009 
L 646.730579 36.443479 
L 641.446403 37.050008 
L 636.185568 37.820733 
L 630.950198 38.75485 
L 625.745311 39.851644 
L 620.576526 41.110253 
L 615.449353 42.529653 
L 610.369193 44.10866 
L 605.341339 45.84593 
L 600.370975 47.739956 
L 595.463176 49.789071 
L 590.622909 51.991449 
L 585.855033 54.345099 
L 581.164296 56.847872 
L 576.55534 59.497459 
L 572.032697 62.291388 
L 567.60079 65.227027 
L 563.263936 68.301582 
L 559.026339 71.5121 
L 554.892099 74.855467 
L 550.865203 78.328405 
L 546.949534 81.92748 
L 543.148862 85.649092 
L 539.466851 89.489485 
L 535.907056 93.444739 
L 532.472922 97.510773 
L 529.167788 101.683347 
L 525.994882 105.958059 
L 522.957324 110.330345 
L 520.058126 114.795483 
L 517.300191 119.348589 
L 514.686313 123.984615 
L 512.219178 128.698357 
L 509.90136 133.48445 
L 507.733825 138.339964 
L 505.717832 143.261814 
L 503.855832 148.244834 
L 502.150084 153.283864 
L 500.602651 158.373743 
L 499.215402 163.509312 
L 497.990012 168.685414 
L 496.927964 173.896896 
L 496.030545 179.138604 
L 495.29885 184.405388 
L 494.733778 189.692097 
L 494.336035 194.993585 
L 494.106134 200.304707 
L 494.044392 205.620318 
L 494.150935 210.935278 
L 494.425692 216.244446 
L 494.868401 221.542685 
L 495.478604 226.824857 
L 496.255649 232.08583 
L 497.198692 237.320471 
L 498.306694 242.523649 
L 499.578421 247.690235 
L 501.012447 252.815103 
L 502.607151 257.893129 
L 504.360718 262.919188 
L 506.27114 267.88816 
L 508.336214 272.794925 
L 510.553544 277.634366 
L 512.92054 282.401367 
L 515.434417 287.090816 
L 518.092197 291.697598 
L 520.891474 296.217932 
L 523.830925 300.649795 
L 526.907687 304.988426 
L 530.118724 309.229108 
L 533.460893 313.367279 
L 536.930947 317.398538 
L 540.52553 321.318642 
L 544.24118 325.123505 
L 548.074326 328.809202 
L 552.021294 332.371965 
L 556.0783 335.808186 
L 560.241455 339.114414 
L 564.506761 342.287357 
L 568.870116 345.323883 
L 573.327309 348.221016 
L 577.874023 350.975941 
L 582.505834 353.586001 
L 587.218211 356.048697 
L 592.006516 358.361688 
L 596.866005 360.522793 
L 601.791827 362.529989 
L 606.779022 364.381412 
L 611.822527 366.075355 
L 616.917169 367.610272 
L 622.057669 368.984774 
L 627.238642 370.197631 
L 632.454595 371.247771 
L 637.699929 372.134281 
L 642.968938 372.856408 
L 648.256405 373.41372 
L 653.559871 373.806534 
L 658.874138 374.034265 
L 664.193543 374.096343 
L 669.512492 373.992382 
L 674.825457 373.722181 
L 680.126973 373.28572 
L 685.411645 372.683162 
L 690.674139 371.914856 
L 695.90919 370.98133 
L 701.111596 369.8833 
L 706.276224 368.621661 
L 711.398005 367.197493 
L 716.471934 365.61206 
L 721.493075 363.866808 
L 726.456554 361.963367 
L 731.357568 359.903549 
L 736.191373 357.68935 
L 740.953296 355.322949 
L 745.638728 352.806709 
L 750.243125 350.143176 
L 754.762009 347.335077 
L 759.190969 344.385326 
L 763.525658 341.297017 
L 767.761794 338.073429 
L 771.895165 334.718023 
L 775.921619 331.234444 
L 779.837074 327.62652 
L 783.637512 323.898262 
L 787.31898 320.053866 
L 790.877592 316.097707 
L 794.309528 312.034348 
L 797.611968 307.867522 
L 800.783886 303.598935 
L 803.82181 299.232829 
L 806.722282 294.773666 
L 809.48203 290.225954 
L 812.097971 285.594245 
L 814.567209 280.883138 
L 816.887036 276.097274 
L 819.054933 271.241341 
L 821.068565 266.320071 
L 822.925789 261.338241 
L 824.624648 256.300674 
L 826.163372 251.212235 
L 827.54038 246.077837 
L 828.754278 240.902437 
L 829.803859 235.691035 
L 830.688105 230.448678 
L 831.406186 225.180458 
L 831.957459 219.89151 
L 832.341468 214.587016 
L 832.557946 209.272201 
L 832.606813 203.952336 
L 832.488177 198.632737 
L 832.202334 193.318763 
L 831.749768 188.015822 
L 831.131149 182.729362 
L 830.347336 177.464879 
L 829.399376 172.227914 
L 828.288503 167.02405 
L 827.01614 161.858917 
L 825.583892 156.738167 
L 823.992925 151.664583 
L 822.244394 146.641766 
L 820.33989 141.675189 
L 818.28115 136.770194 
L 816.070052 131.931996 
L 813.708623 127.16568 
L 811.199029 122.476206 
L 808.543585 117.8684 
L 805.744746 113.346964 
L 802.805114 108.91647 
L 799.727435 104.581361 
L 796.514598 100.345952 
L 793.169638 96.214428 
L 789.695732 92.190848 
L 786.096203 88.279141 
L 782.374517 84.483107 
L 778.534286 80.806418 
L 774.579264 77.252618 
L 770.513352 73.825121 
L 766.340592 70.527214 
L 762.065172 67.362055 
L 757.691425 64.332673 
L 753.223826 61.441969 
L 748.666997 58.692715 
L 744.025702 56.087554 
L 739.30485 53.629002 
L 734.509495 51.319445 
L 729.644833 49.16114 
L 724.716207 47.156219 
L 719.729103 45.30668 
L 714.688851 43.614253 
L 709.597662 42.079143 
L 704.460013 40.70282 
L 699.281318 39.487065 
L 694.06696 38.433463 
L 688.822302 37.543408 
L 683.552679 36.818102 
L 678.263402 36.258552 
L 672.959759 35.865574 
L 667.647009 35.639793 
L 662.330389 35.581637 
L 657.015112 35.691345 
L 651.706363 35.968962 
L 646.409304 36.41434 
L 641.129073 37.027139 
L 635.87078 37.806827 
L 630.639513 38.752678 
L 625.440333 39.863773 
L 620.278279 41.139002 
L 615.158362 42.577062 
L 610.085569 44.176455 
L 605.064863 45.935494 
L 600.101181 47.852297 
L 595.199437 49.92479 
L 590.364517 52.150706 
L 585.601284 54.527586 
L 580.914577 57.052777 
L 576.309207 59.723435 
L 571.789964 62.536523 
L 567.36161 65.488809 
L 563.028883 68.576873 
L 558.796498 71.797098 
L 554.667698 75.146732 
L 550.644297 78.624169 
L 546.730705 82.225944 
L 542.931234 85.948452 
L 539.250023 89.788003 
L 535.691041 93.740823 
L 532.258084 97.80305 
L 528.954778 101.970739 
L 525.784575 106.239857 
L 522.750756 110.606285 
L 519.856432 115.065821 
L 517.10454 119.614174 
L 514.497845 124.24697 
L 512.038944 128.959748 
L 509.730257 133.74796 
L 507.574036 138.606974 
L 505.572359 143.532073 
L 503.727135 148.518452 
L 502.040099 153.561222 
L 500.512814 158.655407 
L 499.146673 163.795946 
L 497.942895 168.977693 
L 496.902531 174.195416 
L 496.026456 179.443794 
L 495.315375 184.717426 
L 494.769822 190.010821 
L 494.390159 195.318403 
L 494.176575 200.634511 
L 494.129088 205.953399 
L 494.247546 211.269234 
L 494.531391 216.578566 
L 494.980246 221.877948 
L 495.59395 227.161652 
L 496.372172 232.424044 
L 497.314407 237.659578 
L 498.41998 242.862799 
L 499.688044 248.028346 
L 501.117579 253.150944 
L 502.707393 258.225415 
L 504.456125 263.246666 
L 506.362237 268.209699 
L 508.424025 273.109606 
L 510.639608 277.941569 
L 513.006937 282.700862 
L 515.523788 287.38285 
L 518.187767 291.982988 
L 520.996307 296.496823 
L 523.946671 300.919993 
L 527.035948 305.248226 
L 530.261056 309.477342 
L 533.618741 313.60325 
L 537.105577 317.621954 
L 540.717966 321.529544 
L 544.45214 325.322205 
L 548.304156 328.996212 
L 552.269901 332.547928 
L 556.345089 335.973812 
L 560.525264 339.270409 
L 564.805797 342.434359 
L 569.181886 345.462391 
L 573.648558 348.351324 
L 578.20087 351.098218 
L 582.836851 353.702367 
L 587.552694 356.16152 
L 592.343502 358.472784 
L 597.204361 360.633457 
L 602.130339 362.641028 
L 607.116487 364.493181 
L 612.157837 366.187792 
L 617.249404 367.722929 
L 622.386184 369.096854 
L 627.563157 370.308022 
L 632.775284 371.355078 
L 638.01751 372.236863 
L 643.284758 372.952409 
L 648.571938 373.500941 
L 653.87394 373.881877 
L 659.185636 374.094828 
L 664.501881 374.139596 
L 669.817511 374.016177 
L 675.127345 373.724762 
L 680.426185 373.26573 
L 685.708814 372.639657 
L 690.969997 371.847308 
L 696.204483 370.889645 
L 701.407001 369.767819 
L 706.572263 368.483176 
L 711.694965 367.037253 
L 716.769782 365.431781 
L 721.791373 363.668683 
L 726.75438 361.750076 
L 731.653426 359.678268 
L 736.483308 357.455682 
L 741.24192 355.083517 
L 745.925188 352.563653 
L 750.528015 349.898537 
L 755.045451 347.090735 
L 759.472692 344.14294 
L 763.805079 341.057966 
L 768.038102 337.838753 
L 772.167398 334.488361 
L 776.188748 331.009974 
L 780.098081 327.406902 
L 783.891473 323.682574 
L 787.565147 319.840547 
L 791.11547 315.884496 
L 794.53896 311.818224 
L 797.832277 307.645655 
L 800.99223 303.370836 
L 804.015776 298.997938 
L 806.900015 294.531255 
L 809.642197 289.975204 
L 812.239716 285.334327 
L 814.690115 280.613286 
L 816.991082 275.81687 
L 819.140452 270.949988 
L 821.136206 266.017675 
L 822.976473 261.025086 
L 824.659528 255.977503 
L 826.183792 250.880329 
L 827.547834 245.73909 
L 828.750368 240.559437 
L 829.790753 235.345788 
L 830.668867 230.10087 
L 831.383486 224.830181 
L 831.93353 219.539284 
L 832.318107 214.233693 
L 832.536516 208.918874 
L 832.588242 203.600248 
L 832.472962 198.283189 
L 832.190539 192.973022 
L 831.741026 187.675028 
L 831.124665 182.394439 
L 830.341885 177.136441 
L 829.393307 171.906171 
L 828.279737 166.708723 
L 827.002174 161.54914 
L 825.561801 156.432421 
L 823.959994 151.363516 
L 822.198314 146.34733 
L 820.278515 141.388718 
L 818.202536 136.492492 
L 815.972507 131.663415 
L 813.590746 126.906202 
L 811.05976 122.225522 
L 808.382244 117.625999 
L 805.561082 113.112207 
L 802.599349 108.688674 
L 799.500305 104.359883 
L 796.267401 100.130267 
L 792.904278 96.004214 
L 789.414762 91.986065 
L 785.802872 88.080113 
L 782.07281 84.290602 
L 778.226966 80.619549 
L 774.267728 77.069192 
L 770.199138 73.643536 
L 766.025306 70.346405 
L 761.750404 67.181442 
L 757.378667 64.152108 
L 752.914395 61.261682 
L 748.361954 58.513261 
L 743.725772 55.909763 
L 739.010341 53.453921 
L 734.220218 51.148289 
L 729.360024 48.995238 
L 724.434443 46.996958 
L 719.448226 45.155458 
L 714.406184 43.472565 
L 709.313195 41.949922 
L 704.174201 40.588995 
L 698.994206 39.391065 
L 693.778281 38.357234 
L 688.531559 37.488418 
L 683.259238 36.785357 
L 677.966579 36.248607 
L 672.658909 35.87854 
L 667.341617 35.67535 
L 662.020158 35.639049 
L 656.700051 35.769465 
L 651.386876 36.066247 
L 646.086282 36.52886 
L 640.803978 37.156591 
L 635.545739 37.948542 
L 630.315915 38.903721 
L 625.116931 40.021342 
L 619.954327 41.300509 
L 614.833659 42.740165 
L 609.760373 44.339095 
L 604.739798 46.095926 
L 599.777155 48.009128 
L 594.87755 50.077012 
L 590.045977 52.297731 
L 585.287318 54.66928 
L 580.606341 57.189497 
L 576.007703 59.85606 
L 571.495949 62.666491 
L 567.075508 65.618154 
L 562.750702 68.708253 
L 558.525735 71.933836 
L 554.404702 75.291791 
L 550.391584 78.778851 
L 546.490249 82.391589 
L 542.704455 86.12642 
L 539.037845 89.979601 
L 535.493951 93.947231 
L 532.07619 98.025252 
L 528.78787 102.209447 
L 525.632184 106.495442 
L 522.612212 110.878704 
L 519.730925 115.354541 
L 516.991178 119.918107 
L 514.395714 124.564393 
L 511.947165 129.288235 
L 509.64805 134.084311 
L 507.500503 138.947608 
L 505.504879 143.876201 
L 503.663191 148.865576 
L 501.977694 153.910519 
L 500.450453 159.00582 
L 499.083338 164.146276 
L 497.878024 169.326692 
L 496.835993 174.541876 
L 495.958533 179.786646 
L 495.246739 185.055822 
L 494.701511 190.344236 
L 494.323555 195.64672 
L 494.113385 200.958118 
L 494.071319 206.273276 
L 494.197481 211.587049 
L 494.491804 216.894297 
L 494.954024 222.189886 
L 495.583685 227.46869 
L 496.380137 232.725588 
L 497.342534 237.955465 
L 498.469839 243.153214 
L 499.760819 248.313732 
L 501.21405 253.431925 
L 502.82791 258.502702 
L 504.600587 263.520982 
L 506.530072 268.481687 
L 508.614165 273.379747 
L 510.850471 278.2101 
L 513.236399 282.967686 
L 515.769168 287.647454 
L 518.445801 292.24436 
L 521.263145 296.753397 
L 524.219507 301.17223 
L 527.31284 305.497667 
L 530.540064 309.724954 
L 533.897995 313.849502 
L 537.383348 317.866881 
L 540.992733 321.772823 
L 544.722659 325.563221 
L 548.569529 329.234131 
L 552.529647 332.781767 
L 556.599212 336.202508 
L 560.77432 339.492892 
L 565.050964 342.649619 
L 569.425036 345.66955 
L 573.892324 348.549709 
L 578.448511 351.287278 
L 583.08918 353.879604 
L 587.809811 356.324194 
L 592.605779 358.618714 
L 597.472358 360.760995 
L 602.404717 362.749027 
L 607.397926 364.580962 
L 612.446948 366.255114 
L 617.546644 367.769958 
L 622.691775 369.124129 
L 627.876996 370.316425 
L 633.09686 371.345804 
L 638.345817 372.211387 
L 643.618215 372.912455 
L 648.908298 373.448451 
L 654.211496 373.819282 
L 659.52513 374.025212 
L 664.843615 374.06573 
L 670.161295 373.940469 
L 675.472583 373.64924 
L 680.771966 373.192039 
L 686.053997 372.569041 
L 691.313304 371.780604 
L 696.544584 370.827265 
L 701.742605 369.709743 
L 706.902206 368.428941 
L 712.018295 366.985939 
L 717.085854 365.382 
L 722.099933 363.618571 
L 727.055654 361.697276 
L 731.94821 359.619922 
L 736.772865 357.388499 
L 741.524952 355.005175 
L 746.199877 352.472301 
L 750.793114 349.792411 
L 755.300212 346.968216 
L 759.716787 344.002613 
L 764.038527 340.898677 
L 768.261191 337.659666 
L 772.380608 334.289017 
L 776.39268 330.790352 
L 780.293377 327.16747 
L 784.078742 323.424356 
L 787.744887 319.565171 
L 791.287995 315.594262 
L 794.704322 311.516154 
L 797.990191 307.335556 
L 801.142869 303.055551 
L 804.160068 298.678447 
L 807.038608 294.208689 
L 809.775475 289.650782 
L 812.367831 285.009283 
L 814.813007 280.288805 
L 817.108507 275.494013 
L 819.252006 270.629624 
L 821.241354 265.70041 
L 823.07457 260.711196 
L 824.749847 255.66686 
L 826.265549 250.572333 
L 827.620214 245.432598 
L 828.812549 240.252695 
L 829.841436 235.037713 
L 830.705928 229.792796 
L 831.40525 224.523143 
L 831.938799 219.234004 
L 832.306144 213.930682 
L 832.507028 208.618534 
L 832.541364 203.302971 
L 832.541364 203.302971 
" clip-path="url(#p8991101ff9)" style="fill: none; stroke: #000000; stroke-width: 1.5; stroke-linecap: square"/>
   </g>
   <g id="patch_9">
    <path d="M 477.090312 382.837187 
L 477.090312 26.877187 
" style="fill: none; stroke: #000000; stroke-width: 0.8; stroke-linejoin: miter; stroke-linecap: square"/>
   </g>
   <g id="patch_10">
    <path d="M 849.555312 382.837187 
L 849.555312 26.877187 
" style="fill: none; stroke: #000000; stroke-width: 0.8; stroke-linejoin: miter; stroke-linecap: square"/>
   </g>
   <g id="patch_11">
    <path d="M 477.090312 382.837187 
L 849.555312 382.837187 
" style="fill: none; stroke: #000000; stroke-width: 0.8; stroke-linejoin: miter; stroke-linecap: square"/>
   </g>
   <g id="patch_12">
    <path d="M 477.090312 26.877187 
L 849.555312 26.877187 
" style="fill: none; stroke: #000000; stroke-width: 0.8; stroke-linejoin: miter; stroke-linecap: square"/>
   </g>
   <g id="text_43">
    <!-- (b) -->
    <g transform="translate(650.586406 20.877187) scale(0.18 -0.18)">
     <defs>
      <path id="DejaVuSans-62" d="M 3116 1747 
Q 3116 2381 2855 2742 
Q 2594 3103 2138 3103 
Q 1681 3103 1420 2742 
Q 1159 2381 1159 1747 
Q 1159 1113 1420 752 
Q 1681 391 2138 391 
Q 2594 391 2855 752 
Q 3116 1113 3116 1747 
z
M 1159 2969 
Q 1341 3281 1617 3432 
Q 1894 3584 2278 3584 
Q 2916 3584 3314 3078 
Q 3713 2572 3713 1747 
Q 3713 922 3314 415 
Q 2916 -91 2278 -91 
Q 1894 -91 1617 61 
Q 1341 213 1159 525 
L 1159 0 
L 581 0 
L 581 4863 
L 1159 4863 
L 1159 2969 
z
" transform="scale(0.015625)"/>
     </defs>
     <use xlink:href="#DejaVuSans-28"/>
     <use xlink:href="#DejaVuSans-62" x="39.013672"/>
     <use xlink:href="#DejaVuSans-29" x="102.490234"/>
    </g>
   </g>
  </g>
 </g>
 <defs>
  <clipPath id="p4161f1b6a0">
   <rect x="44.845313" y="26.877187" width="372.465" height="355.96"/>
  </clipPath>
  <clipPath id="p8991101ff9">
   <rect x="477.090312" y="26.877187" width="372.465" height="355.96"/>
  </clipPath>
 </defs>
</svg>
