<?xml version="1.0" encoding="utf-8" standalone="no"?>
<!DOCTYPE svg PUBLIC "-//W3C//DTD SVG 1.1//EN"
  "http://www.w3.org/Graphics/SVG/1.1/DTD/svg11.dtd">
<svg xmlns:xlink="http://www.w3.org/1999/xlink" width="721.645312pt" height="400.944687pt" viewBox="0 0 721.645312 400.944687" xmlns="http://www.w3.org/2000/svg" version="1.1">
 <metadata>
  <rdf:RDF xmlns:dc="http://purl.org/dc/elements/1.1/" xmlns:cc="http://creativecommons.org/ns#" xmlns:rdf="http://www.w3.org/1999/02/22-rdf-syntax-ns#">
   <cc:Work>
    <dc:type rdf:resource="http://purl.org/dc/dcmitype/StillImage"/>
    <dc:date>2024-09-29T16:26:42.274471</dc:date>
    <dc:format>image/svg+xml</dc:format>
    <dc:creator>
     <cc:Agent>
      <dc:title>Matplotlib v3.8.4, https://matplotlib.org/</dc:title>
     </cc:Agent>
    </dc:creator>
   </cc:Work>
  </rdf:RDF>
 </metadata>
 <defs>
  <style type="text/css">*{stroke-linejoin: round; stroke-linecap: butt}</style>
 </defs>
 <g id="figure_1">
  <g id="patch_1">
   <path d="M 0 400.944687 
L 721.645312 400.944687 
L 721.645312 0 
L 0 0 
z
" style="fill: #ffffff"/>
  </g>
  <g id="axes_1">
   <g id="patch_2">
    <path d="M 44.845313 359.517187 
L 349.208949 359.517187 
L 349.208949 26.877187 
L 44.845313 26.877187 
z
" style="fill: #ffffff"/>
   </g>
   <g id="matplotlib.axis_1">
    <g id="xtick_1">
     <g id="line2d_1">
      <defs>
       <path id="m97e45a1d03" d="M 0 0 
L 0 3.5 
" style="stroke: #000000; stroke-width: 0.8"/>
      </defs>
      <g>
       <use xlink:href="#m97e45a1d03" x="58.680023" y="359.517187" style="stroke: #000000; stroke-width: 0.8"/>
      </g>
     </g>
     <g id="text_1">
      <!-- 0 -->
      <g transform="translate(55.498773 374.115625) scale(0.1 -0.1)">
       <defs>
        <path id="DejaVuSans-30" d="M 2034 4250 
Q 1547 4250 1301 3770 
Q 1056 3291 1056 2328 
Q 1056 1369 1301 889 
Q 1547 409 2034 409 
Q 2525 409 2770 889 
Q 3016 1369 3016 2328 
Q 3016 3291 2770 3770 
Q 2525 4250 2034 4250 
z
M 2034 4750 
Q 2819 4750 3233 4129 
Q 3647 3509 3647 2328 
Q 3647 1150 3233 529 
Q 2819 -91 2034 -91 
Q 1250 -91 836 529 
Q 422 1150 422 2328 
Q 422 3509 836 4129 
Q 1250 4750 2034 4750 
z
" transform="scale(0.015625)"/>
       </defs>
       <use xlink:href="#DejaVuSans-30"/>
      </g>
     </g>
    </g>
    <g id="xtick_2">
     <g id="line2d_2">
      <g>
       <use xlink:href="#m97e45a1d03" x="117.396359" y="359.517187" style="stroke: #000000; stroke-width: 0.8"/>
      </g>
     </g>
     <g id="text_2">
      <!-- 20 -->
      <g transform="translate(111.033859 374.115625) scale(0.1 -0.1)">
       <defs>
        <path id="DejaVuSans-32" d="M 1228 531 
L 3431 531 
L 3431 0 
L 469 0 
L 469 531 
Q 828 903 1448 1529 
Q 2069 2156 2228 2338 
Q 2531 2678 2651 2914 
Q 2772 3150 2772 3378 
Q 2772 3750 2511 3984 
Q 2250 4219 1831 4219 
Q 1534 4219 1204 4116 
Q 875 4013 500 3803 
L 500 4441 
Q 881 4594 1212 4672 
Q 1544 4750 1819 4750 
Q 2544 4750 2975 4387 
Q 3406 4025 3406 3419 
Q 3406 3131 3298 2873 
Q 3191 2616 2906 2266 
Q 2828 2175 2409 1742 
Q 1991 1309 1228 531 
z
" transform="scale(0.015625)"/>
       </defs>
       <use xlink:href="#DejaVuSans-32"/>
       <use xlink:href="#DejaVuSans-30" x="63.623047"/>
      </g>
     </g>
    </g>
    <g id="xtick_3">
     <g id="line2d_3">
      <g>
       <use xlink:href="#m97e45a1d03" x="176.112695" y="359.517187" style="stroke: #000000; stroke-width: 0.8"/>
      </g>
     </g>
     <g id="text_3">
      <!-- 40 -->
      <g transform="translate(169.750195 374.115625) scale(0.1 -0.1)">
       <defs>
        <path id="DejaVuSans-34" d="M 2419 4116 
L 825 1625 
L 2419 1625 
L 2419 4116 
z
M 2253 4666 
L 3047 4666 
L 3047 1625 
L 3713 1625 
L 3713 1100 
L 3047 1100 
L 3047 0 
L 2419 0 
L 2419 1100 
L 313 1100 
L 313 1709 
L 2253 4666 
z
" transform="scale(0.015625)"/>
       </defs>
       <use xlink:href="#DejaVuSans-34"/>
       <use xlink:href="#DejaVuSans-30" x="63.623047"/>
      </g>
     </g>
    </g>
    <g id="xtick_4">
     <g id="line2d_4">
      <g>
       <use xlink:href="#m97e45a1d03" x="234.829031" y="359.517187" style="stroke: #000000; stroke-width: 0.8"/>
      </g>
     </g>
     <g id="text_4">
      <!-- 60 -->
      <g transform="translate(228.466531 374.115625) scale(0.1 -0.1)">
       <defs>
        <path id="DejaVuSans-36" d="M 2113 2584 
Q 1688 2584 1439 2293 
Q 1191 2003 1191 1497 
Q 1191 994 1439 701 
Q 1688 409 2113 409 
Q 2538 409 2786 701 
Q 3034 994 3034 1497 
Q 3034 2003 2786 2293 
Q 2538 2584 2113 2584 
z
M 3366 4563 
L 3366 3988 
Q 3128 4100 2886 4159 
Q 2644 4219 2406 4219 
Q 1781 4219 1451 3797 
Q 1122 3375 1075 2522 
Q 1259 2794 1537 2939 
Q 1816 3084 2150 3084 
Q 2853 3084 3261 2657 
Q 3669 2231 3669 1497 
Q 3669 778 3244 343 
Q 2819 -91 2113 -91 
Q 1303 -91 875 529 
Q 447 1150 447 2328 
Q 447 3434 972 4092 
Q 1497 4750 2381 4750 
Q 2619 4750 2861 4703 
Q 3103 4656 3366 4563 
z
" transform="scale(0.015625)"/>
       </defs>
       <use xlink:href="#DejaVuSans-36"/>
       <use xlink:href="#DejaVuSans-30" x="63.623047"/>
      </g>
     </g>
    </g>
    <g id="xtick_5">
     <g id="line2d_5">
      <g>
       <use xlink:href="#m97e45a1d03" x="293.545367" y="359.517187" style="stroke: #000000; stroke-width: 0.8"/>
      </g>
     </g>
     <g id="text_5">
      <!-- 80 -->
      <g transform="translate(287.182867 374.115625) scale(0.1 -0.1)">
       <defs>
        <path id="DejaVuSans-38" d="M 2034 2216 
Q 1584 2216 1326 1975 
Q 1069 1734 1069 1313 
Q 1069 891 1326 650 
Q 1584 409 2034 409 
Q 2484 409 2743 651 
Q 3003 894 3003 1313 
Q 3003 1734 2745 1975 
Q 2488 2216 2034 2216 
z
M 1403 2484 
Q 997 2584 770 2862 
Q 544 3141 544 3541 
Q 544 4100 942 4425 
Q 1341 4750 2034 4750 
Q 2731 4750 3128 4425 
Q 3525 4100 3525 3541 
Q 3525 3141 3298 2862 
Q 3072 2584 2669 2484 
Q 3125 2378 3379 2068 
Q 3634 1759 3634 1313 
Q 3634 634 3220 271 
Q 2806 -91 2034 -91 
Q 1263 -91 848 271 
Q 434 634 434 1313 
Q 434 1759 690 2068 
Q 947 2378 1403 2484 
z
M 1172 3481 
Q 1172 3119 1398 2916 
Q 1625 2713 2034 2713 
Q 2441 2713 2670 2916 
Q 2900 3119 2900 3481 
Q 2900 3844 2670 4047 
Q 2441 4250 2034 4250 
Q 1625 4250 1398 4047 
Q 1172 3844 1172 3481 
z
" transform="scale(0.015625)"/>
       </defs>
       <use xlink:href="#DejaVuSans-38"/>
       <use xlink:href="#DejaVuSans-30" x="63.623047"/>
      </g>
     </g>
    </g>
    <g id="text_6">
     <!-- t -->
     <g transform="translate(194.282912 390.833125) scale(0.14 -0.14)">
      <defs>
       <path id="DejaVuSans-74" d="M 1172 4494 
L 1172 3500 
L 2356 3500 
L 2356 3053 
L 1172 3053 
L 1172 1153 
Q 1172 725 1289 603 
Q 1406 481 1766 481 
L 2356 481 
L 2356 0 
L 1766 0 
Q 1100 0 847 248 
Q 594 497 594 1153 
L 594 3053 
L 172 3053 
L 172 3500 
L 594 3500 
L 594 4494 
L 1172 4494 
z
" transform="scale(0.015625)"/>
      </defs>
      <use xlink:href="#DejaVuSans-74"/>
     </g>
    </g>
   </g>
   <g id="matplotlib.axis_2">
    <g id="ytick_1">
     <g id="line2d_6">
      <defs>
       <path id="m042b03ec06" d="M 0 0 
L -3.5 0 
" style="stroke: #000000; stroke-width: 0.8"/>
      </defs>
      <g>
       <use xlink:href="#m042b03ec06" x="44.845313" y="326.73814" style="stroke: #000000; stroke-width: 0.8"/>
      </g>
     </g>
     <g id="text_7">
      <!-- −0.75 -->
      <g transform="translate(7.2 330.537359) scale(0.1 -0.1)">
       <defs>
        <path id="DejaVuSans-2212" d="M 678 2272 
L 4684 2272 
L 4684 1741 
L 678 1741 
L 678 2272 
z
" transform="scale(0.015625)"/>
        <path id="DejaVuSans-2e" d="M 684 794 
L 1344 794 
L 1344 0 
L 684 0 
L 684 794 
z
" transform="scale(0.015625)"/>
        <path id="DejaVuSans-37" d="M 525 4666 
L 3525 4666 
L 3525 4397 
L 1831 0 
L 1172 0 
L 2766 4134 
L 525 4134 
L 525 4666 
z
" transform="scale(0.015625)"/>
        <path id="DejaVuSans-35" d="M 691 4666 
L 3169 4666 
L 3169 4134 
L 1269 4134 
L 1269 2991 
Q 1406 3038 1543 3061 
Q 1681 3084 1819 3084 
Q 2600 3084 3056 2656 
Q 3513 2228 3513 1497 
Q 3513 744 3044 326 
Q 2575 -91 1722 -91 
Q 1428 -91 1123 -41 
Q 819 9 494 109 
L 494 744 
Q 775 591 1075 516 
Q 1375 441 1709 441 
Q 2250 441 2565 725 
Q 2881 1009 2881 1497 
Q 2881 1984 2565 2268 
Q 2250 2553 1709 2553 
Q 1456 2553 1204 2497 
Q 953 2441 691 2322 
L 691 4666 
z
" transform="scale(0.015625)"/>
       </defs>
       <use xlink:href="#DejaVuSans-2212"/>
       <use xlink:href="#DejaVuSans-30" x="83.789062"/>
       <use xlink:href="#DejaVuSans-2e" x="147.412109"/>
       <use xlink:href="#DejaVuSans-37" x="179.199219"/>
       <use xlink:href="#DejaVuSans-35" x="242.822266"/>
      </g>
     </g>
    </g>
    <g id="ytick_2">
     <g id="line2d_7">
      <g>
       <use xlink:href="#m042b03ec06" x="44.845313" y="286.060861" style="stroke: #000000; stroke-width: 0.8"/>
      </g>
     </g>
     <g id="text_8">
      <!-- −0.50 -->
      <g transform="translate(7.2 289.86008) scale(0.1 -0.1)">
       <use xlink:href="#DejaVuSans-2212"/>
       <use xlink:href="#DejaVuSans-30" x="83.789062"/>
       <use xlink:href="#DejaVuSans-2e" x="147.412109"/>
       <use xlink:href="#DejaVuSans-35" x="179.199219"/>
       <use xlink:href="#DejaVuSans-30" x="242.822266"/>
      </g>
     </g>
    </g>
    <g id="ytick_3">
     <g id="line2d_8">
      <g>
       <use xlink:href="#m042b03ec06" x="44.845313" y="245.383582" style="stroke: #000000; stroke-width: 0.8"/>
      </g>
     </g>
     <g id="text_9">
      <!-- −0.25 -->
      <g transform="translate(7.2 249.182801) scale(0.1 -0.1)">
       <use xlink:href="#DejaVuSans-2212"/>
       <use xlink:href="#DejaVuSans-30" x="83.789062"/>
       <use xlink:href="#DejaVuSans-2e" x="147.412109"/>
       <use xlink:href="#DejaVuSans-32" x="179.199219"/>
       <use xlink:href="#DejaVuSans-35" x="242.822266"/>
      </g>
     </g>
    </g>
    <g id="ytick_4">
     <g id="line2d_9">
      <g>
       <use xlink:href="#m042b03ec06" x="44.845313" y="204.706303" style="stroke: #000000; stroke-width: 0.8"/>
      </g>
     </g>
     <g id="text_10">
      <!-- 0.00 -->
      <g transform="translate(15.579688 208.505522) scale(0.1 -0.1)">
       <use xlink:href="#DejaVuSans-30"/>
       <use xlink:href="#DejaVuSans-2e" x="63.623047"/>
       <use xlink:href="#DejaVuSans-30" x="95.410156"/>
       <use xlink:href="#DejaVuSans-30" x="159.033203"/>
      </g>
     </g>
    </g>
    <g id="ytick_5">
     <g id="line2d_10">
      <g>
       <use xlink:href="#m042b03ec06" x="44.845313" y="164.029024" style="stroke: #000000; stroke-width: 0.8"/>
      </g>
     </g>
     <g id="text_11">
      <!-- 0.25 -->
      <g transform="translate(15.579688 167.828243) scale(0.1 -0.1)">
       <use xlink:href="#DejaVuSans-30"/>
       <use xlink:href="#DejaVuSans-2e" x="63.623047"/>
       <use xlink:href="#DejaVuSans-32" x="95.410156"/>
       <use xlink:href="#DejaVuSans-35" x="159.033203"/>
      </g>
     </g>
    </g>
    <g id="ytick_6">
     <g id="line2d_11">
      <g>
       <use xlink:href="#m042b03ec06" x="44.845313" y="123.351745" style="stroke: #000000; stroke-width: 0.8"/>
      </g>
     </g>
     <g id="text_12">
      <!-- 0.50 -->
      <g transform="translate(15.579688 127.150964) scale(0.1 -0.1)">
       <use xlink:href="#DejaVuSans-30"/>
       <use xlink:href="#DejaVuSans-2e" x="63.623047"/>
       <use xlink:href="#DejaVuSans-35" x="95.410156"/>
       <use xlink:href="#DejaVuSans-30" x="159.033203"/>
      </g>
     </g>
    </g>
    <g id="ytick_7">
     <g id="line2d_12">
      <g>
       <use xlink:href="#m042b03ec06" x="44.845313" y="82.674466" style="stroke: #000000; stroke-width: 0.8"/>
      </g>
     </g>
     <g id="text_13">
      <!-- 0.75 -->
      <g transform="translate(15.579688 86.473685) scale(0.1 -0.1)">
       <use xlink:href="#DejaVuSans-30"/>
       <use xlink:href="#DejaVuSans-2e" x="63.623047"/>
       <use xlink:href="#DejaVuSans-37" x="95.410156"/>
       <use xlink:href="#DejaVuSans-35" x="159.033203"/>
      </g>
     </g>
    </g>
    <g id="ytick_8">
     <g id="line2d_13">
      <g>
       <use xlink:href="#m042b03ec06" x="44.845313" y="41.997187" style="stroke: #000000; stroke-width: 0.8"/>
      </g>
     </g>
     <g id="text_14">
      <!-- 1.00 -->
      <g transform="translate(15.579688 45.796406) scale(0.1 -0.1)">
       <defs>
        <path id="DejaVuSans-31" d="M 794 531 
L 1825 531 
L 1825 4091 
L 703 3866 
L 703 4441 
L 1819 4666 
L 2450 4666 
L 2450 531 
L 3481 531 
L 3481 0 
L 794 0 
L 794 531 
z
" transform="scale(0.015625)"/>
       </defs>
       <use xlink:href="#DejaVuSans-31"/>
       <use xlink:href="#DejaVuSans-2e" x="63.623047"/>
       <use xlink:href="#DejaVuSans-30" x="95.410156"/>
       <use xlink:href="#DejaVuSans-30" x="159.033203"/>
      </g>
     </g>
    </g>
   </g>
   <g id="line2d_14">
    <path d="M 58.680023 204.706303 
L 60.063494 132.545069 
L 60.893577 97.418636 
L 61.72366 71.631028 
L 62.277048 60.566555 
L 62.830436 54.79846 
L 63.107131 53.936196 
L 63.383825 54.412776 
L 63.660519 56.203992 
L 63.937213 59.280902 
L 64.490602 69.141966 
L 65.04399 83.584134 
L 65.874073 112.541956 
L 66.98085 160.612183 
L 69.471098 273.248507 
L 70.30118 301.757827 
L 71.131263 321.834521 
L 71.684651 329.851714 
L 71.961346 332.170051 
L 72.23804 333.349958 
L 72.514734 333.387612 
L 72.791428 332.288418 
L 73.068122 330.068595 
L 73.621511 322.386025 
L 74.174899 310.685993 
L 75.004982 286.773036 
L 76.111759 246.392676 
L 78.878701 140.47233 
L 79.708784 117.54639 
L 80.262172 106.333458 
L 80.81556 98.760897 
L 81.092255 96.409065 
L 81.368949 95.038313 
L 81.645643 94.654606 
L 81.922337 95.253752 
L 82.199032 96.821403 
L 82.75242 102.754059 
L 83.305808 112.137733 
L 84.135891 131.801236 
L 85.242668 165.707446 
L 88.00961 256.788548 
L 88.839693 277.080798 
L 89.393081 287.230597 
L 89.94647 294.286777 
L 90.499858 298.047712 
L 90.776552 298.667728 
L 91.053246 298.451746 
L 91.329941 297.41393 
L 91.606635 295.573519 
L 92.160023 289.574307 
L 92.713412 280.705852 
L 93.543494 262.818721 
L 94.650271 232.978148 
L 97.140519 162.641311 
L 97.970602 144.719384 
L 98.800684 132.016292 
L 99.354073 126.882605 
L 99.630767 125.368378 
L 99.907461 124.56349 
L 100.184155 124.470263 
L 100.46085 125.086002 
L 100.737544 126.401297 
L 101.290932 131.059351 
L 101.844321 138.234875 
L 102.674403 153.000723 
L 103.78118 178.056558 
L 106.548122 244.206925 
L 107.378205 258.634811 
L 107.931593 265.73077 
L 108.484982 270.56499 
L 109.03837 273.005649 
L 109.315065 273.305702 
L 109.591759 272.992658 
L 109.868453 272.07473 
L 110.421841 268.488677 
L 110.97523 262.738895 
L 111.805312 250.607392 
L 112.912089 229.579169 
L 115.679032 172.713517 
L 116.509114 159.952662 
L 117.062503 153.536512 
L 117.615891 149.039131 
L 118.169279 146.591557 
L 118.445974 146.153499 
L 118.722668 146.237429 
L 118.999362 146.835148 
L 119.276056 147.934148 
L 119.829445 151.581541 
L 120.382833 157.025725 
L 121.212916 168.072357 
L 122.319693 186.594448 
L 124.809941 230.513361 
L 125.640023 241.77764 
L 126.470106 249.812985 
L 127.023494 253.097826 
L 127.300189 254.084781 
L 127.576883 254.629623 
L 127.853577 254.731134 
L 128.130271 254.390589 
L 128.406965 253.613419 
L 128.960354 250.791745 
L 129.513742 246.392839 
L 130.343825 237.276748 
L 131.450602 221.731375 
L 134.217544 180.422303 
L 135.047627 171.343869 
L 135.601015 166.85465 
L 136.154403 163.770597 
L 136.707792 162.174495 
L 136.984486 161.9495 
L 137.26118 162.106885 
L 137.537874 162.641995 
L 138.091263 164.807109 
L 138.644651 168.329038 
L 139.474734 175.812181 
L 140.581511 188.852081 
L 143.625147 227.260665 
L 144.45523 234.544646 
L 145.008618 238.018427 
L 145.562007 240.253146 
L 145.838701 240.885641 
L 146.115395 241.190932 
L 146.392089 241.170314 
L 146.668784 240.828491 
L 146.945478 240.173351 
L 147.498866 237.957298 
L 148.052255 234.616216 
L 148.882337 227.795464 
L 149.989114 216.300069 
L 152.479362 188.878902 
L 153.309445 181.800375 
L 154.139527 176.718951 
L 154.692916 174.618646 
L 155.246304 173.610326 
L 155.522998 173.520128 
L 155.799693 173.705478 
L 156.076387 174.163261 
L 156.629775 175.870783 
L 157.183164 178.566257 
L 158.013246 184.193506 
L 159.120023 193.837321 
L 161.886965 219.631231 
L 162.717048 225.34284 
L 163.270436 228.182022 
L 163.823825 230.148151 
L 164.377213 231.189472 
L 164.653908 231.353418 
L 164.930602 231.27894 
L 165.207296 230.968632 
L 165.760684 229.663105 
L 166.314073 227.506428 
L 167.144155 222.891387 
L 168.250932 214.80618 
L 171.294569 190.81987 
L 172.124651 186.233446 
L 172.67804 184.031797 
L 173.231428 182.599252 
L 173.508122 182.184741 
L 173.784817 181.974259 
L 174.061511 181.967285 
L 174.338205 182.161166 
L 174.891593 183.131635 
L 175.444982 184.838166 
L 176.275065 188.618947 
L 177.381841 195.393941 
L 180.702172 217.497272 
L 181.532255 221.152693 
L 182.085643 222.824796 
L 182.639032 223.828725 
L 182.915726 224.073468 
L 183.19242 224.146192 
L 183.469114 224.047293 
L 183.745808 223.778548 
L 184.299197 222.746525 
L 184.852585 221.095919 
L 185.682668 217.622503 
L 186.789445 211.64032 
L 189.556387 195.536094 
L 190.38647 191.942982 
L 191.216552 189.451614 
L 191.769941 188.483376 
L 192.323329 188.100897 
L 192.600023 188.132447 
L 192.876717 188.311181 
L 193.430106 189.097106 
L 193.983494 190.417373 
L 194.813577 193.263504 
L 195.920354 198.275927 
L 198.96399 213.254324 
L 199.794073 216.141327 
L 200.347461 217.535869 
L 200.90085 218.453639 
L 201.454238 218.868767 
L 201.730932 218.885586 
L 202.007627 218.776704 
L 202.561015 218.194076 
L 203.114403 217.151528 
L 203.944486 214.822932 
L 205.051263 210.624573 
L 208.371593 196.82139 
L 209.201676 194.516303 
L 209.755065 193.453832 
L 210.308453 192.807516 
L 210.861841 192.589636 
L 211.41523 192.798479 
L 211.968618 193.421512 
L 212.522007 194.43145 
L 213.352089 196.574668 
L 214.458866 200.285721 
L 217.502503 211.159589 
L 218.332585 213.207041 
L 218.885974 214.176113 
L 219.439362 214.796332 
L 219.992751 215.052836 
L 220.546139 214.940412 
L 221.099527 214.468308 
L 221.652916 213.660618 
L 222.482998 211.905093 
L 223.589775 208.797915 
L 226.633412 199.445269 
L 227.463494 197.628431 
L 228.293577 196.414035 
L 228.846965 195.981411 
L 229.400354 195.865071 
L 229.953742 196.062701 
L 230.507131 196.558847 
L 231.060519 197.33023 
L 231.890602 198.933563 
L 232.997379 201.679443 
L 235.764321 208.979781 
L 236.594403 210.589936 
L 237.424486 211.6941 
L 237.977874 212.10998 
L 238.531263 212.258084 
L 239.084651 212.140036 
L 239.63804 211.764072 
L 240.191428 211.146557 
L 241.021511 209.825191 
L 242.128288 207.522745 
L 245.171924 200.732379 
L 246.002007 199.442147 
L 246.832089 198.60166 
L 247.385478 198.317183 
L 247.938866 198.261103 
L 248.492255 198.432965 
L 249.045643 198.823437 
L 249.875726 199.776453 
L 250.705808 201.086446 
L 252.089279 203.755549 
L 254.026139 207.492472 
L 255.132916 209.086905 
L 255.962998 209.856187 
L 256.516387 210.135692 
L 257.069775 210.218533 
L 257.623164 210.105024 
L 258.176552 209.803718 
L 259.006635 209.034963 
L 259.836717 207.948955 
L 261.220189 205.693681 
L 263.157048 202.474786 
L 264.263825 201.067329 
L 265.093908 200.367425 
L 265.92399 200.028657 
L 266.477379 200.01223 
L 267.030767 200.159829 
L 267.86085 200.67051 
L 268.690932 201.484543 
L 269.797709 202.912827 
L 272.841346 207.152736 
L 273.671428 207.965682 
L 274.501511 208.499364 
L 275.331593 208.721711 
L 276.161676 208.624708 
L 276.991759 208.221954 
L 277.821841 207.553884 
L 278.928618 206.359811 
L 282.248949 202.451674 
L 283.079032 201.805155 
L 283.909114 201.403188 
L 284.739197 201.270186 
L 285.569279 201.411537 
L 286.399362 201.807639 
L 287.506139 202.661009 
L 289.166304 204.361446 
L 291.103164 206.320543 
L 292.209941 207.127723 
L 293.040023 207.498888 
L 293.870106 207.639922 
L 294.700189 207.546599 
L 295.530271 207.23464 
L 296.637048 206.53124 
L 298.297213 205.094206 
L 300.234073 203.40331 
L 301.34085 202.688496 
L 302.170932 202.349453 
L 303.001015 202.205023 
L 303.831098 202.259507 
L 304.66118 202.504053 
L 305.767957 203.083448 
L 307.428122 204.294883 
L 309.641676 205.931162 
L 310.748453 206.504228 
L 311.85523 206.807784 
L 312.685313 206.839068 
L 313.792089 206.620731 
L 314.898866 206.146083 
L 316.559032 205.125834 
L 319.049279 203.569068 
L 320.156056 203.113149 
L 321.262833 202.892803 
L 322.36961 202.931491 
L 323.476387 203.213704 
L 324.859858 203.832221 
L 329.010271 205.955141 
L 330.117048 206.215911 
L 331.223825 206.257871 
L 332.330602 206.085049 
L 333.714073 205.616578 
L 335.374238 204.839393 
L 335.374238 204.839393 
" clip-path="url(#p9382344dee)" style="fill: none; stroke: #1f77b4; stroke-width: 1.5; stroke-linecap: square"/>
   </g>
   <g id="line2d_15">
    <path d="M 58.680023 41.997187 
L 58.956717 44.241068 
L 59.510106 52.872198 
L 60.063494 66.670334 
L 60.893577 95.751934 
L 62.000354 146.011151 
L 64.767296 281.549325 
L 65.597379 311.847187 
L 66.150767 327.008313 
L 66.704155 337.612414 
L 67.257544 343.381228 
L 67.534238 344.397187 
L 67.810932 344.162156 
L 68.087627 342.688118 
L 68.364321 339.999865 
L 68.917709 331.143884 
L 69.471098 318.041098 
L 70.30118 291.615684 
L 71.407957 247.38323 
L 73.898205 142.705537 
L 74.728288 115.970714 
L 75.55837 96.900867 
L 76.111759 89.131082 
L 76.388453 86.824946 
L 76.665147 85.587847 
L 76.941841 85.418244 
L 77.218536 86.303445 
L 77.49523 88.219617 
L 78.048618 95.030502 
L 78.602007 105.55773 
L 79.432089 127.368169 
L 80.538866 164.565349 
L 83.305808 262.965657 
L 84.135891 284.557567 
L 84.689279 295.201306 
L 85.242668 302.457107 
L 85.796056 306.151539 
L 86.072751 306.646385 
L 86.349445 306.240591 
L 86.626139 304.942315 
L 87.179527 299.742585 
L 87.732916 291.279007 
L 88.562998 273.298915 
L 89.669775 242.127797 
L 92.713412 150.597496 
L 93.543494 133.326971 
L 94.096883 125.131593 
L 94.650271 119.863965 
L 94.926965 118.375096 
L 95.20366 117.664639 
L 95.480354 117.734019 
L 95.757048 118.576702 
L 96.033742 120.17819 
L 96.587131 125.559787 
L 97.140519 133.605826 
L 97.970602 149.927536 
L 99.077379 177.377802 
L 101.567627 242.737445 
L 102.397709 259.539746 
L 103.227792 271.597128 
L 103.78118 276.567888 
L 104.057874 278.071036 
L 104.334569 278.908006 
L 104.611263 279.078977 
L 104.887957 278.591083 
L 105.164651 277.458416 
L 105.71804 273.331793 
L 106.271428 266.87844 
L 107.101511 253.419199 
L 108.208288 230.342204 
L 110.97523 168.896352 
L 111.805312 155.312317 
L 112.358701 148.577885 
L 112.912089 143.9481 
L 113.465478 141.535793 
L 113.742172 141.172688 
L 114.018866 141.370877 
L 114.29556 142.12578 
L 114.848949 145.261637 
L 115.402337 150.44052 
L 116.23242 161.530862 
L 117.339197 180.861725 
L 120.382833 238.023492 
L 121.212916 248.901903 
L 121.766304 254.096386 
L 122.319693 257.470856 
L 122.596387 258.446327 
L 122.873081 258.937234 
L 123.149775 258.942111 
L 123.42647 258.464437 
L 123.703164 257.512641 
L 124.256552 254.245137 
L 124.809941 249.30561 
L 125.640023 239.2262 
L 126.7468 222.19267 
L 129.513742 177.582521 
L 130.343825 167.931687 
L 130.897213 163.206748 
L 131.450602 160.028975 
L 131.727296 159.051088 
L 132.00399 158.488284 
L 132.280684 158.340952 
L 132.557379 158.605141 
L 132.834073 159.272557 
L 133.387461 161.770728 
L 133.94085 165.725345 
L 134.770932 174.029408 
L 135.877709 188.344666 
L 138.644651 226.711088 
L 139.474734 235.255519 
L 140.028122 239.515309 
L 140.581511 242.467809 
L 141.134899 244.039656 
L 141.411593 244.299932 
L 141.688288 244.210428 
L 141.964982 243.773722 
L 142.241676 242.995552 
L 142.795065 240.453698 
L 143.348453 236.694493 
L 144.178536 229.13813 
L 145.285313 216.562859 
L 147.77556 186.922883 
L 148.605643 179.389043 
L 149.435726 174.054243 
L 149.989114 171.894415 
L 150.265808 171.256953 
L 150.542503 170.921051 
L 150.819197 170.887989 
L 151.095891 171.155978 
L 151.372585 171.720153 
L 151.925974 173.702244 
L 152.479362 176.733898 
L 153.309445 182.957287 
L 154.416222 193.525848 
L 157.183164 221.387239 
L 158.013246 227.459968 
L 158.566635 230.449937 
L 159.120023 232.480124 
L 159.673412 233.491737 
L 159.950106 233.609057 
L 160.2268 233.469324 
L 160.503494 233.077381 
L 161.056883 231.566205 
L 161.610271 229.143614 
L 162.440354 224.021312 
L 163.547131 215.142181 
L 166.314073 191.1885 
L 167.144155 185.815132 
L 167.697544 183.121295 
L 168.250932 181.239408 
L 168.804321 180.217238 
L 169.081015 180.034 
L 169.357709 180.068738 
L 169.634403 180.319931 
L 170.187792 181.456215 
L 170.74118 183.392304 
L 171.571263 187.608288 
L 172.67804 195.041052 
L 175.721676 217.328761 
L 176.551759 221.64281 
L 177.105147 223.727448 
L 177.658536 225.108571 
L 178.211924 225.752077 
L 178.488618 225.791432 
L 178.765312 225.643039 
L 179.042007 225.309665 
L 179.595395 224.108568 
L 180.148784 222.248373 
L 180.978866 218.406292 
L 182.085643 211.849719 
L 184.852585 194.450037 
L 185.682668 190.629633 
L 186.236056 188.738653 
L 186.789445 187.442377 
L 187.342833 186.779553 
L 187.619527 186.690403 
L 187.896222 186.761896 
L 188.172916 186.991265 
L 188.726304 187.90505 
L 189.279693 189.38882 
L 190.109775 192.547665 
L 191.216552 198.054227 
L 194.260189 214.232159 
L 195.090271 217.298296 
L 195.64366 218.75475 
L 196.197048 219.688546 
L 196.750436 220.079286 
L 197.027131 220.070439 
L 197.303825 219.926757 
L 197.857213 219.244086 
L 198.410602 218.061563 
L 199.240684 215.46365 
L 200.347461 210.854744 
L 203.667792 195.944811 
L 204.497874 193.510849 
L 205.051263 192.406269 
L 205.604651 191.751406 
L 206.15804 191.561591 
L 206.711428 191.838544 
L 207.264817 192.565349 
L 207.818205 193.706332 
L 208.648288 196.078468 
L 209.755065 200.145614 
L 212.522007 211.011076 
L 213.352089 213.413864 
L 214.182172 215.070521 
L 214.73556 215.702994 
L 215.288949 215.935382 
L 215.842337 215.767139 
L 216.395726 215.214581 
L 216.949114 214.305857 
L 217.779197 212.358121 
L 218.885974 208.944239 
L 221.92961 198.840868 
L 222.759693 196.91026 
L 223.313081 195.986472 
L 223.86647 195.387774 
L 224.419858 195.128086 
L 224.973246 195.207725 
L 225.526635 195.617605 
L 226.080023 196.3394 
L 226.910106 197.939153 
L 228.016883 200.797094 
L 231.337213 210.108905 
L 232.167296 211.64434 
L 232.720684 212.345954 
L 233.274073 212.767328 
L 233.827461 212.899784 
L 234.38085 212.741818 
L 234.934238 212.30281 
L 235.487627 211.603572 
L 236.317709 210.138662 
L 237.424486 207.615813 
L 240.191428 200.8314 
L 241.021511 199.32046 
L 241.851593 198.272376 
L 242.404982 197.865914 
L 242.95837 197.708051 
L 243.511759 197.800443 
L 244.065147 198.134268 
L 244.618536 198.691 
L 245.448618 199.892136 
L 246.555395 202.007818 
L 249.599032 208.317123 
L 250.429114 209.532212 
L 251.259197 210.335928 
L 251.812585 210.614597 
L 252.365974 210.680104 
L 252.919362 210.535781 
L 253.472751 210.190562 
L 254.302833 209.329826 
L 255.132916 208.128349 
L 256.516387 205.665368 
L 258.453246 202.191722 
L 259.560023 200.692168 
L 260.390106 199.96152 
L 260.943494 199.690648 
L 261.496883 199.599686 
L 262.050271 199.689162 
L 262.60366 199.953902 
L 263.433742 200.651398 
L 264.263825 201.646035 
L 265.647296 203.72383 
L 267.86085 207.087098 
L 268.967627 208.292839 
L 269.797709 208.849279 
L 270.627792 209.067101 
L 271.18118 209.017592 
L 272.011263 208.662601 
L 272.841346 208.009047 
L 273.948122 206.777165 
L 277.821841 201.948161 
L 278.651924 201.348318 
L 279.482007 201.028633 
L 280.312089 201.007353 
L 281.142172 201.275285 
L 281.972255 201.803747 
L 283.079032 202.83027 
L 287.229445 207.189726 
L 288.059527 207.653091 
L 288.88961 207.872028 
L 289.719693 207.83819 
L 290.549775 207.560125 
L 291.379858 207.06467 
L 292.486635 206.148316 
L 296.360354 202.64619 
L 297.190436 202.227056 
L 298.020519 202.013024 
L 298.850602 202.015292 
L 299.680684 202.229582 
L 300.787461 202.80191 
L 302.170932 203.841701 
L 304.937874 206.074299 
L 306.044651 206.681556 
L 307.151428 206.995139 
L 307.981511 207.014821 
L 308.811593 206.852578 
L 309.91837 206.388035 
L 311.301841 205.516204 
L 314.345478 203.441072 
L 315.452255 202.9581 
L 316.559032 202.734653 
L 317.665808 202.791523 
L 318.772585 203.109367 
L 320.156056 203.792347 
L 324.029775 205.980064 
L 325.136552 206.305947 
L 326.243329 206.399389 
L 327.350106 206.256519 
L 328.456883 205.903829 
L 330.117048 205.113945 
L 332.88399 203.753705 
L 334.267461 203.357495 
L 335.374238 203.258946 
L 335.374238 203.258946 
" clip-path="url(#p9382344dee)" style="fill: none; stroke: #ff7f0e; stroke-width: 1.5; stroke-linecap: square"/>
   </g>
   <g id="patch_3">
    <path d="M 44.845313 359.517187 
L 44.845313 26.877187 
" style="fill: none; stroke: #000000; stroke-width: 0.8; stroke-linejoin: miter; stroke-linecap: square"/>
   </g>
   <g id="patch_4">
    <path d="M 349.208949 359.517187 
L 349.208949 26.877187 
" style="fill: none; stroke: #000000; stroke-width: 0.8; stroke-linejoin: miter; stroke-linecap: square"/>
   </g>
   <g id="patch_5">
    <path d="M 44.845313 359.517187 
L 349.208949 359.517187 
" style="fill: none; stroke: #000000; stroke-width: 0.8; stroke-linejoin: miter; stroke-linecap: square"/>
   </g>
   <g id="patch_6">
    <path d="M 44.845313 26.877187 
L 349.208949 26.877187 
" style="fill: none; stroke: #000000; stroke-width: 0.8; stroke-linejoin: miter; stroke-linecap: square"/>
   </g>
   <g id="text_15">
    <!-- (a) -->
    <g transform="translate(184.489006 20.877187) scale(0.18 -0.18)">
     <defs>
      <path id="DejaVuSans-28" d="M 1984 4856 
Q 1566 4138 1362 3434 
Q 1159 2731 1159 2009 
Q 1159 1288 1364 580 
Q 1569 -128 1984 -844 
L 1484 -844 
Q 1016 -109 783 600 
Q 550 1309 550 2009 
Q 550 2706 781 3412 
Q 1013 4119 1484 4856 
L 1984 4856 
z
" transform="scale(0.015625)"/>
      <path id="DejaVuSans-61" d="M 2194 1759 
Q 1497 1759 1228 1600 
Q 959 1441 959 1056 
Q 959 750 1161 570 
Q 1363 391 1709 391 
Q 2188 391 2477 730 
Q 2766 1069 2766 1631 
L 2766 1759 
L 2194 1759 
z
M 3341 1997 
L 3341 0 
L 2766 0 
L 2766 531 
Q 2569 213 2275 61 
Q 1981 -91 1556 -91 
Q 1019 -91 701 211 
Q 384 513 384 1019 
Q 384 1609 779 1909 
Q 1175 2209 1959 2209 
L 2766 2209 
L 2766 2266 
Q 2766 2663 2505 2880 
Q 2244 3097 1772 3097 
Q 1472 3097 1187 3025 
Q 903 2953 641 2809 
L 641 3341 
Q 956 3463 1253 3523 
Q 1550 3584 1831 3584 
Q 2591 3584 2966 3190 
Q 3341 2797 3341 1997 
z
" transform="scale(0.015625)"/>
      <path id="DejaVuSans-29" d="M 513 4856 
L 1013 4856 
Q 1481 4119 1714 3412 
Q 1947 2706 1947 2009 
Q 1947 1309 1714 600 
Q 1481 -109 1013 -844 
L 513 -844 
Q 928 -128 1133 580 
Q 1338 1288 1338 2009 
Q 1338 2731 1133 3434 
Q 928 4138 513 4856 
z
" transform="scale(0.015625)"/>
     </defs>
     <use xlink:href="#DejaVuSans-28"/>
     <use xlink:href="#DejaVuSans-61" x="39.013672"/>
     <use xlink:href="#DejaVuSans-29" x="100.292969"/>
    </g>
   </g>
   <g id="legend_1">
    <g id="patch_7">
     <path d="M 292.566761 64.233437 
L 342.208949 64.233437 
Q 344.208949 64.233437 344.208949 62.233437 
L 344.208949 33.877187 
Q 344.208949 31.877187 342.208949 31.877187 
L 292.566761 31.877187 
Q 290.566761 31.877187 290.566761 33.877187 
L 290.566761 62.233437 
Q 290.566761 64.233437 292.566761 64.233437 
z
" style="fill: #ffffff; opacity: 0.8; stroke: #cccccc; stroke-linejoin: miter"/>
    </g>
    <g id="line2d_16">
     <path d="M 294.566761 39.975625 
L 304.566761 39.975625 
L 314.566761 39.975625 
" style="fill: none; stroke: #1f77b4; stroke-width: 1.5; stroke-linecap: square"/>
    </g>
    <g id="text_16">
     <!-- x(t) -->
     <g transform="translate(322.566761 43.475625) scale(0.1 -0.1)">
      <defs>
       <path id="DejaVuSans-78" d="M 3513 3500 
L 2247 1797 
L 3578 0 
L 2900 0 
L 1881 1375 
L 863 0 
L 184 0 
L 1544 1831 
L 300 3500 
L 978 3500 
L 1906 2253 
L 2834 3500 
L 3513 3500 
z
" transform="scale(0.015625)"/>
      </defs>
      <use xlink:href="#DejaVuSans-78"/>
      <use xlink:href="#DejaVuSans-28" x="59.179688"/>
      <use xlink:href="#DejaVuSans-74" x="98.193359"/>
      <use xlink:href="#DejaVuSans-29" x="137.402344"/>
     </g>
    </g>
    <g id="line2d_17">
     <path d="M 294.566761 54.65375 
L 304.566761 54.65375 
L 314.566761 54.65375 
" style="fill: none; stroke: #ff7f0e; stroke-width: 1.5; stroke-linecap: square"/>
    </g>
    <g id="text_17">
     <!-- v(t) -->
     <g transform="translate(322.566761 58.15375) scale(0.1 -0.1)">
      <defs>
       <path id="DejaVuSans-76" d="M 191 3500 
L 800 3500 
L 1894 563 
L 2988 3500 
L 3597 3500 
L 2284 0 
L 1503 0 
L 191 3500 
z
" transform="scale(0.015625)"/>
      </defs>
      <use xlink:href="#DejaVuSans-76"/>
      <use xlink:href="#DejaVuSans-28" x="59.179688"/>
      <use xlink:href="#DejaVuSans-74" x="98.193359"/>
      <use xlink:href="#DejaVuSans-29" x="137.402344"/>
     </g>
    </g>
   </g>
  </g>
  <g id="axes_2">
   <g id="patch_8">
    <path d="M 410.081676 359.517187 
L 714.445312 359.517187 
L 714.445312 26.877187 
L 410.081676 26.877187 
z
" style="fill: #ffffff"/>
   </g>
   <g id="matplotlib.axis_3">
    <g id="xtick_6">
     <g id="line2d_18">
      <g>
       <use xlink:href="#m97e45a1d03" x="440.074311" y="359.517187" style="stroke: #000000; stroke-width: 0.8"/>
      </g>
     </g>
     <g id="text_18">
      <!-- −0.75 -->
      <g transform="translate(424.751655 374.115625) scale(0.1 -0.1)">
       <use xlink:href="#DejaVuSans-2212"/>
       <use xlink:href="#DejaVuSans-30" x="83.789062"/>
       <use xlink:href="#DejaVuSans-2e" x="147.412109"/>
       <use xlink:href="#DejaVuSans-37" x="179.199219"/>
       <use xlink:href="#DejaVuSans-35" x="242.822266"/>
      </g>
     </g>
    </g>
    <g id="xtick_7">
     <g id="line2d_19">
      <g>
       <use xlink:href="#m97e45a1d03" x="477.293781" y="359.517187" style="stroke: #000000; stroke-width: 0.8"/>
      </g>
     </g>
     <g id="text_19">
      <!-- −0.50 -->
      <g transform="translate(461.971125 374.115625) scale(0.1 -0.1)">
       <use xlink:href="#DejaVuSans-2212"/>
       <use xlink:href="#DejaVuSans-30" x="83.789062"/>
       <use xlink:href="#DejaVuSans-2e" x="147.412109"/>
       <use xlink:href="#DejaVuSans-35" x="179.199219"/>
       <use xlink:href="#DejaVuSans-30" x="242.822266"/>
      </g>
     </g>
    </g>
    <g id="xtick_8">
     <g id="line2d_20">
      <g>
       <use xlink:href="#m97e45a1d03" x="514.513251" y="359.517187" style="stroke: #000000; stroke-width: 0.8"/>
      </g>
     </g>
     <g id="text_20">
      <!-- −0.25 -->
      <g transform="translate(499.190595 374.115625) scale(0.1 -0.1)">
       <use xlink:href="#DejaVuSans-2212"/>
       <use xlink:href="#DejaVuSans-30" x="83.789062"/>
       <use xlink:href="#DejaVuSans-2e" x="147.412109"/>
       <use xlink:href="#DejaVuSans-32" x="179.199219"/>
       <use xlink:href="#DejaVuSans-35" x="242.822266"/>
      </g>
     </g>
    </g>
    <g id="xtick_9">
     <g id="line2d_21">
      <g>
       <use xlink:href="#m97e45a1d03" x="551.732721" y="359.517187" style="stroke: #000000; stroke-width: 0.8"/>
      </g>
     </g>
     <g id="text_21">
      <!-- 0.00 -->
      <g transform="translate(540.599909 374.115625) scale(0.1 -0.1)">
       <use xlink:href="#DejaVuSans-30"/>
       <use xlink:href="#DejaVuSans-2e" x="63.623047"/>
       <use xlink:href="#DejaVuSans-30" x="95.410156"/>
       <use xlink:href="#DejaVuSans-30" x="159.033203"/>
      </g>
     </g>
    </g>
    <g id="xtick_10">
     <g id="line2d_22">
      <g>
       <use xlink:href="#m97e45a1d03" x="588.952191" y="359.517187" style="stroke: #000000; stroke-width: 0.8"/>
      </g>
     </g>
     <g id="text_22">
      <!-- 0.25 -->
      <g transform="translate(577.819379 374.115625) scale(0.1 -0.1)">
       <use xlink:href="#DejaVuSans-30"/>
       <use xlink:href="#DejaVuSans-2e" x="63.623047"/>
       <use xlink:href="#DejaVuSans-32" x="95.410156"/>
       <use xlink:href="#DejaVuSans-35" x="159.033203"/>
      </g>
     </g>
    </g>
    <g id="xtick_11">
     <g id="line2d_23">
      <g>
       <use xlink:href="#m97e45a1d03" x="626.171662" y="359.517187" style="stroke: #000000; stroke-width: 0.8"/>
      </g>
     </g>
     <g id="text_23">
      <!-- 0.50 -->
      <g transform="translate(615.038849 374.115625) scale(0.1 -0.1)">
       <use xlink:href="#DejaVuSans-30"/>
       <use xlink:href="#DejaVuSans-2e" x="63.623047"/>
       <use xlink:href="#DejaVuSans-35" x="95.410156"/>
       <use xlink:href="#DejaVuSans-30" x="159.033203"/>
      </g>
     </g>
    </g>
    <g id="xtick_12">
     <g id="line2d_24">
      <g>
       <use xlink:href="#m97e45a1d03" x="663.391132" y="359.517187" style="stroke: #000000; stroke-width: 0.8"/>
      </g>
     </g>
     <g id="text_24">
      <!-- 0.75 -->
      <g transform="translate(652.258319 374.115625) scale(0.1 -0.1)">
       <use xlink:href="#DejaVuSans-30"/>
       <use xlink:href="#DejaVuSans-2e" x="63.623047"/>
       <use xlink:href="#DejaVuSans-37" x="95.410156"/>
       <use xlink:href="#DejaVuSans-35" x="159.033203"/>
      </g>
     </g>
    </g>
    <g id="xtick_13">
     <g id="line2d_25">
      <g>
       <use xlink:href="#m97e45a1d03" x="700.610602" y="359.517187" style="stroke: #000000; stroke-width: 0.8"/>
      </g>
     </g>
     <g id="text_25">
      <!-- 1.00 -->
      <g transform="translate(689.477789 374.115625) scale(0.1 -0.1)">
       <use xlink:href="#DejaVuSans-31"/>
       <use xlink:href="#DejaVuSans-2e" x="63.623047"/>
       <use xlink:href="#DejaVuSans-30" x="95.410156"/>
       <use xlink:href="#DejaVuSans-30" x="159.033203"/>
      </g>
     </g>
    </g>
    <g id="text_26">
     <!-- x -->
     <g transform="translate(558.120369 390.833125) scale(0.14 -0.14)">
      <use xlink:href="#DejaVuSans-78"/>
     </g>
    </g>
   </g>
   <g id="matplotlib.axis_4">
    <g id="ytick_9">
     <g id="line2d_26">
      <g>
       <use xlink:href="#m042b03ec06" x="410.081676" y="352.180628" style="stroke: #000000; stroke-width: 0.8"/>
      </g>
     </g>
     <g id="text_27">
      <!-- −1.00 -->
      <g transform="translate(372.436364 355.979847) scale(0.1 -0.1)">
       <use xlink:href="#DejaVuSans-2212"/>
       <use xlink:href="#DejaVuSans-31" x="83.789062"/>
       <use xlink:href="#DejaVuSans-2e" x="147.412109"/>
       <use xlink:href="#DejaVuSans-30" x="179.199219"/>
       <use xlink:href="#DejaVuSans-30" x="242.822266"/>
      </g>
     </g>
    </g>
    <g id="ytick_10">
     <g id="line2d_27">
      <g>
       <use xlink:href="#m042b03ec06" x="410.081676" y="314.961158" style="stroke: #000000; stroke-width: 0.8"/>
      </g>
     </g>
     <g id="text_28">
      <!-- −0.75 -->
      <g transform="translate(372.436364 318.760377) scale(0.1 -0.1)">
       <use xlink:href="#DejaVuSans-2212"/>
       <use xlink:href="#DejaVuSans-30" x="83.789062"/>
       <use xlink:href="#DejaVuSans-2e" x="147.412109"/>
       <use xlink:href="#DejaVuSans-37" x="179.199219"/>
       <use xlink:href="#DejaVuSans-35" x="242.822266"/>
      </g>
     </g>
    </g>
    <g id="ytick_11">
     <g id="line2d_28">
      <g>
       <use xlink:href="#m042b03ec06" x="410.081676" y="277.741688" style="stroke: #000000; stroke-width: 0.8"/>
      </g>
     </g>
     <g id="text_29">
      <!-- −0.50 -->
      <g transform="translate(372.436364 281.540906) scale(0.1 -0.1)">
       <use xlink:href="#DejaVuSans-2212"/>
       <use xlink:href="#DejaVuSans-30" x="83.789062"/>
       <use xlink:href="#DejaVuSans-2e" x="147.412109"/>
       <use xlink:href="#DejaVuSans-35" x="179.199219"/>
       <use xlink:href="#DejaVuSans-30" x="242.822266"/>
      </g>
     </g>
    </g>
    <g id="ytick_12">
     <g id="line2d_29">
      <g>
       <use xlink:href="#m042b03ec06" x="410.081676" y="240.522218" style="stroke: #000000; stroke-width: 0.8"/>
      </g>
     </g>
     <g id="text_30">
      <!-- −0.25 -->
      <g transform="translate(372.436364 244.321436) scale(0.1 -0.1)">
       <use xlink:href="#DejaVuSans-2212"/>
       <use xlink:href="#DejaVuSans-30" x="83.789062"/>
       <use xlink:href="#DejaVuSans-2e" x="147.412109"/>
       <use xlink:href="#DejaVuSans-32" x="179.199219"/>
       <use xlink:href="#DejaVuSans-35" x="242.822266"/>
      </g>
     </g>
    </g>
    <g id="ytick_13">
     <g id="line2d_30">
      <g>
       <use xlink:href="#m042b03ec06" x="410.081676" y="203.302747" style="stroke: #000000; stroke-width: 0.8"/>
      </g>
     </g>
     <g id="text_31">
      <!-- 0.00 -->
      <g transform="translate(380.816051 207.101966) scale(0.1 -0.1)">
       <use xlink:href="#DejaVuSans-30"/>
       <use xlink:href="#DejaVuSans-2e" x="63.623047"/>
       <use xlink:href="#DejaVuSans-30" x="95.410156"/>
       <use xlink:href="#DejaVuSans-30" x="159.033203"/>
      </g>
     </g>
    </g>
    <g id="ytick_14">
     <g id="line2d_31">
      <g>
       <use xlink:href="#m042b03ec06" x="410.081676" y="166.083277" style="stroke: #000000; stroke-width: 0.8"/>
      </g>
     </g>
     <g id="text_32">
      <!-- 0.25 -->
      <g transform="translate(380.816051 169.882496) scale(0.1 -0.1)">
       <use xlink:href="#DejaVuSans-30"/>
       <use xlink:href="#DejaVuSans-2e" x="63.623047"/>
       <use xlink:href="#DejaVuSans-32" x="95.410156"/>
       <use xlink:href="#DejaVuSans-35" x="159.033203"/>
      </g>
     </g>
    </g>
    <g id="ytick_15">
     <g id="line2d_32">
      <g>
       <use xlink:href="#m042b03ec06" x="410.081676" y="128.863807" style="stroke: #000000; stroke-width: 0.8"/>
      </g>
     </g>
     <g id="text_33">
      <!-- 0.50 -->
      <g transform="translate(380.816051 132.663026) scale(0.1 -0.1)">
       <use xlink:href="#DejaVuSans-30"/>
       <use xlink:href="#DejaVuSans-2e" x="63.623047"/>
       <use xlink:href="#DejaVuSans-35" x="95.410156"/>
       <use xlink:href="#DejaVuSans-30" x="159.033203"/>
      </g>
     </g>
    </g>
    <g id="ytick_16">
     <g id="line2d_33">
      <g>
       <use xlink:href="#m042b03ec06" x="410.081676" y="91.644337" style="stroke: #000000; stroke-width: 0.8"/>
      </g>
     </g>
     <g id="text_34">
      <!-- 0.75 -->
      <g transform="translate(380.816051 95.443556) scale(0.1 -0.1)">
       <use xlink:href="#DejaVuSans-30"/>
       <use xlink:href="#DejaVuSans-2e" x="63.623047"/>
       <use xlink:href="#DejaVuSans-37" x="95.410156"/>
       <use xlink:href="#DejaVuSans-35" x="159.033203"/>
      </g>
     </g>
    </g>
    <g id="ytick_17">
     <g id="line2d_34">
      <g>
       <use xlink:href="#m042b03ec06" x="410.081676" y="54.424867" style="stroke: #000000; stroke-width: 0.8"/>
      </g>
     </g>
     <g id="text_35">
      <!-- 1.00 -->
      <g transform="translate(380.816051 58.224086) scale(0.1 -0.1)">
       <use xlink:href="#DejaVuSans-31"/>
       <use xlink:href="#DejaVuSans-2e" x="63.623047"/>
       <use xlink:href="#DejaVuSans-30" x="95.410156"/>
       <use xlink:href="#DejaVuSans-30" x="159.033203"/>
      </g>
     </g>
    </g>
    <g id="text_36">
     <!-- v -->
     <g transform="translate(365.524801 197.340312) rotate(-90) scale(0.14 -0.14)">
      <use xlink:href="#DejaVuSans-76"/>
     </g>
    </g>
   </g>
   <g id="line2d_35">
    <path d="M 700.610602 203.302747 
L 698.557464 189.357918 
L 695.226663 175.665556 
L 690.660031 162.344189 
L 684.909075 149.511033 
L 678.034818 137.275644 
L 670.107808 125.739814 
L 661.208113 114.997568 
L 651.425326 105.135165 
L 640.853598 96.225899 
L 629.59243 88.33824 
L 617.750602 81.539656 
L 605.438439 75.884856 
L 592.767769 71.415729 
L 579.851917 68.161346 
L 566.805715 66.137956 
L 553.745489 65.348989 
L 540.789073 65.785057 
L 528.055605 67.424009 
L 515.646651 70.239363 
L 503.666983 74.199721 
L 492.225451 79.262179 
L 481.42181 85.374813 
L 471.346728 92.476678 
L 462.081778 100.497809 
L 453.699445 109.359223 
L 446.26312 118.972913 
L 439.827104 129.241855 
L 434.436607 140.060002 
L 430.124415 151.330234 
L 426.919481 162.956887 
L 424.845983 174.829588 
L 423.916387 186.839743 
L 424.13144 198.880543 
L 425.480175 210.846959 
L 427.939911 222.635747 
L 431.476251 234.145445 
L 436.043081 245.276375 
L 441.582575 255.93064 
L 448.032053 266.018459 
L 455.335979 275.463988 
L 463.421704 284.184004 
L 472.211151 292.104319 
L 481.621641 299.16069 
L 491.565895 305.298825 
L 501.952036 310.474375 
L 512.683586 314.652938 
L 523.659467 317.81006 
L 534.775135 319.931324 
L 545.940738 321.010932 
L 557.055804 321.045386 
L 568.017796 320.039629 
L 578.729284 318.008504 
L 589.097946 314.976749 
L 599.036572 310.978998 
L 608.463056 306.059785 
L 617.300405 300.273538 
L 625.476733 293.684584 
L 632.925261 286.367147 
L 639.590279 278.393323 
L 645.423051 269.830289 
L 650.374059 260.761091 
L 654.403898 251.270633 
L 657.483367 241.445532 
L 659.593468 231.37412 
L 660.725406 221.14644 
L 660.880592 210.854251 
L 660.070637 200.591022 
L 658.317352 190.451913 
L 655.646175 180.519295 
L 652.085432 170.875779 
L 647.672892 161.609731 
L 642.453081 152.802623 
L 636.477283 144.529041 
L 629.803542 136.856678 
L 622.496658 129.84634 
L 614.628189 123.551941 
L 606.276451 118.020508 
L 597.526518 113.292175 
L 588.461457 109.398174 
L 579.153757 106.363326 
L 569.691504 104.211414 
L 560.161546 102.957184 
L 550.648714 102.606094 
L 541.235828 103.154309 
L 532.003693 104.588701 
L 523.031098 106.88685 
L 514.394821 110.017046 
L 506.169623 113.938284 
L 498.425757 118.603052 
L 491.220591 123.970472 
L 484.616405 129.9874 
L 478.669287 136.595041 
L 473.427269 143.730664 
L 468.930328 151.327597 
L 465.210387 159.315232 
L 462.291313 167.619023 
L 460.188919 176.160485 
L 458.910929 184.85767 
L 458.458148 193.639044 
L 458.829447 202.42614 
L 460.017362 211.137359 
L 462.006809 219.694793 
L 464.775085 228.024225 
L 468.291866 236.055127 
L 472.519209 243.720666 
L 477.411552 250.957693 
L 482.915712 257.706756 
L 488.970887 263.91209 
L 495.514973 269.524983 
L 502.49493 274.505783 
L 509.843648 278.811989 
L 517.492276 282.408533 
L 525.371107 285.268352 
L 533.409579 287.372388 
L 541.536276 288.709586 
L 549.678921 289.276896 
L 557.764387 289.079274 
L 565.718687 288.129679 
L 573.474802 286.445713 
L 580.970953 284.045886 
L 588.138565 280.95647 
L 594.914655 277.20933 
L 601.241961 272.841886 
L 607.068943 267.897115 
L 612.349785 262.423546 
L 617.044389 256.475267 
L 621.118382 250.111917 
L 624.543111 243.398694 
L 627.297002 236.399518 
L 629.36296 229.171319 
L 630.725266 221.782807 
L 631.37533 214.301994 
L 631.311848 206.795705 
L 630.540798 199.329576 
L 629.075446 191.968055 
L 626.936341 184.774401 
L 624.151317 177.810685 
L 620.755492 171.13779 
L 616.789238 164.813528 
L 612.286944 158.884783 
L 607.292678 153.402958 
L 601.85497 148.41507 
L 596.025143 143.96191 
L 589.857318 140.078044 
L 583.408412 136.791816 
L 576.738139 134.125344 
L 569.909006 132.094523 
L 562.986229 130.709014 
L 556.02752 129.972546 
L 549.093444 129.887244 
L 542.248428 130.450641 
L 535.55367 131.654129 
L 529.067137 133.482954 
L 522.843563 135.916221 
L 516.934451 138.926891 
L 511.388072 142.481783 
L 506.249468 146.541572 
L 501.560445 151.060791 
L 497.357242 155.992447 
L 493.669354 161.296051 
L 490.528011 166.920366 
L 487.958514 172.81246 
L 485.979796 178.918388 
L 484.604424 185.183186 
L 483.838601 191.550882 
L 483.682164 197.964484 
L 484.128584 204.365989 
L 485.164968 210.696378 
L 486.774662 216.901527 
L 488.940803 222.932438 
L 491.640239 228.733609 
L 494.845583 234.253671 
L 498.525284 239.445583 
L 502.643622 244.266639 
L 507.16071 248.678464 
L 512.032493 252.647014 
L 517.210751 256.142577 
L 522.643094 259.139774 
L 528.276024 261.618295 
L 534.065059 263.563057 
L 539.956024 264.958984 
L 545.894509 265.796245 
L 551.827409 266.070792 
L 557.702924 265.784359 
L 563.470557 264.944461 
L 569.081116 263.564395 
L 574.486713 261.663243 
L 579.640764 259.265866 
L 584.498615 256.402226 
L 589.024147 253.098312 
L 593.179117 249.386063 
L 596.927927 245.301973 
L 600.240023 240.884941 
L 603.089893 236.176272 
L 605.457067 231.219677 
L 607.326119 226.061273 
L 608.686665 220.749582 
L 609.533366 215.335533 
L 609.865604 209.865738 
L 609.684262 204.386764 
L 608.993531 198.949936 
L 607.802315 193.604226 
L 606.12424 188.39625 
L 603.977647 183.370266 
L 601.385592 178.568179 
L 598.375851 174.029537 
L 594.980916 169.79153 
L 591.237995 165.888996 
L 587.187202 162.35343 
L 582.86143 159.209219 
L 578.30148 156.48269 
L 573.55037 154.196326 
L 568.651587 152.367614 
L 563.64909 151.009041 
L 558.58731 150.128098 
L 553.511148 149.727277 
L 548.465975 149.804073 
L 543.497637 150.350982 
L 538.649924 151.356561 
L 533.959957 152.809511 
L 529.470332 154.693904 
L 525.220847 156.990163 
L 521.24769 159.6753 
L 517.583447 162.722913 
L 514.257096 166.10319 
L 511.294008 169.782903 
L 508.715952 173.725413 
L 506.541088 177.890669 
L 504.783519 182.237321 
L 503.453467 186.730507 
L 502.560917 191.328039 
L 502.11174 195.987281 
L 502.107278 200.666394 
L 502.544346 205.324337 
L 503.415234 209.920863 
L 504.707701 214.416522 
L 506.404981 218.772659 
L 508.48578 222.951417 
L 510.924619 226.916053 
L 513.699292 230.636724 
L 516.783556 234.082243 
L 520.147219 237.222802 
L 523.758397 240.03249 
L 527.583512 242.489294 
L 531.587299 244.575095 
L 535.732799 246.275673 
L 539.981363 247.580705 
L 544.292648 248.483763 
L 548.628994 248.98229 
L 552.954327 249.075172 
L 557.228183 248.763576 
L 561.4121 248.052469 
L 565.469665 246.950632 
L 569.36651 245.470654 
L 573.070319 243.628934 
L 576.550822 241.445682 
L 579.779797 238.944917 
L 582.731071 236.154467 
L 585.381278 233.104512 
L 587.712256 229.820135 
L 589.70457 226.332574 
L 591.341978 222.674853 
L 592.612213 218.880587 
L 593.506974 214.983987 
L 594.021936 211.019857 
L 594.156744 207.023591 
L 593.915013 203.031181 
L 593.304331 199.079209 
L 592.335388 195.20283 
L 591.018519 191.43168 
L 589.367794 187.800176 
L 587.400068 184.340732 
L 585.13476 181.083031 
L 582.593855 178.054029 
L 579.8019 175.277957 
L 576.786008 172.776317 
L 573.575858 170.567884 
L 570.20369 168.668708 
L 566.703523 167.091909 
L 563.103385 165.846818 
L 559.436157 164.942803 
L 555.735954 164.386394 
L 552.036039 164.180525 
L 548.36883 164.324531 
L 544.765895 164.814154 
L 541.257951 165.641535 
L 537.874869 166.795221 
L 534.64567 168.26016 
L 531.598473 170.017765 
L 528.756545 172.050958 
L 526.142975 174.340859 
L 523.78037 176.864796 
L 521.688177 179.598632 
L 519.882686 182.516769 
L 518.377026 185.592142 
L 517.181167 188.796227 
L 516.30192 192.099034 
L 515.742936 195.469109 
L 515.504785 198.875902 
L 515.586681 202.291777 
L 515.986264 205.684685 
L 516.698285 209.023813 
L 517.714579 212.279854 
L 519.024066 215.425011 
L 520.612749 218.432998 
L 522.463716 221.279036 
L 524.557141 223.939855 
L 526.87028 226.393698 
L 529.377744 228.620463 
L 532.058207 230.604655 
L 534.887392 232.330356 
L 537.838391 233.783144 
L 540.884043 234.951718 
L 543.996943 235.827898 
L 547.149439 236.406627 
L 550.313631 236.685967 
L 553.461371 236.667102 
L 556.564263 236.354336 
L 559.594178 235.754887 
L 562.52798 234.876007 
L 565.339793 233.727212 
L 568.004446 232.320545 
L 570.499042 230.670141 
L 572.802963 228.792223 
L 574.897865 226.705107 
L 576.767682 224.429193 
L 578.398624 221.986977 
L 579.779176 219.403039 
L 580.900192 216.703656 
L 581.755406 213.910974 
L 582.338679 211.050416 
L 582.646028 208.148742 
L 582.676279 205.232175 
L 582.431071 202.3264 
L 581.914854 199.456565 
L 581.13489 196.647281 
L 580.101253 193.922619 
L 578.826826 191.306116 
L 577.327307 188.820769 
L 575.617754 186.486258 
L 573.713361 184.321014 
L 571.632943 182.343958 
L 569.396326 180.571569 
L 567.024352 179.01788 
L 564.538877 177.694485 
L 561.962772 176.61053 
L 559.319922 175.772719 
L 556.635227 175.185313 
L 553.933179 174.850111 
L 551.235458 174.767581 
L 548.567205 174.937175 
L 545.952635 175.356044 
L 543.414659 176.018979 
L 540.974877 176.918417 
L 538.653584 178.044436 
L 536.469763 179.38476 
L 534.441094 180.924752 
L 532.583945 182.647422 
L 530.913252 184.533659 
L 529.440487 186.567279 
L 528.177449 188.729642 
L 527.134578 191.000105 
L 526.31984 193.357693 
L 525.738718 195.781096 
L 525.39422 198.24867 
L 525.286873 200.73844 
L 525.414727 203.228095 
L 525.773353 205.69499 
L 526.356011 208.116546 
L 527.15607 210.474257 
L 528.165107 212.747271 
L 529.372726 214.915097 
L 530.766964 216.958968 
L 532.334288 218.861843 
L 534.059602 220.608403 
L 535.926238 222.185056 
L 537.915963 223.579934 
L 540.008974 224.782892 
L 542.183955 225.785524 
L 544.422521 226.581888 
L 546.705218 227.166388 
L 549.010613 227.534691 
L 551.317833 227.6847 
L 553.606568 227.616553 
L 555.857069 227.332623 
L 558.05015 226.837516 
L 560.167185 226.138074 
L 562.190113 225.243374 
L 564.101431 224.164727 
L 565.885697 222.913817 
L 567.529346 221.501547 
L 569.018031 219.941992 
L 570.339349 218.250151 
L 571.482877 216.4419 
L 572.440176 214.533997 
L 573.204792 212.544075 
L 573.772253 210.490647 
L 574.140071 208.393104 
L 574.307733 206.271223 
L 574.275948 204.141923 
L 574.046108 202.024745 
L 573.621302 199.939135 
L 573.006415 197.903562 
L 572.208125 195.935513 
L 571.234905 194.051501 
L 570.097022 192.267059 
L 568.806537 190.596742 
L 567.377304 189.05413 
L 565.824974 187.651822 
L 564.164311 186.400192 
L 562.409153 185.308396 
L 560.576369 184.385696 
L 558.682963 183.639416 
L 556.746044 183.074926 
L 554.782839 182.69565 
L 552.810682 182.503061 
L 550.847021 182.49668 
L 548.909415 182.67408 
L 547.015533 183.030884 
L 545.180741 183.562053 
L 543.420025 184.262079 
L 541.749352 185.123519 
L 540.183247 186.137667 
L 538.734791 187.294546 
L 537.415617 188.582911 
L 536.235918 189.990251 
L 535.20444 191.502787 
L 534.328486 193.105472 
L 533.613914 194.781991 
L 533.064766 196.517441 
L 532.684551 198.297082 
L 532.475962 200.104065 
L 532.439953 201.921913 
L 532.575732 203.734523 
L 532.880767 205.526163 
L 533.350784 207.281472 
L 533.979763 208.985465 
L 534.759947 210.623526 
L 535.681831 212.181413 
L 536.735061 213.645984 
L 537.910737 215.006408 
L 539.197312 216.250829 
L 540.582429 217.368721 
L 542.053134 218.351096 
L 543.595883 219.190511 
L 545.196538 219.881061 
L 546.840365 220.418382 
L 548.51204 220.79965 
L 550.195771 221.023589 
L 551.877975 221.090131 
L 553.543655 220.999638 
L 555.177468 220.753738 
L 556.764927 220.355502 
L 558.2924 219.809444 
L 559.747113 219.121525 
L 561.117145 218.299149 
L 562.391431 217.351166 
L 563.559765 216.287868 
L 564.612791 215.120994 
L 565.542752 213.862036 
L 566.343027 212.521443 
L 567.006883 211.112159 
L 567.529112 209.647332 
L 567.906053 208.140273 
L 568.135592 206.604452 
L 568.217164 205.053501 
L 568.151748 203.50121 
L 567.941876 201.961533 
L 567.591624 200.448582 
L 567.105769 198.975059 
L 566.489119 197.552632 
L 565.748128 196.19432 
L 564.890197 194.91206 
L 563.923664 193.716684 
L 562.857804 192.617919 
L 561.702825 191.624384 
L 560.469875 190.743597 
L 559.171037 189.981966 
L 557.819332 189.344797 
L 556.427597 188.836084 
L 555.006885 188.458865 
L 553.570581 188.21597 
L 552.131854 188.108899 
L 550.70348 188.137767 
L 549.297845 188.301307 
L 547.926942 188.59687 
L 546.602374 189.020424 
L 545.335352 189.566554 
L 544.136694 190.228461 
L 543.016619 190.998219 
L 541.98329 191.869085 
L 541.045468 192.832653 
L 540.211122 193.879555 
L 539.48697 194.999916 
L 538.878475 196.183357 
L 538.389852 197.418991 
L 538.024058 198.695431 
L 537.7828 200.00078 
L 537.666533 201.322639 
L 537.674628 202.649504 
L 537.806096 203.970426 
L 538.059105 205.273043 
L 538.430736 206.545631 
L 538.916979 207.777123 
L 539.512737 208.957102 
L 540.211826 210.075809 
L 541.006972 211.124136 
L 541.889813 212.093631 
L 542.850899 212.976496 
L 543.879981 213.765727 
L 544.968686 214.456015 
L 546.106935 215.041724 
L 547.284004 215.518068 
L 548.489155 215.881478 
L 549.711628 216.129605 
L 550.940647 216.261318 
L 552.165418 216.276707 
L 553.375127 216.177081 
L 554.558944 215.964966 
L 555.706264 215.64398 
L 556.808421 215.217523 
L 557.855705 214.690055 
L 558.838829 214.066983 
L 559.749435 213.354465 
L 560.580093 212.559403 
L 561.324304 211.689446 
L 561.976496 210.752994 
L 562.98718 208.717929 
L 563.586376 206.532488 
L 563.760055 204.274228 
L 563.506645 202.025068 
L 562.841623 199.862928 
L 561.79763 197.861321 
L 560.422732 196.088098 
L 558.769391 194.600043 
L 556.900109 193.446595 
L 554.883489 192.662451 
L 552.793322 192.266645 
L 550.705147 192.263225 
L 548.69133 192.646056 
L 546.823331 193.397126 
L 545.163603 194.484508 
L 543.765354 195.862349 
L 542.671776 197.473074 
L 541.915044 199.25794 
L 541.518344 201.150968 
L 541.489901 203.084603 
L 541.822492 204.990534 
L 542.494515 206.801284 
L 543.477087 208.456536 
L 544.731353 209.898717 
L 546.20948 211.080872 
L 547.855035 211.967568 
L 549.604578 212.535064 
L 551.396493 212.769763 
L 553.165904 212.666896 
L 554.851441 212.234924 
L 556.396335 211.495893 
L 557.748805 210.484895 
L 558.866054 209.241789 
L 559.711316 207.813671 
L 560.25912 206.25329 
L 560.496733 204.617699 
L 560.423864 202.966958 
L 560.048827 201.357937 
L 559.388388 199.848181 
L 558.469612 198.488932 
L 557.329873 197.324193 
L 556.016441 196.390562 
L 554.577862 195.715371 
L 553.06673 195.319522 
L 551.537092 195.213072 
L 550.042337 195.393902 
L 548.634977 195.847873 
L 547.361798 196.553684 
L 546.266315 197.483099 
L 545.384458 198.600288 
L 544.742486 199.862683 
L 544.356932 201.221515 
L 544.235735 202.628279 
L 544.380273 204.031901 
L 544.781963 205.383214 
L 545.421762 206.636466 
L 546.270233 207.749363 
L 547.293321 208.686237 
L 548.452864 209.416456 
L 549.706085 209.917175 
L 551.007692 210.175551 
L 552.310186 210.188689 
L 553.568832 209.961322 
L 554.739032 209.504424 
L 555.780849 208.837067 
L 556.660736 207.986499 
L 557.351564 206.988087 
L 557.833647 205.879775 
L 558.092612 204.701979 
L 558.122154 203.497215 
L 557.925554 202.307686 
L 557.515668 201.175281 
L 556.911798 200.138284 
L 556.137656 199.231748 
L 555.222893 198.486076 
L 554.20182 197.924088 
L 553.113374 197.561021 
L 551.996813 197.404801 
L 550.892004 197.458323 
L 549.837953 197.717172 
L 548.8702 198.168688 
L 548.020817 198.791964 
L 547.317044 199.56051 
L 546.781085 200.44586 
L 546.42989 201.414989 
L 546.272333 202.432813 
L 546.309195 203.462224 
L 546.534436 204.467017 
L 546.93758 205.412278 
L 547.502226 206.265015 
L 548.206054 206.997316 
L 549.020832 207.586356 
L 549.914441 208.014861 
L 550.855183 208.270606 
L 551.80881 208.346405 
L 552.74203 208.242545 
L 553.62266 207.966852 
L 554.420475 207.533794 
L 555.109443 206.960675 
L 555.666377 206.269755 
L 556.07417 205.487042 
L 556.322016 204.642132 
L 556.405246 203.766139 
L 556.323376 202.890147 
L 556.08114 202.0455 
L 555.689562 201.260923 
L 555.165959 200.562505 
L 554.532849 199.973108 
L 553.813496 199.511055 
L 553.034671 199.191325 
L 552.224411 199.022729 
L 551.411754 199.007698 
L 550.62563 199.14275 
L 549.892661 199.420805 
L 549.238565 199.83027 
L 548.684812 200.354855 
L 548.078393 201.310481 
L 547.773451 202.394579 
L 547.787918 203.519161 
L 548.112733 204.595749 
L 548.71073 205.541219 
L 549.528188 206.28506 
L 550.496183 206.773375 
L 551.534099 206.976822 
L 552.558787 206.888064 
L 553.489367 206.519547 
L 554.256405 205.908267 
L 554.805258 205.111402 
L 555.097768 204.195303 
L 555.117239 203.23431 
L 554.872083 202.305397 
L 554.388543 201.480349 
L 553.709347 200.822121 
L 552.89396 200.376498 
L 552.010878 200.171181 
L 551.131071 200.217677 
L 550.32279 200.505846 
L 549.647222 201.003908 
L 549.153848 201.667789 
L 548.877168 202.44174 
L 548.831233 203.261575 
L 549.012987 204.0619 
L 549.403893 204.779767 
L 549.967055 205.361948 
L 550.651726 205.767357 
L 551.401778 205.968032 
L 552.157155 205.953287 
L 552.858327 205.732169 
L 553.451885 205.327391 
L 553.893369 204.774542 
L 554.153477 204.121752 
L 554.217781 203.423231 
L 554.084853 202.73512 
L 553.770372 202.110517 
L 553.306057 201.59649 
L 552.731689 201.230504 
L 552.094727 201.037813 
L 551.447123 201.027364 
L 550.839808 201.194809 
L 550.320005 201.523595 
L 549.925377 201.983023 
L 549.682541 202.53228 
L 549.607435 203.126402 
L 549.768892 203.90651 
L 550.193947 204.574772 
L 550.815884 205.042089 
L 551.541474 205.252557 
L 552.266284 205.18703 
L 552.8904 204.862618 
L 553.332317 204.336073 
L 553.536769 203.686616 
L 553.484734 203.007932 
L 553.193909 202.39493 
L 552.71121 201.930549 
L 552.111869 201.671899 
L 551.48278 201.647846 
L 550.911325 201.853686 
L 550.474026 202.250829 
L 550.227162 202.778649 
L 550.19638 203.359296 
L 550.378609 203.910399 
L 550.741775 204.357192 
L 551.22732 204.642584 
L 551.764614 204.731914 
L 552.277852 204.621072 
L 552.696867 204.33296 
L 552.966873 203.912705 
L 553.057044 203.424523 
L 553.057044 203.424523 
" clip-path="url(#p6e2d880865)" style="fill: none; stroke: #000000; stroke-width: 1.5; stroke-linecap: square"/>
   </g>
   <g id="patch_9">
    <path d="M 410.081676 359.517187 
L 410.081676 26.877187 
" style="fill: none; stroke: #000000; stroke-width: 0.8; stroke-linejoin: miter; stroke-linecap: square"/>
   </g>
   <g id="patch_10">
    <path d="M 714.445312 359.517187 
L 714.445312 26.877187 
" style="fill: none; stroke: #000000; stroke-width: 0.8; stroke-linejoin: miter; stroke-linecap: square"/>
   </g>
   <g id="patch_11">
    <path d="M 410.081676 359.517187 
L 714.445312 359.517187 
" style="fill: none; stroke: #000000; stroke-width: 0.8; stroke-linejoin: miter; stroke-linecap: square"/>
   </g>
   <g id="patch_12">
    <path d="M 410.081676 26.877187 
L 714.445312 26.877187 
" style="fill: none; stroke: #000000; stroke-width: 0.8; stroke-linejoin: miter; stroke-linecap: square"/>
   </g>
   <g id="text_37">
    <!-- (b) -->
    <g transform="translate(549.527088 20.877187) scale(0.18 -0.18)">
     <defs>
      <path id="DejaVuSans-62" d="M 3116 1747 
Q 3116 2381 2855 2742 
Q 2594 3103 2138 3103 
Q 1681 3103 1420 2742 
Q 1159 2381 1159 1747 
Q 1159 1113 1420 752 
Q 1681 391 2138 391 
Q 2594 391 2855 752 
Q 3116 1113 3116 1747 
z
M 1159 2969 
Q 1341 3281 1617 3432 
Q 1894 3584 2278 3584 
Q 2916 3584 3314 3078 
Q 3713 2572 3713 1747 
Q 3713 922 3314 415 
Q 2916 -91 2278 -91 
Q 1894 -91 1617 61 
Q 1341 213 1159 525 
L 1159 0 
L 581 0 
L 581 4863 
L 1159 4863 
L 1159 2969 
z
" transform="scale(0.015625)"/>
     </defs>
     <use xlink:href="#DejaVuSans-28"/>
     <use xlink:href="#DejaVuSans-62" x="39.013672"/>
     <use xlink:href="#DejaVuSans-29" x="102.490234"/>
    </g>
   </g>
  </g>
 </g>
 <defs>
  <clipPath id="p9382344dee">
   <rect x="44.845313" y="26.877187" width="304.363636" height="332.64"/>
  </clipPath>
  <clipPath id="p6e2d880865">
   <rect x="410.081676" y="26.877187" width="304.363636" height="332.64"/>
  </clipPath>
 </defs>
</svg>
