<?xml version="1.0" encoding="utf-8" standalone="no"?>
<!DOCTYPE svg PUBLIC "-//W3C//DTD SVG 1.1//EN"
  "http://www.w3.org/Graphics/SVG/1.1/DTD/svg11.dtd">
<svg xmlns:xlink="http://www.w3.org/1999/xlink" width="406.940312pt" height="310.86825pt" viewBox="0 0 406.940312 310.86825" xmlns="http://www.w3.org/2000/svg" version="1.1">
 <metadata>
  <rdf:RDF xmlns:dc="http://purl.org/dc/elements/1.1/" xmlns:cc="http://creativecommons.org/ns#" xmlns:rdf="http://www.w3.org/1999/02/22-rdf-syntax-ns#">
   <cc:Work>
    <dc:type rdf:resource="http://purl.org/dc/dcmitype/StillImage"/>
    <dc:date>2024-09-29T16:45:31.885146</dc:date>
    <dc:format>image/svg+xml</dc:format>
    <dc:creator>
     <cc:Agent>
      <dc:title>Matplotlib v3.8.4, https://matplotlib.org/</dc:title>
     </cc:Agent>
    </dc:creator>
   </cc:Work>
  </rdf:RDF>
 </metadata>
 <defs>
  <style type="text/css">*{stroke-linejoin: round; stroke-linecap: butt}</style>
 </defs>
 <g id="figure_1">
  <g id="patch_1">
   <path d="M 0 310.86825 
L 406.940312 310.86825 
L 406.940312 0 
L 0 0 
z
" style="fill: #ffffff"/>
  </g>
  <g id="axes_1">
   <g id="patch_2">
    <path d="M 42.620313 273.312 
L 399.740313 273.312 
L 399.740313 7.2 
L 42.620313 7.2 
z
" style="fill: #ffffff"/>
   </g>
   <g id="matplotlib.axis_1">
    <g id="xtick_1">
     <g id="line2d_1">
      <defs>
       <path id="m3a21cd30e2" d="M 0 0 
L 0 3.5 
" style="stroke: #000000; stroke-width: 0.8"/>
      </defs>
      <g>
       <use xlink:href="#m3a21cd30e2" x="58.85304" y="273.312" style="stroke: #000000; stroke-width: 0.8"/>
      </g>
     </g>
     <g id="text_1">
      <!-- 0 -->
      <g transform="translate(55.67179 287.910437) scale(0.1 -0.1)">
       <defs>
        <path id="DejaVuSans-30" d="M 2034 4250 
Q 1547 4250 1301 3770 
Q 1056 3291 1056 2328 
Q 1056 1369 1301 889 
Q 1547 409 2034 409 
Q 2525 409 2770 889 
Q 3016 1369 3016 2328 
Q 3016 3291 2770 3770 
Q 2525 4250 2034 4250 
z
M 2034 4750 
Q 2819 4750 3233 4129 
Q 3647 3509 3647 2328 
Q 3647 1150 3233 529 
Q 2819 -91 2034 -91 
Q 1250 -91 836 529 
Q 422 1150 422 2328 
Q 422 3509 836 4129 
Q 1250 4750 2034 4750 
z
" transform="scale(0.015625)"/>
       </defs>
       <use xlink:href="#DejaVuSans-30"/>
      </g>
     </g>
    </g>
    <g id="xtick_2">
     <g id="line2d_2">
      <g>
       <use xlink:href="#m3a21cd30e2" x="127.746874" y="273.312" style="stroke: #000000; stroke-width: 0.8"/>
      </g>
     </g>
     <g id="text_2">
      <!-- 20 -->
      <g transform="translate(121.384374 287.910437) scale(0.1 -0.1)">
       <defs>
        <path id="DejaVuSans-32" d="M 1228 531 
L 3431 531 
L 3431 0 
L 469 0 
L 469 531 
Q 828 903 1448 1529 
Q 2069 2156 2228 2338 
Q 2531 2678 2651 2914 
Q 2772 3150 2772 3378 
Q 2772 3750 2511 3984 
Q 2250 4219 1831 4219 
Q 1534 4219 1204 4116 
Q 875 4013 500 3803 
L 500 4441 
Q 881 4594 1212 4672 
Q 1544 4750 1819 4750 
Q 2544 4750 2975 4387 
Q 3406 4025 3406 3419 
Q 3406 3131 3298 2873 
Q 3191 2616 2906 2266 
Q 2828 2175 2409 1742 
Q 1991 1309 1228 531 
z
" transform="scale(0.015625)"/>
       </defs>
       <use xlink:href="#DejaVuSans-32"/>
       <use xlink:href="#DejaVuSans-30" x="63.623047"/>
      </g>
     </g>
    </g>
    <g id="xtick_3">
     <g id="line2d_3">
      <g>
       <use xlink:href="#m3a21cd30e2" x="196.640708" y="273.312" style="stroke: #000000; stroke-width: 0.8"/>
      </g>
     </g>
     <g id="text_3">
      <!-- 40 -->
      <g transform="translate(190.278208 287.910437) scale(0.1 -0.1)">
       <defs>
        <path id="DejaVuSans-34" d="M 2419 4116 
L 825 1625 
L 2419 1625 
L 2419 4116 
z
M 2253 4666 
L 3047 4666 
L 3047 1625 
L 3713 1625 
L 3713 1100 
L 3047 1100 
L 3047 0 
L 2419 0 
L 2419 1100 
L 313 1100 
L 313 1709 
L 2253 4666 
z
" transform="scale(0.015625)"/>
       </defs>
       <use xlink:href="#DejaVuSans-34"/>
       <use xlink:href="#DejaVuSans-30" x="63.623047"/>
      </g>
     </g>
    </g>
    <g id="xtick_4">
     <g id="line2d_4">
      <g>
       <use xlink:href="#m3a21cd30e2" x="265.534543" y="273.312" style="stroke: #000000; stroke-width: 0.8"/>
      </g>
     </g>
     <g id="text_4">
      <!-- 60 -->
      <g transform="translate(259.172043 287.910437) scale(0.1 -0.1)">
       <defs>
        <path id="DejaVuSans-36" d="M 2113 2584 
Q 1688 2584 1439 2293 
Q 1191 2003 1191 1497 
Q 1191 994 1439 701 
Q 1688 409 2113 409 
Q 2538 409 2786 701 
Q 3034 994 3034 1497 
Q 3034 2003 2786 2293 
Q 2538 2584 2113 2584 
z
M 3366 4563 
L 3366 3988 
Q 3128 4100 2886 4159 
Q 2644 4219 2406 4219 
Q 1781 4219 1451 3797 
Q 1122 3375 1075 2522 
Q 1259 2794 1537 2939 
Q 1816 3084 2150 3084 
Q 2853 3084 3261 2657 
Q 3669 2231 3669 1497 
Q 3669 778 3244 343 
Q 2819 -91 2113 -91 
Q 1303 -91 875 529 
Q 447 1150 447 2328 
Q 447 3434 972 4092 
Q 1497 4750 2381 4750 
Q 2619 4750 2861 4703 
Q 3103 4656 3366 4563 
z
" transform="scale(0.015625)"/>
       </defs>
       <use xlink:href="#DejaVuSans-36"/>
       <use xlink:href="#DejaVuSans-30" x="63.623047"/>
      </g>
     </g>
    </g>
    <g id="xtick_5">
     <g id="line2d_5">
      <g>
       <use xlink:href="#m3a21cd30e2" x="334.428377" y="273.312" style="stroke: #000000; stroke-width: 0.8"/>
      </g>
     </g>
     <g id="text_5">
      <!-- 80 -->
      <g transform="translate(328.065877 287.910437) scale(0.1 -0.1)">
       <defs>
        <path id="DejaVuSans-38" d="M 2034 2216 
Q 1584 2216 1326 1975 
Q 1069 1734 1069 1313 
Q 1069 891 1326 650 
Q 1584 409 2034 409 
Q 2484 409 2743 651 
Q 3003 894 3003 1313 
Q 3003 1734 2745 1975 
Q 2488 2216 2034 2216 
z
M 1403 2484 
Q 997 2584 770 2862 
Q 544 3141 544 3541 
Q 544 4100 942 4425 
Q 1341 4750 2034 4750 
Q 2731 4750 3128 4425 
Q 3525 4100 3525 3541 
Q 3525 3141 3298 2862 
Q 3072 2584 2669 2484 
Q 3125 2378 3379 2068 
Q 3634 1759 3634 1313 
Q 3634 634 3220 271 
Q 2806 -91 2034 -91 
Q 1263 -91 848 271 
Q 434 634 434 1313 
Q 434 1759 690 2068 
Q 947 2378 1403 2484 
z
M 1172 3481 
Q 1172 3119 1398 2916 
Q 1625 2713 2034 2713 
Q 2441 2713 2670 2916 
Q 2900 3119 2900 3481 
Q 2900 3844 2670 4047 
Q 2441 4250 2034 4250 
Q 1625 4250 1398 4047 
Q 1172 3844 1172 3481 
z
" transform="scale(0.015625)"/>
       </defs>
       <use xlink:href="#DejaVuSans-38"/>
       <use xlink:href="#DejaVuSans-30" x="63.623047"/>
      </g>
     </g>
    </g>
    <g id="text_6">
     <!-- Time (t) -->
     <g transform="translate(201.495938 301.588562) scale(0.1 -0.1)">
      <defs>
       <path id="DejaVuSans-54" d="M -19 4666 
L 3928 4666 
L 3928 4134 
L 2272 4134 
L 2272 0 
L 1638 0 
L 1638 4134 
L -19 4134 
L -19 4666 
z
" transform="scale(0.015625)"/>
       <path id="DejaVuSans-69" d="M 603 3500 
L 1178 3500 
L 1178 0 
L 603 0 
L 603 3500 
z
M 603 4863 
L 1178 4863 
L 1178 4134 
L 603 4134 
L 603 4863 
z
" transform="scale(0.015625)"/>
       <path id="DejaVuSans-6d" d="M 3328 2828 
Q 3544 3216 3844 3400 
Q 4144 3584 4550 3584 
Q 5097 3584 5394 3201 
Q 5691 2819 5691 2113 
L 5691 0 
L 5113 0 
L 5113 2094 
Q 5113 2597 4934 2840 
Q 4756 3084 4391 3084 
Q 3944 3084 3684 2787 
Q 3425 2491 3425 1978 
L 3425 0 
L 2847 0 
L 2847 2094 
Q 2847 2600 2669 2842 
Q 2491 3084 2119 3084 
Q 1678 3084 1418 2786 
Q 1159 2488 1159 1978 
L 1159 0 
L 581 0 
L 581 3500 
L 1159 3500 
L 1159 2956 
Q 1356 3278 1631 3431 
Q 1906 3584 2284 3584 
Q 2666 3584 2933 3390 
Q 3200 3197 3328 2828 
z
" transform="scale(0.015625)"/>
       <path id="DejaVuSans-65" d="M 3597 1894 
L 3597 1613 
L 953 1613 
Q 991 1019 1311 708 
Q 1631 397 2203 397 
Q 2534 397 2845 478 
Q 3156 559 3463 722 
L 3463 178 
Q 3153 47 2828 -22 
Q 2503 -91 2169 -91 
Q 1331 -91 842 396 
Q 353 884 353 1716 
Q 353 2575 817 3079 
Q 1281 3584 2069 3584 
Q 2775 3584 3186 3129 
Q 3597 2675 3597 1894 
z
M 3022 2063 
Q 3016 2534 2758 2815 
Q 2500 3097 2075 3097 
Q 1594 3097 1305 2825 
Q 1016 2553 972 2059 
L 3022 2063 
z
" transform="scale(0.015625)"/>
       <path id="DejaVuSans-20" transform="scale(0.015625)"/>
       <path id="DejaVuSans-28" d="M 1984 4856 
Q 1566 4138 1362 3434 
Q 1159 2731 1159 2009 
Q 1159 1288 1364 580 
Q 1569 -128 1984 -844 
L 1484 -844 
Q 1016 -109 783 600 
Q 550 1309 550 2009 
Q 550 2706 781 3412 
Q 1013 4119 1484 4856 
L 1984 4856 
z
" transform="scale(0.015625)"/>
       <path id="DejaVuSans-74" d="M 1172 4494 
L 1172 3500 
L 2356 3500 
L 2356 3053 
L 1172 3053 
L 1172 1153 
Q 1172 725 1289 603 
Q 1406 481 1766 481 
L 2356 481 
L 2356 0 
L 1766 0 
Q 1100 0 847 248 
Q 594 497 594 1153 
L 594 3053 
L 172 3053 
L 172 3500 
L 594 3500 
L 594 4494 
L 1172 4494 
z
" transform="scale(0.015625)"/>
       <path id="DejaVuSans-29" d="M 513 4856 
L 1013 4856 
Q 1481 4119 1714 3412 
Q 1947 2706 1947 2009 
Q 1947 1309 1714 600 
Q 1481 -109 1013 -844 
L 513 -844 
Q 928 -128 1133 580 
Q 1338 1288 1338 2009 
Q 1338 2731 1133 3434 
Q 928 4138 513 4856 
z
" transform="scale(0.015625)"/>
      </defs>
      <use xlink:href="#DejaVuSans-54"/>
      <use xlink:href="#DejaVuSans-69" x="57.958984"/>
      <use xlink:href="#DejaVuSans-6d" x="85.742188"/>
      <use xlink:href="#DejaVuSans-65" x="183.154297"/>
      <use xlink:href="#DejaVuSans-20" x="244.677734"/>
      <use xlink:href="#DejaVuSans-28" x="276.464844"/>
      <use xlink:href="#DejaVuSans-74" x="315.478516"/>
      <use xlink:href="#DejaVuSans-29" x="354.6875"/>
     </g>
    </g>
   </g>
   <g id="matplotlib.axis_2">
    <g id="ytick_1">
     <g id="line2d_6">
      <defs>
       <path id="m6da5e5946d" d="M 0 0 
L -3.5 0 
" style="stroke: #000000; stroke-width: 0.8"/>
      </defs>
      <g>
       <use xlink:href="#m6da5e5946d" x="42.620313" y="266.750542" style="stroke: #000000; stroke-width: 0.8"/>
      </g>
     </g>
     <g id="text_7">
      <!-- −3 -->
      <g transform="translate(20.878125 270.549761) scale(0.1 -0.1)">
       <defs>
        <path id="DejaVuSans-2212" d="M 678 2272 
L 4684 2272 
L 4684 1741 
L 678 1741 
L 678 2272 
z
" transform="scale(0.015625)"/>
        <path id="DejaVuSans-33" d="M 2597 2516 
Q 3050 2419 3304 2112 
Q 3559 1806 3559 1356 
Q 3559 666 3084 287 
Q 2609 -91 1734 -91 
Q 1441 -91 1130 -33 
Q 819 25 488 141 
L 488 750 
Q 750 597 1062 519 
Q 1375 441 1716 441 
Q 2309 441 2620 675 
Q 2931 909 2931 1356 
Q 2931 1769 2642 2001 
Q 2353 2234 1838 2234 
L 1294 2234 
L 1294 2753 
L 1863 2753 
Q 2328 2753 2575 2939 
Q 2822 3125 2822 3475 
Q 2822 3834 2567 4026 
Q 2313 4219 1838 4219 
Q 1578 4219 1281 4162 
Q 984 4106 628 3988 
L 628 4550 
Q 988 4650 1302 4700 
Q 1616 4750 1894 4750 
Q 2613 4750 3031 4423 
Q 3450 4097 3450 3541 
Q 3450 3153 3228 2886 
Q 3006 2619 2597 2516 
z
" transform="scale(0.015625)"/>
       </defs>
       <use xlink:href="#DejaVuSans-2212"/>
       <use xlink:href="#DejaVuSans-33" x="83.789062"/>
      </g>
     </g>
    </g>
    <g id="ytick_2">
     <g id="line2d_7">
      <g>
       <use xlink:href="#m6da5e5946d" x="42.620313" y="224.849824" style="stroke: #000000; stroke-width: 0.8"/>
      </g>
     </g>
     <g id="text_8">
      <!-- −2 -->
      <g transform="translate(20.878125 228.649043) scale(0.1 -0.1)">
       <use xlink:href="#DejaVuSans-2212"/>
       <use xlink:href="#DejaVuSans-32" x="83.789062"/>
      </g>
     </g>
    </g>
    <g id="ytick_3">
     <g id="line2d_8">
      <g>
       <use xlink:href="#m6da5e5946d" x="42.620313" y="182.949106" style="stroke: #000000; stroke-width: 0.8"/>
      </g>
     </g>
     <g id="text_9">
      <!-- −1 -->
      <g transform="translate(20.878125 186.748325) scale(0.1 -0.1)">
       <defs>
        <path id="DejaVuSans-31" d="M 794 531 
L 1825 531 
L 1825 4091 
L 703 3866 
L 703 4441 
L 1819 4666 
L 2450 4666 
L 2450 531 
L 3481 531 
L 3481 0 
L 794 0 
L 794 531 
z
" transform="scale(0.015625)"/>
       </defs>
       <use xlink:href="#DejaVuSans-2212"/>
       <use xlink:href="#DejaVuSans-31" x="83.789062"/>
      </g>
     </g>
    </g>
    <g id="ytick_4">
     <g id="line2d_9">
      <g>
       <use xlink:href="#m6da5e5946d" x="42.620313" y="141.048389" style="stroke: #000000; stroke-width: 0.8"/>
      </g>
     </g>
     <g id="text_10">
      <!-- 0 -->
      <g transform="translate(29.257813 144.847607) scale(0.1 -0.1)">
       <use xlink:href="#DejaVuSans-30"/>
      </g>
     </g>
    </g>
    <g id="ytick_5">
     <g id="line2d_10">
      <g>
       <use xlink:href="#m6da5e5946d" x="42.620313" y="99.147671" style="stroke: #000000; stroke-width: 0.8"/>
      </g>
     </g>
     <g id="text_11">
      <!-- 1 -->
      <g transform="translate(29.257813 102.94689) scale(0.1 -0.1)">
       <use xlink:href="#DejaVuSans-31"/>
      </g>
     </g>
    </g>
    <g id="ytick_6">
     <g id="line2d_11">
      <g>
       <use xlink:href="#m6da5e5946d" x="42.620313" y="57.246953" style="stroke: #000000; stroke-width: 0.8"/>
      </g>
     </g>
     <g id="text_12">
      <!-- 2 -->
      <g transform="translate(29.257813 61.046172) scale(0.1 -0.1)">
       <use xlink:href="#DejaVuSans-32"/>
      </g>
     </g>
    </g>
    <g id="ytick_7">
     <g id="line2d_12">
      <g>
       <use xlink:href="#m6da5e5946d" x="42.620313" y="15.346235" style="stroke: #000000; stroke-width: 0.8"/>
      </g>
     </g>
     <g id="text_13">
      <!-- 3 -->
      <g transform="translate(29.257813 19.145454) scale(0.1 -0.1)">
       <use xlink:href="#DejaVuSans-33"/>
      </g>
     </g>
    </g>
    <g id="text_14">
     <!-- Position (x) -->
     <g transform="translate(14.798438 168.170062) rotate(-90) scale(0.1 -0.1)">
      <defs>
       <path id="DejaVuSans-50" d="M 1259 4147 
L 1259 2394 
L 2053 2394 
Q 2494 2394 2734 2622 
Q 2975 2850 2975 3272 
Q 2975 3691 2734 3919 
Q 2494 4147 2053 4147 
L 1259 4147 
z
M 628 4666 
L 2053 4666 
Q 2838 4666 3239 4311 
Q 3641 3956 3641 3272 
Q 3641 2581 3239 2228 
Q 2838 1875 2053 1875 
L 1259 1875 
L 1259 0 
L 628 0 
L 628 4666 
z
" transform="scale(0.015625)"/>
       <path id="DejaVuSans-6f" d="M 1959 3097 
Q 1497 3097 1228 2736 
Q 959 2375 959 1747 
Q 959 1119 1226 758 
Q 1494 397 1959 397 
Q 2419 397 2687 759 
Q 2956 1122 2956 1747 
Q 2956 2369 2687 2733 
Q 2419 3097 1959 3097 
z
M 1959 3584 
Q 2709 3584 3137 3096 
Q 3566 2609 3566 1747 
Q 3566 888 3137 398 
Q 2709 -91 1959 -91 
Q 1206 -91 779 398 
Q 353 888 353 1747 
Q 353 2609 779 3096 
Q 1206 3584 1959 3584 
z
" transform="scale(0.015625)"/>
       <path id="DejaVuSans-73" d="M 2834 3397 
L 2834 2853 
Q 2591 2978 2328 3040 
Q 2066 3103 1784 3103 
Q 1356 3103 1142 2972 
Q 928 2841 928 2578 
Q 928 2378 1081 2264 
Q 1234 2150 1697 2047 
L 1894 2003 
Q 2506 1872 2764 1633 
Q 3022 1394 3022 966 
Q 3022 478 2636 193 
Q 2250 -91 1575 -91 
Q 1294 -91 989 -36 
Q 684 19 347 128 
L 347 722 
Q 666 556 975 473 
Q 1284 391 1588 391 
Q 1994 391 2212 530 
Q 2431 669 2431 922 
Q 2431 1156 2273 1281 
Q 2116 1406 1581 1522 
L 1381 1569 
Q 847 1681 609 1914 
Q 372 2147 372 2553 
Q 372 3047 722 3315 
Q 1072 3584 1716 3584 
Q 2034 3584 2315 3537 
Q 2597 3491 2834 3397 
z
" transform="scale(0.015625)"/>
       <path id="DejaVuSans-6e" d="M 3513 2113 
L 3513 0 
L 2938 0 
L 2938 2094 
Q 2938 2591 2744 2837 
Q 2550 3084 2163 3084 
Q 1697 3084 1428 2787 
Q 1159 2491 1159 1978 
L 1159 0 
L 581 0 
L 581 3500 
L 1159 3500 
L 1159 2956 
Q 1366 3272 1645 3428 
Q 1925 3584 2291 3584 
Q 2894 3584 3203 3211 
Q 3513 2838 3513 2113 
z
" transform="scale(0.015625)"/>
       <path id="DejaVuSans-78" d="M 3513 3500 
L 2247 1797 
L 3578 0 
L 2900 0 
L 1881 1375 
L 863 0 
L 184 0 
L 1544 1831 
L 300 3500 
L 978 3500 
L 1906 2253 
L 2834 3500 
L 3513 3500 
z
" transform="scale(0.015625)"/>
      </defs>
      <use xlink:href="#DejaVuSans-50"/>
      <use xlink:href="#DejaVuSans-6f" x="56.677734"/>
      <use xlink:href="#DejaVuSans-73" x="117.859375"/>
      <use xlink:href="#DejaVuSans-69" x="169.958984"/>
      <use xlink:href="#DejaVuSans-74" x="197.742188"/>
      <use xlink:href="#DejaVuSans-69" x="236.951172"/>
      <use xlink:href="#DejaVuSans-6f" x="264.734375"/>
      <use xlink:href="#DejaVuSans-6e" x="325.916016"/>
      <use xlink:href="#DejaVuSans-20" x="389.294922"/>
      <use xlink:href="#DejaVuSans-28" x="421.082031"/>
      <use xlink:href="#DejaVuSans-78" x="460.095703"/>
      <use xlink:href="#DejaVuSans-29" x="519.275391"/>
     </g>
    </g>
   </g>
   <g id="line2d_13">
    <path d="M 58.85304 141.048389 
L 63.073549 91.427313 
L 63.722858 86.372189 
L 64.047513 84.693196 
L 64.372167 83.699308 
L 64.696822 83.48264 
L 65.021476 84.11518 
L 65.346131 85.648493 
L 65.670785 88.113718 
L 66.320094 95.862332 
L 66.969403 107.186605 
L 67.943367 129.50459 
L 70.215949 186.205633 
L 70.865258 197.405611 
L 71.514567 204.282373 
L 71.839222 205.895697 
L 72.163876 206.238471 
L 72.488531 205.30875 
L 72.813185 203.137495 
L 73.462494 195.358757 
L 74.111803 183.765857 
L 75.410422 154.125052 
L 76.70904 125.312974 
L 77.358349 114.400831 
L 78.007658 106.910269 
L 78.332313 104.549612 
L 78.656967 103.111358 
L 78.981622 102.565681 
L 79.306276 102.853576 
L 79.630931 103.899223 
L 80.28024 107.880874 
L 81.254203 116.783959 
L 82.552822 129.052565 
L 83.202131 133.665633 
L 83.85144 136.753153 
L 84.176094 137.720295 
L 84.500749 138.337218 
L 84.825403 138.652355 
L 85.150058 138.73237 
L 85.799367 138.502495 
L 86.448676 138.303598 
L 86.773331 138.421573 
L 87.097985 138.782876 
L 87.42264 139.447811 
L 87.747294 140.460378 
L 88.396603 143.617482 
L 89.045913 148.240698 
L 90.019876 157.138918 
L 91.318494 168.955671 
L 91.967803 172.910922 
L 92.292458 174.03825 
L 92.617113 174.492583 
L 92.941767 174.210537 
L 93.266422 173.153775 
L 93.591076 171.30901 
L 94.240385 165.327599 
L 94.889694 156.643645 
L 96.188312 134.399532 
L 97.486931 113.072519 
L 98.13624 105.644389 
L 98.460894 103.134104 
L 98.785549 101.520346 
L 99.110203 100.845796 
L 99.434858 101.124602 
L 99.759512 102.342408 
L 100.084167 104.460101 
L 100.733476 111.114755 
L 101.70744 125.476122 
L 103.330713 151.531841 
L 103.980022 159.392694 
L 104.629331 164.526578 
L 104.953985 165.943885 
L 105.27864 166.58025 
L 105.603294 166.455777 
L 105.927949 165.613378 
L 106.252603 164.122396 
L 106.901913 159.545152 
L 108.200531 147.190563 
L 109.174494 138.960059 
L 109.823803 135.449323 
L 110.148458 134.463378 
L 110.473113 134.01949 
L 110.797767 134.111207 
L 111.122422 134.709146 
L 111.447076 135.761545 
L 112.096385 138.941437 
L 114.044313 150.004017 
L 114.368967 150.995255 
L 114.693622 151.521866 
L 115.018276 151.534193 
L 115.342931 151.004226 
L 115.667585 149.925322 
L 116.316894 146.204592 
L 116.966203 140.756886 
L 119.238785 119.481653 
L 119.888094 116.500819 
L 120.212749 115.992018 
L 120.537403 116.197696 
L 120.862058 117.133064 
L 121.186712 118.789475 
L 121.836022 124.118499 
L 122.485331 131.651262 
L 124.757913 161.861837 
L 125.407222 167.27707 
L 125.731876 168.922406 
L 126.056531 169.7869 
L 126.381185 169.844266 
L 126.70584 169.09445 
L 127.030494 167.563847 
L 127.679803 162.397606 
L 128.329113 155.026451 
L 130.601694 126.482066 
L 131.251003 121.706967 
L 131.575658 120.335496 
L 131.900313 119.683875 
L 132.224967 119.754363 
L 132.549622 120.526082 
L 132.874276 121.950744 
L 133.523585 126.474065 
L 134.497549 135.929711 
L 135.796167 148.384997 
L 136.445476 152.503204 
L 136.770131 153.744754 
L 137.094785 154.382215 
L 137.41944 154.401002 
L 137.744094 153.810724 
L 138.068749 152.642824 
L 138.718058 148.812608 
L 139.692022 140.655479 
L 140.665985 132.287524 
L 141.315294 128.13107 
L 141.639949 126.76118 
L 141.964603 125.952543 
L 142.289258 125.749547 
L 142.613912 126.170203 
L 142.938567 127.210961 
L 143.587876 131.024906 
L 144.237185 136.712542 
L 146.509767 159.009807 
L 147.159076 162.238867 
L 147.483731 162.882 
L 147.808385 162.827643 
L 148.13304 162.06663 
L 148.457694 160.612798 
L 149.107003 155.811718 
L 149.756313 148.989376 
L 152.028894 122.776535 
L 152.678203 118.670191 
L 153.002858 117.641243 
L 153.327513 117.348642 
L 153.652167 117.800571 
L 153.976822 118.979204 
L 154.626131 123.323334 
L 155.27544 129.78208 
L 157.548022 155.437519 
L 158.197331 159.602546 
L 158.521985 160.713684 
L 158.84664 161.128451 
L 159.171294 160.841868 
L 159.495949 159.874106 
L 159.820603 158.266884 
L 160.469912 153.408474 
L 161.443876 143.531541 
L 162.742494 130.642061 
L 163.391803 126.405397 
L 163.716458 125.145132 
L 164.041112 124.520006 
L 164.365767 124.548103 
L 164.690422 125.225168 
L 165.015076 126.522248 
L 165.664385 130.748669 
L 166.638349 139.859309 
L 167.936967 152.298109 
L 168.586276 156.54073 
L 168.910931 157.843445 
L 169.235585 158.52278 
L 169.56024 158.54777 
L 169.884894 157.912187 
L 170.209549 156.634547 
L 170.858858 152.341975 
L 171.832822 142.792746 
L 173.13144 129.00115 
L 173.780749 123.866467 
L 174.105403 122.101901 
L 174.430058 120.964923 
L 174.754713 120.501399 
L 175.079367 120.73334 
L 175.404022 121.656889 
L 175.728676 123.245719 
L 176.377985 128.201109 
L 177.351949 138.712911 
L 178.650567 153.415814 
L 179.299876 158.826396 
L 179.624531 160.683998 
L 179.949185 161.884401 
L 180.27384 162.388382 
L 180.598494 162.180707 
L 180.923149 161.268865 
L 181.247803 159.685784 
L 181.897113 154.753095 
L 182.871076 144.32571 
L 184.169694 129.913945 
L 184.819003 124.707353 
L 185.143658 122.9493 
L 185.468312 121.838908 
L 185.792967 121.412647 
L 186.117622 121.68167 
L 186.442276 122.631819 
L 186.766931 124.223617 
L 187.41624 129.072926 
L 188.390203 139.050419 
L 189.688822 152.363802 
L 190.338131 156.866968 
L 190.662785 158.262769 
L 190.98744 159.017474 
L 191.312094 159.103656 
L 191.636749 158.52052 
L 191.961403 157.290876 
L 192.610713 153.090478 
L 193.584676 143.718364 
L 194.883294 130.360609 
L 195.532603 125.476217 
L 195.857258 123.833525 
L 196.181912 122.813338 
L 196.506567 122.453572 
L 196.831222 122.768347 
L 197.155876 123.748915 
L 197.480531 125.363094 
L 198.12984 130.244382 
L 199.103803 140.328678 
L 200.402422 153.887116 
L 201.051731 158.551396 
L 201.376385 160.022027 
L 201.70104 160.839657 
L 202.025694 160.971525 
L 202.350349 160.409967 
L 202.675003 159.17248 
L 203.324312 154.861745 
L 203.973622 148.627647 
L 205.921549 127.532024 
L 206.570858 122.958177 
L 206.895512 121.572244 
L 207.220167 120.856055 
L 207.544822 120.835158 
L 207.869476 121.510056 
L 208.194131 122.85548 
L 208.84344 127.351247 
L 209.817403 137.297744 
L 211.116022 151.543795 
L 211.765331 156.872957 
L 212.41464 159.953456 
L 212.739294 160.504182 
L 213.063949 160.365106 
L 213.388603 159.544328 
L 213.713258 158.07111 
L 214.362567 153.412102 
L 215.336531 143.50186 
L 216.635149 129.85869 
L 217.284458 125.03269 
L 217.609113 123.454032 
L 217.933767 122.513061 
L 218.258422 122.243309 
L 218.583076 122.654836 
L 218.907731 123.732946 
L 219.55704 127.706892 
L 220.206349 133.596576 
L 222.154276 153.749965 
L 222.803585 158.098257 
L 223.12824 159.392327 
L 223.452894 160.031915 
L 223.777549 159.993524 
L 224.102203 159.27601 
L 224.426858 157.905286 
L 225.076167 153.413615 
L 226.050131 143.594891 
L 227.348749 129.708354 
L 227.998058 124.618095 
L 228.322712 122.889369 
L 228.647367 121.795983 
L 228.972022 121.378186 
L 229.296676 121.651225 
L 229.621331 122.605353 
L 229.945985 124.207358 
L 230.595294 129.112278 
L 231.569258 139.322427 
L 232.867876 153.22512 
L 233.517185 158.094407 
L 233.84184 159.675565 
L 234.166494 160.606327 
L 234.491149 160.852486 
L 234.815803 160.407086 
L 235.140458 159.285394 
L 235.789767 155.189178 
L 236.439076 149.140239 
L 238.711658 125.849446 
L 239.360967 122.455236 
L 239.685622 121.724826 
L 240.010276 121.678603 
L 240.334931 122.318413 
L 240.659585 123.619343 
L 241.308894 127.996767 
L 242.282858 137.717887 
L 243.581476 151.618145 
L 244.230785 156.772158 
L 244.55544 158.545536 
L 244.880094 159.691461 
L 245.204749 160.168616 
L 245.529403 159.96068 
L 245.854058 159.076336 
L 246.178712 157.548239 
L 246.828022 152.798123 
L 247.801985 142.826099 
L 249.100603 129.206335 
L 249.749912 124.448823 
L 250.074567 122.914198 
L 250.399222 122.022698 
L 250.723876 121.808347 
L 251.048531 122.27784 
L 251.373185 123.415645 
L 252.022494 127.520041 
L 252.671803 133.546429 
L 254.619731 154.065901 
L 255.26904 158.505977 
L 255.593694 159.837252 
L 255.918349 160.506922 
L 256.243003 160.491808 
L 256.567658 159.790944 
L 256.892313 158.42973 
L 257.541622 153.938373 
L 258.515585 144.070873 
L 259.814203 130.041987 
L 260.463512 124.858997 
L 260.788167 123.080237 
L 261.112822 121.934607 
L 261.437476 121.463644 
L 261.762131 121.683722 
L 262.086785 122.586066 
L 262.41144 124.137125 
L 263.060749 128.948044 
L 264.034713 139.035782 
L 265.333331 152.840026 
L 265.98264 157.690878 
L 266.307294 159.269567 
L 266.631949 160.203613 
L 266.956603 160.458101 
L 267.281258 160.025786 
L 267.605912 158.922127 
L 268.255222 154.875226 
L 268.904531 148.888473 
L 270.852458 128.377327 
L 271.501767 123.904518 
L 271.826422 122.551284 
L 272.151076 121.856659 
L 272.475731 121.844046 
L 272.800385 122.514453 
L 273.12504 123.843558 
L 273.774349 128.26527 
L 274.748312 138.023947 
L 276.046931 151.920765 
L 276.69624 157.049073 
L 277.020894 158.804582 
L 277.345549 159.930514 
L 277.670203 160.385246 
L 277.994858 160.152302 
L 278.319513 159.240358 
L 278.644167 157.683176 
L 279.293476 152.870536 
L 280.26744 142.807752 
L 281.566058 129.076273 
L 282.215367 124.273696 
L 282.540022 122.721606 
L 282.864676 121.814929 
L 283.189331 121.588135 
L 283.513985 122.048332 
L 283.83864 123.17952 
L 284.487949 127.279123 
L 285.137258 133.314139 
L 287.085185 153.920769 
L 287.734494 158.405091 
L 288.059149 159.759916 
L 288.383803 160.453154 
L 288.708458 160.461568 
L 289.033113 159.78463 
L 289.357767 158.446167 
L 290.007076 153.999895 
L 290.98104 144.19117 
L 292.279658 130.211605 
L 292.928967 125.041213 
L 293.253622 123.265418 
L 293.578276 122.119426 
L 293.902931 121.645386 
L 294.227585 121.860258 
L 294.55224 122.755811 
L 294.876894 124.298614 
L 295.526203 129.08737 
L 296.500167 139.127927 
L 297.798785 152.860195 
L 298.448094 157.675931 
L 298.772749 159.236593 
L 299.097403 160.153497 
L 299.422058 160.392189 
L 299.746713 159.944974 
L 300.071367 158.828011 
L 300.720676 154.759863 
L 301.369985 148.757441 
L 303.317913 128.242546 
L 303.967222 123.781683 
L 304.291876 122.436506 
L 304.616531 121.751711 
L 304.941185 121.750413 
L 305.26584 122.432641 
L 305.590494 123.775159 
L 306.239803 128.224035 
L 307.213767 138.024119 
L 308.512385 151.973981 
L 309.161694 157.122546 
L 309.486349 158.886376 
L 309.811003 160.020241 
L 310.135658 160.482106 
L 310.460312 160.254919 
L 310.784967 159.346825 
L 311.109622 157.791158 
L 311.758931 152.97819 
L 312.732894 142.907239 
L 314.031513 129.147784 
L 314.680822 124.324509 
L 315.005476 122.762697 
L 315.330131 121.845957 
L 315.654785 121.608328 
L 315.97944 122.058012 
L 316.304094 123.178413 
L 316.953403 127.255853 
L 317.602713 133.272021 
L 319.55064 153.841283 
L 320.199949 158.32154 
L 320.524603 159.676338 
L 320.849258 160.370096 
L 321.173913 160.379592 
L 321.498567 159.705223 
L 321.823222 158.369534 
L 322.472531 153.932369 
L 323.446494 144.144457 
L 324.745113 130.195837 
L 325.394422 125.043591 
L 325.719076 123.276406 
L 326.043731 122.138313 
L 326.368385 121.671132 
L 326.69304 121.892262 
L 327.017694 122.793957 
L 327.342349 124.343323 
L 327.991658 129.14263 
L 328.965622 139.191015 
L 330.26424 152.922191 
L 330.913549 157.73558 
L 331.238203 159.292216 
L 331.562858 160.204121 
L 331.887513 160.438137 
L 332.212167 159.985188 
L 332.536822 158.862427 
L 333.186131 154.783963 
L 333.83544 148.768376 
L 335.783367 128.217056 
L 336.432676 123.746837 
L 336.757331 122.396828 
L 337.081985 121.708421 
L 337.40664 121.704911 
L 337.731294 122.385295 
L 338.055949 123.726918 
L 338.705258 128.176299 
L 339.679222 137.976936 
L 340.97784 151.941434 
L 341.627149 157.095796 
L 341.951803 158.863933 
L 342.276458 160.00205 
L 342.601113 160.469422 
L 342.925767 160.248317 
L 343.250422 159.346001 
L 343.575076 157.794733 
L 344.224385 152.989927 
L 345.198349 142.930128 
L 346.496967 129.184464 
L 347.146276 124.359407 
L 347.470931 122.798437 
L 347.795585 121.883256 
L 348.12024 121.645607 
L 348.444894 122.095302 
L 348.769549 123.215309 
L 349.418858 127.286476 
L 350.068167 133.297654 
L 352.016094 153.846097 
L 352.665403 158.318527 
L 352.990058 159.671307 
L 353.314713 160.362584 
L 353.639367 160.368469 
L 353.964022 159.689877 
L 354.288676 158.351502 
L 354.937985 153.905585 
L 355.911949 144.119246 
L 357.210567 130.163376 
L 357.859876 125.016422 
L 358.184531 123.250851 
L 358.509185 122.115745 
L 358.83384 121.650345 
L 359.158494 121.872113 
L 359.483149 122.774304 
L 359.807803 124.325693 
L 360.457112 129.130665 
L 361.431076 139.192794 
L 362.729694 152.928529 
L 363.379003 157.748615 
L 363.703658 159.307821 
L 364.028313 160.221544 
L 364.352967 160.45724 
L 364.677622 160.005731 
L 365.002276 158.88416 
L 365.651585 154.807548 
L 366.300894 148.791981 
L 368.248822 128.234928 
L 368.898131 123.761033 
L 369.222785 122.408728 
L 369.54744 121.717998 
L 369.872094 121.712253 
L 370.196749 122.390487 
L 370.521403 123.729683 
L 371.170713 128.174892 
L 372.144676 137.968307 
L 373.443294 151.927106 
L 374.092603 157.078942 
L 374.417258 158.846415 
L 374.741913 159.983888 
L 375.066567 160.451084 
L 375.391222 160.230208 
L 375.715876 159.328381 
L 376.040531 157.777641 
L 376.68984 152.974325 
L 377.663803 142.917399 
L 378.962422 129.179355 
L 379.611731 124.357114 
L 379.936385 122.797799 
L 380.26104 121.88458 
L 380.585694 121.648865 
L 380.910349 122.100256 
L 381.235003 123.222095 
L 381.884313 127.295769 
L 382.533622 133.308777 
L 383.507585 144.051191 
L 383.507585 144.051191 
" clip-path="url(#p68b405b950)" style="fill: none; stroke: #1f77b4; stroke-width: 1.5; stroke-linecap: square"/>
   </g>
   <g id="line2d_14">
    <path d="M 58.85304 141.048389 
L 61.125622 114.746792 
L 62.748894 97.665543 
L 63.722858 89.239524 
L 64.372167 85.038747 
L 65.021476 82.4307 
L 65.346131 81.848145 
L 65.670785 81.810427 
L 65.99544 82.36691 
L 66.320094 83.557179 
L 66.644749 85.411038 
L 67.294058 91.179854 
L 67.943367 99.716188 
L 68.592676 110.905128 
L 69.56664 131.973002 
L 73.13784 216.806043 
L 73.787149 225.587331 
L 74.111803 228.459113 
L 74.436458 230.2086 
L 74.761113 230.768059 
L 75.085767 230.091361 
L 75.410422 228.15398 
L 75.735076 224.952994 
L 76.384385 214.856531 
L 77.033694 200.173743 
L 78.007658 170.998775 
L 79.955585 100.347379 
L 80.929549 68.091558 
L 81.578858 50.894847 
L 82.228167 38.505264 
L 82.552822 34.397708 
L 82.877476 31.810409 
L 83.202131 30.810417 
L 83.526785 31.436212 
L 83.85144 33.697699 
L 84.176094 37.57621 
L 84.825403 49.971142 
L 85.474713 68.01327 
L 86.448676 103.492494 
L 89.695222 233.290747 
L 90.344531 249.223301 
L 90.99384 258.772194 
L 91.318494 260.907997 
L 91.643149 261.216 
L 91.967803 259.685103 
L 92.292458 256.336546 
L 92.941767 244.416246 
L 93.591076 226.115924 
L 94.56504 189.117142 
L 97.811585 50.598122 
L 98.460894 33.228691 
L 99.110203 22.554652 
L 99.434858 19.974417 
L 99.759512 19.296 
L 100.084167 20.525116 
L 100.408822 23.63368 
L 100.733476 28.567631 
L 101.382785 43.595023 
L 102.032094 64.683174 
L 103.006058 104.682755 
L 105.603294 217.660415 
L 106.252603 237.562343 
L 106.901913 251.206939 
L 107.226567 255.386725 
L 107.551222 257.712579 
L 107.875876 258.157276 
L 108.200531 256.727163 
L 108.525185 253.457765 
L 109.174494 241.64501 
L 109.823803 223.496536 
L 110.797767 187.115211 
L 113.719658 66.510169 
L 114.368967 48.60321 
L 115.018276 36.949657 
L 115.342931 33.698176 
L 115.667585 32.225337 
L 115.99224 32.541618 
L 116.316894 34.635765 
L 116.641549 38.469157 
L 117.290858 51.055067 
L 117.940167 69.413931 
L 118.914131 104.820889 
L 121.511367 205.490632 
L 122.160676 222.985288 
L 122.809985 234.732309 
L 123.13464 238.218897 
L 123.459294 240.046954 
L 123.783949 240.198193 
L 124.108603 238.675683 
L 124.433258 235.510091 
L 125.082567 224.515143 
L 125.731876 208.029918 
L 126.70584 175.753126 
L 129.303076 82.839196 
L 129.952385 66.665519 
L 130.601694 55.843539 
L 130.926349 52.656471 
L 131.251003 51.016057 
L 131.575658 50.941859 
L 131.900313 52.431288 
L 132.224967 55.454229 
L 132.874276 65.84145 
L 133.523585 81.307694 
L 134.497549 111.431226 
L 136.770131 188.071639 
L 137.41944 204.727659 
L 138.068749 216.702242 
L 138.393403 220.680798 
L 138.718058 223.232995 
L 139.042712 224.323604 
L 139.367367 223.936488 
L 139.692022 222.080013 
L 140.016676 218.789473 
L 140.665985 208.182006 
L 141.315294 192.933462 
L 142.289258 163.8783 
L 144.56184 92.30626 
L 145.211149 77.422303 
L 145.860458 67.182333 
L 146.185113 64.026912 
L 146.509767 62.254523 
L 146.834422 61.893234 
L 147.159076 62.951295 
L 147.483731 65.410845 
L 148.13304 74.331031 
L 148.782349 87.983162 
L 149.756313 115.051804 
L 152.353549 193.449657 
L 153.002858 206.845087 
L 153.652167 215.51475 
L 153.976822 217.881699 
L 154.301476 218.877254 
L 154.626131 218.479928 
L 154.950785 216.692369 
L 155.27544 213.543445 
L 155.924749 203.408105 
L 156.574058 188.825719 
L 157.548022 160.95867 
L 159.820603 91.8962 
L 160.469912 77.471313 
L 161.119222 67.543416 
L 161.443876 64.492366 
L 161.768531 62.793757 
L 162.093185 62.479949 
L 162.41784 63.563766 
L 162.742494 66.031732 
L 163.391803 74.934215 
L 164.041112 88.551633 
L 165.015076 115.627622 
L 167.612313 194.89108 
L 168.261622 208.676487 
L 168.910931 217.754492 
L 169.235585 220.318632 
L 169.56024 221.499068 
L 169.884894 221.267556 
L 170.209549 219.620409 
L 170.534203 216.580732 
L 171.183513 206.550191 
L 171.832822 191.892766 
L 172.806785 163.523244 
L 175.079367 91.543848 
L 175.728676 75.999411 
L 176.377985 64.938181 
L 176.70264 61.338908 
L 177.027294 59.117622 
L 177.351949 58.315391 
L 177.676603 58.955286 
L 178.001258 61.033376 
L 178.325912 64.518441 
L 178.975222 75.448171 
L 179.624531 90.963241 
L 180.598494 120.446079 
L 182.871076 193.583573 
L 183.520385 209.010167 
L 184.169694 219.777551 
L 184.494349 223.171342 
L 184.819003 225.154234 
L 185.143658 225.685922 
L 185.468312 224.748779 
L 185.792967 222.352952 
L 186.117622 218.53636 
L 186.766931 206.931435 
L 187.41624 190.763238 
L 188.390203 160.423053 
L 190.662785 86.37674 
L 191.312094 71.035778 
L 191.961403 60.48784 
L 192.286058 57.247994 
L 192.610713 55.444812 
L 192.935367 55.117259 
L 193.260022 56.278137 
L 193.584676 58.912065 
L 194.233985 68.396648 
L 194.883294 82.889955 
L 195.857258 111.769193 
L 198.454494 197.19428 
L 199.103803 212.407277 
L 199.753113 222.730256 
L 200.077767 225.827237 
L 200.402422 227.469305 
L 200.727076 227.620017 
L 201.051731 226.271 
L 201.376385 223.442359 
L 202.025694 213.569048 
L 202.675003 198.716738 
L 203.648967 169.400738 
L 206.246203 83.823858 
L 206.895512 68.822039 
L 207.544822 58.780447 
L 207.869476 55.843397 
L 208.194131 54.373109 
L 208.518785 54.402187 
L 208.84344 55.934563 
L 209.168094 58.945486 
L 209.817403 69.160598 
L 210.466712 84.302231 
L 211.440676 113.914628 
L 214.037913 199.193701 
L 214.687222 213.889527 
L 215.336531 223.571191 
L 215.661185 226.315654 
L 215.98584 227.586565 
L 216.310494 227.35596 
L 216.635149 225.624661 
L 216.959803 222.422273 
L 217.609113 211.866584 
L 218.258422 196.457485 
L 219.232385 166.619637 
L 221.504967 90.727929 
L 222.154276 74.234297 
L 222.803585 62.360131 
L 223.12824 58.418885 
L 223.452894 55.903747 
L 223.777549 54.86563 
L 224.102203 55.327346 
L 224.426858 57.282876 
L 224.751513 60.697369 
L 225.400822 71.619668 
L 226.050131 87.30755 
L 227.024094 117.354255 
L 229.296676 192.624567 
L 229.945985 208.695342 
L 230.595294 220.08487 
L 230.919949 223.771021 
L 231.244603 226.02426 
L 231.569258 226.798586 
L 231.893912 226.076842 
L 232.218567 223.87072 
L 232.543222 220.220761 
L 233.192531 208.894742 
L 233.84184 192.899946 
L 234.815803 162.626581 
L 237.088385 88.047637 
L 237.737694 72.43741 
L 238.387003 61.575607 
L 238.711658 58.167953 
L 239.036313 56.200776 
L 239.360967 55.713984 
L 239.685622 56.718635 
L 240.010276 59.196938 
L 240.334931 63.102251 
L 240.98424 74.869479 
L 241.633549 91.200919 
L 242.607513 121.733785 
L 244.55544 186.552621 
L 245.529403 210.751137 
L 246.178712 221.063696 
L 246.503367 224.178682 
L 246.828022 225.845179 
L 247.152676 226.029717 
L 247.477331 224.727677 
L 247.801985 221.963291 
L 248.451294 212.288565 
L 249.100603 197.698182 
L 250.074567 168.857658 
L 252.671803 84.818654 
L 253.321112 70.161042 
L 253.970422 60.403078 
L 254.295076 57.586533 
L 254.619731 56.226837 
L 254.944385 56.350768 
L 255.26904 57.956255 
L 255.593694 61.012371 
L 256.243003 71.212485 
L 256.892313 86.238183 
L 257.866276 115.499355 
L 260.463512 198.97591 
L 261.112822 213.164421 
L 261.762131 222.372776 
L 262.086785 224.890905 
L 262.41144 225.943946 
L 262.736094 225.512015 
L 263.060749 223.604065 
L 263.385403 220.257892 
L 264.034713 209.531376 
L 264.684022 194.068466 
L 265.657985 164.378324 
L 267.930567 89.914102 
L 268.579876 73.988886 
L 269.229185 62.694126 
L 269.55384 59.040393 
L 269.878494 56.817142 
L 270.203149 56.066252 
L 270.527803 56.800804 
L 270.852458 59.005076 
L 271.177113 62.634546 
L 271.826422 73.880017 
L 272.475731 89.773374 
L 273.449694 119.885027 
L 275.722276 194.007427 
L 276.371585 209.530683 
L 277.020894 220.328555 
L 277.345549 223.705256 
L 277.670203 225.639146 
L 277.994858 226.094758 
L 278.319513 225.065386 
L 278.644167 222.573086 
L 278.968822 218.668675 
L 279.618131 206.916234 
L 280.26744 190.60515 
L 281.241403 160.093115 
L 283.189331 95.38671 
L 284.163294 71.21364 
L 284.812603 60.907928 
L 285.137258 57.80479 
L 285.461912 56.155145 
L 285.786567 55.988346 
L 286.111222 57.305019 
L 286.435876 60.077062 
L 287.085185 69.75161 
L 287.734494 84.35401 
L 288.708458 113.247613 
L 291.305694 197.44061 
L 291.955003 212.155474 
L 292.604313 221.968969 
L 292.928967 224.800547 
L 293.253622 226.169591 
L 293.578276 226.052655 
L 293.902931 224.454986 
L 294.227585 221.410528 
L 294.876894 211.22804 
L 295.526203 196.194233 
L 296.500167 166.859323 
L 299.097403 83.049479 
L 299.746713 68.7482 
L 300.396022 59.431792 
L 300.720676 56.8715 
L 301.045331 55.781164 
L 301.369985 56.178465 
L 301.69464 58.052425 
L 302.019294 61.3634 
L 302.668603 72.041354 
L 303.317913 87.490411 
L 304.291876 117.236592 
L 306.564458 192.039061 
L 307.213767 208.111094 
L 307.863076 219.557403 
L 308.187731 223.280409 
L 308.512385 225.568225 
L 308.83704 226.380211 
L 309.161694 225.704356 
L 309.486349 223.557278 
L 309.811003 219.983934 
L 310.460312 208.820626 
L 311.109622 192.970404 
L 312.083585 162.840989 
L 314.356167 88.385308 
L 315.005476 72.702326 
L 315.654785 61.732484 
L 315.97944 58.274012 
L 316.304094 56.260815 
L 316.628749 55.727885 
L 316.953403 56.681619 
L 317.278058 59.099821 
L 317.602713 62.933503 
L 318.252022 74.573554 
L 318.901331 90.813 
L 319.875294 121.300302 
L 322.147876 195.348406 
L 322.797185 210.628736 
L 323.446494 221.110598 
L 323.771149 224.300651 
L 324.095803 226.036688 
L 324.420458 226.289334 
L 324.745113 225.057772 
L 325.069767 222.36974 
L 325.719076 212.844669 
L 326.368385 198.35757 
L 327.342349 169.554022 
L 329.939585 85.140986 
L 330.588894 70.275848 
L 331.238203 60.293061 
L 331.562858 57.375109 
L 331.887513 55.918696 
L 332.212167 55.947603 
L 332.536822 57.457088 
L 332.861476 60.41389 
L 333.510785 70.439235 
L 334.160094 85.346748 
L 335.134058 114.568367 
L 337.731294 198.536158 
L 338.380603 212.974694 
L 339.029913 222.448629 
L 339.354567 225.091303 
L 339.679222 226.266031 
L 340.003876 225.954611 
L 340.328531 224.16733 
L 340.653185 220.942684 
L 341.302494 210.42069 
L 341.951803 195.099878 
L 342.925767 165.477396 
L 345.198349 90.610828 
L 345.847658 74.430178 
L 346.496967 62.846075 
L 346.821622 59.049012 
L 347.146276 56.684156 
L 347.470931 55.7926 
L 347.795585 56.386982 
L 348.12024 58.451486 
L 348.444894 61.943344 
L 349.094203 72.957287 
L 349.743513 88.684011 
L 350.717476 118.690117 
L 352.990058 193.194667 
L 353.639367 208.977385 
L 354.288676 220.074124 
L 354.613331 223.601397 
L 354.937985 225.686545 
L 355.26264 226.294054 
L 355.587294 225.416834 
L 355.911949 223.076221 
L 356.236603 219.318219 
L 356.885913 207.817768 
L 357.535222 191.693154 
L 358.509185 161.321313 
L 360.781767 87.220939 
L 361.431076 71.845106 
L 362.080385 61.243593 
L 362.40504 57.988458 
L 362.729694 56.184341 
L 363.054349 55.861197 
L 363.379003 57.020582 
L 363.703658 59.635658 
L 364.352967 69.023598 
L 365.002276 83.392445 
L 365.97624 112.071675 
L 368.573476 196.525802 
L 369.222785 211.486176 
L 369.872094 221.585469 
L 370.196749 224.56656 
L 370.521403 226.088773 
L 370.846058 226.127693 
L 371.170713 224.687274 
L 371.495367 221.799751 
L 372.144676 211.902658 
L 372.793985 197.103813 
L 373.767949 167.992992 
L 376.365185 83.955429 
L 377.014494 69.418913 
L 377.663803 59.828241 
L 377.988458 57.122781 
L 378.313113 55.883014 
L 378.637767 56.127838 
L 378.962422 57.847804 
L 379.287076 61.006017 
L 379.936385 71.405876 
L 380.585694 86.625742 
L 381.559658 116.14931 
L 383.507585 181.543562 
L 383.507585 181.543562 
" clip-path="url(#p68b405b950)" style="fill: none; stroke: #ff7f0e; stroke-width: 1.5; stroke-linecap: square"/>
   </g>
   <g id="line2d_15">
    <path d="M 58.85304 141.048389 
L 60.800967 118.896959 
L 62.099585 106.249206 
L 63.398203 95.832123 
L 64.372167 89.953326 
L 65.021476 87.209203 
L 65.670785 85.562843 
L 65.99544 85.192974 
L 66.320094 85.146125 
L 66.644749 85.437901 
L 66.969403 86.087702 
L 67.294058 87.11139 
L 67.943367 90.324422 
L 68.592676 95.126086 
L 69.241985 101.503279 
L 70.215949 113.873398 
L 71.189913 129.197255 
L 72.813185 158.89134 
L 74.761113 194.029547 
L 75.735076 207.917739 
L 76.384385 214.830513 
L 77.033694 219.395197 
L 77.358349 220.700162 
L 77.683003 221.316542 
L 78.007658 221.225743 
L 78.332313 220.416495 
L 78.656967 218.884725 
L 79.306276 213.648447 
L 79.955585 205.559056 
L 80.604894 194.793821 
L 81.578858 174.369812 
L 82.877476 141.632021 
L 85.150058 82.659606 
L 86.124022 62.5085 
L 86.773331 52.312114 
L 87.42264 45.236817 
L 87.747294 42.976677 
L 88.071949 41.618565 
L 88.396603 41.190456 
L 88.721258 41.708809 
L 89.045913 43.178565 
L 89.370567 45.593145 
L 90.019876 53.172982 
L 90.669185 64.208155 
L 91.643149 86.446015 
L 92.941767 123.817748 
L 95.863658 211.819085 
L 96.837622 233.249335 
L 97.486931 243.403489 
L 98.13624 249.748193 
L 98.460894 251.410473 
L 98.785549 252.043524 
L 99.110203 251.632275 
L 99.434858 250.168734 
L 99.759512 247.657624 
L 100.408822 239.57518 
L 101.058131 227.677078 
L 102.032094 203.755541 
L 103.330713 163.705033 
L 105.927949 78.892563 
L 106.901913 53.840468 
L 107.551222 41.05381 
L 108.200531 31.97202 
L 108.525185 28.952709 
L 108.84984 26.99462 
L 109.174494 26.116382 
L 109.499149 26.323429 
L 109.823803 27.607999 
L 110.148458 29.949131 
L 110.797767 37.691095 
L 111.447076 49.289133 
L 112.42104 72.954383 
L 113.719658 112.876315 
L 116.641549 207.545982 
L 117.615512 231.19993 
L 118.264822 242.852007 
L 118.914131 250.734888 
L 119.238785 253.176096 
L 119.56344 254.580091 
L 119.888094 254.932205 
L 120.212749 254.229794 
L 120.537403 252.482235 
L 120.862058 249.71093 
L 121.511367 241.240246 
L 122.160676 229.15292 
L 123.13464 205.246141 
L 124.433258 165.855055 
L 127.030494 83.605639 
L 128.004458 59.223336 
L 128.653767 46.668266 
L 129.303076 37.590693 
L 129.952385 32.264314 
L 130.27704 31.064693 
L 130.601694 30.860967 
L 130.926349 31.655172 
L 131.251003 33.438327 
L 131.900313 39.880495 
L 132.549622 49.900141 
L 133.198931 63.117738 
L 134.172894 87.869181 
L 135.796167 137.008975 
L 137.744094 195.330955 
L 138.718058 218.834429 
L 139.367367 231.069856 
L 140.016676 240.036317 
L 140.665985 245.45584 
L 140.99064 246.790188 
L 141.315294 247.194959 
L 141.639949 246.661663 
L 141.964603 245.191636 
L 142.289258 242.79653 
L 142.938567 235.329299 
L 143.587876 224.559601 
L 144.56184 203.180125 
L 145.860458 167.618785 
L 148.782349 83.325303 
L 149.756313 61.776851 
L 150.405622 50.807501 
L 151.054931 43.03754 
L 151.70424 38.750246 
L 152.028894 37.956966 
L 152.353549 38.067404 
L 152.678203 39.071569 
L 153.002858 40.957574 
L 153.652167 47.321269 
L 154.301476 56.958909 
L 155.27544 76.780565 
L 156.574058 110.573243 
L 159.820603 201.578214 
L 160.794567 221.908224 
L 161.443876 232.008307 
L 162.093185 238.943997 
L 162.41784 241.137304 
L 162.742494 242.449148 
L 163.067149 242.867813 
L 163.391803 242.391269 
L 163.716458 241.027175 
L 164.041112 238.792865 
L 164.690422 231.799058 
L 165.339731 221.63312 
L 166.313694 201.221685 
L 167.612313 167.016558 
L 170.534203 84.801868 
L 171.508167 63.458019 
L 172.157476 52.53751 
L 172.806785 44.699875 
L 173.456094 40.223996 
L 173.780749 39.311352 
L 174.105403 39.297994 
L 174.430058 40.183505 
L 174.754713 41.957684 
L 175.404022 48.086835 
L 176.053331 57.477741 
L 176.70264 69.821657 
L 177.676603 92.906736 
L 179.299876 138.846072 
L 181.247803 193.871348 
L 182.221767 216.236617 
L 182.871076 227.934902 
L 183.520385 236.585659 
L 184.169694 241.897982 
L 184.494349 243.228603 
L 184.819003 243.651987 
L 185.143658 243.163 
L 185.468312 241.766529 
L 185.792967 239.477482 
L 186.442276 232.325193 
L 187.091585 221.947643 
L 188.065549 201.125061 
L 189.364167 166.233825 
L 192.286058 82.716017 
L 193.260022 61.222165 
L 193.909331 50.330377 
L 194.55864 42.633266 
L 194.883294 40.067035 
L 195.207949 38.394616 
L 195.532603 37.635688 
L 195.857258 37.799719 
L 196.181912 38.885973 
L 196.506567 40.883505 
L 197.155876 47.517925 
L 197.805185 57.45915 
L 198.779149 77.816443 
L 200.077767 112.498103 
L 203.324312 205.137216 
L 204.298276 225.476227 
L 204.947585 235.372686 
L 205.596894 241.937601 
L 205.921549 243.897701 
L 206.246203 244.943821 
L 206.570858 245.062407 
L 206.895512 244.250209 
L 207.220167 242.514283 
L 207.869476 236.350995 
L 208.518785 226.819249 
L 209.168094 214.241012 
L 210.142058 190.63806 
L 211.765331 143.564151 
L 213.713258 87.249009 
L 214.687222 64.397511 
L 215.336531 52.473218 
L 215.98584 43.710579 
L 216.635149 38.39424 
L 216.959803 37.08474 
L 217.284458 36.698301 
L 217.609113 37.242984 
L 217.933767 38.7166 
L 218.258422 41.106707 
L 218.907731 48.535374 
L 219.55704 59.232908 
L 220.531003 80.569026 
L 221.829622 116.179138 
L 224.751513 200.71629 
L 225.725476 222.274143 
L 226.374785 233.136718 
L 227.024094 240.702911 
L 227.348749 243.166171 
L 227.673403 244.724011 
L 227.998058 245.369105 
L 228.322712 245.096992 
L 228.647367 243.903257 
L 228.972022 241.792787 
L 229.621331 234.891593 
L 230.27064 224.634107 
L 231.244603 203.858443 
L 232.543222 168.771777 
L 235.789767 75.971864 
L 236.763731 55.852961 
L 237.41304 46.094024 
L 238.062349 39.706563 
L 238.387003 37.863817 
L 238.711658 36.946543 
L 239.036313 36.95997 
L 239.360967 37.898623 
L 239.685622 39.746317 
L 240.334931 46.08643 
L 240.98424 55.787391 
L 241.633549 68.523422 
L 242.607513 92.284539 
L 244.230785 139.366664 
L 246.178712 195.400883 
L 247.152676 217.997131 
L 247.801985 229.734495 
L 248.451294 238.335781 
L 249.100603 243.512204 
L 249.425258 244.7444 
L 249.749912 245.051666 
L 250.074567 244.431073 
L 250.399222 242.8899 
L 250.723876 240.44564 
L 251.373185 232.958544 
L 252.022494 222.224559 
L 252.996458 200.870174 
L 254.295076 165.370742 
L 257.216967 81.343459 
L 258.190931 59.992746 
L 258.84024 49.268565 
L 259.489549 41.782828 
L 259.814203 39.33664 
L 260.138858 37.792333 
L 260.463512 37.167359 
L 260.788167 37.468961 
L 261.112822 38.694175 
L 261.437476 40.829827 
L 262.086785 47.730063 
L 262.736094 57.918854 
L 263.710058 78.586092 
L 265.008676 113.51585 
L 268.255222 205.866683 
L 269.229185 225.921889 
L 269.878494 235.611141 
L 270.527803 241.968628 
L 270.852458 243.825112 
L 271.177113 244.769023 
L 271.501767 244.788753 
L 271.826422 243.882904 
L 272.151076 242.060287 
L 272.800385 235.751029 
L 273.449694 226.109266 
L 274.099003 213.457265 
L 275.072967 189.821545 
L 276.69624 142.898776 
L 278.644167 86.992803 
L 279.618131 64.386159 
L 280.26744 52.624279 
L 280.916749 44.005047 
L 281.566058 38.804658 
L 281.890713 37.546387 
L 282.215367 37.206971 
L 282.540022 37.792911 
L 282.864676 39.300524 
L 283.189331 41.715942 
L 283.83864 49.163804 
L 284.487949 59.844704 
L 285.461912 81.11064 
L 286.760531 116.539501 
L 289.682422 200.538512 
L 290.656385 221.954841 
L 291.305694 232.732159 
L 291.955003 240.242279 
L 292.279658 242.692242 
L 292.604313 244.247681 
L 292.928967 244.898888 
L 293.253622 244.63362 
L 293.578276 243.447506 
L 293.902931 241.346509 
L 294.55224 234.475388 
L 295.201549 224.274654 
L 296.175513 203.633442 
L 297.474131 168.731448 
L 300.720676 76.308426 
L 301.69464 56.212177 
L 302.343949 46.449719 
L 302.993258 40.058167 
L 303.317913 38.207224 
L 303.642567 37.275062 
L 303.967222 37.26533 
L 304.291876 38.17126 
L 304.616531 39.978216 
L 305.26584 46.24536 
L 305.915149 55.8794 
L 306.564458 68.551835 
L 307.538422 92.204089 
L 309.161694 139.145194 
L 311.109622 195.124665 
L 312.083585 217.727944 
L 312.732894 229.492092 
L 313.382203 238.138454 
L 314.031513 243.361286 
L 314.356167 244.616174 
L 314.680822 244.947129 
L 315.005476 244.35214 
L 315.330131 242.839339 
L 315.654785 240.426999 
L 316.304094 233.001019 
L 316.953403 222.317526 
L 317.927367 201.020926 
L 319.225985 165.57667 
L 322.147876 81.505861 
L 323.12184 60.110124 
L 323.771149 49.345713 
L 324.420458 41.81245 
L 324.745113 39.344416 
L 325.069767 37.780301 
L 325.394422 37.13691 
L 325.719076 37.420844 
L 326.043731 38.628503 
L 326.368385 40.746083 
L 327.017694 47.610183 
L 327.667003 57.77477 
L 328.640967 78.425142 
L 329.939585 113.355505 
L 333.186131 205.832113 
L 334.160094 225.930007 
L 334.809403 235.650489 
L 335.458713 242.040402 
L 335.783367 243.908956 
L 336.108022 244.862187 
L 336.432676 244.889233 
L 336.757331 243.989461 
L 337.081985 242.172462 
L 337.731294 235.876143 
L 338.380603 226.237843 
L 339.029913 213.57965 
L 340.003876 189.924835 
L 341.627149 142.95517 
L 343.575076 86.967708 
L 344.54904 64.334975 
L 345.198349 52.560691 
L 345.847658 43.923545 
L 346.496967 38.703837 
L 346.821622 37.443355 
L 347.146276 37.105836 
L 347.470931 37.696102 
L 347.795585 39.208736 
L 348.12024 41.628095 
L 348.769549 49.074385 
L 349.418858 59.763836 
L 350.392822 81.059377 
L 351.69144 116.525733 
L 354.613331 200.60572 
L 355.587294 222.024661 
L 356.236603 232.792388 
L 356.885913 240.307384 
L 357.210567 242.767427 
L 357.535222 244.331086 
L 357.859876 244.978653 
L 358.184531 244.700399 
L 358.509185 243.496806 
L 358.83384 241.378559 
L 359.483149 234.49189 
L 360.132458 224.31495 
L 361.106422 203.666375 
L 362.40504 168.722647 
L 365.651585 76.257932 
L 366.625549 56.131979 
L 367.274858 46.409725 
L 367.924167 40.051786 
L 368.248822 38.198876 
L 368.573476 37.247239 
L 368.898131 37.21011 
L 369.222785 38.095038 
L 369.54744 39.899188 
L 370.196749 46.201891 
L 370.846058 55.887838 
L 371.820022 75.893496 
L 372.793985 101.058182 
L 377.014494 217.749652 
L 377.663803 229.543087 
L 378.313113 238.20913 
L 378.962422 243.403858 
L 379.287076 244.637237 
L 379.611731 244.948849 
L 379.936385 244.34233 
L 380.26104 242.830556 
L 380.585694 240.423391 
L 381.235003 232.994733 
L 381.884313 222.292268 
L 382.858276 200.96487 
L 383.507585 184.004613 
L 383.507585 184.004613 
" clip-path="url(#p68b405b950)" style="fill: none; stroke: #2ca02c; stroke-width: 1.5; stroke-linecap: square"/>
   </g>
   <g id="line2d_16">
    <path d="M 58.85304 141.048389 
L 60.476313 122.854672 
L 61.450276 114.238883 
L 62.42424 107.906587 
L 63.073549 105.059444 
L 63.722858 103.304655 
L 64.047513 102.815222 
L 64.372167 102.565111 
L 64.696822 102.540804 
L 65.021476 102.726715 
L 65.346131 103.103927 
L 65.99544 104.349681 
L 66.969403 107.10141 
L 69.241985 114.331285 
L 69.891294 115.855682 
L 70.540603 116.911899 
L 71.189913 117.425026 
L 71.514567 117.467262 
L 71.839222 117.366754 
L 72.488531 116.755089 
L 73.13784 115.639448 
L 74.111803 113.198837 
L 77.358349 103.688821 
L 78.007658 102.619969 
L 78.656967 102.121475 
L 78.981622 102.116405 
L 79.306276 102.287273 
L 79.630931 102.640825 
L 80.28024 103.910453 
L 80.929549 105.929256 
L 81.578858 108.669999 
L 82.552822 114.028173 
L 83.85144 123.037375 
L 88.396603 157.510768 
L 89.370567 162.909799 
L 90.344531 167.103894 
L 91.318494 170.092479 
L 91.967803 171.454777 
L 92.617113 172.372477 
L 93.266422 172.919329 
L 93.915731 173.170207 
L 94.56504 173.204858 
L 95.863658 172.943193 
L 97.162276 172.704414 
L 98.13624 172.778447 
L 99.110203 173.152508 
L 100.084167 173.814658 
L 103.330713 176.382012 
L 103.980022 176.523219 
L 104.629331 176.394951 
L 105.27864 175.938009 
L 105.927949 175.108342 
L 106.577258 173.877838 
L 107.226567 172.233853 
L 108.200531 168.984424 
L 109.174494 164.836563 
L 110.473113 158.147965 
L 112.42104 146.582822 
L 115.018276 131.151111 
L 116.316894 124.523528 
L 117.615512 119.001639 
L 118.589476 115.645535 
L 119.56344 112.94901 
L 120.537403 110.829864 
L 121.511367 109.190959 
L 122.485331 107.936207 
L 123.783949 106.688014 
L 125.082567 105.762622 
L 126.381185 105.077859 
L 127.679803 104.658519 
L 128.653767 104.594432 
L 129.303076 104.712742 
L 129.952385 104.989349 
L 130.601694 105.451448 
L 131.251003 106.128744 
L 131.900313 107.044661 
L 132.874276 108.900776 
L 133.84824 111.361317 
L 134.822203 114.443812 
L 136.120822 119.467339 
L 137.744094 126.932104 
L 140.341331 140.373004 
L 142.938567 153.430437 
L 144.56184 160.482716 
L 145.860458 165.271477 
L 147.159076 169.252375 
L 148.457694 172.474462 
L 149.756313 174.980706 
L 150.730276 176.433633 
L 151.70424 177.551199 
L 152.678203 178.337614 
L 153.652167 178.792062 
L 154.301476 178.907927 
L 154.950785 178.865944 
L 155.600094 178.655234 
L 156.249403 178.266029 
L 156.898713 177.689761 
L 157.872676 176.457256 
L 158.84664 174.753451 
L 159.820603 172.559525 
L 160.794567 169.879805 
L 162.093185 165.572039 
L 163.391803 160.503137 
L 165.339731 151.823501 
L 171.508167 123.055043 
L 173.13144 116.901015 
L 174.430058 112.726765 
L 175.728676 109.240736 
L 177.027294 106.46182 
L 178.001258 104.855542 
L 178.975222 103.654499 
L 179.949185 102.864082 
L 180.598494 102.571682 
L 181.247803 102.469442 
L 181.897113 102.55839 
L 182.546422 102.842564 
L 183.195731 103.327137 
L 184.169694 104.435134 
L 185.143658 106.000194 
L 186.117622 108.02538 
L 187.091585 110.504775 
L 188.390203 114.473904 
L 189.688822 119.138915 
L 191.312094 125.780049 
L 193.584676 136.06861 
L 197.805185 155.416548 
L 199.753113 163.246007 
L 201.376385 168.821436 
L 202.675003 172.528697 
L 203.973622 175.537137 
L 204.947585 177.302836 
L 205.921549 178.625667 
L 206.895512 179.501126 
L 207.544822 179.831871 
L 208.194131 179.955279 
L 208.84344 179.869626 
L 209.492749 179.575217 
L 210.142058 179.071406 
L 211.116022 177.920878 
L 212.089985 176.303259 
L 213.063949 174.232345 
L 214.362567 170.790113 
L 215.661185 166.637346 
L 217.284458 160.580246 
L 219.232385 152.340735 
L 226.69944 119.44987 
L 228.322712 113.738862 
L 229.621331 109.887656 
L 230.919949 106.740193 
L 231.893912 104.872683 
L 232.867876 103.459965 
L 233.84184 102.514104 
L 234.491149 102.144938 
L 235.140458 101.990345 
L 235.789767 102.052648 
L 236.439076 102.331478 
L 237.088385 102.824764 
L 237.737694 103.5323 
L 238.711658 104.99067 
L 239.685622 106.90949 
L 240.659585 109.269461 
L 241.958203 113.060629 
L 243.581476 118.704074 
L 245.529403 126.549981 
L 248.12664 138.115832 
L 252.347149 156.952212 
L 254.295076 164.569016 
L 255.918349 170.005464 
L 257.216967 173.606283 
L 258.515585 176.479104 
L 259.489549 178.118919 
L 260.463512 179.287694 
L 261.112822 179.800528 
L 261.762131 180.099478 
L 262.41144 180.179841 
L 263.060749 180.03952 
L 263.710058 179.679415 
L 264.359367 179.102848 
L 265.333331 177.835854 
L 266.307294 176.096901 
L 267.281258 173.909713 
L 268.579876 170.337346 
L 269.878494 166.086566 
L 271.501767 159.976888 
L 273.449694 151.756175 
L 280.916749 119.166673 
L 282.540022 113.473597 
L 283.83864 109.617138 
L 285.137258 106.482587 
L 286.111222 104.632172 
L 287.085185 103.241672 
L 288.059149 102.333784 
L 288.708458 101.999702 
L 289.357767 101.883288 
L 290.007076 101.988234 
L 290.656385 102.315324 
L 291.305694 102.862162 
L 292.279658 104.084686 
L 293.253622 105.781026 
L 294.227585 107.931299 
L 295.526203 111.451849 
L 296.824822 115.655697 
L 298.448094 121.714281 
L 300.396022 129.88024 
L 308.187731 163.725302 
L 309.811003 169.2966 
L 311.109622 173.051378 
L 312.40824 176.071662 
L 313.382203 177.821711 
L 314.356167 179.111183 
L 315.005476 179.701802 
L 315.654785 180.07257 
L 316.304094 180.223372 
L 316.953403 180.15503 
L 317.602713 179.864921 
L 318.252022 179.352794 
L 318.901331 178.621895 
L 319.875294 177.129324 
L 320.849258 175.174923 
L 321.823222 172.779621 
L 323.12184 168.960839 
L 324.745113 163.29808 
L 326.69304 155.476087 
L 329.290276 143.972047 
L 333.510785 125.218908 
L 335.458713 117.573844 
L 337.081985 112.126617 
L 338.380603 108.499487 
L 339.679222 105.596174 
L 340.653185 103.946166 
L 341.627149 102.767627 
L 342.276458 102.247836 
L 342.925767 101.947522 
L 343.575076 101.869463 
L 344.224385 102.013403 
L 344.873694 102.377152 
L 345.523003 102.960492 
L 346.496967 104.242304 
L 347.470931 105.994741 
L 348.444894 108.196071 
L 349.743513 111.787208 
L 351.042131 116.043329 
L 352.665403 122.158939 
L 354.937985 131.794608 
L 361.755731 161.661976 
L 363.379003 167.542469 
L 364.677622 171.567282 
L 365.97624 174.899535 
L 366.950203 176.909247 
L 367.924167 178.459869 
L 368.898131 179.531835 
L 369.54744 179.978216 
L 370.196749 180.205178 
L 370.846058 180.209385 
L 371.495367 179.990725 
L 372.144676 179.551944 
L 372.793985 178.895049 
L 373.767949 177.505955 
L 374.741913 175.649669 
L 375.715876 173.350826 
L 377.014494 169.640879 
L 378.313113 165.280727 
L 379.936385 159.063695 
L 382.208967 149.337081 
L 383.507585 143.479856 
L 383.507585 143.479856 
" clip-path="url(#p68b405b950)" style="fill: none; stroke: #d62728; stroke-width: 1.5; stroke-linecap: square"/>
   </g>
   <g id="patch_3">
    <path d="M 42.620313 273.312 
L 42.620313 7.2 
" style="fill: none; stroke: #000000; stroke-width: 0.8; stroke-linejoin: miter; stroke-linecap: square"/>
   </g>
   <g id="patch_4">
    <path d="M 399.740313 273.312 
L 399.740313 7.2 
" style="fill: none; stroke: #000000; stroke-width: 0.8; stroke-linejoin: miter; stroke-linecap: square"/>
   </g>
   <g id="patch_5">
    <path d="M 42.620313 273.312 
L 399.740313 273.312 
" style="fill: none; stroke: #000000; stroke-width: 0.8; stroke-linejoin: miter; stroke-linecap: square"/>
   </g>
   <g id="patch_6">
    <path d="M 42.620313 7.2 
L 399.740313 7.2 
" style="fill: none; stroke: #000000; stroke-width: 0.8; stroke-linejoin: miter; stroke-linecap: square"/>
   </g>
   <g id="legend_1">
    <g id="patch_7">
     <path d="M 49.620313 73.9125 
L 157.420312 73.9125 
Q 159.420312 73.9125 159.420312 71.9125 
L 159.420312 14.2 
Q 159.420312 12.2 157.420312 12.2 
L 49.620313 12.2 
Q 47.620313 12.2 47.620313 14.2 
L 47.620313 71.9125 
Q 47.620313 73.9125 49.620313 73.9125 
z
" style="fill: #ffffff; opacity: 0.8; stroke: #cccccc; stroke-linejoin: miter"/>
    </g>
    <g id="line2d_17">
     <path d="M 51.620313 20.298437 
L 61.620313 20.298437 
L 71.620313 20.298437 
" style="fill: none; stroke: #1f77b4; stroke-width: 1.5; stroke-linecap: square"/>
    </g>
    <g id="text_15">
     <!-- $x(t): \omega_d = 2.00$  -->
     <g transform="translate(79.620313 23.798437) scale(0.1 -0.1)">
      <defs>
       <path id="DejaVuSans-Oblique-78" d="M 3841 3500 
L 2234 1784 
L 3219 0 
L 2559 0 
L 1819 1388 
L 531 0 
L -166 0 
L 1556 1844 
L 641 3500 
L 1300 3500 
L 1972 2234 
L 3144 3500 
L 3841 3500 
z
" transform="scale(0.015625)"/>
       <path id="DejaVuSans-Oblique-74" d="M 2706 3500 
L 2619 3053 
L 1472 3053 
L 1100 1153 
Q 1081 1047 1072 975 
Q 1063 903 1063 863 
Q 1063 663 1183 572 
Q 1303 481 1569 481 
L 2150 481 
L 2053 0 
L 1503 0 
Q 991 0 739 200 
Q 488 400 488 806 
Q 488 878 497 964 
Q 506 1050 525 1153 
L 897 3053 
L 409 3053 
L 500 3500 
L 978 3500 
L 1172 4494 
L 1747 4494 
L 1556 3500 
L 2706 3500 
z
" transform="scale(0.015625)"/>
       <path id="DejaVuSans-3a" d="M 750 794 
L 1409 794 
L 1409 0 
L 750 0 
L 750 794 
z
M 750 3309 
L 1409 3309 
L 1409 2516 
L 750 2516 
L 750 3309 
z
" transform="scale(0.015625)"/>
       <path id="DejaVuSans-Oblique-3c9" d="M 1369 -91 
Q 72 -91 434 1766 
Q 575 2500 1256 3500 
L 1875 3500 
Q 1231 2500 1088 1750 
Q 819 397 1519 397 
Q 2166 397 2478 2078 
L 3009 2078 
Q 2669 388 3316 397 
Q 4013 403 4275 1750 
Q 4419 2500 4169 3500 
L 4788 3500 
Q 5075 2500 4934 1766 
Q 4578 -94 3278 -91 
Q 2428 -88 2503 844 
Q 2194 -91 1369 -91 
z
" transform="scale(0.015625)"/>
       <path id="DejaVuSans-Oblique-64" d="M 2675 525 
Q 2444 222 2128 65 
Q 1813 -91 1428 -91 
Q 903 -91 598 267 
Q 294 625 294 1247 
Q 294 1766 478 2236 
Q 663 2706 1013 3078 
Q 1244 3325 1534 3454 
Q 1825 3584 2144 3584 
Q 2481 3584 2739 3421 
Q 2997 3259 3138 2956 
L 3513 4863 
L 4091 4863 
L 3144 0 
L 2566 0 
L 2675 525 
z
M 891 1350 
Q 891 897 1095 644 
Q 1300 391 1663 391 
Q 1931 391 2161 520 
Q 2391 650 2566 903 
Q 2750 1166 2856 1509 
Q 2963 1853 2963 2188 
Q 2963 2622 2758 2865 
Q 2553 3109 2194 3109 
Q 1922 3109 1687 2981 
Q 1453 2853 1288 2613 
Q 1106 2353 998 2009 
Q 891 1666 891 1350 
z
" transform="scale(0.015625)"/>
       <path id="DejaVuSans-3d" d="M 678 2906 
L 4684 2906 
L 4684 2381 
L 678 2381 
L 678 2906 
z
M 678 1631 
L 4684 1631 
L 4684 1100 
L 678 1100 
L 678 1631 
z
" transform="scale(0.015625)"/>
       <path id="DejaVuSans-2e" d="M 684 794 
L 1344 794 
L 1344 0 
L 684 0 
L 684 794 
z
" transform="scale(0.015625)"/>
      </defs>
      <use xlink:href="#DejaVuSans-Oblique-78" transform="translate(0 0.125)"/>
      <use xlink:href="#DejaVuSans-28" transform="translate(59.179688 0.125)"/>
      <use xlink:href="#DejaVuSans-Oblique-74" transform="translate(98.193359 0.125)"/>
      <use xlink:href="#DejaVuSans-29" transform="translate(137.402344 0.125)"/>
      <use xlink:href="#DejaVuSans-3a" transform="translate(195.898438 0.125)"/>
      <use xlink:href="#DejaVuSans-Oblique-3c9" transform="translate(249.072266 0.125)"/>
      <use xlink:href="#DejaVuSans-Oblique-64" transform="translate(332.8125 -16.28125) scale(0.7)"/>
      <use xlink:href="#DejaVuSans-3d" transform="translate(399.462891 0.125)"/>
      <use xlink:href="#DejaVuSans-32" transform="translate(502.734375 0.125)"/>
      <use xlink:href="#DejaVuSans-2e" transform="translate(566.357422 0.125)"/>
      <use xlink:href="#DejaVuSans-30" transform="translate(598.144531 0.125)"/>
      <use xlink:href="#DejaVuSans-30" transform="translate(661.767578 0.125)"/>
      <use xlink:href="#DejaVuSans-20" transform="translate(725.390625 0.125)"/>
     </g>
    </g>
    <g id="line2d_18">
     <path d="M 51.620313 34.976562 
L 61.620313 34.976562 
L 71.620313 34.976562 
" style="fill: none; stroke: #ff7f0e; stroke-width: 1.5; stroke-linecap: square"/>
    </g>
    <g id="text_16">
     <!-- $x(t): \omega_d = 1.40$  -->
     <g transform="translate(79.620313 38.476562) scale(0.1 -0.1)">
      <use xlink:href="#DejaVuSans-Oblique-78" transform="translate(0 0.125)"/>
      <use xlink:href="#DejaVuSans-28" transform="translate(59.179688 0.125)"/>
      <use xlink:href="#DejaVuSans-Oblique-74" transform="translate(98.193359 0.125)"/>
      <use xlink:href="#DejaVuSans-29" transform="translate(137.402344 0.125)"/>
      <use xlink:href="#DejaVuSans-3a" transform="translate(195.898438 0.125)"/>
      <use xlink:href="#DejaVuSans-Oblique-3c9" transform="translate(249.072266 0.125)"/>
      <use xlink:href="#DejaVuSans-Oblique-64" transform="translate(332.8125 -16.28125) scale(0.7)"/>
      <use xlink:href="#DejaVuSans-3d" transform="translate(399.462891 0.125)"/>
      <use xlink:href="#DejaVuSans-31" transform="translate(502.734375 0.125)"/>
      <use xlink:href="#DejaVuSans-2e" transform="translate(566.357422 0.125)"/>
      <use xlink:href="#DejaVuSans-34" transform="translate(598.144531 0.125)"/>
      <use xlink:href="#DejaVuSans-30" transform="translate(661.767578 0.125)"/>
      <use xlink:href="#DejaVuSans-20" transform="translate(725.390625 0.125)"/>
     </g>
    </g>
    <g id="line2d_19">
     <path d="M 51.620313 49.654687 
L 61.620313 49.654687 
L 71.620313 49.654687 
" style="fill: none; stroke: #2ca02c; stroke-width: 1.5; stroke-linecap: square"/>
    </g>
    <g id="text_17">
     <!-- $x(t): \omega_d = 1.00$  -->
     <g transform="translate(79.620313 53.154687) scale(0.1 -0.1)">
      <use xlink:href="#DejaVuSans-Oblique-78" transform="translate(0 0.125)"/>
      <use xlink:href="#DejaVuSans-28" transform="translate(59.179688 0.125)"/>
      <use xlink:href="#DejaVuSans-Oblique-74" transform="translate(98.193359 0.125)"/>
      <use xlink:href="#DejaVuSans-29" transform="translate(137.402344 0.125)"/>
      <use xlink:href="#DejaVuSans-3a" transform="translate(195.898438 0.125)"/>
      <use xlink:href="#DejaVuSans-Oblique-3c9" transform="translate(249.072266 0.125)"/>
      <use xlink:href="#DejaVuSans-Oblique-64" transform="translate(332.8125 -16.28125) scale(0.7)"/>
      <use xlink:href="#DejaVuSans-3d" transform="translate(399.462891 0.125)"/>
      <use xlink:href="#DejaVuSans-31" transform="translate(502.734375 0.125)"/>
      <use xlink:href="#DejaVuSans-2e" transform="translate(566.357422 0.125)"/>
      <use xlink:href="#DejaVuSans-30" transform="translate(598.144531 0.125)"/>
      <use xlink:href="#DejaVuSans-30" transform="translate(661.767578 0.125)"/>
      <use xlink:href="#DejaVuSans-20" transform="translate(725.390625 0.125)"/>
     </g>
    </g>
    <g id="line2d_20">
     <path d="M 51.620313 64.332812 
L 61.620313 64.332812 
L 71.620313 64.332812 
" style="fill: none; stroke: #d62728; stroke-width: 1.5; stroke-linecap: square"/>
    </g>
    <g id="text_18">
     <!-- $x(t): \omega_d = 0.40$  -->
     <g transform="translate(79.620313 67.832812) scale(0.1 -0.1)">
      <use xlink:href="#DejaVuSans-Oblique-78" transform="translate(0 0.125)"/>
      <use xlink:href="#DejaVuSans-28" transform="translate(59.179688 0.125)"/>
      <use xlink:href="#DejaVuSans-Oblique-74" transform="translate(98.193359 0.125)"/>
      <use xlink:href="#DejaVuSans-29" transform="translate(137.402344 0.125)"/>
      <use xlink:href="#DejaVuSans-3a" transform="translate(195.898438 0.125)"/>
      <use xlink:href="#DejaVuSans-Oblique-3c9" transform="translate(249.072266 0.125)"/>
      <use xlink:href="#DejaVuSans-Oblique-64" transform="translate(332.8125 -16.28125) scale(0.7)"/>
      <use xlink:href="#DejaVuSans-3d" transform="translate(399.462891 0.125)"/>
      <use xlink:href="#DejaVuSans-30" transform="translate(502.734375 0.125)"/>
      <use xlink:href="#DejaVuSans-2e" transform="translate(566.357422 0.125)"/>
      <use xlink:href="#DejaVuSans-34" transform="translate(598.144531 0.125)"/>
      <use xlink:href="#DejaVuSans-30" transform="translate(661.767578 0.125)"/>
      <use xlink:href="#DejaVuSans-20" transform="translate(725.390625 0.125)"/>
     </g>
    </g>
   </g>
  </g>
 </g>
 <defs>
  <clipPath id="p68b405b950">
   <rect x="42.620313" y="7.2" width="357.12" height="266.112"/>
  </clipPath>
 </defs>
</svg>
