<?xml version="1.0" encoding="utf-8" standalone="no"?>
<!DOCTYPE svg PUBLIC "-//W3C//DTD SVG 1.1//EN"
  "http://www.w3.org/Graphics/SVG/1.1/DTD/svg11.dtd">
<svg xmlns:xlink="http://www.w3.org/1999/xlink" width="453.143125pt" height="334.738125pt" viewBox="0 0 453.143125 334.738125" xmlns="http://www.w3.org/2000/svg" version="1.1">
 <metadata>
  <rdf:RDF xmlns:dc="http://purl.org/dc/elements/1.1/" xmlns:cc="http://creativecommons.org/ns#" xmlns:rdf="http://www.w3.org/1999/02/22-rdf-syntax-ns#">
   <cc:Work>
    <dc:type rdf:resource="http://purl.org/dc/dcmitype/StillImage"/>
    <dc:date>2024-09-29T17:10:02.638927</dc:date>
    <dc:format>image/svg+xml</dc:format>
    <dc:creator>
     <cc:Agent>
      <dc:title>Matplotlib v3.8.4, https://matplotlib.org/</dc:title>
     </cc:Agent>
    </dc:creator>
   </cc:Work>
  </rdf:RDF>
 </metadata>
 <defs>
  <style type="text/css">*{stroke-linejoin: round; stroke-linecap: butt}</style>
 </defs>
 <g id="figure_1">
  <g id="patch_1">
   <path d="M 0 334.738125 
L 453.143125 334.738125 
L 453.143125 0 
L 0 0 
z
" style="fill: #ffffff"/>
  </g>
  <g id="axes_1">
   <g id="patch_2">
    <path d="M 40.603125 297.16 
L 445.943125 297.16 
L 445.943125 7.2 
L 40.603125 7.2 
z
" style="fill: #ffffff"/>
   </g>
   <g id="matplotlib.axis_1">
    <g id="xtick_1">
     <g id="line2d_1">
      <defs>
       <path id="m69093a4353" d="M 0 0 
L 0 3.5 
" style="stroke: #000000; stroke-width: 0.8"/>
      </defs>
      <g>
       <use xlink:href="#m69093a4353" x="59.02767" y="297.16" style="stroke: #000000; stroke-width: 0.8"/>
      </g>
     </g>
     <g id="text_1">
      <!-- 0.00 -->
      <g transform="translate(47.894858 311.758437) scale(0.1 -0.1)">
       <defs>
        <path id="DejaVuSans-30" d="M 2034 4250 
Q 1547 4250 1301 3770 
Q 1056 3291 1056 2328 
Q 1056 1369 1301 889 
Q 1547 409 2034 409 
Q 2525 409 2770 889 
Q 3016 1369 3016 2328 
Q 3016 3291 2770 3770 
Q 2525 4250 2034 4250 
z
M 2034 4750 
Q 2819 4750 3233 4129 
Q 3647 3509 3647 2328 
Q 3647 1150 3233 529 
Q 2819 -91 2034 -91 
Q 1250 -91 836 529 
Q 422 1150 422 2328 
Q 422 3509 836 4129 
Q 1250 4750 2034 4750 
z
" transform="scale(0.015625)"/>
        <path id="DejaVuSans-2e" d="M 684 794 
L 1344 794 
L 1344 0 
L 684 0 
L 684 794 
z
" transform="scale(0.015625)"/>
       </defs>
       <use xlink:href="#DejaVuSans-30"/>
       <use xlink:href="#DejaVuSans-2e" x="63.623047"/>
       <use xlink:href="#DejaVuSans-30" x="95.410156"/>
       <use xlink:href="#DejaVuSans-30" x="159.033203"/>
      </g>
     </g>
    </g>
    <g id="xtick_2">
     <g id="line2d_2">
      <g>
       <use xlink:href="#m69093a4353" x="105.089034" y="297.16" style="stroke: #000000; stroke-width: 0.8"/>
      </g>
     </g>
     <g id="text_2">
      <!-- 0.25 -->
      <g transform="translate(93.956222 311.758437) scale(0.1 -0.1)">
       <defs>
        <path id="DejaVuSans-32" d="M 1228 531 
L 3431 531 
L 3431 0 
L 469 0 
L 469 531 
Q 828 903 1448 1529 
Q 2069 2156 2228 2338 
Q 2531 2678 2651 2914 
Q 2772 3150 2772 3378 
Q 2772 3750 2511 3984 
Q 2250 4219 1831 4219 
Q 1534 4219 1204 4116 
Q 875 4013 500 3803 
L 500 4441 
Q 881 4594 1212 4672 
Q 1544 4750 1819 4750 
Q 2544 4750 2975 4387 
Q 3406 4025 3406 3419 
Q 3406 3131 3298 2873 
Q 3191 2616 2906 2266 
Q 2828 2175 2409 1742 
Q 1991 1309 1228 531 
z
" transform="scale(0.015625)"/>
        <path id="DejaVuSans-35" d="M 691 4666 
L 3169 4666 
L 3169 4134 
L 1269 4134 
L 1269 2991 
Q 1406 3038 1543 3061 
Q 1681 3084 1819 3084 
Q 2600 3084 3056 2656 
Q 3513 2228 3513 1497 
Q 3513 744 3044 326 
Q 2575 -91 1722 -91 
Q 1428 -91 1123 -41 
Q 819 9 494 109 
L 494 744 
Q 775 591 1075 516 
Q 1375 441 1709 441 
Q 2250 441 2565 725 
Q 2881 1009 2881 1497 
Q 2881 1984 2565 2268 
Q 2250 2553 1709 2553 
Q 1456 2553 1204 2497 
Q 953 2441 691 2322 
L 691 4666 
z
" transform="scale(0.015625)"/>
       </defs>
       <use xlink:href="#DejaVuSans-30"/>
       <use xlink:href="#DejaVuSans-2e" x="63.623047"/>
       <use xlink:href="#DejaVuSans-32" x="95.410156"/>
       <use xlink:href="#DejaVuSans-35" x="159.033203"/>
      </g>
     </g>
    </g>
    <g id="xtick_3">
     <g id="line2d_3">
      <g>
       <use xlink:href="#m69093a4353" x="151.150398" y="297.16" style="stroke: #000000; stroke-width: 0.8"/>
      </g>
     </g>
     <g id="text_3">
      <!-- 0.50 -->
      <g transform="translate(140.017585 311.758437) scale(0.1 -0.1)">
       <use xlink:href="#DejaVuSans-30"/>
       <use xlink:href="#DejaVuSans-2e" x="63.623047"/>
       <use xlink:href="#DejaVuSans-35" x="95.410156"/>
       <use xlink:href="#DejaVuSans-30" x="159.033203"/>
      </g>
     </g>
    </g>
    <g id="xtick_4">
     <g id="line2d_4">
      <g>
       <use xlink:href="#m69093a4353" x="197.211761" y="297.16" style="stroke: #000000; stroke-width: 0.8"/>
      </g>
     </g>
     <g id="text_4">
      <!-- 0.75 -->
      <g transform="translate(186.078949 311.758437) scale(0.1 -0.1)">
       <defs>
        <path id="DejaVuSans-37" d="M 525 4666 
L 3525 4666 
L 3525 4397 
L 1831 0 
L 1172 0 
L 2766 4134 
L 525 4134 
L 525 4666 
z
" transform="scale(0.015625)"/>
       </defs>
       <use xlink:href="#DejaVuSans-30"/>
       <use xlink:href="#DejaVuSans-2e" x="63.623047"/>
       <use xlink:href="#DejaVuSans-37" x="95.410156"/>
       <use xlink:href="#DejaVuSans-35" x="159.033203"/>
      </g>
     </g>
    </g>
    <g id="xtick_5">
     <g id="line2d_5">
      <g>
       <use xlink:href="#m69093a4353" x="243.273125" y="297.16" style="stroke: #000000; stroke-width: 0.8"/>
      </g>
     </g>
     <g id="text_5">
      <!-- 1.00 -->
      <g transform="translate(232.140312 311.758437) scale(0.1 -0.1)">
       <defs>
        <path id="DejaVuSans-31" d="M 794 531 
L 1825 531 
L 1825 4091 
L 703 3866 
L 703 4441 
L 1819 4666 
L 2450 4666 
L 2450 531 
L 3481 531 
L 3481 0 
L 794 0 
L 794 531 
z
" transform="scale(0.015625)"/>
       </defs>
       <use xlink:href="#DejaVuSans-31"/>
       <use xlink:href="#DejaVuSans-2e" x="63.623047"/>
       <use xlink:href="#DejaVuSans-30" x="95.410156"/>
       <use xlink:href="#DejaVuSans-30" x="159.033203"/>
      </g>
     </g>
    </g>
    <g id="xtick_6">
     <g id="line2d_6">
      <g>
       <use xlink:href="#m69093a4353" x="289.334489" y="297.16" style="stroke: #000000; stroke-width: 0.8"/>
      </g>
     </g>
     <g id="text_6">
      <!-- 1.25 -->
      <g transform="translate(278.201676 311.758437) scale(0.1 -0.1)">
       <use xlink:href="#DejaVuSans-31"/>
       <use xlink:href="#DejaVuSans-2e" x="63.623047"/>
       <use xlink:href="#DejaVuSans-32" x="95.410156"/>
       <use xlink:href="#DejaVuSans-35" x="159.033203"/>
      </g>
     </g>
    </g>
    <g id="xtick_7">
     <g id="line2d_7">
      <g>
       <use xlink:href="#m69093a4353" x="335.395852" y="297.16" style="stroke: #000000; stroke-width: 0.8"/>
      </g>
     </g>
     <g id="text_7">
      <!-- 1.50 -->
      <g transform="translate(324.26304 311.758437) scale(0.1 -0.1)">
       <use xlink:href="#DejaVuSans-31"/>
       <use xlink:href="#DejaVuSans-2e" x="63.623047"/>
       <use xlink:href="#DejaVuSans-35" x="95.410156"/>
       <use xlink:href="#DejaVuSans-30" x="159.033203"/>
      </g>
     </g>
    </g>
    <g id="xtick_8">
     <g id="line2d_8">
      <g>
       <use xlink:href="#m69093a4353" x="381.457216" y="297.16" style="stroke: #000000; stroke-width: 0.8"/>
      </g>
     </g>
     <g id="text_8">
      <!-- 1.75 -->
      <g transform="translate(370.324403 311.758437) scale(0.1 -0.1)">
       <use xlink:href="#DejaVuSans-31"/>
       <use xlink:href="#DejaVuSans-2e" x="63.623047"/>
       <use xlink:href="#DejaVuSans-37" x="95.410156"/>
       <use xlink:href="#DejaVuSans-35" x="159.033203"/>
      </g>
     </g>
    </g>
    <g id="xtick_9">
     <g id="line2d_9">
      <g>
       <use xlink:href="#m69093a4353" x="427.51858" y="297.16" style="stroke: #000000; stroke-width: 0.8"/>
      </g>
     </g>
     <g id="text_9">
      <!-- 2.00 -->
      <g transform="translate(416.385767 311.758437) scale(0.1 -0.1)">
       <use xlink:href="#DejaVuSans-32"/>
       <use xlink:href="#DejaVuSans-2e" x="63.623047"/>
       <use xlink:href="#DejaVuSans-30" x="95.410156"/>
       <use xlink:href="#DejaVuSans-30" x="159.033203"/>
      </g>
     </g>
    </g>
    <g id="text_10">
     <!-- Driving frequency ($\omega_d)$ -->
     <g transform="translate(186.473125 325.438125) scale(0.1 -0.1)">
      <defs>
       <path id="DejaVuSans-44" d="M 1259 4147 
L 1259 519 
L 2022 519 
Q 2988 519 3436 956 
Q 3884 1394 3884 2338 
Q 3884 3275 3436 3711 
Q 2988 4147 2022 4147 
L 1259 4147 
z
M 628 4666 
L 1925 4666 
Q 3281 4666 3915 4102 
Q 4550 3538 4550 2338 
Q 4550 1131 3912 565 
Q 3275 0 1925 0 
L 628 0 
L 628 4666 
z
" transform="scale(0.015625)"/>
       <path id="DejaVuSans-72" d="M 2631 2963 
Q 2534 3019 2420 3045 
Q 2306 3072 2169 3072 
Q 1681 3072 1420 2755 
Q 1159 2438 1159 1844 
L 1159 0 
L 581 0 
L 581 3500 
L 1159 3500 
L 1159 2956 
Q 1341 3275 1631 3429 
Q 1922 3584 2338 3584 
Q 2397 3584 2469 3576 
Q 2541 3569 2628 3553 
L 2631 2963 
z
" transform="scale(0.015625)"/>
       <path id="DejaVuSans-69" d="M 603 3500 
L 1178 3500 
L 1178 0 
L 603 0 
L 603 3500 
z
M 603 4863 
L 1178 4863 
L 1178 4134 
L 603 4134 
L 603 4863 
z
" transform="scale(0.015625)"/>
       <path id="DejaVuSans-76" d="M 191 3500 
L 800 3500 
L 1894 563 
L 2988 3500 
L 3597 3500 
L 2284 0 
L 1503 0 
L 191 3500 
z
" transform="scale(0.015625)"/>
       <path id="DejaVuSans-6e" d="M 3513 2113 
L 3513 0 
L 2938 0 
L 2938 2094 
Q 2938 2591 2744 2837 
Q 2550 3084 2163 3084 
Q 1697 3084 1428 2787 
Q 1159 2491 1159 1978 
L 1159 0 
L 581 0 
L 581 3500 
L 1159 3500 
L 1159 2956 
Q 1366 3272 1645 3428 
Q 1925 3584 2291 3584 
Q 2894 3584 3203 3211 
Q 3513 2838 3513 2113 
z
" transform="scale(0.015625)"/>
       <path id="DejaVuSans-67" d="M 2906 1791 
Q 2906 2416 2648 2759 
Q 2391 3103 1925 3103 
Q 1463 3103 1205 2759 
Q 947 2416 947 1791 
Q 947 1169 1205 825 
Q 1463 481 1925 481 
Q 2391 481 2648 825 
Q 2906 1169 2906 1791 
z
M 3481 434 
Q 3481 -459 3084 -895 
Q 2688 -1331 1869 -1331 
Q 1566 -1331 1297 -1286 
Q 1028 -1241 775 -1147 
L 775 -588 
Q 1028 -725 1275 -790 
Q 1522 -856 1778 -856 
Q 2344 -856 2625 -561 
Q 2906 -266 2906 331 
L 2906 616 
Q 2728 306 2450 153 
Q 2172 0 1784 0 
Q 1141 0 747 490 
Q 353 981 353 1791 
Q 353 2603 747 3093 
Q 1141 3584 1784 3584 
Q 2172 3584 2450 3431 
Q 2728 3278 2906 2969 
L 2906 3500 
L 3481 3500 
L 3481 434 
z
" transform="scale(0.015625)"/>
       <path id="DejaVuSans-20" transform="scale(0.015625)"/>
       <path id="DejaVuSans-66" d="M 2375 4863 
L 2375 4384 
L 1825 4384 
Q 1516 4384 1395 4259 
Q 1275 4134 1275 3809 
L 1275 3500 
L 2222 3500 
L 2222 3053 
L 1275 3053 
L 1275 0 
L 697 0 
L 697 3053 
L 147 3053 
L 147 3500 
L 697 3500 
L 697 3744 
Q 697 4328 969 4595 
Q 1241 4863 1831 4863 
L 2375 4863 
z
" transform="scale(0.015625)"/>
       <path id="DejaVuSans-65" d="M 3597 1894 
L 3597 1613 
L 953 1613 
Q 991 1019 1311 708 
Q 1631 397 2203 397 
Q 2534 397 2845 478 
Q 3156 559 3463 722 
L 3463 178 
Q 3153 47 2828 -22 
Q 2503 -91 2169 -91 
Q 1331 -91 842 396 
Q 353 884 353 1716 
Q 353 2575 817 3079 
Q 1281 3584 2069 3584 
Q 2775 3584 3186 3129 
Q 3597 2675 3597 1894 
z
M 3022 2063 
Q 3016 2534 2758 2815 
Q 2500 3097 2075 3097 
Q 1594 3097 1305 2825 
Q 1016 2553 972 2059 
L 3022 2063 
z
" transform="scale(0.015625)"/>
       <path id="DejaVuSans-71" d="M 947 1747 
Q 947 1113 1208 752 
Q 1469 391 1925 391 
Q 2381 391 2643 752 
Q 2906 1113 2906 1747 
Q 2906 2381 2643 2742 
Q 2381 3103 1925 3103 
Q 1469 3103 1208 2742 
Q 947 2381 947 1747 
z
M 2906 525 
Q 2725 213 2448 61 
Q 2172 -91 1784 -91 
Q 1150 -91 751 415 
Q 353 922 353 1747 
Q 353 2572 751 3078 
Q 1150 3584 1784 3584 
Q 2172 3584 2448 3432 
Q 2725 3281 2906 2969 
L 2906 3500 
L 3481 3500 
L 3481 -1331 
L 2906 -1331 
L 2906 525 
z
" transform="scale(0.015625)"/>
       <path id="DejaVuSans-75" d="M 544 1381 
L 544 3500 
L 1119 3500 
L 1119 1403 
Q 1119 906 1312 657 
Q 1506 409 1894 409 
Q 2359 409 2629 706 
Q 2900 1003 2900 1516 
L 2900 3500 
L 3475 3500 
L 3475 0 
L 2900 0 
L 2900 538 
Q 2691 219 2414 64 
Q 2138 -91 1772 -91 
Q 1169 -91 856 284 
Q 544 659 544 1381 
z
M 1991 3584 
L 1991 3584 
z
" transform="scale(0.015625)"/>
       <path id="DejaVuSans-63" d="M 3122 3366 
L 3122 2828 
Q 2878 2963 2633 3030 
Q 2388 3097 2138 3097 
Q 1578 3097 1268 2742 
Q 959 2388 959 1747 
Q 959 1106 1268 751 
Q 1578 397 2138 397 
Q 2388 397 2633 464 
Q 2878 531 3122 666 
L 3122 134 
Q 2881 22 2623 -34 
Q 2366 -91 2075 -91 
Q 1284 -91 818 406 
Q 353 903 353 1747 
Q 353 2603 823 3093 
Q 1294 3584 2113 3584 
Q 2378 3584 2631 3529 
Q 2884 3475 3122 3366 
z
" transform="scale(0.015625)"/>
       <path id="DejaVuSans-79" d="M 2059 -325 
Q 1816 -950 1584 -1140 
Q 1353 -1331 966 -1331 
L 506 -1331 
L 506 -850 
L 844 -850 
Q 1081 -850 1212 -737 
Q 1344 -625 1503 -206 
L 1606 56 
L 191 3500 
L 800 3500 
L 1894 763 
L 2988 3500 
L 3597 3500 
L 2059 -325 
z
" transform="scale(0.015625)"/>
       <path id="DejaVuSans-28" d="M 1984 4856 
Q 1566 4138 1362 3434 
Q 1159 2731 1159 2009 
Q 1159 1288 1364 580 
Q 1569 -128 1984 -844 
L 1484 -844 
Q 1016 -109 783 600 
Q 550 1309 550 2009 
Q 550 2706 781 3412 
Q 1013 4119 1484 4856 
L 1984 4856 
z
" transform="scale(0.015625)"/>
       <path id="DejaVuSans-Oblique-3c9" d="M 1369 -91 
Q 72 -91 434 1766 
Q 575 2500 1256 3500 
L 1875 3500 
Q 1231 2500 1088 1750 
Q 819 397 1519 397 
Q 2166 397 2478 2078 
L 3009 2078 
Q 2669 388 3316 397 
Q 4013 403 4275 1750 
Q 4419 2500 4169 3500 
L 4788 3500 
Q 5075 2500 4934 1766 
Q 4578 -94 3278 -91 
Q 2428 -88 2503 844 
Q 2194 -91 1369 -91 
z
" transform="scale(0.015625)"/>
       <path id="DejaVuSans-Oblique-64" d="M 2675 525 
Q 2444 222 2128 65 
Q 1813 -91 1428 -91 
Q 903 -91 598 267 
Q 294 625 294 1247 
Q 294 1766 478 2236 
Q 663 2706 1013 3078 
Q 1244 3325 1534 3454 
Q 1825 3584 2144 3584 
Q 2481 3584 2739 3421 
Q 2997 3259 3138 2956 
L 3513 4863 
L 4091 4863 
L 3144 0 
L 2566 0 
L 2675 525 
z
M 891 1350 
Q 891 897 1095 644 
Q 1300 391 1663 391 
Q 1931 391 2161 520 
Q 2391 650 2566 903 
Q 2750 1166 2856 1509 
Q 2963 1853 2963 2188 
Q 2963 2622 2758 2865 
Q 2553 3109 2194 3109 
Q 1922 3109 1687 2981 
Q 1453 2853 1288 2613 
Q 1106 2353 998 2009 
Q 891 1666 891 1350 
z
" transform="scale(0.015625)"/>
       <path id="DejaVuSans-29" d="M 513 4856 
L 1013 4856 
Q 1481 4119 1714 3412 
Q 1947 2706 1947 2009 
Q 1947 1309 1714 600 
Q 1481 -109 1013 -844 
L 513 -844 
Q 928 -128 1133 580 
Q 1338 1288 1338 2009 
Q 1338 2731 1133 3434 
Q 928 4138 513 4856 
z
" transform="scale(0.015625)"/>
      </defs>
      <use xlink:href="#DejaVuSans-44" transform="translate(0 0.015625)"/>
      <use xlink:href="#DejaVuSans-72" transform="translate(77.001953 0.015625)"/>
      <use xlink:href="#DejaVuSans-69" transform="translate(118.115234 0.015625)"/>
      <use xlink:href="#DejaVuSans-76" transform="translate(145.898438 0.015625)"/>
      <use xlink:href="#DejaVuSans-69" transform="translate(205.078125 0.015625)"/>
      <use xlink:href="#DejaVuSans-6e" transform="translate(232.861328 0.015625)"/>
      <use xlink:href="#DejaVuSans-67" transform="translate(296.240234 0.015625)"/>
      <use xlink:href="#DejaVuSans-20" transform="translate(359.716797 0.015625)"/>
      <use xlink:href="#DejaVuSans-66" transform="translate(391.503906 0.015625)"/>
      <use xlink:href="#DejaVuSans-72" transform="translate(426.708984 0.015625)"/>
      <use xlink:href="#DejaVuSans-65" transform="translate(467.822266 0.015625)"/>
      <use xlink:href="#DejaVuSans-71" transform="translate(529.345703 0.015625)"/>
      <use xlink:href="#DejaVuSans-75" transform="translate(592.822266 0.015625)"/>
      <use xlink:href="#DejaVuSans-65" transform="translate(656.201172 0.015625)"/>
      <use xlink:href="#DejaVuSans-6e" transform="translate(717.724609 0.015625)"/>
      <use xlink:href="#DejaVuSans-63" transform="translate(781.103516 0.015625)"/>
      <use xlink:href="#DejaVuSans-79" transform="translate(836.083984 0.015625)"/>
      <use xlink:href="#DejaVuSans-20" transform="translate(895.263672 0.015625)"/>
      <use xlink:href="#DejaVuSans-28" transform="translate(927.050781 0.015625)"/>
      <use xlink:href="#DejaVuSans-Oblique-3c9" transform="translate(966.064453 0.015625)"/>
      <use xlink:href="#DejaVuSans-Oblique-64" transform="translate(1049.804688 -16.390625) scale(0.7)"/>
      <use xlink:href="#DejaVuSans-29" transform="translate(1096.972656 0.015625)"/>
     </g>
    </g>
   </g>
   <g id="matplotlib.axis_2">
    <g id="ytick_1">
     <g id="line2d_10">
      <defs>
       <path id="m98c1d8ce4d" d="M 0 0 
L -3.5 0 
" style="stroke: #000000; stroke-width: 0.8"/>
      </defs>
      <g>
       <use xlink:href="#m98c1d8ce4d" x="40.603125" y="288.478488" style="stroke: #000000; stroke-width: 0.8"/>
      </g>
     </g>
     <g id="text_11">
      <!-- 0 -->
      <g transform="translate(27.240625 292.277706) scale(0.1 -0.1)">
       <use xlink:href="#DejaVuSans-30"/>
      </g>
     </g>
    </g>
    <g id="ytick_2">
     <g id="line2d_11">
      <g>
       <use xlink:href="#m98c1d8ce4d" x="40.603125" y="251.480595" style="stroke: #000000; stroke-width: 0.8"/>
      </g>
     </g>
     <g id="text_12">
      <!-- 5 -->
      <g transform="translate(27.240625 255.279814) scale(0.1 -0.1)">
       <use xlink:href="#DejaVuSans-35"/>
      </g>
     </g>
    </g>
    <g id="ytick_3">
     <g id="line2d_12">
      <g>
       <use xlink:href="#m98c1d8ce4d" x="40.603125" y="214.482703" style="stroke: #000000; stroke-width: 0.8"/>
      </g>
     </g>
     <g id="text_13">
      <!-- 10 -->
      <g transform="translate(20.878125 218.281922) scale(0.1 -0.1)">
       <use xlink:href="#DejaVuSans-31"/>
       <use xlink:href="#DejaVuSans-30" x="63.623047"/>
      </g>
     </g>
    </g>
    <g id="ytick_4">
     <g id="line2d_13">
      <g>
       <use xlink:href="#m98c1d8ce4d" x="40.603125" y="177.484811" style="stroke: #000000; stroke-width: 0.8"/>
      </g>
     </g>
     <g id="text_14">
      <!-- 15 -->
      <g transform="translate(20.878125 181.284029) scale(0.1 -0.1)">
       <use xlink:href="#DejaVuSans-31"/>
       <use xlink:href="#DejaVuSans-35" x="63.623047"/>
      </g>
     </g>
    </g>
    <g id="ytick_5">
     <g id="line2d_14">
      <g>
       <use xlink:href="#m98c1d8ce4d" x="40.603125" y="140.486918" style="stroke: #000000; stroke-width: 0.8"/>
      </g>
     </g>
     <g id="text_15">
      <!-- 20 -->
      <g transform="translate(20.878125 144.286137) scale(0.1 -0.1)">
       <use xlink:href="#DejaVuSans-32"/>
       <use xlink:href="#DejaVuSans-30" x="63.623047"/>
      </g>
     </g>
    </g>
    <g id="ytick_6">
     <g id="line2d_15">
      <g>
       <use xlink:href="#m98c1d8ce4d" x="40.603125" y="103.489026" style="stroke: #000000; stroke-width: 0.8"/>
      </g>
     </g>
     <g id="text_16">
      <!-- 25 -->
      <g transform="translate(20.878125 107.288245) scale(0.1 -0.1)">
       <use xlink:href="#DejaVuSans-32"/>
       <use xlink:href="#DejaVuSans-35" x="63.623047"/>
      </g>
     </g>
    </g>
    <g id="ytick_7">
     <g id="line2d_16">
      <g>
       <use xlink:href="#m98c1d8ce4d" x="40.603125" y="66.491134" style="stroke: #000000; stroke-width: 0.8"/>
      </g>
     </g>
     <g id="text_17">
      <!-- 30 -->
      <g transform="translate(20.878125 70.290352) scale(0.1 -0.1)">
       <defs>
        <path id="DejaVuSans-33" d="M 2597 2516 
Q 3050 2419 3304 2112 
Q 3559 1806 3559 1356 
Q 3559 666 3084 287 
Q 2609 -91 1734 -91 
Q 1441 -91 1130 -33 
Q 819 25 488 141 
L 488 750 
Q 750 597 1062 519 
Q 1375 441 1716 441 
Q 2309 441 2620 675 
Q 2931 909 2931 1356 
Q 2931 1769 2642 2001 
Q 2353 2234 1838 2234 
L 1294 2234 
L 1294 2753 
L 1863 2753 
Q 2328 2753 2575 2939 
Q 2822 3125 2822 3475 
Q 2822 3834 2567 4026 
Q 2313 4219 1838 4219 
Q 1578 4219 1281 4162 
Q 984 4106 628 3988 
L 628 4550 
Q 988 4650 1302 4700 
Q 1616 4750 1894 4750 
Q 2613 4750 3031 4423 
Q 3450 4097 3450 3541 
Q 3450 3153 3228 2886 
Q 3006 2619 2597 2516 
z
" transform="scale(0.015625)"/>
       </defs>
       <use xlink:href="#DejaVuSans-33"/>
       <use xlink:href="#DejaVuSans-30" x="63.623047"/>
      </g>
     </g>
    </g>
    <g id="ytick_8">
     <g id="line2d_17">
      <g>
       <use xlink:href="#m98c1d8ce4d" x="40.603125" y="29.493241" style="stroke: #000000; stroke-width: 0.8"/>
      </g>
     </g>
     <g id="text_18">
      <!-- 35 -->
      <g transform="translate(20.878125 33.29246) scale(0.1 -0.1)">
       <use xlink:href="#DejaVuSans-33"/>
       <use xlink:href="#DejaVuSans-35" x="63.623047"/>
      </g>
     </g>
    </g>
    <g id="text_19">
     <!-- Amplitude (A) -->
     <g transform="translate(14.798438 186.713594) rotate(-90) scale(0.1 -0.1)">
      <defs>
       <path id="DejaVuSans-41" d="M 2188 4044 
L 1331 1722 
L 3047 1722 
L 2188 4044 
z
M 1831 4666 
L 2547 4666 
L 4325 0 
L 3669 0 
L 3244 1197 
L 1141 1197 
L 716 0 
L 50 0 
L 1831 4666 
z
" transform="scale(0.015625)"/>
       <path id="DejaVuSans-6d" d="M 3328 2828 
Q 3544 3216 3844 3400 
Q 4144 3584 4550 3584 
Q 5097 3584 5394 3201 
Q 5691 2819 5691 2113 
L 5691 0 
L 5113 0 
L 5113 2094 
Q 5113 2597 4934 2840 
Q 4756 3084 4391 3084 
Q 3944 3084 3684 2787 
Q 3425 2491 3425 1978 
L 3425 0 
L 2847 0 
L 2847 2094 
Q 2847 2600 2669 2842 
Q 2491 3084 2119 3084 
Q 1678 3084 1418 2786 
Q 1159 2488 1159 1978 
L 1159 0 
L 581 0 
L 581 3500 
L 1159 3500 
L 1159 2956 
Q 1356 3278 1631 3431 
Q 1906 3584 2284 3584 
Q 2666 3584 2933 3390 
Q 3200 3197 3328 2828 
z
" transform="scale(0.015625)"/>
       <path id="DejaVuSans-70" d="M 1159 525 
L 1159 -1331 
L 581 -1331 
L 581 3500 
L 1159 3500 
L 1159 2969 
Q 1341 3281 1617 3432 
Q 1894 3584 2278 3584 
Q 2916 3584 3314 3078 
Q 3713 2572 3713 1747 
Q 3713 922 3314 415 
Q 2916 -91 2278 -91 
Q 1894 -91 1617 61 
Q 1341 213 1159 525 
z
M 3116 1747 
Q 3116 2381 2855 2742 
Q 2594 3103 2138 3103 
Q 1681 3103 1420 2742 
Q 1159 2381 1159 1747 
Q 1159 1113 1420 752 
Q 1681 391 2138 391 
Q 2594 391 2855 752 
Q 3116 1113 3116 1747 
z
" transform="scale(0.015625)"/>
       <path id="DejaVuSans-6c" d="M 603 4863 
L 1178 4863 
L 1178 0 
L 603 0 
L 603 4863 
z
" transform="scale(0.015625)"/>
       <path id="DejaVuSans-74" d="M 1172 4494 
L 1172 3500 
L 2356 3500 
L 2356 3053 
L 1172 3053 
L 1172 1153 
Q 1172 725 1289 603 
Q 1406 481 1766 481 
L 2356 481 
L 2356 0 
L 1766 0 
Q 1100 0 847 248 
Q 594 497 594 1153 
L 594 3053 
L 172 3053 
L 172 3500 
L 594 3500 
L 594 4494 
L 1172 4494 
z
" transform="scale(0.015625)"/>
       <path id="DejaVuSans-64" d="M 2906 2969 
L 2906 4863 
L 3481 4863 
L 3481 0 
L 2906 0 
L 2906 525 
Q 2725 213 2448 61 
Q 2172 -91 1784 -91 
Q 1150 -91 751 415 
Q 353 922 353 1747 
Q 353 2572 751 3078 
Q 1150 3584 1784 3584 
Q 2172 3584 2448 3432 
Q 2725 3281 2906 2969 
z
M 947 1747 
Q 947 1113 1208 752 
Q 1469 391 1925 391 
Q 2381 391 2643 752 
Q 2906 1113 2906 1747 
Q 2906 2381 2643 2742 
Q 2381 3103 1925 3103 
Q 1469 3103 1208 2742 
Q 947 2381 947 1747 
z
" transform="scale(0.015625)"/>
      </defs>
      <use xlink:href="#DejaVuSans-41"/>
      <use xlink:href="#DejaVuSans-6d" x="68.408203"/>
      <use xlink:href="#DejaVuSans-70" x="165.820312"/>
      <use xlink:href="#DejaVuSans-6c" x="229.296875"/>
      <use xlink:href="#DejaVuSans-69" x="257.080078"/>
      <use xlink:href="#DejaVuSans-74" x="284.863281"/>
      <use xlink:href="#DejaVuSans-75" x="324.072266"/>
      <use xlink:href="#DejaVuSans-64" x="387.451172"/>
      <use xlink:href="#DejaVuSans-65" x="450.927734"/>
      <use xlink:href="#DejaVuSans-20" x="512.451172"/>
      <use xlink:href="#DejaVuSans-28" x="544.238281"/>
      <use xlink:href="#DejaVuSans-41" x="583.251953"/>
      <use xlink:href="#DejaVuSans-29" x="651.660156"/>
     </g>
    </g>
   </g>
   <g id="line2d_18">
    <path d="M 59.02767 281.192157 
L 62.749801 281.339292 
L 66.471931 281.485901 
L 70.194062 281.631453 
L 73.916192 281.775421 
L 77.638322 281.885053 
L 81.360453 281.771659 
L 85.082583 281.704846 
L 88.804714 281.637795 
L 92.526844 281.543924 
L 96.248974 281.50421 
L 99.971105 281.542675 
L 103.693235 281.65929 
L 107.415366 281.54524 
L 111.137496 281.439287 
L 114.859626 281.35218 
L 118.581757 281.297805 
L 122.303887 281.287515 
L 126.026018 281.321478 
L 129.748148 281.408719 
L 133.470278 281.557556 
L 137.192409 281.441595 
L 140.914539 281.481164 
L 144.63667 281.587229 
L 148.3588 281.881881 
L 152.08093 282.271213 
L 155.803061 281.556734 
L 159.525191 281.366407 
L 163.247322 281.246357 
L 166.969452 281.18922 
L 170.691582 281.090919 
L 174.413713 280.622933 
L 178.135843 279.637747 
L 181.857973 278.741642 
L 185.580104 277.16685 
L 189.302234 275.665732 
L 193.024365 273.93516 
L 196.746495 272.172455 
L 200.468625 269.520849 
L 204.190756 266.69931 
L 207.912886 263.491556 
L 211.635017 259.352067 
L 215.357147 254.279179 
L 219.079277 247.963654 
L 222.801408 239.608996 
L 226.523538 228.168442 
L 230.245669 211.377323 
L 233.967799 184.635895 
L 237.689929 134.838523 
L 241.41206 27.0571 
L 245.13419 20.38 
L 248.856321 122.177106 
L 252.578451 169.743259 
L 256.300581 195.085831 
L 260.022712 210.834233 
L 263.744842 221.657804 
L 267.466973 229.429905 
L 271.189103 235.403365 
L 274.911233 240.020732 
L 278.633364 244.179705 
L 282.355494 246.909349 
L 286.077625 249.821513 
L 289.799755 252.081141 
L 293.521885 253.757545 
L 297.244016 255.537101 
L 300.966146 257.395822 
L 304.688277 258.866755 
L 308.410407 259.698271 
L 312.132537 260.581299 
L 315.854668 261.586683 
L 319.576798 262.470213 
L 323.298928 263.490338 
L 327.021059 264.429685 
L 330.743189 265.497479 
L 334.46532 266.390169 
L 338.18745 266.751044 
L 341.90958 266.942634 
L 345.631711 267.002879 
L 349.353841 267.238241 
L 353.075972 267.675004 
L 356.798102 268.207483 
L 360.520232 268.877078 
L 364.242363 269.256407 
L 367.964493 269.640343 
L 371.686624 269.755271 
L 375.408754 269.75491 
L 379.130884 269.878533 
L 382.853015 270.087529 
L 386.575145 270.309561 
L 390.297276 270.640432 
L 394.019406 270.972353 
L 397.741536 271.148377 
L 401.463667 271.412791 
L 405.185797 271.826696 
L 408.907928 272.186608 
L 412.630058 272.646063 
L 416.352188 273.1637 
L 420.074319 273.954356 
L 423.796449 275.146929 
L 427.51858 275.711466 
" clip-path="url(#p7660e267e3)" style="fill: none; stroke: #1f77b4; stroke-width: 1.5; stroke-linecap: square"/>
   </g>
   <g id="line2d_19">
    <path d="M 59.02767 281.410782 
L 62.749801 281.553507 
L 66.471931 281.695717 
L 70.194062 281.836891 
L 73.916192 281.976514 
L 77.638322 282.114075 
L 81.360453 282.24907 
L 85.082583 282.381003 
L 88.804714 282.350924 
L 92.526844 282.238786 
L 96.248974 282.177161 
L 99.971105 282.183932 
L 103.693235 282.096538 
L 107.415366 281.968231 
L 111.137496 281.846808 
L 114.859626 281.743185 
L 118.581757 281.670232 
L 122.303887 281.629104 
L 126.026018 281.632731 
L 129.748148 281.688935 
L 133.470278 281.792658 
L 137.192409 281.943664 
L 140.914539 281.910507 
L 144.63667 282.080246 
L 148.3588 282.299644 
L 152.08093 282.2773 
L 155.803061 281.93771 
L 159.525191 281.648635 
L 163.247322 281.408838 
L 166.969452 281.305078 
L 170.691582 281.108909 
L 174.413713 280.537552 
L 178.135843 279.769014 
L 181.857973 278.751399 
L 185.580104 277.517083 
L 189.302234 276.13722 
L 193.024365 274.651486 
L 196.746495 273.12214 
L 200.468625 270.84385 
L 204.190756 268.481997 
L 207.912886 265.945331 
L 211.635017 262.532136 
L 215.357147 258.745074 
L 219.079277 254.139004 
L 222.801408 248.187568 
L 226.523538 240.758858 
L 230.245669 230.831477 
L 233.967799 217.150362 
L 237.689929 197.756842 
L 241.41206 172.310905 
L 245.13419 171.295149 
L 248.856321 193.738378 
L 252.578451 210.353822 
L 256.300581 221.724771 
L 260.022712 229.997215 
L 263.744842 236.058239 
L 267.466973 240.886343 
L 271.189103 244.839085 
L 274.911233 248.059501 
L 278.633364 250.623103 
L 282.355494 252.883731 
L 286.077625 254.941337 
L 289.799755 256.380187 
L 293.521885 257.846813 
L 297.244016 259.41538 
L 300.966146 260.805946 
L 304.688277 261.581072 
L 308.410407 262.290368 
L 312.132537 263.163758 
L 315.854668 263.946933 
L 319.576798 264.830185 
L 323.298928 265.697105 
L 327.021059 266.626298 
L 330.743189 267.472186 
L 334.46532 267.834194 
L 338.18745 268.115756 
L 341.90958 268.383687 
L 345.631711 268.706788 
L 349.353841 269.072736 
L 353.075972 269.382977 
L 356.798102 269.727362 
L 360.520232 270.07324 
L 364.242363 270.406433 
L 367.964493 270.732782 
L 371.686624 271.097101 
L 375.408754 271.495281 
L 379.130884 271.68378 
L 382.853015 271.865492 
L 386.575145 272.019164 
L 390.297276 272.291479 
L 394.019406 272.604749 
L 397.741536 272.961562 
L 401.463667 273.404218 
L 405.185797 273.831667 
L 408.907928 274.234788 
L 412.630058 274.702883 
L 416.352188 275.25296 
L 420.074319 275.760657 
L 423.796449 276.1241 
L 427.51858 276.209696 
" clip-path="url(#p7660e267e3)" style="fill: none; stroke: #ff7f0e; stroke-width: 1.5; stroke-linecap: square"/>
   </g>
   <g id="line2d_20">
    <path d="M 59.02767 282.026953 
L 62.749801 282.155385 
L 66.471931 282.283408 
L 70.194062 282.410616 
L 73.916192 282.536602 
L 77.638322 282.660965 
L 81.360453 282.783308 
L 85.082583 282.903239 
L 88.804714 283.020372 
L 92.526844 283.134333 
L 96.248974 283.244752 
L 99.971105 283.271956 
L 103.693235 283.116926 
L 107.415366 282.955477 
L 111.137496 282.79644 
L 114.859626 282.646339 
L 118.581757 282.517745 
L 122.303887 282.417071 
L 126.026018 282.346153 
L 129.748148 282.307509 
L 133.470278 282.302268 
L 137.192409 282.326163 
L 140.914539 282.370911 
L 144.63667 282.42095 
L 148.3588 282.447322 
L 152.08093 282.292696 
L 155.803061 282.121673 
L 159.525191 281.922859 
L 163.247322 281.686739 
L 166.969452 281.45776 
L 170.691582 281.128927 
L 174.413713 280.546128 
L 178.135843 279.890851 
L 181.857973 279.166641 
L 185.580104 278.351276 
L 189.302234 277.479647 
L 193.024365 276.56112 
L 196.746495 275.414288 
L 200.468625 274.095377 
L 204.190756 272.763538 
L 207.912886 271.318152 
L 211.635017 269.587194 
L 215.357147 267.826758 
L 219.079277 265.745992 
L 222.801408 263.500933 
L 226.523538 261.003504 
L 230.245669 258.34012 
L 233.967799 255.627428 
L 237.689929 253.174339 
L 241.41206 251.714907 
L 245.13419 251.697515 
L 248.856321 252.971513 
L 252.578451 254.794472 
L 256.300581 256.499393 
L 260.022712 258.179867 
L 263.744842 259.672717 
L 267.466973 260.971017 
L 271.189103 262.050859 
L 274.911233 263.125379 
L 278.633364 264.15015 
L 282.355494 264.869973 
L 286.077625 265.690387 
L 289.799755 266.538147 
L 293.521885 267.146644 
L 297.244016 267.662807 
L 300.966146 268.05466 
L 304.688277 268.582164 
L 308.410407 269.107329 
L 312.132537 269.634624 
L 315.854668 270.245216 
L 319.576798 270.798395 
L 323.298928 271.19224 
L 327.021059 271.415938 
L 330.743189 271.568377 
L 334.46532 271.758209 
L 338.18745 272.003472 
L 341.90958 272.21204 
L 345.631711 272.451787 
L 349.353841 272.70052 
L 353.075972 272.917204 
L 356.798102 273.14308 
L 360.520232 273.412035 
L 364.242363 273.690029 
L 367.964493 273.943931 
L 371.686624 274.200717 
L 375.408754 274.477721 
L 379.130884 274.715425 
L 382.853015 274.972956 
L 386.575145 275.261636 
L 390.297276 275.5648 
L 394.019406 275.830627 
L 397.741536 276.078308 
L 401.463667 276.351114 
L 405.185797 276.623141 
L 408.907928 276.873718 
L 412.630058 277.147224 
L 416.352188 277.441141 
L 420.074319 277.591148 
L 423.796449 277.629823 
L 427.51858 277.661749 
" clip-path="url(#p7660e267e3)" style="fill: none; stroke: #2ca02c; stroke-width: 1.5; stroke-linecap: square"/>
   </g>
   <g id="line2d_21">
    <path d="M 59.02767 282.665527 
L 62.749801 282.776664 
L 66.471931 282.88746 
L 70.194062 282.997675 
L 73.916192 283.106958 
L 77.638322 283.215002 
L 81.360453 283.321121 
L 85.082583 283.4239 
L 88.804714 283.524912 
L 92.526844 283.623915 
L 96.248974 283.720675 
L 99.971105 283.80063 
L 103.693235 283.788372 
L 107.415366 283.615079 
L 111.137496 283.433453 
L 114.859626 283.260658 
L 118.581757 283.102739 
L 122.303887 282.963762 
L 126.026018 282.845042 
L 129.748148 282.746208 
L 133.470278 282.66526 
L 137.192409 282.598559 
L 140.914539 282.540466 
L 144.63667 282.489158 
L 148.3588 282.434612 
L 152.08093 282.357409 
L 155.803061 282.200857 
L 159.525191 282.034889 
L 163.247322 281.854315 
L 166.969452 281.664412 
L 170.691582 281.454855 
L 174.413713 281.174495 
L 178.135843 280.689076 
L 181.857973 280.178682 
L 185.580104 279.658915 
L 189.302234 279.125535 
L 193.024365 278.501571 
L 196.746495 277.823377 
L 200.468625 277.141094 
L 204.190756 276.452327 
L 207.912886 275.685294 
L 211.635017 274.911108 
L 215.357147 274.124274 
L 219.079277 273.326194 
L 222.801408 272.548503 
L 226.523538 271.794544 
L 230.245669 271.130052 
L 233.967799 270.591761 
L 237.689929 270.213418 
L 241.41206 270.021774 
L 245.13419 270.016226 
L 248.856321 270.191462 
L 252.578451 270.464276 
L 256.300581 270.793372 
L 260.022712 271.149077 
L 263.744842 271.483908 
L 267.466973 271.833417 
L 271.189103 272.105458 
L 274.911233 272.429814 
L 278.633364 272.760232 
L 282.355494 273.038008 
L 286.077625 273.24655 
L 289.799755 273.456775 
L 293.521885 273.694929 
L 297.244016 273.965677 
L 300.966146 274.263525 
L 304.688277 274.528063 
L 308.410407 274.888946 
L 312.132537 274.978996 
L 315.854668 275.078515 
L 319.576798 275.210506 
L 323.298928 275.277242 
L 327.021059 275.398424 
L 330.743189 275.535548 
L 334.46532 275.661126 
L 338.18745 275.820894 
L 341.90958 275.94741 
L 345.631711 276.07489 
L 349.353841 276.246454 
L 353.075972 276.41023 
L 356.798102 276.574556 
L 360.520232 276.7451 
L 364.242363 276.905872 
L 367.964493 277.053617 
L 371.686624 277.236902 
L 375.408754 277.442211 
L 379.130884 277.610783 
L 382.853015 277.785889 
L 386.575145 277.973486 
L 390.297276 278.13622 
L 394.019406 278.305217 
L 397.741536 278.501605 
L 401.463667 278.716622 
L 405.185797 278.785722 
L 408.907928 278.811747 
L 412.630058 278.835014 
L 416.352188 278.864617 
L 420.074319 278.900432 
L 423.796449 278.942317 
L 427.51858 278.990116 
" clip-path="url(#p7660e267e3)" style="fill: none; stroke: #d62728; stroke-width: 1.5; stroke-linecap: square"/>
   </g>
   <g id="line2d_22">
    <path d="M 59.02767 283.111789 
L 62.749801 283.208425 
L 66.471931 283.304832 
L 70.194062 283.40077 
L 73.916192 283.495944 
L 77.638322 283.590175 
L 81.360453 283.680688 
L 85.082583 283.769767 
L 88.804714 283.857514 
L 92.526844 283.943752 
L 96.248974 283.98 
L 99.971105 283.901894 
L 103.693235 283.837166 
L 107.415366 283.749846 
L 111.137496 283.660484 
L 114.859626 283.51029 
L 118.581757 283.359683 
L 122.303887 283.221447 
L 126.026018 283.095126 
L 129.748148 282.982232 
L 133.470278 282.87874 
L 137.192409 282.784625 
L 140.914539 282.697158 
L 144.63667 282.613765 
L 148.3588 282.532738 
L 152.08093 282.452149 
L 155.803061 282.317815 
L 159.525191 282.174396 
L 163.247322 282.024867 
L 166.969452 281.868257 
L 170.691582 281.6989 
L 174.413713 281.518038 
L 178.135843 281.333913 
L 181.857973 281.137656 
L 185.580104 280.842008 
L 189.302234 280.452412 
L 193.024365 280.052616 
L 196.746495 279.647704 
L 200.468625 279.255593 
L 204.190756 278.846166 
L 207.912886 278.448955 
L 211.635017 278.058512 
L 215.357147 277.677589 
L 219.079277 277.326026 
L 222.801408 277.018949 
L 226.523538 276.734861 
L 230.245669 276.50591 
L 233.967799 276.333833 
L 237.689929 276.218602 
L 241.41206 276.162136 
L 245.13419 276.162289 
L 248.856321 276.208993 
L 252.578451 276.292859 
L 256.300581 276.363667 
L 260.022712 276.468883 
L 263.744842 276.573516 
L 267.466973 276.703009 
L 271.189103 276.789361 
L 274.911233 276.877686 
L 278.633364 276.966997 
L 282.355494 277.104955 
L 286.077625 277.204641 
L 289.799755 277.350027 
L 293.521885 277.499855 
L 297.244016 277.663345 
L 300.966146 277.662839 
L 304.688277 277.719613 
L 308.410407 277.751172 
L 312.132537 277.827781 
L 315.854668 277.878556 
L 319.576798 277.930276 
L 323.298928 278.027202 
L 327.021059 278.088574 
L 330.743189 278.193798 
L 334.46532 278.271401 
L 338.18745 278.342739 
L 341.90958 278.455975 
L 345.631711 278.555564 
L 349.353841 278.666924 
L 353.075972 278.78192 
L 356.798102 278.868298 
L 360.520232 278.971176 
L 364.242363 279.108501 
L 367.964493 279.225617 
L 371.686624 279.34762 
L 375.408754 279.467152 
L 379.130884 279.570055 
L 382.853015 279.585756 
L 386.575145 279.608491 
L 390.297276 279.638157 
L 394.019406 279.674629 
L 397.741536 279.689554 
L 401.463667 279.701088 
L 405.185797 279.71873 
L 408.907928 279.742396 
L 412.630058 279.771989 
L 416.352188 279.807393 
L 420.074319 279.848478 
L 423.796449 279.872244 
L 427.51858 279.887798 
" clip-path="url(#p7660e267e3)" style="fill: none; stroke: #9467bd; stroke-width: 1.5; stroke-linecap: square"/>
   </g>
   <g id="patch_3">
    <path d="M 40.603125 297.16 
L 40.603125 7.2 
" style="fill: none; stroke: #000000; stroke-width: 0.8; stroke-linejoin: miter; stroke-linecap: square"/>
   </g>
   <g id="patch_4">
    <path d="M 445.943125 297.16 
L 445.943125 7.2 
" style="fill: none; stroke: #000000; stroke-width: 0.8; stroke-linejoin: miter; stroke-linecap: square"/>
   </g>
   <g id="patch_5">
    <path d="M 40.603125 297.16 
L 445.943125 297.16 
" style="fill: none; stroke: #000000; stroke-width: 0.8; stroke-linejoin: miter; stroke-linecap: square"/>
   </g>
   <g id="patch_6">
    <path d="M 40.603125 7.2 
L 445.943125 7.2 
" style="fill: none; stroke: #000000; stroke-width: 0.8; stroke-linejoin: miter; stroke-linecap: square"/>
   </g>
   <g id="legend_1">
    <g id="patch_7">
     <path d="M 357.236875 88.590625 
L 438.943125 88.590625 
Q 440.943125 88.590625 440.943125 86.590625 
L 440.943125 14.2 
Q 440.943125 12.2 438.943125 12.2 
L 357.236875 12.2 
Q 355.236875 12.2 355.236875 14.2 
L 355.236875 86.590625 
Q 355.236875 88.590625 357.236875 88.590625 
z
" style="fill: #ffffff; opacity: 0.8; stroke: #cccccc; stroke-linejoin: miter"/>
    </g>
    <g id="line2d_23">
     <path d="M 359.236875 20.298437 
L 369.236875 20.298437 
L 379.236875 20.298437 
" style="fill: none; stroke: #1f77b4; stroke-width: 1.5; stroke-linecap: square"/>
    </g>
    <g id="text_20">
     <!-- b =  0.02  -->
     <g transform="translate(387.236875 23.798437) scale(0.1 -0.1)">
      <defs>
       <path id="DejaVuSans-62" d="M 3116 1747 
Q 3116 2381 2855 2742 
Q 2594 3103 2138 3103 
Q 1681 3103 1420 2742 
Q 1159 2381 1159 1747 
Q 1159 1113 1420 752 
Q 1681 391 2138 391 
Q 2594 391 2855 752 
Q 3116 1113 3116 1747 
z
M 1159 2969 
Q 1341 3281 1617 3432 
Q 1894 3584 2278 3584 
Q 2916 3584 3314 3078 
Q 3713 2572 3713 1747 
Q 3713 922 3314 415 
Q 2916 -91 2278 -91 
Q 1894 -91 1617 61 
Q 1341 213 1159 525 
L 1159 0 
L 581 0 
L 581 4863 
L 1159 4863 
L 1159 2969 
z
" transform="scale(0.015625)"/>
       <path id="DejaVuSans-3d" d="M 678 2906 
L 4684 2906 
L 4684 2381 
L 678 2381 
L 678 2906 
z
M 678 1631 
L 4684 1631 
L 4684 1100 
L 678 1100 
L 678 1631 
z
" transform="scale(0.015625)"/>
      </defs>
      <use xlink:href="#DejaVuSans-62"/>
      <use xlink:href="#DejaVuSans-20" x="63.476562"/>
      <use xlink:href="#DejaVuSans-3d" x="95.263672"/>
      <use xlink:href="#DejaVuSans-20" x="179.052734"/>
      <use xlink:href="#DejaVuSans-20" x="210.839844"/>
      <use xlink:href="#DejaVuSans-30" x="242.626953"/>
      <use xlink:href="#DejaVuSans-2e" x="306.25"/>
      <use xlink:href="#DejaVuSans-30" x="338.037109"/>
      <use xlink:href="#DejaVuSans-32" x="401.660156"/>
      <use xlink:href="#DejaVuSans-20" x="465.283203"/>
     </g>
    </g>
    <g id="line2d_24">
     <path d="M 359.236875 34.976562 
L 369.236875 34.976562 
L 379.236875 34.976562 
" style="fill: none; stroke: #ff7f0e; stroke-width: 1.5; stroke-linecap: square"/>
    </g>
    <g id="text_21">
     <!-- b =  0.06  -->
     <g transform="translate(387.236875 38.476562) scale(0.1 -0.1)">
      <defs>
       <path id="DejaVuSans-36" d="M 2113 2584 
Q 1688 2584 1439 2293 
Q 1191 2003 1191 1497 
Q 1191 994 1439 701 
Q 1688 409 2113 409 
Q 2538 409 2786 701 
Q 3034 994 3034 1497 
Q 3034 2003 2786 2293 
Q 2538 2584 2113 2584 
z
M 3366 4563 
L 3366 3988 
Q 3128 4100 2886 4159 
Q 2644 4219 2406 4219 
Q 1781 4219 1451 3797 
Q 1122 3375 1075 2522 
Q 1259 2794 1537 2939 
Q 1816 3084 2150 3084 
Q 2853 3084 3261 2657 
Q 3669 2231 3669 1497 
Q 3669 778 3244 343 
Q 2819 -91 2113 -91 
Q 1303 -91 875 529 
Q 447 1150 447 2328 
Q 447 3434 972 4092 
Q 1497 4750 2381 4750 
Q 2619 4750 2861 4703 
Q 3103 4656 3366 4563 
z
" transform="scale(0.015625)"/>
      </defs>
      <use xlink:href="#DejaVuSans-62"/>
      <use xlink:href="#DejaVuSans-20" x="63.476562"/>
      <use xlink:href="#DejaVuSans-3d" x="95.263672"/>
      <use xlink:href="#DejaVuSans-20" x="179.052734"/>
      <use xlink:href="#DejaVuSans-20" x="210.839844"/>
      <use xlink:href="#DejaVuSans-30" x="242.626953"/>
      <use xlink:href="#DejaVuSans-2e" x="306.25"/>
      <use xlink:href="#DejaVuSans-30" x="338.037109"/>
      <use xlink:href="#DejaVuSans-36" x="401.660156"/>
      <use xlink:href="#DejaVuSans-20" x="465.283203"/>
     </g>
    </g>
    <g id="line2d_25">
     <path d="M 359.236875 49.654687 
L 369.236875 49.654687 
L 379.236875 49.654687 
" style="fill: none; stroke: #2ca02c; stroke-width: 1.5; stroke-linecap: square"/>
    </g>
    <g id="text_22">
     <!-- b =  0.20  -->
     <g transform="translate(387.236875 53.154687) scale(0.1 -0.1)">
      <use xlink:href="#DejaVuSans-62"/>
      <use xlink:href="#DejaVuSans-20" x="63.476562"/>
      <use xlink:href="#DejaVuSans-3d" x="95.263672"/>
      <use xlink:href="#DejaVuSans-20" x="179.052734"/>
      <use xlink:href="#DejaVuSans-20" x="210.839844"/>
      <use xlink:href="#DejaVuSans-30" x="242.626953"/>
      <use xlink:href="#DejaVuSans-2e" x="306.25"/>
      <use xlink:href="#DejaVuSans-32" x="338.037109"/>
      <use xlink:href="#DejaVuSans-30" x="401.660156"/>
      <use xlink:href="#DejaVuSans-20" x="465.283203"/>
     </g>
    </g>
    <g id="line2d_26">
     <path d="M 359.236875 64.332812 
L 369.236875 64.332812 
L 379.236875 64.332812 
" style="fill: none; stroke: #d62728; stroke-width: 1.5; stroke-linecap: square"/>
    </g>
    <g id="text_23">
     <!-- b =  0.40  -->
     <g transform="translate(387.236875 67.832812) scale(0.1 -0.1)">
      <defs>
       <path id="DejaVuSans-34" d="M 2419 4116 
L 825 1625 
L 2419 1625 
L 2419 4116 
z
M 2253 4666 
L 3047 4666 
L 3047 1625 
L 3713 1625 
L 3713 1100 
L 3047 1100 
L 3047 0 
L 2419 0 
L 2419 1100 
L 313 1100 
L 313 1709 
L 2253 4666 
z
" transform="scale(0.015625)"/>
      </defs>
      <use xlink:href="#DejaVuSans-62"/>
      <use xlink:href="#DejaVuSans-20" x="63.476562"/>
      <use xlink:href="#DejaVuSans-3d" x="95.263672"/>
      <use xlink:href="#DejaVuSans-20" x="179.052734"/>
      <use xlink:href="#DejaVuSans-20" x="210.839844"/>
      <use xlink:href="#DejaVuSans-30" x="242.626953"/>
      <use xlink:href="#DejaVuSans-2e" x="306.25"/>
      <use xlink:href="#DejaVuSans-34" x="338.037109"/>
      <use xlink:href="#DejaVuSans-30" x="401.660156"/>
      <use xlink:href="#DejaVuSans-20" x="465.283203"/>
     </g>
    </g>
    <g id="line2d_27">
     <path d="M 359.236875 79.010937 
L 369.236875 79.010937 
L 379.236875 79.010937 
" style="fill: none; stroke: #9467bd; stroke-width: 1.5; stroke-linecap: square"/>
    </g>
    <g id="text_24">
     <!-- b =  0.60  -->
     <g transform="translate(387.236875 82.510937) scale(0.1 -0.1)">
      <use xlink:href="#DejaVuSans-62"/>
      <use xlink:href="#DejaVuSans-20" x="63.476562"/>
      <use xlink:href="#DejaVuSans-3d" x="95.263672"/>
      <use xlink:href="#DejaVuSans-20" x="179.052734"/>
      <use xlink:href="#DejaVuSans-20" x="210.839844"/>
      <use xlink:href="#DejaVuSans-30" x="242.626953"/>
      <use xlink:href="#DejaVuSans-2e" x="306.25"/>
      <use xlink:href="#DejaVuSans-36" x="338.037109"/>
      <use xlink:href="#DejaVuSans-30" x="401.660156"/>
      <use xlink:href="#DejaVuSans-20" x="465.283203"/>
     </g>
    </g>
   </g>
  </g>
 </g>
 <defs>
  <clipPath id="p7660e267e3">
   <rect x="40.603125" y="7.2" width="405.34" height="289.96"/>
  </clipPath>
 </defs>
</svg>
